M48
; DRILL file KiCad 10.0.3 date 2026-07-04T15:18:44
; FORMAT={-:-/ absolute / metric / decimal}
; #@! TF.CreationDate,2026-07-04T15:18:44+02:00
; #@! TF.GenerationSoftware,Kicad,Pcbnew,10.0.3
; #@! TF.FileFunction,MixedPlating,1,2
FMAT,2
METRIC
; #@! TA.AperFunction,Plated,PTH,ViaDrill
T1C0.400
; #@! TA.AperFunction,Plated,PTH,ViaDrill
T2C0.500
; #@! TA.AperFunction,Plated,PTH,ViaDrill
T3C0.600
; #@! TA.AperFunction,Plated,PTH,ViaDrill
T4C0.800
; #@! TA.AperFunction,Plated,PTH,ComponentDrill
T5C0.800
; #@! TA.AperFunction,Plated,PTH,ComponentDrill
T6C0.900
; #@! TA.AperFunction,Plated,PTH,ComponentDrill
T7C0.950
; #@! TA.AperFunction,Plated,PTH,ComponentDrill
T8C1.000
; #@! TA.AperFunction,Plated,PTH,ComponentDrill
T9C1.100
; #@! TA.AperFunction,Plated,PTH,ComponentDrill
T10C1.200
; #@! TA.AperFunction,Plated,PTH,ComponentDrill
T11C1.300
; #@! TA.AperFunction,Plated,PTH,ComponentDrill
T12C1.600
; #@! TA.AperFunction,Plated,PTH,ComponentDrill
T13C1.780
; #@! TA.AperFunction,NonPlated,NPTH,ComponentDrill
T14C3.200
%
G90
G05
T1
X23.856Y-85.95
X24.0Y-31.0
X24.0Y-38.0
X24.0Y-94.0
X24.0Y-108.0
X30.022Y-77.284
X31.0Y-31.0
X36.041Y-56.074
X38.0Y-24.0
X38.0Y-38.0
X40.29Y-61.65
X43.609Y-107.113
X44.325Y-89.593
X45.0Y-24.0
X45.423Y-35.093
X45.63Y-79.901
X46.761Y-64.611
X47.93Y-67.833
X48.676Y-60.439
X48.797Y-71.599
X52.0Y-24.0
X52.0Y-94.0
X53.075Y-59.747
X57.124Y-60.955
X59.0Y-24.0
X59.127Y-59.336
X61.592Y-31.003
X61.829Y-102.485
X64.427Y-99.449
X65.179Y-102.428
X68.047Y-93.075
X71.826Y-50.117
X73.0Y-24.0
X73.092Y-67.782
X80.0Y-24.0
X80.988Y-63.918
X81.092Y-59.46
X81.513Y-60.63
X81.923Y-64.653
X82.614Y-102.166
X87.0Y-24.0
X87.0Y-73.0
X87.0Y-87.0
X93.0Y-64.53
X93.366Y-58.348
X93.465Y-60.118
X94.0Y-24.0
X94.0Y-80.0
X94.0Y-87.0
X95.567Y-34.87
X96.505Y-37.87
X98.579Y-30.197
X98.82Y-45.0
X101.0Y-24.0
X101.0Y-52.0
X101.0Y-94.0
X101.0Y-101.0
X101.819Y-46.169
X107.405Y-41.522
X108.0Y-24.0
X108.0Y-52.0
X108.0Y-80.0
X108.0Y-87.0
X108.0Y-94.0
X108.0Y-101.0
X113.288Y-57.405
X114.341Y-102.494
X114.854Y-51.471
X115.0Y-24.0
X115.0Y-80.0
X115.0Y-87.0
X115.316Y-97.115
X122.0Y-24.0
X122.0Y-73.0
X122.0Y-80.0
X125.512Y-102.486
X128.359Y-100.087
X129.0Y-24.0
X129.0Y-38.0
X136.0Y-24.0
X136.0Y-31.0
X136.0Y-38.0
X136.0Y-59.0
X136.0Y-73.0
X136.0Y-87.0
X136.0Y-108.0
X143.0Y-31.0
X143.0Y-38.0
X143.0Y-45.0
X143.0Y-52.0
X143.0Y-59.0
X143.0Y-66.0
X143.0Y-73.0
X143.0Y-80.0
X143.0Y-87.0
X143.0Y-94.0
X143.0Y-101.0
X143.0Y-108.0
T2
X22.29Y-43.8
X33.3Y-41.5
X134.6Y-41.5
X136.9Y-44.6
T3
X31.318Y-69.484
T4
X69.319Y-57.385
T5
X22.92Y-88.0
X24.92Y-102.5
X24.92Y-105.5
X30.0Y-42.92
X30.0Y-53.08
X33.08Y-88.0
X33.999Y-94.75
X33.999Y-97.25
X34.0Y-42.92
X34.0Y-53.08
X35.08Y-102.5
X35.08Y-105.5
X37.92Y-86.0
X38.92Y-101.0
X38.92Y-105.5
X39.0Y-45.5
X39.0Y-50.5
X39.5Y-93.0
X44.5Y-93.0
X48.08Y-86.0
X48.92Y-45.0
X48.92Y-50.0
X48.92Y-55.0
X49.08Y-101.0
X49.08Y-105.5
X52.92Y-30.0
X52.92Y-35.0
X59.08Y-45.0
X59.08Y-50.0
X59.08Y-55.0
X61.92Y-42.0
X61.92Y-48.0
X63.08Y-30.0
X63.08Y-35.0
X72.08Y-42.0
X72.08Y-48.0
X78.92Y-73.0
X89.08Y-73.0
X96.92Y-73.0
X107.08Y-73.0
X112.92Y-95.0
X112.92Y-99.0
X114.251Y-60.0
X116.0Y-66.5
X116.0Y-71.5
X117.751Y-60.0
X122.92Y-60.0
X122.92Y-65.0
X123.08Y-95.0
X123.08Y-99.0
X133.08Y-60.0
X133.08Y-65.0
X137.0Y-62.5
X137.0Y-67.5
T6
X23.725Y-82.0
X26.265Y-82.0
X31.225Y-82.0
X33.765Y-82.0
T7
X24.5Y-34.475
X27.0Y-34.475
X29.5Y-34.475
X80.25Y-107.475
X82.75Y-107.475
X85.25Y-107.475
X87.75Y-107.475
X94.25Y-107.475
X96.75Y-107.475
X99.25Y-107.475
X101.75Y-107.475
X108.25Y-107.475
X110.75Y-107.475
X113.25Y-107.475
X115.75Y-107.475
X122.25Y-107.475
X124.75Y-107.475
X127.25Y-107.475
X129.75Y-107.475
T8
X30.11Y-111.0
X32.65Y-111.0
X34.0Y-73.5
X34.0Y-76.04
X34.765Y-63.335
X34.765Y-65.875
X35.19Y-111.0
X36.54Y-73.5
X36.54Y-76.04
X37.305Y-63.335
X37.305Y-65.875
X37.73Y-111.0
X39.08Y-73.5
X39.08Y-76.04
X39.845Y-63.335
X39.845Y-65.875
X40.27Y-111.0
X41.11Y-69.9
X41.62Y-73.5
X41.62Y-76.04
X42.385Y-63.335
X42.385Y-65.875
X42.81Y-111.0
X43.65Y-69.9
X44.16Y-73.5
X44.16Y-76.04
X44.925Y-63.335
X44.925Y-65.875
X45.35Y-111.0
X46.19Y-69.9
X46.7Y-73.5
X46.7Y-76.04
X47.465Y-63.335
X47.465Y-65.875
X47.89Y-111.0
X48.73Y-69.9
X49.24Y-73.5
X49.24Y-76.04
X50.005Y-63.335
X50.005Y-65.875
X51.27Y-69.9
X51.78Y-73.5
X51.78Y-76.04
X52.545Y-63.335
X52.545Y-65.875
X53.81Y-69.9
X54.32Y-73.5
X54.32Y-76.04
X55.085Y-63.335
X55.085Y-65.875
X56.35Y-69.9
X56.86Y-73.5
X56.86Y-76.04
X57.625Y-63.335
X57.625Y-65.875
X58.89Y-69.9
X59.4Y-73.5
X59.4Y-76.04
X60.165Y-63.335
X60.165Y-65.875
X61.94Y-73.5
X61.94Y-76.04
X62.705Y-63.335
X62.705Y-65.875
X64.48Y-73.5
X64.48Y-76.04
X65.245Y-63.335
X65.245Y-65.875
X80.74Y-32.0
X80.74Y-49.78
X80.97Y-38.35
X80.97Y-40.89
X80.97Y-43.43
X83.28Y-32.0
X83.28Y-49.78
X85.82Y-32.0
X85.82Y-49.78
X88.36Y-32.0
X88.36Y-49.78
X90.9Y-32.0
X90.9Y-49.78
X93.44Y-32.0
X93.44Y-49.78
X95.98Y-32.0
X95.98Y-49.78
X98.52Y-32.0
X98.52Y-49.78
X101.06Y-32.0
X101.06Y-49.78
X103.6Y-32.0
X103.6Y-49.78
X106.14Y-32.0
X106.14Y-49.78
X108.68Y-32.0
X108.68Y-49.78
X111.22Y-32.0
X111.22Y-49.78
X113.76Y-32.0
X113.76Y-49.78
X116.3Y-32.0
X116.3Y-49.78
X118.84Y-32.0
X118.84Y-49.78
X121.38Y-32.0
X121.38Y-49.78
X123.92Y-32.0
X123.92Y-49.78
X126.46Y-32.0
X126.46Y-49.78
X129.0Y-32.0
X129.0Y-49.78
X134.45Y-52.4
X135.72Y-47.0
X136.475Y-32.75
X136.475Y-35.25
X138.26Y-47.0
X139.55Y-52.4
X140.8Y-47.0
T9
X28.95Y-92.46
X28.95Y-95.0
X28.95Y-97.54
X54.0Y-91.42
X54.0Y-101.58
T10
X61.499Y-94.0
X66.499Y-94.0
X75.499Y-94.0
X80.499Y-94.0
T12
X55.16Y-108.775
X60.24Y-108.775
X68.16Y-108.775
X73.24Y-108.775
T13
X65.04Y-80.3
X65.04Y-83.7
X74.96Y-80.3
X74.96Y-83.7
T14
X24.0Y-24.0
X24.0Y-111.0
X32.0Y-25.0
X67.0Y-25.0
X141.0Y-24.0
X141.0Y-111.0
T11
X86.65Y-78.0G85X88.35Y-78.0
G05
X86.65Y-96.0G85X88.35Y-96.0
G05
X135.65Y-78.0G85X137.35Y-78.0
G05
X135.65Y-96.0G85X137.35Y-96.0
G05
M30
