M48
; DRILL file KiCad 10.0.3 date 2026-07-02T17:12:00
; FORMAT={-:-/ absolute / metric / decimal}
; #@! TF.CreationDate,2026-07-02T17:12:00+02:00
; #@! TF.GenerationSoftware,Kicad,Pcbnew,10.0.3
; #@! TF.FileFunction,MixedPlating,1,2
FMAT,2
METRIC
; #@! TA.AperFunction,Plated,PTH,ViaDrill
T1C0.400
; #@! TA.AperFunction,Plated,PTH,ViaDrill
T2C0.500
; #@! TA.AperFunction,Plated,PTH,ViaDrill
T3C0.550
; #@! TA.AperFunction,Plated,PTH,ViaDrill
T4C0.600
; #@! TA.AperFunction,Plated,PTH,ViaDrill
T5C0.700
; #@! TA.AperFunction,Plated,PTH,ViaDrill
T6C0.800
; #@! TA.AperFunction,Plated,PTH,ComponentDrill
T7C0.800
; #@! TA.AperFunction,Plated,PTH,ComponentDrill
T8C0.900
; #@! TA.AperFunction,Plated,PTH,ComponentDrill
T9C1.000
; #@! TA.AperFunction,Plated,PTH,ComponentDrill
T10C1.200
; #@! TA.AperFunction,Plated,PTH,ComponentDrill
T11C5.300
; #@! TA.AperFunction,NonPlated,NPTH,ComponentDrill
T12C3.200
%
G90
G05
T1
X24.0Y-45.0
X24.0Y-73.0
X31.0Y-66.0
X31.0Y-73.0
X38.0Y-38.0
X38.0Y-45.0
X38.0Y-66.0
X38.0Y-73.0
X38.0Y-87.0
X45.0Y-38.0
X45.0Y-80.0
X45.363Y-71.27
X50.631Y-48.941
X52.0Y-80.0
X52.0Y-87.0
X59.0Y-80.0
X66.0Y-80.0
X73.0Y-80.0
X73.0Y-87.0
X80.0Y-52.0
X80.0Y-80.0
X87.0Y-80.0
X87.0Y-87.0
X94.0Y-52.0
X94.0Y-59.0
X94.0Y-80.0
X94.0Y-87.0
X101.0Y-52.0
X101.0Y-59.0
X108.0Y-52.0
X108.0Y-59.0
T2
X68.22Y-66.19
X68.22Y-70.0
T3
X71.55Y-72.4
T4
X32.611Y-66.584
X41.717Y-65.416
X42.518Y-38.511
X62.9Y-34.2
X62.9Y-51.41
X68.854Y-38.34
T5
X44.6Y-72.54
X53.3Y-55.29
X64.4Y-71.27
X64.6Y-46.54
X64.6Y-53.9
X71.61Y-40.19
T6
X57.4Y-70.0
X73.4Y-34.0
X73.4Y-77.41
T7
X29.92Y-44.0
X29.92Y-70.0
X40.08Y-44.0
X40.08Y-70.0
X47.92Y-54.0
X47.92Y-58.0
X47.92Y-62.0
X48.92Y-88.0
X51.5Y-28.0
X56.5Y-28.0
X58.08Y-54.0
X58.08Y-58.0
X58.08Y-62.0
X59.08Y-88.0
X69.92Y-54.0
X69.92Y-58.0
X69.92Y-62.0
X75.5Y-28.0
X80.08Y-54.0
X80.08Y-58.0
X80.08Y-62.0
X80.5Y-28.0
T8
X42.725Y-88.0
X45.265Y-88.0
T9
X23.5Y-48.11
X23.5Y-50.65
X23.5Y-53.19
X23.5Y-55.73
X23.5Y-58.27
X23.5Y-60.81
X23.5Y-63.35
X23.5Y-65.89
X61.0Y-28.0
X71.0Y-28.0
T10
X31.249Y-57.0
X38.749Y-57.0
X88.749Y-57.0
X96.249Y-57.0
T11
X30.001Y-32.0
X30.001Y-83.0
X105.001Y-32.0
X105.001Y-83.0
T12
X67.0Y-88.0
X78.0Y-88.0
M30
