%TF.GenerationSoftware,KiCad,Pcbnew,10.0.3*%
%TF.CreationDate,2026-07-02T19:49:59+02:00*%
%TF.ProjectId,vanchor-thrust,76616e63-686f-4722-9d74-68727573742e,rev?*%
%TF.SameCoordinates,Original*%
%TF.FileFunction,Legend,Top*%
%TF.FilePolarity,Positive*%
%FSLAX46Y46*%
G04 Gerber Fmt 4.6, Leading zero omitted, Abs format (unit mm)*
G04 Created by KiCad (PCBNEW 10.0.3) date 2026-07-02 19:49:59*
%MOMM*%
%LPD*%
G01*
G04 APERTURE LIST*
%ADD10C,0.150000*%
%ADD11C,0.120000*%
G04 APERTURE END LIST*
D10*
X91916033Y-110016666D02*
X91916033Y-109583332D01*
X91916033Y-109583332D02*
X92182700Y-109816666D01*
X92182700Y-109816666D02*
X92182700Y-109716666D01*
X92182700Y-109716666D02*
X92216033Y-109649999D01*
X92216033Y-109649999D02*
X92249366Y-109616666D01*
X92249366Y-109616666D02*
X92316033Y-109583332D01*
X92316033Y-109583332D02*
X92482700Y-109583332D01*
X92482700Y-109583332D02*
X92549366Y-109616666D01*
X92549366Y-109616666D02*
X92582700Y-109649999D01*
X92582700Y-109649999D02*
X92616033Y-109716666D01*
X92616033Y-109716666D02*
X92616033Y-109916666D01*
X92616033Y-109916666D02*
X92582700Y-109983332D01*
X92582700Y-109983332D02*
X92549366Y-110016666D01*
X91916033Y-109383332D02*
X92616033Y-109149999D01*
X92616033Y-109149999D02*
X91916033Y-108916665D01*
X91916033Y-108749999D02*
X91916033Y-108316665D01*
X91916033Y-108316665D02*
X92182700Y-108549999D01*
X92182700Y-108549999D02*
X92182700Y-108449999D01*
X92182700Y-108449999D02*
X92216033Y-108383332D01*
X92216033Y-108383332D02*
X92249366Y-108349999D01*
X92249366Y-108349999D02*
X92316033Y-108316665D01*
X92316033Y-108316665D02*
X92482700Y-108316665D01*
X92482700Y-108316665D02*
X92549366Y-108349999D01*
X92549366Y-108349999D02*
X92582700Y-108383332D01*
X92582700Y-108383332D02*
X92616033Y-108449999D01*
X92616033Y-108449999D02*
X92616033Y-108649999D01*
X92616033Y-108649999D02*
X92582700Y-108716665D01*
X92582700Y-108716665D02*
X92549366Y-108749999D01*
X91949366Y-107116665D02*
X91916033Y-107183332D01*
X91916033Y-107183332D02*
X91916033Y-107283332D01*
X91916033Y-107283332D02*
X91949366Y-107383332D01*
X91949366Y-107383332D02*
X92016033Y-107449999D01*
X92016033Y-107449999D02*
X92082700Y-107483332D01*
X92082700Y-107483332D02*
X92216033Y-107516665D01*
X92216033Y-107516665D02*
X92316033Y-107516665D01*
X92316033Y-107516665D02*
X92449366Y-107483332D01*
X92449366Y-107483332D02*
X92516033Y-107449999D01*
X92516033Y-107449999D02*
X92582700Y-107383332D01*
X92582700Y-107383332D02*
X92616033Y-107283332D01*
X92616033Y-107283332D02*
X92616033Y-107216665D01*
X92616033Y-107216665D02*
X92582700Y-107116665D01*
X92582700Y-107116665D02*
X92549366Y-107083332D01*
X92549366Y-107083332D02*
X92316033Y-107083332D01*
X92316033Y-107083332D02*
X92316033Y-107216665D01*
X92616033Y-106783332D02*
X91916033Y-106783332D01*
X91916033Y-106783332D02*
X92616033Y-106383332D01*
X92616033Y-106383332D02*
X91916033Y-106383332D01*
X92616033Y-106049999D02*
X91916033Y-106049999D01*
X91916033Y-106049999D02*
X91916033Y-105883332D01*
X91916033Y-105883332D02*
X91949366Y-105783332D01*
X91949366Y-105783332D02*
X92016033Y-105716666D01*
X92016033Y-105716666D02*
X92082700Y-105683332D01*
X92082700Y-105683332D02*
X92216033Y-105649999D01*
X92216033Y-105649999D02*
X92316033Y-105649999D01*
X92316033Y-105649999D02*
X92449366Y-105683332D01*
X92449366Y-105683332D02*
X92516033Y-105716666D01*
X92516033Y-105716666D02*
X92582700Y-105783332D01*
X92582700Y-105783332D02*
X92616033Y-105883332D01*
X92616033Y-105883332D02*
X92616033Y-106049999D01*
X91916033Y-104916666D02*
X91916033Y-104516666D01*
X92616033Y-104716666D02*
X91916033Y-104716666D01*
X91916033Y-104350000D02*
X92616033Y-103883333D01*
X91916033Y-103883333D02*
X92616033Y-104350000D01*
X92616033Y-102683333D02*
X92282700Y-102916666D01*
X92616033Y-103083333D02*
X91916033Y-103083333D01*
X91916033Y-103083333D02*
X91916033Y-102816666D01*
X91916033Y-102816666D02*
X91949366Y-102750000D01*
X91949366Y-102750000D02*
X91982700Y-102716666D01*
X91982700Y-102716666D02*
X92049366Y-102683333D01*
X92049366Y-102683333D02*
X92149366Y-102683333D01*
X92149366Y-102683333D02*
X92216033Y-102716666D01*
X92216033Y-102716666D02*
X92249366Y-102750000D01*
X92249366Y-102750000D02*
X92282700Y-102816666D01*
X92282700Y-102816666D02*
X92282700Y-103083333D01*
X91916033Y-102450000D02*
X92616033Y-101983333D01*
X91916033Y-101983333D02*
X92616033Y-102450000D01*
X109416033Y-103466666D02*
X110116033Y-103233333D01*
X110116033Y-103233333D02*
X109416033Y-102999999D01*
X109849366Y-102766666D02*
X109849366Y-102233333D01*
X110116033Y-102499999D02*
X109582700Y-102499999D01*
X109449366Y-100999999D02*
X109416033Y-101066666D01*
X109416033Y-101066666D02*
X109416033Y-101166666D01*
X109416033Y-101166666D02*
X109449366Y-101266666D01*
X109449366Y-101266666D02*
X109516033Y-101333333D01*
X109516033Y-101333333D02*
X109582700Y-101366666D01*
X109582700Y-101366666D02*
X109716033Y-101399999D01*
X109716033Y-101399999D02*
X109816033Y-101399999D01*
X109816033Y-101399999D02*
X109949366Y-101366666D01*
X109949366Y-101366666D02*
X110016033Y-101333333D01*
X110016033Y-101333333D02*
X110082700Y-101266666D01*
X110082700Y-101266666D02*
X110116033Y-101166666D01*
X110116033Y-101166666D02*
X110116033Y-101099999D01*
X110116033Y-101099999D02*
X110082700Y-100999999D01*
X110082700Y-100999999D02*
X110049366Y-100966666D01*
X110049366Y-100966666D02*
X109816033Y-100966666D01*
X109816033Y-100966666D02*
X109816033Y-101099999D01*
X110116033Y-100666666D02*
X109416033Y-100666666D01*
X109416033Y-100666666D02*
X110116033Y-100266666D01*
X110116033Y-100266666D02*
X109416033Y-100266666D01*
X110116033Y-99933333D02*
X109416033Y-99933333D01*
X109416033Y-99933333D02*
X109416033Y-99766666D01*
X109416033Y-99766666D02*
X109449366Y-99666666D01*
X109449366Y-99666666D02*
X109516033Y-99600000D01*
X109516033Y-99600000D02*
X109582700Y-99566666D01*
X109582700Y-99566666D02*
X109716033Y-99533333D01*
X109716033Y-99533333D02*
X109816033Y-99533333D01*
X109816033Y-99533333D02*
X109949366Y-99566666D01*
X109949366Y-99566666D02*
X110016033Y-99600000D01*
X110016033Y-99600000D02*
X110082700Y-99666666D01*
X110082700Y-99666666D02*
X110116033Y-99766666D01*
X110116033Y-99766666D02*
X110116033Y-99933333D01*
X110082700Y-98733333D02*
X110116033Y-98633333D01*
X110116033Y-98633333D02*
X110116033Y-98466667D01*
X110116033Y-98466667D02*
X110082700Y-98400000D01*
X110082700Y-98400000D02*
X110049366Y-98366667D01*
X110049366Y-98366667D02*
X109982700Y-98333333D01*
X109982700Y-98333333D02*
X109916033Y-98333333D01*
X109916033Y-98333333D02*
X109849366Y-98366667D01*
X109849366Y-98366667D02*
X109816033Y-98400000D01*
X109816033Y-98400000D02*
X109782700Y-98466667D01*
X109782700Y-98466667D02*
X109749366Y-98600000D01*
X109749366Y-98600000D02*
X109716033Y-98666667D01*
X109716033Y-98666667D02*
X109682700Y-98700000D01*
X109682700Y-98700000D02*
X109616033Y-98733333D01*
X109616033Y-98733333D02*
X109549366Y-98733333D01*
X109549366Y-98733333D02*
X109482700Y-98700000D01*
X109482700Y-98700000D02*
X109449366Y-98666667D01*
X109449366Y-98666667D02*
X109416033Y-98600000D01*
X109416033Y-98600000D02*
X109416033Y-98433333D01*
X109416033Y-98433333D02*
X109449366Y-98333333D01*
X110116033Y-98033333D02*
X109416033Y-98033333D01*
X109749366Y-98033333D02*
X109749366Y-97633333D01*
X110116033Y-97633333D02*
X109416033Y-97633333D01*
X25380952Y-93762295D02*
X25000000Y-93762295D01*
X25000000Y-93762295D02*
X24961904Y-94143247D01*
X24961904Y-94143247D02*
X25000000Y-94105152D01*
X25000000Y-94105152D02*
X25076190Y-94067057D01*
X25076190Y-94067057D02*
X25266666Y-94067057D01*
X25266666Y-94067057D02*
X25342857Y-94105152D01*
X25342857Y-94105152D02*
X25380952Y-94143247D01*
X25380952Y-94143247D02*
X25419047Y-94219438D01*
X25419047Y-94219438D02*
X25419047Y-94409914D01*
X25419047Y-94409914D02*
X25380952Y-94486104D01*
X25380952Y-94486104D02*
X25342857Y-94524200D01*
X25342857Y-94524200D02*
X25266666Y-94562295D01*
X25266666Y-94562295D02*
X25076190Y-94562295D01*
X25076190Y-94562295D02*
X25000000Y-94524200D01*
X25000000Y-94524200D02*
X24961904Y-94486104D01*
X25647619Y-93762295D02*
X25914286Y-94562295D01*
X25914286Y-94562295D02*
X26180952Y-93762295D01*
X27514286Y-94562295D02*
X27247619Y-94181342D01*
X27057143Y-94562295D02*
X27057143Y-93762295D01*
X27057143Y-93762295D02*
X27361905Y-93762295D01*
X27361905Y-93762295D02*
X27438095Y-93800390D01*
X27438095Y-93800390D02*
X27476190Y-93838485D01*
X27476190Y-93838485D02*
X27514286Y-93914676D01*
X27514286Y-93914676D02*
X27514286Y-94028961D01*
X27514286Y-94028961D02*
X27476190Y-94105152D01*
X27476190Y-94105152D02*
X27438095Y-94143247D01*
X27438095Y-94143247D02*
X27361905Y-94181342D01*
X27361905Y-94181342D02*
X27057143Y-94181342D01*
X27857143Y-94143247D02*
X28123809Y-94143247D01*
X28238095Y-94562295D02*
X27857143Y-94562295D01*
X27857143Y-94562295D02*
X27857143Y-93762295D01*
X27857143Y-93762295D02*
X28238095Y-93762295D01*
X29000000Y-93800390D02*
X28923810Y-93762295D01*
X28923810Y-93762295D02*
X28809524Y-93762295D01*
X28809524Y-93762295D02*
X28695238Y-93800390D01*
X28695238Y-93800390D02*
X28619048Y-93876580D01*
X28619048Y-93876580D02*
X28580953Y-93952771D01*
X28580953Y-93952771D02*
X28542857Y-94105152D01*
X28542857Y-94105152D02*
X28542857Y-94219438D01*
X28542857Y-94219438D02*
X28580953Y-94371819D01*
X28580953Y-94371819D02*
X28619048Y-94448009D01*
X28619048Y-94448009D02*
X28695238Y-94524200D01*
X28695238Y-94524200D02*
X28809524Y-94562295D01*
X28809524Y-94562295D02*
X28885715Y-94562295D01*
X28885715Y-94562295D02*
X29000000Y-94524200D01*
X29000000Y-94524200D02*
X29038096Y-94486104D01*
X29038096Y-94486104D02*
X29038096Y-94219438D01*
X29038096Y-94219438D02*
X28885715Y-94219438D01*
X46033331Y-81824200D02*
X46147617Y-81862295D01*
X46147617Y-81862295D02*
X46338093Y-81862295D01*
X46338093Y-81862295D02*
X46414284Y-81824200D01*
X46414284Y-81824200D02*
X46452379Y-81786104D01*
X46452379Y-81786104D02*
X46490474Y-81709914D01*
X46490474Y-81709914D02*
X46490474Y-81633723D01*
X46490474Y-81633723D02*
X46452379Y-81557533D01*
X46452379Y-81557533D02*
X46414284Y-81519438D01*
X46414284Y-81519438D02*
X46338093Y-81481342D01*
X46338093Y-81481342D02*
X46185712Y-81443247D01*
X46185712Y-81443247D02*
X46109522Y-81405152D01*
X46109522Y-81405152D02*
X46071427Y-81367057D01*
X46071427Y-81367057D02*
X46033331Y-81290866D01*
X46033331Y-81290866D02*
X46033331Y-81214676D01*
X46033331Y-81214676D02*
X46071427Y-81138485D01*
X46071427Y-81138485D02*
X46109522Y-81100390D01*
X46109522Y-81100390D02*
X46185712Y-81062295D01*
X46185712Y-81062295D02*
X46376189Y-81062295D01*
X46376189Y-81062295D02*
X46490474Y-81100390D01*
X46833332Y-81862295D02*
X46833332Y-81062295D01*
X46833332Y-81062295D02*
X47099998Y-81633723D01*
X47099998Y-81633723D02*
X47366665Y-81062295D01*
X47366665Y-81062295D02*
X47366665Y-81862295D01*
X47709522Y-81633723D02*
X48090475Y-81633723D01*
X47633332Y-81862295D02*
X47899999Y-81062295D01*
X47899999Y-81062295D02*
X48166665Y-81862295D01*
X48890475Y-81862295D02*
X48623808Y-81481342D01*
X48433332Y-81862295D02*
X48433332Y-81062295D01*
X48433332Y-81062295D02*
X48738094Y-81062295D01*
X48738094Y-81062295D02*
X48814284Y-81100390D01*
X48814284Y-81100390D02*
X48852379Y-81138485D01*
X48852379Y-81138485D02*
X48890475Y-81214676D01*
X48890475Y-81214676D02*
X48890475Y-81328961D01*
X48890475Y-81328961D02*
X48852379Y-81405152D01*
X48852379Y-81405152D02*
X48814284Y-81443247D01*
X48814284Y-81443247D02*
X48738094Y-81481342D01*
X48738094Y-81481342D02*
X48433332Y-81481342D01*
X49119046Y-81062295D02*
X49576189Y-81062295D01*
X49347617Y-81862295D02*
X49347617Y-81062295D01*
X50452380Y-81862295D02*
X50452380Y-81062295D01*
X50452380Y-81062295D02*
X50909523Y-81862295D01*
X50909523Y-81862295D02*
X50909523Y-81062295D01*
X51442856Y-81062295D02*
X51595237Y-81062295D01*
X51595237Y-81062295D02*
X51671427Y-81100390D01*
X51671427Y-81100390D02*
X51747618Y-81176580D01*
X51747618Y-81176580D02*
X51785713Y-81328961D01*
X51785713Y-81328961D02*
X51785713Y-81595628D01*
X51785713Y-81595628D02*
X51747618Y-81748009D01*
X51747618Y-81748009D02*
X51671427Y-81824200D01*
X51671427Y-81824200D02*
X51595237Y-81862295D01*
X51595237Y-81862295D02*
X51442856Y-81862295D01*
X51442856Y-81862295D02*
X51366665Y-81824200D01*
X51366665Y-81824200D02*
X51290475Y-81748009D01*
X51290475Y-81748009D02*
X51252379Y-81595628D01*
X51252379Y-81595628D02*
X51252379Y-81328961D01*
X51252379Y-81328961D02*
X51290475Y-81176580D01*
X51290475Y-81176580D02*
X51366665Y-81100390D01*
X51366665Y-81100390D02*
X51442856Y-81062295D01*
X52128570Y-81862295D02*
X52128570Y-81062295D01*
X52128570Y-81062295D02*
X52319046Y-81062295D01*
X52319046Y-81062295D02*
X52433332Y-81100390D01*
X52433332Y-81100390D02*
X52509522Y-81176580D01*
X52509522Y-81176580D02*
X52547617Y-81252771D01*
X52547617Y-81252771D02*
X52585713Y-81405152D01*
X52585713Y-81405152D02*
X52585713Y-81519438D01*
X52585713Y-81519438D02*
X52547617Y-81671819D01*
X52547617Y-81671819D02*
X52509522Y-81748009D01*
X52509522Y-81748009D02*
X52433332Y-81824200D01*
X52433332Y-81824200D02*
X52319046Y-81862295D01*
X52319046Y-81862295D02*
X52128570Y-81862295D01*
X52928570Y-81443247D02*
X53195236Y-81443247D01*
X53309522Y-81862295D02*
X52928570Y-81862295D01*
X52928570Y-81862295D02*
X52928570Y-81062295D01*
X52928570Y-81062295D02*
X53309522Y-81062295D01*
X53652380Y-81786104D02*
X53690475Y-81824200D01*
X53690475Y-81824200D02*
X53652380Y-81862295D01*
X53652380Y-81862295D02*
X53614284Y-81824200D01*
X53614284Y-81824200D02*
X53652380Y-81786104D01*
X53652380Y-81786104D02*
X53652380Y-81862295D01*
X53652380Y-81367057D02*
X53690475Y-81405152D01*
X53690475Y-81405152D02*
X53652380Y-81443247D01*
X53652380Y-81443247D02*
X53614284Y-81405152D01*
X53614284Y-81405152D02*
X53652380Y-81367057D01*
X53652380Y-81367057D02*
X53652380Y-81443247D01*
X54909522Y-81443247D02*
X54642856Y-81443247D01*
X54642856Y-81862295D02*
X54642856Y-81062295D01*
X54642856Y-81062295D02*
X55023808Y-81062295D01*
X55328570Y-81862295D02*
X55328570Y-81062295D01*
X55595236Y-81062295D02*
X56052379Y-81062295D01*
X55823807Y-81862295D02*
X55823807Y-81062295D01*
X56928570Y-81062295D02*
X56928570Y-81709914D01*
X56928570Y-81709914D02*
X56966665Y-81786104D01*
X56966665Y-81786104D02*
X57004760Y-81824200D01*
X57004760Y-81824200D02*
X57080951Y-81862295D01*
X57080951Y-81862295D02*
X57233332Y-81862295D01*
X57233332Y-81862295D02*
X57309522Y-81824200D01*
X57309522Y-81824200D02*
X57347617Y-81786104D01*
X57347617Y-81786104D02*
X57385713Y-81709914D01*
X57385713Y-81709914D02*
X57385713Y-81062295D01*
X58147617Y-81062295D02*
X57766665Y-81062295D01*
X57766665Y-81062295D02*
X57728569Y-81443247D01*
X57728569Y-81443247D02*
X57766665Y-81405152D01*
X57766665Y-81405152D02*
X57842855Y-81367057D01*
X57842855Y-81367057D02*
X58033331Y-81367057D01*
X58033331Y-81367057D02*
X58109522Y-81405152D01*
X58109522Y-81405152D02*
X58147617Y-81443247D01*
X58147617Y-81443247D02*
X58185712Y-81519438D01*
X58185712Y-81519438D02*
X58185712Y-81709914D01*
X58185712Y-81709914D02*
X58147617Y-81786104D01*
X58147617Y-81786104D02*
X58109522Y-81824200D01*
X58109522Y-81824200D02*
X58033331Y-81862295D01*
X58033331Y-81862295D02*
X57842855Y-81862295D01*
X57842855Y-81862295D02*
X57766665Y-81824200D01*
X57766665Y-81824200D02*
X57728569Y-81786104D01*
X59138094Y-81062295D02*
X59138094Y-81709914D01*
X59138094Y-81709914D02*
X59176189Y-81786104D01*
X59176189Y-81786104D02*
X59214284Y-81824200D01*
X59214284Y-81824200D02*
X59290475Y-81862295D01*
X59290475Y-81862295D02*
X59442856Y-81862295D01*
X59442856Y-81862295D02*
X59519046Y-81824200D01*
X59519046Y-81824200D02*
X59557141Y-81786104D01*
X59557141Y-81786104D02*
X59595237Y-81709914D01*
X59595237Y-81709914D02*
X59595237Y-81062295D01*
X60319046Y-81062295D02*
X60166665Y-81062295D01*
X60166665Y-81062295D02*
X60090474Y-81100390D01*
X60090474Y-81100390D02*
X60052379Y-81138485D01*
X60052379Y-81138485D02*
X59976189Y-81252771D01*
X59976189Y-81252771D02*
X59938093Y-81405152D01*
X59938093Y-81405152D02*
X59938093Y-81709914D01*
X59938093Y-81709914D02*
X59976189Y-81786104D01*
X59976189Y-81786104D02*
X60014284Y-81824200D01*
X60014284Y-81824200D02*
X60090474Y-81862295D01*
X60090474Y-81862295D02*
X60242855Y-81862295D01*
X60242855Y-81862295D02*
X60319046Y-81824200D01*
X60319046Y-81824200D02*
X60357141Y-81786104D01*
X60357141Y-81786104D02*
X60395236Y-81709914D01*
X60395236Y-81709914D02*
X60395236Y-81519438D01*
X60395236Y-81519438D02*
X60357141Y-81443247D01*
X60357141Y-81443247D02*
X60319046Y-81405152D01*
X60319046Y-81405152D02*
X60242855Y-81367057D01*
X60242855Y-81367057D02*
X60090474Y-81367057D01*
X60090474Y-81367057D02*
X60014284Y-81405152D01*
X60014284Y-81405152D02*
X59976189Y-81443247D01*
X59976189Y-81443247D02*
X59938093Y-81519438D01*
X61804761Y-81862295D02*
X61538094Y-81481342D01*
X61347618Y-81862295D02*
X61347618Y-81062295D01*
X61347618Y-81062295D02*
X61652380Y-81062295D01*
X61652380Y-81062295D02*
X61728570Y-81100390D01*
X61728570Y-81100390D02*
X61766665Y-81138485D01*
X61766665Y-81138485D02*
X61804761Y-81214676D01*
X61804761Y-81214676D02*
X61804761Y-81328961D01*
X61804761Y-81328961D02*
X61766665Y-81405152D01*
X61766665Y-81405152D02*
X61728570Y-81443247D01*
X61728570Y-81443247D02*
X61652380Y-81481342D01*
X61652380Y-81481342D02*
X61347618Y-81481342D01*
X62566665Y-81862295D02*
X62109522Y-81862295D01*
X62338094Y-81862295D02*
X62338094Y-81062295D01*
X62338094Y-81062295D02*
X62261903Y-81176580D01*
X62261903Y-81176580D02*
X62185713Y-81252771D01*
X62185713Y-81252771D02*
X62109522Y-81290866D01*
X62871427Y-81138485D02*
X62909523Y-81100390D01*
X62909523Y-81100390D02*
X62985713Y-81062295D01*
X62985713Y-81062295D02*
X63176189Y-81062295D01*
X63176189Y-81062295D02*
X63252380Y-81100390D01*
X63252380Y-81100390D02*
X63290475Y-81138485D01*
X63290475Y-81138485D02*
X63328570Y-81214676D01*
X63328570Y-81214676D02*
X63328570Y-81290866D01*
X63328570Y-81290866D02*
X63290475Y-81405152D01*
X63290475Y-81405152D02*
X62833332Y-81862295D01*
X62833332Y-81862295D02*
X63328570Y-81862295D01*
X64738095Y-81862295D02*
X64471428Y-81481342D01*
X64280952Y-81862295D02*
X64280952Y-81062295D01*
X64280952Y-81062295D02*
X64585714Y-81062295D01*
X64585714Y-81062295D02*
X64661904Y-81100390D01*
X64661904Y-81100390D02*
X64699999Y-81138485D01*
X64699999Y-81138485D02*
X64738095Y-81214676D01*
X64738095Y-81214676D02*
X64738095Y-81328961D01*
X64738095Y-81328961D02*
X64699999Y-81405152D01*
X64699999Y-81405152D02*
X64661904Y-81443247D01*
X64661904Y-81443247D02*
X64585714Y-81481342D01*
X64585714Y-81481342D02*
X64280952Y-81481342D01*
X65499999Y-81862295D02*
X65042856Y-81862295D01*
X65271428Y-81862295D02*
X65271428Y-81062295D01*
X65271428Y-81062295D02*
X65195237Y-81176580D01*
X65195237Y-81176580D02*
X65119047Y-81252771D01*
X65119047Y-81252771D02*
X65042856Y-81290866D01*
X65766666Y-81062295D02*
X66261904Y-81062295D01*
X66261904Y-81062295D02*
X65995238Y-81367057D01*
X65995238Y-81367057D02*
X66109523Y-81367057D01*
X66109523Y-81367057D02*
X66185714Y-81405152D01*
X66185714Y-81405152D02*
X66223809Y-81443247D01*
X66223809Y-81443247D02*
X66261904Y-81519438D01*
X66261904Y-81519438D02*
X66261904Y-81709914D01*
X66261904Y-81709914D02*
X66223809Y-81786104D01*
X66223809Y-81786104D02*
X66185714Y-81824200D01*
X66185714Y-81824200D02*
X66109523Y-81862295D01*
X66109523Y-81862295D02*
X65880952Y-81862295D01*
X65880952Y-81862295D02*
X65804761Y-81824200D01*
X65804761Y-81824200D02*
X65766666Y-81786104D01*
X67214286Y-81557533D02*
X67823810Y-81557533D01*
X67519048Y-81862295D02*
X67519048Y-81252771D01*
X69271429Y-81786104D02*
X69233333Y-81824200D01*
X69233333Y-81824200D02*
X69119048Y-81862295D01*
X69119048Y-81862295D02*
X69042857Y-81862295D01*
X69042857Y-81862295D02*
X68928571Y-81824200D01*
X68928571Y-81824200D02*
X68852381Y-81748009D01*
X68852381Y-81748009D02*
X68814286Y-81671819D01*
X68814286Y-81671819D02*
X68776190Y-81519438D01*
X68776190Y-81519438D02*
X68776190Y-81405152D01*
X68776190Y-81405152D02*
X68814286Y-81252771D01*
X68814286Y-81252771D02*
X68852381Y-81176580D01*
X68852381Y-81176580D02*
X68928571Y-81100390D01*
X68928571Y-81100390D02*
X69042857Y-81062295D01*
X69042857Y-81062295D02*
X69119048Y-81062295D01*
X69119048Y-81062295D02*
X69233333Y-81100390D01*
X69233333Y-81100390D02*
X69271429Y-81138485D01*
X69576190Y-81633723D02*
X69957143Y-81633723D01*
X69500000Y-81862295D02*
X69766667Y-81062295D01*
X69766667Y-81062295D02*
X70033333Y-81862295D01*
X70300000Y-81862295D02*
X70300000Y-81062295D01*
X70300000Y-81062295D02*
X70757143Y-81862295D01*
X70757143Y-81862295D02*
X70757143Y-81062295D01*
X71671428Y-81062295D02*
X72204762Y-81862295D01*
X72204762Y-81062295D02*
X71671428Y-81862295D01*
X72966667Y-81786104D02*
X72928571Y-81824200D01*
X72928571Y-81824200D02*
X72814286Y-81862295D01*
X72814286Y-81862295D02*
X72738095Y-81862295D01*
X72738095Y-81862295D02*
X72623809Y-81824200D01*
X72623809Y-81824200D02*
X72547619Y-81748009D01*
X72547619Y-81748009D02*
X72509524Y-81671819D01*
X72509524Y-81671819D02*
X72471428Y-81519438D01*
X72471428Y-81519438D02*
X72471428Y-81405152D01*
X72471428Y-81405152D02*
X72509524Y-81252771D01*
X72509524Y-81252771D02*
X72547619Y-81176580D01*
X72547619Y-81176580D02*
X72623809Y-81100390D01*
X72623809Y-81100390D02*
X72738095Y-81062295D01*
X72738095Y-81062295D02*
X72814286Y-81062295D01*
X72814286Y-81062295D02*
X72928571Y-81100390D01*
X72928571Y-81100390D02*
X72966667Y-81138485D01*
X73195238Y-81062295D02*
X73461905Y-81862295D01*
X73461905Y-81862295D02*
X73728571Y-81062295D01*
X74452381Y-81862295D02*
X74185714Y-81481342D01*
X73995238Y-81862295D02*
X73995238Y-81062295D01*
X73995238Y-81062295D02*
X74300000Y-81062295D01*
X74300000Y-81062295D02*
X74376190Y-81100390D01*
X74376190Y-81100390D02*
X74414285Y-81138485D01*
X74414285Y-81138485D02*
X74452381Y-81214676D01*
X74452381Y-81214676D02*
X74452381Y-81328961D01*
X74452381Y-81328961D02*
X74414285Y-81405152D01*
X74414285Y-81405152D02*
X74376190Y-81443247D01*
X74376190Y-81443247D02*
X74300000Y-81481342D01*
X74300000Y-81481342D02*
X73995238Y-81481342D01*
X75557143Y-81062295D02*
X75709524Y-81062295D01*
X75709524Y-81062295D02*
X75785714Y-81100390D01*
X75785714Y-81100390D02*
X75861905Y-81176580D01*
X75861905Y-81176580D02*
X75900000Y-81328961D01*
X75900000Y-81328961D02*
X75900000Y-81595628D01*
X75900000Y-81595628D02*
X75861905Y-81748009D01*
X75861905Y-81748009D02*
X75785714Y-81824200D01*
X75785714Y-81824200D02*
X75709524Y-81862295D01*
X75709524Y-81862295D02*
X75557143Y-81862295D01*
X75557143Y-81862295D02*
X75480952Y-81824200D01*
X75480952Y-81824200D02*
X75404762Y-81748009D01*
X75404762Y-81748009D02*
X75366666Y-81595628D01*
X75366666Y-81595628D02*
X75366666Y-81328961D01*
X75366666Y-81328961D02*
X75404762Y-81176580D01*
X75404762Y-81176580D02*
X75480952Y-81100390D01*
X75480952Y-81100390D02*
X75557143Y-81062295D01*
X76242857Y-81862295D02*
X76242857Y-81062295D01*
X76242857Y-81062295D02*
X76700000Y-81862295D01*
X76700000Y-81862295D02*
X76700000Y-81062295D01*
X77919047Y-81062295D02*
X77919047Y-81633723D01*
X77919047Y-81633723D02*
X77880952Y-81748009D01*
X77880952Y-81748009D02*
X77804761Y-81824200D01*
X77804761Y-81824200D02*
X77690476Y-81862295D01*
X77690476Y-81862295D02*
X77614285Y-81862295D01*
X78642857Y-81062295D02*
X78490476Y-81062295D01*
X78490476Y-81062295D02*
X78414285Y-81100390D01*
X78414285Y-81100390D02*
X78376190Y-81138485D01*
X78376190Y-81138485D02*
X78300000Y-81252771D01*
X78300000Y-81252771D02*
X78261904Y-81405152D01*
X78261904Y-81405152D02*
X78261904Y-81709914D01*
X78261904Y-81709914D02*
X78300000Y-81786104D01*
X78300000Y-81786104D02*
X78338095Y-81824200D01*
X78338095Y-81824200D02*
X78414285Y-81862295D01*
X78414285Y-81862295D02*
X78566666Y-81862295D01*
X78566666Y-81862295D02*
X78642857Y-81824200D01*
X78642857Y-81824200D02*
X78680952Y-81786104D01*
X78680952Y-81786104D02*
X78719047Y-81709914D01*
X78719047Y-81709914D02*
X78719047Y-81519438D01*
X78719047Y-81519438D02*
X78680952Y-81443247D01*
X78680952Y-81443247D02*
X78642857Y-81405152D01*
X78642857Y-81405152D02*
X78566666Y-81367057D01*
X78566666Y-81367057D02*
X78414285Y-81367057D01*
X78414285Y-81367057D02*
X78338095Y-81405152D01*
X78338095Y-81405152D02*
X78300000Y-81443247D01*
X78300000Y-81443247D02*
X78261904Y-81519438D01*
X79100000Y-81824200D02*
X79100000Y-81862295D01*
X79100000Y-81862295D02*
X79061905Y-81938485D01*
X79061905Y-81938485D02*
X79023809Y-81976580D01*
X80433333Y-81862295D02*
X80052381Y-81862295D01*
X80052381Y-81862295D02*
X80052381Y-81062295D01*
X80700000Y-81443247D02*
X80966666Y-81443247D01*
X81080952Y-81862295D02*
X80700000Y-81862295D01*
X80700000Y-81862295D02*
X80700000Y-81062295D01*
X80700000Y-81062295D02*
X81080952Y-81062295D01*
X81385714Y-81633723D02*
X81766667Y-81633723D01*
X81309524Y-81862295D02*
X81576191Y-81062295D01*
X81576191Y-81062295D02*
X81842857Y-81862295D01*
X81995238Y-81062295D02*
X82261905Y-81862295D01*
X82261905Y-81862295D02*
X82528571Y-81062295D01*
X82795238Y-81443247D02*
X83061904Y-81443247D01*
X83176190Y-81862295D02*
X82795238Y-81862295D01*
X82795238Y-81862295D02*
X82795238Y-81062295D01*
X82795238Y-81062295D02*
X83176190Y-81062295D01*
X84357143Y-81062295D02*
X84357143Y-81633723D01*
X84357143Y-81633723D02*
X84319048Y-81748009D01*
X84319048Y-81748009D02*
X84242857Y-81824200D01*
X84242857Y-81824200D02*
X84128572Y-81862295D01*
X84128572Y-81862295D02*
X84052381Y-81862295D01*
X85157143Y-81862295D02*
X84700000Y-81862295D01*
X84928572Y-81862295D02*
X84928572Y-81062295D01*
X84928572Y-81062295D02*
X84852381Y-81176580D01*
X84852381Y-81176580D02*
X84776191Y-81252771D01*
X84776191Y-81252771D02*
X84700000Y-81290866D01*
X86261906Y-81062295D02*
X86414287Y-81062295D01*
X86414287Y-81062295D02*
X86490477Y-81100390D01*
X86490477Y-81100390D02*
X86566668Y-81176580D01*
X86566668Y-81176580D02*
X86604763Y-81328961D01*
X86604763Y-81328961D02*
X86604763Y-81595628D01*
X86604763Y-81595628D02*
X86566668Y-81748009D01*
X86566668Y-81748009D02*
X86490477Y-81824200D01*
X86490477Y-81824200D02*
X86414287Y-81862295D01*
X86414287Y-81862295D02*
X86261906Y-81862295D01*
X86261906Y-81862295D02*
X86185715Y-81824200D01*
X86185715Y-81824200D02*
X86109525Y-81748009D01*
X86109525Y-81748009D02*
X86071429Y-81595628D01*
X86071429Y-81595628D02*
X86071429Y-81328961D01*
X86071429Y-81328961D02*
X86109525Y-81176580D01*
X86109525Y-81176580D02*
X86185715Y-81100390D01*
X86185715Y-81100390D02*
X86261906Y-81062295D01*
X86947620Y-81862295D02*
X86947620Y-81062295D01*
X86947620Y-81062295D02*
X87252382Y-81062295D01*
X87252382Y-81062295D02*
X87328572Y-81100390D01*
X87328572Y-81100390D02*
X87366667Y-81138485D01*
X87366667Y-81138485D02*
X87404763Y-81214676D01*
X87404763Y-81214676D02*
X87404763Y-81328961D01*
X87404763Y-81328961D02*
X87366667Y-81405152D01*
X87366667Y-81405152D02*
X87328572Y-81443247D01*
X87328572Y-81443247D02*
X87252382Y-81481342D01*
X87252382Y-81481342D02*
X86947620Y-81481342D01*
X87747620Y-81443247D02*
X88014286Y-81443247D01*
X88128572Y-81862295D02*
X87747620Y-81862295D01*
X87747620Y-81862295D02*
X87747620Y-81062295D01*
X87747620Y-81062295D02*
X88128572Y-81062295D01*
X88471430Y-81862295D02*
X88471430Y-81062295D01*
X88471430Y-81062295D02*
X88928573Y-81862295D01*
X88928573Y-81862295D02*
X88928573Y-81062295D01*
X30362295Y-79933333D02*
X29981342Y-80200000D01*
X30362295Y-80390476D02*
X29562295Y-80390476D01*
X29562295Y-80390476D02*
X29562295Y-80085714D01*
X29562295Y-80085714D02*
X29600390Y-80009524D01*
X29600390Y-80009524D02*
X29638485Y-79971429D01*
X29638485Y-79971429D02*
X29714676Y-79933333D01*
X29714676Y-79933333D02*
X29828961Y-79933333D01*
X29828961Y-79933333D02*
X29905152Y-79971429D01*
X29905152Y-79971429D02*
X29943247Y-80009524D01*
X29943247Y-80009524D02*
X29981342Y-80085714D01*
X29981342Y-80085714D02*
X29981342Y-80390476D01*
X30362295Y-79590476D02*
X29562295Y-79590476D01*
X29562295Y-79590476D02*
X29562295Y-79285714D01*
X29562295Y-79285714D02*
X29600390Y-79209524D01*
X29600390Y-79209524D02*
X29638485Y-79171429D01*
X29638485Y-79171429D02*
X29714676Y-79133333D01*
X29714676Y-79133333D02*
X29828961Y-79133333D01*
X29828961Y-79133333D02*
X29905152Y-79171429D01*
X29905152Y-79171429D02*
X29943247Y-79209524D01*
X29943247Y-79209524D02*
X29981342Y-79285714D01*
X29981342Y-79285714D02*
X29981342Y-79590476D01*
X29562295Y-78866667D02*
X30362295Y-78676191D01*
X30362295Y-78676191D02*
X29790866Y-78523810D01*
X29790866Y-78523810D02*
X30362295Y-78371429D01*
X30362295Y-78371429D02*
X29562295Y-78180953D01*
X30362295Y-77876190D02*
X29562295Y-77876190D01*
X29562295Y-77876190D02*
X30133723Y-77609524D01*
X30133723Y-77609524D02*
X29562295Y-77342857D01*
X29562295Y-77342857D02*
X30362295Y-77342857D01*
X30362295Y-75971428D02*
X30362295Y-76352380D01*
X30362295Y-76352380D02*
X29562295Y-76352380D01*
X30362295Y-75704761D02*
X29562295Y-75704761D01*
X29562295Y-75704761D02*
X29562295Y-75399999D01*
X29562295Y-75399999D02*
X29600390Y-75323809D01*
X29600390Y-75323809D02*
X29638485Y-75285714D01*
X29638485Y-75285714D02*
X29714676Y-75247618D01*
X29714676Y-75247618D02*
X29828961Y-75247618D01*
X29828961Y-75247618D02*
X29905152Y-75285714D01*
X29905152Y-75285714D02*
X29943247Y-75323809D01*
X29943247Y-75323809D02*
X29981342Y-75399999D01*
X29981342Y-75399999D02*
X29981342Y-75704761D01*
X29562295Y-74980952D02*
X30362295Y-74790476D01*
X30362295Y-74790476D02*
X29790866Y-74638095D01*
X29790866Y-74638095D02*
X30362295Y-74485714D01*
X30362295Y-74485714D02*
X29562295Y-74295238D01*
X30362295Y-73990475D02*
X29562295Y-73990475D01*
X29562295Y-73990475D02*
X30133723Y-73723809D01*
X30133723Y-73723809D02*
X29562295Y-73457142D01*
X29562295Y-73457142D02*
X30362295Y-73457142D01*
X30362295Y-72009522D02*
X29981342Y-72276189D01*
X30362295Y-72466665D02*
X29562295Y-72466665D01*
X29562295Y-72466665D02*
X29562295Y-72161903D01*
X29562295Y-72161903D02*
X29600390Y-72085713D01*
X29600390Y-72085713D02*
X29638485Y-72047618D01*
X29638485Y-72047618D02*
X29714676Y-72009522D01*
X29714676Y-72009522D02*
X29828961Y-72009522D01*
X29828961Y-72009522D02*
X29905152Y-72047618D01*
X29905152Y-72047618D02*
X29943247Y-72085713D01*
X29943247Y-72085713D02*
X29981342Y-72161903D01*
X29981342Y-72161903D02*
X29981342Y-72466665D01*
X29943247Y-71666665D02*
X29943247Y-71399999D01*
X30362295Y-71285713D02*
X30362295Y-71666665D01*
X30362295Y-71666665D02*
X29562295Y-71666665D01*
X29562295Y-71666665D02*
X29562295Y-71285713D01*
X30362295Y-70942855D02*
X29562295Y-70942855D01*
X29562295Y-70942855D02*
X30362295Y-70485712D01*
X30362295Y-70485712D02*
X29562295Y-70485712D01*
X30362295Y-69114284D02*
X30362295Y-69495236D01*
X30362295Y-69495236D02*
X29562295Y-69495236D01*
X29943247Y-68847617D02*
X29943247Y-68580951D01*
X30362295Y-68466665D02*
X30362295Y-68847617D01*
X30362295Y-68847617D02*
X29562295Y-68847617D01*
X29562295Y-68847617D02*
X29562295Y-68466665D01*
X30362295Y-68123807D02*
X29562295Y-68123807D01*
X29562295Y-68123807D02*
X30362295Y-67666664D01*
X30362295Y-67666664D02*
X29562295Y-67666664D01*
X30362295Y-66219045D02*
X29981342Y-66485712D01*
X30362295Y-66676188D02*
X29562295Y-66676188D01*
X29562295Y-66676188D02*
X29562295Y-66371426D01*
X29562295Y-66371426D02*
X29600390Y-66295236D01*
X29600390Y-66295236D02*
X29638485Y-66257141D01*
X29638485Y-66257141D02*
X29714676Y-66219045D01*
X29714676Y-66219045D02*
X29828961Y-66219045D01*
X29828961Y-66219045D02*
X29905152Y-66257141D01*
X29905152Y-66257141D02*
X29943247Y-66295236D01*
X29943247Y-66295236D02*
X29981342Y-66371426D01*
X29981342Y-66371426D02*
X29981342Y-66676188D01*
X30362295Y-65876188D02*
X29562295Y-65876188D01*
X30324200Y-65533332D02*
X30362295Y-65419046D01*
X30362295Y-65419046D02*
X30362295Y-65228570D01*
X30362295Y-65228570D02*
X30324200Y-65152379D01*
X30324200Y-65152379D02*
X30286104Y-65114284D01*
X30286104Y-65114284D02*
X30209914Y-65076189D01*
X30209914Y-65076189D02*
X30133723Y-65076189D01*
X30133723Y-65076189D02*
X30057533Y-65114284D01*
X30057533Y-65114284D02*
X30019438Y-65152379D01*
X30019438Y-65152379D02*
X29981342Y-65228570D01*
X29981342Y-65228570D02*
X29943247Y-65380951D01*
X29943247Y-65380951D02*
X29905152Y-65457141D01*
X29905152Y-65457141D02*
X29867057Y-65495236D01*
X29867057Y-65495236D02*
X29790866Y-65533332D01*
X29790866Y-65533332D02*
X29714676Y-65533332D01*
X29714676Y-65533332D02*
X29638485Y-65495236D01*
X29638485Y-65495236D02*
X29600390Y-65457141D01*
X29600390Y-65457141D02*
X29562295Y-65380951D01*
X29562295Y-65380951D02*
X29562295Y-65190474D01*
X29562295Y-65190474D02*
X29600390Y-65076189D01*
X30362295Y-63742855D02*
X30362295Y-64123807D01*
X30362295Y-64123807D02*
X29562295Y-64123807D01*
X30362295Y-63476188D02*
X29562295Y-63476188D01*
X30324200Y-63133332D02*
X30362295Y-63019046D01*
X30362295Y-63019046D02*
X30362295Y-62828570D01*
X30362295Y-62828570D02*
X30324200Y-62752379D01*
X30324200Y-62752379D02*
X30286104Y-62714284D01*
X30286104Y-62714284D02*
X30209914Y-62676189D01*
X30209914Y-62676189D02*
X30133723Y-62676189D01*
X30133723Y-62676189D02*
X30057533Y-62714284D01*
X30057533Y-62714284D02*
X30019438Y-62752379D01*
X30019438Y-62752379D02*
X29981342Y-62828570D01*
X29981342Y-62828570D02*
X29943247Y-62980951D01*
X29943247Y-62980951D02*
X29905152Y-63057141D01*
X29905152Y-63057141D02*
X29867057Y-63095236D01*
X29867057Y-63095236D02*
X29790866Y-63133332D01*
X29790866Y-63133332D02*
X29714676Y-63133332D01*
X29714676Y-63133332D02*
X29638485Y-63095236D01*
X29638485Y-63095236D02*
X29600390Y-63057141D01*
X29600390Y-63057141D02*
X29562295Y-62980951D01*
X29562295Y-62980951D02*
X29562295Y-62790474D01*
X29562295Y-62790474D02*
X29600390Y-62676189D01*
X29562295Y-61342855D02*
X29562295Y-61723807D01*
X29562295Y-61723807D02*
X29943247Y-61761903D01*
X29943247Y-61761903D02*
X29905152Y-61723807D01*
X29905152Y-61723807D02*
X29867057Y-61647617D01*
X29867057Y-61647617D02*
X29867057Y-61457141D01*
X29867057Y-61457141D02*
X29905152Y-61380950D01*
X29905152Y-61380950D02*
X29943247Y-61342855D01*
X29943247Y-61342855D02*
X30019438Y-61304760D01*
X30019438Y-61304760D02*
X30209914Y-61304760D01*
X30209914Y-61304760D02*
X30286104Y-61342855D01*
X30286104Y-61342855D02*
X30324200Y-61380950D01*
X30324200Y-61380950D02*
X30362295Y-61457141D01*
X30362295Y-61457141D02*
X30362295Y-61647617D01*
X30362295Y-61647617D02*
X30324200Y-61723807D01*
X30324200Y-61723807D02*
X30286104Y-61761903D01*
X29562295Y-61076188D02*
X30362295Y-60809521D01*
X30362295Y-60809521D02*
X29562295Y-60542855D01*
X29600390Y-59247617D02*
X29562295Y-59323807D01*
X29562295Y-59323807D02*
X29562295Y-59438093D01*
X29562295Y-59438093D02*
X29600390Y-59552379D01*
X29600390Y-59552379D02*
X29676580Y-59628569D01*
X29676580Y-59628569D02*
X29752771Y-59666664D01*
X29752771Y-59666664D02*
X29905152Y-59704760D01*
X29905152Y-59704760D02*
X30019438Y-59704760D01*
X30019438Y-59704760D02*
X30171819Y-59666664D01*
X30171819Y-59666664D02*
X30248009Y-59628569D01*
X30248009Y-59628569D02*
X30324200Y-59552379D01*
X30324200Y-59552379D02*
X30362295Y-59438093D01*
X30362295Y-59438093D02*
X30362295Y-59361902D01*
X30362295Y-59361902D02*
X30324200Y-59247617D01*
X30324200Y-59247617D02*
X30286104Y-59209521D01*
X30286104Y-59209521D02*
X30019438Y-59209521D01*
X30019438Y-59209521D02*
X30019438Y-59361902D01*
X30362295Y-58866664D02*
X29562295Y-58866664D01*
X29562295Y-58866664D02*
X30362295Y-58409521D01*
X30362295Y-58409521D02*
X29562295Y-58409521D01*
X30362295Y-58028569D02*
X29562295Y-58028569D01*
X29562295Y-58028569D02*
X29562295Y-57838093D01*
X29562295Y-57838093D02*
X29600390Y-57723807D01*
X29600390Y-57723807D02*
X29676580Y-57647617D01*
X29676580Y-57647617D02*
X29752771Y-57609522D01*
X29752771Y-57609522D02*
X29905152Y-57571426D01*
X29905152Y-57571426D02*
X30019438Y-57571426D01*
X30019438Y-57571426D02*
X30171819Y-57609522D01*
X30171819Y-57609522D02*
X30248009Y-57647617D01*
X30248009Y-57647617D02*
X30324200Y-57723807D01*
X30324200Y-57723807D02*
X30362295Y-57838093D01*
X30362295Y-57838093D02*
X30362295Y-58028569D01*
X94421428Y-100122842D02*
X94378571Y-100165700D01*
X94378571Y-100165700D02*
X94249999Y-100208557D01*
X94249999Y-100208557D02*
X94164285Y-100208557D01*
X94164285Y-100208557D02*
X94035714Y-100165700D01*
X94035714Y-100165700D02*
X93949999Y-100079985D01*
X93949999Y-100079985D02*
X93907142Y-99994271D01*
X93907142Y-99994271D02*
X93864285Y-99822842D01*
X93864285Y-99822842D02*
X93864285Y-99694271D01*
X93864285Y-99694271D02*
X93907142Y-99522842D01*
X93907142Y-99522842D02*
X93949999Y-99437128D01*
X93949999Y-99437128D02*
X94035714Y-99351414D01*
X94035714Y-99351414D02*
X94164285Y-99308557D01*
X94164285Y-99308557D02*
X94249999Y-99308557D01*
X94249999Y-99308557D02*
X94378571Y-99351414D01*
X94378571Y-99351414D02*
X94421428Y-99394271D01*
X94764285Y-99951414D02*
X95192857Y-99951414D01*
X94678571Y-100208557D02*
X94978571Y-99308557D01*
X94978571Y-99308557D02*
X95278571Y-100208557D01*
X95578571Y-100208557D02*
X95578571Y-99308557D01*
X95578571Y-99308557D02*
X96092857Y-100208557D01*
X96092857Y-100208557D02*
X96092857Y-99308557D01*
X101107143Y-95208557D02*
X101107143Y-94308557D01*
X101107143Y-94308557D02*
X101621429Y-95208557D01*
X101621429Y-95208557D02*
X101621429Y-94308557D01*
X102007143Y-94394271D02*
X102050000Y-94351414D01*
X102050000Y-94351414D02*
X102135715Y-94308557D01*
X102135715Y-94308557D02*
X102350000Y-94308557D01*
X102350000Y-94308557D02*
X102435715Y-94351414D01*
X102435715Y-94351414D02*
X102478572Y-94394271D01*
X102478572Y-94394271D02*
X102521429Y-94479985D01*
X102521429Y-94479985D02*
X102521429Y-94565700D01*
X102521429Y-94565700D02*
X102478572Y-94694271D01*
X102478572Y-94694271D02*
X101964286Y-95208557D01*
X101964286Y-95208557D02*
X102521429Y-95208557D01*
X102907143Y-95208557D02*
X102907143Y-94308557D01*
X103421429Y-95208557D02*
X103035715Y-94694271D01*
X103421429Y-94308557D02*
X102907143Y-94822842D01*
X104492857Y-95208557D02*
X104492857Y-94308557D01*
X104492857Y-94308557D02*
X104835714Y-94308557D01*
X104835714Y-94308557D02*
X104921429Y-94351414D01*
X104921429Y-94351414D02*
X104964286Y-94394271D01*
X104964286Y-94394271D02*
X105007143Y-94479985D01*
X105007143Y-94479985D02*
X105007143Y-94608557D01*
X105007143Y-94608557D02*
X104964286Y-94694271D01*
X104964286Y-94694271D02*
X104921429Y-94737128D01*
X104921429Y-94737128D02*
X104835714Y-94779985D01*
X104835714Y-94779985D02*
X104492857Y-94779985D01*
X105307143Y-94308557D02*
X105521429Y-95208557D01*
X105521429Y-95208557D02*
X105692857Y-94565700D01*
X105692857Y-94565700D02*
X105864286Y-95208557D01*
X105864286Y-95208557D02*
X106078572Y-94308557D01*
X106935714Y-95208557D02*
X106635714Y-94779985D01*
X106421428Y-95208557D02*
X106421428Y-94308557D01*
X106421428Y-94308557D02*
X106764285Y-94308557D01*
X106764285Y-94308557D02*
X106850000Y-94351414D01*
X106850000Y-94351414D02*
X106892857Y-94394271D01*
X106892857Y-94394271D02*
X106935714Y-94479985D01*
X106935714Y-94479985D02*
X106935714Y-94608557D01*
X106935714Y-94608557D02*
X106892857Y-94694271D01*
X106892857Y-94694271D02*
X106850000Y-94737128D01*
X106850000Y-94737128D02*
X106764285Y-94779985D01*
X106764285Y-94779985D02*
X106421428Y-94779985D01*
X20071428Y-44454819D02*
X20071428Y-43454819D01*
X20071428Y-43931009D02*
X20642856Y-43931009D01*
X20642856Y-44454819D02*
X20642856Y-43454819D01*
X21119047Y-43931009D02*
X21452380Y-43931009D01*
X21595237Y-44454819D02*
X21119047Y-44454819D01*
X21119047Y-44454819D02*
X21119047Y-43454819D01*
X21119047Y-43454819D02*
X21595237Y-43454819D01*
X22499999Y-44454819D02*
X22023809Y-44454819D01*
X22023809Y-44454819D02*
X22023809Y-43454819D01*
X22833333Y-44454819D02*
X22833333Y-43454819D01*
X22833333Y-43454819D02*
X23166666Y-44169104D01*
X23166666Y-44169104D02*
X23499999Y-43454819D01*
X23499999Y-43454819D02*
X23499999Y-44454819D01*
X25023809Y-43454819D02*
X25023809Y-44169104D01*
X25023809Y-44169104D02*
X24976190Y-44311961D01*
X24976190Y-44311961D02*
X24880952Y-44407200D01*
X24880952Y-44407200D02*
X24738095Y-44454819D01*
X24738095Y-44454819D02*
X24642857Y-44454819D01*
X26023809Y-44454819D02*
X25452381Y-44454819D01*
X25738095Y-44454819D02*
X25738095Y-43454819D01*
X25738095Y-43454819D02*
X25642857Y-43597676D01*
X25642857Y-43597676D02*
X25547619Y-43692914D01*
X25547619Y-43692914D02*
X25452381Y-43740533D01*
X26357143Y-43454819D02*
X26976190Y-43454819D01*
X26976190Y-43454819D02*
X26642857Y-43835771D01*
X26642857Y-43835771D02*
X26785714Y-43835771D01*
X26785714Y-43835771D02*
X26880952Y-43883390D01*
X26880952Y-43883390D02*
X26928571Y-43931009D01*
X26928571Y-43931009D02*
X26976190Y-44026247D01*
X26976190Y-44026247D02*
X26976190Y-44264342D01*
X26976190Y-44264342D02*
X26928571Y-44359580D01*
X26928571Y-44359580D02*
X26880952Y-44407200D01*
X26880952Y-44407200D02*
X26785714Y-44454819D01*
X26785714Y-44454819D02*
X26500000Y-44454819D01*
X26500000Y-44454819D02*
X26404762Y-44407200D01*
X26404762Y-44407200D02*
X26357143Y-44359580D01*
X46714285Y-101254819D02*
X46714285Y-100254819D01*
X46714285Y-100254819D02*
X47095237Y-100254819D01*
X47095237Y-100254819D02*
X47190475Y-100302438D01*
X47190475Y-100302438D02*
X47238094Y-100350057D01*
X47238094Y-100350057D02*
X47285713Y-100445295D01*
X47285713Y-100445295D02*
X47285713Y-100588152D01*
X47285713Y-100588152D02*
X47238094Y-100683390D01*
X47238094Y-100683390D02*
X47190475Y-100731009D01*
X47190475Y-100731009D02*
X47095237Y-100778628D01*
X47095237Y-100778628D02*
X46714285Y-100778628D01*
X47714285Y-101254819D02*
X47714285Y-100254819D01*
X48761903Y-101159580D02*
X48714284Y-101207200D01*
X48714284Y-101207200D02*
X48571427Y-101254819D01*
X48571427Y-101254819D02*
X48476189Y-101254819D01*
X48476189Y-101254819D02*
X48333332Y-101207200D01*
X48333332Y-101207200D02*
X48238094Y-101111961D01*
X48238094Y-101111961D02*
X48190475Y-101016723D01*
X48190475Y-101016723D02*
X48142856Y-100826247D01*
X48142856Y-100826247D02*
X48142856Y-100683390D01*
X48142856Y-100683390D02*
X48190475Y-100492914D01*
X48190475Y-100492914D02*
X48238094Y-100397676D01*
X48238094Y-100397676D02*
X48333332Y-100302438D01*
X48333332Y-100302438D02*
X48476189Y-100254819D01*
X48476189Y-100254819D02*
X48571427Y-100254819D01*
X48571427Y-100254819D02*
X48714284Y-100302438D01*
X48714284Y-100302438D02*
X48761903Y-100350057D01*
X49380951Y-100254819D02*
X49571427Y-100254819D01*
X49571427Y-100254819D02*
X49666665Y-100302438D01*
X49666665Y-100302438D02*
X49761903Y-100397676D01*
X49761903Y-100397676D02*
X49809522Y-100588152D01*
X49809522Y-100588152D02*
X49809522Y-100921485D01*
X49809522Y-100921485D02*
X49761903Y-101111961D01*
X49761903Y-101111961D02*
X49666665Y-101207200D01*
X49666665Y-101207200D02*
X49571427Y-101254819D01*
X49571427Y-101254819D02*
X49380951Y-101254819D01*
X49380951Y-101254819D02*
X49285713Y-101207200D01*
X49285713Y-101207200D02*
X49190475Y-101111961D01*
X49190475Y-101111961D02*
X49142856Y-100921485D01*
X49142856Y-100921485D02*
X49142856Y-100588152D01*
X49142856Y-100588152D02*
X49190475Y-100397676D01*
X49190475Y-100397676D02*
X49285713Y-100302438D01*
X49285713Y-100302438D02*
X49380951Y-100254819D01*
X50952380Y-100350057D02*
X50999999Y-100302438D01*
X50999999Y-100302438D02*
X51095237Y-100254819D01*
X51095237Y-100254819D02*
X51333332Y-100254819D01*
X51333332Y-100254819D02*
X51428570Y-100302438D01*
X51428570Y-100302438D02*
X51476189Y-100350057D01*
X51476189Y-100350057D02*
X51523808Y-100445295D01*
X51523808Y-100445295D02*
X51523808Y-100540533D01*
X51523808Y-100540533D02*
X51476189Y-100683390D01*
X51476189Y-100683390D02*
X50904761Y-101254819D01*
X50904761Y-101254819D02*
X51523808Y-101254819D01*
X52714285Y-100873866D02*
X53476190Y-100873866D01*
X54714285Y-101254819D02*
X54714285Y-100254819D01*
X54714285Y-100254819D02*
X55285713Y-101254819D01*
X55285713Y-101254819D02*
X55285713Y-100254819D01*
X55714285Y-100350057D02*
X55761904Y-100302438D01*
X55761904Y-100302438D02*
X55857142Y-100254819D01*
X55857142Y-100254819D02*
X56095237Y-100254819D01*
X56095237Y-100254819D02*
X56190475Y-100302438D01*
X56190475Y-100302438D02*
X56238094Y-100350057D01*
X56238094Y-100350057D02*
X56285713Y-100445295D01*
X56285713Y-100445295D02*
X56285713Y-100540533D01*
X56285713Y-100540533D02*
X56238094Y-100683390D01*
X56238094Y-100683390D02*
X55666666Y-101254819D01*
X55666666Y-101254819D02*
X56285713Y-101254819D01*
X56714285Y-101254819D02*
X56714285Y-100254819D01*
X57285713Y-101254819D02*
X56857142Y-100683390D01*
X57285713Y-100254819D02*
X56714285Y-100826247D01*
X58476190Y-101254819D02*
X58476190Y-100254819D01*
X58476190Y-100254819D02*
X59047618Y-101254819D01*
X59047618Y-101254819D02*
X59047618Y-100254819D01*
X59714285Y-100254819D02*
X59904761Y-100254819D01*
X59904761Y-100254819D02*
X59999999Y-100302438D01*
X59999999Y-100302438D02*
X60095237Y-100397676D01*
X60095237Y-100397676D02*
X60142856Y-100588152D01*
X60142856Y-100588152D02*
X60142856Y-100921485D01*
X60142856Y-100921485D02*
X60095237Y-101111961D01*
X60095237Y-101111961D02*
X59999999Y-101207200D01*
X59999999Y-101207200D02*
X59904761Y-101254819D01*
X59904761Y-101254819D02*
X59714285Y-101254819D01*
X59714285Y-101254819D02*
X59619047Y-101207200D01*
X59619047Y-101207200D02*
X59523809Y-101111961D01*
X59523809Y-101111961D02*
X59476190Y-100921485D01*
X59476190Y-100921485D02*
X59476190Y-100588152D01*
X59476190Y-100588152D02*
X59523809Y-100397676D01*
X59523809Y-100397676D02*
X59619047Y-100302438D01*
X59619047Y-100302438D02*
X59714285Y-100254819D01*
X60571428Y-101254819D02*
X60571428Y-100254819D01*
X60571428Y-100254819D02*
X60809523Y-100254819D01*
X60809523Y-100254819D02*
X60952380Y-100302438D01*
X60952380Y-100302438D02*
X61047618Y-100397676D01*
X61047618Y-100397676D02*
X61095237Y-100492914D01*
X61095237Y-100492914D02*
X61142856Y-100683390D01*
X61142856Y-100683390D02*
X61142856Y-100826247D01*
X61142856Y-100826247D02*
X61095237Y-101016723D01*
X61095237Y-101016723D02*
X61047618Y-101111961D01*
X61047618Y-101111961D02*
X60952380Y-101207200D01*
X60952380Y-101207200D02*
X60809523Y-101254819D01*
X60809523Y-101254819D02*
X60571428Y-101254819D01*
X61571428Y-100731009D02*
X61904761Y-100731009D01*
X62047618Y-101254819D02*
X61571428Y-101254819D01*
X61571428Y-101254819D02*
X61571428Y-100254819D01*
X61571428Y-100254819D02*
X62047618Y-100254819D01*
X63428571Y-100254819D02*
X63619047Y-100254819D01*
X63619047Y-100254819D02*
X63714285Y-100302438D01*
X63714285Y-100302438D02*
X63809523Y-100397676D01*
X63809523Y-100397676D02*
X63857142Y-100588152D01*
X63857142Y-100588152D02*
X63857142Y-100921485D01*
X63857142Y-100921485D02*
X63809523Y-101111961D01*
X63809523Y-101111961D02*
X63714285Y-101207200D01*
X63714285Y-101207200D02*
X63619047Y-101254819D01*
X63619047Y-101254819D02*
X63428571Y-101254819D01*
X63428571Y-101254819D02*
X63333333Y-101207200D01*
X63333333Y-101207200D02*
X63238095Y-101111961D01*
X63238095Y-101111961D02*
X63190476Y-100921485D01*
X63190476Y-100921485D02*
X63190476Y-100588152D01*
X63190476Y-100588152D02*
X63238095Y-100397676D01*
X63238095Y-100397676D02*
X63333333Y-100302438D01*
X63333333Y-100302438D02*
X63428571Y-100254819D01*
X64285714Y-101254819D02*
X64285714Y-100254819D01*
X64285714Y-100254819D02*
X64666666Y-100254819D01*
X64666666Y-100254819D02*
X64761904Y-100302438D01*
X64761904Y-100302438D02*
X64809523Y-100350057D01*
X64809523Y-100350057D02*
X64857142Y-100445295D01*
X64857142Y-100445295D02*
X64857142Y-100588152D01*
X64857142Y-100588152D02*
X64809523Y-100683390D01*
X64809523Y-100683390D02*
X64761904Y-100731009D01*
X64761904Y-100731009D02*
X64666666Y-100778628D01*
X64666666Y-100778628D02*
X64285714Y-100778628D01*
X65142857Y-100254819D02*
X65714285Y-100254819D01*
X65428571Y-101254819D02*
X65428571Y-100254819D01*
X66047619Y-101254819D02*
X66047619Y-100254819D01*
X66714285Y-100254819D02*
X66904761Y-100254819D01*
X66904761Y-100254819D02*
X66999999Y-100302438D01*
X66999999Y-100302438D02*
X67095237Y-100397676D01*
X67095237Y-100397676D02*
X67142856Y-100588152D01*
X67142856Y-100588152D02*
X67142856Y-100921485D01*
X67142856Y-100921485D02*
X67095237Y-101111961D01*
X67095237Y-101111961D02*
X66999999Y-101207200D01*
X66999999Y-101207200D02*
X66904761Y-101254819D01*
X66904761Y-101254819D02*
X66714285Y-101254819D01*
X66714285Y-101254819D02*
X66619047Y-101207200D01*
X66619047Y-101207200D02*
X66523809Y-101111961D01*
X66523809Y-101111961D02*
X66476190Y-100921485D01*
X66476190Y-100921485D02*
X66476190Y-100588152D01*
X66476190Y-100588152D02*
X66523809Y-100397676D01*
X66523809Y-100397676D02*
X66619047Y-100302438D01*
X66619047Y-100302438D02*
X66714285Y-100254819D01*
X67571428Y-101254819D02*
X67571428Y-100254819D01*
X67571428Y-100254819D02*
X68142856Y-101254819D01*
X68142856Y-101254819D02*
X68142856Y-100254819D01*
X69666666Y-101635771D02*
X69619047Y-101588152D01*
X69619047Y-101588152D02*
X69523809Y-101445295D01*
X69523809Y-101445295D02*
X69476190Y-101350057D01*
X69476190Y-101350057D02*
X69428571Y-101207200D01*
X69428571Y-101207200D02*
X69380952Y-100969104D01*
X69380952Y-100969104D02*
X69380952Y-100778628D01*
X69380952Y-100778628D02*
X69428571Y-100540533D01*
X69428571Y-100540533D02*
X69476190Y-100397676D01*
X69476190Y-100397676D02*
X69523809Y-100302438D01*
X69523809Y-100302438D02*
X69619047Y-100159580D01*
X69619047Y-100159580D02*
X69666666Y-100111961D01*
X70047619Y-101254819D02*
X70047619Y-100254819D01*
X70047619Y-100254819D02*
X70285714Y-100254819D01*
X70285714Y-100254819D02*
X70428571Y-100302438D01*
X70428571Y-100302438D02*
X70523809Y-100397676D01*
X70523809Y-100397676D02*
X70571428Y-100492914D01*
X70571428Y-100492914D02*
X70619047Y-100683390D01*
X70619047Y-100683390D02*
X70619047Y-100826247D01*
X70619047Y-100826247D02*
X70571428Y-101016723D01*
X70571428Y-101016723D02*
X70523809Y-101111961D01*
X70523809Y-101111961D02*
X70428571Y-101207200D01*
X70428571Y-101207200D02*
X70285714Y-101254819D01*
X70285714Y-101254819D02*
X70047619Y-101254819D01*
X71047619Y-101254819D02*
X71047619Y-100254819D01*
X71047619Y-100254819D02*
X71619047Y-101254819D01*
X71619047Y-101254819D02*
X71619047Y-100254819D01*
X72095238Y-101254819D02*
X72095238Y-100254819D01*
X72095238Y-100254819D02*
X72476190Y-100254819D01*
X72476190Y-100254819D02*
X72571428Y-100302438D01*
X72571428Y-100302438D02*
X72619047Y-100350057D01*
X72619047Y-100350057D02*
X72666666Y-100445295D01*
X72666666Y-100445295D02*
X72666666Y-100588152D01*
X72666666Y-100588152D02*
X72619047Y-100683390D01*
X72619047Y-100683390D02*
X72571428Y-100731009D01*
X72571428Y-100731009D02*
X72476190Y-100778628D01*
X72476190Y-100778628D02*
X72095238Y-100778628D01*
X73000000Y-101635771D02*
X73047619Y-101588152D01*
X73047619Y-101588152D02*
X73142857Y-101445295D01*
X73142857Y-101445295D02*
X73190476Y-101350057D01*
X73190476Y-101350057D02*
X73238095Y-101207200D01*
X73238095Y-101207200D02*
X73285714Y-100969104D01*
X73285714Y-100969104D02*
X73285714Y-100778628D01*
X73285714Y-100778628D02*
X73238095Y-100540533D01*
X73238095Y-100540533D02*
X73190476Y-100397676D01*
X73190476Y-100397676D02*
X73142857Y-100302438D01*
X73142857Y-100302438D02*
X73047619Y-100159580D01*
X73047619Y-100159580D02*
X73000000Y-100111961D01*
X46928571Y-33654819D02*
X46357143Y-33654819D01*
X46642857Y-33654819D02*
X46642857Y-32654819D01*
X46642857Y-32654819D02*
X46547619Y-32797676D01*
X46547619Y-32797676D02*
X46452381Y-32892914D01*
X46452381Y-32892914D02*
X46357143Y-32940533D01*
X47309524Y-32750057D02*
X47357143Y-32702438D01*
X47357143Y-32702438D02*
X47452381Y-32654819D01*
X47452381Y-32654819D02*
X47690476Y-32654819D01*
X47690476Y-32654819D02*
X47785714Y-32702438D01*
X47785714Y-32702438D02*
X47833333Y-32750057D01*
X47833333Y-32750057D02*
X47880952Y-32845295D01*
X47880952Y-32845295D02*
X47880952Y-32940533D01*
X47880952Y-32940533D02*
X47833333Y-33083390D01*
X47833333Y-33083390D02*
X47261905Y-33654819D01*
X47261905Y-33654819D02*
X47880952Y-33654819D01*
X48309524Y-33273866D02*
X49071429Y-33273866D01*
X49500000Y-32750057D02*
X49547619Y-32702438D01*
X49547619Y-32702438D02*
X49642857Y-32654819D01*
X49642857Y-32654819D02*
X49880952Y-32654819D01*
X49880952Y-32654819D02*
X49976190Y-32702438D01*
X49976190Y-32702438D02*
X50023809Y-32750057D01*
X50023809Y-32750057D02*
X50071428Y-32845295D01*
X50071428Y-32845295D02*
X50071428Y-32940533D01*
X50071428Y-32940533D02*
X50023809Y-33083390D01*
X50023809Y-33083390D02*
X49452381Y-33654819D01*
X49452381Y-33654819D02*
X50071428Y-33654819D01*
X50928571Y-32988152D02*
X50928571Y-33654819D01*
X50690476Y-32607200D02*
X50452381Y-33321485D01*
X50452381Y-33321485D02*
X51071428Y-33321485D01*
X51309524Y-32654819D02*
X51642857Y-33654819D01*
X51642857Y-33654819D02*
X51976190Y-32654819D01*
X54166667Y-33131009D02*
X54309524Y-33178628D01*
X54309524Y-33178628D02*
X54357143Y-33226247D01*
X54357143Y-33226247D02*
X54404762Y-33321485D01*
X54404762Y-33321485D02*
X54404762Y-33464342D01*
X54404762Y-33464342D02*
X54357143Y-33559580D01*
X54357143Y-33559580D02*
X54309524Y-33607200D01*
X54309524Y-33607200D02*
X54214286Y-33654819D01*
X54214286Y-33654819D02*
X53833334Y-33654819D01*
X53833334Y-33654819D02*
X53833334Y-32654819D01*
X53833334Y-32654819D02*
X54166667Y-32654819D01*
X54166667Y-32654819D02*
X54261905Y-32702438D01*
X54261905Y-32702438D02*
X54309524Y-32750057D01*
X54309524Y-32750057D02*
X54357143Y-32845295D01*
X54357143Y-32845295D02*
X54357143Y-32940533D01*
X54357143Y-32940533D02*
X54309524Y-33035771D01*
X54309524Y-33035771D02*
X54261905Y-33083390D01*
X54261905Y-33083390D02*
X54166667Y-33131009D01*
X54166667Y-33131009D02*
X53833334Y-33131009D01*
X54785715Y-33369104D02*
X55261905Y-33369104D01*
X54690477Y-33654819D02*
X55023810Y-32654819D01*
X55023810Y-32654819D02*
X55357143Y-33654819D01*
X55642858Y-33607200D02*
X55785715Y-33654819D01*
X55785715Y-33654819D02*
X56023810Y-33654819D01*
X56023810Y-33654819D02*
X56119048Y-33607200D01*
X56119048Y-33607200D02*
X56166667Y-33559580D01*
X56166667Y-33559580D02*
X56214286Y-33464342D01*
X56214286Y-33464342D02*
X56214286Y-33369104D01*
X56214286Y-33369104D02*
X56166667Y-33273866D01*
X56166667Y-33273866D02*
X56119048Y-33226247D01*
X56119048Y-33226247D02*
X56023810Y-33178628D01*
X56023810Y-33178628D02*
X55833334Y-33131009D01*
X55833334Y-33131009D02*
X55738096Y-33083390D01*
X55738096Y-33083390D02*
X55690477Y-33035771D01*
X55690477Y-33035771D02*
X55642858Y-32940533D01*
X55642858Y-32940533D02*
X55642858Y-32845295D01*
X55642858Y-32845295D02*
X55690477Y-32750057D01*
X55690477Y-32750057D02*
X55738096Y-32702438D01*
X55738096Y-32702438D02*
X55833334Y-32654819D01*
X55833334Y-32654819D02*
X56071429Y-32654819D01*
X56071429Y-32654819D02*
X56214286Y-32702438D01*
X56642858Y-33131009D02*
X56976191Y-33131009D01*
X57119048Y-33654819D02*
X56642858Y-33654819D01*
X56642858Y-33654819D02*
X56642858Y-32654819D01*
X56642858Y-32654819D02*
X57119048Y-32654819D01*
X57547620Y-33559580D02*
X57595239Y-33607200D01*
X57595239Y-33607200D02*
X57547620Y-33654819D01*
X57547620Y-33654819D02*
X57500001Y-33607200D01*
X57500001Y-33607200D02*
X57547620Y-33559580D01*
X57547620Y-33559580D02*
X57547620Y-33654819D01*
X57547620Y-33035771D02*
X57595239Y-33083390D01*
X57595239Y-33083390D02*
X57547620Y-33131009D01*
X57547620Y-33131009D02*
X57500001Y-33083390D01*
X57500001Y-33083390D02*
X57547620Y-33035771D01*
X57547620Y-33035771D02*
X57547620Y-33131009D01*
X58023810Y-32654819D02*
X58023810Y-33464342D01*
X58023810Y-33464342D02*
X58071429Y-33559580D01*
X58071429Y-33559580D02*
X58119048Y-33607200D01*
X58119048Y-33607200D02*
X58214286Y-33654819D01*
X58214286Y-33654819D02*
X58404762Y-33654819D01*
X58404762Y-33654819D02*
X58500000Y-33607200D01*
X58500000Y-33607200D02*
X58547619Y-33559580D01*
X58547619Y-33559580D02*
X58595238Y-33464342D01*
X58595238Y-33464342D02*
X58595238Y-32654819D01*
X59595238Y-33654819D02*
X59023810Y-33654819D01*
X59309524Y-33654819D02*
X59309524Y-32654819D01*
X59309524Y-32654819D02*
X59214286Y-32797676D01*
X59214286Y-32797676D02*
X59119048Y-32892914D01*
X59119048Y-32892914D02*
X59023810Y-32940533D01*
X60023810Y-33273866D02*
X60785715Y-33273866D01*
X60404762Y-33654819D02*
X60404762Y-32892914D01*
X61261905Y-32654819D02*
X61261905Y-33464342D01*
X61261905Y-33464342D02*
X61309524Y-33559580D01*
X61309524Y-33559580D02*
X61357143Y-33607200D01*
X61357143Y-33607200D02*
X61452381Y-33654819D01*
X61452381Y-33654819D02*
X61642857Y-33654819D01*
X61642857Y-33654819D02*
X61738095Y-33607200D01*
X61738095Y-33607200D02*
X61785714Y-33559580D01*
X61785714Y-33559580D02*
X61833333Y-33464342D01*
X61833333Y-33464342D02*
X61833333Y-32654819D01*
X62261905Y-32750057D02*
X62309524Y-32702438D01*
X62309524Y-32702438D02*
X62404762Y-32654819D01*
X62404762Y-32654819D02*
X62642857Y-32654819D01*
X62642857Y-32654819D02*
X62738095Y-32702438D01*
X62738095Y-32702438D02*
X62785714Y-32750057D01*
X62785714Y-32750057D02*
X62833333Y-32845295D01*
X62833333Y-32845295D02*
X62833333Y-32940533D01*
X62833333Y-32940533D02*
X62785714Y-33083390D01*
X62785714Y-33083390D02*
X62214286Y-33654819D01*
X62214286Y-33654819D02*
X62833333Y-33654819D01*
X63928572Y-32654819D02*
X64547619Y-32654819D01*
X64547619Y-32654819D02*
X64214286Y-33035771D01*
X64214286Y-33035771D02*
X64357143Y-33035771D01*
X64357143Y-33035771D02*
X64452381Y-33083390D01*
X64452381Y-33083390D02*
X64500000Y-33131009D01*
X64500000Y-33131009D02*
X64547619Y-33226247D01*
X64547619Y-33226247D02*
X64547619Y-33464342D01*
X64547619Y-33464342D02*
X64500000Y-33559580D01*
X64500000Y-33559580D02*
X64452381Y-33607200D01*
X64452381Y-33607200D02*
X64357143Y-33654819D01*
X64357143Y-33654819D02*
X64071429Y-33654819D01*
X64071429Y-33654819D02*
X63976191Y-33607200D01*
X63976191Y-33607200D02*
X63928572Y-33559580D01*
X65166667Y-32654819D02*
X65261905Y-32654819D01*
X65261905Y-32654819D02*
X65357143Y-32702438D01*
X65357143Y-32702438D02*
X65404762Y-32750057D01*
X65404762Y-32750057D02*
X65452381Y-32845295D01*
X65452381Y-32845295D02*
X65500000Y-33035771D01*
X65500000Y-33035771D02*
X65500000Y-33273866D01*
X65500000Y-33273866D02*
X65452381Y-33464342D01*
X65452381Y-33464342D02*
X65404762Y-33559580D01*
X65404762Y-33559580D02*
X65357143Y-33607200D01*
X65357143Y-33607200D02*
X65261905Y-33654819D01*
X65261905Y-33654819D02*
X65166667Y-33654819D01*
X65166667Y-33654819D02*
X65071429Y-33607200D01*
X65071429Y-33607200D02*
X65023810Y-33559580D01*
X65023810Y-33559580D02*
X64976191Y-33464342D01*
X64976191Y-33464342D02*
X64928572Y-33273866D01*
X64928572Y-33273866D02*
X64928572Y-33035771D01*
X64928572Y-33035771D02*
X64976191Y-32845295D01*
X64976191Y-32845295D02*
X65023810Y-32750057D01*
X65023810Y-32750057D02*
X65071429Y-32702438D01*
X65071429Y-32702438D02*
X65166667Y-32654819D01*
X65880953Y-33369104D02*
X66357143Y-33369104D01*
X65785715Y-33654819D02*
X66119048Y-32654819D01*
X66119048Y-32654819D02*
X66452381Y-33654819D01*
X68309525Y-33654819D02*
X68309525Y-32654819D01*
X68309525Y-33131009D02*
X68880953Y-33131009D01*
X68880953Y-33654819D02*
X68880953Y-32654819D01*
X69357144Y-33654819D02*
X69357144Y-32654819D01*
X70357143Y-32702438D02*
X70261905Y-32654819D01*
X70261905Y-32654819D02*
X70119048Y-32654819D01*
X70119048Y-32654819D02*
X69976191Y-32702438D01*
X69976191Y-32702438D02*
X69880953Y-32797676D01*
X69880953Y-32797676D02*
X69833334Y-32892914D01*
X69833334Y-32892914D02*
X69785715Y-33083390D01*
X69785715Y-33083390D02*
X69785715Y-33226247D01*
X69785715Y-33226247D02*
X69833334Y-33416723D01*
X69833334Y-33416723D02*
X69880953Y-33511961D01*
X69880953Y-33511961D02*
X69976191Y-33607200D01*
X69976191Y-33607200D02*
X70119048Y-33654819D01*
X70119048Y-33654819D02*
X70214286Y-33654819D01*
X70214286Y-33654819D02*
X70357143Y-33607200D01*
X70357143Y-33607200D02*
X70404762Y-33559580D01*
X70404762Y-33559580D02*
X70404762Y-33226247D01*
X70404762Y-33226247D02*
X70214286Y-33226247D01*
X70833334Y-33654819D02*
X70833334Y-32654819D01*
X70833334Y-33131009D02*
X71404762Y-33131009D01*
X71404762Y-33654819D02*
X71404762Y-32654819D01*
X72642858Y-33654819D02*
X72642858Y-32654819D01*
X72642858Y-32654819D02*
X73023810Y-32654819D01*
X73023810Y-32654819D02*
X73119048Y-32702438D01*
X73119048Y-32702438D02*
X73166667Y-32750057D01*
X73166667Y-32750057D02*
X73214286Y-32845295D01*
X73214286Y-32845295D02*
X73214286Y-32988152D01*
X73214286Y-32988152D02*
X73166667Y-33083390D01*
X73166667Y-33083390D02*
X73119048Y-33131009D01*
X73119048Y-33131009D02*
X73023810Y-33178628D01*
X73023810Y-33178628D02*
X72642858Y-33178628D01*
X73547620Y-32654819D02*
X73785715Y-33654819D01*
X73785715Y-33654819D02*
X73976191Y-32940533D01*
X73976191Y-32940533D02*
X74166667Y-33654819D01*
X74166667Y-33654819D02*
X74404763Y-32654819D01*
X75357143Y-33654819D02*
X75023810Y-33178628D01*
X74785715Y-33654819D02*
X74785715Y-32654819D01*
X74785715Y-32654819D02*
X75166667Y-32654819D01*
X75166667Y-32654819D02*
X75261905Y-32702438D01*
X75261905Y-32702438D02*
X75309524Y-32750057D01*
X75309524Y-32750057D02*
X75357143Y-32845295D01*
X75357143Y-32845295D02*
X75357143Y-32988152D01*
X75357143Y-32988152D02*
X75309524Y-33083390D01*
X75309524Y-33083390D02*
X75261905Y-33131009D01*
X75261905Y-33131009D02*
X75166667Y-33178628D01*
X75166667Y-33178628D02*
X74785715Y-33178628D01*
X75785715Y-33559580D02*
X75833334Y-33607200D01*
X75833334Y-33607200D02*
X75785715Y-33654819D01*
X75785715Y-33654819D02*
X75738096Y-33607200D01*
X75738096Y-33607200D02*
X75785715Y-33559580D01*
X75785715Y-33559580D02*
X75785715Y-33654819D01*
X75785715Y-33035771D02*
X75833334Y-33083390D01*
X75833334Y-33083390D02*
X75785715Y-33131009D01*
X75785715Y-33131009D02*
X75738096Y-33083390D01*
X75738096Y-33083390D02*
X75785715Y-33035771D01*
X75785715Y-33035771D02*
X75785715Y-33131009D01*
X76261905Y-33273866D02*
X77023810Y-33273866D01*
X76642857Y-33654819D02*
X76642857Y-32892914D01*
X77500000Y-32654819D02*
X77500000Y-33464342D01*
X77500000Y-33464342D02*
X77547619Y-33559580D01*
X77547619Y-33559580D02*
X77595238Y-33607200D01*
X77595238Y-33607200D02*
X77690476Y-33654819D01*
X77690476Y-33654819D02*
X77880952Y-33654819D01*
X77880952Y-33654819D02*
X77976190Y-33607200D01*
X77976190Y-33607200D02*
X78023809Y-33559580D01*
X78023809Y-33559580D02*
X78071428Y-33464342D01*
X78071428Y-33464342D02*
X78071428Y-32654819D01*
X78452381Y-32654819D02*
X79071428Y-32654819D01*
X79071428Y-32654819D02*
X78738095Y-33035771D01*
X78738095Y-33035771D02*
X78880952Y-33035771D01*
X78880952Y-33035771D02*
X78976190Y-33083390D01*
X78976190Y-33083390D02*
X79023809Y-33131009D01*
X79023809Y-33131009D02*
X79071428Y-33226247D01*
X79071428Y-33226247D02*
X79071428Y-33464342D01*
X79071428Y-33464342D02*
X79023809Y-33559580D01*
X79023809Y-33559580D02*
X78976190Y-33607200D01*
X78976190Y-33607200D02*
X78880952Y-33654819D01*
X78880952Y-33654819D02*
X78595238Y-33654819D01*
X78595238Y-33654819D02*
X78500000Y-33607200D01*
X78500000Y-33607200D02*
X78452381Y-33559580D01*
X80214285Y-32607200D02*
X79357143Y-33892914D01*
X80547619Y-32654819D02*
X80547619Y-33464342D01*
X80547619Y-33464342D02*
X80595238Y-33559580D01*
X80595238Y-33559580D02*
X80642857Y-33607200D01*
X80642857Y-33607200D02*
X80738095Y-33654819D01*
X80738095Y-33654819D02*
X80928571Y-33654819D01*
X80928571Y-33654819D02*
X81023809Y-33607200D01*
X81023809Y-33607200D02*
X81071428Y-33559580D01*
X81071428Y-33559580D02*
X81119047Y-33464342D01*
X81119047Y-33464342D02*
X81119047Y-32654819D01*
X82023809Y-32988152D02*
X82023809Y-33654819D01*
X81785714Y-32607200D02*
X81547619Y-33321485D01*
X81547619Y-33321485D02*
X82166666Y-33321485D01*
X83785714Y-32654819D02*
X83309524Y-32654819D01*
X83309524Y-32654819D02*
X83261905Y-33131009D01*
X83261905Y-33131009D02*
X83309524Y-33083390D01*
X83309524Y-33083390D02*
X83404762Y-33035771D01*
X83404762Y-33035771D02*
X83642857Y-33035771D01*
X83642857Y-33035771D02*
X83738095Y-33083390D01*
X83738095Y-33083390D02*
X83785714Y-33131009D01*
X83785714Y-33131009D02*
X83833333Y-33226247D01*
X83833333Y-33226247D02*
X83833333Y-33464342D01*
X83833333Y-33464342D02*
X83785714Y-33559580D01*
X83785714Y-33559580D02*
X83738095Y-33607200D01*
X83738095Y-33607200D02*
X83642857Y-33654819D01*
X83642857Y-33654819D02*
X83404762Y-33654819D01*
X83404762Y-33654819D02*
X83309524Y-33607200D01*
X83309524Y-33607200D02*
X83261905Y-33559580D01*
X84452381Y-32654819D02*
X84547619Y-32654819D01*
X84547619Y-32654819D02*
X84642857Y-32702438D01*
X84642857Y-32702438D02*
X84690476Y-32750057D01*
X84690476Y-32750057D02*
X84738095Y-32845295D01*
X84738095Y-32845295D02*
X84785714Y-33035771D01*
X84785714Y-33035771D02*
X84785714Y-33273866D01*
X84785714Y-33273866D02*
X84738095Y-33464342D01*
X84738095Y-33464342D02*
X84690476Y-33559580D01*
X84690476Y-33559580D02*
X84642857Y-33607200D01*
X84642857Y-33607200D02*
X84547619Y-33654819D01*
X84547619Y-33654819D02*
X84452381Y-33654819D01*
X84452381Y-33654819D02*
X84357143Y-33607200D01*
X84357143Y-33607200D02*
X84309524Y-33559580D01*
X84309524Y-33559580D02*
X84261905Y-33464342D01*
X84261905Y-33464342D02*
X84214286Y-33273866D01*
X84214286Y-33273866D02*
X84214286Y-33035771D01*
X84214286Y-33035771D02*
X84261905Y-32845295D01*
X84261905Y-32845295D02*
X84309524Y-32750057D01*
X84309524Y-32750057D02*
X84357143Y-32702438D01*
X84357143Y-32702438D02*
X84452381Y-32654819D01*
X85166667Y-33369104D02*
X85642857Y-33369104D01*
X85071429Y-33654819D02*
X85404762Y-32654819D01*
X85404762Y-32654819D02*
X85738095Y-33654819D01*
X45904761Y-83907200D02*
X46047618Y-83954819D01*
X46047618Y-83954819D02*
X46285713Y-83954819D01*
X46285713Y-83954819D02*
X46380951Y-83907200D01*
X46380951Y-83907200D02*
X46428570Y-83859580D01*
X46428570Y-83859580D02*
X46476189Y-83764342D01*
X46476189Y-83764342D02*
X46476189Y-83669104D01*
X46476189Y-83669104D02*
X46428570Y-83573866D01*
X46428570Y-83573866D02*
X46380951Y-83526247D01*
X46380951Y-83526247D02*
X46285713Y-83478628D01*
X46285713Y-83478628D02*
X46095237Y-83431009D01*
X46095237Y-83431009D02*
X45999999Y-83383390D01*
X45999999Y-83383390D02*
X45952380Y-83335771D01*
X45952380Y-83335771D02*
X45904761Y-83240533D01*
X45904761Y-83240533D02*
X45904761Y-83145295D01*
X45904761Y-83145295D02*
X45952380Y-83050057D01*
X45952380Y-83050057D02*
X45999999Y-83002438D01*
X45999999Y-83002438D02*
X46095237Y-82954819D01*
X46095237Y-82954819D02*
X46333332Y-82954819D01*
X46333332Y-82954819D02*
X46476189Y-83002438D01*
X47095237Y-82954819D02*
X47285713Y-82954819D01*
X47285713Y-82954819D02*
X47380951Y-83002438D01*
X47380951Y-83002438D02*
X47476189Y-83097676D01*
X47476189Y-83097676D02*
X47523808Y-83288152D01*
X47523808Y-83288152D02*
X47523808Y-83621485D01*
X47523808Y-83621485D02*
X47476189Y-83811961D01*
X47476189Y-83811961D02*
X47380951Y-83907200D01*
X47380951Y-83907200D02*
X47285713Y-83954819D01*
X47285713Y-83954819D02*
X47095237Y-83954819D01*
X47095237Y-83954819D02*
X46999999Y-83907200D01*
X46999999Y-83907200D02*
X46904761Y-83811961D01*
X46904761Y-83811961D02*
X46857142Y-83621485D01*
X46857142Y-83621485D02*
X46857142Y-83288152D01*
X46857142Y-83288152D02*
X46904761Y-83097676D01*
X46904761Y-83097676D02*
X46999999Y-83002438D01*
X46999999Y-83002438D02*
X47095237Y-82954819D01*
X48428570Y-83954819D02*
X47952380Y-83954819D01*
X47952380Y-83954819D02*
X47952380Y-82954819D01*
X48761904Y-83954819D02*
X48761904Y-82954819D01*
X48761904Y-82954819D02*
X48999999Y-82954819D01*
X48999999Y-82954819D02*
X49142856Y-83002438D01*
X49142856Y-83002438D02*
X49238094Y-83097676D01*
X49238094Y-83097676D02*
X49285713Y-83192914D01*
X49285713Y-83192914D02*
X49333332Y-83383390D01*
X49333332Y-83383390D02*
X49333332Y-83526247D01*
X49333332Y-83526247D02*
X49285713Y-83716723D01*
X49285713Y-83716723D02*
X49238094Y-83811961D01*
X49238094Y-83811961D02*
X49142856Y-83907200D01*
X49142856Y-83907200D02*
X48999999Y-83954819D01*
X48999999Y-83954819D02*
X48761904Y-83954819D01*
X49761904Y-83431009D02*
X50095237Y-83431009D01*
X50238094Y-83954819D02*
X49761904Y-83954819D01*
X49761904Y-83954819D02*
X49761904Y-82954819D01*
X49761904Y-82954819D02*
X50238094Y-82954819D01*
X51238094Y-83954819D02*
X50904761Y-83478628D01*
X50666666Y-83954819D02*
X50666666Y-82954819D01*
X50666666Y-82954819D02*
X51047618Y-82954819D01*
X51047618Y-82954819D02*
X51142856Y-83002438D01*
X51142856Y-83002438D02*
X51190475Y-83050057D01*
X51190475Y-83050057D02*
X51238094Y-83145295D01*
X51238094Y-83145295D02*
X51238094Y-83288152D01*
X51238094Y-83288152D02*
X51190475Y-83383390D01*
X51190475Y-83383390D02*
X51142856Y-83431009D01*
X51142856Y-83431009D02*
X51047618Y-83478628D01*
X51047618Y-83478628D02*
X50666666Y-83478628D01*
X52999999Y-83859580D02*
X52952380Y-83907200D01*
X52952380Y-83907200D02*
X52809523Y-83954819D01*
X52809523Y-83954819D02*
X52714285Y-83954819D01*
X52714285Y-83954819D02*
X52571428Y-83907200D01*
X52571428Y-83907200D02*
X52476190Y-83811961D01*
X52476190Y-83811961D02*
X52428571Y-83716723D01*
X52428571Y-83716723D02*
X52380952Y-83526247D01*
X52380952Y-83526247D02*
X52380952Y-83383390D01*
X52380952Y-83383390D02*
X52428571Y-83192914D01*
X52428571Y-83192914D02*
X52476190Y-83097676D01*
X52476190Y-83097676D02*
X52571428Y-83002438D01*
X52571428Y-83002438D02*
X52714285Y-82954819D01*
X52714285Y-82954819D02*
X52809523Y-82954819D01*
X52809523Y-82954819D02*
X52952380Y-83002438D01*
X52952380Y-83002438D02*
X52999999Y-83050057D01*
X53380952Y-83669104D02*
X53857142Y-83669104D01*
X53285714Y-83954819D02*
X53619047Y-82954819D01*
X53619047Y-82954819D02*
X53952380Y-83954819D01*
X54619047Y-83431009D02*
X54761904Y-83478628D01*
X54761904Y-83478628D02*
X54809523Y-83526247D01*
X54809523Y-83526247D02*
X54857142Y-83621485D01*
X54857142Y-83621485D02*
X54857142Y-83764342D01*
X54857142Y-83764342D02*
X54809523Y-83859580D01*
X54809523Y-83859580D02*
X54761904Y-83907200D01*
X54761904Y-83907200D02*
X54666666Y-83954819D01*
X54666666Y-83954819D02*
X54285714Y-83954819D01*
X54285714Y-83954819D02*
X54285714Y-82954819D01*
X54285714Y-82954819D02*
X54619047Y-82954819D01*
X54619047Y-82954819D02*
X54714285Y-83002438D01*
X54714285Y-83002438D02*
X54761904Y-83050057D01*
X54761904Y-83050057D02*
X54809523Y-83145295D01*
X54809523Y-83145295D02*
X54809523Y-83240533D01*
X54809523Y-83240533D02*
X54761904Y-83335771D01*
X54761904Y-83335771D02*
X54714285Y-83383390D01*
X54714285Y-83383390D02*
X54619047Y-83431009D01*
X54619047Y-83431009D02*
X54285714Y-83431009D01*
X55761904Y-83954819D02*
X55285714Y-83954819D01*
X55285714Y-83954819D02*
X55285714Y-82954819D01*
X56095238Y-83431009D02*
X56428571Y-83431009D01*
X56571428Y-83954819D02*
X56095238Y-83954819D01*
X56095238Y-83954819D02*
X56095238Y-82954819D01*
X56095238Y-82954819D02*
X56571428Y-82954819D01*
X57714285Y-82907200D02*
X56857143Y-84192914D01*
X58380952Y-83431009D02*
X58523809Y-83478628D01*
X58523809Y-83478628D02*
X58571428Y-83526247D01*
X58571428Y-83526247D02*
X58619047Y-83621485D01*
X58619047Y-83621485D02*
X58619047Y-83764342D01*
X58619047Y-83764342D02*
X58571428Y-83859580D01*
X58571428Y-83859580D02*
X58523809Y-83907200D01*
X58523809Y-83907200D02*
X58428571Y-83954819D01*
X58428571Y-83954819D02*
X58047619Y-83954819D01*
X58047619Y-83954819D02*
X58047619Y-82954819D01*
X58047619Y-82954819D02*
X58380952Y-82954819D01*
X58380952Y-82954819D02*
X58476190Y-83002438D01*
X58476190Y-83002438D02*
X58523809Y-83050057D01*
X58523809Y-83050057D02*
X58571428Y-83145295D01*
X58571428Y-83145295D02*
X58571428Y-83240533D01*
X58571428Y-83240533D02*
X58523809Y-83335771D01*
X58523809Y-83335771D02*
X58476190Y-83383390D01*
X58476190Y-83383390D02*
X58380952Y-83431009D01*
X58380952Y-83431009D02*
X58047619Y-83431009D01*
X59619047Y-83954819D02*
X59285714Y-83478628D01*
X59047619Y-83954819D02*
X59047619Y-82954819D01*
X59047619Y-82954819D02*
X59428571Y-82954819D01*
X59428571Y-82954819D02*
X59523809Y-83002438D01*
X59523809Y-83002438D02*
X59571428Y-83050057D01*
X59571428Y-83050057D02*
X59619047Y-83145295D01*
X59619047Y-83145295D02*
X59619047Y-83288152D01*
X59619047Y-83288152D02*
X59571428Y-83383390D01*
X59571428Y-83383390D02*
X59523809Y-83431009D01*
X59523809Y-83431009D02*
X59428571Y-83478628D01*
X59428571Y-83478628D02*
X59047619Y-83478628D01*
X60000000Y-83669104D02*
X60476190Y-83669104D01*
X59904762Y-83954819D02*
X60238095Y-82954819D01*
X60238095Y-82954819D02*
X60571428Y-83954819D01*
X60904762Y-83954819D02*
X60904762Y-82954819D01*
X61380952Y-83954819D02*
X61380952Y-82954819D01*
X61380952Y-82954819D02*
X61619047Y-82954819D01*
X61619047Y-82954819D02*
X61761904Y-83002438D01*
X61761904Y-83002438D02*
X61857142Y-83097676D01*
X61857142Y-83097676D02*
X61904761Y-83192914D01*
X61904761Y-83192914D02*
X61952380Y-83383390D01*
X61952380Y-83383390D02*
X61952380Y-83526247D01*
X61952380Y-83526247D02*
X61904761Y-83716723D01*
X61904761Y-83716723D02*
X61857142Y-83811961D01*
X61857142Y-83811961D02*
X61761904Y-83907200D01*
X61761904Y-83907200D02*
X61619047Y-83954819D01*
X61619047Y-83954819D02*
X61380952Y-83954819D01*
X63333333Y-82954819D02*
X63523809Y-82954819D01*
X63523809Y-82954819D02*
X63619047Y-83002438D01*
X63619047Y-83002438D02*
X63714285Y-83097676D01*
X63714285Y-83097676D02*
X63761904Y-83288152D01*
X63761904Y-83288152D02*
X63761904Y-83621485D01*
X63761904Y-83621485D02*
X63714285Y-83811961D01*
X63714285Y-83811961D02*
X63619047Y-83907200D01*
X63619047Y-83907200D02*
X63523809Y-83954819D01*
X63523809Y-83954819D02*
X63333333Y-83954819D01*
X63333333Y-83954819D02*
X63238095Y-83907200D01*
X63238095Y-83907200D02*
X63142857Y-83811961D01*
X63142857Y-83811961D02*
X63095238Y-83621485D01*
X63095238Y-83621485D02*
X63095238Y-83288152D01*
X63095238Y-83288152D02*
X63142857Y-83097676D01*
X63142857Y-83097676D02*
X63238095Y-83002438D01*
X63238095Y-83002438D02*
X63333333Y-82954819D01*
X64190476Y-83954819D02*
X64190476Y-82954819D01*
X64190476Y-82954819D02*
X64761904Y-83954819D01*
X64761904Y-83954819D02*
X64761904Y-82954819D01*
X66000000Y-83431009D02*
X66333333Y-83431009D01*
X66476190Y-83954819D02*
X66000000Y-83954819D01*
X66000000Y-83954819D02*
X66000000Y-82954819D01*
X66000000Y-82954819D02*
X66476190Y-82954819D01*
X66809524Y-82954819D02*
X67476190Y-83954819D01*
X67476190Y-82954819D02*
X66809524Y-83954819D01*
X67857143Y-83954819D02*
X67857143Y-82954819D01*
X67857143Y-82954819D02*
X68238095Y-82954819D01*
X68238095Y-82954819D02*
X68333333Y-83002438D01*
X68333333Y-83002438D02*
X68380952Y-83050057D01*
X68380952Y-83050057D02*
X68428571Y-83145295D01*
X68428571Y-83145295D02*
X68428571Y-83288152D01*
X68428571Y-83288152D02*
X68380952Y-83383390D01*
X68380952Y-83383390D02*
X68333333Y-83431009D01*
X68333333Y-83431009D02*
X68238095Y-83478628D01*
X68238095Y-83478628D02*
X67857143Y-83478628D01*
X69047619Y-82954819D02*
X69238095Y-82954819D01*
X69238095Y-82954819D02*
X69333333Y-83002438D01*
X69333333Y-83002438D02*
X69428571Y-83097676D01*
X69428571Y-83097676D02*
X69476190Y-83288152D01*
X69476190Y-83288152D02*
X69476190Y-83621485D01*
X69476190Y-83621485D02*
X69428571Y-83811961D01*
X69428571Y-83811961D02*
X69333333Y-83907200D01*
X69333333Y-83907200D02*
X69238095Y-83954819D01*
X69238095Y-83954819D02*
X69047619Y-83954819D01*
X69047619Y-83954819D02*
X68952381Y-83907200D01*
X68952381Y-83907200D02*
X68857143Y-83811961D01*
X68857143Y-83811961D02*
X68809524Y-83621485D01*
X68809524Y-83621485D02*
X68809524Y-83288152D01*
X68809524Y-83288152D02*
X68857143Y-83097676D01*
X68857143Y-83097676D02*
X68952381Y-83002438D01*
X68952381Y-83002438D02*
X69047619Y-82954819D01*
X69857143Y-83907200D02*
X70000000Y-83954819D01*
X70000000Y-83954819D02*
X70238095Y-83954819D01*
X70238095Y-83954819D02*
X70333333Y-83907200D01*
X70333333Y-83907200D02*
X70380952Y-83859580D01*
X70380952Y-83859580D02*
X70428571Y-83764342D01*
X70428571Y-83764342D02*
X70428571Y-83669104D01*
X70428571Y-83669104D02*
X70380952Y-83573866D01*
X70380952Y-83573866D02*
X70333333Y-83526247D01*
X70333333Y-83526247D02*
X70238095Y-83478628D01*
X70238095Y-83478628D02*
X70047619Y-83431009D01*
X70047619Y-83431009D02*
X69952381Y-83383390D01*
X69952381Y-83383390D02*
X69904762Y-83335771D01*
X69904762Y-83335771D02*
X69857143Y-83240533D01*
X69857143Y-83240533D02*
X69857143Y-83145295D01*
X69857143Y-83145295D02*
X69904762Y-83050057D01*
X69904762Y-83050057D02*
X69952381Y-83002438D01*
X69952381Y-83002438D02*
X70047619Y-82954819D01*
X70047619Y-82954819D02*
X70285714Y-82954819D01*
X70285714Y-82954819D02*
X70428571Y-83002438D01*
X70857143Y-83431009D02*
X71190476Y-83431009D01*
X71333333Y-83954819D02*
X70857143Y-83954819D01*
X70857143Y-83954819D02*
X70857143Y-82954819D01*
X70857143Y-82954819D02*
X71333333Y-82954819D01*
X71761905Y-83954819D02*
X71761905Y-82954819D01*
X71761905Y-82954819D02*
X72000000Y-82954819D01*
X72000000Y-82954819D02*
X72142857Y-83002438D01*
X72142857Y-83002438D02*
X72238095Y-83097676D01*
X72238095Y-83097676D02*
X72285714Y-83192914D01*
X72285714Y-83192914D02*
X72333333Y-83383390D01*
X72333333Y-83383390D02*
X72333333Y-83526247D01*
X72333333Y-83526247D02*
X72285714Y-83716723D01*
X72285714Y-83716723D02*
X72238095Y-83811961D01*
X72238095Y-83811961D02*
X72142857Y-83907200D01*
X72142857Y-83907200D02*
X72000000Y-83954819D01*
X72000000Y-83954819D02*
X71761905Y-83954819D01*
X74000000Y-83954819D02*
X73523810Y-83954819D01*
X73523810Y-83954819D02*
X73523810Y-82954819D01*
X74285715Y-83669104D02*
X74761905Y-83669104D01*
X74190477Y-83954819D02*
X74523810Y-82954819D01*
X74523810Y-82954819D02*
X74857143Y-83954819D01*
X75190477Y-83954819D02*
X75190477Y-82954819D01*
X75190477Y-82954819D02*
X75761905Y-83954819D01*
X75761905Y-83954819D02*
X75761905Y-82954819D01*
X76238096Y-83431009D02*
X76571429Y-83431009D01*
X76714286Y-83954819D02*
X76238096Y-83954819D01*
X76238096Y-83954819D02*
X76238096Y-82954819D01*
X76238096Y-82954819D02*
X76714286Y-82954819D01*
X77095239Y-83907200D02*
X77238096Y-83954819D01*
X77238096Y-83954819D02*
X77476191Y-83954819D01*
X77476191Y-83954819D02*
X77571429Y-83907200D01*
X77571429Y-83907200D02*
X77619048Y-83859580D01*
X77619048Y-83859580D02*
X77666667Y-83764342D01*
X77666667Y-83764342D02*
X77666667Y-83669104D01*
X77666667Y-83669104D02*
X77619048Y-83573866D01*
X77619048Y-83573866D02*
X77571429Y-83526247D01*
X77571429Y-83526247D02*
X77476191Y-83478628D01*
X77476191Y-83478628D02*
X77285715Y-83431009D01*
X77285715Y-83431009D02*
X77190477Y-83383390D01*
X77190477Y-83383390D02*
X77142858Y-83335771D01*
X77142858Y-83335771D02*
X77095239Y-83240533D01*
X77095239Y-83240533D02*
X77095239Y-83145295D01*
X77095239Y-83145295D02*
X77142858Y-83050057D01*
X77142858Y-83050057D02*
X77190477Y-83002438D01*
X77190477Y-83002438D02*
X77285715Y-82954819D01*
X77285715Y-82954819D02*
X77523810Y-82954819D01*
X77523810Y-82954819D02*
X77666667Y-83002438D01*
X79190477Y-83431009D02*
X78857144Y-83431009D01*
X78857144Y-83954819D02*
X78857144Y-82954819D01*
X78857144Y-82954819D02*
X79333334Y-82954819D01*
X79904763Y-82954819D02*
X80095239Y-82954819D01*
X80095239Y-82954819D02*
X80190477Y-83002438D01*
X80190477Y-83002438D02*
X80285715Y-83097676D01*
X80285715Y-83097676D02*
X80333334Y-83288152D01*
X80333334Y-83288152D02*
X80333334Y-83621485D01*
X80333334Y-83621485D02*
X80285715Y-83811961D01*
X80285715Y-83811961D02*
X80190477Y-83907200D01*
X80190477Y-83907200D02*
X80095239Y-83954819D01*
X80095239Y-83954819D02*
X79904763Y-83954819D01*
X79904763Y-83954819D02*
X79809525Y-83907200D01*
X79809525Y-83907200D02*
X79714287Y-83811961D01*
X79714287Y-83811961D02*
X79666668Y-83621485D01*
X79666668Y-83621485D02*
X79666668Y-83288152D01*
X79666668Y-83288152D02*
X79714287Y-83097676D01*
X79714287Y-83097676D02*
X79809525Y-83002438D01*
X79809525Y-83002438D02*
X79904763Y-82954819D01*
X81333334Y-83954819D02*
X81000001Y-83478628D01*
X80761906Y-83954819D02*
X80761906Y-82954819D01*
X80761906Y-82954819D02*
X81142858Y-82954819D01*
X81142858Y-82954819D02*
X81238096Y-83002438D01*
X81238096Y-83002438D02*
X81285715Y-83050057D01*
X81285715Y-83050057D02*
X81333334Y-83145295D01*
X81333334Y-83145295D02*
X81333334Y-83288152D01*
X81333334Y-83288152D02*
X81285715Y-83383390D01*
X81285715Y-83383390D02*
X81238096Y-83431009D01*
X81238096Y-83431009D02*
X81142858Y-83478628D01*
X81142858Y-83478628D02*
X80761906Y-83478628D01*
X82523811Y-83288152D02*
X83285716Y-83573866D01*
X83285716Y-83573866D02*
X82523811Y-83859580D01*
X83666668Y-82954819D02*
X84285715Y-82954819D01*
X84285715Y-82954819D02*
X83952382Y-83335771D01*
X83952382Y-83335771D02*
X84095239Y-83335771D01*
X84095239Y-83335771D02*
X84190477Y-83383390D01*
X84190477Y-83383390D02*
X84238096Y-83431009D01*
X84238096Y-83431009D02*
X84285715Y-83526247D01*
X84285715Y-83526247D02*
X84285715Y-83764342D01*
X84285715Y-83764342D02*
X84238096Y-83859580D01*
X84238096Y-83859580D02*
X84190477Y-83907200D01*
X84190477Y-83907200D02*
X84095239Y-83954819D01*
X84095239Y-83954819D02*
X83809525Y-83954819D01*
X83809525Y-83954819D02*
X83714287Y-83907200D01*
X83714287Y-83907200D02*
X83666668Y-83859580D01*
X84904763Y-82954819D02*
X85000001Y-82954819D01*
X85000001Y-82954819D02*
X85095239Y-83002438D01*
X85095239Y-83002438D02*
X85142858Y-83050057D01*
X85142858Y-83050057D02*
X85190477Y-83145295D01*
X85190477Y-83145295D02*
X85238096Y-83335771D01*
X85238096Y-83335771D02*
X85238096Y-83573866D01*
X85238096Y-83573866D02*
X85190477Y-83764342D01*
X85190477Y-83764342D02*
X85142858Y-83859580D01*
X85142858Y-83859580D02*
X85095239Y-83907200D01*
X85095239Y-83907200D02*
X85000001Y-83954819D01*
X85000001Y-83954819D02*
X84904763Y-83954819D01*
X84904763Y-83954819D02*
X84809525Y-83907200D01*
X84809525Y-83907200D02*
X84761906Y-83859580D01*
X84761906Y-83859580D02*
X84714287Y-83764342D01*
X84714287Y-83764342D02*
X84666668Y-83573866D01*
X84666668Y-83573866D02*
X84666668Y-83335771D01*
X84666668Y-83335771D02*
X84714287Y-83145295D01*
X84714287Y-83145295D02*
X84761906Y-83050057D01*
X84761906Y-83050057D02*
X84809525Y-83002438D01*
X84809525Y-83002438D02*
X84904763Y-82954819D01*
X85619049Y-83669104D02*
X86095239Y-83669104D01*
X85523811Y-83954819D02*
X85857144Y-82954819D01*
X85857144Y-82954819D02*
X86190477Y-83954819D01*
X27914286Y-23918771D02*
X28085714Y-23975914D01*
X28085714Y-23975914D02*
X28142857Y-24033057D01*
X28142857Y-24033057D02*
X28200000Y-24147342D01*
X28200000Y-24147342D02*
X28200000Y-24318771D01*
X28200000Y-24318771D02*
X28142857Y-24433057D01*
X28142857Y-24433057D02*
X28085714Y-24490200D01*
X28085714Y-24490200D02*
X27971429Y-24547342D01*
X27971429Y-24547342D02*
X27514286Y-24547342D01*
X27514286Y-24547342D02*
X27514286Y-23347342D01*
X27514286Y-23347342D02*
X27914286Y-23347342D01*
X27914286Y-23347342D02*
X28028572Y-23404485D01*
X28028572Y-23404485D02*
X28085714Y-23461628D01*
X28085714Y-23461628D02*
X28142857Y-23575914D01*
X28142857Y-23575914D02*
X28142857Y-23690200D01*
X28142857Y-23690200D02*
X28085714Y-23804485D01*
X28085714Y-23804485D02*
X28028572Y-23861628D01*
X28028572Y-23861628D02*
X27914286Y-23918771D01*
X27914286Y-23918771D02*
X27514286Y-23918771D01*
X28657143Y-24204485D02*
X29228572Y-24204485D01*
X28542857Y-24547342D02*
X28942857Y-23347342D01*
X28942857Y-23347342D02*
X29342857Y-24547342D01*
X29571428Y-23347342D02*
X30257143Y-23347342D01*
X29914285Y-24547342D02*
X29914285Y-23347342D01*
X30485714Y-23347342D02*
X31171429Y-23347342D01*
X30828571Y-24547342D02*
X30828571Y-23347342D01*
X31571429Y-24090200D02*
X32485715Y-24090200D01*
X32028572Y-24547342D02*
X32028572Y-23633057D01*
X27914286Y-90918771D02*
X28085714Y-90975914D01*
X28085714Y-90975914D02*
X28142857Y-91033057D01*
X28142857Y-91033057D02*
X28200000Y-91147342D01*
X28200000Y-91147342D02*
X28200000Y-91318771D01*
X28200000Y-91318771D02*
X28142857Y-91433057D01*
X28142857Y-91433057D02*
X28085714Y-91490200D01*
X28085714Y-91490200D02*
X27971429Y-91547342D01*
X27971429Y-91547342D02*
X27514286Y-91547342D01*
X27514286Y-91547342D02*
X27514286Y-90347342D01*
X27514286Y-90347342D02*
X27914286Y-90347342D01*
X27914286Y-90347342D02*
X28028572Y-90404485D01*
X28028572Y-90404485D02*
X28085714Y-90461628D01*
X28085714Y-90461628D02*
X28142857Y-90575914D01*
X28142857Y-90575914D02*
X28142857Y-90690200D01*
X28142857Y-90690200D02*
X28085714Y-90804485D01*
X28085714Y-90804485D02*
X28028572Y-90861628D01*
X28028572Y-90861628D02*
X27914286Y-90918771D01*
X27914286Y-90918771D02*
X27514286Y-90918771D01*
X28657143Y-91204485D02*
X29228572Y-91204485D01*
X28542857Y-91547342D02*
X28942857Y-90347342D01*
X28942857Y-90347342D02*
X29342857Y-91547342D01*
X29571428Y-90347342D02*
X30257143Y-90347342D01*
X29914285Y-91547342D02*
X29914285Y-90347342D01*
X30485714Y-90347342D02*
X31171429Y-90347342D01*
X30828571Y-91547342D02*
X30828571Y-90347342D01*
X31571429Y-91090200D02*
X32485715Y-91090200D01*
X102542857Y-24547342D02*
X102542857Y-23347342D01*
X102542857Y-23347342D02*
X102942857Y-24204485D01*
X102942857Y-24204485D02*
X103342857Y-23347342D01*
X103342857Y-23347342D02*
X103342857Y-24547342D01*
X104142857Y-23347342D02*
X104371429Y-23347342D01*
X104371429Y-23347342D02*
X104485714Y-23404485D01*
X104485714Y-23404485D02*
X104600000Y-23518771D01*
X104600000Y-23518771D02*
X104657143Y-23747342D01*
X104657143Y-23747342D02*
X104657143Y-24147342D01*
X104657143Y-24147342D02*
X104600000Y-24375914D01*
X104600000Y-24375914D02*
X104485714Y-24490200D01*
X104485714Y-24490200D02*
X104371429Y-24547342D01*
X104371429Y-24547342D02*
X104142857Y-24547342D01*
X104142857Y-24547342D02*
X104028572Y-24490200D01*
X104028572Y-24490200D02*
X103914286Y-24375914D01*
X103914286Y-24375914D02*
X103857143Y-24147342D01*
X103857143Y-24147342D02*
X103857143Y-23747342D01*
X103857143Y-23747342D02*
X103914286Y-23518771D01*
X103914286Y-23518771D02*
X104028572Y-23404485D01*
X104028572Y-23404485D02*
X104142857Y-23347342D01*
X105000000Y-23347342D02*
X105685715Y-23347342D01*
X105342857Y-24547342D02*
X105342857Y-23347342D01*
X106942858Y-24204485D02*
X107514287Y-24204485D01*
X106828572Y-24547342D02*
X107228572Y-23347342D01*
X107228572Y-23347342D02*
X107628572Y-24547342D01*
X102457142Y-91547342D02*
X102457142Y-90347342D01*
X102457142Y-90347342D02*
X102857142Y-91204485D01*
X102857142Y-91204485D02*
X103257142Y-90347342D01*
X103257142Y-90347342D02*
X103257142Y-91547342D01*
X104057142Y-90347342D02*
X104285714Y-90347342D01*
X104285714Y-90347342D02*
X104399999Y-90404485D01*
X104399999Y-90404485D02*
X104514285Y-90518771D01*
X104514285Y-90518771D02*
X104571428Y-90747342D01*
X104571428Y-90747342D02*
X104571428Y-91147342D01*
X104571428Y-91147342D02*
X104514285Y-91375914D01*
X104514285Y-91375914D02*
X104399999Y-91490200D01*
X104399999Y-91490200D02*
X104285714Y-91547342D01*
X104285714Y-91547342D02*
X104057142Y-91547342D01*
X104057142Y-91547342D02*
X103942857Y-91490200D01*
X103942857Y-91490200D02*
X103828571Y-91375914D01*
X103828571Y-91375914D02*
X103771428Y-91147342D01*
X103771428Y-91147342D02*
X103771428Y-90747342D01*
X103771428Y-90747342D02*
X103828571Y-90518771D01*
X103828571Y-90518771D02*
X103942857Y-90404485D01*
X103942857Y-90404485D02*
X104057142Y-90347342D01*
X104914285Y-90347342D02*
X105600000Y-90347342D01*
X105257142Y-91547342D02*
X105257142Y-90347342D01*
X107314286Y-90918771D02*
X107485714Y-90975914D01*
X107485714Y-90975914D02*
X107542857Y-91033057D01*
X107542857Y-91033057D02*
X107600000Y-91147342D01*
X107600000Y-91147342D02*
X107600000Y-91318771D01*
X107600000Y-91318771D02*
X107542857Y-91433057D01*
X107542857Y-91433057D02*
X107485714Y-91490200D01*
X107485714Y-91490200D02*
X107371429Y-91547342D01*
X107371429Y-91547342D02*
X106914286Y-91547342D01*
X106914286Y-91547342D02*
X106914286Y-90347342D01*
X106914286Y-90347342D02*
X107314286Y-90347342D01*
X107314286Y-90347342D02*
X107428572Y-90404485D01*
X107428572Y-90404485D02*
X107485714Y-90461628D01*
X107485714Y-90461628D02*
X107542857Y-90575914D01*
X107542857Y-90575914D02*
X107542857Y-90690200D01*
X107542857Y-90690200D02*
X107485714Y-90804485D01*
X107485714Y-90804485D02*
X107428572Y-90861628D01*
X107428572Y-90861628D02*
X107314286Y-90918771D01*
X107314286Y-90918771D02*
X106914286Y-90918771D01*
X34833333Y-68084819D02*
X34500000Y-67608628D01*
X34261905Y-68084819D02*
X34261905Y-67084819D01*
X34261905Y-67084819D02*
X34642857Y-67084819D01*
X34642857Y-67084819D02*
X34738095Y-67132438D01*
X34738095Y-67132438D02*
X34785714Y-67180057D01*
X34785714Y-67180057D02*
X34833333Y-67275295D01*
X34833333Y-67275295D02*
X34833333Y-67418152D01*
X34833333Y-67418152D02*
X34785714Y-67513390D01*
X34785714Y-67513390D02*
X34738095Y-67561009D01*
X34738095Y-67561009D02*
X34642857Y-67608628D01*
X34642857Y-67608628D02*
X34261905Y-67608628D01*
X35214286Y-67180057D02*
X35261905Y-67132438D01*
X35261905Y-67132438D02*
X35357143Y-67084819D01*
X35357143Y-67084819D02*
X35595238Y-67084819D01*
X35595238Y-67084819D02*
X35690476Y-67132438D01*
X35690476Y-67132438D02*
X35738095Y-67180057D01*
X35738095Y-67180057D02*
X35785714Y-67275295D01*
X35785714Y-67275295D02*
X35785714Y-67370533D01*
X35785714Y-67370533D02*
X35738095Y-67513390D01*
X35738095Y-67513390D02*
X35166667Y-68084819D01*
X35166667Y-68084819D02*
X35785714Y-68084819D01*
X103604819Y-109942857D02*
X103128628Y-110276190D01*
X103604819Y-110514285D02*
X102604819Y-110514285D01*
X102604819Y-110514285D02*
X102604819Y-110133333D01*
X102604819Y-110133333D02*
X102652438Y-110038095D01*
X102652438Y-110038095D02*
X102700057Y-109990476D01*
X102700057Y-109990476D02*
X102795295Y-109942857D01*
X102795295Y-109942857D02*
X102938152Y-109942857D01*
X102938152Y-109942857D02*
X103033390Y-109990476D01*
X103033390Y-109990476D02*
X103081009Y-110038095D01*
X103081009Y-110038095D02*
X103128628Y-110133333D01*
X103128628Y-110133333D02*
X103128628Y-110514285D01*
X103604819Y-108990476D02*
X103604819Y-109561904D01*
X103604819Y-109276190D02*
X102604819Y-109276190D01*
X102604819Y-109276190D02*
X102747676Y-109371428D01*
X102747676Y-109371428D02*
X102842914Y-109466666D01*
X102842914Y-109466666D02*
X102890533Y-109561904D01*
X103604819Y-108038095D02*
X103604819Y-108609523D01*
X103604819Y-108323809D02*
X102604819Y-108323809D01*
X102604819Y-108323809D02*
X102747676Y-108419047D01*
X102747676Y-108419047D02*
X102842914Y-108514285D01*
X102842914Y-108514285D02*
X102890533Y-108609523D01*
X55113095Y-36804819D02*
X55113095Y-37614342D01*
X55113095Y-37614342D02*
X55160714Y-37709580D01*
X55160714Y-37709580D02*
X55208333Y-37757200D01*
X55208333Y-37757200D02*
X55303571Y-37804819D01*
X55303571Y-37804819D02*
X55494047Y-37804819D01*
X55494047Y-37804819D02*
X55589285Y-37757200D01*
X55589285Y-37757200D02*
X55636904Y-37709580D01*
X55636904Y-37709580D02*
X55684523Y-37614342D01*
X55684523Y-37614342D02*
X55684523Y-36804819D01*
X56684523Y-37804819D02*
X56113095Y-37804819D01*
X56398809Y-37804819D02*
X56398809Y-36804819D01*
X56398809Y-36804819D02*
X56303571Y-36947676D01*
X56303571Y-36947676D02*
X56208333Y-37042914D01*
X56208333Y-37042914D02*
X56113095Y-37090533D01*
X104667866Y-73954819D02*
X104667866Y-74669104D01*
X104667866Y-74669104D02*
X104620247Y-74811961D01*
X104620247Y-74811961D02*
X104525009Y-74907200D01*
X104525009Y-74907200D02*
X104382152Y-74954819D01*
X104382152Y-74954819D02*
X104286914Y-74954819D01*
X105620247Y-73954819D02*
X105144057Y-73954819D01*
X105144057Y-73954819D02*
X105096438Y-74431009D01*
X105096438Y-74431009D02*
X105144057Y-74383390D01*
X105144057Y-74383390D02*
X105239295Y-74335771D01*
X105239295Y-74335771D02*
X105477390Y-74335771D01*
X105477390Y-74335771D02*
X105572628Y-74383390D01*
X105572628Y-74383390D02*
X105620247Y-74431009D01*
X105620247Y-74431009D02*
X105667866Y-74526247D01*
X105667866Y-74526247D02*
X105667866Y-74764342D01*
X105667866Y-74764342D02*
X105620247Y-74859580D01*
X105620247Y-74859580D02*
X105572628Y-74907200D01*
X105572628Y-74907200D02*
X105477390Y-74954819D01*
X105477390Y-74954819D02*
X105239295Y-74954819D01*
X105239295Y-74954819D02*
X105144057Y-74907200D01*
X105144057Y-74907200D02*
X105096438Y-74859580D01*
X34833333Y-42084819D02*
X34500000Y-41608628D01*
X34261905Y-42084819D02*
X34261905Y-41084819D01*
X34261905Y-41084819D02*
X34642857Y-41084819D01*
X34642857Y-41084819D02*
X34738095Y-41132438D01*
X34738095Y-41132438D02*
X34785714Y-41180057D01*
X34785714Y-41180057D02*
X34833333Y-41275295D01*
X34833333Y-41275295D02*
X34833333Y-41418152D01*
X34833333Y-41418152D02*
X34785714Y-41513390D01*
X34785714Y-41513390D02*
X34738095Y-41561009D01*
X34738095Y-41561009D02*
X34642857Y-41608628D01*
X34642857Y-41608628D02*
X34261905Y-41608628D01*
X35785714Y-42084819D02*
X35214286Y-42084819D01*
X35500000Y-42084819D02*
X35500000Y-41084819D01*
X35500000Y-41084819D02*
X35404762Y-41227676D01*
X35404762Y-41227676D02*
X35309524Y-41322914D01*
X35309524Y-41322914D02*
X35214286Y-41370533D01*
X66238095Y-84304819D02*
X66238095Y-83304819D01*
X66238095Y-83781009D02*
X66809523Y-83781009D01*
X66809523Y-84304819D02*
X66809523Y-83304819D01*
X67809523Y-84304819D02*
X67238095Y-84304819D01*
X67523809Y-84304819D02*
X67523809Y-83304819D01*
X67523809Y-83304819D02*
X67428571Y-83447676D01*
X67428571Y-83447676D02*
X67333333Y-83542914D01*
X67333333Y-83542914D02*
X67238095Y-83590533D01*
X74833333Y-56084819D02*
X74500000Y-55608628D01*
X74261905Y-56084819D02*
X74261905Y-55084819D01*
X74261905Y-55084819D02*
X74642857Y-55084819D01*
X74642857Y-55084819D02*
X74738095Y-55132438D01*
X74738095Y-55132438D02*
X74785714Y-55180057D01*
X74785714Y-55180057D02*
X74833333Y-55275295D01*
X74833333Y-55275295D02*
X74833333Y-55418152D01*
X74833333Y-55418152D02*
X74785714Y-55513390D01*
X74785714Y-55513390D02*
X74738095Y-55561009D01*
X74738095Y-55561009D02*
X74642857Y-55608628D01*
X74642857Y-55608628D02*
X74261905Y-55608628D01*
X75690476Y-55084819D02*
X75500000Y-55084819D01*
X75500000Y-55084819D02*
X75404762Y-55132438D01*
X75404762Y-55132438D02*
X75357143Y-55180057D01*
X75357143Y-55180057D02*
X75261905Y-55322914D01*
X75261905Y-55322914D02*
X75214286Y-55513390D01*
X75214286Y-55513390D02*
X75214286Y-55894342D01*
X75214286Y-55894342D02*
X75261905Y-55989580D01*
X75261905Y-55989580D02*
X75309524Y-56037200D01*
X75309524Y-56037200D02*
X75404762Y-56084819D01*
X75404762Y-56084819D02*
X75595238Y-56084819D01*
X75595238Y-56084819D02*
X75690476Y-56037200D01*
X75690476Y-56037200D02*
X75738095Y-55989580D01*
X75738095Y-55989580D02*
X75785714Y-55894342D01*
X75785714Y-55894342D02*
X75785714Y-55656247D01*
X75785714Y-55656247D02*
X75738095Y-55561009D01*
X75738095Y-55561009D02*
X75690476Y-55513390D01*
X75690476Y-55513390D02*
X75595238Y-55465771D01*
X75595238Y-55465771D02*
X75404762Y-55465771D01*
X75404762Y-55465771D02*
X75309524Y-55513390D01*
X75309524Y-55513390D02*
X75261905Y-55561009D01*
X75261905Y-55561009D02*
X75214286Y-55656247D01*
X29667866Y-22954819D02*
X29667866Y-23669104D01*
X29667866Y-23669104D02*
X29620247Y-23811961D01*
X29620247Y-23811961D02*
X29525009Y-23907200D01*
X29525009Y-23907200D02*
X29382152Y-23954819D01*
X29382152Y-23954819D02*
X29286914Y-23954819D01*
X30096438Y-23050057D02*
X30144057Y-23002438D01*
X30144057Y-23002438D02*
X30239295Y-22954819D01*
X30239295Y-22954819D02*
X30477390Y-22954819D01*
X30477390Y-22954819D02*
X30572628Y-23002438D01*
X30572628Y-23002438D02*
X30620247Y-23050057D01*
X30620247Y-23050057D02*
X30667866Y-23145295D01*
X30667866Y-23145295D02*
X30667866Y-23240533D01*
X30667866Y-23240533D02*
X30620247Y-23383390D01*
X30620247Y-23383390D02*
X30048819Y-23954819D01*
X30048819Y-23954819D02*
X30667866Y-23954819D01*
X22188095Y-93044819D02*
X22188095Y-93854342D01*
X22188095Y-93854342D02*
X22235714Y-93949580D01*
X22235714Y-93949580D02*
X22283333Y-93997200D01*
X22283333Y-93997200D02*
X22378571Y-94044819D01*
X22378571Y-94044819D02*
X22569047Y-94044819D01*
X22569047Y-94044819D02*
X22664285Y-93997200D01*
X22664285Y-93997200D02*
X22711904Y-93949580D01*
X22711904Y-93949580D02*
X22759523Y-93854342D01*
X22759523Y-93854342D02*
X22759523Y-93044819D01*
X23664285Y-93044819D02*
X23473809Y-93044819D01*
X23473809Y-93044819D02*
X23378571Y-93092438D01*
X23378571Y-93092438D02*
X23330952Y-93140057D01*
X23330952Y-93140057D02*
X23235714Y-93282914D01*
X23235714Y-93282914D02*
X23188095Y-93473390D01*
X23188095Y-93473390D02*
X23188095Y-93854342D01*
X23188095Y-93854342D02*
X23235714Y-93949580D01*
X23235714Y-93949580D02*
X23283333Y-93997200D01*
X23283333Y-93997200D02*
X23378571Y-94044819D01*
X23378571Y-94044819D02*
X23569047Y-94044819D01*
X23569047Y-94044819D02*
X23664285Y-93997200D01*
X23664285Y-93997200D02*
X23711904Y-93949580D01*
X23711904Y-93949580D02*
X23759523Y-93854342D01*
X23759523Y-93854342D02*
X23759523Y-93616247D01*
X23759523Y-93616247D02*
X23711904Y-93521009D01*
X23711904Y-93521009D02*
X23664285Y-93473390D01*
X23664285Y-93473390D02*
X23569047Y-93425771D01*
X23569047Y-93425771D02*
X23378571Y-93425771D01*
X23378571Y-93425771D02*
X23283333Y-93473390D01*
X23283333Y-93473390D02*
X23235714Y-93521009D01*
X23235714Y-93521009D02*
X23188095Y-93616247D01*
X94666666Y-99264819D02*
X94666666Y-99979104D01*
X94666666Y-99979104D02*
X94619047Y-100121961D01*
X94619047Y-100121961D02*
X94523809Y-100217200D01*
X94523809Y-100217200D02*
X94380952Y-100264819D01*
X94380952Y-100264819D02*
X94285714Y-100264819D01*
X95571428Y-99264819D02*
X95380952Y-99264819D01*
X95380952Y-99264819D02*
X95285714Y-99312438D01*
X95285714Y-99312438D02*
X95238095Y-99360057D01*
X95238095Y-99360057D02*
X95142857Y-99502914D01*
X95142857Y-99502914D02*
X95095238Y-99693390D01*
X95095238Y-99693390D02*
X95095238Y-100074342D01*
X95095238Y-100074342D02*
X95142857Y-100169580D01*
X95142857Y-100169580D02*
X95190476Y-100217200D01*
X95190476Y-100217200D02*
X95285714Y-100264819D01*
X95285714Y-100264819D02*
X95476190Y-100264819D01*
X95476190Y-100264819D02*
X95571428Y-100217200D01*
X95571428Y-100217200D02*
X95619047Y-100169580D01*
X95619047Y-100169580D02*
X95666666Y-100074342D01*
X95666666Y-100074342D02*
X95666666Y-99836247D01*
X95666666Y-99836247D02*
X95619047Y-99741009D01*
X95619047Y-99741009D02*
X95571428Y-99693390D01*
X95571428Y-99693390D02*
X95476190Y-99645771D01*
X95476190Y-99645771D02*
X95285714Y-99645771D01*
X95285714Y-99645771D02*
X95190476Y-99693390D01*
X95190476Y-99693390D02*
X95142857Y-99741009D01*
X95142857Y-99741009D02*
X95095238Y-99836247D01*
X77238095Y-84304819D02*
X77238095Y-83304819D01*
X77238095Y-83781009D02*
X77809523Y-83781009D01*
X77809523Y-84304819D02*
X77809523Y-83304819D01*
X78238095Y-83400057D02*
X78285714Y-83352438D01*
X78285714Y-83352438D02*
X78380952Y-83304819D01*
X78380952Y-83304819D02*
X78619047Y-83304819D01*
X78619047Y-83304819D02*
X78714285Y-83352438D01*
X78714285Y-83352438D02*
X78761904Y-83400057D01*
X78761904Y-83400057D02*
X78809523Y-83495295D01*
X78809523Y-83495295D02*
X78809523Y-83590533D01*
X78809523Y-83590533D02*
X78761904Y-83733390D01*
X78761904Y-83733390D02*
X78190476Y-84304819D01*
X78190476Y-84304819D02*
X78809523Y-84304819D01*
X65833333Y-24109580D02*
X65785714Y-24157200D01*
X65785714Y-24157200D02*
X65642857Y-24204819D01*
X65642857Y-24204819D02*
X65547619Y-24204819D01*
X65547619Y-24204819D02*
X65404762Y-24157200D01*
X65404762Y-24157200D02*
X65309524Y-24061961D01*
X65309524Y-24061961D02*
X65261905Y-23966723D01*
X65261905Y-23966723D02*
X65214286Y-23776247D01*
X65214286Y-23776247D02*
X65214286Y-23633390D01*
X65214286Y-23633390D02*
X65261905Y-23442914D01*
X65261905Y-23442914D02*
X65309524Y-23347676D01*
X65309524Y-23347676D02*
X65404762Y-23252438D01*
X65404762Y-23252438D02*
X65547619Y-23204819D01*
X65547619Y-23204819D02*
X65642857Y-23204819D01*
X65642857Y-23204819D02*
X65785714Y-23252438D01*
X65785714Y-23252438D02*
X65833333Y-23300057D01*
X66738095Y-23204819D02*
X66261905Y-23204819D01*
X66261905Y-23204819D02*
X66214286Y-23681009D01*
X66214286Y-23681009D02*
X66261905Y-23633390D01*
X66261905Y-23633390D02*
X66357143Y-23585771D01*
X66357143Y-23585771D02*
X66595238Y-23585771D01*
X66595238Y-23585771D02*
X66690476Y-23633390D01*
X66690476Y-23633390D02*
X66738095Y-23681009D01*
X66738095Y-23681009D02*
X66785714Y-23776247D01*
X66785714Y-23776247D02*
X66785714Y-24014342D01*
X66785714Y-24014342D02*
X66738095Y-24109580D01*
X66738095Y-24109580D02*
X66690476Y-24157200D01*
X66690476Y-24157200D02*
X66595238Y-24204819D01*
X66595238Y-24204819D02*
X66357143Y-24204819D01*
X66357143Y-24204819D02*
X66261905Y-24157200D01*
X66261905Y-24157200D02*
X66214286Y-24109580D01*
X53833333Y-25859580D02*
X53785714Y-25907200D01*
X53785714Y-25907200D02*
X53642857Y-25954819D01*
X53642857Y-25954819D02*
X53547619Y-25954819D01*
X53547619Y-25954819D02*
X53404762Y-25907200D01*
X53404762Y-25907200D02*
X53309524Y-25811961D01*
X53309524Y-25811961D02*
X53261905Y-25716723D01*
X53261905Y-25716723D02*
X53214286Y-25526247D01*
X53214286Y-25526247D02*
X53214286Y-25383390D01*
X53214286Y-25383390D02*
X53261905Y-25192914D01*
X53261905Y-25192914D02*
X53309524Y-25097676D01*
X53309524Y-25097676D02*
X53404762Y-25002438D01*
X53404762Y-25002438D02*
X53547619Y-24954819D01*
X53547619Y-24954819D02*
X53642857Y-24954819D01*
X53642857Y-24954819D02*
X53785714Y-25002438D01*
X53785714Y-25002438D02*
X53833333Y-25050057D01*
X54166667Y-24954819D02*
X54785714Y-24954819D01*
X54785714Y-24954819D02*
X54452381Y-25335771D01*
X54452381Y-25335771D02*
X54595238Y-25335771D01*
X54595238Y-25335771D02*
X54690476Y-25383390D01*
X54690476Y-25383390D02*
X54738095Y-25431009D01*
X54738095Y-25431009D02*
X54785714Y-25526247D01*
X54785714Y-25526247D02*
X54785714Y-25764342D01*
X54785714Y-25764342D02*
X54738095Y-25859580D01*
X54738095Y-25859580D02*
X54690476Y-25907200D01*
X54690476Y-25907200D02*
X54595238Y-25954819D01*
X54595238Y-25954819D02*
X54309524Y-25954819D01*
X54309524Y-25954819D02*
X54214286Y-25907200D01*
X54214286Y-25907200D02*
X54166667Y-25859580D01*
X92332133Y-47109580D02*
X92284514Y-47157200D01*
X92284514Y-47157200D02*
X92141657Y-47204819D01*
X92141657Y-47204819D02*
X92046419Y-47204819D01*
X92046419Y-47204819D02*
X91903562Y-47157200D01*
X91903562Y-47157200D02*
X91808324Y-47061961D01*
X91808324Y-47061961D02*
X91760705Y-46966723D01*
X91760705Y-46966723D02*
X91713086Y-46776247D01*
X91713086Y-46776247D02*
X91713086Y-46633390D01*
X91713086Y-46633390D02*
X91760705Y-46442914D01*
X91760705Y-46442914D02*
X91808324Y-46347676D01*
X91808324Y-46347676D02*
X91903562Y-46252438D01*
X91903562Y-46252438D02*
X92046419Y-46204819D01*
X92046419Y-46204819D02*
X92141657Y-46204819D01*
X92141657Y-46204819D02*
X92284514Y-46252438D01*
X92284514Y-46252438D02*
X92332133Y-46300057D01*
X93284514Y-47204819D02*
X92713086Y-47204819D01*
X92998800Y-47204819D02*
X92998800Y-46204819D01*
X92998800Y-46204819D02*
X92903562Y-46347676D01*
X92903562Y-46347676D02*
X92808324Y-46442914D01*
X92808324Y-46442914D02*
X92713086Y-46490533D01*
X53833333Y-86084819D02*
X53500000Y-85608628D01*
X53261905Y-86084819D02*
X53261905Y-85084819D01*
X53261905Y-85084819D02*
X53642857Y-85084819D01*
X53642857Y-85084819D02*
X53738095Y-85132438D01*
X53738095Y-85132438D02*
X53785714Y-85180057D01*
X53785714Y-85180057D02*
X53833333Y-85275295D01*
X53833333Y-85275295D02*
X53833333Y-85418152D01*
X53833333Y-85418152D02*
X53785714Y-85513390D01*
X53785714Y-85513390D02*
X53738095Y-85561009D01*
X53738095Y-85561009D02*
X53642857Y-85608628D01*
X53642857Y-85608628D02*
X53261905Y-85608628D01*
X54309524Y-86084819D02*
X54500000Y-86084819D01*
X54500000Y-86084819D02*
X54595238Y-86037200D01*
X54595238Y-86037200D02*
X54642857Y-85989580D01*
X54642857Y-85989580D02*
X54738095Y-85846723D01*
X54738095Y-85846723D02*
X54785714Y-85656247D01*
X54785714Y-85656247D02*
X54785714Y-85275295D01*
X54785714Y-85275295D02*
X54738095Y-85180057D01*
X54738095Y-85180057D02*
X54690476Y-85132438D01*
X54690476Y-85132438D02*
X54595238Y-85084819D01*
X54595238Y-85084819D02*
X54404762Y-85084819D01*
X54404762Y-85084819D02*
X54309524Y-85132438D01*
X54309524Y-85132438D02*
X54261905Y-85180057D01*
X54261905Y-85180057D02*
X54214286Y-85275295D01*
X54214286Y-85275295D02*
X54214286Y-85513390D01*
X54214286Y-85513390D02*
X54261905Y-85608628D01*
X54261905Y-85608628D02*
X54309524Y-85656247D01*
X54309524Y-85656247D02*
X54404762Y-85703866D01*
X54404762Y-85703866D02*
X54595238Y-85703866D01*
X54595238Y-85703866D02*
X54690476Y-85656247D01*
X54690476Y-85656247D02*
X54738095Y-85608628D01*
X54738095Y-85608628D02*
X54785714Y-85513390D01*
X77833333Y-25859580D02*
X77785714Y-25907200D01*
X77785714Y-25907200D02*
X77642857Y-25954819D01*
X77642857Y-25954819D02*
X77547619Y-25954819D01*
X77547619Y-25954819D02*
X77404762Y-25907200D01*
X77404762Y-25907200D02*
X77309524Y-25811961D01*
X77309524Y-25811961D02*
X77261905Y-25716723D01*
X77261905Y-25716723D02*
X77214286Y-25526247D01*
X77214286Y-25526247D02*
X77214286Y-25383390D01*
X77214286Y-25383390D02*
X77261905Y-25192914D01*
X77261905Y-25192914D02*
X77309524Y-25097676D01*
X77309524Y-25097676D02*
X77404762Y-25002438D01*
X77404762Y-25002438D02*
X77547619Y-24954819D01*
X77547619Y-24954819D02*
X77642857Y-24954819D01*
X77642857Y-24954819D02*
X77785714Y-25002438D01*
X77785714Y-25002438D02*
X77833333Y-25050057D01*
X78690476Y-25288152D02*
X78690476Y-25954819D01*
X78452381Y-24907200D02*
X78214286Y-25621485D01*
X78214286Y-25621485D02*
X78833333Y-25621485D01*
X99804819Y-107142857D02*
X99328628Y-107476190D01*
X99804819Y-107714285D02*
X98804819Y-107714285D01*
X98804819Y-107714285D02*
X98804819Y-107333333D01*
X98804819Y-107333333D02*
X98852438Y-107238095D01*
X98852438Y-107238095D02*
X98900057Y-107190476D01*
X98900057Y-107190476D02*
X98995295Y-107142857D01*
X98995295Y-107142857D02*
X99138152Y-107142857D01*
X99138152Y-107142857D02*
X99233390Y-107190476D01*
X99233390Y-107190476D02*
X99281009Y-107238095D01*
X99281009Y-107238095D02*
X99328628Y-107333333D01*
X99328628Y-107333333D02*
X99328628Y-107714285D01*
X99804819Y-106190476D02*
X99804819Y-106761904D01*
X99804819Y-106476190D02*
X98804819Y-106476190D01*
X98804819Y-106476190D02*
X98947676Y-106571428D01*
X98947676Y-106571428D02*
X99042914Y-106666666D01*
X99042914Y-106666666D02*
X99090533Y-106761904D01*
X98804819Y-105571428D02*
X98804819Y-105476190D01*
X98804819Y-105476190D02*
X98852438Y-105380952D01*
X98852438Y-105380952D02*
X98900057Y-105333333D01*
X98900057Y-105333333D02*
X98995295Y-105285714D01*
X98995295Y-105285714D02*
X99185771Y-105238095D01*
X99185771Y-105238095D02*
X99423866Y-105238095D01*
X99423866Y-105238095D02*
X99614342Y-105285714D01*
X99614342Y-105285714D02*
X99709580Y-105333333D01*
X99709580Y-105333333D02*
X99757200Y-105380952D01*
X99757200Y-105380952D02*
X99804819Y-105476190D01*
X99804819Y-105476190D02*
X99804819Y-105571428D01*
X99804819Y-105571428D02*
X99757200Y-105666666D01*
X99757200Y-105666666D02*
X99709580Y-105714285D01*
X99709580Y-105714285D02*
X99614342Y-105761904D01*
X99614342Y-105761904D02*
X99423866Y-105809523D01*
X99423866Y-105809523D02*
X99185771Y-105809523D01*
X99185771Y-105809523D02*
X98995295Y-105761904D01*
X98995295Y-105761904D02*
X98900057Y-105714285D01*
X98900057Y-105714285D02*
X98852438Y-105666666D01*
X98852438Y-105666666D02*
X98804819Y-105571428D01*
X75113095Y-36804819D02*
X75113095Y-37614342D01*
X75113095Y-37614342D02*
X75160714Y-37709580D01*
X75160714Y-37709580D02*
X75208333Y-37757200D01*
X75208333Y-37757200D02*
X75303571Y-37804819D01*
X75303571Y-37804819D02*
X75494047Y-37804819D01*
X75494047Y-37804819D02*
X75589285Y-37757200D01*
X75589285Y-37757200D02*
X75636904Y-37709580D01*
X75636904Y-37709580D02*
X75684523Y-37614342D01*
X75684523Y-37614342D02*
X75684523Y-36804819D01*
X76065476Y-36804819D02*
X76684523Y-36804819D01*
X76684523Y-36804819D02*
X76351190Y-37185771D01*
X76351190Y-37185771D02*
X76494047Y-37185771D01*
X76494047Y-37185771D02*
X76589285Y-37233390D01*
X76589285Y-37233390D02*
X76636904Y-37281009D01*
X76636904Y-37281009D02*
X76684523Y-37376247D01*
X76684523Y-37376247D02*
X76684523Y-37614342D01*
X76684523Y-37614342D02*
X76636904Y-37709580D01*
X76636904Y-37709580D02*
X76589285Y-37757200D01*
X76589285Y-37757200D02*
X76494047Y-37804819D01*
X76494047Y-37804819D02*
X76208333Y-37804819D01*
X76208333Y-37804819D02*
X76113095Y-37757200D01*
X76113095Y-37757200D02*
X76065476Y-37709580D01*
X34832133Y-47109580D02*
X34784514Y-47157200D01*
X34784514Y-47157200D02*
X34641657Y-47204819D01*
X34641657Y-47204819D02*
X34546419Y-47204819D01*
X34546419Y-47204819D02*
X34403562Y-47157200D01*
X34403562Y-47157200D02*
X34308324Y-47061961D01*
X34308324Y-47061961D02*
X34260705Y-46966723D01*
X34260705Y-46966723D02*
X34213086Y-46776247D01*
X34213086Y-46776247D02*
X34213086Y-46633390D01*
X34213086Y-46633390D02*
X34260705Y-46442914D01*
X34260705Y-46442914D02*
X34308324Y-46347676D01*
X34308324Y-46347676D02*
X34403562Y-46252438D01*
X34403562Y-46252438D02*
X34546419Y-46204819D01*
X34546419Y-46204819D02*
X34641657Y-46204819D01*
X34641657Y-46204819D02*
X34784514Y-46252438D01*
X34784514Y-46252438D02*
X34832133Y-46300057D01*
X35213086Y-46300057D02*
X35260705Y-46252438D01*
X35260705Y-46252438D02*
X35355943Y-46204819D01*
X35355943Y-46204819D02*
X35594038Y-46204819D01*
X35594038Y-46204819D02*
X35689276Y-46252438D01*
X35689276Y-46252438D02*
X35736895Y-46300057D01*
X35736895Y-46300057D02*
X35784514Y-46395295D01*
X35784514Y-46395295D02*
X35784514Y-46490533D01*
X35784514Y-46490533D02*
X35736895Y-46633390D01*
X35736895Y-46633390D02*
X35165467Y-47204819D01*
X35165467Y-47204819D02*
X35784514Y-47204819D01*
X110736831Y-87304819D02*
X110736831Y-86304819D01*
X110736831Y-86781009D02*
X111308259Y-86781009D01*
X111308259Y-87304819D02*
X111308259Y-86304819D01*
X112213021Y-86638152D02*
X112213021Y-87304819D01*
X111974926Y-86257200D02*
X111736831Y-86971485D01*
X111736831Y-86971485D02*
X112355878Y-86971485D01*
X52833333Y-52084819D02*
X52500000Y-51608628D01*
X52261905Y-52084819D02*
X52261905Y-51084819D01*
X52261905Y-51084819D02*
X52642857Y-51084819D01*
X52642857Y-51084819D02*
X52738095Y-51132438D01*
X52738095Y-51132438D02*
X52785714Y-51180057D01*
X52785714Y-51180057D02*
X52833333Y-51275295D01*
X52833333Y-51275295D02*
X52833333Y-51418152D01*
X52833333Y-51418152D02*
X52785714Y-51513390D01*
X52785714Y-51513390D02*
X52738095Y-51561009D01*
X52738095Y-51561009D02*
X52642857Y-51608628D01*
X52642857Y-51608628D02*
X52261905Y-51608628D01*
X53166667Y-51084819D02*
X53785714Y-51084819D01*
X53785714Y-51084819D02*
X53452381Y-51465771D01*
X53452381Y-51465771D02*
X53595238Y-51465771D01*
X53595238Y-51465771D02*
X53690476Y-51513390D01*
X53690476Y-51513390D02*
X53738095Y-51561009D01*
X53738095Y-51561009D02*
X53785714Y-51656247D01*
X53785714Y-51656247D02*
X53785714Y-51894342D01*
X53785714Y-51894342D02*
X53738095Y-51989580D01*
X53738095Y-51989580D02*
X53690476Y-52037200D01*
X53690476Y-52037200D02*
X53595238Y-52084819D01*
X53595238Y-52084819D02*
X53309524Y-52084819D01*
X53309524Y-52084819D02*
X53214286Y-52037200D01*
X53214286Y-52037200D02*
X53166667Y-51989580D01*
X43261905Y-24354819D02*
X43261905Y-23354819D01*
X43261905Y-23354819D02*
X43500000Y-23354819D01*
X43500000Y-23354819D02*
X43642857Y-23402438D01*
X43642857Y-23402438D02*
X43738095Y-23497676D01*
X43738095Y-23497676D02*
X43785714Y-23592914D01*
X43785714Y-23592914D02*
X43833333Y-23783390D01*
X43833333Y-23783390D02*
X43833333Y-23926247D01*
X43833333Y-23926247D02*
X43785714Y-24116723D01*
X43785714Y-24116723D02*
X43738095Y-24211961D01*
X43738095Y-24211961D02*
X43642857Y-24307200D01*
X43642857Y-24307200D02*
X43500000Y-24354819D01*
X43500000Y-24354819D02*
X43261905Y-24354819D01*
X44214286Y-23450057D02*
X44261905Y-23402438D01*
X44261905Y-23402438D02*
X44357143Y-23354819D01*
X44357143Y-23354819D02*
X44595238Y-23354819D01*
X44595238Y-23354819D02*
X44690476Y-23402438D01*
X44690476Y-23402438D02*
X44738095Y-23450057D01*
X44738095Y-23450057D02*
X44785714Y-23545295D01*
X44785714Y-23545295D02*
X44785714Y-23640533D01*
X44785714Y-23640533D02*
X44738095Y-23783390D01*
X44738095Y-23783390D02*
X44166667Y-24354819D01*
X44166667Y-24354819D02*
X44785714Y-24354819D01*
X48304819Y-78842857D02*
X47828628Y-79176190D01*
X48304819Y-79414285D02*
X47304819Y-79414285D01*
X47304819Y-79414285D02*
X47304819Y-79033333D01*
X47304819Y-79033333D02*
X47352438Y-78938095D01*
X47352438Y-78938095D02*
X47400057Y-78890476D01*
X47400057Y-78890476D02*
X47495295Y-78842857D01*
X47495295Y-78842857D02*
X47638152Y-78842857D01*
X47638152Y-78842857D02*
X47733390Y-78890476D01*
X47733390Y-78890476D02*
X47781009Y-78938095D01*
X47781009Y-78938095D02*
X47828628Y-79033333D01*
X47828628Y-79033333D02*
X47828628Y-79414285D01*
X48304819Y-77890476D02*
X48304819Y-78461904D01*
X48304819Y-78176190D02*
X47304819Y-78176190D01*
X47304819Y-78176190D02*
X47447676Y-78271428D01*
X47447676Y-78271428D02*
X47542914Y-78366666D01*
X47542914Y-78366666D02*
X47590533Y-78461904D01*
X47304819Y-77557142D02*
X47304819Y-76938095D01*
X47304819Y-76938095D02*
X47685771Y-77271428D01*
X47685771Y-77271428D02*
X47685771Y-77128571D01*
X47685771Y-77128571D02*
X47733390Y-77033333D01*
X47733390Y-77033333D02*
X47781009Y-76985714D01*
X47781009Y-76985714D02*
X47876247Y-76938095D01*
X47876247Y-76938095D02*
X48114342Y-76938095D01*
X48114342Y-76938095D02*
X48209580Y-76985714D01*
X48209580Y-76985714D02*
X48257200Y-77033333D01*
X48257200Y-77033333D02*
X48304819Y-77128571D01*
X48304819Y-77128571D02*
X48304819Y-77414285D01*
X48304819Y-77414285D02*
X48257200Y-77509523D01*
X48257200Y-77509523D02*
X48209580Y-77557142D01*
X104667866Y-22954819D02*
X104667866Y-23669104D01*
X104667866Y-23669104D02*
X104620247Y-23811961D01*
X104620247Y-23811961D02*
X104525009Y-23907200D01*
X104525009Y-23907200D02*
X104382152Y-23954819D01*
X104382152Y-23954819D02*
X104286914Y-23954819D01*
X105572628Y-23288152D02*
X105572628Y-23954819D01*
X105334533Y-22907200D02*
X105096438Y-23621485D01*
X105096438Y-23621485D02*
X105715485Y-23621485D01*
X52833333Y-56084819D02*
X52500000Y-55608628D01*
X52261905Y-56084819D02*
X52261905Y-55084819D01*
X52261905Y-55084819D02*
X52642857Y-55084819D01*
X52642857Y-55084819D02*
X52738095Y-55132438D01*
X52738095Y-55132438D02*
X52785714Y-55180057D01*
X52785714Y-55180057D02*
X52833333Y-55275295D01*
X52833333Y-55275295D02*
X52833333Y-55418152D01*
X52833333Y-55418152D02*
X52785714Y-55513390D01*
X52785714Y-55513390D02*
X52738095Y-55561009D01*
X52738095Y-55561009D02*
X52642857Y-55608628D01*
X52642857Y-55608628D02*
X52261905Y-55608628D01*
X53738095Y-55084819D02*
X53261905Y-55084819D01*
X53261905Y-55084819D02*
X53214286Y-55561009D01*
X53214286Y-55561009D02*
X53261905Y-55513390D01*
X53261905Y-55513390D02*
X53357143Y-55465771D01*
X53357143Y-55465771D02*
X53595238Y-55465771D01*
X53595238Y-55465771D02*
X53690476Y-55513390D01*
X53690476Y-55513390D02*
X53738095Y-55561009D01*
X53738095Y-55561009D02*
X53785714Y-55656247D01*
X53785714Y-55656247D02*
X53785714Y-55894342D01*
X53785714Y-55894342D02*
X53738095Y-55989580D01*
X53738095Y-55989580D02*
X53690476Y-56037200D01*
X53690476Y-56037200D02*
X53595238Y-56084819D01*
X53595238Y-56084819D02*
X53357143Y-56084819D01*
X53357143Y-56084819D02*
X53261905Y-56037200D01*
X53261905Y-56037200D02*
X53214286Y-55989580D01*
X55113095Y-62804819D02*
X55113095Y-63614342D01*
X55113095Y-63614342D02*
X55160714Y-63709580D01*
X55160714Y-63709580D02*
X55208333Y-63757200D01*
X55208333Y-63757200D02*
X55303571Y-63804819D01*
X55303571Y-63804819D02*
X55494047Y-63804819D01*
X55494047Y-63804819D02*
X55589285Y-63757200D01*
X55589285Y-63757200D02*
X55636904Y-63709580D01*
X55636904Y-63709580D02*
X55684523Y-63614342D01*
X55684523Y-63614342D02*
X55684523Y-62804819D01*
X56113095Y-62900057D02*
X56160714Y-62852438D01*
X56160714Y-62852438D02*
X56255952Y-62804819D01*
X56255952Y-62804819D02*
X56494047Y-62804819D01*
X56494047Y-62804819D02*
X56589285Y-62852438D01*
X56589285Y-62852438D02*
X56636904Y-62900057D01*
X56636904Y-62900057D02*
X56684523Y-62995295D01*
X56684523Y-62995295D02*
X56684523Y-63090533D01*
X56684523Y-63090533D02*
X56636904Y-63233390D01*
X56636904Y-63233390D02*
X56065476Y-63804819D01*
X56065476Y-63804819D02*
X56684523Y-63804819D01*
X102379819Y-100833333D02*
X103094104Y-100833333D01*
X103094104Y-100833333D02*
X103236961Y-100880952D01*
X103236961Y-100880952D02*
X103332200Y-100976190D01*
X103332200Y-100976190D02*
X103379819Y-101119047D01*
X103379819Y-101119047D02*
X103379819Y-101214285D01*
X102379819Y-100452380D02*
X102379819Y-99785714D01*
X102379819Y-99785714D02*
X103379819Y-100214285D01*
X44904819Y-75642857D02*
X44428628Y-75976190D01*
X44904819Y-76214285D02*
X43904819Y-76214285D01*
X43904819Y-76214285D02*
X43904819Y-75833333D01*
X43904819Y-75833333D02*
X43952438Y-75738095D01*
X43952438Y-75738095D02*
X44000057Y-75690476D01*
X44000057Y-75690476D02*
X44095295Y-75642857D01*
X44095295Y-75642857D02*
X44238152Y-75642857D01*
X44238152Y-75642857D02*
X44333390Y-75690476D01*
X44333390Y-75690476D02*
X44381009Y-75738095D01*
X44381009Y-75738095D02*
X44428628Y-75833333D01*
X44428628Y-75833333D02*
X44428628Y-76214285D01*
X44904819Y-74690476D02*
X44904819Y-75261904D01*
X44904819Y-74976190D02*
X43904819Y-74976190D01*
X43904819Y-74976190D02*
X44047676Y-75071428D01*
X44047676Y-75071428D02*
X44142914Y-75166666D01*
X44142914Y-75166666D02*
X44190533Y-75261904D01*
X44000057Y-74309523D02*
X43952438Y-74261904D01*
X43952438Y-74261904D02*
X43904819Y-74166666D01*
X43904819Y-74166666D02*
X43904819Y-73928571D01*
X43904819Y-73928571D02*
X43952438Y-73833333D01*
X43952438Y-73833333D02*
X44000057Y-73785714D01*
X44000057Y-73785714D02*
X44095295Y-73738095D01*
X44095295Y-73738095D02*
X44190533Y-73738095D01*
X44190533Y-73738095D02*
X44333390Y-73785714D01*
X44333390Y-73785714D02*
X44904819Y-74357142D01*
X44904819Y-74357142D02*
X44904819Y-73738095D01*
X75113095Y-62804819D02*
X75113095Y-63614342D01*
X75113095Y-63614342D02*
X75160714Y-63709580D01*
X75160714Y-63709580D02*
X75208333Y-63757200D01*
X75208333Y-63757200D02*
X75303571Y-63804819D01*
X75303571Y-63804819D02*
X75494047Y-63804819D01*
X75494047Y-63804819D02*
X75589285Y-63757200D01*
X75589285Y-63757200D02*
X75636904Y-63709580D01*
X75636904Y-63709580D02*
X75684523Y-63614342D01*
X75684523Y-63614342D02*
X75684523Y-62804819D01*
X76589285Y-63138152D02*
X76589285Y-63804819D01*
X76351190Y-62757200D02*
X76113095Y-63471485D01*
X76113095Y-63471485D02*
X76732142Y-63471485D01*
X29667866Y-73954819D02*
X29667866Y-74669104D01*
X29667866Y-74669104D02*
X29620247Y-74811961D01*
X29620247Y-74811961D02*
X29525009Y-74907200D01*
X29525009Y-74907200D02*
X29382152Y-74954819D01*
X29382152Y-74954819D02*
X29286914Y-74954819D01*
X30048819Y-73954819D02*
X30667866Y-73954819D01*
X30667866Y-73954819D02*
X30334533Y-74335771D01*
X30334533Y-74335771D02*
X30477390Y-74335771D01*
X30477390Y-74335771D02*
X30572628Y-74383390D01*
X30572628Y-74383390D02*
X30620247Y-74431009D01*
X30620247Y-74431009D02*
X30667866Y-74526247D01*
X30667866Y-74526247D02*
X30667866Y-74764342D01*
X30667866Y-74764342D02*
X30620247Y-74859580D01*
X30620247Y-74859580D02*
X30572628Y-74907200D01*
X30572628Y-74907200D02*
X30477390Y-74954819D01*
X30477390Y-74954819D02*
X30191676Y-74954819D01*
X30191676Y-74954819D02*
X30096438Y-74907200D01*
X30096438Y-74907200D02*
X30048819Y-74859580D01*
X74833333Y-60084819D02*
X74500000Y-59608628D01*
X74261905Y-60084819D02*
X74261905Y-59084819D01*
X74261905Y-59084819D02*
X74642857Y-59084819D01*
X74642857Y-59084819D02*
X74738095Y-59132438D01*
X74738095Y-59132438D02*
X74785714Y-59180057D01*
X74785714Y-59180057D02*
X74833333Y-59275295D01*
X74833333Y-59275295D02*
X74833333Y-59418152D01*
X74833333Y-59418152D02*
X74785714Y-59513390D01*
X74785714Y-59513390D02*
X74738095Y-59561009D01*
X74738095Y-59561009D02*
X74642857Y-59608628D01*
X74642857Y-59608628D02*
X74261905Y-59608628D01*
X75404762Y-59513390D02*
X75309524Y-59465771D01*
X75309524Y-59465771D02*
X75261905Y-59418152D01*
X75261905Y-59418152D02*
X75214286Y-59322914D01*
X75214286Y-59322914D02*
X75214286Y-59275295D01*
X75214286Y-59275295D02*
X75261905Y-59180057D01*
X75261905Y-59180057D02*
X75309524Y-59132438D01*
X75309524Y-59132438D02*
X75404762Y-59084819D01*
X75404762Y-59084819D02*
X75595238Y-59084819D01*
X75595238Y-59084819D02*
X75690476Y-59132438D01*
X75690476Y-59132438D02*
X75738095Y-59180057D01*
X75738095Y-59180057D02*
X75785714Y-59275295D01*
X75785714Y-59275295D02*
X75785714Y-59322914D01*
X75785714Y-59322914D02*
X75738095Y-59418152D01*
X75738095Y-59418152D02*
X75690476Y-59465771D01*
X75690476Y-59465771D02*
X75595238Y-59513390D01*
X75595238Y-59513390D02*
X75404762Y-59513390D01*
X75404762Y-59513390D02*
X75309524Y-59561009D01*
X75309524Y-59561009D02*
X75261905Y-59608628D01*
X75261905Y-59608628D02*
X75214286Y-59703866D01*
X75214286Y-59703866D02*
X75214286Y-59894342D01*
X75214286Y-59894342D02*
X75261905Y-59989580D01*
X75261905Y-59989580D02*
X75309524Y-60037200D01*
X75309524Y-60037200D02*
X75404762Y-60084819D01*
X75404762Y-60084819D02*
X75595238Y-60084819D01*
X75595238Y-60084819D02*
X75690476Y-60037200D01*
X75690476Y-60037200D02*
X75738095Y-59989580D01*
X75738095Y-59989580D02*
X75785714Y-59894342D01*
X75785714Y-59894342D02*
X75785714Y-59703866D01*
X75785714Y-59703866D02*
X75738095Y-59608628D01*
X75738095Y-59608628D02*
X75690476Y-59561009D01*
X75690476Y-59561009D02*
X75595238Y-59513390D01*
X40756905Y-80094819D02*
X40756905Y-79094819D01*
X40756905Y-79094819D02*
X40995000Y-79094819D01*
X40995000Y-79094819D02*
X41137857Y-79142438D01*
X41137857Y-79142438D02*
X41233095Y-79237676D01*
X41233095Y-79237676D02*
X41280714Y-79332914D01*
X41280714Y-79332914D02*
X41328333Y-79523390D01*
X41328333Y-79523390D02*
X41328333Y-79666247D01*
X41328333Y-79666247D02*
X41280714Y-79856723D01*
X41280714Y-79856723D02*
X41233095Y-79951961D01*
X41233095Y-79951961D02*
X41137857Y-80047200D01*
X41137857Y-80047200D02*
X40995000Y-80094819D01*
X40995000Y-80094819D02*
X40756905Y-80094819D01*
X42280714Y-80094819D02*
X41709286Y-80094819D01*
X41995000Y-80094819D02*
X41995000Y-79094819D01*
X41995000Y-79094819D02*
X41899762Y-79237676D01*
X41899762Y-79237676D02*
X41804524Y-79332914D01*
X41804524Y-79332914D02*
X41709286Y-79380533D01*
X84594819Y-88915720D02*
X85404342Y-88915720D01*
X85404342Y-88915720D02*
X85499580Y-88868101D01*
X85499580Y-88868101D02*
X85547200Y-88820482D01*
X85547200Y-88820482D02*
X85594819Y-88725244D01*
X85594819Y-88725244D02*
X85594819Y-88534768D01*
X85594819Y-88534768D02*
X85547200Y-88439530D01*
X85547200Y-88439530D02*
X85499580Y-88391911D01*
X85499580Y-88391911D02*
X85404342Y-88344292D01*
X85404342Y-88344292D02*
X84594819Y-88344292D01*
X84594819Y-87391911D02*
X84594819Y-87868101D01*
X84594819Y-87868101D02*
X85071009Y-87915720D01*
X85071009Y-87915720D02*
X85023390Y-87868101D01*
X85023390Y-87868101D02*
X84975771Y-87772863D01*
X84975771Y-87772863D02*
X84975771Y-87534768D01*
X84975771Y-87534768D02*
X85023390Y-87439530D01*
X85023390Y-87439530D02*
X85071009Y-87391911D01*
X85071009Y-87391911D02*
X85166247Y-87344292D01*
X85166247Y-87344292D02*
X85404342Y-87344292D01*
X85404342Y-87344292D02*
X85499580Y-87391911D01*
X85499580Y-87391911D02*
X85547200Y-87439530D01*
X85547200Y-87439530D02*
X85594819Y-87534768D01*
X85594819Y-87534768D02*
X85594819Y-87772863D01*
X85594819Y-87772863D02*
X85547200Y-87868101D01*
X85547200Y-87868101D02*
X85499580Y-87915720D01*
X52833333Y-60084819D02*
X52500000Y-59608628D01*
X52261905Y-60084819D02*
X52261905Y-59084819D01*
X52261905Y-59084819D02*
X52642857Y-59084819D01*
X52642857Y-59084819D02*
X52738095Y-59132438D01*
X52738095Y-59132438D02*
X52785714Y-59180057D01*
X52785714Y-59180057D02*
X52833333Y-59275295D01*
X52833333Y-59275295D02*
X52833333Y-59418152D01*
X52833333Y-59418152D02*
X52785714Y-59513390D01*
X52785714Y-59513390D02*
X52738095Y-59561009D01*
X52738095Y-59561009D02*
X52642857Y-59608628D01*
X52642857Y-59608628D02*
X52261905Y-59608628D01*
X53690476Y-59418152D02*
X53690476Y-60084819D01*
X53452381Y-59037200D02*
X53214286Y-59751485D01*
X53214286Y-59751485D02*
X53833333Y-59751485D01*
X74833333Y-52084819D02*
X74500000Y-51608628D01*
X74261905Y-52084819D02*
X74261905Y-51084819D01*
X74261905Y-51084819D02*
X74642857Y-51084819D01*
X74642857Y-51084819D02*
X74738095Y-51132438D01*
X74738095Y-51132438D02*
X74785714Y-51180057D01*
X74785714Y-51180057D02*
X74833333Y-51275295D01*
X74833333Y-51275295D02*
X74833333Y-51418152D01*
X74833333Y-51418152D02*
X74785714Y-51513390D01*
X74785714Y-51513390D02*
X74738095Y-51561009D01*
X74738095Y-51561009D02*
X74642857Y-51608628D01*
X74642857Y-51608628D02*
X74261905Y-51608628D01*
X75166667Y-51084819D02*
X75833333Y-51084819D01*
X75833333Y-51084819D02*
X75404762Y-52084819D01*
X87236831Y-24304819D02*
X87236831Y-23304819D01*
X87236831Y-23781009D02*
X87808259Y-23781009D01*
X87808259Y-24304819D02*
X87808259Y-23304819D01*
X88189212Y-23304819D02*
X88808259Y-23304819D01*
X88808259Y-23304819D02*
X88474926Y-23685771D01*
X88474926Y-23685771D02*
X88617783Y-23685771D01*
X88617783Y-23685771D02*
X88713021Y-23733390D01*
X88713021Y-23733390D02*
X88760640Y-23781009D01*
X88760640Y-23781009D02*
X88808259Y-23876247D01*
X88808259Y-23876247D02*
X88808259Y-24114342D01*
X88808259Y-24114342D02*
X88760640Y-24209580D01*
X88760640Y-24209580D02*
X88713021Y-24257200D01*
X88713021Y-24257200D02*
X88617783Y-24304819D01*
X88617783Y-24304819D02*
X88332069Y-24304819D01*
X88332069Y-24304819D02*
X88236831Y-24257200D01*
X88236831Y-24257200D02*
X88189212Y-24209580D01*
X23166666Y-45184819D02*
X23166666Y-45899104D01*
X23166666Y-45899104D02*
X23119047Y-46041961D01*
X23119047Y-46041961D02*
X23023809Y-46137200D01*
X23023809Y-46137200D02*
X22880952Y-46184819D01*
X22880952Y-46184819D02*
X22785714Y-46184819D01*
X24166666Y-46184819D02*
X23595238Y-46184819D01*
X23880952Y-46184819D02*
X23880952Y-45184819D01*
X23880952Y-45184819D02*
X23785714Y-45327676D01*
X23785714Y-45327676D02*
X23690476Y-45422914D01*
X23690476Y-45422914D02*
X23595238Y-45470533D01*
%TO.C,R2*%
D11*
X30960000Y-70000000D02*
X31730000Y-70000000D01*
X39040000Y-70000000D02*
X38270000Y-70000000D01*
X31730000Y-68630000D02*
X38270000Y-68630000D01*
X38270000Y-71370000D01*
X31730000Y-71370000D01*
X31730000Y-68630000D01*
%TO.C,R11*%
X104065000Y-109527064D02*
X104065000Y-109072936D01*
X105535000Y-109527064D02*
X105535000Y-109072936D01*
%TO.C,U1*%
X51050000Y-38800000D02*
X51050000Y-39490000D01*
X51050000Y-49200000D02*
X51050000Y-48510000D01*
X52415000Y-38800000D02*
X51050000Y-38800000D01*
X52415000Y-49200000D02*
X51050000Y-49200000D01*
X48225000Y-39530000D02*
X47885000Y-39060000D01*
X48565000Y-39060000D01*
X48225000Y-39530000D01*
G36*
X48225000Y-39530000D02*
G01*
X47885000Y-39060000D01*
X48565000Y-39060000D01*
X48225000Y-39530000D01*
G37*
%TO.C,R1*%
X30960000Y-44000000D02*
X31730000Y-44000000D01*
X39040000Y-44000000D02*
X38270000Y-44000000D01*
X31730000Y-42630000D02*
X38270000Y-42630000D01*
X38270000Y-45370000D01*
X31730000Y-45370000D01*
X31730000Y-42630000D01*
%TO.C,R6*%
X70960000Y-58000000D02*
X71730000Y-58000000D01*
X79040000Y-58000000D02*
X78270000Y-58000000D01*
X71730000Y-56630000D02*
X78270000Y-56630000D01*
X78270000Y-59370000D01*
X71730000Y-59370000D01*
X71730000Y-56630000D01*
%TO.C,U6*%
X20700000Y-100300000D02*
X20700000Y-102750000D01*
X20700000Y-102750000D02*
X23030000Y-102750000D01*
X21030000Y-94570000D02*
X32970000Y-94570000D01*
X21030000Y-102420000D02*
X21030000Y-94570000D01*
X32970000Y-94570000D02*
X32970000Y-102420000D01*
X32970000Y-102420000D02*
X21030000Y-102420000D01*
%TO.C,J6*%
X93620000Y-100810000D02*
X95000000Y-100810000D01*
X93620000Y-102190000D02*
X93620000Y-100810000D01*
X93620000Y-103460000D02*
X93620000Y-111190000D01*
X93620000Y-103460000D02*
X96380000Y-103460000D01*
X93620000Y-111190000D02*
X96380000Y-111190000D01*
X96380000Y-103460000D02*
X96380000Y-111190000D01*
%TO.C,C5*%
X59380000Y-24880000D02*
X72620000Y-24880000D01*
X59380000Y-31120000D02*
X59380000Y-24880000D01*
X72620000Y-24880000D02*
X72620000Y-31120000D01*
X72620000Y-31120000D02*
X59380000Y-31120000D01*
%TO.C,C3*%
X51380000Y-26630000D02*
X56620000Y-26630000D01*
X51380000Y-26967000D02*
X51380000Y-26630000D01*
X51380000Y-29370000D02*
X51380000Y-29033000D01*
X56620000Y-26630000D02*
X56620000Y-26967000D01*
X56620000Y-29033000D02*
X56620000Y-29370000D01*
X56620000Y-29370000D02*
X51380000Y-29370000D01*
%TO.C,C1*%
X82739360Y-51885000D02*
X84539360Y-51885000D01*
X83639360Y-50985000D02*
X83639360Y-52785000D01*
X92498800Y-47920000D02*
X92498800Y-66080000D01*
X92538800Y-47920000D02*
X92538800Y-66080000D01*
X92578800Y-47920000D02*
X92578800Y-66080000D01*
X92618800Y-47921000D02*
X92618800Y-66079000D01*
X92658800Y-47921000D02*
X92658800Y-66079000D01*
X92698800Y-47922000D02*
X92698800Y-66078000D01*
X92738800Y-47923000D02*
X92738800Y-66077000D01*
X92778800Y-47924000D02*
X92778800Y-66076000D01*
X92818800Y-47926000D02*
X92818800Y-66074000D01*
X92858800Y-47927000D02*
X92858800Y-66073000D01*
X92898800Y-47929000D02*
X92898800Y-66071000D01*
X92938800Y-47931000D02*
X92938800Y-66069000D01*
X92978800Y-47933000D02*
X92978800Y-66067000D01*
X93018800Y-47935000D02*
X93018800Y-66065000D01*
X93058800Y-47937000D02*
X93058800Y-66063000D01*
X93098800Y-47940000D02*
X93098800Y-66060000D01*
X93138800Y-47942000D02*
X93138800Y-66058000D01*
X93178800Y-47945000D02*
X93178800Y-66055000D01*
X93218800Y-47948000D02*
X93218800Y-66052000D01*
X93258800Y-47952000D02*
X93258800Y-66048000D01*
X93298800Y-47955000D02*
X93298800Y-66045000D01*
X93338800Y-47959000D02*
X93338800Y-66041000D01*
X93378800Y-47963000D02*
X93378800Y-66037000D01*
X93418800Y-47967000D02*
X93418800Y-66033000D01*
X93458800Y-47971000D02*
X93458800Y-66029000D01*
X93498800Y-47975000D02*
X93498800Y-66025000D01*
X93538800Y-47979000D02*
X93538800Y-66021000D01*
X93578800Y-47984000D02*
X93578800Y-66016000D01*
X93618800Y-47989000D02*
X93618800Y-66011000D01*
X93658800Y-47994000D02*
X93658800Y-66006000D01*
X93698800Y-47999000D02*
X93698800Y-66001000D01*
X93738800Y-48005000D02*
X93738800Y-65995000D01*
X93778800Y-48010000D02*
X93778800Y-65990000D01*
X93818800Y-48016000D02*
X93818800Y-65984000D01*
X93858800Y-48022000D02*
X93858800Y-65978000D01*
X93898800Y-48028000D02*
X93898800Y-65972000D01*
X93938800Y-48034000D02*
X93938800Y-65966000D01*
X93978800Y-48041000D02*
X93978800Y-65959000D01*
X94018800Y-48048000D02*
X94018800Y-65952000D01*
X94058800Y-48054000D02*
X94058800Y-65946000D01*
X94098800Y-48061000D02*
X94098800Y-65939000D01*
X94138800Y-48069000D02*
X94138800Y-65931000D01*
X94178800Y-48076000D02*
X94178800Y-65924000D01*
X94218800Y-48084000D02*
X94218800Y-65916000D01*
X94258800Y-48091000D02*
X94258800Y-65909000D01*
X94298800Y-48099000D02*
X94298800Y-65901000D01*
X94338800Y-48108000D02*
X94338800Y-65892000D01*
X94378800Y-48116000D02*
X94378800Y-65884000D01*
X94418800Y-48124000D02*
X94418800Y-65876000D01*
X94458800Y-48133000D02*
X94458800Y-65867000D01*
X94498800Y-48142000D02*
X94498800Y-65858000D01*
X94538800Y-48151000D02*
X94538800Y-65849000D01*
X94578800Y-48160000D02*
X94578800Y-65840000D01*
X94618800Y-48170000D02*
X94618800Y-65830000D01*
X94658800Y-48179000D02*
X94658800Y-65821000D01*
X94698800Y-48189000D02*
X94698800Y-65811000D01*
X94738800Y-48199000D02*
X94738800Y-65801000D01*
X94778800Y-48210000D02*
X94778800Y-65790000D01*
X94818800Y-48220000D02*
X94818800Y-55560000D01*
X94818800Y-58440000D02*
X94818800Y-65780000D01*
X94858800Y-48231000D02*
X94858800Y-55560000D01*
X94858800Y-58440000D02*
X94858800Y-65769000D01*
X94898800Y-48241000D02*
X94898800Y-55560000D01*
X94898800Y-58440000D02*
X94898800Y-65759000D01*
X94938800Y-48252000D02*
X94938800Y-55560000D01*
X94938800Y-58440000D02*
X94938800Y-65748000D01*
X94978800Y-48264000D02*
X94978800Y-55560000D01*
X94978800Y-58440000D02*
X94978800Y-65736000D01*
X95018800Y-48275000D02*
X95018800Y-55560000D01*
X95018800Y-58440000D02*
X95018800Y-65725000D01*
X95058800Y-48287000D02*
X95058800Y-55560000D01*
X95058800Y-58440000D02*
X95058800Y-65713000D01*
X95098800Y-48298000D02*
X95098800Y-55560000D01*
X95098800Y-58440000D02*
X95098800Y-65702000D01*
X95138800Y-48310000D02*
X95138800Y-55560000D01*
X95138800Y-58440000D02*
X95138800Y-65690000D01*
X95178800Y-48323000D02*
X95178800Y-55560000D01*
X95178800Y-58440000D02*
X95178800Y-65677000D01*
X95218800Y-48335000D02*
X95218800Y-55560000D01*
X95218800Y-58440000D02*
X95218800Y-65665000D01*
X95258800Y-48348000D02*
X95258800Y-55560000D01*
X95258800Y-58440000D02*
X95258800Y-65652000D01*
X95298800Y-48360000D02*
X95298800Y-55560000D01*
X95298800Y-58440000D02*
X95298800Y-65640000D01*
X95338800Y-48373000D02*
X95338800Y-55560000D01*
X95338800Y-58440000D02*
X95338800Y-65627000D01*
X95378800Y-48387000D02*
X95378800Y-55560000D01*
X95378800Y-58440000D02*
X95378800Y-65613000D01*
X95418800Y-48400000D02*
X95418800Y-55560000D01*
X95418800Y-58440000D02*
X95418800Y-65600000D01*
X95458800Y-48414000D02*
X95458800Y-55560000D01*
X95458800Y-58440000D02*
X95458800Y-65586000D01*
X95498800Y-48428000D02*
X95498800Y-55560000D01*
X95498800Y-58440000D02*
X95498800Y-65572000D01*
X95538800Y-48442000D02*
X95538800Y-55560000D01*
X95538800Y-58440000D02*
X95538800Y-65558000D01*
X95578800Y-48456000D02*
X95578800Y-55560000D01*
X95578800Y-58440000D02*
X95578800Y-65544000D01*
X95618800Y-48470000D02*
X95618800Y-55560000D01*
X95618800Y-58440000D02*
X95618800Y-65530000D01*
X95658800Y-48485000D02*
X95658800Y-55560000D01*
X95658800Y-58440000D02*
X95658800Y-65515000D01*
X95698800Y-48500000D02*
X95698800Y-55560000D01*
X95698800Y-58440000D02*
X95698800Y-65500000D01*
X95738800Y-48515000D02*
X95738800Y-55560000D01*
X95738800Y-58440000D02*
X95738800Y-65485000D01*
X95778800Y-48530000D02*
X95778800Y-55560000D01*
X95778800Y-58440000D02*
X95778800Y-65470000D01*
X95818800Y-48546000D02*
X95818800Y-55560000D01*
X95818800Y-58440000D02*
X95818800Y-65454000D01*
X95858800Y-48562000D02*
X95858800Y-55560000D01*
X95858800Y-58440000D02*
X95858800Y-65438000D01*
X95898800Y-48577000D02*
X95898800Y-55560000D01*
X95898800Y-58440000D02*
X95898800Y-65423000D01*
X95938800Y-48594000D02*
X95938800Y-55560000D01*
X95938800Y-58440000D02*
X95938800Y-65406000D01*
X95978800Y-48610000D02*
X95978800Y-55560000D01*
X95978800Y-58440000D02*
X95978800Y-65390000D01*
X96018800Y-48627000D02*
X96018800Y-55560000D01*
X96018800Y-58440000D02*
X96018800Y-65373000D01*
X96058800Y-48644000D02*
X96058800Y-55560000D01*
X96058800Y-58440000D02*
X96058800Y-65356000D01*
X96098800Y-48661000D02*
X96098800Y-55560000D01*
X96098800Y-58440000D02*
X96098800Y-65339000D01*
X96138800Y-48678000D02*
X96138800Y-55560000D01*
X96138800Y-58440000D02*
X96138800Y-65322000D01*
X96178800Y-48695000D02*
X96178800Y-55560000D01*
X96178800Y-58440000D02*
X96178800Y-65305000D01*
X96218800Y-48713000D02*
X96218800Y-55560000D01*
X96218800Y-58440000D02*
X96218800Y-65287000D01*
X96258800Y-48731000D02*
X96258800Y-55560000D01*
X96258800Y-58440000D02*
X96258800Y-65269000D01*
X96298800Y-48749000D02*
X96298800Y-55560000D01*
X96298800Y-58440000D02*
X96298800Y-65251000D01*
X96338800Y-48768000D02*
X96338800Y-55560000D01*
X96338800Y-58440000D02*
X96338800Y-65232000D01*
X96378800Y-48787000D02*
X96378800Y-55560000D01*
X96378800Y-58440000D02*
X96378800Y-65213000D01*
X96418800Y-48805000D02*
X96418800Y-55560000D01*
X96418800Y-58440000D02*
X96418800Y-65195000D01*
X96458800Y-48825000D02*
X96458800Y-55560000D01*
X96458800Y-58440000D02*
X96458800Y-65175000D01*
X96498800Y-48844000D02*
X96498800Y-55560000D01*
X96498800Y-58440000D02*
X96498800Y-65156000D01*
X96538800Y-48864000D02*
X96538800Y-55560000D01*
X96538800Y-58440000D02*
X96538800Y-65136000D01*
X96578800Y-48884000D02*
X96578800Y-55560000D01*
X96578800Y-58440000D02*
X96578800Y-65116000D01*
X96618800Y-48904000D02*
X96618800Y-55560000D01*
X96618800Y-58440000D02*
X96618800Y-65096000D01*
X96658800Y-48924000D02*
X96658800Y-55560000D01*
X96658800Y-58440000D02*
X96658800Y-65076000D01*
X96698800Y-48945000D02*
X96698800Y-55560000D01*
X96698800Y-58440000D02*
X96698800Y-65055000D01*
X96738800Y-48966000D02*
X96738800Y-55560000D01*
X96738800Y-58440000D02*
X96738800Y-65034000D01*
X96778800Y-48987000D02*
X96778800Y-55560000D01*
X96778800Y-58440000D02*
X96778800Y-65013000D01*
X96818800Y-49008000D02*
X96818800Y-55560000D01*
X96818800Y-58440000D02*
X96818800Y-64992000D01*
X96858800Y-49030000D02*
X96858800Y-55560000D01*
X96858800Y-58440000D02*
X96858800Y-64970000D01*
X96898800Y-49052000D02*
X96898800Y-55560000D01*
X96898800Y-58440000D02*
X96898800Y-64948000D01*
X96938800Y-49074000D02*
X96938800Y-55560000D01*
X96938800Y-58440000D02*
X96938800Y-64926000D01*
X96978800Y-49096000D02*
X96978800Y-55560000D01*
X96978800Y-58440000D02*
X96978800Y-64904000D01*
X97018800Y-49119000D02*
X97018800Y-55560000D01*
X97018800Y-58440000D02*
X97018800Y-64881000D01*
X97058800Y-49142000D02*
X97058800Y-55560000D01*
X97058800Y-58440000D02*
X97058800Y-64858000D01*
X97098800Y-49165000D02*
X97098800Y-55560000D01*
X97098800Y-58440000D02*
X97098800Y-64835000D01*
X97138800Y-49189000D02*
X97138800Y-55560000D01*
X97138800Y-58440000D02*
X97138800Y-64811000D01*
X97178800Y-49212000D02*
X97178800Y-55560000D01*
X97178800Y-58440000D02*
X97178800Y-64788000D01*
X97218800Y-49236000D02*
X97218800Y-55560000D01*
X97218800Y-58440000D02*
X97218800Y-64764000D01*
X97258800Y-49261000D02*
X97258800Y-55560000D01*
X97258800Y-58440000D02*
X97258800Y-64739000D01*
X97298800Y-49285000D02*
X97298800Y-55560000D01*
X97298800Y-58440000D02*
X97298800Y-64715000D01*
X97338800Y-49310000D02*
X97338800Y-55560000D01*
X97338800Y-58440000D02*
X97338800Y-64690000D01*
X97378800Y-49335000D02*
X97378800Y-55560000D01*
X97378800Y-58440000D02*
X97378800Y-64665000D01*
X97418800Y-49361000D02*
X97418800Y-55560000D01*
X97418800Y-58440000D02*
X97418800Y-64639000D01*
X97458800Y-49387000D02*
X97458800Y-55560000D01*
X97458800Y-58440000D02*
X97458800Y-64613000D01*
X97498800Y-49413000D02*
X97498800Y-55560000D01*
X97498800Y-58440000D02*
X97498800Y-64587000D01*
X97538800Y-49439000D02*
X97538800Y-55560000D01*
X97538800Y-58440000D02*
X97538800Y-64561000D01*
X97578800Y-49466000D02*
X97578800Y-55560000D01*
X97578800Y-58440000D02*
X97578800Y-64534000D01*
X97618800Y-49493000D02*
X97618800Y-55560000D01*
X97618800Y-58440000D02*
X97618800Y-64507000D01*
X97658800Y-49520000D02*
X97658800Y-55560000D01*
X97658800Y-58440000D02*
X97658800Y-64480000D01*
X97698800Y-49548000D02*
X97698800Y-64452000D01*
X97738800Y-49576000D02*
X97738800Y-64424000D01*
X97778800Y-49604000D02*
X97778800Y-64396000D01*
X97818800Y-49632000D02*
X97818800Y-64368000D01*
X97858800Y-49661000D02*
X97858800Y-64339000D01*
X97898800Y-49691000D02*
X97898800Y-64309000D01*
X97938800Y-49720000D02*
X97938800Y-64280000D01*
X97978800Y-49750000D02*
X97978800Y-64250000D01*
X98018800Y-49780000D02*
X98018800Y-64220000D01*
X98058800Y-49811000D02*
X98058800Y-64189000D01*
X98098800Y-49842000D02*
X98098800Y-64158000D01*
X98138800Y-49873000D02*
X98138800Y-64127000D01*
X98178800Y-49905000D02*
X98178800Y-64095000D01*
X98218800Y-49937000D02*
X98218800Y-64063000D01*
X98258800Y-49969000D02*
X98258800Y-64031000D01*
X98298800Y-50002000D02*
X98298800Y-63998000D01*
X98338800Y-50035000D02*
X98338800Y-63965000D01*
X98378800Y-50069000D02*
X98378800Y-63931000D01*
X98418800Y-50103000D02*
X98418800Y-63897000D01*
X98458800Y-50137000D02*
X98458800Y-63863000D01*
X98498800Y-50172000D02*
X98498800Y-63828000D01*
X98538800Y-50207000D02*
X98538800Y-63793000D01*
X98578800Y-50242000D02*
X98578800Y-63758000D01*
X98618800Y-50278000D02*
X98618800Y-63722000D01*
X98658800Y-50315000D02*
X98658800Y-63685000D01*
X98698800Y-50352000D02*
X98698800Y-63648000D01*
X98738800Y-50389000D02*
X98738800Y-63611000D01*
X98778800Y-50427000D02*
X98778800Y-63573000D01*
X98818800Y-50465000D02*
X98818800Y-63535000D01*
X98858800Y-50504000D02*
X98858800Y-63496000D01*
X98898800Y-50543000D02*
X98898800Y-63457000D01*
X98938800Y-50582000D02*
X98938800Y-63418000D01*
X98978800Y-50623000D02*
X98978800Y-63377000D01*
X99018800Y-50663000D02*
X99018800Y-63337000D01*
X99058800Y-50704000D02*
X99058800Y-63296000D01*
X99098800Y-50746000D02*
X99098800Y-63254000D01*
X99138800Y-50788000D02*
X99138800Y-63212000D01*
X99178800Y-50831000D02*
X99178800Y-63169000D01*
X99218800Y-50874000D02*
X99218800Y-63126000D01*
X99258800Y-50918000D02*
X99258800Y-63082000D01*
X99298800Y-50963000D02*
X99298800Y-63037000D01*
X99338800Y-51008000D02*
X99338800Y-62992000D01*
X99378800Y-51053000D02*
X99378800Y-62947000D01*
X99418800Y-51100000D02*
X99418800Y-62900000D01*
X99458800Y-51147000D02*
X99458800Y-62853000D01*
X99498800Y-51194000D02*
X99498800Y-62806000D01*
X99538800Y-51242000D02*
X99538800Y-62758000D01*
X99578800Y-51291000D02*
X99578800Y-62709000D01*
X99618800Y-51341000D02*
X99618800Y-62659000D01*
X99658800Y-51391000D02*
X99658800Y-62609000D01*
X99698800Y-51442000D02*
X99698800Y-62558000D01*
X99738800Y-51494000D02*
X99738800Y-62506000D01*
X99778800Y-51547000D02*
X99778800Y-62453000D01*
X99818800Y-51600000D02*
X99818800Y-62400000D01*
X99858800Y-51654000D02*
X99858800Y-62346000D01*
X99898800Y-51709000D02*
X99898800Y-62291000D01*
X99938800Y-51765000D02*
X99938800Y-62235000D01*
X99978800Y-51822000D02*
X99978800Y-62178000D01*
X100018800Y-51880000D02*
X100018800Y-62120000D01*
X100058800Y-51939000D02*
X100058800Y-62061000D01*
X100098800Y-51999000D02*
X100098800Y-62001000D01*
X100138800Y-52060000D02*
X100138800Y-61940000D01*
X100178800Y-52121000D02*
X100178800Y-61879000D01*
X100218800Y-52184000D02*
X100218800Y-61816000D01*
X100258800Y-52249000D02*
X100258800Y-61751000D01*
X100298800Y-52314000D02*
X100298800Y-61686000D01*
X100338800Y-52381000D02*
X100338800Y-61619000D01*
X100378800Y-52449000D02*
X100378800Y-61551000D01*
X100418800Y-52518000D02*
X100418800Y-61482000D01*
X100458800Y-52589000D02*
X100458800Y-61411000D01*
X100498800Y-52661000D02*
X100498800Y-61339000D01*
X100538800Y-52735000D02*
X100538800Y-61265000D01*
X100578800Y-52811000D02*
X100578800Y-61189000D01*
X100618800Y-52888000D02*
X100618800Y-61112000D01*
X100658800Y-52967000D02*
X100658800Y-61033000D01*
X100698800Y-53048000D02*
X100698800Y-60952000D01*
X100738800Y-53131000D02*
X100738800Y-60869000D01*
X100778800Y-53217000D02*
X100778800Y-60783000D01*
X100818800Y-53305000D02*
X100818800Y-60695000D01*
X100858800Y-53395000D02*
X100858800Y-60605000D01*
X100898800Y-53488000D02*
X100898800Y-60512000D01*
X100938800Y-53584000D02*
X100938800Y-60416000D01*
X100978800Y-53684000D02*
X100978800Y-60316000D01*
X101018800Y-53787000D02*
X101018800Y-60213000D01*
X101058800Y-53893000D02*
X101058800Y-60107000D01*
X101098800Y-54004000D02*
X101098800Y-59996000D01*
X101138800Y-54120000D02*
X101138800Y-59880000D01*
X101178800Y-54241000D02*
X101178800Y-59759000D01*
X101218800Y-54369000D02*
X101218800Y-59631000D01*
X101258800Y-54503000D02*
X101258800Y-59497000D01*
X101298800Y-54645000D02*
X101298800Y-59355000D01*
X101338800Y-54798000D02*
X101338800Y-59202000D01*
X101378800Y-54962000D02*
X101378800Y-59038000D01*
X101418800Y-55141000D02*
X101418800Y-58859000D01*
X101458800Y-55339000D02*
X101458800Y-58661000D01*
X101498800Y-55565000D02*
X101498800Y-58435000D01*
X101538800Y-55835000D02*
X101538800Y-58165000D01*
X101578800Y-56187000D02*
X101578800Y-57813000D01*
X101618800Y-57040000D02*
X101618800Y-56960000D01*
X101618800Y-57000000D02*
G75*
G02*
X83378800Y-57000000I-9120000J0D01*
G01*
X83378800Y-57000000D02*
G75*
G02*
X101618800Y-57000000I9120000J0D01*
G01*
%TO.C,R9*%
X49960000Y-88000000D02*
X50730000Y-88000000D01*
X58040000Y-88000000D02*
X57270000Y-88000000D01*
X50730000Y-86630000D02*
X57270000Y-86630000D01*
X57270000Y-89370000D01*
X50730000Y-89370000D01*
X50730000Y-86630000D01*
%TO.C,C4*%
X75380000Y-26630000D02*
X80620000Y-26630000D01*
X75380000Y-26967000D02*
X75380000Y-26630000D01*
X75380000Y-29370000D02*
X75380000Y-29033000D01*
X80620000Y-26630000D02*
X80620000Y-26967000D01*
X80620000Y-29033000D02*
X80620000Y-29370000D01*
X80620000Y-29370000D02*
X75380000Y-29370000D01*
%TO.C,R10*%
X100265000Y-106727064D02*
X100265000Y-106272936D01*
X101735000Y-106727064D02*
X101735000Y-106272936D01*
%TO.C,U3*%
X71050000Y-38800000D02*
X71050000Y-39490000D01*
X71050000Y-49200000D02*
X71050000Y-48510000D01*
X72415000Y-38800000D02*
X71050000Y-38800000D01*
X72415000Y-49200000D02*
X71050000Y-49200000D01*
X68225000Y-39530000D02*
X67885000Y-39060000D01*
X68565000Y-39060000D01*
X68225000Y-39530000D01*
G36*
X68225000Y-39530000D02*
G01*
X67885000Y-39060000D01*
X68565000Y-39060000D01*
X68225000Y-39530000D01*
G37*
%TO.C,C2*%
X25239360Y-51885000D02*
X27039360Y-51885000D01*
X26139360Y-50985000D02*
X26139360Y-52785000D01*
X34998800Y-47920000D02*
X34998800Y-66080000D01*
X35038800Y-47920000D02*
X35038800Y-66080000D01*
X35078800Y-47920000D02*
X35078800Y-66080000D01*
X35118800Y-47921000D02*
X35118800Y-66079000D01*
X35158800Y-47921000D02*
X35158800Y-66079000D01*
X35198800Y-47922000D02*
X35198800Y-66078000D01*
X35238800Y-47923000D02*
X35238800Y-66077000D01*
X35278800Y-47924000D02*
X35278800Y-66076000D01*
X35318800Y-47926000D02*
X35318800Y-66074000D01*
X35358800Y-47927000D02*
X35358800Y-66073000D01*
X35398800Y-47929000D02*
X35398800Y-66071000D01*
X35438800Y-47931000D02*
X35438800Y-66069000D01*
X35478800Y-47933000D02*
X35478800Y-66067000D01*
X35518800Y-47935000D02*
X35518800Y-66065000D01*
X35558800Y-47937000D02*
X35558800Y-66063000D01*
X35598800Y-47940000D02*
X35598800Y-66060000D01*
X35638800Y-47942000D02*
X35638800Y-66058000D01*
X35678800Y-47945000D02*
X35678800Y-66055000D01*
X35718800Y-47948000D02*
X35718800Y-66052000D01*
X35758800Y-47952000D02*
X35758800Y-66048000D01*
X35798800Y-47955000D02*
X35798800Y-66045000D01*
X35838800Y-47959000D02*
X35838800Y-66041000D01*
X35878800Y-47963000D02*
X35878800Y-66037000D01*
X35918800Y-47967000D02*
X35918800Y-66033000D01*
X35958800Y-47971000D02*
X35958800Y-66029000D01*
X35998800Y-47975000D02*
X35998800Y-66025000D01*
X36038800Y-47979000D02*
X36038800Y-66021000D01*
X36078800Y-47984000D02*
X36078800Y-66016000D01*
X36118800Y-47989000D02*
X36118800Y-66011000D01*
X36158800Y-47994000D02*
X36158800Y-66006000D01*
X36198800Y-47999000D02*
X36198800Y-66001000D01*
X36238800Y-48005000D02*
X36238800Y-65995000D01*
X36278800Y-48010000D02*
X36278800Y-65990000D01*
X36318800Y-48016000D02*
X36318800Y-65984000D01*
X36358800Y-48022000D02*
X36358800Y-65978000D01*
X36398800Y-48028000D02*
X36398800Y-65972000D01*
X36438800Y-48034000D02*
X36438800Y-65966000D01*
X36478800Y-48041000D02*
X36478800Y-65959000D01*
X36518800Y-48048000D02*
X36518800Y-65952000D01*
X36558800Y-48054000D02*
X36558800Y-65946000D01*
X36598800Y-48061000D02*
X36598800Y-65939000D01*
X36638800Y-48069000D02*
X36638800Y-65931000D01*
X36678800Y-48076000D02*
X36678800Y-65924000D01*
X36718800Y-48084000D02*
X36718800Y-65916000D01*
X36758800Y-48091000D02*
X36758800Y-65909000D01*
X36798800Y-48099000D02*
X36798800Y-65901000D01*
X36838800Y-48108000D02*
X36838800Y-65892000D01*
X36878800Y-48116000D02*
X36878800Y-65884000D01*
X36918800Y-48124000D02*
X36918800Y-65876000D01*
X36958800Y-48133000D02*
X36958800Y-65867000D01*
X36998800Y-48142000D02*
X36998800Y-65858000D01*
X37038800Y-48151000D02*
X37038800Y-65849000D01*
X37078800Y-48160000D02*
X37078800Y-65840000D01*
X37118800Y-48170000D02*
X37118800Y-65830000D01*
X37158800Y-48179000D02*
X37158800Y-65821000D01*
X37198800Y-48189000D02*
X37198800Y-65811000D01*
X37238800Y-48199000D02*
X37238800Y-65801000D01*
X37278800Y-48210000D02*
X37278800Y-65790000D01*
X37318800Y-48220000D02*
X37318800Y-55560000D01*
X37318800Y-58440000D02*
X37318800Y-65780000D01*
X37358800Y-48231000D02*
X37358800Y-55560000D01*
X37358800Y-58440000D02*
X37358800Y-65769000D01*
X37398800Y-48241000D02*
X37398800Y-55560000D01*
X37398800Y-58440000D02*
X37398800Y-65759000D01*
X37438800Y-48252000D02*
X37438800Y-55560000D01*
X37438800Y-58440000D02*
X37438800Y-65748000D01*
X37478800Y-48264000D02*
X37478800Y-55560000D01*
X37478800Y-58440000D02*
X37478800Y-65736000D01*
X37518800Y-48275000D02*
X37518800Y-55560000D01*
X37518800Y-58440000D02*
X37518800Y-65725000D01*
X37558800Y-48287000D02*
X37558800Y-55560000D01*
X37558800Y-58440000D02*
X37558800Y-65713000D01*
X37598800Y-48298000D02*
X37598800Y-55560000D01*
X37598800Y-58440000D02*
X37598800Y-65702000D01*
X37638800Y-48310000D02*
X37638800Y-55560000D01*
X37638800Y-58440000D02*
X37638800Y-65690000D01*
X37678800Y-48323000D02*
X37678800Y-55560000D01*
X37678800Y-58440000D02*
X37678800Y-65677000D01*
X37718800Y-48335000D02*
X37718800Y-55560000D01*
X37718800Y-58440000D02*
X37718800Y-65665000D01*
X37758800Y-48348000D02*
X37758800Y-55560000D01*
X37758800Y-58440000D02*
X37758800Y-65652000D01*
X37798800Y-48360000D02*
X37798800Y-55560000D01*
X37798800Y-58440000D02*
X37798800Y-65640000D01*
X37838800Y-48373000D02*
X37838800Y-55560000D01*
X37838800Y-58440000D02*
X37838800Y-65627000D01*
X37878800Y-48387000D02*
X37878800Y-55560000D01*
X37878800Y-58440000D02*
X37878800Y-65613000D01*
X37918800Y-48400000D02*
X37918800Y-55560000D01*
X37918800Y-58440000D02*
X37918800Y-65600000D01*
X37958800Y-48414000D02*
X37958800Y-55560000D01*
X37958800Y-58440000D02*
X37958800Y-65586000D01*
X37998800Y-48428000D02*
X37998800Y-55560000D01*
X37998800Y-58440000D02*
X37998800Y-65572000D01*
X38038800Y-48442000D02*
X38038800Y-55560000D01*
X38038800Y-58440000D02*
X38038800Y-65558000D01*
X38078800Y-48456000D02*
X38078800Y-55560000D01*
X38078800Y-58440000D02*
X38078800Y-65544000D01*
X38118800Y-48470000D02*
X38118800Y-55560000D01*
X38118800Y-58440000D02*
X38118800Y-65530000D01*
X38158800Y-48485000D02*
X38158800Y-55560000D01*
X38158800Y-58440000D02*
X38158800Y-65515000D01*
X38198800Y-48500000D02*
X38198800Y-55560000D01*
X38198800Y-58440000D02*
X38198800Y-65500000D01*
X38238800Y-48515000D02*
X38238800Y-55560000D01*
X38238800Y-58440000D02*
X38238800Y-65485000D01*
X38278800Y-48530000D02*
X38278800Y-55560000D01*
X38278800Y-58440000D02*
X38278800Y-65470000D01*
X38318800Y-48546000D02*
X38318800Y-55560000D01*
X38318800Y-58440000D02*
X38318800Y-65454000D01*
X38358800Y-48562000D02*
X38358800Y-55560000D01*
X38358800Y-58440000D02*
X38358800Y-65438000D01*
X38398800Y-48577000D02*
X38398800Y-55560000D01*
X38398800Y-58440000D02*
X38398800Y-65423000D01*
X38438800Y-48594000D02*
X38438800Y-55560000D01*
X38438800Y-58440000D02*
X38438800Y-65406000D01*
X38478800Y-48610000D02*
X38478800Y-55560000D01*
X38478800Y-58440000D02*
X38478800Y-65390000D01*
X38518800Y-48627000D02*
X38518800Y-55560000D01*
X38518800Y-58440000D02*
X38518800Y-65373000D01*
X38558800Y-48644000D02*
X38558800Y-55560000D01*
X38558800Y-58440000D02*
X38558800Y-65356000D01*
X38598800Y-48661000D02*
X38598800Y-55560000D01*
X38598800Y-58440000D02*
X38598800Y-65339000D01*
X38638800Y-48678000D02*
X38638800Y-55560000D01*
X38638800Y-58440000D02*
X38638800Y-65322000D01*
X38678800Y-48695000D02*
X38678800Y-55560000D01*
X38678800Y-58440000D02*
X38678800Y-65305000D01*
X38718800Y-48713000D02*
X38718800Y-55560000D01*
X38718800Y-58440000D02*
X38718800Y-65287000D01*
X38758800Y-48731000D02*
X38758800Y-55560000D01*
X38758800Y-58440000D02*
X38758800Y-65269000D01*
X38798800Y-48749000D02*
X38798800Y-55560000D01*
X38798800Y-58440000D02*
X38798800Y-65251000D01*
X38838800Y-48768000D02*
X38838800Y-55560000D01*
X38838800Y-58440000D02*
X38838800Y-65232000D01*
X38878800Y-48787000D02*
X38878800Y-55560000D01*
X38878800Y-58440000D02*
X38878800Y-65213000D01*
X38918800Y-48805000D02*
X38918800Y-55560000D01*
X38918800Y-58440000D02*
X38918800Y-65195000D01*
X38958800Y-48825000D02*
X38958800Y-55560000D01*
X38958800Y-58440000D02*
X38958800Y-65175000D01*
X38998800Y-48844000D02*
X38998800Y-55560000D01*
X38998800Y-58440000D02*
X38998800Y-65156000D01*
X39038800Y-48864000D02*
X39038800Y-55560000D01*
X39038800Y-58440000D02*
X39038800Y-65136000D01*
X39078800Y-48884000D02*
X39078800Y-55560000D01*
X39078800Y-58440000D02*
X39078800Y-65116000D01*
X39118800Y-48904000D02*
X39118800Y-55560000D01*
X39118800Y-58440000D02*
X39118800Y-65096000D01*
X39158800Y-48924000D02*
X39158800Y-55560000D01*
X39158800Y-58440000D02*
X39158800Y-65076000D01*
X39198800Y-48945000D02*
X39198800Y-55560000D01*
X39198800Y-58440000D02*
X39198800Y-65055000D01*
X39238800Y-48966000D02*
X39238800Y-55560000D01*
X39238800Y-58440000D02*
X39238800Y-65034000D01*
X39278800Y-48987000D02*
X39278800Y-55560000D01*
X39278800Y-58440000D02*
X39278800Y-65013000D01*
X39318800Y-49008000D02*
X39318800Y-55560000D01*
X39318800Y-58440000D02*
X39318800Y-64992000D01*
X39358800Y-49030000D02*
X39358800Y-55560000D01*
X39358800Y-58440000D02*
X39358800Y-64970000D01*
X39398800Y-49052000D02*
X39398800Y-55560000D01*
X39398800Y-58440000D02*
X39398800Y-64948000D01*
X39438800Y-49074000D02*
X39438800Y-55560000D01*
X39438800Y-58440000D02*
X39438800Y-64926000D01*
X39478800Y-49096000D02*
X39478800Y-55560000D01*
X39478800Y-58440000D02*
X39478800Y-64904000D01*
X39518800Y-49119000D02*
X39518800Y-55560000D01*
X39518800Y-58440000D02*
X39518800Y-64881000D01*
X39558800Y-49142000D02*
X39558800Y-55560000D01*
X39558800Y-58440000D02*
X39558800Y-64858000D01*
X39598800Y-49165000D02*
X39598800Y-55560000D01*
X39598800Y-58440000D02*
X39598800Y-64835000D01*
X39638800Y-49189000D02*
X39638800Y-55560000D01*
X39638800Y-58440000D02*
X39638800Y-64811000D01*
X39678800Y-49212000D02*
X39678800Y-55560000D01*
X39678800Y-58440000D02*
X39678800Y-64788000D01*
X39718800Y-49236000D02*
X39718800Y-55560000D01*
X39718800Y-58440000D02*
X39718800Y-64764000D01*
X39758800Y-49261000D02*
X39758800Y-55560000D01*
X39758800Y-58440000D02*
X39758800Y-64739000D01*
X39798800Y-49285000D02*
X39798800Y-55560000D01*
X39798800Y-58440000D02*
X39798800Y-64715000D01*
X39838800Y-49310000D02*
X39838800Y-55560000D01*
X39838800Y-58440000D02*
X39838800Y-64690000D01*
X39878800Y-49335000D02*
X39878800Y-55560000D01*
X39878800Y-58440000D02*
X39878800Y-64665000D01*
X39918800Y-49361000D02*
X39918800Y-55560000D01*
X39918800Y-58440000D02*
X39918800Y-64639000D01*
X39958800Y-49387000D02*
X39958800Y-55560000D01*
X39958800Y-58440000D02*
X39958800Y-64613000D01*
X39998800Y-49413000D02*
X39998800Y-55560000D01*
X39998800Y-58440000D02*
X39998800Y-64587000D01*
X40038800Y-49439000D02*
X40038800Y-55560000D01*
X40038800Y-58440000D02*
X40038800Y-64561000D01*
X40078800Y-49466000D02*
X40078800Y-55560000D01*
X40078800Y-58440000D02*
X40078800Y-64534000D01*
X40118800Y-49493000D02*
X40118800Y-55560000D01*
X40118800Y-58440000D02*
X40118800Y-64507000D01*
X40158800Y-49520000D02*
X40158800Y-55560000D01*
X40158800Y-58440000D02*
X40158800Y-64480000D01*
X40198800Y-49548000D02*
X40198800Y-64452000D01*
X40238800Y-49576000D02*
X40238800Y-64424000D01*
X40278800Y-49604000D02*
X40278800Y-64396000D01*
X40318800Y-49632000D02*
X40318800Y-64368000D01*
X40358800Y-49661000D02*
X40358800Y-64339000D01*
X40398800Y-49691000D02*
X40398800Y-64309000D01*
X40438800Y-49720000D02*
X40438800Y-64280000D01*
X40478800Y-49750000D02*
X40478800Y-64250000D01*
X40518800Y-49780000D02*
X40518800Y-64220000D01*
X40558800Y-49811000D02*
X40558800Y-64189000D01*
X40598800Y-49842000D02*
X40598800Y-64158000D01*
X40638800Y-49873000D02*
X40638800Y-64127000D01*
X40678800Y-49905000D02*
X40678800Y-64095000D01*
X40718800Y-49937000D02*
X40718800Y-64063000D01*
X40758800Y-49969000D02*
X40758800Y-64031000D01*
X40798800Y-50002000D02*
X40798800Y-63998000D01*
X40838800Y-50035000D02*
X40838800Y-63965000D01*
X40878800Y-50069000D02*
X40878800Y-63931000D01*
X40918800Y-50103000D02*
X40918800Y-63897000D01*
X40958800Y-50137000D02*
X40958800Y-63863000D01*
X40998800Y-50172000D02*
X40998800Y-63828000D01*
X41038800Y-50207000D02*
X41038800Y-63793000D01*
X41078800Y-50242000D02*
X41078800Y-63758000D01*
X41118800Y-50278000D02*
X41118800Y-63722000D01*
X41158800Y-50315000D02*
X41158800Y-63685000D01*
X41198800Y-50352000D02*
X41198800Y-63648000D01*
X41238800Y-50389000D02*
X41238800Y-63611000D01*
X41278800Y-50427000D02*
X41278800Y-63573000D01*
X41318800Y-50465000D02*
X41318800Y-63535000D01*
X41358800Y-50504000D02*
X41358800Y-63496000D01*
X41398800Y-50543000D02*
X41398800Y-63457000D01*
X41438800Y-50582000D02*
X41438800Y-63418000D01*
X41478800Y-50623000D02*
X41478800Y-63377000D01*
X41518800Y-50663000D02*
X41518800Y-63337000D01*
X41558800Y-50704000D02*
X41558800Y-63296000D01*
X41598800Y-50746000D02*
X41598800Y-63254000D01*
X41638800Y-50788000D02*
X41638800Y-63212000D01*
X41678800Y-50831000D02*
X41678800Y-63169000D01*
X41718800Y-50874000D02*
X41718800Y-63126000D01*
X41758800Y-50918000D02*
X41758800Y-63082000D01*
X41798800Y-50963000D02*
X41798800Y-63037000D01*
X41838800Y-51008000D02*
X41838800Y-62992000D01*
X41878800Y-51053000D02*
X41878800Y-62947000D01*
X41918800Y-51100000D02*
X41918800Y-62900000D01*
X41958800Y-51147000D02*
X41958800Y-62853000D01*
X41998800Y-51194000D02*
X41998800Y-62806000D01*
X42038800Y-51242000D02*
X42038800Y-62758000D01*
X42078800Y-51291000D02*
X42078800Y-62709000D01*
X42118800Y-51341000D02*
X42118800Y-62659000D01*
X42158800Y-51391000D02*
X42158800Y-62609000D01*
X42198800Y-51442000D02*
X42198800Y-62558000D01*
X42238800Y-51494000D02*
X42238800Y-62506000D01*
X42278800Y-51547000D02*
X42278800Y-62453000D01*
X42318800Y-51600000D02*
X42318800Y-62400000D01*
X42358800Y-51654000D02*
X42358800Y-62346000D01*
X42398800Y-51709000D02*
X42398800Y-62291000D01*
X42438800Y-51765000D02*
X42438800Y-62235000D01*
X42478800Y-51822000D02*
X42478800Y-62178000D01*
X42518800Y-51880000D02*
X42518800Y-62120000D01*
X42558800Y-51939000D02*
X42558800Y-62061000D01*
X42598800Y-51999000D02*
X42598800Y-62001000D01*
X42638800Y-52060000D02*
X42638800Y-61940000D01*
X42678800Y-52121000D02*
X42678800Y-61879000D01*
X42718800Y-52184000D02*
X42718800Y-61816000D01*
X42758800Y-52249000D02*
X42758800Y-61751000D01*
X42798800Y-52314000D02*
X42798800Y-61686000D01*
X42838800Y-52381000D02*
X42838800Y-61619000D01*
X42878800Y-52449000D02*
X42878800Y-61551000D01*
X42918800Y-52518000D02*
X42918800Y-61482000D01*
X42958800Y-52589000D02*
X42958800Y-61411000D01*
X42998800Y-52661000D02*
X42998800Y-61339000D01*
X43038800Y-52735000D02*
X43038800Y-61265000D01*
X43078800Y-52811000D02*
X43078800Y-61189000D01*
X43118800Y-52888000D02*
X43118800Y-61112000D01*
X43158800Y-52967000D02*
X43158800Y-61033000D01*
X43198800Y-53048000D02*
X43198800Y-60952000D01*
X43238800Y-53131000D02*
X43238800Y-60869000D01*
X43278800Y-53217000D02*
X43278800Y-60783000D01*
X43318800Y-53305000D02*
X43318800Y-60695000D01*
X43358800Y-53395000D02*
X43358800Y-60605000D01*
X43398800Y-53488000D02*
X43398800Y-60512000D01*
X43438800Y-53584000D02*
X43438800Y-60416000D01*
X43478800Y-53684000D02*
X43478800Y-60316000D01*
X43518800Y-53787000D02*
X43518800Y-60213000D01*
X43558800Y-53893000D02*
X43558800Y-60107000D01*
X43598800Y-54004000D02*
X43598800Y-59996000D01*
X43638800Y-54120000D02*
X43638800Y-59880000D01*
X43678800Y-54241000D02*
X43678800Y-59759000D01*
X43718800Y-54369000D02*
X43718800Y-59631000D01*
X43758800Y-54503000D02*
X43758800Y-59497000D01*
X43798800Y-54645000D02*
X43798800Y-59355000D01*
X43838800Y-54798000D02*
X43838800Y-59202000D01*
X43878800Y-54962000D02*
X43878800Y-59038000D01*
X43918800Y-55141000D02*
X43918800Y-58859000D01*
X43958800Y-55339000D02*
X43958800Y-58661000D01*
X43998800Y-55565000D02*
X43998800Y-58435000D01*
X44038800Y-55835000D02*
X44038800Y-58165000D01*
X44078800Y-56187000D02*
X44078800Y-57813000D01*
X44118800Y-57040000D02*
X44118800Y-56960000D01*
X44118800Y-57000000D02*
G75*
G02*
X25878800Y-57000000I-9120000J0D01*
G01*
X25878800Y-57000000D02*
G75*
G02*
X44118800Y-57000000I9120000J0D01*
G01*
%TO.C,R3*%
X48960000Y-54000000D02*
X49730000Y-54000000D01*
X57040000Y-54000000D02*
X56270000Y-54000000D01*
X49730000Y-52630000D02*
X56270000Y-52630000D01*
X56270000Y-55370000D01*
X49730000Y-55370000D01*
X49730000Y-52630000D01*
%TO.C,D2*%
X39090000Y-24750000D02*
X47600000Y-24750000D01*
X39090000Y-31250000D02*
X39090000Y-24750000D01*
X39090000Y-31250000D02*
X47600000Y-31250000D01*
%TO.C,R13*%
X45465000Y-77972936D02*
X45465000Y-78427064D01*
X46935000Y-77972936D02*
X46935000Y-78427064D01*
%TO.C,R5*%
X48960000Y-58000000D02*
X49730000Y-58000000D01*
X57040000Y-58000000D02*
X56270000Y-58000000D01*
X49730000Y-56630000D02*
X56270000Y-56630000D01*
X56270000Y-59370000D01*
X49730000Y-59370000D01*
X49730000Y-56630000D01*
%TO.C,U2*%
X51050000Y-64800000D02*
X51050000Y-65490000D01*
X51050000Y-75200000D02*
X51050000Y-74510000D01*
X52415000Y-64800000D02*
X51050000Y-64800000D01*
X52415000Y-75200000D02*
X51050000Y-75200000D01*
X48225000Y-65530000D02*
X47885000Y-65060000D01*
X48565000Y-65060000D01*
X48225000Y-65530000D01*
G36*
X48225000Y-65530000D02*
G01*
X47885000Y-65060000D01*
X48565000Y-65060000D01*
X48225000Y-65530000D01*
G37*
%TO.C,J7*%
X103725000Y-104600000D02*
X103725000Y-105850000D01*
X103725000Y-105850000D02*
X104975000Y-105850000D01*
X106275000Y-95450000D02*
X106275000Y-96200000D01*
X106275000Y-96200000D02*
X109225000Y-96200000D01*
X106275000Y-104800000D02*
X109225000Y-104800000D01*
X106275000Y-105550000D02*
X106275000Y-104800000D01*
X109225000Y-96200000D02*
X109225000Y-100500000D01*
X109225000Y-104800000D02*
X109225000Y-100500000D01*
X104015000Y-95440000D02*
X109985000Y-95440000D01*
X109985000Y-105560000D01*
X104015000Y-105560000D01*
X104015000Y-95440000D01*
X104025000Y-95450000D02*
X104775000Y-95450000D01*
X104775000Y-97250000D01*
X104025000Y-97250000D01*
X104025000Y-95450000D01*
X104025000Y-98750000D02*
X104775000Y-98750000D01*
X104775000Y-102250000D01*
X104025000Y-102250000D01*
X104025000Y-98750000D01*
X104025000Y-103750000D02*
X104775000Y-103750000D01*
X104775000Y-105550000D01*
X104025000Y-105550000D01*
X104025000Y-103750000D01*
%TO.C,R12*%
X42065000Y-74772936D02*
X42065000Y-75227064D01*
X43535000Y-74772936D02*
X43535000Y-75227064D01*
%TO.C,U4*%
X71050000Y-64800000D02*
X71050000Y-65490000D01*
X71050000Y-75200000D02*
X71050000Y-74510000D01*
X72415000Y-64800000D02*
X71050000Y-64800000D01*
X72415000Y-75200000D02*
X71050000Y-75200000D01*
X68225000Y-65530000D02*
X67885000Y-65060000D01*
X68565000Y-65060000D01*
X68225000Y-65530000D01*
G36*
X68225000Y-65530000D02*
G01*
X67885000Y-65060000D01*
X68565000Y-65060000D01*
X68225000Y-65530000D01*
G37*
%TO.C,R8*%
X70960000Y-62000000D02*
X71730000Y-62000000D01*
X79040000Y-62000000D02*
X78270000Y-62000000D01*
X71730000Y-60630000D02*
X78270000Y-60630000D01*
X78270000Y-63370000D01*
X71730000Y-63370000D01*
X71730000Y-60630000D01*
%TO.C,D1*%
X38935000Y-82055000D02*
X38935000Y-85145000D01*
X38935000Y-82055170D02*
G75*
G02*
X44485000Y-83600000I2560000J-1544830D01*
G01*
X44485000Y-83600000D02*
G75*
G02*
X38935000Y-85144830I-2990000J0D01*
G01*
X43995000Y-83600000D02*
G75*
G02*
X38995000Y-83600000I-2500000J0D01*
G01*
X38995000Y-83600000D02*
G75*
G02*
X43995000Y-83600000I2500000J0D01*
G01*
%TO.C,U5*%
X33465000Y-96890000D02*
X34285000Y-96890000D01*
X33465000Y-105110000D02*
X33465000Y-96890000D01*
X33465000Y-105110000D02*
X34285000Y-105110000D01*
X34285000Y-96890000D02*
X34285000Y-97100000D01*
X34285000Y-97100000D02*
X35681000Y-97100000D01*
X34285000Y-104900000D02*
X35681000Y-104900000D01*
X34285000Y-105110000D02*
X34285000Y-104900000D01*
X34765000Y-91000000D02*
X34765000Y-93490000D01*
X34765000Y-93490000D02*
X35678520Y-93490000D01*
X34765000Y-94837939D02*
X34765000Y-93490000D01*
X34765000Y-96765000D02*
X34765000Y-95762061D01*
X34765000Y-105235000D02*
X34765000Y-96765000D01*
X34765000Y-106237939D02*
X34765000Y-105235000D01*
X34765000Y-108510000D02*
X34765000Y-107162060D01*
X34765000Y-108510000D02*
X35678520Y-108510000D01*
X34765000Y-111000000D02*
X34765000Y-108510000D01*
X34828000Y-111270000D02*
X85922000Y-111270000D01*
X35375000Y-90390000D02*
X85375000Y-90390000D01*
X35375000Y-111610000D02*
X85375000Y-111610000D01*
X37045000Y-111930000D02*
X35445000Y-111930000D01*
X38069000Y-97100000D02*
X39285000Y-97100000D01*
X38069000Y-104900000D02*
X39285000Y-104900000D01*
X38071480Y-93490000D02*
X82678520Y-93490000D01*
X38071480Y-108510000D02*
X82678520Y-108510000D01*
X39285000Y-97100000D02*
X39285000Y-104900000D01*
X85071480Y-93490000D02*
X85985000Y-93490000D01*
X85071480Y-108510000D02*
X85985000Y-108510000D01*
X85922000Y-90730000D02*
X34828000Y-90730000D01*
X85985000Y-94837939D02*
X85985000Y-91000000D01*
X85985000Y-95762061D02*
X85985000Y-97400000D01*
X85985000Y-97400000D02*
X85985000Y-104600000D01*
X85985000Y-104600000D02*
X85985000Y-106237939D01*
X85985000Y-111000000D02*
X85985000Y-107162061D01*
X34765000Y-91000000D02*
G75*
G02*
X35375000Y-90390000I610000J0D01*
G01*
X35375000Y-111610000D02*
G75*
G02*
X34765000Y-111000000I0J610000D01*
G01*
X85375000Y-90390000D02*
G75*
G02*
X85985000Y-91000000I0J-610000D01*
G01*
X85985000Y-111000000D02*
G75*
G02*
X85375000Y-111610000I-609901J-99D01*
G01*
%TO.C,R4*%
X48960000Y-62000000D02*
X49730000Y-62000000D01*
X57040000Y-62000000D02*
X56270000Y-62000000D01*
X49730000Y-60630000D02*
X56270000Y-60630000D01*
X56270000Y-63370000D01*
X49730000Y-63370000D01*
X49730000Y-60630000D01*
%TO.C,R7*%
X70960000Y-54000000D02*
X71730000Y-54000000D01*
X79040000Y-54000000D02*
X78270000Y-54000000D01*
X71730000Y-52630000D02*
X78270000Y-52630000D01*
X78270000Y-55370000D01*
X71730000Y-55370000D01*
X71730000Y-52630000D01*
%TO.C,J1*%
X22120000Y-46730000D02*
X23500000Y-46730000D01*
X22120000Y-48110000D02*
X22120000Y-46730000D01*
X22120000Y-49380000D02*
X22120000Y-67270000D01*
X22120000Y-49380000D02*
X24880000Y-49380000D01*
X22120000Y-67270000D02*
X24880000Y-67270000D01*
X24880000Y-49380000D02*
X24880000Y-67270000D01*
%TD*%
M02*
