%TF.GenerationSoftware,KiCad,Pcbnew,10.0.3*%
%TF.CreationDate,2026-07-02T17:11:59+02:00*%
%TF.ProjectId,vanchor-thrust,76616e63-686f-4722-9d74-68727573742e,rev?*%
%TF.SameCoordinates,Original*%
%TF.FileFunction,Copper,L2,Bot*%
%TF.FilePolarity,Positive*%
%FSLAX46Y46*%
G04 Gerber Fmt 4.6, Leading zero omitted, Abs format (unit mm)*
G04 Created by KiCad (PCBNEW 10.0.3) date 2026-07-02 17:11:59*
%MOMM*%
%LPD*%
G01*
G04 APERTURE LIST*
G04 Aperture macros list*
%AMRoundRect*
0 Rectangle with rounded corners*
0 $1 Rounding radius*
0 $2 $3 $4 $5 $6 $7 $8 $9 X,Y pos of 4 corners*
0 Add a 4 corners polygon primitive as box body*
4,1,4,$2,$3,$4,$5,$6,$7,$8,$9,$2,$3,0*
0 Add four circle primitives for the rounded corners*
1,1,$1+$1,$2,$3*
1,1,$1+$1,$4,$5*
1,1,$1+$1,$6,$7*
1,1,$1+$1,$8,$9*
0 Add four rect primitives between the rounded corners*
20,1,$1+$1,$2,$3,$4,$5,0*
20,1,$1+$1,$4,$5,$6,$7,0*
20,1,$1+$1,$6,$7,$8,$9,0*
20,1,$1+$1,$8,$9,$2,$3,0*%
G04 Aperture macros list end*
%TA.AperFunction,ComponentPad*%
%ADD10C,1.600000*%
%TD*%
%TA.AperFunction,ComponentPad*%
%ADD11C,14.000000*%
%TD*%
%TA.AperFunction,ComponentPad*%
%ADD12C,2.000000*%
%TD*%
%TA.AperFunction,ComponentPad*%
%ADD13RoundRect,0.250001X-0.949999X-0.949999X0.949999X-0.949999X0.949999X0.949999X-0.949999X0.949999X0*%
%TD*%
%TA.AperFunction,ComponentPad*%
%ADD14C,2.400000*%
%TD*%
%TA.AperFunction,ComponentPad*%
%ADD15R,1.800000X1.800000*%
%TD*%
%TA.AperFunction,ComponentPad*%
%ADD16C,1.800000*%
%TD*%
%TA.AperFunction,ComponentPad*%
%ADD17R,1.700000X1.700000*%
%TD*%
%TA.AperFunction,ComponentPad*%
%ADD18C,1.700000*%
%TD*%
%TA.AperFunction,ViaPad*%
%ADD19C,0.800000*%
%TD*%
%TA.AperFunction,ViaPad*%
%ADD20C,1.200000*%
%TD*%
%TA.AperFunction,ViaPad*%
%ADD21C,1.000000*%
%TD*%
%TA.AperFunction,ViaPad*%
%ADD22C,1.400000*%
%TD*%
%TA.AperFunction,ViaPad*%
%ADD23C,1.600000*%
%TD*%
%TA.AperFunction,ViaPad*%
%ADD24C,1.100000*%
%TD*%
%TA.AperFunction,Conductor*%
%ADD25C,0.300000*%
%TD*%
%TA.AperFunction,Conductor*%
%ADD26C,0.600000*%
%TD*%
%TA.AperFunction,Conductor*%
%ADD27C,0.400000*%
%TD*%
%TA.AperFunction,Conductor*%
%ADD28C,1.500000*%
%TD*%
%TA.AperFunction,Conductor*%
%ADD29C,3.000000*%
%TD*%
%TA.AperFunction,Conductor*%
%ADD30C,1.000000*%
%TD*%
%TA.AperFunction,Conductor*%
%ADD31C,0.250000*%
%TD*%
G04 APERTURE END LIST*
D10*
%TO.P,R2,1*%
%TO.N,L_EN*%
X29920000Y-70000000D03*
%TO.P,R2,2*%
%TO.N,GND*%
X40080000Y-70000000D03*
%TD*%
D11*
%TO.P,J5,1*%
%TO.N,MOT_B*%
X105001200Y-83000000D03*
%TD*%
D10*
%TO.P,R1,1*%
%TO.N,R_EN*%
X29920000Y-44000000D03*
%TO.P,R1,2*%
%TO.N,GND*%
X40080000Y-44000000D03*
%TD*%
%TO.P,R6,1*%
%TO.N,L_IS*%
X69920000Y-58000000D03*
%TO.P,R6,2*%
%TO.N,GND*%
X80080000Y-58000000D03*
%TD*%
D11*
%TO.P,J2,1*%
%TO.N,VBAT*%
X30001200Y-32000000D03*
%TD*%
D12*
%TO.P,C5,1*%
%TO.N,VBAT*%
X61000000Y-28000000D03*
%TO.P,C5,2*%
%TO.N,GND*%
X71000000Y-28000000D03*
%TD*%
D10*
%TO.P,C3,1*%
%TO.N,VBAT*%
X51500000Y-28000000D03*
%TO.P,C3,2*%
%TO.N,GND*%
X56500000Y-28000000D03*
%TD*%
D13*
%TO.P,C1,1*%
%TO.N,VBAT*%
X88748800Y-57000000D03*
D14*
%TO.P,C1,2*%
%TO.N,GND*%
X96248800Y-57000000D03*
%TD*%
D10*
%TO.P,R9,1*%
%TO.N,+5V*%
X48920000Y-88000000D03*
%TO.P,R9,2*%
%TO.N,/driver/LED_A*%
X59080000Y-88000000D03*
%TD*%
%TO.P,C4,1*%
%TO.N,VBAT*%
X75500000Y-28000000D03*
%TO.P,C4,2*%
%TO.N,GND*%
X80500000Y-28000000D03*
%TD*%
D13*
%TO.P,C2,1*%
%TO.N,VBAT*%
X31248800Y-57000000D03*
D14*
%TO.P,C2,2*%
%TO.N,GND*%
X38748800Y-57000000D03*
%TD*%
D10*
%TO.P,R3,1*%
%TO.N,/driver/SR1*%
X47920000Y-54000000D03*
%TO.P,R3,2*%
%TO.N,GND*%
X58080000Y-54000000D03*
%TD*%
D11*
%TO.P,J4,1*%
%TO.N,MOT_A*%
X105001200Y-32000000D03*
%TD*%
D10*
%TO.P,R5,1*%
%TO.N,R_IS*%
X47920000Y-58000000D03*
%TO.P,R5,2*%
%TO.N,GND*%
X58080000Y-58000000D03*
%TD*%
D11*
%TO.P,J3,1*%
%TO.N,GND*%
X30001200Y-83000000D03*
%TD*%
D10*
%TO.P,R8,1*%
%TO.N,/driver/SR4*%
X69920000Y-62000000D03*
%TO.P,R8,2*%
%TO.N,GND*%
X80080000Y-62000000D03*
%TD*%
D15*
%TO.P,D1,1*%
%TO.N,GND*%
X42725000Y-88000000D03*
D16*
%TO.P,D1,2*%
%TO.N,/driver/LED_A*%
X45265000Y-88000000D03*
%TD*%
D10*
%TO.P,R4,1*%
%TO.N,/driver/SR2*%
X47920000Y-62000000D03*
%TO.P,R4,2*%
%TO.N,GND*%
X58080000Y-62000000D03*
%TD*%
%TO.P,R7,1*%
%TO.N,/driver/SR3*%
X69920000Y-54000000D03*
%TO.P,R7,2*%
%TO.N,GND*%
X80080000Y-54000000D03*
%TD*%
D17*
%TO.P,J1,1*%
%TO.N,RPWM*%
X23500000Y-48110000D03*
D18*
%TO.P,J1,2*%
%TO.N,LPWM*%
X23500000Y-50650000D03*
%TO.P,J1,3*%
%TO.N,R_EN*%
X23500000Y-53190000D03*
%TO.P,J1,4*%
%TO.N,L_EN*%
X23500000Y-55730000D03*
%TO.P,J1,5*%
%TO.N,R_IS*%
X23500000Y-58270000D03*
%TO.P,J1,6*%
%TO.N,L_IS*%
X23500000Y-60810000D03*
%TO.P,J1,7*%
%TO.N,+5V*%
X23500000Y-63350000D03*
%TO.P,J1,8*%
%TO.N,GND*%
X23500000Y-65890000D03*
%TD*%
D19*
%TO.N,GND*%
X52000000Y-87000000D03*
X38000000Y-87000000D03*
X94000000Y-59000000D03*
X38000000Y-38000000D03*
D20*
X42517600Y-38511200D03*
X68854400Y-38339800D03*
D19*
X87000000Y-80000000D03*
X108000000Y-52000000D03*
D21*
X68220000Y-66190000D03*
D19*
X94000000Y-80000000D03*
X24000000Y-73000000D03*
X31000000Y-73000000D03*
X45000000Y-38000000D03*
X24000000Y-45000000D03*
X52000000Y-80000000D03*
X80000000Y-52000000D03*
X94000000Y-52000000D03*
X108000000Y-59000000D03*
X73000000Y-87000000D03*
X101000000Y-59000000D03*
X80000000Y-80000000D03*
D20*
X32611000Y-66583800D03*
D19*
X38000000Y-73000000D03*
X59000000Y-80000000D03*
X101000000Y-52000000D03*
X38000000Y-45000000D03*
X31000000Y-66000000D03*
D20*
X41716900Y-65415700D03*
D19*
X73000000Y-80000000D03*
D22*
X71610000Y-40190000D03*
D19*
X66000000Y-80000000D03*
X94000000Y-87000000D03*
X38000000Y-66000000D03*
X45000000Y-80000000D03*
X87000000Y-87000000D03*
%TO.N,R_IS*%
X50631400Y-48940900D03*
D22*
X64599999Y-53900000D03*
X53300000Y-55290000D03*
X64599999Y-46540000D03*
D20*
%TO.N,VBAT*%
X62900000Y-34200000D03*
X62900000Y-51410000D03*
D23*
X73400000Y-77410000D03*
X73400000Y-34000000D03*
D21*
%TO.N,MOT_B*%
X68220000Y-70000000D03*
D23*
X57400000Y-70000000D03*
D24*
%TO.N,L_IS*%
X71550000Y-72400000D03*
D22*
X44600000Y-72539999D03*
D19*
%TO.N,/driver/SR2*%
X45362600Y-71270000D03*
D22*
%TO.N,/driver/SR4*%
X64400000Y-71270000D03*
%TD*%
%TO.N,L_EN*%
D25*
X25769200Y-70000000D02*
X29920000Y-70000000D01*
X22151700Y-66382500D02*
X25769200Y-70000000D01*
X23500000Y-55730000D02*
X22151700Y-57078300D01*
X22151700Y-57078300D02*
X22151700Y-66382500D01*
%TO.N,GND*%
D26*
X56500000Y-25000000D02*
X80500000Y-25000000D01*
X80500000Y-25000000D02*
X80500000Y-28000000D01*
D27*
X68220000Y-62720000D02*
X68220000Y-66190000D01*
D26*
X78000000Y-25000000D02*
X78000000Y-37000000D01*
X71000000Y-25000000D02*
X71000000Y-28000000D01*
D27*
X67500000Y-62000000D02*
X68220000Y-62720000D01*
X58080000Y-62000000D02*
X67500000Y-62000000D01*
D26*
X56500000Y-28000000D02*
X56500000Y-25000000D01*
%TO.N,R_EN*%
D25*
X29920000Y-44000000D02*
X29920000Y-46770000D01*
X29920000Y-46770000D02*
X23500000Y-53190000D01*
%TO.N,R_IS*%
X47920000Y-58000000D02*
X50631400Y-55288600D01*
X64599999Y-46540000D02*
X64599999Y-53900000D01*
X50631400Y-55288600D02*
X50631400Y-48940900D01*
X53300000Y-55290000D02*
X50629999Y-55290000D01*
%TO.N,VBAT*%
D28*
X73400000Y-34000000D02*
X73400000Y-77410000D01*
D29*
X34233500Y-54015300D02*
X31248800Y-57000000D01*
X34233500Y-32933300D02*
X34233500Y-54015300D01*
X88748800Y-32961200D02*
X88748800Y-57000000D01*
D30*
X62900000Y-34200000D02*
X62900000Y-51410000D01*
%TO.N,L_IS*%
D25*
X44600000Y-60810000D02*
X23500000Y-60810000D01*
X44600000Y-75600000D02*
X71550000Y-75600000D01*
X44600000Y-72539999D02*
X44600000Y-60810000D01*
D31*
X71200000Y-71850000D02*
X71550000Y-72400000D01*
X71200000Y-59260000D02*
X71200000Y-71850000D01*
D25*
X71550000Y-75600000D02*
X71550000Y-72400000D01*
X44600000Y-72539999D02*
X44600000Y-75600000D01*
D31*
X69920000Y-58000000D02*
X71200000Y-59260000D01*
%TO.N,+5V*%
D25*
X32137400Y-63350000D02*
X23500000Y-63350000D01*
X48920000Y-88000000D02*
X34562700Y-73642700D01*
X34562700Y-65775300D02*
X32137400Y-63350000D01*
X34562700Y-73642700D02*
X34562700Y-65775300D01*
%TO.N,/driver/SR2*%
X45362600Y-64557400D02*
X45362600Y-71270000D01*
X47920000Y-62000000D02*
X45362600Y-64557400D01*
%TO.N,/driver/SR4*%
D31*
X69920000Y-68800000D02*
X64400000Y-68800000D01*
X69920000Y-62000000D02*
X69920000Y-68800000D01*
X64400000Y-68800000D02*
X64400000Y-71270000D01*
%TD*%
%TA.AperFunction,Conductor*%
%TO.N,GND*%
G36*
X43842606Y-61465523D02*
G01*
X43857604Y-61469927D01*
X43872594Y-61479557D01*
X43889675Y-61484567D01*
X43916355Y-61507672D01*
X43917542Y-61509041D01*
X43945018Y-61563902D01*
X43946663Y-61571460D01*
X43949500Y-61597831D01*
X43949500Y-71447703D01*
X43944476Y-71482642D01*
X43938200Y-71504013D01*
X43931541Y-71515609D01*
X43929708Y-71525370D01*
X43909372Y-71554217D01*
X43906310Y-71557459D01*
X43889049Y-71572633D01*
X43817927Y-71624307D01*
X43679816Y-71762418D01*
X43675686Y-71769793D01*
X43636610Y-71823577D01*
X43636610Y-71823578D01*
X43573240Y-71910798D01*
X43548715Y-71958932D01*
X43487454Y-72079162D01*
X43429059Y-72258880D01*
X43429059Y-72258881D01*
X43429059Y-72258882D01*
X43399500Y-72445506D01*
X43399500Y-72634490D01*
X43410893Y-72706420D01*
X43429059Y-72821117D01*
X43487454Y-73000835D01*
X43487455Y-73000836D01*
X43522519Y-73069655D01*
X43522520Y-73069655D01*
X43573240Y-73169198D01*
X43684310Y-73322072D01*
X43684312Y-73322074D01*
X43817930Y-73455692D01*
X43883966Y-73503669D01*
X43909272Y-73528263D01*
X43922874Y-73545903D01*
X43946544Y-73598723D01*
X43947367Y-73603103D01*
X43948066Y-73610613D01*
X43948222Y-73611013D01*
X43948141Y-73611412D01*
X43949500Y-73626002D01*
X43949500Y-75619702D01*
X43944237Y-75637622D01*
X43974494Y-75789726D01*
X43974495Y-75789732D01*
X43974502Y-75789753D01*
X44023529Y-75908118D01*
X44023534Y-75908128D01*
X44094723Y-76014668D01*
X44094725Y-76014671D01*
X44094730Y-76014677D01*
X44185321Y-76105268D01*
X44185327Y-76105273D01*
X44185331Y-76105276D01*
X44291866Y-76176461D01*
X44291872Y-76176464D01*
X44291873Y-76176465D01*
X44405362Y-76223473D01*
X44405947Y-76223724D01*
X44406141Y-76223884D01*
X44409053Y-76225261D01*
X44410252Y-76225499D01*
X44410256Y-76225501D01*
X44410259Y-76225501D01*
X44410260Y-76225501D01*
X44410261Y-76225502D01*
X44507899Y-76244924D01*
X44535927Y-76250500D01*
X71614071Y-76250500D01*
X71614073Y-76250500D01*
X71698615Y-76233682D01*
X71739744Y-76225501D01*
X71858127Y-76176465D01*
X71941795Y-76120559D01*
X71973626Y-76105332D01*
X71973812Y-76105274D01*
X71986622Y-76101263D01*
X72056480Y-76100017D01*
X72115922Y-76136737D01*
X72144597Y-76192155D01*
X72146425Y-76200210D01*
X72149500Y-76227653D01*
X72149500Y-77020741D01*
X72147973Y-77040141D01*
X72144958Y-77059175D01*
X72140417Y-77078091D01*
X72131522Y-77105468D01*
X72099500Y-77307648D01*
X72099500Y-77512356D01*
X72131521Y-77714530D01*
X72194780Y-77909221D01*
X72194786Y-77909234D01*
X72241034Y-78000000D01*
X39839946Y-78000000D01*
X35262126Y-73422180D01*
X35262121Y-73422175D01*
X35240974Y-73393924D01*
X35228367Y-73370835D01*
X35213200Y-73311410D01*
X35213200Y-71205092D01*
X39582010Y-71205092D01*
X39582011Y-71205093D01*
X39775588Y-71267990D01*
X39977683Y-71300000D01*
X40182316Y-71300000D01*
X40182317Y-71300000D01*
X40384411Y-71267990D01*
X40577986Y-71205093D01*
X40577986Y-71205092D01*
X40080002Y-70707106D01*
X40080001Y-70707106D01*
X40080000Y-70707106D01*
X40079999Y-70707106D01*
X39582010Y-71205092D01*
X35213200Y-71205092D01*
X35213200Y-69897682D01*
X38780000Y-69897682D01*
X38780000Y-70102317D01*
X38802694Y-70245602D01*
X38810483Y-70294776D01*
X38810484Y-70294784D01*
X38812010Y-70304424D01*
X38874903Y-70497987D01*
X38874904Y-70497987D01*
X38874905Y-70497987D01*
X39372893Y-70000000D01*
X39320232Y-69947339D01*
X39680000Y-69947339D01*
X39680000Y-70052661D01*
X39693315Y-70102351D01*
X39707259Y-70154393D01*
X39707260Y-70154396D01*
X39759917Y-70245602D01*
X39759919Y-70245605D01*
X39759920Y-70245606D01*
X39834394Y-70320080D01*
X39925606Y-70372741D01*
X40027339Y-70400000D01*
X40132659Y-70400000D01*
X40132661Y-70400000D01*
X40234394Y-70372741D01*
X40325606Y-70320080D01*
X40400080Y-70245606D01*
X40452741Y-70154394D01*
X40480000Y-70052661D01*
X40480000Y-69999998D01*
X40787106Y-69999998D01*
X40787106Y-69999999D01*
X40787106Y-70000000D01*
X41285093Y-70497986D01*
X41347990Y-70304411D01*
X41380000Y-70102317D01*
X41380000Y-69897682D01*
X41347990Y-69695588D01*
X41285093Y-69502011D01*
X41285093Y-69502010D01*
X40787106Y-69999998D01*
X40480000Y-69999998D01*
X40480000Y-69947339D01*
X40452741Y-69845606D01*
X40400080Y-69754394D01*
X40325606Y-69679920D01*
X40325605Y-69679919D01*
X40325602Y-69679917D01*
X40234396Y-69627260D01*
X40234395Y-69627259D01*
X40234394Y-69627259D01*
X40132661Y-69600000D01*
X40132660Y-69600000D01*
X40027339Y-69600000D01*
X39925606Y-69627259D01*
X39925603Y-69627260D01*
X39834397Y-69679917D01*
X39834392Y-69679921D01*
X39759921Y-69754392D01*
X39759917Y-69754397D01*
X39707260Y-69845603D01*
X39707260Y-69845604D01*
X39707259Y-69845606D01*
X39680000Y-69947339D01*
X39320232Y-69947339D01*
X38874904Y-69502011D01*
X38874903Y-69502010D01*
X38812010Y-69695574D01*
X38810540Y-69704859D01*
X38780000Y-69897682D01*
X35213200Y-69897682D01*
X35213200Y-68794903D01*
X39582010Y-68794903D01*
X39582011Y-68794904D01*
X40080000Y-69292893D01*
X40080001Y-69292893D01*
X40577987Y-68794905D01*
X40577987Y-68794904D01*
X40577987Y-68794903D01*
X40384423Y-68732010D01*
X40384420Y-68732010D01*
X40283368Y-68716005D01*
X40182317Y-68700000D01*
X40182316Y-68700000D01*
X39977684Y-68700000D01*
X39977683Y-68700000D01*
X39785222Y-68730483D01*
X39785214Y-68730483D01*
X39785215Y-68730484D01*
X39775574Y-68732010D01*
X39582010Y-68794903D01*
X35213200Y-68794903D01*
X35213200Y-65711225D01*
X35187995Y-65584518D01*
X35186424Y-65581245D01*
X35186147Y-65580597D01*
X35139165Y-65467173D01*
X35139164Y-65467172D01*
X35139161Y-65467166D01*
X35134941Y-65460850D01*
X35134940Y-65460848D01*
X35086204Y-65387910D01*
X35067977Y-65360632D01*
X35062053Y-65354708D01*
X34977369Y-65270024D01*
X34374591Y-64667246D01*
X32552074Y-62844727D01*
X32552073Y-62844726D01*
X32552069Y-62844723D01*
X32445527Y-62773535D01*
X32445525Y-62773534D01*
X32327153Y-62724502D01*
X32327133Y-62724495D01*
X32327125Y-62724493D01*
X32201474Y-62699500D01*
X32201471Y-62699500D01*
X32201469Y-62699500D01*
X24777448Y-62699500D01*
X24777445Y-62699499D01*
X24777444Y-62699500D01*
X24742509Y-62694476D01*
X24723620Y-62688929D01*
X24669947Y-62656694D01*
X24659416Y-62645935D01*
X24647715Y-62632085D01*
X24530112Y-62470216D01*
X24379782Y-62319886D01*
X24207824Y-62194953D01*
X24207258Y-62194606D01*
X24205627Y-62193357D01*
X24203901Y-62192103D01*
X24203932Y-62192059D01*
X24186960Y-62179062D01*
X24176683Y-62169357D01*
X24141457Y-62109017D01*
X24144445Y-62039212D01*
X24180612Y-61985495D01*
X24187783Y-61979281D01*
X24204194Y-61967269D01*
X24207795Y-61965061D01*
X24207816Y-61965051D01*
X24232194Y-61947340D01*
X24232197Y-61947338D01*
X24269796Y-61920019D01*
X24379786Y-61840109D01*
X24379788Y-61840106D01*
X24379792Y-61840104D01*
X24379795Y-61840100D01*
X24379847Y-61840063D01*
X24380592Y-61839303D01*
X24530104Y-61689792D01*
X24530106Y-61689788D01*
X24530109Y-61689786D01*
X24645697Y-61530691D01*
X24662819Y-61511629D01*
X24681713Y-61494537D01*
X24737249Y-61465617D01*
X24745976Y-61463620D01*
X24773621Y-61460500D01*
X43807670Y-61460500D01*
X43842606Y-61465523D01*
G37*
%TD.AperFunction*%
%TA.AperFunction,Conductor*%
G36*
X114392606Y-20505523D02*
G01*
X114407604Y-20509927D01*
X114466355Y-20547672D01*
X114467542Y-20549041D01*
X114495018Y-20603902D01*
X114496663Y-20611460D01*
X114499500Y-20637831D01*
X114499500Y-94357670D01*
X114499499Y-94357676D01*
X114499500Y-94357679D01*
X114494475Y-94392614D01*
X114490070Y-94407612D01*
X114452327Y-94466355D01*
X114452292Y-94466385D01*
X114452291Y-94466387D01*
X114452289Y-94466387D01*
X114450958Y-94467542D01*
X114396097Y-94495018D01*
X114388539Y-94496663D01*
X114362168Y-94499500D01*
X20642330Y-94499500D01*
X20642325Y-94499499D01*
X20642323Y-94499500D01*
X20607389Y-94494475D01*
X20592390Y-94490070D01*
X20533644Y-94452327D01*
X20533615Y-94452293D01*
X20533614Y-94452293D01*
X20533613Y-94452291D01*
X20532457Y-94450958D01*
X20504977Y-94396083D01*
X20503332Y-94388521D01*
X20500500Y-94362168D01*
X20500500Y-22124000D01*
X21494500Y-22124000D01*
X21494500Y-34876000D01*
X21494501Y-34876009D01*
X21506052Y-34983450D01*
X21506054Y-34983462D01*
X21517260Y-35034972D01*
X21551383Y-35137497D01*
X21551386Y-35137503D01*
X21629171Y-35258537D01*
X21629179Y-35258548D01*
X21674923Y-35311340D01*
X21674926Y-35311343D01*
X21674930Y-35311347D01*
X21783664Y-35405567D01*
X21783667Y-35405568D01*
X21783668Y-35405569D01*
X21877925Y-35448616D01*
X21914541Y-35465338D01*
X21981580Y-35485023D01*
X21981584Y-35485024D01*
X22124000Y-35505500D01*
X23295941Y-35505500D01*
X23362980Y-35525185D01*
X23404773Y-35570073D01*
X23546545Y-35829710D01*
X23835180Y-36278838D01*
X23835746Y-36279749D01*
X23836213Y-36280445D01*
X24157250Y-36709301D01*
X24157259Y-36709313D01*
X24157264Y-36709319D01*
X24157268Y-36709324D01*
X24401535Y-36991222D01*
X24508125Y-37114234D01*
X24508134Y-37114243D01*
X24508146Y-37114256D01*
X24508826Y-37114936D01*
X24886960Y-37493070D01*
X25045213Y-37630197D01*
X25291876Y-37843932D01*
X25720753Y-38164985D01*
X25721441Y-38165447D01*
X25722354Y-38166014D01*
X26171480Y-38454649D01*
X26455528Y-38609751D01*
X26640628Y-38710824D01*
X26641722Y-38711421D01*
X26645624Y-38713203D01*
X27129039Y-38933970D01*
X27129040Y-38933970D01*
X27129184Y-38934036D01*
X27130113Y-38934371D01*
X27631035Y-39121206D01*
X28145092Y-39272147D01*
X28145102Y-39272150D01*
X28668606Y-39386031D01*
X28668613Y-39386032D01*
X29198922Y-39462279D01*
X29733319Y-39500500D01*
X30269081Y-39500500D01*
X30803478Y-39462279D01*
X31333787Y-39386032D01*
X31333788Y-39386031D01*
X31333793Y-39386031D01*
X31333803Y-39386028D01*
X31338167Y-39385401D01*
X31338171Y-39385401D01*
X31338180Y-39385400D01*
X31343635Y-39384615D01*
X31349004Y-39382722D01*
X31857297Y-39272150D01*
X31857300Y-39272149D01*
X31857305Y-39272148D01*
X31857324Y-39272142D01*
X31857468Y-39272111D01*
X31858404Y-39271845D01*
X31859421Y-39271527D01*
X32056959Y-39213524D01*
X32091894Y-39208501D01*
X32105773Y-39208501D01*
X32172812Y-39228186D01*
X32218565Y-39280987D01*
X32221794Y-39288058D01*
X32233000Y-39339567D01*
X32233000Y-53117473D01*
X32227976Y-53152410D01*
X32220564Y-53177651D01*
X32189269Y-53230395D01*
X30122686Y-55296977D01*
X30100104Y-55314833D01*
X30076099Y-55329640D01*
X30050006Y-55341808D01*
X29979484Y-55365177D01*
X29979474Y-55365181D01*
X29979461Y-55365187D01*
X29979458Y-55365189D01*
X29830145Y-55457287D01*
X29830142Y-55457289D01*
X29706093Y-55581338D01*
X29706091Y-55581341D01*
X29706082Y-55581354D01*
X29613990Y-55730655D01*
X29613988Y-55730660D01*
X29613987Y-55730662D01*
X29613986Y-55730664D01*
X29591679Y-55797981D01*
X29558801Y-55897198D01*
X29558799Y-55897209D01*
X29558558Y-55898777D01*
X29558456Y-55898761D01*
X29553979Y-55918120D01*
X29545968Y-55942896D01*
X29535370Y-55966746D01*
X29450756Y-56113304D01*
X29450718Y-56113382D01*
X29450472Y-56113988D01*
X29350402Y-56355579D01*
X29282528Y-56608887D01*
X29282527Y-56608892D01*
X29248301Y-56868878D01*
X29248301Y-57131120D01*
X29282409Y-57390213D01*
X29282528Y-57391112D01*
X29345804Y-57627259D01*
X29350402Y-57644419D01*
X29450752Y-57886686D01*
X29450752Y-57886688D01*
X29450755Y-57886693D01*
X29450760Y-57886704D01*
X29489475Y-57953760D01*
X29535369Y-58033251D01*
X29545968Y-58057102D01*
X29545968Y-58057103D01*
X29553962Y-58081827D01*
X29558461Y-58100649D01*
X29558798Y-58102789D01*
X29558799Y-58102791D01*
X29558801Y-58102798D01*
X29613986Y-58269335D01*
X29613987Y-58269336D01*
X29613990Y-58269343D01*
X29677269Y-58371932D01*
X29706086Y-58418651D01*
X29706089Y-58418655D01*
X29706091Y-58418657D01*
X29706093Y-58418660D01*
X29830138Y-58542705D01*
X29830141Y-58542707D01*
X29830144Y-58542710D01*
X29830148Y-58542713D01*
X29830156Y-58542718D01*
X29830163Y-58542723D01*
X29977615Y-58633673D01*
X29979462Y-58634812D01*
X29979463Y-58634812D01*
X29979662Y-58634935D01*
X29981993Y-58635651D01*
X30146003Y-58689999D01*
X30146004Y-58689999D01*
X30152625Y-58691416D01*
X30152535Y-58691835D01*
X30167270Y-58694933D01*
X30191691Y-58702828D01*
X30215543Y-58713426D01*
X30362103Y-58798043D01*
X30604381Y-58898398D01*
X30857684Y-58966271D01*
X31047789Y-58991298D01*
X31052681Y-58991942D01*
X31117678Y-59000499D01*
X31379921Y-59000499D01*
X31379922Y-59000499D01*
X31392920Y-58998787D01*
X31431919Y-58993653D01*
X31639916Y-58966271D01*
X31893219Y-58898398D01*
X32135497Y-58798043D01*
X32135504Y-58798038D01*
X32135508Y-58798037D01*
X32138421Y-58796355D01*
X32139357Y-58795900D01*
X32139385Y-58795884D01*
X32140674Y-58795053D01*
X32196164Y-58763016D01*
X32282060Y-58713423D01*
X32305893Y-58702832D01*
X32330333Y-58694931D01*
X32345063Y-58691836D01*
X32344974Y-58691417D01*
X32351594Y-58690000D01*
X32376940Y-58681601D01*
X32518134Y-58634814D01*
X32667455Y-58542711D01*
X32791511Y-58418655D01*
X32883614Y-58269334D01*
X32906988Y-58198793D01*
X32919153Y-58172705D01*
X32933961Y-58148697D01*
X32951815Y-58126116D01*
X34189359Y-56888574D01*
X37048800Y-56888574D01*
X37048800Y-57111424D01*
X37077883Y-57332344D01*
X37077886Y-57332357D01*
X37077891Y-57332382D01*
X37135563Y-57547617D01*
X37135566Y-57547627D01*
X37220841Y-57753497D01*
X37220897Y-57753609D01*
X37221338Y-57754358D01*
X37245494Y-57796197D01*
X37245494Y-57796196D01*
X37245495Y-57796197D01*
X37957605Y-57084088D01*
X38018928Y-57050603D01*
X38088620Y-57055587D01*
X38144553Y-57097459D01*
X38165059Y-57139673D01*
X38168574Y-57152787D01*
X38189689Y-57231592D01*
X38194480Y-57239890D01*
X38268681Y-57368408D01*
X38380392Y-57480119D01*
X38517209Y-57559111D01*
X38609124Y-57583739D01*
X38668782Y-57620103D01*
X38699312Y-57682949D01*
X38691018Y-57752325D01*
X38664710Y-57791194D01*
X37952600Y-58503303D01*
X37952599Y-58503304D01*
X37952600Y-58503304D01*
X37952600Y-58503305D01*
X37991771Y-58525920D01*
X37994534Y-58527638D01*
X37995286Y-58527949D01*
X37995287Y-58527950D01*
X37995288Y-58527951D01*
X38201181Y-58613236D01*
X38284856Y-58635656D01*
X38416416Y-58670907D01*
X38416420Y-58670907D01*
X38416432Y-58670911D01*
X38416445Y-58670914D01*
X38637375Y-58700000D01*
X38860218Y-58700000D01*
X38860225Y-58700000D01*
X39081154Y-58670914D01*
X39081167Y-58670911D01*
X39296418Y-58613236D01*
X39502300Y-58527956D01*
X39502316Y-58527948D01*
X39544998Y-58503305D01*
X39544998Y-58503304D01*
X39190391Y-58148697D01*
X38939343Y-57897648D01*
X46619500Y-57897648D01*
X46619500Y-57900679D01*
X46619500Y-58102351D01*
X46619570Y-58102791D01*
X46619586Y-58102895D01*
X46651520Y-58304529D01*
X46651521Y-58304530D01*
X46651522Y-58304534D01*
X46656574Y-58320082D01*
X46714780Y-58499221D01*
X46714786Y-58499234D01*
X46807708Y-58681601D01*
X46807712Y-58681608D01*
X46807715Y-58681613D01*
X46928028Y-58847213D01*
X47072786Y-58991971D01*
X47190575Y-59077548D01*
X47238390Y-59112287D01*
X47311998Y-59149792D01*
X47414329Y-59201933D01*
X47415927Y-59202869D01*
X47419615Y-59204655D01*
X47421640Y-59205661D01*
X47425406Y-59206723D01*
X47467956Y-59220547D01*
X47525135Y-59239126D01*
X47525136Y-59239127D01*
X47568612Y-59253253D01*
X47615465Y-59268477D01*
X47716557Y-59284488D01*
X47817648Y-59300500D01*
X47817649Y-59300500D01*
X48022351Y-59300500D01*
X48022352Y-59300500D01*
X48224534Y-59268477D01*
X48419219Y-59205220D01*
X48419470Y-59205092D01*
X57582010Y-59205092D01*
X57582011Y-59205093D01*
X57775588Y-59267990D01*
X57977683Y-59300000D01*
X58182316Y-59300000D01*
X58182317Y-59300000D01*
X58384411Y-59267990D01*
X58577987Y-59205093D01*
X58080001Y-58707106D01*
X58079999Y-58707106D01*
X57582010Y-59205092D01*
X48419470Y-59205092D01*
X48601610Y-59112287D01*
X48653945Y-59074264D01*
X48660918Y-59069198D01*
X48665042Y-59066201D01*
X48665048Y-59066197D01*
X48665050Y-59066196D01*
X48761135Y-58996385D01*
X48762579Y-58995465D01*
X48766338Y-58992630D01*
X48768137Y-58991298D01*
X48806469Y-58963448D01*
X48820941Y-58938243D01*
X48911966Y-58847219D01*
X48911968Y-58847215D01*
X48911971Y-58847213D01*
X48934858Y-58815712D01*
X49013757Y-58707114D01*
X49013763Y-58707106D01*
X49032287Y-58681610D01*
X49125220Y-58499219D01*
X49188477Y-58304534D01*
X49220500Y-58102352D01*
X49220500Y-57897682D01*
X56780000Y-57897682D01*
X56780000Y-58102317D01*
X56806453Y-58269336D01*
X56810483Y-58294776D01*
X56810484Y-58294784D01*
X56812010Y-58304424D01*
X56874903Y-58497987D01*
X56874904Y-58497987D01*
X56874905Y-58497987D01*
X57372893Y-58000000D01*
X57320232Y-57947339D01*
X57680000Y-57947339D01*
X57680000Y-58052661D01*
X57693431Y-58102784D01*
X57707259Y-58154393D01*
X57707260Y-58154396D01*
X57759917Y-58245602D01*
X57759919Y-58245605D01*
X57759920Y-58245606D01*
X57834394Y-58320080D01*
X57925606Y-58372741D01*
X58027339Y-58400000D01*
X58132659Y-58400000D01*
X58132661Y-58400000D01*
X58234394Y-58372741D01*
X58325606Y-58320080D01*
X58400080Y-58245606D01*
X58452741Y-58154394D01*
X58480000Y-58052661D01*
X58480000Y-57999998D01*
X58787106Y-57999998D01*
X58787106Y-57999999D01*
X58787106Y-58000000D01*
X59285093Y-58497986D01*
X59347990Y-58304411D01*
X59380000Y-58102317D01*
X59380000Y-57897682D01*
X59347990Y-57695588D01*
X59299909Y-57547611D01*
X59285093Y-57502010D01*
X58787106Y-57999998D01*
X58480000Y-57999998D01*
X58480000Y-57947339D01*
X58452741Y-57845606D01*
X58400080Y-57754394D01*
X58325606Y-57679920D01*
X58325605Y-57679919D01*
X58325602Y-57679917D01*
X58234396Y-57627260D01*
X58234395Y-57627259D01*
X58234394Y-57627259D01*
X58132661Y-57600000D01*
X58132660Y-57600000D01*
X58027339Y-57600000D01*
X57925606Y-57627259D01*
X57925603Y-57627260D01*
X57834397Y-57679917D01*
X57834392Y-57679921D01*
X57759921Y-57754392D01*
X57759917Y-57754397D01*
X57707260Y-57845603D01*
X57707259Y-57845606D01*
X57680000Y-57947339D01*
X57320232Y-57947339D01*
X56874904Y-57502011D01*
X56874903Y-57502010D01*
X56812010Y-57695574D01*
X56810540Y-57704859D01*
X56780000Y-57897682D01*
X49220500Y-57897682D01*
X49220500Y-57897648D01*
X49195013Y-57736731D01*
X49195083Y-57736207D01*
X49194656Y-57701487D01*
X49196862Y-57684933D01*
X49197119Y-57682949D01*
X49197484Y-57680119D01*
X49218097Y-57626025D01*
X49220622Y-57622332D01*
X49235292Y-57604651D01*
X50045041Y-56794903D01*
X57582010Y-56794903D01*
X57582011Y-56794904D01*
X58080000Y-57292893D01*
X58080001Y-57292893D01*
X58577987Y-56794905D01*
X58577987Y-56794904D01*
X58577987Y-56794903D01*
X58384423Y-56732010D01*
X58384420Y-56732010D01*
X58258580Y-56712079D01*
X58182317Y-56700000D01*
X58182316Y-56700000D01*
X57977684Y-56700000D01*
X57977683Y-56700000D01*
X57785222Y-56730483D01*
X57785214Y-56730483D01*
X57785215Y-56730484D01*
X57775574Y-56732010D01*
X57582010Y-56794903D01*
X50045041Y-56794903D01*
X50850527Y-55989418D01*
X50878772Y-55968275D01*
X50901864Y-55955667D01*
X50961289Y-55940500D01*
X52207705Y-55940500D01*
X52242639Y-55945523D01*
X52264010Y-55951798D01*
X52314219Y-55980627D01*
X52317461Y-55983689D01*
X52332635Y-56000950D01*
X52384309Y-56072072D01*
X52384310Y-56072073D01*
X52517927Y-56205690D01*
X52670801Y-56316760D01*
X52746990Y-56355580D01*
X52832719Y-56399262D01*
X52834314Y-56400195D01*
X52838019Y-56401990D01*
X52840022Y-56402985D01*
X52843782Y-56404046D01*
X52935497Y-56433846D01*
X53018881Y-56460940D01*
X53205514Y-56490500D01*
X53205519Y-56490500D01*
X53394485Y-56490500D01*
X53394486Y-56490500D01*
X53581118Y-56460940D01*
X53760832Y-56402547D01*
X53929199Y-56316760D01*
X54082073Y-56205690D01*
X54215690Y-56072073D01*
X54326760Y-55919199D01*
X54412547Y-55750832D01*
X54470940Y-55571118D01*
X54500500Y-55384486D01*
X54500500Y-55205092D01*
X57582010Y-55205092D01*
X57582011Y-55205093D01*
X57775588Y-55267990D01*
X57977683Y-55300000D01*
X58182316Y-55300000D01*
X58182317Y-55300000D01*
X58384411Y-55267990D01*
X58577986Y-55205093D01*
X58577986Y-55205092D01*
X58080002Y-54707106D01*
X58080001Y-54707106D01*
X58080000Y-54707106D01*
X58079999Y-54707106D01*
X57582010Y-55205092D01*
X54500500Y-55205092D01*
X54500500Y-55195515D01*
X54498979Y-55185910D01*
X54498979Y-55185908D01*
X54470940Y-55008881D01*
X54412545Y-54829163D01*
X54405678Y-54815687D01*
X54367290Y-54740347D01*
X54367289Y-54740345D01*
X54350353Y-54707106D01*
X54326760Y-54660801D01*
X54326758Y-54660798D01*
X54326757Y-54660796D01*
X54264386Y-54574951D01*
X54215690Y-54507927D01*
X54082073Y-54374310D01*
X53929199Y-54263240D01*
X53760836Y-54177454D01*
X53581118Y-54119059D01*
X53581112Y-54119058D01*
X53394491Y-54089500D01*
X53394486Y-54089500D01*
X53394481Y-54089500D01*
X53205519Y-54089500D01*
X53205514Y-54089500D01*
X53205509Y-54089500D01*
X53018886Y-54119058D01*
X53018884Y-54119058D01*
X53018881Y-54119059D01*
X52839163Y-54177454D01*
X52755449Y-54220109D01*
X52670807Y-54263236D01*
X52670804Y-54263237D01*
X52670800Y-54263240D01*
X52657163Y-54273147D01*
X52614119Y-54304420D01*
X52614120Y-54304421D01*
X52529798Y-54365685D01*
X52522417Y-54369818D01*
X52384312Y-54507924D01*
X52384305Y-54507931D01*
X52336333Y-54573960D01*
X52336331Y-54573961D01*
X52336331Y-54573963D01*
X52311733Y-54599273D01*
X52294094Y-54612874D01*
X52241292Y-54636540D01*
X52238359Y-54637091D01*
X52236906Y-54637364D01*
X52229383Y-54638065D01*
X52228984Y-54638221D01*
X52228584Y-54638140D01*
X52213994Y-54639500D01*
X51423730Y-54639500D01*
X51388789Y-54634475D01*
X51373790Y-54630070D01*
X51358802Y-54620440D01*
X51341724Y-54615432D01*
X51315044Y-54592327D01*
X51313857Y-54590958D01*
X51286377Y-54536083D01*
X51284732Y-54528521D01*
X51281900Y-54502168D01*
X51281900Y-53897682D01*
X56780000Y-53897682D01*
X56780000Y-54102317D01*
X56805487Y-54263236D01*
X56810483Y-54294776D01*
X56810484Y-54294784D01*
X56812010Y-54304421D01*
X56874903Y-54497987D01*
X56874904Y-54497987D01*
X57372893Y-54000000D01*
X57320232Y-53947339D01*
X57680000Y-53947339D01*
X57680000Y-54052661D01*
X57705125Y-54146427D01*
X57707259Y-54154393D01*
X57707259Y-54154394D01*
X57759917Y-54245602D01*
X57759919Y-54245605D01*
X57759920Y-54245606D01*
X57834394Y-54320080D01*
X57925606Y-54372741D01*
X58027339Y-54400000D01*
X58132659Y-54400000D01*
X58132661Y-54400000D01*
X58234394Y-54372741D01*
X58325606Y-54320080D01*
X58400080Y-54245606D01*
X58452741Y-54154394D01*
X58480000Y-54052661D01*
X58480000Y-53999998D01*
X58787106Y-53999998D01*
X58787106Y-53999999D01*
X58787106Y-54000000D01*
X59285093Y-54497986D01*
X59347990Y-54304411D01*
X59380000Y-54102317D01*
X59380000Y-53897682D01*
X59347990Y-53695588D01*
X59285093Y-53502011D01*
X59285093Y-53502010D01*
X58787106Y-53999998D01*
X58480000Y-53999998D01*
X58480000Y-53947339D01*
X58452741Y-53845606D01*
X58400080Y-53754394D01*
X58325606Y-53679920D01*
X58325605Y-53679919D01*
X58325602Y-53679917D01*
X58234396Y-53627260D01*
X58234395Y-53627259D01*
X58234394Y-53627259D01*
X58132661Y-53600000D01*
X58132660Y-53600000D01*
X58027339Y-53600000D01*
X57925606Y-53627259D01*
X57925603Y-53627260D01*
X57834397Y-53679917D01*
X57834392Y-53679921D01*
X57759921Y-53754392D01*
X57759917Y-53754397D01*
X57707260Y-53845603D01*
X57707259Y-53845606D01*
X57680000Y-53947339D01*
X57320232Y-53947339D01*
X56874904Y-53502011D01*
X56874903Y-53502010D01*
X56812010Y-53695574D01*
X56810540Y-53704859D01*
X56780000Y-53897682D01*
X51281900Y-53897682D01*
X51281900Y-52794903D01*
X57582010Y-52794903D01*
X57582011Y-52794904D01*
X58080000Y-53292893D01*
X58080001Y-53292893D01*
X58577987Y-52794905D01*
X58577987Y-52794904D01*
X58577987Y-52794903D01*
X58384423Y-52732010D01*
X58384420Y-52732010D01*
X58283368Y-52716005D01*
X58182317Y-52700000D01*
X58182316Y-52700000D01*
X57977684Y-52700000D01*
X57977683Y-52700000D01*
X57785222Y-52730483D01*
X57785214Y-52730483D01*
X57785215Y-52730484D01*
X57775574Y-52732010D01*
X57582010Y-52794903D01*
X51281900Y-52794903D01*
X51281900Y-49633090D01*
X51286922Y-49598157D01*
X51287135Y-49597432D01*
X51294334Y-49572912D01*
X51325638Y-49520160D01*
X51330864Y-49514935D01*
X51330866Y-49514933D01*
X51376538Y-49446579D01*
X51429413Y-49367447D01*
X51497294Y-49203566D01*
X51497541Y-49202328D01*
X51531899Y-49029595D01*
X51531900Y-49029593D01*
X51531900Y-48852206D01*
X51531899Y-48852204D01*
X51497296Y-48678241D01*
X51497293Y-48678232D01*
X51429416Y-48514359D01*
X51429409Y-48514346D01*
X51330864Y-48366865D01*
X51330861Y-48366861D01*
X51330856Y-48366855D01*
X51205443Y-48241442D01*
X51205437Y-48241437D01*
X51205436Y-48241436D01*
X51057959Y-48142894D01*
X51057958Y-48142893D01*
X51057953Y-48142890D01*
X51057940Y-48142883D01*
X51057926Y-48142877D01*
X50894076Y-48075009D01*
X50894053Y-48075001D01*
X50894046Y-48074999D01*
X50720098Y-48040400D01*
X50720094Y-48040400D01*
X50720091Y-48040400D01*
X50542709Y-48040400D01*
X50542706Y-48040400D01*
X50542701Y-48040400D01*
X50368752Y-48075000D01*
X50368745Y-48075001D01*
X50368722Y-48075009D01*
X50204872Y-48142877D01*
X50204854Y-48142885D01*
X50204839Y-48142894D01*
X50057362Y-48241436D01*
X50057361Y-48241437D01*
X50057355Y-48241442D01*
X49931942Y-48366855D01*
X49931937Y-48366861D01*
X49931936Y-48366862D01*
X49833394Y-48514339D01*
X49833385Y-48514354D01*
X49833377Y-48514372D01*
X49765509Y-48678222D01*
X49765501Y-48678245D01*
X49765499Y-48678252D01*
X49730900Y-48852199D01*
X49730900Y-49029599D01*
X49765499Y-49203546D01*
X49765501Y-49203553D01*
X49765509Y-49203576D01*
X49812717Y-49317547D01*
X49833383Y-49367440D01*
X49833389Y-49367452D01*
X49833394Y-49367459D01*
X49931932Y-49514931D01*
X49931973Y-49514972D01*
X49932049Y-49515073D01*
X49935799Y-49519643D01*
X49935595Y-49519810D01*
X49953122Y-49543223D01*
X49965730Y-49566311D01*
X49980900Y-49625741D01*
X49980900Y-54949961D01*
X49975876Y-54984898D01*
X49968464Y-55010139D01*
X49937169Y-55062883D01*
X48319800Y-56680250D01*
X48319799Y-56680253D01*
X48291545Y-56701404D01*
X48271996Y-56712079D01*
X48216099Y-56727197D01*
X48211635Y-56727324D01*
X48204137Y-56726841D01*
X48203723Y-56726932D01*
X48203344Y-56726790D01*
X48188710Y-56725848D01*
X48101775Y-56712079D01*
X48054611Y-56704609D01*
X48034374Y-56701404D01*
X48022354Y-56699500D01*
X48022352Y-56699500D01*
X47817648Y-56699500D01*
X47817647Y-56699500D01*
X47793327Y-56703351D01*
X47793326Y-56703350D01*
X47615468Y-56731521D01*
X47420777Y-56794780D01*
X47420764Y-56794786D01*
X47238397Y-56887708D01*
X47238385Y-56887715D01*
X47072787Y-57008027D01*
X47072784Y-57008029D01*
X46928029Y-57152784D01*
X46928027Y-57152787D01*
X46807715Y-57318385D01*
X46807708Y-57318397D01*
X46714786Y-57500764D01*
X46714781Y-57500774D01*
X46714781Y-57500776D01*
X46699563Y-57547611D01*
X46651523Y-57695460D01*
X46651521Y-57695466D01*
X46621525Y-57884855D01*
X46621518Y-57884908D01*
X46621236Y-57886690D01*
X46619500Y-57897648D01*
X38939343Y-57897648D01*
X38832889Y-57791194D01*
X38799404Y-57729871D01*
X38804388Y-57660179D01*
X38846260Y-57604246D01*
X38888473Y-57583740D01*
X38980391Y-57559111D01*
X39117208Y-57480119D01*
X39228919Y-57368408D01*
X39307911Y-57231591D01*
X39332540Y-57139673D01*
X39368902Y-57080016D01*
X39431749Y-57049486D01*
X39501124Y-57057780D01*
X39539994Y-57084088D01*
X40252104Y-57796198D01*
X40252105Y-57796198D01*
X40276748Y-57753516D01*
X40276756Y-57753500D01*
X40362036Y-57547618D01*
X40419711Y-57332367D01*
X40419714Y-57332354D01*
X40448800Y-57111424D01*
X40448800Y-56888575D01*
X40419714Y-56667645D01*
X40419711Y-56667632D01*
X40418637Y-56663625D01*
X40401203Y-56598557D01*
X40362036Y-56452381D01*
X40276751Y-56246488D01*
X40276750Y-56246487D01*
X40276748Y-56246484D01*
X40276439Y-56245737D01*
X40274725Y-56242979D01*
X40252104Y-56203800D01*
X40252103Y-56203799D01*
X39539994Y-56915910D01*
X39478671Y-56949395D01*
X39408980Y-56944411D01*
X39353046Y-56902539D01*
X39332540Y-56860326D01*
X39307911Y-56768409D01*
X39228919Y-56631592D01*
X39117208Y-56519881D01*
X39048799Y-56480385D01*
X38980392Y-56440889D01*
X38949208Y-56432533D01*
X38888474Y-56416260D01*
X38828815Y-56379896D01*
X38798286Y-56317049D01*
X38806581Y-56247674D01*
X38832886Y-56208807D01*
X39544998Y-55496694D01*
X39544997Y-55496692D01*
X39503177Y-55472548D01*
X39502424Y-55472105D01*
X39502297Y-55472041D01*
X39296427Y-55386766D01*
X39296420Y-55386764D01*
X39296418Y-55386763D01*
X39251609Y-55374756D01*
X39081182Y-55329091D01*
X39081167Y-55329088D01*
X39081154Y-55329085D01*
X39081150Y-55329084D01*
X39081144Y-55329083D01*
X38860226Y-55300000D01*
X38860225Y-55300000D01*
X38637375Y-55300000D01*
X38637374Y-55300000D01*
X38416454Y-55329083D01*
X38416441Y-55329086D01*
X38416416Y-55329091D01*
X38201181Y-55386763D01*
X38201171Y-55386766D01*
X37995303Y-55472040D01*
X37952601Y-55496694D01*
X38664711Y-56208804D01*
X38698196Y-56270127D01*
X38693212Y-56339819D01*
X38651340Y-56395752D01*
X38609125Y-56416259D01*
X38517209Y-56440888D01*
X38380392Y-56519881D01*
X38380389Y-56519883D01*
X38268683Y-56631589D01*
X38268681Y-56631592D01*
X38189688Y-56768409D01*
X38165059Y-56860325D01*
X38128694Y-56919985D01*
X38065847Y-56950513D01*
X37996471Y-56942218D01*
X37957604Y-56915911D01*
X37245494Y-56203801D01*
X37220840Y-56246503D01*
X37135566Y-56452371D01*
X37135563Y-56452381D01*
X37077891Y-56667616D01*
X37077888Y-56667630D01*
X37077888Y-56667632D01*
X37077885Y-56667645D01*
X37067596Y-56745800D01*
X37048800Y-56888574D01*
X34189359Y-56888574D01*
X35241648Y-55836286D01*
X35624481Y-55453454D01*
X35740778Y-55337156D01*
X35740782Y-55337152D01*
X35763744Y-55307227D01*
X35802986Y-55256086D01*
X35900424Y-55129103D01*
X36031543Y-54901997D01*
X36131898Y-54659719D01*
X36161163Y-54550500D01*
X36199771Y-54406416D01*
X36218620Y-54263240D01*
X36234000Y-54146420D01*
X36234000Y-53897642D01*
X46619500Y-53897642D01*
X46619500Y-54102356D01*
X46651504Y-54304420D01*
X46651522Y-54304534D01*
X46666138Y-54349516D01*
X46714780Y-54499221D01*
X46714783Y-54499228D01*
X46751090Y-54570482D01*
X46751090Y-54570484D01*
X46751091Y-54570484D01*
X46796559Y-54659721D01*
X46797110Y-54660801D01*
X46807715Y-54681613D01*
X46928028Y-54847213D01*
X47072786Y-54991971D01*
X47181479Y-55070939D01*
X47181480Y-55070941D01*
X47222166Y-55100500D01*
X47238390Y-55112287D01*
X47354607Y-55171503D01*
X47382864Y-55185901D01*
X47414327Y-55201932D01*
X47414326Y-55201932D01*
X47421650Y-55205663D01*
X47425403Y-55206722D01*
X47465488Y-55219746D01*
X47525135Y-55239126D01*
X47525136Y-55239127D01*
X47568612Y-55253253D01*
X47615465Y-55268477D01*
X47716557Y-55284488D01*
X47817648Y-55300500D01*
X47817649Y-55300500D01*
X48022351Y-55300500D01*
X48022352Y-55300500D01*
X48224534Y-55268477D01*
X48419219Y-55205220D01*
X48601610Y-55112287D01*
X48708221Y-55034830D01*
X48708223Y-55034829D01*
X48738892Y-55012547D01*
X48767213Y-54991971D01*
X48767214Y-54991969D01*
X48767273Y-54991926D01*
X48768032Y-54991152D01*
X48911966Y-54847219D01*
X48911968Y-54847215D01*
X48911971Y-54847213D01*
X48934874Y-54815690D01*
X49013757Y-54707114D01*
X49013763Y-54707106D01*
X49032287Y-54681610D01*
X49125220Y-54499219D01*
X49188477Y-54304534D01*
X49220500Y-54102352D01*
X49220500Y-53897648D01*
X49205907Y-53805513D01*
X49188477Y-53695465D01*
X49167797Y-53631821D01*
X49157458Y-53599999D01*
X49127829Y-53508812D01*
X49125220Y-53500781D01*
X49125218Y-53500778D01*
X49125218Y-53500776D01*
X49122980Y-53496385D01*
X49122669Y-53495586D01*
X49121932Y-53494327D01*
X49091503Y-53434607D01*
X49032287Y-53318390D01*
X49032283Y-53318385D01*
X49016228Y-53296286D01*
X48911971Y-53152786D01*
X48767213Y-53008028D01*
X48767212Y-53008027D01*
X48767211Y-53008026D01*
X48612209Y-52895413D01*
X48612205Y-52895410D01*
X48601613Y-52887715D01*
X48601612Y-52887714D01*
X48601610Y-52887713D01*
X48555100Y-52864014D01*
X48544654Y-52858691D01*
X48544653Y-52858691D01*
X48419223Y-52794781D01*
X48224534Y-52731522D01*
X48224532Y-52731521D01*
X48224530Y-52731521D01*
X48224529Y-52731520D01*
X48049995Y-52703878D01*
X48033409Y-52701251D01*
X48022354Y-52699500D01*
X48022352Y-52699500D01*
X47817648Y-52699500D01*
X47817647Y-52699500D01*
X47793327Y-52703351D01*
X47793326Y-52703350D01*
X47615468Y-52731521D01*
X47420777Y-52794780D01*
X47420764Y-52794786D01*
X47238397Y-52887708D01*
X47238385Y-52887715D01*
X47072787Y-53008027D01*
X47072784Y-53008029D01*
X46928029Y-53152784D01*
X46928027Y-53152787D01*
X46807715Y-53318385D01*
X46807708Y-53318397D01*
X46714786Y-53500764D01*
X46714780Y-53500777D01*
X46651521Y-53695468D01*
X46619500Y-53897642D01*
X36234000Y-53897642D01*
X36234000Y-45205092D01*
X39582010Y-45205092D01*
X39582011Y-45205093D01*
X39775588Y-45267990D01*
X39977683Y-45300000D01*
X40182316Y-45300000D01*
X40182317Y-45300000D01*
X40384411Y-45267990D01*
X40577987Y-45205093D01*
X40080001Y-44707106D01*
X40079999Y-44707106D01*
X39582010Y-45205092D01*
X36234000Y-45205092D01*
X36234000Y-43897682D01*
X38780000Y-43897682D01*
X38780000Y-44102317D01*
X38802694Y-44245602D01*
X38810483Y-44294776D01*
X38810484Y-44294784D01*
X38812010Y-44304424D01*
X38874903Y-44497987D01*
X38874904Y-44497987D01*
X38874905Y-44497987D01*
X39372893Y-44000000D01*
X39320232Y-43947339D01*
X39680000Y-43947339D01*
X39680000Y-44052661D01*
X39693315Y-44102351D01*
X39707259Y-44154393D01*
X39707260Y-44154396D01*
X39759917Y-44245602D01*
X39759919Y-44245605D01*
X39759920Y-44245606D01*
X39834394Y-44320080D01*
X39925606Y-44372741D01*
X40027339Y-44400000D01*
X40132659Y-44400000D01*
X40132661Y-44400000D01*
X40234394Y-44372741D01*
X40325606Y-44320080D01*
X40400080Y-44245606D01*
X40452741Y-44154394D01*
X40480000Y-44052661D01*
X40480000Y-43999998D01*
X40787106Y-43999998D01*
X40787106Y-43999999D01*
X40787106Y-44000000D01*
X41285093Y-44497986D01*
X41347990Y-44304411D01*
X41380000Y-44102317D01*
X41380000Y-43897682D01*
X41347990Y-43695588D01*
X41285093Y-43502011D01*
X41285093Y-43502010D01*
X40787106Y-43999998D01*
X40480000Y-43999998D01*
X40480000Y-43947339D01*
X40452741Y-43845606D01*
X40400080Y-43754394D01*
X40325606Y-43679920D01*
X40325605Y-43679919D01*
X40325602Y-43679917D01*
X40234396Y-43627260D01*
X40234395Y-43627259D01*
X40234394Y-43627259D01*
X40132661Y-43600000D01*
X40132660Y-43600000D01*
X40027339Y-43600000D01*
X39925606Y-43627259D01*
X39925603Y-43627260D01*
X39834397Y-43679917D01*
X39834392Y-43679921D01*
X39759921Y-43754392D01*
X39759917Y-43754397D01*
X39707260Y-43845603D01*
X39707260Y-43845604D01*
X39707259Y-43845606D01*
X39680000Y-43947339D01*
X39320232Y-43947339D01*
X38874904Y-43502011D01*
X38874903Y-43502010D01*
X38812010Y-43695574D01*
X38810540Y-43704859D01*
X38780000Y-43897682D01*
X36234000Y-43897682D01*
X36234000Y-42794903D01*
X39582010Y-42794903D01*
X39582011Y-42794904D01*
X40080000Y-43292893D01*
X40080001Y-43292893D01*
X40577987Y-42794905D01*
X40577987Y-42794904D01*
X40577987Y-42794903D01*
X40384423Y-42732010D01*
X40384420Y-42732010D01*
X40283368Y-42716005D01*
X40182317Y-42700000D01*
X40182316Y-42700000D01*
X39977684Y-42700000D01*
X39977683Y-42700000D01*
X39785222Y-42730483D01*
X39785214Y-42730483D01*
X39785215Y-42730484D01*
X39775574Y-42732010D01*
X39582010Y-42794903D01*
X36234000Y-42794903D01*
X36234000Y-36229161D01*
X36239023Y-36194227D01*
X36248662Y-36161399D01*
X36263321Y-36129297D01*
X36455849Y-35829720D01*
X36597627Y-35570072D01*
X36647032Y-35520668D01*
X36706459Y-35505500D01*
X61775500Y-35505500D01*
X61842539Y-35525185D01*
X61888294Y-35577989D01*
X61899500Y-35629500D01*
X61899500Y-50905084D01*
X61896074Y-50934033D01*
X61889411Y-50961785D01*
X61881623Y-50982896D01*
X61881992Y-50983049D01*
X61880128Y-50987546D01*
X61826597Y-51152300D01*
X61799500Y-51323383D01*
X61799500Y-51323389D01*
X61799500Y-51496611D01*
X61826598Y-51667701D01*
X61880127Y-51832445D01*
X61958768Y-51986788D01*
X62060586Y-52126928D01*
X62183072Y-52249414D01*
X62323212Y-52351232D01*
X62477555Y-52429873D01*
X62642299Y-52483402D01*
X62813389Y-52510500D01*
X62813390Y-52510500D01*
X62986610Y-52510500D01*
X62986611Y-52510500D01*
X63157701Y-52483402D01*
X63322445Y-52429873D01*
X63476788Y-52351232D01*
X63616928Y-52249414D01*
X63725216Y-52141125D01*
X63753456Y-52119984D01*
X63763390Y-52114560D01*
X63831660Y-52099707D01*
X63897125Y-52124121D01*
X63938998Y-52180053D01*
X63939000Y-52180057D01*
X63941681Y-52187245D01*
X63949499Y-52230579D01*
X63949499Y-52807704D01*
X63944475Y-52842643D01*
X63938199Y-52864014D01*
X63931540Y-52875610D01*
X63929707Y-52885371D01*
X63909371Y-52914218D01*
X63906309Y-52917460D01*
X63889048Y-52932634D01*
X63817926Y-52984308D01*
X63679815Y-53122419D01*
X63675685Y-53129794D01*
X63636609Y-53183578D01*
X63636609Y-53183579D01*
X63573239Y-53270799D01*
X63548990Y-53318390D01*
X63487453Y-53439163D01*
X63429058Y-53618881D01*
X63429057Y-53618884D01*
X63429057Y-53618886D01*
X63399499Y-53805507D01*
X63399499Y-53994491D01*
X63424825Y-54154393D01*
X63429058Y-54181118D01*
X63487453Y-54360836D01*
X63523195Y-54430983D01*
X63557965Y-54499223D01*
X63562399Y-54507924D01*
X63573239Y-54529199D01*
X63573240Y-54529200D01*
X63573241Y-54529203D01*
X63605762Y-54573963D01*
X63684309Y-54682073D01*
X63817926Y-54815690D01*
X63865443Y-54850213D01*
X63970795Y-54926757D01*
X63970796Y-54926757D01*
X63970800Y-54926760D01*
X64050346Y-54967290D01*
X64132721Y-55009263D01*
X64134319Y-55010199D01*
X64138036Y-55011999D01*
X64140020Y-55012985D01*
X64143773Y-55014043D01*
X64207747Y-55034830D01*
X64318880Y-55070940D01*
X64505513Y-55100500D01*
X64505518Y-55100500D01*
X64694484Y-55100500D01*
X64694485Y-55100500D01*
X64881117Y-55070940D01*
X64928722Y-55055472D01*
X65060831Y-55012547D01*
X65229198Y-54926760D01*
X65382072Y-54815690D01*
X65515689Y-54682073D01*
X65626759Y-54529199D01*
X65712546Y-54360832D01*
X65770939Y-54181118D01*
X65775172Y-54154394D01*
X65800499Y-53994486D01*
X65800499Y-53897642D01*
X68619500Y-53897642D01*
X68619500Y-54102356D01*
X68651504Y-54304420D01*
X68651522Y-54304534D01*
X68666138Y-54349516D01*
X68714780Y-54499221D01*
X68714783Y-54499228D01*
X68751090Y-54570482D01*
X68751090Y-54570484D01*
X68751091Y-54570484D01*
X68796559Y-54659721D01*
X68797110Y-54660801D01*
X68807715Y-54681613D01*
X68928028Y-54847213D01*
X69072786Y-54991971D01*
X69181479Y-55070939D01*
X69181480Y-55070941D01*
X69222166Y-55100500D01*
X69238390Y-55112287D01*
X69354607Y-55171503D01*
X69382864Y-55185901D01*
X69414327Y-55201932D01*
X69414326Y-55201932D01*
X69421650Y-55205663D01*
X69425403Y-55206722D01*
X69465488Y-55219746D01*
X69525135Y-55239126D01*
X69525136Y-55239127D01*
X69568612Y-55253253D01*
X69615465Y-55268477D01*
X69716557Y-55284488D01*
X69817648Y-55300500D01*
X69817649Y-55300500D01*
X70022351Y-55300500D01*
X70022352Y-55300500D01*
X70224534Y-55268477D01*
X70419219Y-55205220D01*
X70601610Y-55112287D01*
X70708221Y-55034830D01*
X70708223Y-55034829D01*
X70738892Y-55012547D01*
X70767213Y-54991971D01*
X70767214Y-54991969D01*
X70767273Y-54991926D01*
X70768032Y-54991152D01*
X70911966Y-54847219D01*
X70911968Y-54847215D01*
X70911971Y-54847213D01*
X70934874Y-54815690D01*
X71013757Y-54707114D01*
X71013763Y-54707106D01*
X71032287Y-54681610D01*
X71125220Y-54499219D01*
X71188477Y-54304534D01*
X71220500Y-54102352D01*
X71220500Y-53897648D01*
X71205907Y-53805513D01*
X71188477Y-53695465D01*
X71167797Y-53631821D01*
X71157458Y-53599999D01*
X71127829Y-53508812D01*
X71125220Y-53500781D01*
X71125218Y-53500778D01*
X71125218Y-53500776D01*
X71122980Y-53496385D01*
X71122669Y-53495586D01*
X71121932Y-53494327D01*
X71091503Y-53434607D01*
X71032287Y-53318390D01*
X71032283Y-53318385D01*
X71016228Y-53296286D01*
X70911971Y-53152786D01*
X70767213Y-53008028D01*
X70767212Y-53008027D01*
X70767211Y-53008026D01*
X70612209Y-52895413D01*
X70612205Y-52895410D01*
X70601613Y-52887715D01*
X70601612Y-52887714D01*
X70601610Y-52887713D01*
X70555100Y-52864014D01*
X70544654Y-52858691D01*
X70544653Y-52858691D01*
X70419223Y-52794781D01*
X70224534Y-52731522D01*
X70224532Y-52731521D01*
X70224530Y-52731521D01*
X70224529Y-52731520D01*
X70049995Y-52703878D01*
X70033409Y-52701251D01*
X70022354Y-52699500D01*
X70022352Y-52699500D01*
X69817648Y-52699500D01*
X69817647Y-52699500D01*
X69793327Y-52703351D01*
X69793326Y-52703350D01*
X69615468Y-52731521D01*
X69420777Y-52794780D01*
X69420764Y-52794786D01*
X69238397Y-52887708D01*
X69238385Y-52887715D01*
X69072787Y-53008027D01*
X69072784Y-53008029D01*
X68928029Y-53152784D01*
X68928027Y-53152787D01*
X68807715Y-53318385D01*
X68807708Y-53318397D01*
X68714786Y-53500764D01*
X68714780Y-53500777D01*
X68651521Y-53695468D01*
X68619500Y-53897642D01*
X65800499Y-53897642D01*
X65800499Y-53805513D01*
X65770939Y-53618881D01*
X65712544Y-53439163D01*
X65712542Y-53439160D01*
X65712542Y-53439158D01*
X65651007Y-53318390D01*
X65639744Y-53296285D01*
X65626759Y-53270801D01*
X65515689Y-53117927D01*
X65382072Y-52984310D01*
X65382071Y-52984309D01*
X65382070Y-52984308D01*
X65382065Y-52984304D01*
X65342339Y-52955441D01*
X65316031Y-52936327D01*
X65290726Y-52911734D01*
X65277126Y-52894097D01*
X65253448Y-52841243D01*
X65252625Y-52836854D01*
X65251930Y-52829381D01*
X65251777Y-52828988D01*
X65251856Y-52828593D01*
X65250499Y-52813990D01*
X65250499Y-47632293D01*
X65255522Y-47597357D01*
X65261797Y-47575987D01*
X65268457Y-47564387D01*
X65270292Y-47554623D01*
X65290629Y-47525777D01*
X65293695Y-47522531D01*
X65310948Y-47507364D01*
X65382068Y-47455693D01*
X65382068Y-47455692D01*
X65382220Y-47455583D01*
X65389620Y-47450249D01*
X65389969Y-47449951D01*
X65390112Y-47449846D01*
X65395948Y-47441813D01*
X65515689Y-47322073D01*
X65626759Y-47169199D01*
X65712546Y-47000832D01*
X65770939Y-46821118D01*
X65779683Y-46765909D01*
X65800499Y-46634486D01*
X65800499Y-46445513D01*
X65770939Y-46258881D01*
X65712544Y-46079163D01*
X65626758Y-45910800D01*
X65515689Y-45757927D01*
X65382072Y-45624310D01*
X65229198Y-45513240D01*
X65060835Y-45427454D01*
X64881117Y-45369059D01*
X64881111Y-45369058D01*
X64694490Y-45339500D01*
X64694485Y-45339500D01*
X64694480Y-45339500D01*
X64505518Y-45339500D01*
X64505513Y-45339500D01*
X64505508Y-45339500D01*
X64318885Y-45369058D01*
X64318883Y-45369058D01*
X64318880Y-45369059D01*
X64139159Y-45427455D01*
X64139157Y-45427455D01*
X64139157Y-45427456D01*
X64096681Y-45449099D01*
X64063275Y-45460483D01*
X64049634Y-45463045D01*
X63980113Y-45456074D01*
X63925397Y-45412623D01*
X63925395Y-45412619D01*
X63923472Y-45409891D01*
X63902485Y-45358693D01*
X63902162Y-45356743D01*
X63900500Y-45336502D01*
X63900500Y-35629500D01*
X63920185Y-35562461D01*
X63972989Y-35516706D01*
X64024500Y-35505500D01*
X72025500Y-35505500D01*
X72092539Y-35525185D01*
X72138294Y-35577989D01*
X72149500Y-35629500D01*
X72149500Y-71307858D01*
X72149499Y-71307861D01*
X72149500Y-71307863D01*
X72144476Y-71342797D01*
X72140530Y-71356234D01*
X72102753Y-71415011D01*
X72043571Y-71443325D01*
X72038932Y-71444162D01*
X71969463Y-71436693D01*
X71918519Y-71415591D01*
X71888169Y-71397584D01*
X71875995Y-71387774D01*
X71865824Y-71373126D01*
X71851940Y-71361937D01*
X71836150Y-71330390D01*
X71836147Y-71330386D01*
X71831843Y-71317456D01*
X71825500Y-71278303D01*
X71825500Y-59330223D01*
X71825627Y-59324613D01*
X71825968Y-59317072D01*
X71825969Y-59317056D01*
X71825504Y-59257996D01*
X71825504Y-59257993D01*
X71825500Y-59257484D01*
X71825500Y-59198394D01*
X71825056Y-59196168D01*
X71825039Y-59193732D01*
X71825030Y-59193637D01*
X71824996Y-59193472D01*
X71824996Y-59193470D01*
X71812993Y-59135519D01*
X71801463Y-59077548D01*
X71800513Y-59075255D01*
X71800009Y-59072822D01*
X71777084Y-59018685D01*
X71777083Y-59018684D01*
X71776929Y-59018320D01*
X71754311Y-58963714D01*
X71752933Y-58961653D01*
X71751962Y-58959359D01*
X71718988Y-58910842D01*
X71718937Y-58910767D01*
X71718665Y-58910367D01*
X71685858Y-58861267D01*
X71684272Y-58859681D01*
X71682911Y-58857675D01*
X71682838Y-58857587D01*
X71673186Y-58848086D01*
X71640910Y-58816314D01*
X71640217Y-58815626D01*
X71639856Y-58815265D01*
X71598490Y-58773897D01*
X71592833Y-58768810D01*
X71588759Y-58764977D01*
X71347975Y-58527956D01*
X71317529Y-58497986D01*
X71237542Y-58419249D01*
X71216174Y-58391168D01*
X71205471Y-58371928D01*
X71189899Y-58315683D01*
X71189739Y-58310766D01*
X71190154Y-58304097D01*
X71190083Y-58303779D01*
X71190193Y-58303475D01*
X71191199Y-58287345D01*
X71220500Y-58102352D01*
X71220500Y-57897648D01*
X71220500Y-57897647D01*
X71220500Y-57897643D01*
X71204432Y-57796199D01*
X71204432Y-57796198D01*
X71197686Y-57753609D01*
X71188477Y-57695465D01*
X71152174Y-57583738D01*
X71145172Y-57562187D01*
X71145168Y-57562177D01*
X71140437Y-57547617D01*
X71126721Y-57505402D01*
X71125659Y-57501636D01*
X71124662Y-57499629D01*
X71122870Y-57495930D01*
X71121932Y-57494327D01*
X71091503Y-57434607D01*
X71069341Y-57391112D01*
X71032287Y-57318390D01*
X71024556Y-57307749D01*
X70911971Y-57152786D01*
X70767213Y-57008028D01*
X70767212Y-57008027D01*
X70767211Y-57008026D01*
X70612209Y-56895413D01*
X70612205Y-56895410D01*
X70601613Y-56887715D01*
X70601612Y-56887714D01*
X70601610Y-56887713D01*
X70573171Y-56873222D01*
X70544654Y-56858691D01*
X70544653Y-56858691D01*
X70419223Y-56794781D01*
X70224534Y-56731522D01*
X70224532Y-56731521D01*
X70224530Y-56731521D01*
X70224529Y-56731520D01*
X70049995Y-56703878D01*
X70033409Y-56701251D01*
X70022354Y-56699500D01*
X70022352Y-56699500D01*
X69817648Y-56699500D01*
X69817647Y-56699500D01*
X69793327Y-56703351D01*
X69793326Y-56703350D01*
X69615468Y-56731521D01*
X69420777Y-56794780D01*
X69420764Y-56794786D01*
X69238397Y-56887708D01*
X69238385Y-56887715D01*
X69072787Y-57008027D01*
X69072784Y-57008029D01*
X68928029Y-57152784D01*
X68928027Y-57152787D01*
X68807715Y-57318385D01*
X68807708Y-57318397D01*
X68714786Y-57500764D01*
X68714781Y-57500774D01*
X68714781Y-57500776D01*
X68699563Y-57547611D01*
X68651523Y-57695460D01*
X68651521Y-57695466D01*
X68621236Y-57886686D01*
X68621236Y-57886687D01*
X68619500Y-57897647D01*
X68619500Y-58102351D01*
X68619570Y-58102791D01*
X68619586Y-58102895D01*
X68651520Y-58304529D01*
X68651521Y-58304530D01*
X68651522Y-58304534D01*
X68656574Y-58320082D01*
X68714780Y-58499221D01*
X68714786Y-58499234D01*
X68807708Y-58681601D01*
X68807712Y-58681608D01*
X68807715Y-58681613D01*
X68928028Y-58847213D01*
X69072786Y-58991971D01*
X69190575Y-59077548D01*
X69238390Y-59112287D01*
X69311998Y-59149792D01*
X69414329Y-59201933D01*
X69415927Y-59202869D01*
X69419615Y-59204655D01*
X69421640Y-59205661D01*
X69425406Y-59206723D01*
X69467956Y-59220547D01*
X69525135Y-59239126D01*
X69525136Y-59239127D01*
X69568612Y-59253253D01*
X69615465Y-59268477D01*
X69716557Y-59284488D01*
X69817648Y-59300500D01*
X69817649Y-59300500D01*
X70022350Y-59300500D01*
X70022351Y-59300500D01*
X70022352Y-59300500D01*
X70211727Y-59270505D01*
X70227523Y-59269032D01*
X70229663Y-59268970D01*
X70229664Y-59268971D01*
X70257495Y-59268165D01*
X70322377Y-59284325D01*
X70333594Y-59290704D01*
X70359276Y-59310119D01*
X70379699Y-59330223D01*
X70481216Y-59430154D01*
X70524783Y-59473040D01*
X70541499Y-59495006D01*
X70546153Y-59501121D01*
X70558860Y-59523963D01*
X70574500Y-59584245D01*
X70574500Y-60656731D01*
X70569475Y-60691672D01*
X70565564Y-60704989D01*
X70527787Y-60763765D01*
X70464229Y-60792787D01*
X70464227Y-60792787D01*
X70457310Y-60793781D01*
X70401354Y-60788973D01*
X70224538Y-60731523D01*
X70148717Y-60719514D01*
X70072897Y-60707505D01*
X70052679Y-60704303D01*
X70022355Y-60699500D01*
X70022352Y-60699500D01*
X69817648Y-60699500D01*
X69817647Y-60699500D01*
X69793327Y-60703351D01*
X69793326Y-60703350D01*
X69615468Y-60731521D01*
X69420777Y-60794780D01*
X69420764Y-60794786D01*
X69238397Y-60887708D01*
X69238385Y-60887715D01*
X69072787Y-61008027D01*
X69072784Y-61008029D01*
X68928029Y-61152784D01*
X68928027Y-61152787D01*
X68807715Y-61318385D01*
X68807708Y-61318397D01*
X68714786Y-61500764D01*
X68714780Y-61500777D01*
X68651521Y-61695468D01*
X68619500Y-61897642D01*
X68619500Y-62102356D01*
X68651521Y-62304530D01*
X68651522Y-62304534D01*
X68714379Y-62497987D01*
X68714782Y-62499225D01*
X68778691Y-62624653D01*
X68806784Y-62679788D01*
X68807714Y-62681612D01*
X68928026Y-62847211D01*
X69072786Y-62991971D01*
X69223919Y-63101774D01*
X69242970Y-63118883D01*
X69260437Y-63138182D01*
X69289373Y-63193717D01*
X69291372Y-63202448D01*
X69294500Y-63230122D01*
X69294500Y-66670500D01*
X69274815Y-66737539D01*
X69222011Y-66783294D01*
X69170500Y-66794500D01*
X67629500Y-66794500D01*
X67562461Y-66774815D01*
X67516706Y-66722011D01*
X67505500Y-66670500D01*
X67505500Y-64124010D01*
X67505500Y-64124000D01*
X67493947Y-64016544D01*
X67482741Y-63965033D01*
X67482637Y-63964722D01*
X67448616Y-63862502D01*
X67448613Y-63862496D01*
X67370828Y-63741462D01*
X67370825Y-63741457D01*
X67370820Y-63741451D01*
X67325076Y-63688659D01*
X67325072Y-63688656D01*
X67325070Y-63688653D01*
X67216336Y-63594433D01*
X67216333Y-63594431D01*
X67216331Y-63594430D01*
X67085465Y-63534664D01*
X67085460Y-63534662D01*
X67085459Y-63534662D01*
X67018420Y-63514977D01*
X67018422Y-63514977D01*
X67018417Y-63514976D01*
X66956347Y-63506052D01*
X66876000Y-63494500D01*
X66875998Y-63494500D01*
X58470189Y-63494500D01*
X58403150Y-63474815D01*
X58357395Y-63422011D01*
X58347451Y-63352853D01*
X58376476Y-63289297D01*
X58431870Y-63252569D01*
X58577987Y-63205093D01*
X58080001Y-62707106D01*
X58079999Y-62707106D01*
X57582010Y-63205092D01*
X57582011Y-63205093D01*
X57728128Y-63252569D01*
X57785803Y-63292006D01*
X57813002Y-63356365D01*
X57801088Y-63425211D01*
X57753844Y-63476687D01*
X57689810Y-63494500D01*
X53124010Y-63494500D01*
X53124000Y-63494500D01*
X53123991Y-63494500D01*
X53123990Y-63494501D01*
X53016549Y-63506052D01*
X53016537Y-63506054D01*
X52965027Y-63517260D01*
X52862502Y-63551383D01*
X52862496Y-63551386D01*
X52741462Y-63629171D01*
X52741451Y-63629179D01*
X52688659Y-63674923D01*
X52594433Y-63783664D01*
X52594430Y-63783668D01*
X52534664Y-63914534D01*
X52514976Y-63981582D01*
X52505969Y-64044230D01*
X52494502Y-64123990D01*
X52494500Y-64124001D01*
X52494500Y-74825500D01*
X52474815Y-74892539D01*
X52422011Y-74938294D01*
X52370500Y-74949500D01*
X45392330Y-74949500D01*
X45392325Y-74949499D01*
X45392323Y-74949500D01*
X45357389Y-74944475D01*
X45342390Y-74940070D01*
X45283644Y-74902327D01*
X45283615Y-74902293D01*
X45283614Y-74902293D01*
X45283613Y-74902291D01*
X45282457Y-74900958D01*
X45254977Y-74846083D01*
X45253332Y-74838521D01*
X45250500Y-74812168D01*
X45250500Y-73632292D01*
X45255523Y-73597356D01*
X45261798Y-73575986D01*
X45290630Y-73525776D01*
X45293696Y-73522530D01*
X45299343Y-73517565D01*
X45299573Y-73517208D01*
X45299941Y-73517039D01*
X45310949Y-73507363D01*
X45382069Y-73455692D01*
X45382069Y-73455691D01*
X45382221Y-73455582D01*
X45389621Y-73450248D01*
X45389970Y-73449950D01*
X45390113Y-73449845D01*
X45395949Y-73441812D01*
X45515690Y-73322072D01*
X45626760Y-73169198D01*
X45712547Y-73000831D01*
X45770940Y-72821117D01*
X45789106Y-72706420D01*
X45800500Y-72634485D01*
X45800500Y-72445512D01*
X45770940Y-72258882D01*
X45770940Y-72258881D01*
X45757259Y-72216778D01*
X45756840Y-72215371D01*
X45756830Y-72212985D01*
X45751728Y-72183505D01*
X45751282Y-72167876D01*
X45756570Y-72147759D01*
X45756561Y-72145502D01*
X45757586Y-72143892D01*
X45769040Y-72100313D01*
X45773805Y-72092411D01*
X45811098Y-72053345D01*
X45936635Y-71969464D01*
X46062064Y-71844035D01*
X46160613Y-71696547D01*
X46228494Y-71532666D01*
X46241848Y-71465533D01*
X46245252Y-71448423D01*
X46251563Y-71416689D01*
X46251564Y-71416681D01*
X46257315Y-71387774D01*
X46263100Y-71358691D01*
X46263100Y-71181309D01*
X46263100Y-71181306D01*
X46263100Y-71181237D01*
X46262981Y-71180711D01*
X46228496Y-71007341D01*
X46228493Y-71007332D01*
X46222130Y-70991971D01*
X46209737Y-70962049D01*
X46209737Y-70962048D01*
X46209737Y-70962047D01*
X46160619Y-70843465D01*
X46160614Y-70843456D01*
X46160609Y-70843446D01*
X46062064Y-70695965D01*
X46062061Y-70695961D01*
X46062056Y-70695955D01*
X46062025Y-70695924D01*
X46062023Y-70695923D01*
X46061989Y-70695877D01*
X46059180Y-70692639D01*
X46059413Y-70692436D01*
X46040873Y-70667668D01*
X46028267Y-70644581D01*
X46013100Y-70585156D01*
X46013100Y-64896036D01*
X46018122Y-64861103D01*
X46025534Y-64835858D01*
X46056828Y-64783116D01*
X47520204Y-63319739D01*
X47548452Y-63298593D01*
X47568004Y-63287917D01*
X47623888Y-63272801D01*
X47628367Y-63272674D01*
X47635858Y-63273156D01*
X47636275Y-63273066D01*
X47636655Y-63273207D01*
X47651282Y-63274150D01*
X47736539Y-63287653D01*
X47736633Y-63287667D01*
X47736719Y-63287681D01*
X47817648Y-63300500D01*
X47817649Y-63300500D01*
X48022351Y-63300500D01*
X48022352Y-63300500D01*
X48224534Y-63268477D01*
X48419219Y-63205220D01*
X48601610Y-63112287D01*
X48665048Y-63066197D01*
X48665050Y-63066196D01*
X48767212Y-62991971D01*
X48767211Y-62991971D01*
X48767212Y-62991969D01*
X48767219Y-62991966D01*
X48767223Y-62991961D01*
X48768097Y-62991327D01*
X48768137Y-62991298D01*
X48806469Y-62963448D01*
X48820941Y-62938243D01*
X48911966Y-62847219D01*
X48911968Y-62847215D01*
X48911971Y-62847213D01*
X48965501Y-62773534D01*
X49032287Y-62681610D01*
X49125220Y-62499219D01*
X49188477Y-62304534D01*
X49220500Y-62102352D01*
X49220500Y-61897682D01*
X56780000Y-61897682D01*
X56780000Y-62102317D01*
X56805370Y-62262498D01*
X56810483Y-62294776D01*
X56810484Y-62294784D01*
X56812010Y-62304424D01*
X56874903Y-62497987D01*
X56874904Y-62497987D01*
X56874905Y-62497987D01*
X57372893Y-62000000D01*
X57320232Y-61947339D01*
X57680000Y-61947339D01*
X57680000Y-62052661D01*
X57704076Y-62142512D01*
X57707259Y-62154393D01*
X57707260Y-62154396D01*
X57759917Y-62245602D01*
X57759919Y-62245605D01*
X57759920Y-62245606D01*
X57834394Y-62320080D01*
X57925606Y-62372741D01*
X58027339Y-62400000D01*
X58132659Y-62400000D01*
X58132661Y-62400000D01*
X58234394Y-62372741D01*
X58325606Y-62320080D01*
X58400080Y-62245606D01*
X58452741Y-62154394D01*
X58480000Y-62052661D01*
X58480000Y-61999998D01*
X58787106Y-61999998D01*
X58787106Y-61999999D01*
X58787106Y-62000000D01*
X59285093Y-62497986D01*
X59347990Y-62304411D01*
X59380000Y-62102317D01*
X59380000Y-61897682D01*
X59347990Y-61695588D01*
X59290230Y-61517820D01*
X59285093Y-61502010D01*
X58787106Y-61999998D01*
X58480000Y-61999998D01*
X58480000Y-61947339D01*
X58452741Y-61845606D01*
X58400080Y-61754394D01*
X58325606Y-61679920D01*
X58325605Y-61679919D01*
X58325602Y-61679917D01*
X58234396Y-61627260D01*
X58234395Y-61627259D01*
X58234394Y-61627259D01*
X58132661Y-61600000D01*
X58132660Y-61600000D01*
X58027339Y-61600000D01*
X57925606Y-61627259D01*
X57925603Y-61627260D01*
X57834397Y-61679917D01*
X57834392Y-61679921D01*
X57759921Y-61754392D01*
X57759917Y-61754397D01*
X57707260Y-61845603D01*
X57707259Y-61845606D01*
X57680000Y-61947339D01*
X57320232Y-61947339D01*
X56874904Y-61502011D01*
X56874903Y-61502010D01*
X56812010Y-61695574D01*
X56810540Y-61704859D01*
X56780000Y-61897682D01*
X49220500Y-61897682D01*
X49220500Y-61897648D01*
X49211386Y-61840104D01*
X49188477Y-61695465D01*
X49130755Y-61517816D01*
X49125220Y-61500781D01*
X49125218Y-61500778D01*
X49125218Y-61500776D01*
X49122979Y-61496383D01*
X49122668Y-61495584D01*
X49121932Y-61494327D01*
X49091503Y-61434607D01*
X49032287Y-61318390D01*
X49024556Y-61307749D01*
X48911971Y-61152786D01*
X48767213Y-61008028D01*
X48767212Y-61008027D01*
X48767211Y-61008026D01*
X48665060Y-60933811D01*
X48665045Y-60933800D01*
X48609501Y-60893446D01*
X48609162Y-60893156D01*
X48601603Y-60887707D01*
X48601188Y-60887498D01*
X48544654Y-60858691D01*
X48544653Y-60858691D01*
X48419462Y-60794903D01*
X57582010Y-60794903D01*
X57582011Y-60794904D01*
X58080000Y-61292893D01*
X58080001Y-61292893D01*
X58577987Y-60794905D01*
X58577987Y-60794904D01*
X58577987Y-60794903D01*
X58384423Y-60732010D01*
X58384420Y-60732010D01*
X58229701Y-60707505D01*
X58182317Y-60700000D01*
X58182316Y-60700000D01*
X57977684Y-60700000D01*
X57977683Y-60700000D01*
X57785222Y-60730483D01*
X57785214Y-60730483D01*
X57785215Y-60730484D01*
X57775574Y-60732010D01*
X57582010Y-60794903D01*
X48419462Y-60794903D01*
X48419223Y-60794781D01*
X48224534Y-60731522D01*
X48224532Y-60731521D01*
X48224530Y-60731521D01*
X48224529Y-60731520D01*
X48049995Y-60703878D01*
X48033409Y-60701251D01*
X48022354Y-60699500D01*
X48022352Y-60699500D01*
X47817648Y-60699500D01*
X47817647Y-60699500D01*
X47793327Y-60703351D01*
X47793326Y-60703350D01*
X47615468Y-60731521D01*
X47420777Y-60794780D01*
X47420764Y-60794786D01*
X47238397Y-60887708D01*
X47238385Y-60887715D01*
X47072787Y-61008027D01*
X47072784Y-61008029D01*
X46928029Y-61152784D01*
X46928027Y-61152787D01*
X46807715Y-61318385D01*
X46807708Y-61318397D01*
X46714786Y-61500764D01*
X46714780Y-61500777D01*
X46651521Y-61695468D01*
X46619500Y-61897642D01*
X46619500Y-62102356D01*
X46644863Y-62262496D01*
X46644864Y-62262498D01*
X46645369Y-62297788D01*
X46642515Y-62319877D01*
X46621891Y-62373985D01*
X46619373Y-62377667D01*
X46614573Y-62383450D01*
X46614402Y-62383842D01*
X46614062Y-62384066D01*
X46604700Y-62395351D01*
X45474788Y-63525264D01*
X45446538Y-63546413D01*
X45436611Y-63551834D01*
X45419180Y-63555626D01*
X45403524Y-63564173D01*
X45385749Y-63562899D01*
X45368338Y-63566688D01*
X45351626Y-63560455D01*
X45333832Y-63559181D01*
X45319568Y-63548500D01*
X45302873Y-63542274D01*
X45292181Y-63527993D01*
X45277904Y-63517302D01*
X45261010Y-63486355D01*
X45261000Y-63486342D01*
X45258313Y-63479136D01*
X45250500Y-63435816D01*
X45250500Y-60745925D01*
X45225295Y-60619220D01*
X45223724Y-60615947D01*
X45223473Y-60615362D01*
X45176465Y-60501873D01*
X45176464Y-60501872D01*
X45176461Y-60501866D01*
X45105276Y-60395331D01*
X45105273Y-60395327D01*
X45105268Y-60395321D01*
X45014677Y-60304730D01*
X45014671Y-60304725D01*
X45014670Y-60304724D01*
X44908127Y-60233534D01*
X44908128Y-60233534D01*
X44908118Y-60233529D01*
X44789753Y-60184502D01*
X44789733Y-60184495D01*
X44789725Y-60184493D01*
X44664074Y-60159500D01*
X44664071Y-60159500D01*
X44664069Y-60159500D01*
X24777448Y-60159500D01*
X24777445Y-60159499D01*
X24777444Y-60159500D01*
X24742509Y-60154476D01*
X24723620Y-60148929D01*
X24669947Y-60116694D01*
X24659416Y-60105935D01*
X24647715Y-60092085D01*
X24530112Y-59930216D01*
X24379782Y-59779886D01*
X24207824Y-59654953D01*
X24207258Y-59654606D01*
X24205627Y-59653357D01*
X24203901Y-59652103D01*
X24203932Y-59652059D01*
X24186960Y-59639062D01*
X24176683Y-59629357D01*
X24141457Y-59569017D01*
X24144445Y-59499212D01*
X24180613Y-59445493D01*
X24187783Y-59439281D01*
X24204187Y-59427275D01*
X24207816Y-59425051D01*
X24229789Y-59409086D01*
X24379786Y-59300109D01*
X24379787Y-59300106D01*
X24379790Y-59300105D01*
X24379792Y-59300104D01*
X24379793Y-59300102D01*
X24379847Y-59300063D01*
X24380605Y-59299290D01*
X24530104Y-59149792D01*
X24530106Y-59149788D01*
X24530109Y-59149786D01*
X24655048Y-58977820D01*
X24655047Y-58977820D01*
X24655051Y-58977816D01*
X24655053Y-58977810D01*
X24675445Y-58949744D01*
X24683730Y-58921529D01*
X24751557Y-58788412D01*
X24817246Y-58586243D01*
X24850500Y-58376287D01*
X24850500Y-58163713D01*
X24817246Y-57953757D01*
X24751557Y-57751588D01*
X24655051Y-57562184D01*
X24655049Y-57562181D01*
X24655048Y-57562179D01*
X24654702Y-57561703D01*
X24654700Y-57561699D01*
X24530112Y-57390216D01*
X24379782Y-57239886D01*
X24207824Y-57114953D01*
X24207258Y-57114606D01*
X24205627Y-57113357D01*
X24203901Y-57112103D01*
X24203932Y-57112059D01*
X24186960Y-57099062D01*
X24176683Y-57089357D01*
X24141457Y-57029017D01*
X24144445Y-56959212D01*
X24180612Y-56905495D01*
X24187783Y-56899281D01*
X24204201Y-56887266D01*
X24207808Y-56885054D01*
X24207816Y-56885051D01*
X24230071Y-56868881D01*
X24230075Y-56868880D01*
X24379771Y-56760120D01*
X24379845Y-56760065D01*
X24380605Y-56759290D01*
X24530104Y-56609792D01*
X24530106Y-56609788D01*
X24530109Y-56609786D01*
X24655048Y-56437820D01*
X24655047Y-56437820D01*
X24655051Y-56437816D01*
X24655053Y-56437810D01*
X24675445Y-56409744D01*
X24683730Y-56381529D01*
X24751557Y-56248412D01*
X24817246Y-56046243D01*
X24850500Y-55836287D01*
X24850500Y-55623713D01*
X24817246Y-55413757D01*
X24751557Y-55211588D01*
X24655051Y-55022184D01*
X24655049Y-55022181D01*
X24655048Y-55022179D01*
X24654702Y-55021703D01*
X24654700Y-55021699D01*
X24530112Y-54850216D01*
X24379782Y-54699886D01*
X24207824Y-54574953D01*
X24207258Y-54574606D01*
X24205627Y-54573357D01*
X24203901Y-54572103D01*
X24203932Y-54572059D01*
X24186960Y-54559062D01*
X24176683Y-54549357D01*
X24141457Y-54489017D01*
X24144445Y-54419212D01*
X24180612Y-54365495D01*
X24187783Y-54359281D01*
X24204194Y-54347269D01*
X24207794Y-54345062D01*
X24207816Y-54345051D01*
X24320419Y-54263241D01*
X24379786Y-54220109D01*
X24379787Y-54220107D01*
X24379843Y-54220067D01*
X24380605Y-54219290D01*
X24530104Y-54069792D01*
X24530106Y-54069788D01*
X24530109Y-54069786D01*
X24580812Y-53999999D01*
X24651686Y-53902449D01*
X24655045Y-53897824D01*
X24655044Y-53897824D01*
X24655048Y-53897820D01*
X24655047Y-53897820D01*
X24655051Y-53897816D01*
X24751557Y-53708412D01*
X24817246Y-53506243D01*
X24850500Y-53296287D01*
X24850500Y-53083713D01*
X24850500Y-53083708D01*
X24825497Y-52925851D01*
X24819734Y-52889467D01*
X24818364Y-52863869D01*
X24819639Y-52838435D01*
X24838456Y-52778724D01*
X24843213Y-52771145D01*
X24860553Y-52749390D01*
X30425277Y-47184669D01*
X30496465Y-47078127D01*
X30545501Y-46959744D01*
X30556897Y-46902454D01*
X30570500Y-46834069D01*
X30570500Y-45215899D01*
X30575523Y-45180965D01*
X30581798Y-45159594D01*
X30610627Y-45109385D01*
X30613692Y-45106139D01*
X30619341Y-45101174D01*
X30619572Y-45100815D01*
X30619942Y-45100645D01*
X30630950Y-45090968D01*
X30767219Y-44991966D01*
X30911966Y-44847219D01*
X30911968Y-44847215D01*
X30911971Y-44847213D01*
X31013763Y-44707106D01*
X31032287Y-44681610D01*
X31125220Y-44499219D01*
X31188477Y-44304534D01*
X31220500Y-44102352D01*
X31220500Y-43897648D01*
X31212257Y-43845606D01*
X31188477Y-43695465D01*
X31167797Y-43631821D01*
X31157458Y-43599999D01*
X31127829Y-43508812D01*
X31125220Y-43500781D01*
X31125218Y-43500778D01*
X31125218Y-43500776D01*
X31122980Y-43496385D01*
X31122669Y-43495586D01*
X31121932Y-43494327D01*
X31091503Y-43434607D01*
X31032287Y-43318390D01*
X31024556Y-43307749D01*
X30911971Y-43152786D01*
X30767213Y-43008028D01*
X30767212Y-43008027D01*
X30767211Y-43008026D01*
X30612209Y-42895413D01*
X30612205Y-42895410D01*
X30601613Y-42887715D01*
X30601612Y-42887714D01*
X30601610Y-42887713D01*
X30573171Y-42873222D01*
X30544654Y-42858691D01*
X30544653Y-42858691D01*
X30419223Y-42794781D01*
X30224534Y-42731522D01*
X30224532Y-42731521D01*
X30224530Y-42731521D01*
X30224529Y-42731520D01*
X30049995Y-42703878D01*
X30033409Y-42701251D01*
X30022354Y-42699500D01*
X30022352Y-42699500D01*
X29817648Y-42699500D01*
X29817647Y-42699500D01*
X29793327Y-42703351D01*
X29793326Y-42703350D01*
X29615468Y-42731521D01*
X29420777Y-42794780D01*
X29420764Y-42794786D01*
X29238397Y-42887708D01*
X29238385Y-42887715D01*
X29072787Y-43008027D01*
X29072784Y-43008029D01*
X28928029Y-43152784D01*
X28928027Y-43152787D01*
X28807715Y-43318385D01*
X28807708Y-43318397D01*
X28714786Y-43500764D01*
X28714780Y-43500777D01*
X28651521Y-43695468D01*
X28619500Y-43897642D01*
X28619500Y-44102356D01*
X28651521Y-44304530D01*
X28651522Y-44304534D01*
X28656574Y-44320082D01*
X28714780Y-44499221D01*
X28714786Y-44499234D01*
X28807708Y-44681601D01*
X28807712Y-44681608D01*
X28807715Y-44681613D01*
X28928028Y-44847213D01*
X28928029Y-44847214D01*
X29072787Y-44991972D01*
X29141852Y-45042150D01*
X29141857Y-45042152D01*
X29141863Y-45042157D01*
X29203966Y-45087277D01*
X29229268Y-45111866D01*
X29242870Y-45129504D01*
X29266545Y-45182336D01*
X29267369Y-45186725D01*
X29269500Y-45209609D01*
X29269500Y-46431361D01*
X29269499Y-46431363D01*
X29269500Y-46431364D01*
X29264476Y-46466298D01*
X29257064Y-46491539D01*
X29225769Y-46544283D01*
X25074788Y-50695264D01*
X25046538Y-50716413D01*
X25036611Y-50721834D01*
X24968338Y-50736688D01*
X24902873Y-50712274D01*
X24861000Y-50656342D01*
X24858313Y-50649136D01*
X24850500Y-50605816D01*
X24850500Y-50543713D01*
X24818773Y-50343400D01*
X24818772Y-50343393D01*
X24818772Y-50343394D01*
X24817246Y-50333760D01*
X24817246Y-50333757D01*
X24751557Y-50131588D01*
X24751555Y-50131585D01*
X24751555Y-50131583D01*
X24656112Y-49944267D01*
X24655051Y-49942184D01*
X24655049Y-49942181D01*
X24655048Y-49942179D01*
X24654702Y-49941703D01*
X24654700Y-49941699D01*
X24530112Y-49770216D01*
X24429178Y-49669282D01*
X24429173Y-49669277D01*
X24408027Y-49641030D01*
X24401372Y-49628842D01*
X24386521Y-49560572D01*
X24410935Y-49495111D01*
X24413698Y-49491420D01*
X24469621Y-49449562D01*
X24592331Y-49403796D01*
X24707546Y-49317546D01*
X24793796Y-49202331D01*
X24844091Y-49067483D01*
X24850500Y-49007873D01*
X24850499Y-47212128D01*
X24844091Y-47152517D01*
X24816345Y-47078127D01*
X24793797Y-47017671D01*
X24793793Y-47017664D01*
X24707547Y-46902455D01*
X24707544Y-46902452D01*
X24707542Y-46902450D01*
X24616198Y-46834070D01*
X24592335Y-46816206D01*
X24592332Y-46816204D01*
X24592330Y-46816203D01*
X24592328Y-46816202D01*
X24457482Y-46765908D01*
X24457483Y-46765908D01*
X24397883Y-46759501D01*
X24397881Y-46759500D01*
X24397873Y-46759500D01*
X24397864Y-46759500D01*
X24396841Y-46759500D01*
X22602123Y-46759500D01*
X22600192Y-46759659D01*
X22598545Y-46759885D01*
X22542516Y-46765908D01*
X22407666Y-46816204D01*
X22407665Y-46816205D01*
X22292456Y-46902450D01*
X22292455Y-46902452D01*
X22292452Y-46902455D01*
X22249571Y-46959736D01*
X22206205Y-47017665D01*
X22206203Y-47017668D01*
X22155908Y-47152516D01*
X22149500Y-47212125D01*
X22149500Y-49007876D01*
X22149659Y-49009806D01*
X22149885Y-49011454D01*
X22155907Y-49067482D01*
X22183690Y-49141971D01*
X22206202Y-49202328D01*
X22206206Y-49202335D01*
X22249086Y-49259616D01*
X22292450Y-49317542D01*
X22292452Y-49317544D01*
X22292455Y-49317547D01*
X22407664Y-49403793D01*
X22407671Y-49403797D01*
X22522376Y-49446579D01*
X22553350Y-49463491D01*
X22564461Y-49471808D01*
X22606334Y-49527740D01*
X22611321Y-49597432D01*
X22611318Y-49597445D01*
X22610342Y-49601930D01*
X22576860Y-49663244D01*
X22469886Y-49770218D01*
X22344949Y-49942182D01*
X22248445Y-50131580D01*
X22182752Y-50333759D01*
X22149500Y-50543707D01*
X22149500Y-50756291D01*
X22180225Y-50950280D01*
X22182752Y-50966237D01*
X22182753Y-50966241D01*
X22219303Y-51078732D01*
X22248443Y-51168414D01*
X22341407Y-51350864D01*
X22344951Y-51357820D01*
X22469890Y-51529786D01*
X22620213Y-51680109D01*
X22792182Y-51805050D01*
X22792190Y-51805054D01*
X22792693Y-51805363D01*
X22794174Y-51806496D01*
X22796122Y-51807912D01*
X22796086Y-51807960D01*
X22813034Y-51820934D01*
X22823315Y-51830643D01*
X22858541Y-51890983D01*
X22855552Y-51960789D01*
X22819383Y-52014507D01*
X22812227Y-52020708D01*
X22795814Y-52032723D01*
X22792190Y-52034943D01*
X22620210Y-52159892D01*
X22469892Y-52310210D01*
X22469890Y-52310213D01*
X22382955Y-52429871D01*
X22344949Y-52482182D01*
X22248445Y-52671580D01*
X22182752Y-52873759D01*
X22149500Y-53083707D01*
X22149500Y-53296287D01*
X22149499Y-53296289D01*
X22182080Y-53501998D01*
X22182081Y-53501998D01*
X22182754Y-53506245D01*
X22222075Y-53627260D01*
X22244276Y-53695588D01*
X22248444Y-53708414D01*
X22344951Y-53897820D01*
X22469890Y-54069786D01*
X22620213Y-54220109D01*
X22792182Y-54345050D01*
X22792190Y-54345054D01*
X22792693Y-54345363D01*
X22794174Y-54346496D01*
X22796122Y-54347912D01*
X22796086Y-54347960D01*
X22813034Y-54360934D01*
X22823315Y-54370643D01*
X22858541Y-54430983D01*
X22855552Y-54500789D01*
X22819383Y-54554507D01*
X22812227Y-54560708D01*
X22795814Y-54572723D01*
X22792190Y-54574943D01*
X22620210Y-54699892D01*
X22469892Y-54850210D01*
X22469890Y-54850213D01*
X22351951Y-55012545D01*
X22344949Y-55022182D01*
X22248445Y-55211580D01*
X22182752Y-55413759D01*
X22182752Y-55413760D01*
X22173522Y-55472042D01*
X22173522Y-55472043D01*
X22149500Y-55623707D01*
X22149500Y-55836286D01*
X22159147Y-55897198D01*
X22166006Y-55940500D01*
X22175580Y-56000950D01*
X22180265Y-56030529D01*
X22181635Y-56056148D01*
X22180357Y-56081584D01*
X22161530Y-56141296D01*
X22156781Y-56148860D01*
X22139445Y-56170607D01*
X21646424Y-56663627D01*
X21643760Y-56667616D01*
X21643741Y-56667645D01*
X21614052Y-56712079D01*
X21604521Y-56726344D01*
X21604465Y-56726426D01*
X21604444Y-56726459D01*
X21575233Y-56770173D01*
X21575231Y-56770177D01*
X21526202Y-56888545D01*
X21526195Y-56888565D01*
X21526193Y-56888573D01*
X21501200Y-57014223D01*
X21501200Y-66402202D01*
X21495937Y-66420122D01*
X21526194Y-66572226D01*
X21526195Y-66572232D01*
X21526202Y-66572253D01*
X21537507Y-66599545D01*
X21575234Y-66690625D01*
X21644640Y-66794500D01*
X21646429Y-66797177D01*
X21646430Y-66797178D01*
X23548753Y-68699500D01*
X25354525Y-70505272D01*
X25354532Y-70505278D01*
X25461063Y-70576459D01*
X25461067Y-70576461D01*
X25461074Y-70576466D01*
X25509248Y-70596420D01*
X25573861Y-70623183D01*
X25578256Y-70625262D01*
X25579454Y-70625500D01*
X25579456Y-70625501D01*
X25579457Y-70625501D01*
X25579460Y-70625501D01*
X25579461Y-70625502D01*
X25632623Y-70636077D01*
X25705126Y-70650500D01*
X25705128Y-70650500D01*
X25705131Y-70650500D01*
X25833269Y-70650500D01*
X28704100Y-70650500D01*
X28739035Y-70655523D01*
X28760405Y-70661798D01*
X28810597Y-70690613D01*
X28813839Y-70693674D01*
X28818820Y-70699340D01*
X28819183Y-70699573D01*
X28819353Y-70699945D01*
X28829029Y-70710951D01*
X28900380Y-70809158D01*
X28900385Y-70809163D01*
X28914209Y-70828191D01*
X28928032Y-70847217D01*
X28928034Y-70847219D01*
X29072786Y-70991971D01*
X29227749Y-71104556D01*
X29238390Y-71112287D01*
X29354607Y-71171503D01*
X29415154Y-71202353D01*
X29416043Y-71202824D01*
X29416249Y-71203025D01*
X29419629Y-71204662D01*
X29421637Y-71205660D01*
X29425403Y-71206722D01*
X29465488Y-71219746D01*
X29525135Y-71239126D01*
X29525136Y-71239127D01*
X29568612Y-71253253D01*
X29615465Y-71268477D01*
X29716557Y-71284488D01*
X29817648Y-71300500D01*
X29817649Y-71300500D01*
X30022351Y-71300500D01*
X30022352Y-71300500D01*
X30224534Y-71268477D01*
X30419219Y-71205220D01*
X30601610Y-71112287D01*
X30694590Y-71044732D01*
X30767213Y-70991971D01*
X30767213Y-70991969D01*
X30767272Y-70991927D01*
X30768031Y-70991153D01*
X30911966Y-70847219D01*
X30911968Y-70847215D01*
X30911971Y-70847213D01*
X30914699Y-70843459D01*
X31013757Y-70707114D01*
X31013763Y-70707106D01*
X31032287Y-70681610D01*
X31125220Y-70499219D01*
X31188477Y-70304534D01*
X31220500Y-70102352D01*
X31220500Y-69897648D01*
X31212257Y-69845606D01*
X31188477Y-69695465D01*
X31156468Y-69596952D01*
X31125220Y-69500781D01*
X31125218Y-69500778D01*
X31125218Y-69500776D01*
X31122975Y-69496374D01*
X31122666Y-69495582D01*
X31121933Y-69494329D01*
X31095292Y-69442044D01*
X31050590Y-69354312D01*
X31032287Y-69318390D01*
X31017753Y-69298385D01*
X30911971Y-69152786D01*
X30767213Y-69008028D01*
X30767211Y-69008026D01*
X30612209Y-68895413D01*
X30612205Y-68895410D01*
X30601613Y-68887715D01*
X30601612Y-68887714D01*
X30601610Y-68887713D01*
X30573171Y-68873222D01*
X30544654Y-68858691D01*
X30544653Y-68858691D01*
X30419223Y-68794781D01*
X30224534Y-68731522D01*
X30224532Y-68731521D01*
X30224530Y-68731521D01*
X30224529Y-68731520D01*
X30049995Y-68703878D01*
X30033409Y-68701251D01*
X30022354Y-68699500D01*
X30022352Y-68699500D01*
X29817648Y-68699500D01*
X29817647Y-68699500D01*
X29793327Y-68703351D01*
X29793326Y-68703350D01*
X29615468Y-68731521D01*
X29420777Y-68794780D01*
X29420764Y-68794786D01*
X29238397Y-68887708D01*
X29238385Y-68887715D01*
X29072789Y-69008025D01*
X28928033Y-69152780D01*
X28927627Y-69153275D01*
X28926559Y-69154810D01*
X28832725Y-69283962D01*
X28808126Y-69309274D01*
X28790490Y-69322873D01*
X28737687Y-69346540D01*
X28735090Y-69347028D01*
X28733300Y-69347364D01*
X28710389Y-69349500D01*
X26107838Y-69349500D01*
X26107837Y-69349499D01*
X26107837Y-69349500D01*
X26072902Y-69344477D01*
X26047660Y-69337065D01*
X25994915Y-69305769D01*
X24026980Y-67337834D01*
X24005831Y-67309584D01*
X23999176Y-67297396D01*
X23984325Y-67229126D01*
X24008739Y-67163665D01*
X24013801Y-67156903D01*
X24028866Y-67143076D01*
X24035079Y-67133710D01*
X24035081Y-67133709D01*
X24035290Y-67132395D01*
X24035289Y-67132394D01*
X24035289Y-67132393D01*
X23502440Y-66599545D01*
X23468955Y-66538222D01*
X23473939Y-66468531D01*
X23515810Y-66412597D01*
X23558027Y-66392089D01*
X23565823Y-66390000D01*
X23565826Y-66390000D01*
X23692993Y-66355925D01*
X23807007Y-66290099D01*
X23900099Y-66197007D01*
X23965925Y-66082993D01*
X24000000Y-65955826D01*
X24000000Y-65889999D01*
X24207106Y-65889999D01*
X24207106Y-65890001D01*
X24245864Y-65928759D01*
X24742394Y-66425290D01*
X24742394Y-66425289D01*
X24742395Y-66425290D01*
X24742395Y-66425289D01*
X24747049Y-66423361D01*
X24748038Y-66416884D01*
X24750193Y-66409984D01*
X24751093Y-66408220D01*
X24751094Y-66408218D01*
X24816757Y-66206130D01*
X24816757Y-66206127D01*
X24850000Y-65996246D01*
X24850000Y-65783753D01*
X24816757Y-65573872D01*
X24816757Y-65573869D01*
X24752347Y-65375638D01*
X24752117Y-65374897D01*
X24752113Y-65374691D01*
X24751537Y-65372649D01*
X24742396Y-65354708D01*
X24742395Y-65354707D01*
X24245864Y-65851239D01*
X24245864Y-65851240D01*
X24207106Y-65889999D01*
X24000000Y-65889999D01*
X24000000Y-65824174D01*
X23965925Y-65697007D01*
X23900099Y-65582993D01*
X23807007Y-65489901D01*
X23767641Y-65467173D01*
X23692997Y-65424076D01*
X23667930Y-65417359D01*
X23565826Y-65390000D01*
X23565825Y-65390000D01*
X23558025Y-65387910D01*
X23498365Y-65351544D01*
X23467837Y-65288697D01*
X23476132Y-65219321D01*
X23502437Y-65180456D01*
X24047978Y-64634915D01*
X24047978Y-64634910D01*
X24054847Y-64620941D01*
X24055120Y-64618834D01*
X24073749Y-64588914D01*
X24073758Y-64588893D01*
X24080480Y-64580907D01*
X24119047Y-64550280D01*
X24207816Y-64505051D01*
X24259255Y-64467678D01*
X24379786Y-64380109D01*
X24379788Y-64380106D01*
X24379792Y-64380104D01*
X24379795Y-64380100D01*
X24379848Y-64380062D01*
X24380605Y-64379290D01*
X24530104Y-64229792D01*
X24530106Y-64229788D01*
X24530109Y-64229786D01*
X24645697Y-64070691D01*
X24662819Y-64051629D01*
X24681713Y-64034537D01*
X24737249Y-64005617D01*
X24745976Y-64003620D01*
X24773621Y-64000500D01*
X31798762Y-64000500D01*
X31833694Y-64005521D01*
X31858938Y-64012934D01*
X31911684Y-64044230D01*
X33863274Y-65995820D01*
X33884423Y-66024070D01*
X33897031Y-66047159D01*
X33912200Y-66106588D01*
X33912200Y-73662402D01*
X33906937Y-73680322D01*
X33937194Y-73832426D01*
X33937195Y-73832432D01*
X33937202Y-73832453D01*
X33986233Y-73950823D01*
X33986234Y-73950825D01*
X34057426Y-74057373D01*
X34057427Y-74057374D01*
X38000053Y-78000000D01*
X32879877Y-78000000D01*
X34497239Y-76382639D01*
X34228002Y-76202740D01*
X34227997Y-76202737D01*
X34227989Y-76202732D01*
X33774394Y-75940848D01*
X33304631Y-75709187D01*
X33074751Y-75613968D01*
X32820718Y-75508744D01*
X32820707Y-75508740D01*
X32793487Y-75499500D01*
X32324803Y-75340402D01*
X32324757Y-75340386D01*
X32324731Y-75340378D01*
X32324716Y-75340373D01*
X32324709Y-75340371D01*
X32324711Y-75340371D01*
X31818799Y-75204813D01*
X31818741Y-75204800D01*
X31305100Y-75102630D01*
X31305045Y-75102621D01*
X30785769Y-75034257D01*
X30622425Y-75023551D01*
X30263082Y-75000000D01*
X30263071Y-75000000D01*
X29739329Y-75000000D01*
X29739318Y-75000000D01*
X29401111Y-75022166D01*
X29216629Y-75034257D01*
X28697353Y-75102621D01*
X28697298Y-75102630D01*
X28183657Y-75204800D01*
X28183599Y-75204813D01*
X27677688Y-75340371D01*
X27677595Y-75340402D01*
X27181688Y-75508741D01*
X26697767Y-75709187D01*
X26228004Y-75940848D01*
X25774384Y-76202747D01*
X25505159Y-76382636D01*
X25505159Y-76382639D01*
X27122520Y-78000000D01*
X22000000Y-78000000D01*
X22000000Y-93000000D01*
X96000000Y-93000000D01*
X96000000Y-82732113D01*
X97500700Y-82732113D01*
X97500700Y-83267885D01*
X97538921Y-83802278D01*
X97615168Y-84332599D01*
X97729046Y-84856086D01*
X97729057Y-84856130D01*
X97729139Y-84856405D01*
X97866301Y-85323531D01*
X97879994Y-85370165D01*
X97879996Y-85370170D01*
X98047593Y-85819517D01*
X98067228Y-85872160D01*
X98067233Y-85872170D01*
X98289766Y-86359453D01*
X98289932Y-86359777D01*
X98290355Y-86360534D01*
X98515671Y-86773170D01*
X98515685Y-86773194D01*
X98546551Y-86829720D01*
X98546556Y-86829729D01*
X98644618Y-86982316D01*
X98644618Y-86982317D01*
X98644619Y-86982317D01*
X98835180Y-87278838D01*
X98835746Y-87279749D01*
X98836213Y-87280445D01*
X99157266Y-87709322D01*
X99176298Y-87731286D01*
X99320452Y-87897648D01*
X99497828Y-88102351D01*
X99508133Y-88114243D01*
X99508146Y-88114256D01*
X99886943Y-88493053D01*
X99886956Y-88493065D01*
X99886966Y-88493075D01*
X100004448Y-88594874D01*
X100005138Y-88595472D01*
X100005868Y-88596104D01*
X100291882Y-88843938D01*
X100720753Y-89164985D01*
X100721441Y-89165447D01*
X100722354Y-89166014D01*
X101171480Y-89454649D01*
X101331334Y-89541936D01*
X101640628Y-89710824D01*
X101641722Y-89711421D01*
X101645624Y-89713203D01*
X102129039Y-89933970D01*
X102129040Y-89933970D01*
X102129184Y-89934036D01*
X102130113Y-89934371D01*
X102631035Y-90121206D01*
X103145092Y-90272147D01*
X103145102Y-90272150D01*
X103668606Y-90386031D01*
X103668613Y-90386032D01*
X104198922Y-90462279D01*
X104733319Y-90500500D01*
X105269081Y-90500500D01*
X105803478Y-90462279D01*
X106333787Y-90386032D01*
X106333788Y-90386031D01*
X106333793Y-90386031D01*
X106333803Y-90386028D01*
X106338167Y-90385401D01*
X106338171Y-90385401D01*
X106338180Y-90385400D01*
X106343635Y-90384615D01*
X106349004Y-90382722D01*
X106857297Y-90272150D01*
X106857300Y-90272149D01*
X106857305Y-90272148D01*
X106857329Y-90272140D01*
X106857466Y-90272111D01*
X106858403Y-90271845D01*
X106859421Y-90271527D01*
X106994319Y-90231916D01*
X107371365Y-90121206D01*
X107873347Y-89933976D01*
X107926122Y-89909874D01*
X108070001Y-89844167D01*
X108356775Y-89713203D01*
X108356776Y-89713201D01*
X108360681Y-89711419D01*
X108360685Y-89711416D01*
X108360693Y-89711413D01*
X108360699Y-89711409D01*
X108361094Y-89711229D01*
X108362614Y-89710363D01*
X108830920Y-89454649D01*
X109281632Y-89164995D01*
X109284004Y-89163218D01*
X109284011Y-89163228D01*
X109284037Y-89163193D01*
X109710524Y-88843931D01*
X109837362Y-88734025D01*
X110115434Y-88493075D01*
X110494275Y-88114234D01*
X110845124Y-87709332D01*
X110845123Y-87709332D01*
X110845131Y-87709324D01*
X110845142Y-87709308D01*
X110882855Y-87665786D01*
X110889215Y-87650435D01*
X111006075Y-87494327D01*
X111166192Y-87280436D01*
X111166191Y-87280436D01*
X111166195Y-87280432D01*
X111166201Y-87280421D01*
X111168854Y-87276879D01*
X111198759Y-87236930D01*
X111204364Y-87221038D01*
X111455849Y-86829720D01*
X111712613Y-86359493D01*
X111712616Y-86359485D01*
X111712619Y-86359481D01*
X111714044Y-86356359D01*
X111714067Y-86356315D01*
X111714373Y-86355647D01*
X111714403Y-86355575D01*
X111933489Y-85875842D01*
X111934083Y-85874539D01*
X111935170Y-85872160D01*
X111935169Y-85872160D01*
X111935176Y-85872147D01*
X111935180Y-85872134D01*
X111935252Y-85871978D01*
X111953683Y-85831619D01*
X111956862Y-85814004D01*
X112122406Y-85370165D01*
X112273348Y-84856105D01*
X112273350Y-84856097D01*
X112387231Y-84332593D01*
X112387232Y-84332587D01*
X112463479Y-83802278D01*
X112501700Y-83267881D01*
X112501700Y-82732119D01*
X112463479Y-82197722D01*
X112387232Y-81667413D01*
X112387231Y-81667406D01*
X112273350Y-81143902D01*
X112273347Y-81143892D01*
X112182753Y-80835358D01*
X112122406Y-80629835D01*
X111935176Y-80127853D01*
X111935163Y-80127825D01*
X111738381Y-79696931D01*
X111738217Y-79696571D01*
X111712619Y-79640518D01*
X111712615Y-79640511D01*
X111456929Y-79172258D01*
X111456416Y-79171277D01*
X111455850Y-79170283D01*
X111455849Y-79170280D01*
X111167214Y-78721154D01*
X111166647Y-78720241D01*
X111166185Y-78719553D01*
X110845132Y-78290676D01*
X110631397Y-78044013D01*
X110494270Y-77885760D01*
X110115444Y-77506934D01*
X110115430Y-77506922D01*
X109885456Y-77307648D01*
X109710524Y-77156068D01*
X109710519Y-77156064D01*
X109710513Y-77156059D01*
X109710501Y-77156050D01*
X109281645Y-76835013D01*
X109280949Y-76834546D01*
X109280038Y-76833980D01*
X109093466Y-76714078D01*
X108830920Y-76545351D01*
X108830905Y-76545343D01*
X108532936Y-76382639D01*
X108361734Y-76289155D01*
X108360977Y-76288732D01*
X108360686Y-76288583D01*
X108360681Y-76288580D01*
X108360674Y-76288577D01*
X108360653Y-76288566D01*
X107873373Y-76066034D01*
X107735656Y-76014668D01*
X107371359Y-75878791D01*
X107371355Y-75878790D01*
X106857610Y-75727941D01*
X106857330Y-75727857D01*
X106857286Y-75727846D01*
X106333799Y-75613968D01*
X105803478Y-75537721D01*
X105269085Y-75499500D01*
X105269083Y-75499500D01*
X105269081Y-75499500D01*
X104733319Y-75499500D01*
X104733316Y-75499500D01*
X104733313Y-75499500D01*
X104198920Y-75537721D01*
X103668599Y-75613968D01*
X103145112Y-75727846D01*
X103145070Y-75727857D01*
X103144788Y-75727941D01*
X102631039Y-75878792D01*
X102129025Y-76066034D01*
X101641745Y-76288566D01*
X101641413Y-76288736D01*
X101640664Y-76289155D01*
X101171492Y-76545343D01*
X100722360Y-76833980D01*
X100721454Y-76834542D01*
X100720753Y-76835013D01*
X100291882Y-77156060D01*
X99886955Y-77506934D01*
X99886946Y-77506942D01*
X99508142Y-77885746D01*
X99508134Y-77885755D01*
X99157260Y-78290682D01*
X98836213Y-78719553D01*
X98835742Y-78720254D01*
X98835180Y-78721160D01*
X98546543Y-79170292D01*
X98290355Y-79639464D01*
X98289936Y-79640213D01*
X98289766Y-79640545D01*
X98067234Y-80127825D01*
X97879992Y-80629839D01*
X97729141Y-81143588D01*
X97729057Y-81143870D01*
X97729046Y-81143912D01*
X97615168Y-81667399D01*
X97538921Y-82197720D01*
X97500700Y-82732113D01*
X96000000Y-82732113D01*
X96000000Y-78000000D01*
X74558965Y-78000000D01*
X74605220Y-77909219D01*
X74668477Y-77714534D01*
X74700500Y-77512352D01*
X74700500Y-77307648D01*
X74668477Y-77105466D01*
X74659582Y-77078091D01*
X74655043Y-77059187D01*
X74652025Y-77040127D01*
X74650500Y-77020741D01*
X74650500Y-63205092D01*
X79582010Y-63205092D01*
X79582011Y-63205093D01*
X79775588Y-63267990D01*
X79977683Y-63300000D01*
X80182316Y-63300000D01*
X80182317Y-63300000D01*
X80384411Y-63267990D01*
X80577987Y-63205093D01*
X80080001Y-62707106D01*
X80079999Y-62707106D01*
X79582010Y-63205092D01*
X74650500Y-63205092D01*
X74650500Y-61897682D01*
X78780000Y-61897682D01*
X78780000Y-62102317D01*
X78805370Y-62262498D01*
X78810483Y-62294776D01*
X78810484Y-62294784D01*
X78812010Y-62304424D01*
X78874903Y-62497987D01*
X78874904Y-62497987D01*
X79372893Y-62000000D01*
X79320232Y-61947339D01*
X79680000Y-61947339D01*
X79680000Y-62052661D01*
X79704076Y-62142512D01*
X79707259Y-62154393D01*
X79707260Y-62154396D01*
X79759917Y-62245602D01*
X79759919Y-62245605D01*
X79759920Y-62245606D01*
X79834394Y-62320080D01*
X79925606Y-62372741D01*
X80027339Y-62400000D01*
X80132659Y-62400000D01*
X80132661Y-62400000D01*
X80234394Y-62372741D01*
X80325606Y-62320080D01*
X80400080Y-62245606D01*
X80452741Y-62154394D01*
X80480000Y-62052661D01*
X80480000Y-61999998D01*
X80787106Y-61999998D01*
X80787106Y-61999999D01*
X80787106Y-62000000D01*
X81285093Y-62497986D01*
X81347990Y-62304411D01*
X81380000Y-62102317D01*
X81380000Y-61897682D01*
X81347990Y-61695588D01*
X81290230Y-61517820D01*
X81285093Y-61502010D01*
X80787106Y-61999998D01*
X80480000Y-61999998D01*
X80480000Y-61947339D01*
X80452741Y-61845606D01*
X80400080Y-61754394D01*
X80325606Y-61679920D01*
X80325605Y-61679919D01*
X80325602Y-61679917D01*
X80234396Y-61627260D01*
X80234395Y-61627259D01*
X80234394Y-61627259D01*
X80132661Y-61600000D01*
X80132660Y-61600000D01*
X80027339Y-61600000D01*
X79925606Y-61627259D01*
X79925603Y-61627260D01*
X79834397Y-61679917D01*
X79834392Y-61679921D01*
X79759921Y-61754392D01*
X79759917Y-61754397D01*
X79707260Y-61845603D01*
X79707259Y-61845606D01*
X79680000Y-61947339D01*
X79320232Y-61947339D01*
X78874904Y-61502011D01*
X78874903Y-61502010D01*
X78812010Y-61695574D01*
X78810540Y-61704859D01*
X78780000Y-61897682D01*
X74650500Y-61897682D01*
X74650500Y-60794903D01*
X79582010Y-60794903D01*
X79582011Y-60794904D01*
X80080000Y-61292893D01*
X80080001Y-61292893D01*
X80577987Y-60794905D01*
X80577987Y-60794904D01*
X80577987Y-60794903D01*
X80384423Y-60732010D01*
X80384420Y-60732010D01*
X80229701Y-60707505D01*
X80182317Y-60700000D01*
X80182316Y-60700000D01*
X79977684Y-60700000D01*
X79977683Y-60700000D01*
X79785222Y-60730483D01*
X79785214Y-60730483D01*
X79785215Y-60730484D01*
X79775574Y-60732010D01*
X79582010Y-60794903D01*
X74650500Y-60794903D01*
X74650500Y-59205092D01*
X79582010Y-59205092D01*
X79582011Y-59205093D01*
X79775588Y-59267990D01*
X79977683Y-59300000D01*
X80182316Y-59300000D01*
X80182317Y-59300000D01*
X80384411Y-59267990D01*
X80577987Y-59205093D01*
X80080001Y-58707106D01*
X80079999Y-58707106D01*
X79582010Y-59205092D01*
X74650500Y-59205092D01*
X74650500Y-57897682D01*
X78780000Y-57897682D01*
X78780000Y-58102317D01*
X78806453Y-58269336D01*
X78810483Y-58294776D01*
X78810484Y-58294784D01*
X78812010Y-58304424D01*
X78874903Y-58497987D01*
X78874904Y-58497987D01*
X78874905Y-58497987D01*
X79372893Y-58000000D01*
X79320232Y-57947339D01*
X79680000Y-57947339D01*
X79680000Y-58052661D01*
X79693431Y-58102784D01*
X79707259Y-58154393D01*
X79707260Y-58154396D01*
X79759917Y-58245602D01*
X79759919Y-58245605D01*
X79759920Y-58245606D01*
X79834394Y-58320080D01*
X79925606Y-58372741D01*
X80027339Y-58400000D01*
X80132659Y-58400000D01*
X80132661Y-58400000D01*
X80234394Y-58372741D01*
X80325606Y-58320080D01*
X80400080Y-58245606D01*
X80452741Y-58154394D01*
X80480000Y-58052661D01*
X80480000Y-57999998D01*
X80787106Y-57999998D01*
X80787106Y-57999999D01*
X80787106Y-58000000D01*
X81285093Y-58497986D01*
X81347990Y-58304411D01*
X81380000Y-58102317D01*
X81380000Y-57897682D01*
X81347990Y-57695588D01*
X81299909Y-57547611D01*
X81285093Y-57502010D01*
X80787106Y-57999998D01*
X80480000Y-57999998D01*
X80480000Y-57947339D01*
X80452741Y-57845606D01*
X80400080Y-57754394D01*
X80325606Y-57679920D01*
X80325605Y-57679919D01*
X80325602Y-57679917D01*
X80234396Y-57627260D01*
X80234395Y-57627259D01*
X80234394Y-57627259D01*
X80132661Y-57600000D01*
X80132660Y-57600000D01*
X80027339Y-57600000D01*
X79925606Y-57627259D01*
X79925603Y-57627260D01*
X79834397Y-57679917D01*
X79834392Y-57679921D01*
X79759921Y-57754392D01*
X79759917Y-57754397D01*
X79707260Y-57845603D01*
X79707259Y-57845606D01*
X79680000Y-57947339D01*
X79320232Y-57947339D01*
X78874904Y-57502011D01*
X78874903Y-57502010D01*
X78812010Y-57695574D01*
X78810540Y-57704859D01*
X78780000Y-57897682D01*
X74650500Y-57897682D01*
X74650500Y-56794903D01*
X79582010Y-56794903D01*
X79582011Y-56794904D01*
X80080000Y-57292893D01*
X80080001Y-57292893D01*
X80577987Y-56794905D01*
X80577987Y-56794904D01*
X80577987Y-56794903D01*
X80384423Y-56732010D01*
X80384420Y-56732010D01*
X80258580Y-56712079D01*
X80182317Y-56700000D01*
X80182316Y-56700000D01*
X79977684Y-56700000D01*
X79977683Y-56700000D01*
X79785222Y-56730483D01*
X79785214Y-56730483D01*
X79785215Y-56730484D01*
X79775574Y-56732010D01*
X79582010Y-56794903D01*
X74650500Y-56794903D01*
X74650500Y-55205092D01*
X79582010Y-55205092D01*
X79582011Y-55205093D01*
X79775588Y-55267990D01*
X79977683Y-55300000D01*
X80182316Y-55300000D01*
X80182317Y-55300000D01*
X80384411Y-55267990D01*
X80577987Y-55205093D01*
X80080001Y-54707106D01*
X80079999Y-54707106D01*
X79582010Y-55205092D01*
X74650500Y-55205092D01*
X74650500Y-53897682D01*
X78780000Y-53897682D01*
X78780000Y-54102317D01*
X78805487Y-54263236D01*
X78810483Y-54294776D01*
X78810484Y-54294784D01*
X78812010Y-54304421D01*
X78874903Y-54497987D01*
X78874904Y-54497987D01*
X78874905Y-54497987D01*
X79372893Y-54000000D01*
X79320232Y-53947339D01*
X79680000Y-53947339D01*
X79680000Y-54052661D01*
X79705125Y-54146427D01*
X79707259Y-54154393D01*
X79707259Y-54154394D01*
X79759917Y-54245602D01*
X79759919Y-54245605D01*
X79759920Y-54245606D01*
X79834394Y-54320080D01*
X79925606Y-54372741D01*
X80027339Y-54400000D01*
X80132659Y-54400000D01*
X80132661Y-54400000D01*
X80234394Y-54372741D01*
X80325606Y-54320080D01*
X80400080Y-54245606D01*
X80452741Y-54154394D01*
X80480000Y-54052661D01*
X80480000Y-53999998D01*
X80787106Y-53999998D01*
X80787106Y-53999999D01*
X80787106Y-54000000D01*
X81285093Y-54497986D01*
X81347990Y-54304411D01*
X81380000Y-54102317D01*
X81380000Y-53897682D01*
X81347990Y-53695588D01*
X81285093Y-53502011D01*
X81285093Y-53502010D01*
X80787106Y-53999998D01*
X80480000Y-53999998D01*
X80480000Y-53947339D01*
X80452741Y-53845606D01*
X80400080Y-53754394D01*
X80325606Y-53679920D01*
X80325605Y-53679919D01*
X80325602Y-53679917D01*
X80234396Y-53627260D01*
X80234395Y-53627259D01*
X80234394Y-53627259D01*
X80132661Y-53600000D01*
X80132660Y-53600000D01*
X80027339Y-53600000D01*
X79925606Y-53627259D01*
X79925603Y-53627260D01*
X79834397Y-53679917D01*
X79834392Y-53679921D01*
X79759921Y-53754392D01*
X79759917Y-53754397D01*
X79707260Y-53845603D01*
X79707259Y-53845606D01*
X79680000Y-53947339D01*
X79320232Y-53947339D01*
X78874904Y-53502011D01*
X78874903Y-53502010D01*
X78812010Y-53695574D01*
X78810540Y-53704859D01*
X78780000Y-53897682D01*
X74650500Y-53897682D01*
X74650500Y-52794903D01*
X79582010Y-52794903D01*
X79582011Y-52794904D01*
X80080000Y-53292893D01*
X80080001Y-53292893D01*
X80577987Y-52794905D01*
X80577987Y-52794904D01*
X80577987Y-52794903D01*
X80384423Y-52732010D01*
X80384420Y-52732010D01*
X80283368Y-52716005D01*
X80182317Y-52700000D01*
X80182316Y-52700000D01*
X79977684Y-52700000D01*
X79977683Y-52700000D01*
X79785222Y-52730483D01*
X79785214Y-52730483D01*
X79785215Y-52730484D01*
X79775574Y-52732010D01*
X79582010Y-52794903D01*
X74650500Y-52794903D01*
X74650500Y-35629500D01*
X74670185Y-35562461D01*
X74722989Y-35516706D01*
X74774500Y-35505500D01*
X77075490Y-35505500D01*
X77075500Y-35505500D01*
X77182956Y-35493947D01*
X77234467Y-35482741D01*
X77268697Y-35471347D01*
X77336997Y-35448616D01*
X77337001Y-35448613D01*
X77337004Y-35448613D01*
X77458043Y-35370825D01*
X77510847Y-35325070D01*
X77605067Y-35216336D01*
X77664838Y-35085459D01*
X77684523Y-35018420D01*
X77684524Y-35018416D01*
X77705000Y-34876000D01*
X77705000Y-25924500D01*
X77693447Y-25817044D01*
X77682241Y-25765533D01*
X77682137Y-25765222D01*
X77648116Y-25663002D01*
X77648113Y-25662996D01*
X77572506Y-25545351D01*
X77570325Y-25541957D01*
X77570320Y-25541951D01*
X77524576Y-25489159D01*
X77524572Y-25489156D01*
X77524570Y-25489153D01*
X77415836Y-25394933D01*
X77415833Y-25394931D01*
X77415831Y-25394930D01*
X77284965Y-25335164D01*
X77284960Y-25335162D01*
X77284959Y-25335162D01*
X77217920Y-25315477D01*
X77217922Y-25315477D01*
X77217917Y-25315476D01*
X77155847Y-25306552D01*
X77075500Y-25295000D01*
X77075498Y-25295000D01*
X71924510Y-25295000D01*
X71924500Y-25295000D01*
X71924491Y-25295000D01*
X71924490Y-25295001D01*
X71817049Y-25306552D01*
X71817037Y-25306554D01*
X71765527Y-25317760D01*
X71663002Y-25351883D01*
X71662996Y-25351886D01*
X71541962Y-25429671D01*
X71541951Y-25429679D01*
X71489159Y-25475423D01*
X71394933Y-25584164D01*
X71394930Y-25584168D01*
X71335164Y-25715034D01*
X71315476Y-25782082D01*
X71307934Y-25834542D01*
X71295002Y-25924490D01*
X71295000Y-25924501D01*
X71295000Y-26382840D01*
X71275315Y-26449879D01*
X71222511Y-26495634D01*
X71153353Y-26505578D01*
X71151602Y-26505313D01*
X71118056Y-26500000D01*
X71118052Y-26500000D01*
X70881948Y-26500000D01*
X70881944Y-26500000D01*
X70848398Y-26505313D01*
X70779104Y-26496358D01*
X70725652Y-26451362D01*
X70705013Y-26384610D01*
X70705000Y-26382840D01*
X70705000Y-25924510D01*
X70705000Y-25924500D01*
X70693447Y-25817044D01*
X70682241Y-25765533D01*
X70682137Y-25765222D01*
X70648116Y-25663002D01*
X70648113Y-25662996D01*
X70572506Y-25545351D01*
X70570325Y-25541957D01*
X70570320Y-25541951D01*
X70524576Y-25489159D01*
X70524572Y-25489156D01*
X70524570Y-25489153D01*
X70415836Y-25394933D01*
X70415833Y-25394931D01*
X70415831Y-25394930D01*
X70284965Y-25335164D01*
X70284960Y-25335162D01*
X70284959Y-25335162D01*
X70217920Y-25315477D01*
X70217922Y-25315477D01*
X70217917Y-25315476D01*
X70155847Y-25306552D01*
X70075500Y-25295000D01*
X70075498Y-25295000D01*
X57424510Y-25295000D01*
X57424500Y-25295000D01*
X57424491Y-25295000D01*
X57424490Y-25295001D01*
X57317049Y-25306552D01*
X57317037Y-25306554D01*
X57265527Y-25317760D01*
X57163002Y-25351883D01*
X57162996Y-25351886D01*
X57041962Y-25429671D01*
X57041951Y-25429679D01*
X56989159Y-25475423D01*
X56894933Y-25584164D01*
X56894930Y-25584168D01*
X56835164Y-25715034D01*
X56815476Y-25782082D01*
X56807934Y-25834542D01*
X56795002Y-25924490D01*
X56795000Y-25924501D01*
X56795000Y-26585332D01*
X56775315Y-26652371D01*
X56722511Y-26698126D01*
X56653353Y-26708070D01*
X56651603Y-26707805D01*
X56602323Y-26700000D01*
X56602317Y-26700000D01*
X56397683Y-26700000D01*
X56397677Y-26700000D01*
X56348397Y-26707805D01*
X56279104Y-26698850D01*
X56225652Y-26653854D01*
X56205013Y-26587102D01*
X56205000Y-26585332D01*
X56205000Y-24983153D01*
X56207382Y-24958964D01*
X56207383Y-24958961D01*
X56213956Y-24925914D01*
X56221006Y-24902674D01*
X56233902Y-24871539D01*
X56245351Y-24850119D01*
X56264079Y-24822090D01*
X56279488Y-24803316D01*
X56303314Y-24779489D01*
X56322098Y-24764074D01*
X56350111Y-24745356D01*
X56371545Y-24733900D01*
X56402668Y-24721008D01*
X56425918Y-24713955D01*
X56458970Y-24707381D01*
X56483154Y-24705000D01*
X80516842Y-24705000D01*
X80541027Y-24707381D01*
X80574079Y-24713956D01*
X80597325Y-24721006D01*
X80628458Y-24733902D01*
X80649890Y-24745359D01*
X80677898Y-24764074D01*
X80696685Y-24779492D01*
X80720502Y-24803308D01*
X80735925Y-24822100D01*
X80754638Y-24850106D01*
X80766098Y-24871546D01*
X80778990Y-24902671D01*
X80786045Y-24925927D01*
X80792617Y-24958961D01*
X80795000Y-24983156D01*
X80795000Y-26585332D01*
X80775315Y-26652371D01*
X80722511Y-26698126D01*
X80653353Y-26708070D01*
X80651603Y-26707805D01*
X80602323Y-26700000D01*
X80602317Y-26700000D01*
X80397683Y-26700000D01*
X80397677Y-26700000D01*
X80348397Y-26707805D01*
X80279104Y-26698850D01*
X80225652Y-26653854D01*
X80205013Y-26587102D01*
X80205000Y-26585332D01*
X80205000Y-25924510D01*
X80205000Y-25924500D01*
X80193447Y-25817044D01*
X80182241Y-25765533D01*
X80182137Y-25765222D01*
X80148116Y-25663002D01*
X80148113Y-25662996D01*
X80072506Y-25545351D01*
X80070325Y-25541957D01*
X80070320Y-25541951D01*
X80024576Y-25489159D01*
X80024572Y-25489156D01*
X80024570Y-25489153D01*
X79915836Y-25394933D01*
X79915833Y-25394931D01*
X79915831Y-25394930D01*
X79784965Y-25335164D01*
X79784960Y-25335162D01*
X79784959Y-25335162D01*
X79717920Y-25315477D01*
X79717922Y-25315477D01*
X79717917Y-25315476D01*
X79655847Y-25306552D01*
X79575500Y-25295000D01*
X79575498Y-25295000D01*
X78924510Y-25295000D01*
X78924500Y-25295000D01*
X78924491Y-25295000D01*
X78924490Y-25295001D01*
X78817049Y-25306552D01*
X78817037Y-25306554D01*
X78765527Y-25317760D01*
X78663002Y-25351883D01*
X78662996Y-25351886D01*
X78541962Y-25429671D01*
X78541951Y-25429679D01*
X78489159Y-25475423D01*
X78394933Y-25584164D01*
X78394930Y-25584168D01*
X78335164Y-25715034D01*
X78315476Y-25782082D01*
X78307934Y-25834542D01*
X78295000Y-25924500D01*
X78295000Y-34876000D01*
X78295001Y-34876009D01*
X78306552Y-34983450D01*
X78306554Y-34983462D01*
X78317760Y-35034972D01*
X78351883Y-35137497D01*
X78351886Y-35137503D01*
X78429671Y-35258537D01*
X78429679Y-35258548D01*
X78475423Y-35311340D01*
X78475426Y-35311343D01*
X78475430Y-35311347D01*
X78584164Y-35405567D01*
X78584167Y-35405568D01*
X78584168Y-35405569D01*
X78678425Y-35448616D01*
X78715041Y-35465338D01*
X78782080Y-35485023D01*
X78782084Y-35485024D01*
X78924500Y-35505500D01*
X86624300Y-35505500D01*
X86691339Y-35525185D01*
X86737094Y-35577989D01*
X86748300Y-35629500D01*
X86748300Y-57131133D01*
X86760574Y-57224352D01*
X86762620Y-57239890D01*
X86782530Y-57391116D01*
X86834143Y-57583738D01*
X86838500Y-57600000D01*
X86850403Y-57644424D01*
X86850404Y-57644425D01*
X86850405Y-57644428D01*
X86852773Y-57650144D01*
X86950750Y-57886685D01*
X86950810Y-57886805D01*
X86951249Y-57887548D01*
X87035373Y-58033258D01*
X87045968Y-58057099D01*
X87053963Y-58081827D01*
X87058462Y-58100657D01*
X87058796Y-58102781D01*
X87058799Y-58102791D01*
X87058801Y-58102798D01*
X87113986Y-58269335D01*
X87113987Y-58269336D01*
X87113990Y-58269343D01*
X87177269Y-58371932D01*
X87206086Y-58418651D01*
X87206089Y-58418655D01*
X87206091Y-58418657D01*
X87206093Y-58418660D01*
X87330138Y-58542705D01*
X87330141Y-58542707D01*
X87330144Y-58542710D01*
X87330148Y-58542713D01*
X87330156Y-58542718D01*
X87330163Y-58542723D01*
X87477615Y-58633673D01*
X87479462Y-58634812D01*
X87479463Y-58634812D01*
X87479662Y-58634935D01*
X87481993Y-58635651D01*
X87646003Y-58689999D01*
X87646004Y-58689999D01*
X87652625Y-58691416D01*
X87652535Y-58691835D01*
X87667269Y-58694932D01*
X87691693Y-58702828D01*
X87715545Y-58713428D01*
X87855667Y-58794327D01*
X87856174Y-58794662D01*
X87861714Y-58797820D01*
X87862311Y-58798163D01*
X87864465Y-58799407D01*
X87869609Y-58801153D01*
X87906576Y-58816465D01*
X88104371Y-58898394D01*
X88104381Y-58898398D01*
X88357684Y-58966270D01*
X88617680Y-59000500D01*
X88617687Y-59000500D01*
X88879913Y-59000500D01*
X88879920Y-59000500D01*
X89139916Y-58966270D01*
X89393219Y-58898398D01*
X89635497Y-58798043D01*
X89635504Y-58798038D01*
X89635508Y-58798037D01*
X89679824Y-58772450D01*
X89782061Y-58713423D01*
X89805898Y-58702830D01*
X89830335Y-58694930D01*
X89845063Y-58691837D01*
X89844974Y-58691417D01*
X89851594Y-58690000D01*
X89876940Y-58681601D01*
X90018134Y-58634814D01*
X90167455Y-58542711D01*
X90291511Y-58418655D01*
X90383614Y-58269334D01*
X90438799Y-58102797D01*
X90438798Y-58102797D01*
X90438801Y-58102791D01*
X90440217Y-58096174D01*
X90440637Y-58096263D01*
X90443730Y-58081535D01*
X90451630Y-58057098D01*
X90462223Y-58033261D01*
X90537812Y-57902339D01*
X90546837Y-57886708D01*
X90546838Y-57886704D01*
X90546843Y-57886697D01*
X90647198Y-57644419D01*
X90715070Y-57391116D01*
X90749300Y-57131120D01*
X90749300Y-56888574D01*
X94548800Y-56888574D01*
X94548800Y-57111424D01*
X94577883Y-57332344D01*
X94577886Y-57332357D01*
X94577891Y-57332382D01*
X94635563Y-57547617D01*
X94635566Y-57547627D01*
X94720841Y-57753497D01*
X94720897Y-57753609D01*
X94721338Y-57754358D01*
X94745494Y-57796197D01*
X94745494Y-57796196D01*
X94745495Y-57796197D01*
X95457605Y-57084088D01*
X95518928Y-57050603D01*
X95588620Y-57055587D01*
X95644553Y-57097459D01*
X95665059Y-57139673D01*
X95668574Y-57152787D01*
X95689689Y-57231592D01*
X95694480Y-57239890D01*
X95768681Y-57368408D01*
X95880392Y-57480119D01*
X96017209Y-57559111D01*
X96109124Y-57583739D01*
X96168782Y-57620103D01*
X96199312Y-57682949D01*
X96191018Y-57752325D01*
X96164710Y-57791194D01*
X95452600Y-58503303D01*
X95452600Y-58503304D01*
X95452600Y-58503305D01*
X95491771Y-58525920D01*
X95494534Y-58527638D01*
X95495286Y-58527949D01*
X95495287Y-58527950D01*
X95495288Y-58527951D01*
X95701181Y-58613236D01*
X95784856Y-58635656D01*
X95916416Y-58670907D01*
X95916420Y-58670907D01*
X95916432Y-58670911D01*
X95916445Y-58670914D01*
X96137375Y-58700000D01*
X96360218Y-58700000D01*
X96360225Y-58700000D01*
X96581154Y-58670914D01*
X96581167Y-58670911D01*
X96796418Y-58613236D01*
X97002300Y-58527956D01*
X97002316Y-58527948D01*
X97044998Y-58503305D01*
X97044998Y-58503304D01*
X96690391Y-58148697D01*
X96332889Y-57791194D01*
X96299404Y-57729871D01*
X96304388Y-57660179D01*
X96346260Y-57604246D01*
X96388473Y-57583740D01*
X96480391Y-57559111D01*
X96617208Y-57480119D01*
X96728919Y-57368408D01*
X96807911Y-57231591D01*
X96832540Y-57139673D01*
X96868902Y-57080016D01*
X96931749Y-57049486D01*
X97001124Y-57057780D01*
X97039994Y-57084088D01*
X97752104Y-57796198D01*
X97752105Y-57796198D01*
X97776748Y-57753516D01*
X97776756Y-57753500D01*
X97862036Y-57547618D01*
X97919711Y-57332367D01*
X97919714Y-57332354D01*
X97948800Y-57111424D01*
X97948800Y-56888575D01*
X97919714Y-56667645D01*
X97919711Y-56667632D01*
X97918637Y-56663625D01*
X97901203Y-56598557D01*
X97862036Y-56452381D01*
X97776751Y-56246488D01*
X97776750Y-56246487D01*
X97776748Y-56246484D01*
X97776439Y-56245737D01*
X97774725Y-56242979D01*
X97752104Y-56203800D01*
X97752103Y-56203799D01*
X97039994Y-56915910D01*
X96978671Y-56949395D01*
X96908980Y-56944411D01*
X96853046Y-56902539D01*
X96832540Y-56860326D01*
X96807911Y-56768409D01*
X96728919Y-56631592D01*
X96617208Y-56519881D01*
X96548799Y-56480385D01*
X96480392Y-56440889D01*
X96449208Y-56432533D01*
X96388474Y-56416260D01*
X96328815Y-56379896D01*
X96298286Y-56317049D01*
X96306581Y-56247674D01*
X96332886Y-56208807D01*
X97044998Y-55496694D01*
X97044997Y-55496692D01*
X97003177Y-55472548D01*
X97002424Y-55472105D01*
X97002297Y-55472041D01*
X96796427Y-55386766D01*
X96796420Y-55386764D01*
X96796418Y-55386763D01*
X96751609Y-55374756D01*
X96581182Y-55329091D01*
X96581167Y-55329088D01*
X96581154Y-55329085D01*
X96581150Y-55329084D01*
X96581144Y-55329083D01*
X96360226Y-55300000D01*
X96360225Y-55300000D01*
X96137375Y-55300000D01*
X96137374Y-55300000D01*
X95916454Y-55329083D01*
X95916441Y-55329086D01*
X95916416Y-55329091D01*
X95701181Y-55386763D01*
X95701171Y-55386766D01*
X95495303Y-55472040D01*
X95452601Y-55496694D01*
X96164711Y-56208804D01*
X96198196Y-56270127D01*
X96193212Y-56339819D01*
X96151340Y-56395752D01*
X96109125Y-56416259D01*
X96017209Y-56440888D01*
X95880392Y-56519881D01*
X95880389Y-56519883D01*
X95768683Y-56631589D01*
X95768681Y-56631592D01*
X95689688Y-56768409D01*
X95665059Y-56860325D01*
X95628694Y-56919985D01*
X95565847Y-56950513D01*
X95496471Y-56942218D01*
X95457604Y-56915911D01*
X94745494Y-56203801D01*
X94720840Y-56246503D01*
X94635566Y-56452371D01*
X94635563Y-56452381D01*
X94577891Y-56667616D01*
X94577888Y-56667630D01*
X94577888Y-56667632D01*
X94577885Y-56667645D01*
X94567596Y-56745800D01*
X94548800Y-56888574D01*
X90749300Y-56888574D01*
X90749300Y-35629500D01*
X90768985Y-35562461D01*
X90821789Y-35516706D01*
X90873300Y-35505500D01*
X95875990Y-35505500D01*
X95876000Y-35505500D01*
X95983456Y-35493947D01*
X96034967Y-35482741D01*
X96069197Y-35471347D01*
X96137497Y-35448616D01*
X96137501Y-35448613D01*
X96137504Y-35448613D01*
X96258543Y-35370825D01*
X96311347Y-35325070D01*
X96405567Y-35216336D01*
X96465338Y-35085459D01*
X96485023Y-35018420D01*
X96485024Y-35018416D01*
X96505500Y-34876000D01*
X96505500Y-31732113D01*
X97500700Y-31732113D01*
X97500700Y-32267885D01*
X97538921Y-32802278D01*
X97615168Y-33332599D01*
X97729046Y-33856086D01*
X97729057Y-33856130D01*
X97729141Y-33856410D01*
X97879992Y-34370159D01*
X98067234Y-34872173D01*
X98289766Y-35359453D01*
X98289925Y-35359764D01*
X98290347Y-35360520D01*
X98369513Y-35505500D01*
X98546545Y-35829710D01*
X98835180Y-36278838D01*
X98835746Y-36279749D01*
X98836213Y-36280445D01*
X99157250Y-36709301D01*
X99157259Y-36709313D01*
X99157264Y-36709319D01*
X99157268Y-36709324D01*
X99401535Y-36991222D01*
X99508125Y-37114234D01*
X99508134Y-37114243D01*
X99508146Y-37114256D01*
X99508826Y-37114936D01*
X99886960Y-37493070D01*
X100045213Y-37630197D01*
X100291876Y-37843932D01*
X100720753Y-38164985D01*
X100721441Y-38165447D01*
X100722354Y-38166014D01*
X101171480Y-38454649D01*
X101455528Y-38609751D01*
X101640628Y-38710824D01*
X101641722Y-38711421D01*
X101645624Y-38713203D01*
X102129039Y-38933970D01*
X102129040Y-38933970D01*
X102129184Y-38934036D01*
X102130113Y-38934371D01*
X102631035Y-39121206D01*
X103145092Y-39272147D01*
X103145102Y-39272150D01*
X103668606Y-39386031D01*
X103668613Y-39386032D01*
X104198922Y-39462279D01*
X104733319Y-39500500D01*
X105269081Y-39500500D01*
X105803478Y-39462279D01*
X106333787Y-39386032D01*
X106333788Y-39386031D01*
X106333793Y-39386031D01*
X106333803Y-39386028D01*
X106338167Y-39385401D01*
X106338171Y-39385401D01*
X106338180Y-39385400D01*
X106343635Y-39384615D01*
X106349004Y-39382722D01*
X106857297Y-39272150D01*
X106857300Y-39272149D01*
X106857305Y-39272148D01*
X106857329Y-39272140D01*
X106857466Y-39272111D01*
X106858403Y-39271845D01*
X106859421Y-39271527D01*
X107007025Y-39228186D01*
X107371365Y-39121206D01*
X107873347Y-38933976D01*
X107926122Y-38909874D01*
X108360681Y-38711419D01*
X108360685Y-38711416D01*
X108360693Y-38711413D01*
X108360699Y-38711409D01*
X108361094Y-38711229D01*
X108362614Y-38710363D01*
X108830920Y-38454649D01*
X109281632Y-38164995D01*
X109284004Y-38163218D01*
X109284011Y-38163228D01*
X109284037Y-38163193D01*
X109710524Y-37843931D01*
X109728465Y-37828384D01*
X110115434Y-37493075D01*
X110494275Y-37114234D01*
X110845124Y-36709332D01*
X110845123Y-36709332D01*
X110845131Y-36709324D01*
X110845142Y-36709308D01*
X110882855Y-36665786D01*
X110889215Y-36650435D01*
X110972059Y-36539767D01*
X111166192Y-36280436D01*
X111166191Y-36280436D01*
X111166195Y-36280432D01*
X111166201Y-36280421D01*
X111168854Y-36276879D01*
X111198759Y-36236930D01*
X111204364Y-36221038D01*
X111455849Y-35829720D01*
X111712613Y-35359493D01*
X111712616Y-35359485D01*
X111712619Y-35359481D01*
X111714218Y-35355978D01*
X111714250Y-35355916D01*
X111714376Y-35355640D01*
X111714403Y-35355575D01*
X111933489Y-34875842D01*
X111934083Y-34874539D01*
X111935170Y-34872160D01*
X111935169Y-34872160D01*
X111935176Y-34872147D01*
X111935180Y-34872134D01*
X111935252Y-34871978D01*
X111953683Y-34831619D01*
X111956862Y-34814004D01*
X112122406Y-34370165D01*
X112273348Y-33856105D01*
X112273350Y-33856097D01*
X112387231Y-33332593D01*
X112389274Y-33318386D01*
X112463479Y-32802278D01*
X112501700Y-32267881D01*
X112501700Y-31732119D01*
X112463479Y-31197722D01*
X112387232Y-30667413D01*
X112387231Y-30667406D01*
X112273350Y-30143902D01*
X112273347Y-30143892D01*
X112122406Y-29629835D01*
X111935176Y-29127853D01*
X111935170Y-29127839D01*
X111935164Y-29127825D01*
X111935163Y-29127822D01*
X111712632Y-28640545D01*
X111712625Y-28640532D01*
X111712619Y-28640518D01*
X111712615Y-28640511D01*
X111712609Y-28640500D01*
X111712471Y-28640230D01*
X111712043Y-28639464D01*
X111554731Y-28351368D01*
X111455849Y-28170280D01*
X111167214Y-27721154D01*
X111166647Y-27720241D01*
X111166185Y-27719553D01*
X110845148Y-27290697D01*
X110845139Y-27290685D01*
X110845135Y-27290680D01*
X110845131Y-27290675D01*
X110612744Y-27022487D01*
X110494275Y-26885766D01*
X110494265Y-26885756D01*
X110494253Y-26885743D01*
X110115456Y-26506946D01*
X110115443Y-26506934D01*
X110115434Y-26506925D01*
X109992422Y-26400335D01*
X109974274Y-26384610D01*
X109882494Y-26305081D01*
X109710524Y-26156068D01*
X109710519Y-26156064D01*
X109710513Y-26156059D01*
X109710501Y-26156050D01*
X109281645Y-25835013D01*
X109280949Y-25834546D01*
X109280038Y-25833980D01*
X109093466Y-25714078D01*
X108830920Y-25545351D01*
X108830905Y-25545343D01*
X108619068Y-25429671D01*
X108361720Y-25289147D01*
X108360964Y-25288725D01*
X108360686Y-25288582D01*
X108360681Y-25288580D01*
X108360675Y-25288577D01*
X108360653Y-25288566D01*
X107873373Y-25066034D01*
X107618419Y-24970941D01*
X107371362Y-24878793D01*
X107346681Y-24871546D01*
X106857610Y-24727941D01*
X106857330Y-24727857D01*
X106857286Y-24727846D01*
X106333799Y-24613968D01*
X105803478Y-24537721D01*
X105269085Y-24499500D01*
X105269083Y-24499500D01*
X105269081Y-24499500D01*
X104733319Y-24499500D01*
X104733316Y-24499500D01*
X104733313Y-24499500D01*
X104198920Y-24537721D01*
X103668599Y-24613968D01*
X103145112Y-24727846D01*
X103145070Y-24727857D01*
X103144788Y-24727941D01*
X102631039Y-24878792D01*
X102129025Y-25066034D01*
X101641745Y-25288566D01*
X101641413Y-25288736D01*
X101640664Y-25289155D01*
X101171492Y-25545343D01*
X100722360Y-25833980D01*
X100721454Y-25834542D01*
X100720753Y-25835013D01*
X100291882Y-26156060D01*
X99886955Y-26506934D01*
X99886946Y-26506942D01*
X99508142Y-26885746D01*
X99508134Y-26885755D01*
X99157260Y-27290682D01*
X98836213Y-27719553D01*
X98835742Y-27720254D01*
X98835180Y-27721160D01*
X98546543Y-28170292D01*
X98290355Y-28639464D01*
X98289936Y-28640213D01*
X98289766Y-28640545D01*
X98067234Y-29127825D01*
X97879992Y-29629839D01*
X97729141Y-30143588D01*
X97729057Y-30143870D01*
X97729046Y-30143912D01*
X97615168Y-30667399D01*
X97538921Y-31197720D01*
X97500700Y-31732113D01*
X96505500Y-31732113D01*
X96505500Y-22124000D01*
X96493947Y-22016544D01*
X96482741Y-21965033D01*
X96482637Y-21964722D01*
X96448616Y-21862502D01*
X96448613Y-21862496D01*
X96370828Y-21741462D01*
X96370825Y-21741457D01*
X96370820Y-21741451D01*
X96325076Y-21688659D01*
X96325072Y-21688656D01*
X96325070Y-21688653D01*
X96216336Y-21594433D01*
X96216333Y-21594431D01*
X96216331Y-21594430D01*
X96085465Y-21534664D01*
X96085460Y-21534662D01*
X96085459Y-21534662D01*
X96018420Y-21514977D01*
X96018422Y-21514977D01*
X96018417Y-21514976D01*
X95956347Y-21506052D01*
X95876000Y-21494500D01*
X95875998Y-21494500D01*
X22124010Y-21494500D01*
X22124000Y-21494500D01*
X22123991Y-21494500D01*
X22123990Y-21494501D01*
X22016549Y-21506052D01*
X22016537Y-21506054D01*
X21965027Y-21517260D01*
X21862502Y-21551383D01*
X21862496Y-21551386D01*
X21741462Y-21629171D01*
X21741451Y-21629179D01*
X21688659Y-21674923D01*
X21594433Y-21783664D01*
X21594430Y-21783668D01*
X21534664Y-21914534D01*
X21514976Y-21981582D01*
X21509949Y-22016549D01*
X21494500Y-22124000D01*
X20500500Y-22124000D01*
X20500500Y-20642329D01*
X20505523Y-20607393D01*
X20509927Y-20592395D01*
X20547672Y-20533644D01*
X20547700Y-20533619D01*
X20547699Y-20533619D01*
X20549041Y-20532456D01*
X20603920Y-20504977D01*
X20611479Y-20503333D01*
X20637832Y-20500500D01*
X114357670Y-20500500D01*
X114392606Y-20505523D01*
G37*
%TD.AperFunction*%
%TD*%
%TA.AperFunction,Conductor*%
%TO.N,GND*%
G36*
X47612862Y-87612808D02*
G01*
X47646347Y-87674131D01*
X47647654Y-87719886D01*
X47619500Y-87897647D01*
X47619500Y-88102351D01*
X47651522Y-88304534D01*
X47714781Y-88499223D01*
X47807715Y-88681613D01*
X47928028Y-88847213D01*
X48072786Y-88991971D01*
X48227749Y-89104556D01*
X48238390Y-89112287D01*
X48354607Y-89171503D01*
X48420776Y-89205218D01*
X48420778Y-89205218D01*
X48420781Y-89205220D01*
X48525137Y-89239127D01*
X48615465Y-89268477D01*
X48716557Y-89284488D01*
X48817648Y-89300500D01*
X48817649Y-89300500D01*
X49022351Y-89300500D01*
X49022352Y-89300500D01*
X49224534Y-89268477D01*
X49419219Y-89205220D01*
X49601610Y-89112287D01*
X49714466Y-89030293D01*
X49767213Y-88991971D01*
X49767215Y-88991968D01*
X49767219Y-88991966D01*
X49911966Y-88847219D01*
X49911968Y-88847215D01*
X49911971Y-88847213D01*
X49964732Y-88774590D01*
X50032287Y-88681610D01*
X50125220Y-88499219D01*
X50188477Y-88304534D01*
X50220500Y-88102352D01*
X50220500Y-87897648D01*
X57779500Y-87897648D01*
X57779500Y-88102351D01*
X57811522Y-88304534D01*
X57874781Y-88499223D01*
X57967715Y-88681613D01*
X58088028Y-88847213D01*
X58232786Y-88991971D01*
X58387749Y-89104556D01*
X58398390Y-89112287D01*
X58514607Y-89171503D01*
X58580776Y-89205218D01*
X58580778Y-89205218D01*
X58580781Y-89205220D01*
X58685137Y-89239127D01*
X58775465Y-89268477D01*
X58876557Y-89284488D01*
X58977648Y-89300500D01*
X58977649Y-89300500D01*
X59182351Y-89300500D01*
X59182352Y-89300500D01*
X59384534Y-89268477D01*
X59579219Y-89205220D01*
X59761610Y-89112287D01*
X59874466Y-89030293D01*
X59927213Y-88991971D01*
X59927215Y-88991968D01*
X59927219Y-88991966D01*
X60071966Y-88847219D01*
X60071968Y-88847215D01*
X60071971Y-88847213D01*
X60124732Y-88774590D01*
X60192287Y-88681610D01*
X60285220Y-88499219D01*
X60348477Y-88304534D01*
X60380500Y-88102352D01*
X60380500Y-87897648D01*
X60377501Y-87878711D01*
X65149500Y-87878711D01*
X65149500Y-88121288D01*
X65181161Y-88361785D01*
X65243947Y-88596104D01*
X65301075Y-88734022D01*
X65336776Y-88820212D01*
X65458064Y-89030289D01*
X65458066Y-89030292D01*
X65458067Y-89030293D01*
X65605733Y-89222736D01*
X65605739Y-89222743D01*
X65777256Y-89394260D01*
X65777263Y-89394266D01*
X65890321Y-89481018D01*
X65969711Y-89541936D01*
X66179788Y-89663224D01*
X66403900Y-89756054D01*
X66638211Y-89818838D01*
X66818586Y-89842584D01*
X66878711Y-89850500D01*
X66878712Y-89850500D01*
X67121289Y-89850500D01*
X67169388Y-89844167D01*
X67361789Y-89818838D01*
X67596100Y-89756054D01*
X67820212Y-89663224D01*
X68030289Y-89541936D01*
X68222738Y-89394265D01*
X68394265Y-89222738D01*
X68541936Y-89030289D01*
X68663224Y-88820212D01*
X68756054Y-88596100D01*
X68818838Y-88361789D01*
X68850500Y-88121288D01*
X68850500Y-87878712D01*
X68850500Y-87878711D01*
X76149500Y-87878711D01*
X76149500Y-88121288D01*
X76181161Y-88361785D01*
X76243947Y-88596104D01*
X76301075Y-88734022D01*
X76336776Y-88820212D01*
X76458064Y-89030289D01*
X76458066Y-89030292D01*
X76458067Y-89030293D01*
X76605733Y-89222736D01*
X76605739Y-89222743D01*
X76777256Y-89394260D01*
X76777263Y-89394266D01*
X76890321Y-89481018D01*
X76969711Y-89541936D01*
X77179788Y-89663224D01*
X77403900Y-89756054D01*
X77638211Y-89818838D01*
X77818586Y-89842584D01*
X77878711Y-89850500D01*
X77878712Y-89850500D01*
X78121289Y-89850500D01*
X78169388Y-89844167D01*
X78361789Y-89818838D01*
X78596100Y-89756054D01*
X78820212Y-89663224D01*
X79030289Y-89541936D01*
X79222738Y-89394265D01*
X79394265Y-89222738D01*
X79541936Y-89030289D01*
X79663224Y-88820212D01*
X79756054Y-88596100D01*
X79818838Y-88361789D01*
X79850500Y-88121288D01*
X79850500Y-87878712D01*
X79818838Y-87638211D01*
X79756054Y-87403900D01*
X79663224Y-87179788D01*
X79541936Y-86969711D01*
X79394265Y-86777262D01*
X79394260Y-86777256D01*
X79222743Y-86605739D01*
X79222736Y-86605733D01*
X79030293Y-86458067D01*
X79030292Y-86458066D01*
X79030289Y-86458064D01*
X78820212Y-86336776D01*
X78820205Y-86336773D01*
X78596104Y-86243947D01*
X78361785Y-86181161D01*
X78121289Y-86149500D01*
X78121288Y-86149500D01*
X77878712Y-86149500D01*
X77878711Y-86149500D01*
X77638214Y-86181161D01*
X77403895Y-86243947D01*
X77179794Y-86336773D01*
X77179785Y-86336777D01*
X76969706Y-86458067D01*
X76777263Y-86605733D01*
X76777256Y-86605739D01*
X76605739Y-86777256D01*
X76605733Y-86777263D01*
X76458067Y-86969706D01*
X76336777Y-87179785D01*
X76336773Y-87179794D01*
X76243947Y-87403895D01*
X76181161Y-87638214D01*
X76149500Y-87878711D01*
X68850500Y-87878711D01*
X68818838Y-87638211D01*
X68756054Y-87403900D01*
X68663224Y-87179788D01*
X68541936Y-86969711D01*
X68394265Y-86777262D01*
X68394260Y-86777256D01*
X68222743Y-86605739D01*
X68222736Y-86605733D01*
X68030293Y-86458067D01*
X68030292Y-86458066D01*
X68030289Y-86458064D01*
X67820212Y-86336776D01*
X67820205Y-86336773D01*
X67596104Y-86243947D01*
X67361785Y-86181161D01*
X67121289Y-86149500D01*
X67121288Y-86149500D01*
X66878712Y-86149500D01*
X66878711Y-86149500D01*
X66638214Y-86181161D01*
X66403895Y-86243947D01*
X66179794Y-86336773D01*
X66179785Y-86336777D01*
X65969706Y-86458067D01*
X65777263Y-86605733D01*
X65777256Y-86605739D01*
X65605739Y-86777256D01*
X65605733Y-86777263D01*
X65458067Y-86969706D01*
X65336777Y-87179785D01*
X65336773Y-87179794D01*
X65243947Y-87403895D01*
X65181161Y-87638214D01*
X65149500Y-87878711D01*
X60377501Y-87878711D01*
X60348477Y-87695466D01*
X60340868Y-87672049D01*
X60285218Y-87500776D01*
X60251503Y-87434607D01*
X60192287Y-87318390D01*
X60154205Y-87265974D01*
X60071971Y-87152786D01*
X59927213Y-87008028D01*
X59761613Y-86887715D01*
X59761612Y-86887714D01*
X59761610Y-86887713D01*
X59704653Y-86858691D01*
X59579223Y-86794781D01*
X59384534Y-86731522D01*
X59198799Y-86702105D01*
X59182352Y-86699500D01*
X58977648Y-86699500D01*
X58961201Y-86702105D01*
X58775465Y-86731522D01*
X58580776Y-86794781D01*
X58398386Y-86887715D01*
X58232786Y-87008028D01*
X58088028Y-87152786D01*
X57967715Y-87318386D01*
X57874781Y-87500776D01*
X57811522Y-87695465D01*
X57779500Y-87897648D01*
X50220500Y-87897648D01*
X50219930Y-87894051D01*
X50188477Y-87695465D01*
X50125218Y-87500776D01*
X50091503Y-87434607D01*
X50032287Y-87318390D01*
X49994205Y-87265974D01*
X49911971Y-87152786D01*
X49767213Y-87008028D01*
X49601613Y-86887715D01*
X49601612Y-86887714D01*
X49601610Y-86887713D01*
X49544653Y-86858691D01*
X49419223Y-86794781D01*
X49224534Y-86731522D01*
X49038799Y-86702105D01*
X49022352Y-86699500D01*
X48817648Y-86699500D01*
X48639886Y-86727654D01*
X48570593Y-86718699D01*
X48532808Y-86692862D01*
X39839946Y-78000000D01*
X72241035Y-78000000D01*
X72287715Y-78091613D01*
X72408028Y-78257213D01*
X72552786Y-78401971D01*
X72707749Y-78514556D01*
X72718390Y-78522287D01*
X72834607Y-78581503D01*
X72900776Y-78615218D01*
X72900778Y-78615218D01*
X72900781Y-78615220D01*
X73005137Y-78649127D01*
X73095465Y-78678477D01*
X73196557Y-78694488D01*
X73297648Y-78710500D01*
X73297649Y-78710500D01*
X73502351Y-78710500D01*
X73502352Y-78710500D01*
X73704534Y-78678477D01*
X73899219Y-78615220D01*
X74081610Y-78522287D01*
X74174590Y-78454732D01*
X74247213Y-78401971D01*
X74247215Y-78401968D01*
X74247219Y-78401966D01*
X74391966Y-78257219D01*
X74391968Y-78257215D01*
X74391971Y-78257213D01*
X74444732Y-78184590D01*
X74512287Y-78091610D01*
X74558965Y-78000000D01*
X96000000Y-78000000D01*
X96000000Y-93000000D01*
X22000000Y-93000000D01*
X22000000Y-87889778D01*
X43864500Y-87889778D01*
X43864500Y-88110221D01*
X43898985Y-88327952D01*
X43967103Y-88537603D01*
X43967104Y-88537606D01*
X44035122Y-88671096D01*
X44040479Y-88681610D01*
X44067187Y-88734025D01*
X44196752Y-88912358D01*
X44196756Y-88912363D01*
X44352636Y-89068243D01*
X44352641Y-89068247D01*
X44413258Y-89112287D01*
X44530978Y-89197815D01*
X44659375Y-89263237D01*
X44727393Y-89297895D01*
X44727396Y-89297896D01*
X44832221Y-89331955D01*
X44937049Y-89366015D01*
X45154778Y-89400500D01*
X45154779Y-89400500D01*
X45375221Y-89400500D01*
X45375222Y-89400500D01*
X45592951Y-89366015D01*
X45802606Y-89297895D01*
X45999022Y-89197815D01*
X46177365Y-89068242D01*
X46333242Y-88912365D01*
X46462815Y-88734022D01*
X46562895Y-88537606D01*
X46631015Y-88327951D01*
X46665500Y-88110222D01*
X46665500Y-87889778D01*
X46631015Y-87672049D01*
X46562895Y-87462394D01*
X46562895Y-87462393D01*
X46528237Y-87394375D01*
X46462815Y-87265978D01*
X46400195Y-87179788D01*
X46333247Y-87087641D01*
X46333243Y-87087636D01*
X46177363Y-86931756D01*
X46177358Y-86931752D01*
X45999025Y-86802187D01*
X45999024Y-86802186D01*
X45999022Y-86802185D01*
X45936096Y-86770122D01*
X45802606Y-86702104D01*
X45802603Y-86702103D01*
X45592952Y-86633985D01*
X45414613Y-86605739D01*
X45375222Y-86599500D01*
X45154778Y-86599500D01*
X45115425Y-86605733D01*
X44937047Y-86633985D01*
X44727396Y-86702103D01*
X44727393Y-86702104D01*
X44530974Y-86802187D01*
X44352641Y-86931752D01*
X44352636Y-86931756D01*
X44196756Y-87087636D01*
X44196752Y-87087641D01*
X44067187Y-87265974D01*
X43967104Y-87462393D01*
X43967103Y-87462396D01*
X43898985Y-87672047D01*
X43864500Y-87889778D01*
X22000000Y-87889778D01*
X22000000Y-78000000D01*
X38000054Y-78000000D01*
X47612862Y-87612808D01*
G37*
%TD.AperFunction*%
%TD*%
%TA.AperFunction,Conductor*%
%TO.N,VBAT*%
G36*
X95943039Y-22019685D02*
G01*
X95988794Y-22072489D01*
X96000000Y-22124000D01*
X96000000Y-34876000D01*
X95980315Y-34943039D01*
X95927511Y-34988794D01*
X95876000Y-35000000D01*
X78924500Y-35000000D01*
X78857461Y-34980315D01*
X78811706Y-34927511D01*
X78800500Y-34876000D01*
X78800500Y-25924500D01*
X78820185Y-25857461D01*
X78872989Y-25811706D01*
X78924500Y-25800500D01*
X79575500Y-25800500D01*
X79642539Y-25820185D01*
X79688294Y-25872989D01*
X79699500Y-25924500D01*
X79699500Y-26910966D01*
X79679815Y-26978005D01*
X79656046Y-27005244D01*
X79652784Y-27008030D01*
X79508028Y-27152786D01*
X79387715Y-27318386D01*
X79294781Y-27500776D01*
X79231522Y-27695465D01*
X79199500Y-27897648D01*
X79199500Y-28102351D01*
X79231522Y-28304534D01*
X79294781Y-28499223D01*
X79387715Y-28681613D01*
X79508028Y-28847213D01*
X79652786Y-28991971D01*
X79807749Y-29104556D01*
X79818390Y-29112287D01*
X79934607Y-29171503D01*
X80000776Y-29205218D01*
X80000778Y-29205218D01*
X80000781Y-29205220D01*
X80105137Y-29239127D01*
X80195465Y-29268477D01*
X80289318Y-29283342D01*
X80397648Y-29300500D01*
X80397649Y-29300500D01*
X80602351Y-29300500D01*
X80602352Y-29300500D01*
X80804534Y-29268477D01*
X80999219Y-29205220D01*
X81181610Y-29112287D01*
X81274590Y-29044732D01*
X81347213Y-28991971D01*
X81347215Y-28991968D01*
X81347219Y-28991966D01*
X81491966Y-28847219D01*
X81491968Y-28847215D01*
X81491971Y-28847213D01*
X81544732Y-28774590D01*
X81612287Y-28681610D01*
X81705220Y-28499219D01*
X81768477Y-28304534D01*
X81800500Y-28102352D01*
X81800500Y-27897648D01*
X81768477Y-27695466D01*
X81753259Y-27648631D01*
X81705218Y-27500776D01*
X81666100Y-27424003D01*
X81612287Y-27318390D01*
X81604556Y-27307749D01*
X81491971Y-27152786D01*
X81347215Y-27008030D01*
X81343954Y-27005244D01*
X81305770Y-26946731D01*
X81300500Y-26910966D01*
X81300500Y-24921155D01*
X81300499Y-24921153D01*
X81269738Y-24766510D01*
X81269737Y-24766503D01*
X81269735Y-24766498D01*
X81209397Y-24620827D01*
X81209390Y-24620814D01*
X81121789Y-24489711D01*
X81121786Y-24489707D01*
X81010292Y-24378213D01*
X81010288Y-24378210D01*
X80879185Y-24290609D01*
X80879172Y-24290602D01*
X80733501Y-24230264D01*
X80733489Y-24230261D01*
X80578845Y-24199500D01*
X80578842Y-24199500D01*
X56578842Y-24199500D01*
X56421158Y-24199500D01*
X56421155Y-24199500D01*
X56266510Y-24230261D01*
X56266498Y-24230264D01*
X56120827Y-24290602D01*
X56120814Y-24290609D01*
X55989711Y-24378210D01*
X55989707Y-24378213D01*
X55878213Y-24489707D01*
X55878210Y-24489711D01*
X55790609Y-24620814D01*
X55790602Y-24620827D01*
X55730264Y-24766498D01*
X55730261Y-24766510D01*
X55699500Y-24921153D01*
X55699500Y-26910966D01*
X55679815Y-26978005D01*
X55656046Y-27005244D01*
X55652784Y-27008030D01*
X55508028Y-27152786D01*
X55387715Y-27318386D01*
X55294781Y-27500776D01*
X55231522Y-27695465D01*
X55199500Y-27897648D01*
X55199500Y-28102351D01*
X55231522Y-28304534D01*
X55294781Y-28499223D01*
X55387715Y-28681613D01*
X55508028Y-28847213D01*
X55652786Y-28991971D01*
X55807749Y-29104556D01*
X55818390Y-29112287D01*
X55934607Y-29171503D01*
X56000776Y-29205218D01*
X56000778Y-29205218D01*
X56000781Y-29205220D01*
X56105137Y-29239127D01*
X56195465Y-29268477D01*
X56289318Y-29283342D01*
X56397648Y-29300500D01*
X56397649Y-29300500D01*
X56602351Y-29300500D01*
X56602352Y-29300500D01*
X56804534Y-29268477D01*
X56999219Y-29205220D01*
X57181610Y-29112287D01*
X57274590Y-29044732D01*
X57347213Y-28991971D01*
X57347215Y-28991968D01*
X57347219Y-28991966D01*
X57491966Y-28847219D01*
X57491968Y-28847215D01*
X57491971Y-28847213D01*
X57544732Y-28774590D01*
X57612287Y-28681610D01*
X57705220Y-28499219D01*
X57768477Y-28304534D01*
X57800500Y-28102352D01*
X57800500Y-27897648D01*
X57768477Y-27695466D01*
X57753259Y-27648631D01*
X57705218Y-27500776D01*
X57666100Y-27424003D01*
X57612287Y-27318390D01*
X57604556Y-27307749D01*
X57491971Y-27152786D01*
X57347215Y-27008030D01*
X57343954Y-27005244D01*
X57305770Y-26946731D01*
X57300500Y-26910966D01*
X57300500Y-25924500D01*
X57320185Y-25857461D01*
X57372989Y-25811706D01*
X57424500Y-25800500D01*
X70075500Y-25800500D01*
X70142539Y-25820185D01*
X70188294Y-25872989D01*
X70199500Y-25924500D01*
X70199500Y-26663695D01*
X70179815Y-26730734D01*
X70148386Y-26764012D01*
X70022496Y-26855478D01*
X70022487Y-26855485D01*
X69855485Y-27022487D01*
X69855485Y-27022488D01*
X69855483Y-27022490D01*
X69795862Y-27104550D01*
X69716657Y-27213566D01*
X69609433Y-27424003D01*
X69536446Y-27648631D01*
X69499500Y-27881902D01*
X69499500Y-28118097D01*
X69536446Y-28351368D01*
X69609433Y-28575996D01*
X69716657Y-28786433D01*
X69855483Y-28977510D01*
X70022490Y-29144517D01*
X70213567Y-29283343D01*
X70247240Y-29300500D01*
X70424003Y-29390566D01*
X70424005Y-29390566D01*
X70424008Y-29390568D01*
X70544412Y-29429689D01*
X70648631Y-29463553D01*
X70881903Y-29500500D01*
X70881908Y-29500500D01*
X71118097Y-29500500D01*
X71351368Y-29463553D01*
X71575992Y-29390568D01*
X71786433Y-29283343D01*
X71977510Y-29144517D01*
X72144517Y-28977510D01*
X72283343Y-28786433D01*
X72390568Y-28575992D01*
X72463553Y-28351368D01*
X72470971Y-28304534D01*
X72500500Y-28118097D01*
X72500500Y-27881902D01*
X72463553Y-27648631D01*
X72415513Y-27500781D01*
X72390568Y-27424008D01*
X72390566Y-27424005D01*
X72390566Y-27424003D01*
X72283342Y-27213566D01*
X72144517Y-27022490D01*
X71977510Y-26855483D01*
X71971449Y-26851079D01*
X71851614Y-26764012D01*
X71808948Y-26708682D01*
X71800500Y-26663695D01*
X71800500Y-25924500D01*
X71820185Y-25857461D01*
X71872989Y-25811706D01*
X71924500Y-25800500D01*
X77075500Y-25800500D01*
X77142539Y-25820185D01*
X77188294Y-25872989D01*
X77199500Y-25924500D01*
X77199500Y-34876000D01*
X77179815Y-34943039D01*
X77127011Y-34988794D01*
X77075500Y-35000000D01*
X22124000Y-35000000D01*
X22056961Y-34980315D01*
X22011206Y-34927511D01*
X22000000Y-34876000D01*
X22000000Y-22124000D01*
X22019685Y-22056961D01*
X22072489Y-22011206D01*
X22124000Y-22000000D01*
X95876000Y-22000000D01*
X95943039Y-22019685D01*
G37*
%TD.AperFunction*%
%TD*%
%TA.AperFunction,Conductor*%
%TO.N,MOT_B*%
G36*
X66943039Y-64019685D02*
G01*
X66988794Y-64072489D01*
X67000000Y-64124000D01*
X67000000Y-67300000D01*
X69170500Y-67300000D01*
X69237539Y-67319685D01*
X69283294Y-67372489D01*
X69294500Y-67424000D01*
X69294500Y-68050500D01*
X69274815Y-68117539D01*
X69222011Y-68163294D01*
X69170500Y-68174500D01*
X64338389Y-68174500D01*
X64217555Y-68198535D01*
X64217545Y-68198538D01*
X64103716Y-68245687D01*
X64103707Y-68245692D01*
X64001267Y-68314141D01*
X64001263Y-68314144D01*
X63914144Y-68401263D01*
X63914141Y-68401267D01*
X63845692Y-68503707D01*
X63845687Y-68503716D01*
X63798538Y-68617545D01*
X63798535Y-68617555D01*
X63774500Y-68738389D01*
X63774500Y-70177371D01*
X63754815Y-70244410D01*
X63723386Y-70277689D01*
X63617925Y-70354311D01*
X63484312Y-70487924D01*
X63484312Y-70487925D01*
X63484310Y-70487927D01*
X63436610Y-70553579D01*
X63373240Y-70640800D01*
X63287454Y-70809163D01*
X63229059Y-70988881D01*
X63199500Y-71175513D01*
X63199500Y-71364486D01*
X63229059Y-71551118D01*
X63287454Y-71730836D01*
X63373240Y-71899199D01*
X63484310Y-72052073D01*
X63617927Y-72185690D01*
X63770801Y-72296760D01*
X63850347Y-72337290D01*
X63939163Y-72382545D01*
X63939165Y-72382545D01*
X63939168Y-72382547D01*
X64035497Y-72413846D01*
X64118881Y-72440940D01*
X64305514Y-72470500D01*
X64305519Y-72470500D01*
X64494486Y-72470500D01*
X64681118Y-72440940D01*
X64860832Y-72382547D01*
X65029199Y-72296760D01*
X65182073Y-72185690D01*
X65315690Y-72052073D01*
X65426760Y-71899199D01*
X65512547Y-71730832D01*
X65570940Y-71551118D01*
X65600500Y-71364486D01*
X65600500Y-71175513D01*
X65570940Y-70988881D01*
X65512545Y-70809163D01*
X65426759Y-70640800D01*
X65315690Y-70487927D01*
X65182073Y-70354310D01*
X65076614Y-70277689D01*
X65033949Y-70222358D01*
X65025500Y-70177371D01*
X65025500Y-69549500D01*
X65045185Y-69482461D01*
X65097989Y-69436706D01*
X65149500Y-69425500D01*
X69376000Y-69425500D01*
X69443039Y-69445185D01*
X69488794Y-69497989D01*
X69500000Y-69549500D01*
X69500000Y-74825500D01*
X69480315Y-74892539D01*
X69427511Y-74938294D01*
X69376000Y-74949500D01*
X53124000Y-74949500D01*
X53056961Y-74929815D01*
X53011206Y-74877011D01*
X53000000Y-74825500D01*
X53000000Y-64124000D01*
X53019685Y-64056961D01*
X53072489Y-64011206D01*
X53124000Y-64000000D01*
X66876000Y-64000000D01*
X66943039Y-64019685D01*
G37*
%TD.AperFunction*%
%TD*%
M02*
