%TF.GenerationSoftware,KiCad,Pcbnew,10.0.3*%
%TF.CreationDate,2026-07-02T17:11:59+02:00*%
%TF.ProjectId,vanchor-thrust,76616e63-686f-4722-9d74-68727573742e,rev?*%
%TF.SameCoordinates,Original*%
%TF.FileFunction,Soldermask,Bot*%
%TF.FilePolarity,Negative*%
%FSLAX46Y46*%
G04 Gerber Fmt 4.6, Leading zero omitted, Abs format (unit mm)*
G04 Created by KiCad (PCBNEW 10.0.3) date 2026-07-02 17:11:59*
%MOMM*%
%LPD*%
G01*
G04 APERTURE LIST*
G04 Aperture macros list*
%AMRoundRect*
0 Rectangle with rounded corners*
0 $1 Rounding radius*
0 $2 $3 $4 $5 $6 $7 $8 $9 X,Y pos of 4 corners*
0 Add a 4 corners polygon primitive as box body*
4,1,4,$2,$3,$4,$5,$6,$7,$8,$9,$2,$3,0*
0 Add four circle primitives for the rounded corners*
1,1,$1+$1,$2,$3*
1,1,$1+$1,$4,$5*
1,1,$1+$1,$6,$7*
1,1,$1+$1,$8,$9*
0 Add four rect primitives between the rounded corners*
20,1,$1+$1,$2,$3,$4,$5,0*
20,1,$1+$1,$4,$5,$6,$7,0*
20,1,$1+$1,$6,$7,$8,$9,0*
20,1,$1+$1,$8,$9,$2,$3,0*%
G04 Aperture macros list end*
%ADD10C,1.600000*%
%ADD11C,14.000000*%
%ADD12C,3.200000*%
%ADD13C,2.000000*%
%ADD14RoundRect,0.250001X-0.949999X-0.949999X0.949999X-0.949999X0.949999X0.949999X-0.949999X0.949999X0*%
%ADD15C,2.400000*%
%ADD16R,1.800000X1.800000*%
%ADD17C,1.800000*%
%ADD18R,1.700000X1.700000*%
%ADD19C,1.700000*%
G04 APERTURE END LIST*
G36*
X36000000Y-82000000D02*
G01*
X92000000Y-82000000D01*
X92000000Y-88000000D01*
X36000000Y-88000000D01*
X36000000Y-82000000D01*
G37*
D10*
%TO.C,R2*%
X29920000Y-70000000D03*
X40080000Y-70000000D03*
%TD*%
D11*
%TO.C,J5*%
X105001200Y-83000000D03*
%TD*%
D10*
%TO.C,R1*%
X29920000Y-44000000D03*
X40080000Y-44000000D03*
%TD*%
D12*
%TO.C,H1*%
X67000000Y-88000000D03*
%TD*%
D10*
%TO.C,R6*%
X69920000Y-58000000D03*
X80080000Y-58000000D03*
%TD*%
D11*
%TO.C,J2*%
X30001200Y-32000000D03*
%TD*%
D12*
%TO.C,H2*%
X78000000Y-88000000D03*
%TD*%
D13*
%TO.C,C5*%
X61000000Y-28000000D03*
X71000000Y-28000000D03*
%TD*%
D10*
%TO.C,C3*%
X51500000Y-28000000D03*
X56500000Y-28000000D03*
%TD*%
D14*
%TO.C,C1*%
X88748800Y-57000000D03*
D15*
X96248800Y-57000000D03*
%TD*%
D10*
%TO.C,R9*%
X48920000Y-88000000D03*
X59080000Y-88000000D03*
%TD*%
%TO.C,C4*%
X75500000Y-28000000D03*
X80500000Y-28000000D03*
%TD*%
D14*
%TO.C,C2*%
X31248800Y-57000000D03*
D15*
X38748800Y-57000000D03*
%TD*%
D10*
%TO.C,R3*%
X47920000Y-54000000D03*
X58080000Y-54000000D03*
%TD*%
D11*
%TO.C,J4*%
X105001200Y-32000000D03*
%TD*%
D10*
%TO.C,R5*%
X47920000Y-58000000D03*
X58080000Y-58000000D03*
%TD*%
D11*
%TO.C,J3*%
X30001200Y-83000000D03*
%TD*%
D10*
%TO.C,R8*%
X69920000Y-62000000D03*
X80080000Y-62000000D03*
%TD*%
D16*
%TO.C,D1*%
X42725000Y-88000000D03*
D17*
X45265000Y-88000000D03*
%TD*%
D10*
%TO.C,R4*%
X47920000Y-62000000D03*
X58080000Y-62000000D03*
%TD*%
%TO.C,R7*%
X69920000Y-54000000D03*
X80080000Y-54000000D03*
%TD*%
D18*
%TO.C,J1*%
X23500000Y-48110000D03*
D19*
X23500000Y-50650000D03*
X23500000Y-53190000D03*
X23500000Y-55730000D03*
X23500000Y-58270000D03*
X23500000Y-60810000D03*
X23500000Y-63350000D03*
X23500000Y-65890000D03*
%TD*%
M02*
