%TF.GenerationSoftware,KiCad,Pcbnew,10.0.3*%
%TF.CreationDate,2026-07-02T19:49:59+02:00*%
%TF.ProjectId,vanchor-thrust,76616e63-686f-4722-9d74-68727573742e,rev?*%
%TF.SameCoordinates,Original*%
%TF.FileFunction,Paste,Top*%
%TF.FilePolarity,Positive*%
%FSLAX46Y46*%
G04 Gerber Fmt 4.6, Leading zero omitted, Abs format (unit mm)*
G04 Created by KiCad (PCBNEW 10.0.3) date 2026-07-02 19:49:59*
%MOMM*%
%LPD*%
G01*
G04 APERTURE LIST*
G04 Aperture macros list*
%AMRoundRect*
0 Rectangle with rounded corners*
0 $1 Rounding radius*
0 $2 $3 $4 $5 $6 $7 $8 $9 X,Y pos of 4 corners*
0 Add a 4 corners polygon primitive as box body*
4,1,4,$2,$3,$4,$5,$6,$7,$8,$9,$2,$3,0*
0 Add four circle primitives for the rounded corners*
1,1,$1+$1,$2,$3*
1,1,$1+$1,$4,$5*
1,1,$1+$1,$6,$7*
1,1,$1+$1,$8,$9*
0 Add four rect primitives between the rounded corners*
20,1,$1+$1,$2,$3,$4,$5,0*
20,1,$1+$1,$4,$5,$6,$7,0*
20,1,$1+$1,$6,$7,$8,$9,0*
20,1,$1+$1,$8,$9,$2,$3,0*%
G04 Aperture macros list end*
%ADD10RoundRect,0.250000X0.450000X-0.262500X0.450000X0.262500X-0.450000X0.262500X-0.450000X-0.262500X0*%
%ADD11RoundRect,0.250000X-2.025000X-2.375000X2.025000X-2.375000X2.025000X2.375000X-2.025000X2.375000X0*%
%ADD12RoundRect,0.200000X-2.100000X-0.200000X2.100000X-0.200000X2.100000X0.200000X-2.100000X0.200000X0*%
%ADD13RoundRect,0.250000X1.000000X-1.400000X1.000000X1.400000X-1.000000X1.400000X-1.000000X-1.400000X0*%
%ADD14RoundRect,0.250000X-0.450000X0.262500X-0.450000X-0.262500X0.450000X-0.262500X0.450000X0.262500X0*%
G04 APERTURE END LIST*
D10*
%TO.C,R11*%
X104800000Y-110212500D03*
X104800000Y-108387500D03*
%TD*%
D11*
%TO.C,U1*%
X54950000Y-41225000D03*
X54950000Y-46775000D03*
X59800000Y-41225000D03*
X59800000Y-46775000D03*
D12*
X48225000Y-40190000D03*
X48225000Y-41460000D03*
X48225000Y-42730000D03*
X48225000Y-44000000D03*
X48225000Y-45270000D03*
X48225000Y-46540000D03*
X48225000Y-47810000D03*
%TD*%
D10*
%TO.C,R10*%
X101000000Y-107412500D03*
X101000000Y-105587500D03*
%TD*%
D11*
%TO.C,U3*%
X74950000Y-41225000D03*
X74950000Y-46775000D03*
X79800000Y-41225000D03*
X79800000Y-46775000D03*
D12*
X68225000Y-40190000D03*
X68225000Y-41460000D03*
X68225000Y-42730000D03*
X68225000Y-44000000D03*
X68225000Y-45270000D03*
X68225000Y-46540000D03*
X68225000Y-47810000D03*
%TD*%
D13*
%TO.C,D2*%
X40600000Y-28000000D03*
X47400000Y-28000000D03*
%TD*%
D14*
%TO.C,R13*%
X46200000Y-77287500D03*
X46200000Y-79112500D03*
%TD*%
D11*
%TO.C,U2*%
X54950000Y-67225000D03*
X54950000Y-72775000D03*
X59800000Y-67225000D03*
X59800000Y-72775000D03*
D12*
X48225000Y-66190000D03*
X48225000Y-67460000D03*
X48225000Y-68730000D03*
X48225000Y-70000000D03*
X48225000Y-71270000D03*
X48225000Y-72540000D03*
X48225000Y-73810000D03*
%TD*%
D14*
%TO.C,R12*%
X42800000Y-74087500D03*
X42800000Y-75912500D03*
%TD*%
D11*
%TO.C,U4*%
X74950000Y-67225000D03*
X74950000Y-72775000D03*
X79800000Y-67225000D03*
X79800000Y-72775000D03*
D12*
X68225000Y-66190000D03*
X68225000Y-67460000D03*
X68225000Y-68730000D03*
X68225000Y-70000000D03*
X68225000Y-71270000D03*
X68225000Y-72540000D03*
X68225000Y-73810000D03*
%TD*%
M02*
