%TF.GenerationSoftware,KiCad,Pcbnew,10.0.3*%
%TF.CreationDate,2026-07-02T19:49:59+02:00*%
%TF.ProjectId,vanchor-thrust,76616e63-686f-4722-9d74-68727573742e,rev?*%
%TF.SameCoordinates,Original*%
%TF.FileFunction,Soldermask,Top*%
%TF.FilePolarity,Negative*%
%FSLAX46Y46*%
G04 Gerber Fmt 4.6, Leading zero omitted, Abs format (unit mm)*
G04 Created by KiCad (PCBNEW 10.0.3) date 2026-07-02 19:49:59*
%MOMM*%
%LPD*%
G01*
G04 APERTURE LIST*
G04 Aperture macros list*
%AMRoundRect*
0 Rectangle with rounded corners*
0 $1 Rounding radius*
0 $2 $3 $4 $5 $6 $7 $8 $9 X,Y pos of 4 corners*
0 Add a 4 corners polygon primitive as box body*
4,1,4,$2,$3,$4,$5,$6,$7,$8,$9,$2,$3,0*
0 Add four circle primitives for the rounded corners*
1,1,$1+$1,$2,$3*
1,1,$1+$1,$4,$5*
1,1,$1+$1,$6,$7*
1,1,$1+$1,$8,$9*
0 Add four rect primitives between the rounded corners*
20,1,$1+$1,$2,$3,$4,$5,0*
20,1,$1+$1,$4,$5,$6,$7,0*
20,1,$1+$1,$6,$7,$8,$9,0*
20,1,$1+$1,$8,$9,$2,$3,0*%
%AMFreePoly0*
4,1,37,0.603843,0.796157,0.639018,0.796157,0.711114,0.766294,0.766294,0.711114,0.796157,0.639018,0.796157,0.603843,0.800000,0.600000,0.800000,-0.600000,0.796157,-0.603843,0.796157,-0.639018,0.766294,-0.711114,0.711114,-0.766294,0.639018,-0.796157,0.603843,-0.796157,0.600000,-0.800000,0.000000,-0.800000,0.000000,-0.796148,-0.078414,-0.796148,-0.232228,-0.765552,-0.377117,-0.705537,
-0.507515,-0.618408,-0.618408,-0.507515,-0.705537,-0.377117,-0.765552,-0.232228,-0.796148,-0.078414,-0.796148,0.078414,-0.765552,0.232228,-0.705537,0.377117,-0.618408,0.507515,-0.507515,0.618408,-0.377117,0.705537,-0.232228,0.765552,-0.078414,0.796148,0.000000,0.796148,0.000000,0.800000,0.600000,0.800000,0.603843,0.796157,0.603843,0.796157,$1*%
%AMFreePoly1*
4,1,37,0.000000,0.796148,0.078414,0.796148,0.232228,0.765552,0.377117,0.705537,0.507515,0.618408,0.618408,0.507515,0.705537,0.377117,0.765552,0.232228,0.796148,0.078414,0.796148,-0.078414,0.765552,-0.232228,0.705537,-0.377117,0.618408,-0.507515,0.507515,-0.618408,0.377117,-0.705537,0.232228,-0.765552,0.078414,-0.796148,0.000000,-0.796148,0.000000,-0.800000,-0.600000,-0.800000,
-0.603843,-0.796157,-0.639018,-0.796157,-0.711114,-0.766294,-0.766294,-0.711114,-0.796157,-0.639018,-0.796157,-0.603843,-0.800000,-0.600000,-0.800000,0.600000,-0.796157,0.603843,-0.796157,0.639018,-0.766294,0.711114,-0.711114,0.766294,-0.639018,0.796157,-0.603843,0.796157,-0.600000,0.800000,0.000000,0.800000,0.000000,0.796148,0.000000,0.796148,$1*%
G04 Aperture macros list end*
%ADD10C,1.600000*%
%ADD11RoundRect,0.250000X0.450000X-0.262500X0.450000X0.262500X-0.450000X0.262500X-0.450000X-0.262500X0*%
%ADD12RoundRect,0.200000X-2.100000X-0.200000X2.100000X-0.200000X2.100000X0.200000X-2.100000X0.200000X0*%
%ADD13RoundRect,0.250002X-4.449998X-5.149998X4.449998X-5.149998X4.449998X5.149998X-4.449998X5.149998X0*%
%ADD14C,14.000000*%
%ADD15C,3.200000*%
%ADD16R,1.500000X2.500000*%
%ADD17O,1.500000X2.500000*%
%ADD18R,1.700000X1.700000*%
%ADD19C,1.700000*%
%ADD20C,2.000000*%
%ADD21RoundRect,0.250001X-0.949999X-0.949999X0.949999X-0.949999X0.949999X0.949999X-0.949999X0.949999X0*%
%ADD22C,2.400000*%
%ADD23RoundRect,0.250000X1.000000X-1.400000X1.000000X1.400000X-1.000000X1.400000X-1.000000X-1.400000X0*%
%ADD24RoundRect,0.250000X-0.450000X0.262500X-0.450000X-0.262500X0.450000X-0.262500X0.450000X0.262500X0*%
%ADD25RoundRect,0.250000X0.725000X-0.600000X0.725000X0.600000X-0.725000X0.600000X-0.725000X-0.600000X0*%
%ADD26O,1.950000X1.700000*%
%ADD27R,1.800000X1.800000*%
%ADD28C,1.800000*%
%ADD29RoundRect,0.200000X0.600000X-0.600000X0.600000X0.600000X-0.600000X0.600000X-0.600000X-0.600000X0*%
%ADD30FreePoly0,90.000000*%
%ADD31FreePoly1,90.000000*%
%ADD32C,1.500000*%
G04 APERTURE END LIST*
G36*
X36000000Y-26500000D02*
G01*
X92000000Y-26500000D01*
X92000000Y-30500000D01*
X36000000Y-30500000D01*
X36000000Y-26500000D01*
G37*
G36*
X60000000Y-42000000D02*
G01*
X100000000Y-42000000D01*
X100000000Y-46000000D01*
X60000000Y-46000000D01*
X60000000Y-42000000D01*
G37*
G36*
X60000000Y-68000000D02*
G01*
X100000000Y-68000000D01*
X100000000Y-72000000D01*
X60000000Y-72000000D01*
X60000000Y-68000000D01*
G37*
G36*
X62100000Y-36000000D02*
G01*
X65900000Y-36000000D01*
X65900000Y-76000000D01*
X62100000Y-76000000D01*
X62100000Y-36000000D01*
G37*
G36*
X102000000Y-28000000D02*
G01*
X106000000Y-28000000D01*
X106000000Y-46000000D01*
X102000000Y-46000000D01*
X102000000Y-28000000D01*
G37*
G36*
X102000000Y-68000000D02*
G01*
X106000000Y-68000000D01*
X106000000Y-86000000D01*
X102000000Y-86000000D01*
X102000000Y-68000000D01*
G37*
D10*
%TO.C,R2*%
X29920000Y-70000000D03*
X40080000Y-70000000D03*
%TD*%
D11*
%TO.C,R11*%
X104800000Y-110212500D03*
X104800000Y-108387500D03*
%TD*%
D12*
%TO.C,U1*%
X48225000Y-40190000D03*
X48225000Y-41460000D03*
X48225000Y-42730000D03*
X48225000Y-44000000D03*
D13*
X57375000Y-44000000D03*
D12*
X48225000Y-45270000D03*
X48225000Y-46540000D03*
X48225000Y-47810000D03*
%TD*%
D14*
%TO.C,J5*%
X105001200Y-83000000D03*
%TD*%
D10*
%TO.C,R1*%
X29920000Y-44000000D03*
X40080000Y-44000000D03*
%TD*%
D15*
%TO.C,H1*%
X67000000Y-88000000D03*
%TD*%
D10*
%TO.C,R6*%
X69920000Y-58000000D03*
X80080000Y-58000000D03*
%TD*%
D14*
%TO.C,J2*%
X30001200Y-32000000D03*
%TD*%
D16*
%TO.C,U6*%
X24450000Y-100300000D03*
D17*
X26990000Y-100300000D03*
X29530000Y-100300000D03*
%TD*%
D18*
%TO.C,J6*%
X95000000Y-102190000D03*
D19*
X95000000Y-104730000D03*
X95000000Y-107270000D03*
X95000000Y-109810000D03*
%TD*%
D15*
%TO.C,H2*%
X78000000Y-88000000D03*
%TD*%
D20*
%TO.C,C5*%
X61000000Y-28000000D03*
X71000000Y-28000000D03*
%TD*%
D10*
%TO.C,C3*%
X51500000Y-28000000D03*
X56500000Y-28000000D03*
%TD*%
D21*
%TO.C,C1*%
X88748800Y-57000000D03*
D22*
X96248800Y-57000000D03*
%TD*%
D10*
%TO.C,R9*%
X48920000Y-88000000D03*
X59080000Y-88000000D03*
%TD*%
%TO.C,C4*%
X75500000Y-28000000D03*
X80500000Y-28000000D03*
%TD*%
D11*
%TO.C,R10*%
X101000000Y-107412500D03*
X101000000Y-105587500D03*
%TD*%
D12*
%TO.C,U3*%
X68225000Y-40190000D03*
X68225000Y-41460000D03*
X68225000Y-42730000D03*
X68225000Y-44000000D03*
D13*
X77375000Y-44000000D03*
D12*
X68225000Y-45270000D03*
X68225000Y-46540000D03*
X68225000Y-47810000D03*
%TD*%
D21*
%TO.C,C2*%
X31248800Y-57000000D03*
D22*
X38748800Y-57000000D03*
%TD*%
D15*
%TO.C,H4*%
X111498736Y-91000000D03*
%TD*%
D10*
%TO.C,R3*%
X47920000Y-54000000D03*
X58080000Y-54000000D03*
%TD*%
D23*
%TO.C,D2*%
X40600000Y-28000000D03*
X47400000Y-28000000D03*
%TD*%
D24*
%TO.C,R13*%
X46200000Y-77287500D03*
X46200000Y-79112500D03*
%TD*%
D14*
%TO.C,J4*%
X105001200Y-32000000D03*
%TD*%
D10*
%TO.C,R5*%
X47920000Y-58000000D03*
X58080000Y-58000000D03*
%TD*%
D12*
%TO.C,U2*%
X48225000Y-66190000D03*
X48225000Y-67460000D03*
X48225000Y-68730000D03*
X48225000Y-70000000D03*
D13*
X57375000Y-70000000D03*
D12*
X48225000Y-71270000D03*
X48225000Y-72540000D03*
X48225000Y-73810000D03*
%TD*%
D25*
%TO.C,J7*%
X106475000Y-103000000D03*
D26*
X106475000Y-100500000D03*
X106475000Y-98000000D03*
%TD*%
D24*
%TO.C,R12*%
X42800000Y-74087500D03*
X42800000Y-75912500D03*
%TD*%
D12*
%TO.C,U4*%
X68225000Y-66190000D03*
X68225000Y-67460000D03*
X68225000Y-68730000D03*
X68225000Y-70000000D03*
D13*
X77375000Y-70000000D03*
D12*
X68225000Y-71270000D03*
X68225000Y-72540000D03*
X68225000Y-73810000D03*
%TD*%
D14*
%TO.C,J3*%
X30001200Y-83000000D03*
%TD*%
D10*
%TO.C,R8*%
X69920000Y-62000000D03*
X80080000Y-62000000D03*
%TD*%
D27*
%TO.C,D1*%
X40225000Y-83600000D03*
D28*
X42765000Y-83600000D03*
%TD*%
D29*
%TO.C,U5*%
X36245000Y-109890000D03*
D10*
X38785000Y-109890000D03*
D30*
X41325000Y-109890000D03*
D10*
X43865000Y-109890000D03*
X46405000Y-109890000D03*
X48945000Y-109890000D03*
X51485000Y-109890000D03*
D30*
X54025000Y-109890000D03*
D10*
X56565000Y-109890000D03*
X59105000Y-109890000D03*
X61645000Y-109890000D03*
X64185000Y-109890000D03*
D30*
X66725000Y-109890000D03*
D10*
X69265000Y-109890000D03*
X71805000Y-109890000D03*
X74345000Y-109890000D03*
X76885000Y-109890000D03*
D30*
X79425000Y-109890000D03*
D10*
X81965000Y-109890000D03*
X84505000Y-109890000D03*
X84505000Y-92110000D03*
X81965000Y-92110000D03*
D31*
X79425000Y-92110000D03*
D10*
X76885000Y-92110000D03*
X74345000Y-92110000D03*
X71805000Y-92110000D03*
X69265000Y-92110000D03*
D31*
X66725000Y-92110000D03*
D10*
X64185000Y-92110000D03*
X61645000Y-92110000D03*
X59105000Y-92110000D03*
X56565000Y-92110000D03*
D31*
X54025000Y-92110000D03*
D10*
X51485000Y-92110000D03*
X48945000Y-92110000D03*
X46405000Y-92110000D03*
X43865000Y-92110000D03*
D31*
X41325000Y-92110000D03*
D10*
X38785000Y-92110000D03*
X36245000Y-92110000D03*
D32*
X84275000Y-103540000D03*
X84275000Y-101000000D03*
X84275000Y-98460000D03*
%TD*%
D10*
%TO.C,R4*%
X47920000Y-62000000D03*
X58080000Y-62000000D03*
%TD*%
%TO.C,R7*%
X69920000Y-54000000D03*
X80080000Y-54000000D03*
%TD*%
D15*
%TO.C,H3*%
X87998736Y-28000000D03*
%TD*%
D18*
%TO.C,J1*%
X23500000Y-48110000D03*
D19*
X23500000Y-50650000D03*
X23500000Y-53190000D03*
X23500000Y-55730000D03*
X23500000Y-58270000D03*
X23500000Y-60810000D03*
X23500000Y-63350000D03*
X23500000Y-65890000D03*
%TD*%
M02*
