M48
; DRILL file KiCad 10.0.3 date 2026-07-02T14:54:44
; FORMAT={-:-/ absolute / metric / decimal}
; #@! TF.CreationDate,2026-07-02T14:54:44+02:00
; #@! TF.GenerationSoftware,Kicad,Pcbnew,10.0.3
; #@! TF.FileFunction,MixedPlating,1,2
FMAT,2
METRIC
; #@! TA.AperFunction,Plated,PTH,ViaDrill
T1C0.400
; #@! TA.AperFunction,Plated,PTH,ViaDrill
T2C0.600
; #@! TA.AperFunction,Plated,PTH,ViaDrill
T3C0.800
; #@! TA.AperFunction,Plated,PTH,ComponentDrill
T4C0.800
; #@! TA.AperFunction,Plated,PTH,ComponentDrill
T5C0.900
; #@! TA.AperFunction,Plated,PTH,ComponentDrill
T6C0.950
; #@! TA.AperFunction,Plated,PTH,ComponentDrill
T7C1.000
; #@! TA.AperFunction,Plated,PTH,ComponentDrill
T8C1.010
; #@! TA.AperFunction,Plated,PTH,ComponentDrill
T9C1.100
; #@! TA.AperFunction,Plated,PTH,ComponentDrill
T10C1.200
; #@! TA.AperFunction,Plated,PTH,ComponentDrill
T11C1.600
; #@! TA.AperFunction,Plated,PTH,ComponentDrill
T12C1.780
; #@! TA.AperFunction,NonPlated,NPTH,ComponentDrill
T13C3.200
%
G90
G05
T1
X24.0Y-38.0
X24.0Y-45.0
X24.0Y-52.0
X24.0Y-59.0
X24.0Y-66.0
X24.0Y-73.0
X24.0Y-108.0
X31.0Y-38.0
X31.0Y-59.0
X33.08Y-27.938
X36.463Y-51.059
X38.0Y-24.0
X42.45Y-89.009
X45.0Y-24.0
X45.0Y-80.0
X48.377Y-37.874
X51.69Y-90.284
X52.0Y-24.0
X52.295Y-108.365
X55.191Y-60.171
X55.342Y-105.742
X56.032Y-105.013
X56.465Y-67.657
X56.812Y-71.662
X56.893Y-35.77
X58.159Y-35.458
X59.0Y-24.0
X63.244Y-86.261
X64.701Y-51.457
X68.806Y-35.458
X69.851Y-82.758
X70.106Y-44.765
X70.136Y-48.388
X71.706Y-45.166
X72.805Y-29.543
X73.0Y-24.0
X73.491Y-48.103
X73.802Y-89.597
X74.062Y-74.677
X75.286Y-46.23
X77.265Y-82.0
X77.942Y-44.465
X79.404Y-38.12
X79.84Y-41.728
X80.0Y-24.0
X80.0Y-80.0
X81.088Y-63.771
X81.254Y-65.458
X81.487Y-57.742
X81.879Y-45.612
X86.698Y-70.966
X87.0Y-24.0
X87.0Y-73.0
X87.0Y-80.0
X87.0Y-94.0
X88.36Y-46.931
X93.354Y-64.54
X93.409Y-60.16
X93.998Y-57.236
X94.0Y-24.0
X94.542Y-33.597
X95.49Y-70.851
X96.747Y-56.694
X99.104Y-64.342
X99.576Y-45.612
X99.966Y-48.832
X101.0Y-24.0
X101.0Y-52.0
X101.0Y-73.0
X101.0Y-80.0
X101.0Y-101.0
X106.632Y-53.916
X108.0Y-24.0
X108.0Y-52.0
X108.0Y-80.0
X108.0Y-101.0
X112.669Y-77.223
X115.0Y-24.0
X115.0Y-87.0
X115.0Y-101.0
X119.236Y-77.849
X122.0Y-24.0
X122.0Y-38.0
X122.0Y-45.0
X122.0Y-87.0
X122.0Y-101.0
X129.0Y-24.0
X129.0Y-38.0
X129.0Y-45.0
X129.0Y-59.0
X129.0Y-66.0
X129.0Y-73.0
X136.0Y-24.0
X136.0Y-31.0
X136.0Y-38.0
X136.0Y-59.0
X140.857Y-27.938
X143.0Y-31.0
X143.0Y-38.0
X143.0Y-45.0
X143.0Y-52.0
X143.0Y-59.0
X143.0Y-66.0
X143.0Y-73.0
X143.0Y-80.0
X143.0Y-87.0
X143.0Y-94.0
X143.0Y-101.0
X143.0Y-108.0
T2
X33.879Y-69.17
T3
X73.392Y-99.651
X90.54Y-55.442
X93.464Y-99.651
X120.063Y-64.05
X132.326Y-83.223
T4
X22.92Y-30.0
X22.92Y-35.0
X22.92Y-88.0
X24.92Y-102.5
X24.92Y-105.5
X30.0Y-42.92
X30.0Y-53.08
X33.08Y-30.0
X33.08Y-35.0
X33.08Y-88.0
X33.999Y-94.75
X33.999Y-97.25
X34.0Y-42.92
X34.0Y-53.08
X35.08Y-102.5
X35.08Y-105.5
X37.92Y-86.0
X38.92Y-101.0
X38.92Y-105.5
X39.0Y-45.5
X39.0Y-50.5
X39.5Y-93.0
X44.5Y-93.0
X48.08Y-86.0
X48.92Y-45.0
X48.92Y-50.0
X48.92Y-55.0
X49.08Y-101.0
X49.08Y-105.5
X52.92Y-30.0
X52.92Y-35.0
X59.08Y-45.0
X59.08Y-50.0
X59.08Y-55.0
X61.92Y-42.0
X61.92Y-48.0
X63.08Y-30.0
X63.08Y-35.0
X72.08Y-42.0
X72.08Y-48.0
X78.92Y-73.0
X89.08Y-73.0
X96.92Y-73.0
X107.08Y-73.0
X114.251Y-60.0
X116.0Y-66.5
X116.0Y-71.5
X117.751Y-60.0
X122.92Y-60.0
X122.92Y-65.0
X133.08Y-60.0
X133.08Y-65.0
X137.0Y-62.5
X137.0Y-67.5
T5
X23.725Y-82.0
X26.265Y-82.0
X31.225Y-82.0
X33.765Y-82.0
T6
X80.25Y-107.475
X82.75Y-107.475
X85.25Y-107.475
X87.75Y-107.475
X94.25Y-107.475
X96.75Y-107.475
X99.25Y-107.475
X101.75Y-107.475
X108.25Y-107.475
X110.75Y-107.475
X113.25Y-107.475
X115.75Y-107.475
X122.25Y-107.475
X124.75Y-107.475
X127.25Y-107.475
X129.75Y-107.475
T7
X30.11Y-111.0
X32.65Y-111.0
X34.0Y-73.5
X34.0Y-76.04
X34.765Y-63.335
X34.765Y-65.875
X35.19Y-111.0
X36.54Y-73.5
X36.54Y-76.04
X37.305Y-63.335
X37.305Y-65.875
X37.73Y-111.0
X39.08Y-73.5
X39.08Y-76.04
X39.845Y-63.335
X39.845Y-65.875
X40.27Y-111.0
X41.11Y-69.9
X41.62Y-73.5
X41.62Y-76.04
X42.385Y-63.335
X42.385Y-65.875
X42.81Y-111.0
X43.65Y-69.9
X44.16Y-73.5
X44.16Y-76.04
X44.925Y-63.335
X44.925Y-65.875
X45.35Y-111.0
X46.19Y-69.9
X46.7Y-73.5
X46.7Y-76.04
X47.465Y-63.335
X47.465Y-65.875
X47.89Y-111.0
X48.73Y-69.9
X49.24Y-73.5
X49.24Y-76.04
X50.005Y-63.335
X50.005Y-65.875
X51.27Y-69.9
X51.78Y-73.5
X51.78Y-76.04
X52.545Y-63.335
X52.545Y-65.875
X53.81Y-69.9
X54.32Y-73.5
X54.32Y-76.04
X55.085Y-63.335
X55.085Y-65.875
X56.35Y-69.9
X56.86Y-73.5
X56.86Y-76.04
X57.625Y-63.335
X57.625Y-65.875
X58.89Y-69.9
X59.4Y-73.5
X59.4Y-76.04
X60.165Y-63.335
X60.165Y-65.875
X61.94Y-73.5
X61.94Y-76.04
X62.705Y-63.335
X62.705Y-65.875
X64.48Y-73.5
X64.48Y-76.04
X65.245Y-63.335
X65.245Y-65.875
X80.74Y-32.0
X80.74Y-49.78
X80.97Y-38.35
X80.97Y-40.89
X80.97Y-43.43
X83.28Y-32.0
X83.28Y-49.78
X85.82Y-32.0
X85.82Y-49.78
X88.36Y-32.0
X88.36Y-49.78
X90.9Y-32.0
X90.9Y-49.78
X93.44Y-32.0
X93.44Y-49.78
X95.98Y-32.0
X95.98Y-49.78
X98.52Y-32.0
X98.52Y-49.78
X101.06Y-32.0
X101.06Y-49.78
X103.6Y-32.0
X103.6Y-49.78
X106.14Y-32.0
X106.14Y-49.78
X108.68Y-32.0
X108.68Y-49.78
X111.22Y-32.0
X111.22Y-49.78
X113.76Y-32.0
X113.76Y-49.78
X116.3Y-32.0
X116.3Y-49.78
X118.84Y-32.0
X118.84Y-49.78
X121.38Y-32.0
X121.38Y-49.78
X123.92Y-32.0
X123.92Y-49.78
X126.46Y-32.0
X126.46Y-49.78
X129.0Y-32.0
X129.0Y-49.78
X130.19Y-94.0
X132.73Y-94.0
X135.27Y-94.0
X135.725Y-47.0
X136.475Y-32.75
X136.475Y-35.25
X137.81Y-94.0
X138.265Y-47.0
T8
X134.45Y-52.4
X139.55Y-53.6
T9
X28.95Y-92.46
X28.95Y-95.0
X28.95Y-97.54
X54.0Y-91.42
X54.0Y-101.58
T10
X61.499Y-94.0
X66.499Y-94.0
X75.499Y-94.0
X80.499Y-94.0
T11
X55.16Y-108.775
X60.24Y-108.775
X68.16Y-108.775
X73.24Y-108.775
T12
X65.04Y-80.3
X65.04Y-83.7
X74.96Y-80.3
X74.96Y-83.7
T13
X24.0Y-24.0
X24.0Y-111.0
X32.0Y-25.0
X67.0Y-25.0
X90.0Y-90.0
X124.0Y-90.0
X141.0Y-24.0
X141.0Y-111.0
M30
