M48
; DRILL file KiCad 10.0.3 date 2026-07-02T05:16:27
; FORMAT={-:-/ absolute / metric / decimal}
; #@! TF.CreationDate,2026-07-02T05:16:27+02:00
; #@! TF.GenerationSoftware,Kicad,Pcbnew,10.0.3
; #@! TF.FileFunction,MixedPlating,1,2
FMAT,2
METRIC
; #@! TA.AperFunction,Plated,PTH,ViaDrill
T1C0.400
; #@! TA.AperFunction,Plated,PTH,ComponentDrill
T2C0.500
; #@! TA.AperFunction,Plated,PTH,ViaDrill
T3C0.600
; #@! TA.AperFunction,Plated,PTH,ViaDrill
T4C0.800
; #@! TA.AperFunction,Plated,PTH,ComponentDrill
T5C0.800
; #@! TA.AperFunction,Plated,PTH,ComponentDrill
T6C0.900
; #@! TA.AperFunction,Plated,PTH,ComponentDrill
T7C0.950
; #@! TA.AperFunction,Plated,PTH,ComponentDrill
T8C1.000
; #@! TA.AperFunction,Plated,PTH,ComponentDrill
T9C1.010
; #@! TA.AperFunction,Plated,PTH,ComponentDrill
T10C1.100
; #@! TA.AperFunction,Plated,PTH,ComponentDrill
T11C1.200
; #@! TA.AperFunction,Plated,PTH,ComponentDrill
T12C1.600
; #@! TA.AperFunction,Plated,PTH,ComponentDrill
T13C1.780
; #@! TA.AperFunction,Plated,PTH,ComponentDrill
T14C2.000
; #@! TA.AperFunction,Plated,PTH,ComponentDrill
T15C5.300
; #@! TA.AperFunction,NonPlated,NPTH,ComponentDrill
T16C2.300
; #@! TA.AperFunction,NonPlated,NPTH,ComponentDrill
T17C2.700
; #@! TA.AperFunction,NonPlated,NPTH,ComponentDrill
T18C3.200
%
G90
G05
T1
X24.0Y-66.0
X24.0Y-73.0
X24.0Y-80.0
X24.0Y-87.0
X24.0Y-129.0
X31.0Y-136.0
X38.0Y-129.0
X45.0Y-24.0
X48.715Y-118.001
X49.913Y-125.821
X59.0Y-24.0
X66.0Y-24.0
X66.0Y-31.0
X66.0Y-45.0
X66.455Y-121.144
X67.904Y-117.684
X68.287Y-35.804
X69.322Y-36.785
X70.074Y-37.573
X70.737Y-119.475
X70.86Y-118.517
X71.964Y-118.355
X72.029Y-120.257
X72.256Y-39.605
X73.0Y-87.0
X76.573Y-75.672
X77.397Y-28.419
X78.581Y-75.673
X79.009Y-126.13
X79.053Y-128.705
X79.667Y-52.708
X80.0Y-136.0
X81.909Y-24.223
X84.614Y-65.465
X85.868Y-62.673
X86.896Y-76.629
X87.0Y-108.0
X87.0Y-136.0
X88.528Y-60.913
X90.383Y-61.296
X91.055Y-42.899
X92.7Y-28.9
X93.039Y-30.539
X93.639Y-61.674
X93.96Y-46.345
X93.984Y-57.107
X94.0Y-115.0
X94.0Y-136.0
X94.703Y-40.947
X98.939Y-70.158
X99.218Y-80.237
X100.239Y-48.789
X100.61Y-74.676
X101.0Y-87.0
X101.0Y-115.0
X101.0Y-136.0
X101.572Y-75.734
X101.58Y-67.801
X102.428Y-49.863
X102.824Y-68.829
X103.867Y-112.574
X103.914Y-125.606
X104.143Y-114.1
X108.0Y-31.0
X108.0Y-101.0
X108.0Y-108.0
X108.0Y-136.0
X108.027Y-38.742
X110.576Y-38.04
X111.724Y-48.0
X111.803Y-36.568
X113.056Y-129.834
X113.414Y-130.839
X114.796Y-67.51
X114.918Y-69.858
X115.0Y-31.0
X115.0Y-136.0
X115.794Y-52.202
X116.773Y-69.858
X117.778Y-47.195
X117.882Y-60.566
X118.97Y-54.357
X119.356Y-83.27
X119.394Y-123.812
X119.75Y-34.209
X120.619Y-103.636
X120.872Y-51.54
X120.976Y-88.95
X122.0Y-136.0
X122.505Y-54.688
X123.548Y-96.405
X123.883Y-66.273
X124.476Y-55.12
X125.082Y-80.481
X125.941Y-122.145
X127.491Y-67.51
X128.054Y-100.357
X129.0Y-115.0
X129.0Y-129.0
X129.0Y-136.0
X129.912Y-103.586
X130.081Y-100.212
X130.539Y-108.174
X131.048Y-67.801
X132.474Y-54.843
X132.64Y-94.145
X132.786Y-61.118
X132.804Y-42.969
X133.188Y-48.434
X133.913Y-96.013
X134.526Y-54.728
X134.941Y-49.453
X135.041Y-87.956
X136.0Y-38.0
X136.0Y-129.0
X136.0Y-136.0
X137.033Y-99.99
X137.354Y-80.73
X137.583Y-77.457
X138.393Y-98.727
X139.06Y-76.221
X140.211Y-64.43
X141.157Y-104.288
X142.831Y-103.813
X143.0Y-24.0
X143.0Y-129.0
X143.0Y-136.0
X143.098Y-83.27
X143.961Y-39.386
X144.184Y-87.559
X146.323Y-42.323
X146.704Y-56.252
X147.55Y-37.063
X147.817Y-55.524
X150.0Y-24.0
X150.0Y-101.0
X150.0Y-108.0
X150.0Y-129.0
X150.0Y-136.0
X150.566Y-64.819
X150.643Y-61.305
X151.475Y-56.686
X151.77Y-62.372
X152.541Y-58.75
X153.414Y-87.953
X154.389Y-64.819
X154.764Y-63.449
X156.299Y-55.572
X157.0Y-24.0
X157.0Y-108.0
X157.0Y-129.0
X157.0Y-136.0
X158.54Y-50.428
X159.487Y-122.597
X160.052Y-48.503
X160.253Y-126.529
X160.618Y-52.32
X161.096Y-41.823
X162.061Y-41.121
X162.915Y-48.825
X163.481Y-34.048
X164.0Y-24.0
X164.0Y-129.0
X164.0Y-136.0
X171.0Y-24.0
X171.0Y-52.0
X171.0Y-129.0
X171.0Y-136.0
X171.23Y-39.542
X171.898Y-118.972
X173.196Y-86.95
T2
X41.04Y-42.945
X41.04Y-44.205
X41.79Y-41.915
X41.79Y-45.235
X42.99Y-41.525
X42.99Y-45.625
X44.32Y-41.525
X44.32Y-45.625
X45.66Y-41.525
X45.66Y-45.625
X46.99Y-41.525
X46.99Y-45.625
X48.19Y-41.915
X48.19Y-45.235
X48.94Y-42.945
X48.94Y-44.205
X51.04Y-42.945
X51.04Y-44.205
X51.79Y-41.915
X51.79Y-45.235
X52.99Y-41.525
X52.99Y-45.625
X54.32Y-41.525
X54.32Y-45.625
X55.66Y-41.525
X55.66Y-45.625
X56.99Y-41.525
X56.99Y-45.625
X58.19Y-41.915
X58.19Y-45.235
X58.94Y-42.945
X58.94Y-44.205
T3
X56.007Y-61.625
X98.977Y-43.875
T4
X68.169Y-130.2
X81.484Y-130.272
X165.962Y-79.775
T5
X23.2Y-44.505
X23.2Y-47.045
X23.2Y-58.505
X23.2Y-61.045
X40.0Y-103.5
X40.0Y-108.5
X44.11Y-123.19
X44.11Y-130.81
X46.0Y-136.5
X46.65Y-123.19
X46.65Y-130.81
X47.3Y-114.0
X47.3Y-119.0
X48.08Y-22.175
X49.19Y-123.19
X49.19Y-130.81
X49.99Y-22.175
X51.0Y-136.5
X51.73Y-123.19
X51.73Y-130.81
X51.9Y-22.175
X54.27Y-123.19
X54.27Y-130.81
X56.81Y-123.19
X56.81Y-130.81
X57.299Y-133.3
X57.299Y-135.3
X59.35Y-123.19
X59.35Y-130.81
X61.89Y-123.19
X61.89Y-130.81
X66.0Y-126.92
X66.0Y-137.08
X66.5Y-101.0
X71.5Y-101.0
X74.8Y-48.505
X74.8Y-51.045
X74.8Y-62.505
X74.8Y-65.045
X74.8Y-78.505
X74.8Y-81.045
X74.8Y-92.505
X74.8Y-95.045
X75.5Y-118.92
X75.5Y-129.08
X79.0Y-108.505
X79.0Y-111.045
X79.0Y-121.505
X79.0Y-124.045
X80.92Y-108.0
X83.92Y-35.0
X83.92Y-39.0
X91.08Y-108.0
X94.08Y-35.0
X94.08Y-39.0
X96.92Y-40.5
X107.08Y-40.5
X109.92Y-40.5
X109.92Y-126.0
X109.92Y-130.0
X109.92Y-134.0
X114.0Y-50.92
X114.0Y-61.08
X114.0Y-64.92
X114.0Y-75.08
X114.0Y-79.5
X114.0Y-84.5
X116.0Y-101.5
X116.0Y-106.5
X118.92Y-102.0
X120.08Y-40.5
X120.08Y-126.0
X120.08Y-130.0
X120.08Y-134.0
X122.92Y-40.5
X122.92Y-130.0
X125.92Y-96.0
X129.08Y-102.0
X131.92Y-106.0
X131.92Y-110.0
X132.92Y-102.0
X133.08Y-40.5
X133.08Y-130.0
X133.999Y-114.75
X133.999Y-117.25
X135.92Y-40.5
X136.08Y-96.0
X140.92Y-94.0
X140.999Y-114.75
X140.999Y-117.25
X142.08Y-106.0
X142.08Y-110.0
X143.08Y-102.0
X146.08Y-40.5
X146.92Y-102.0
X148.92Y-40.5
X151.08Y-94.0
X157.08Y-102.0
X158.251Y-82.0
X158.92Y-32.0
X158.92Y-35.5
X159.08Y-40.5
X160.0Y-87.5
X160.0Y-92.5
X161.751Y-82.0
X169.08Y-32.0
X169.08Y-35.5
X172.0Y-64.92
X172.0Y-75.08
X172.0Y-77.5
X172.0Y-82.5
X176.0Y-64.92
X176.0Y-75.08
T6
X98.725Y-35.0
X101.265Y-35.0
X111.725Y-35.0
X114.265Y-35.0
X124.725Y-35.0
X127.265Y-35.0
X137.725Y-35.0
X140.265Y-35.0
X150.725Y-35.0
X153.265Y-35.0
T7
X90.25Y-26.475
X92.75Y-26.475
X95.25Y-26.475
X97.75Y-26.475
X103.75Y-26.475
X106.25Y-26.475
X108.75Y-26.475
X111.25Y-26.475
X117.25Y-26.475
X119.75Y-26.475
X122.25Y-26.475
X124.75Y-26.475
X130.75Y-26.475
X133.25Y-26.475
X135.75Y-26.475
X138.25Y-26.475
X144.25Y-26.475
X146.75Y-26.475
X149.25Y-26.475
X151.75Y-26.475
X157.75Y-26.475
X160.25Y-26.475
X162.75Y-26.475
X165.25Y-26.475
X173.475Y-31.75
X173.475Y-34.25
X173.475Y-36.75
X173.475Y-39.25
T8
X81.225Y-43.875
X81.225Y-46.415
X81.225Y-48.955
X81.225Y-51.495
X81.225Y-54.035
X81.225Y-56.575
X81.225Y-59.115
X81.225Y-61.655
X81.225Y-64.195
X81.225Y-66.735
X81.225Y-69.275
X81.225Y-71.815
X81.225Y-74.355
X81.225Y-76.895
X81.225Y-79.435
X81.225Y-81.975
X81.225Y-84.515
X81.225Y-87.055
X81.225Y-89.595
X81.225Y-92.135
X83.765Y-43.875
X83.765Y-46.415
X83.765Y-48.955
X83.765Y-51.495
X83.765Y-54.035
X83.765Y-56.575
X83.765Y-59.115
X83.765Y-61.655
X83.765Y-64.195
X83.765Y-66.735
X83.765Y-69.275
X83.765Y-71.815
X83.765Y-74.355
X83.765Y-76.895
X83.765Y-79.435
X83.765Y-81.975
X83.765Y-84.515
X83.765Y-87.055
X83.765Y-89.595
X83.765Y-92.135
X87.11Y-128.0
X89.65Y-128.0
X92.19Y-128.0
X94.73Y-128.0
X97.27Y-128.0
X99.81Y-128.0
X102.35Y-128.0
X104.89Y-128.0
X118.74Y-53.0
X118.74Y-70.78
X118.97Y-59.35
X118.97Y-61.89
X118.97Y-64.43
X119.37Y-44.23
X119.37Y-46.77
X121.28Y-53.0
X121.28Y-70.78
X121.91Y-44.23
X121.91Y-46.77
X123.82Y-53.0
X123.82Y-70.78
X124.45Y-44.23
X124.45Y-46.77
X126.36Y-53.0
X126.36Y-70.78
X126.99Y-44.23
X126.99Y-46.77
X128.9Y-53.0
X128.9Y-70.78
X129.53Y-44.23
X129.53Y-46.77
X131.44Y-53.0
X131.44Y-70.78
X132.07Y-44.23
X132.07Y-46.77
X133.98Y-53.0
X133.98Y-70.78
X134.61Y-44.23
X134.61Y-46.77
X136.52Y-53.0
X136.52Y-70.78
X137.15Y-44.23
X137.15Y-46.77
X139.06Y-53.0
X139.06Y-70.78
X139.69Y-44.23
X139.69Y-46.77
X141.6Y-53.0
X141.6Y-70.78
X142.23Y-44.23
X142.23Y-46.77
X144.14Y-53.0
X144.14Y-70.78
X144.77Y-44.23
X144.77Y-46.77
X146.68Y-53.0
X146.68Y-70.78
X147.31Y-44.23
X147.31Y-46.77
X149.22Y-53.0
X149.22Y-70.78
X149.85Y-44.23
X149.85Y-46.77
X151.76Y-53.0
X151.76Y-70.78
X152.39Y-44.23
X152.39Y-46.77
X154.3Y-53.0
X154.3Y-70.78
X154.93Y-44.23
X154.93Y-46.77
X156.84Y-53.0
X156.84Y-70.78
X157.47Y-44.23
X157.47Y-46.77
X159.38Y-53.0
X159.38Y-70.78
X160.01Y-44.23
X160.01Y-46.77
X161.92Y-53.0
X161.92Y-70.78
X162.55Y-44.23
X162.55Y-46.77
X164.46Y-53.0
X164.46Y-70.78
X165.09Y-44.23
X165.09Y-46.77
X167.0Y-53.0
X167.0Y-70.78
X167.63Y-44.23
X167.63Y-46.77
X173.475Y-54.75
X173.475Y-57.25
X174.0Y-124.725
X174.0Y-127.265
T9
X161.45Y-123.4
X166.55Y-124.6
T10
X27.05Y-49.46
X27.05Y-52.0
X27.05Y-54.54
X27.05Y-61.46
X27.05Y-64.0
X27.05Y-66.54
X27.05Y-79.46
X27.05Y-82.0
X27.05Y-84.54
X27.05Y-91.46
X27.05Y-94.0
X27.05Y-96.54
X43.8Y-108.92
X43.8Y-119.08
X68.95Y-49.46
X68.95Y-52.0
X68.95Y-54.54
X68.95Y-61.46
X68.95Y-64.0
X68.95Y-66.54
X68.95Y-79.46
X68.95Y-82.0
X68.95Y-84.54
X68.95Y-91.46
X68.95Y-94.0
X68.95Y-96.54
X75.6Y-104.92
X75.6Y-115.08
X83.46Y-100.95
X86.0Y-100.95
X88.54Y-100.95
X92.15Y-63.89
X92.15Y-66.43
X92.15Y-91.89
X92.15Y-94.43
X94.69Y-63.89
X94.69Y-66.43
X94.69Y-91.89
X94.69Y-94.43
X94.92Y-100.0
X97.23Y-63.89
X97.23Y-66.43
X97.23Y-91.89
X97.23Y-94.43
X99.77Y-63.89
X99.77Y-66.43
X99.77Y-91.89
X99.77Y-94.43
X102.31Y-63.89
X102.31Y-66.43
X102.31Y-91.89
X102.31Y-94.43
X104.85Y-63.89
X104.85Y-66.43
X104.85Y-91.89
X104.85Y-94.43
X105.08Y-100.0
T11
X47.249Y-70.0
X47.249Y-92.0
X54.749Y-70.0
X54.749Y-92.0
X108.499Y-116.0
X113.499Y-116.0
X121.499Y-116.0
X126.499Y-116.0
T12
X85.16Y-115.775
X90.24Y-115.775
X150.16Y-115.775
X155.24Y-115.775
X165.16Y-115.775
X170.24Y-115.775
T13
X98.3Y-112.04
X98.3Y-121.96
X101.7Y-112.04
X101.7Y-121.96
T15
X31.001Y-34.0
X31.001Y-110.0
X31.001Y-125.0
X65.001Y-110.0
T16
X88.0Y-65.5
X88.0Y-93.5
X109.0Y-44.5
X109.0Y-65.5
X109.0Y-72.5
X109.0Y-93.5
T17
X114.5Y-45.5
X114.5Y-94.5
X172.5Y-45.5
X172.5Y-94.5
T18
X25.0Y-25.0
X25.0Y-135.0
X76.0Y-25.0
X175.0Y-25.0
X175.0Y-135.0
T14
X46.99Y-43.575G85X42.99Y-43.575
G05
X56.99Y-43.575G85X52.99Y-43.575
G05
M30
