%TF.GenerationSoftware,KiCad,Pcbnew,10.0.3*%
%TF.CreationDate,2026-07-02T05:16:26+02:00*%
%TF.ProjectId,vanchor-helm,76616e63-686f-4722-9d68-656c6d2e6b69,rev?*%
%TF.SameCoordinates,Original*%
%TF.FileFunction,Soldermask,Top*%
%TF.FilePolarity,Negative*%
%FSLAX46Y46*%
G04 Gerber Fmt 4.6, Leading zero omitted, Abs format (unit mm)*
G04 Created by KiCad (PCBNEW 10.0.3) date 2026-07-02 05:16:26*
%MOMM*%
%LPD*%
G01*
G04 APERTURE LIST*
G04 Aperture macros list*
%AMRoundRect*
0 Rectangle with rounded corners*
0 $1 Rounding radius*
0 $2 $3 $4 $5 $6 $7 $8 $9 X,Y pos of 4 corners*
0 Add a 4 corners polygon primitive as box body*
4,1,4,$2,$3,$4,$5,$6,$7,$8,$9,$2,$3,0*
0 Add four circle primitives for the rounded corners*
1,1,$1+$1,$2,$3*
1,1,$1+$1,$4,$5*
1,1,$1+$1,$6,$7*
1,1,$1+$1,$8,$9*
0 Add four rect primitives between the rounded corners*
20,1,$1+$1,$2,$3,$4,$5,0*
20,1,$1+$1,$4,$5,$6,$7,0*
20,1,$1+$1,$6,$7,$8,$9,0*
20,1,$1+$1,$8,$9,$2,$3,0*%
%AMHorizOval*
0 Thick line with rounded ends*
0 $1 width*
0 $2 $3 position (X,Y) of the first rounded end (center of the circle)*
0 $4 $5 position (X,Y) of the second rounded end (center of the circle)*
0 Add line between two ends*
20,1,$1,$2,$3,$4,$5,0*
0 Add two circle primitives to create the rounded ends*
1,1,$1,$2,$3*
1,1,$1,$4,$5*%
%AMFreePoly0*
4,1,37,0.603843,0.796157,0.639018,0.796157,0.711114,0.766294,0.766294,0.711114,0.796157,0.639018,0.796157,0.603843,0.800000,0.600000,0.800000,-0.600000,0.796157,-0.603843,0.796157,-0.639018,0.766294,-0.711114,0.711114,-0.766294,0.639018,-0.796157,0.603843,-0.796157,0.600000,-0.800000,0.000000,-0.800000,0.000000,-0.796148,-0.078414,-0.796148,-0.232228,-0.765552,-0.377117,-0.705537,
-0.507515,-0.618408,-0.618408,-0.507515,-0.705537,-0.377117,-0.765552,-0.232228,-0.796148,-0.078414,-0.796148,0.078414,-0.765552,0.232228,-0.705537,0.377117,-0.618408,0.507515,-0.507515,0.618408,-0.377117,0.705537,-0.232228,0.765552,-0.078414,0.796148,0.000000,0.796148,0.000000,0.800000,0.600000,0.800000,0.603843,0.796157,0.603843,0.796157,$1*%
%AMFreePoly1*
4,1,37,0.000000,0.796148,0.078414,0.796148,0.232228,0.765552,0.377117,0.705537,0.507515,0.618408,0.618408,0.507515,0.705537,0.377117,0.765552,0.232228,0.796148,0.078414,0.796148,-0.078414,0.765552,-0.232228,0.705537,-0.377117,0.618408,-0.507515,0.507515,-0.618408,0.377117,-0.705537,0.232228,-0.765552,0.078414,-0.796148,0.000000,-0.796148,0.000000,-0.800000,-0.600000,-0.800000,
-0.603843,-0.796157,-0.639018,-0.796157,-0.711114,-0.766294,-0.766294,-0.711114,-0.796157,-0.639018,-0.796157,-0.603843,-0.800000,-0.600000,-0.800000,0.600000,-0.796157,0.603843,-0.796157,0.639018,-0.766294,0.711114,-0.711114,0.766294,-0.639018,0.796157,-0.603843,0.796157,-0.600000,0.800000,0.000000,0.800000,0.000000,0.796148,0.000000,0.796148,$1*%
G04 Aperture macros list end*
%ADD10RoundRect,0.250001X-0.949999X-0.949999X0.949999X-0.949999X0.949999X0.949999X-0.949999X0.949999X0*%
%ADD11C,2.400000*%
%ADD12C,1.600000*%
%ADD13C,2.700000*%
%ADD14C,14.000000*%
%ADD15R,2.000000X1.905000*%
%ADD16O,2.000000X1.905000*%
%ADD17R,1.800000X1.800000*%
%ADD18C,1.800000*%
%ADD19RoundRect,0.150000X-0.587500X-0.150000X0.587500X-0.150000X0.587500X0.150000X-0.587500X0.150000X0*%
%ADD20RoundRect,0.250000X-0.600000X-0.725000X0.600000X-0.725000X0.600000X0.725000X-0.600000X0.725000X0*%
%ADD21O,1.700000X1.950000*%
%ADD22R,1.905000X2.000000*%
%ADD23O,1.905000X2.000000*%
%ADD24RoundRect,0.200000X-0.600000X0.600000X-0.600000X-0.600000X0.600000X-0.600000X0.600000X0.600000X0*%
%ADD25FreePoly0,270.000000*%
%ADD26FreePoly1,270.000000*%
%ADD27C,1.500000*%
%ADD28C,2.780000*%
%ADD29RoundRect,0.250000X0.550000X-0.550000X0.550000X0.550000X-0.550000X0.550000X-0.550000X-0.550000X0*%
%ADD30RoundRect,0.200000X-2.100000X-0.200000X2.100000X-0.200000X2.100000X0.200000X-2.100000X0.200000X0*%
%ADD31RoundRect,0.250002X-4.449998X-5.149998X4.449998X-5.149998X4.449998X5.149998X-4.449998X5.149998X0*%
%ADD32C,3.200000*%
%ADD33RoundRect,0.249999X0.850001X-0.850001X0.850001X0.850001X-0.850001X0.850001X-0.850001X-0.850001X0*%
%ADD34C,2.200000*%
%ADD35C,2.300000*%
%ADD36RoundRect,0.250000X1.000000X-1.400000X1.000000X1.400000X-1.000000X1.400000X-1.000000X-1.400000X0*%
%ADD37RoundRect,0.249999X-0.850001X-0.850001X0.850001X-0.850001X0.850001X0.850001X-0.850001X0.850001X0*%
%ADD38R,1.500000X1.500000*%
%ADD39HorizOval,0.800000X0.000000X0.000000X0.000000X0.000000X0*%
%ADD40HorizOval,0.800000X0.000000X0.000000X0.000000X0.000000X0*%
%ADD41C,0.800000*%
%ADD42O,9.000000X6.000000*%
%ADD43C,2.010000*%
%ADD44RoundRect,0.250000X-0.550000X-0.550000X0.550000X-0.550000X0.550000X0.550000X-0.550000X0.550000X0*%
%ADD45RoundRect,0.250000X-0.550000X0.550000X-0.550000X-0.550000X0.550000X-0.550000X0.550000X0.550000X0*%
%ADD46R,1.700000X1.700000*%
%ADD47C,1.700000*%
%ADD48RoundRect,0.250000X0.750000X-0.600000X0.750000X0.600000X-0.750000X0.600000X-0.750000X-0.600000X0*%
%ADD49O,2.000000X1.700000*%
%ADD50RoundRect,0.250000X0.725000X-0.600000X0.725000X0.600000X-0.725000X0.600000X-0.725000X-0.600000X0*%
%ADD51O,1.950000X1.700000*%
G04 APERTURE END LIST*
D10*
%TO.C,C18*%
X47248800Y-70000000D03*
D11*
X54748800Y-70000000D03*
%TD*%
D12*
%TO.C,R11*%
X172000000Y-75080000D03*
X172000000Y-64920000D03*
%TD*%
D13*
%TO.C,H8*%
X114500000Y-94500000D03*
%TD*%
D12*
%TO.C,R28*%
X74800000Y-81045000D03*
X74800000Y-78505000D03*
%TD*%
D14*
%TO.C,J20*%
X65001200Y-110000000D03*
%TD*%
D10*
%TO.C,J22*%
X150160000Y-115775000D03*
D11*
X155240000Y-115775000D03*
%TD*%
D12*
%TO.C,C16*%
X51000000Y-136500000D03*
X46000000Y-136500000D03*
%TD*%
%TO.C,C5*%
X172000000Y-82500000D03*
X172000000Y-77500000D03*
%TD*%
%TO.C,R2*%
X96920000Y-40500000D03*
X107080000Y-40500000D03*
%TD*%
D15*
%TO.C,Q8*%
X68950000Y-66540000D03*
D16*
X68950000Y-64000000D03*
X68950000Y-61460000D03*
%TD*%
D14*
%TO.C,J18*%
X31001200Y-34000000D03*
%TD*%
D17*
%TO.C,LED5*%
X150725000Y-35000000D03*
D18*
X153265000Y-35000000D03*
%TD*%
D12*
%TO.C,R10*%
X146920000Y-102000000D03*
X157080000Y-102000000D03*
%TD*%
D19*
%TO.C,D6*%
X171062500Y-85050000D03*
X171062500Y-86950000D03*
X172937500Y-86000000D03*
%TD*%
D12*
%TO.C,R36*%
X122920000Y-130000000D03*
X133080000Y-130000000D03*
%TD*%
%TO.C,R7*%
X135920000Y-40500000D03*
X146080000Y-40500000D03*
%TD*%
D20*
%TO.C,J5*%
X117250000Y-26475000D03*
D21*
X119750000Y-26475000D03*
X122250000Y-26475000D03*
X124750000Y-26475000D03*
%TD*%
D15*
%TO.C,Q5*%
X27050000Y-79460000D03*
D16*
X27050000Y-82000000D03*
X27050000Y-84540000D03*
%TD*%
D22*
%TO.C,Q1*%
X83460000Y-100950000D03*
D23*
X86000000Y-100950000D03*
X88540000Y-100950000D03*
%TD*%
D12*
%TO.C,R5*%
X83920000Y-39000000D03*
X94080000Y-39000000D03*
%TD*%
%TO.C,R20*%
X158920000Y-32000000D03*
X169080000Y-32000000D03*
%TD*%
D19*
%TO.C,D11*%
X167562500Y-38050000D03*
X167562500Y-39950000D03*
X169437500Y-39000000D03*
%TD*%
D12*
%TO.C,C15*%
X71500000Y-101000000D03*
X66500000Y-101000000D03*
%TD*%
D24*
%TO.C,U1*%
X167000000Y-53000000D03*
D12*
X164460000Y-53000000D03*
D25*
X161920000Y-53000000D03*
D12*
X159380000Y-53000000D03*
X156840000Y-53000000D03*
X154300000Y-53000000D03*
X151760000Y-53000000D03*
D25*
X149220000Y-53000000D03*
D12*
X146680000Y-53000000D03*
X144140000Y-53000000D03*
X141600000Y-53000000D03*
X139060000Y-53000000D03*
D25*
X136520000Y-53000000D03*
D12*
X133980000Y-53000000D03*
X131440000Y-53000000D03*
X128900000Y-53000000D03*
X126360000Y-53000000D03*
D25*
X123820000Y-53000000D03*
D12*
X121280000Y-53000000D03*
X118740000Y-53000000D03*
X118740000Y-70780000D03*
X121280000Y-70780000D03*
D26*
X123820000Y-70780000D03*
D12*
X126360000Y-70780000D03*
X128900000Y-70780000D03*
X131440000Y-70780000D03*
X133980000Y-70780000D03*
D26*
X136520000Y-70780000D03*
D12*
X139060000Y-70780000D03*
X141600000Y-70780000D03*
X144140000Y-70780000D03*
X146680000Y-70780000D03*
D26*
X149220000Y-70780000D03*
D12*
X151760000Y-70780000D03*
X154300000Y-70780000D03*
X156840000Y-70780000D03*
X159380000Y-70780000D03*
D26*
X161920000Y-70780000D03*
D12*
X164460000Y-70780000D03*
X167000000Y-70780000D03*
D27*
X118970000Y-59350000D03*
X118970000Y-61890000D03*
X118970000Y-64430000D03*
%TD*%
D28*
%TO.C,F1*%
X98300000Y-121960000D03*
X101700000Y-121960000D03*
X98300000Y-112040000D03*
X101700000Y-112040000D03*
%TD*%
D12*
%TO.C,C21*%
X114000000Y-84500000D03*
X114000000Y-79500000D03*
%TD*%
D29*
%TO.C,C3*%
X133998800Y-117250000D03*
D12*
X133998800Y-114750000D03*
%TD*%
D20*
%TO.C,J7*%
X144250000Y-26475000D03*
D21*
X146750000Y-26475000D03*
X149250000Y-26475000D03*
X151750000Y-26475000D03*
%TD*%
D15*
%TO.C,Q3*%
X27050000Y-49460000D03*
D16*
X27050000Y-52000000D03*
X27050000Y-54540000D03*
%TD*%
D12*
%TO.C,R27*%
X74800000Y-65045000D03*
X74800000Y-62505000D03*
%TD*%
D29*
%TO.C,C4*%
X140998800Y-117250000D03*
D12*
X140998800Y-114750000D03*
%TD*%
%TO.C,C12*%
X116000000Y-106500000D03*
X116000000Y-101500000D03*
%TD*%
%TO.C,R37*%
X114000000Y-61080000D03*
X114000000Y-50920000D03*
%TD*%
D19*
%TO.C,D10*%
X163062500Y-38050000D03*
X163062500Y-39950000D03*
X164937500Y-39000000D03*
%TD*%
D30*
%TO.C,U7*%
X122225000Y-78190000D03*
X122225000Y-79460000D03*
X122225000Y-80730000D03*
X122225000Y-82000000D03*
D31*
X131375000Y-82000000D03*
D30*
X122225000Y-83270000D03*
X122225000Y-84540000D03*
X122225000Y-85810000D03*
%TD*%
D12*
%TO.C,C23*%
X160000000Y-92500000D03*
X160000000Y-87500000D03*
%TD*%
%TO.C,R25*%
X79000000Y-124045000D03*
X79000000Y-121505000D03*
%TD*%
D17*
%TO.C,LED3*%
X124725000Y-35000000D03*
D18*
X127265000Y-35000000D03*
%TD*%
D17*
%TO.C,LED2*%
X111725000Y-35000000D03*
D18*
X114265000Y-35000000D03*
%TD*%
D32*
%TO.C,H2*%
X175000000Y-25000000D03*
%TD*%
D33*
%TO.C,D13*%
X75600000Y-115080000D03*
D34*
X75600000Y-104920000D03*
%TD*%
D35*
%TO.C,U5*%
X88000000Y-65500000D03*
X109000000Y-44500000D03*
X109000000Y-65500000D03*
D18*
X97230000Y-63890000D03*
X97230000Y-66430000D03*
X99770000Y-63890000D03*
X99770000Y-66430000D03*
X102310000Y-63890000D03*
X102310000Y-66430000D03*
X104850000Y-63890000D03*
X104850000Y-66430000D03*
D17*
X92150000Y-66430000D03*
D18*
X92150000Y-63890000D03*
X94690000Y-63890000D03*
X94690000Y-66430000D03*
%TD*%
D32*
%TO.C,H4*%
X175000000Y-135000000D03*
%TD*%
D12*
%TO.C,R18*%
X131920000Y-106000000D03*
X142080000Y-106000000D03*
%TD*%
D32*
%TO.C,H3*%
X25000000Y-135000000D03*
%TD*%
D12*
%TO.C,R22*%
X23200000Y-47045000D03*
X23200000Y-44505000D03*
%TD*%
D36*
%TO.C,D5*%
X96600000Y-105000000D03*
X103400000Y-105000000D03*
%TD*%
D15*
%TO.C,Q6*%
X27050000Y-91460000D03*
D16*
X27050000Y-94000000D03*
X27050000Y-96540000D03*
%TD*%
D19*
%TO.C,D14*%
X113062500Y-87050000D03*
X113062500Y-88950000D03*
X114937500Y-88000000D03*
%TD*%
D12*
%TO.C,R26*%
X74800000Y-51045000D03*
X74800000Y-48505000D03*
%TD*%
D17*
%TO.C,LED4*%
X137725000Y-35000000D03*
D18*
X140265000Y-35000000D03*
%TD*%
D12*
%TO.C,R12*%
X176000000Y-75080000D03*
X176000000Y-64920000D03*
%TD*%
D20*
%TO.C,J6*%
X130750000Y-26475000D03*
D21*
X133250000Y-26475000D03*
X135750000Y-26475000D03*
X138250000Y-26475000D03*
%TD*%
D15*
%TO.C,Q4*%
X27050000Y-61460000D03*
D16*
X27050000Y-64000000D03*
X27050000Y-66540000D03*
%TD*%
D15*
%TO.C,Q10*%
X68950000Y-96540000D03*
D16*
X68950000Y-94000000D03*
X68950000Y-91460000D03*
%TD*%
D12*
%TO.C,C14*%
X40000000Y-108500000D03*
X40000000Y-103500000D03*
%TD*%
%TO.C,R9*%
X132920000Y-102000000D03*
X143080000Y-102000000D03*
%TD*%
D13*
%TO.C,H7*%
X172500000Y-45500000D03*
%TD*%
D12*
%TO.C,R4*%
X122920000Y-40500000D03*
X133080000Y-40500000D03*
%TD*%
D37*
%TO.C,D4*%
X94920000Y-100000000D03*
D34*
X105080000Y-100000000D03*
%TD*%
D14*
%TO.C,J21*%
X31001200Y-125000000D03*
%TD*%
D20*
%TO.C,J4*%
X103750000Y-26475000D03*
D21*
X106250000Y-26475000D03*
X108750000Y-26475000D03*
X111250000Y-26475000D03*
%TD*%
D15*
%TO.C,Q7*%
X68950000Y-54540000D03*
D16*
X68950000Y-52000000D03*
X68950000Y-49460000D03*
%TD*%
D12*
%TO.C,R32*%
X75500000Y-129080000D03*
X75500000Y-118920000D03*
%TD*%
D38*
%TO.C,U10*%
X51900000Y-22175000D03*
D27*
X49990000Y-22175000D03*
X48080000Y-22175000D03*
D39*
X48940000Y-44205000D03*
D40*
X48940000Y-42945000D03*
D41*
X48190000Y-45235000D03*
X48190000Y-41915000D03*
X46990000Y-45625000D03*
X46990000Y-41525000D03*
X45660000Y-45625000D03*
X45660000Y-41525000D03*
D42*
X44990000Y-43575000D03*
D41*
X44320000Y-45625000D03*
X44320000Y-41525000D03*
X42990000Y-45625000D03*
X42990000Y-41525000D03*
X41790000Y-45235000D03*
X41790000Y-41915000D03*
X41040000Y-44205000D03*
X41040000Y-42945000D03*
X58940000Y-44205000D03*
X58940000Y-42945000D03*
X58190000Y-45235000D03*
X58190000Y-41915000D03*
X56990000Y-45625000D03*
X56990000Y-41525000D03*
X55660000Y-45625000D03*
X55660000Y-41525000D03*
D42*
X54990000Y-43575000D03*
D41*
X54320000Y-45625000D03*
X54320000Y-41525000D03*
X52990000Y-45625000D03*
X52990000Y-41525000D03*
X51790000Y-45235000D03*
X51790000Y-41915000D03*
D40*
X51040000Y-44205000D03*
D39*
X51040000Y-42945000D03*
%TD*%
D12*
%TO.C,R38*%
X114000000Y-75080000D03*
X114000000Y-64920000D03*
%TD*%
D13*
%TO.C,H9*%
X172500000Y-94500000D03*
%TD*%
D20*
%TO.C,J8*%
X157750000Y-26475000D03*
D21*
X160250000Y-26475000D03*
X162750000Y-26475000D03*
X165250000Y-26475000D03*
%TD*%
D32*
%TO.C,H1*%
X25000000Y-25000000D03*
%TD*%
D43*
%TO.C,F2*%
X161450000Y-123400000D03*
X166550000Y-124600000D03*
%TD*%
D32*
%TO.C,H5*%
X76000000Y-25000000D03*
%TD*%
D12*
%TO.C,R13*%
X148920000Y-40500000D03*
X159080000Y-40500000D03*
%TD*%
D33*
%TO.C,D12*%
X43800000Y-119080000D03*
D34*
X43800000Y-108920000D03*
%TD*%
D12*
%TO.C,R29*%
X74800000Y-95045000D03*
X74800000Y-92505000D03*
%TD*%
D35*
%TO.C,U6*%
X88000000Y-93500000D03*
X109000000Y-72500000D03*
X109000000Y-93500000D03*
D18*
X97230000Y-91890000D03*
X97230000Y-94430000D03*
X99770000Y-91890000D03*
X99770000Y-94430000D03*
X102310000Y-91890000D03*
X102310000Y-94430000D03*
X104850000Y-91890000D03*
X104850000Y-94430000D03*
D17*
X92150000Y-94430000D03*
D18*
X92150000Y-91890000D03*
X94690000Y-91890000D03*
X94690000Y-94430000D03*
%TD*%
D12*
%TO.C,R6*%
X83920000Y-35000000D03*
X94080000Y-35000000D03*
%TD*%
%TO.C,R33*%
X109920000Y-126000000D03*
X120080000Y-126000000D03*
%TD*%
D44*
%TO.C,C22*%
X158251200Y-82000000D03*
D12*
X161751200Y-82000000D03*
%TD*%
D10*
%TO.C,C19*%
X47248800Y-92000000D03*
D11*
X54748800Y-92000000D03*
%TD*%
D10*
%TO.C,J16*%
X85160000Y-115775000D03*
D11*
X90240000Y-115775000D03*
%TD*%
D20*
%TO.C,J3*%
X90250000Y-26475000D03*
D21*
X92750000Y-26475000D03*
X95250000Y-26475000D03*
X97750000Y-26475000D03*
%TD*%
D12*
%TO.C,C20*%
X47300000Y-114000000D03*
X47300000Y-119000000D03*
%TD*%
D10*
%TO.C,C2*%
X121498700Y-116000000D03*
D11*
X126498700Y-116000000D03*
%TD*%
D12*
%TO.C,R19*%
X131920000Y-110000000D03*
X142080000Y-110000000D03*
%TD*%
D45*
%TO.C,U9*%
X61890000Y-123190000D03*
D12*
X59350000Y-123190000D03*
X56810000Y-123190000D03*
X54270000Y-123190000D03*
X51730000Y-123190000D03*
X49190000Y-123190000D03*
X46650000Y-123190000D03*
X44110000Y-123190000D03*
X44110000Y-130810000D03*
X46650000Y-130810000D03*
X49190000Y-130810000D03*
X51730000Y-130810000D03*
X54270000Y-130810000D03*
X56810000Y-130810000D03*
X59350000Y-130810000D03*
X61890000Y-130810000D03*
%TD*%
D15*
%TO.C,Q9*%
X68950000Y-84540000D03*
D16*
X68950000Y-82000000D03*
X68950000Y-79460000D03*
%TD*%
D46*
%TO.C,J9*%
X174000000Y-124725000D03*
D47*
X174000000Y-127265000D03*
%TD*%
D12*
%TO.C,R8*%
X118920000Y-102000000D03*
X129080000Y-102000000D03*
%TD*%
D48*
%TO.C,J10*%
X173475000Y-57250000D03*
D49*
X173475000Y-54750000D03*
%TD*%
D12*
%TO.C,R21*%
X158920000Y-35500000D03*
X169080000Y-35500000D03*
%TD*%
%TO.C,R24*%
X79000000Y-111045000D03*
X79000000Y-108505000D03*
%TD*%
%TO.C,R1*%
X80920000Y-108000000D03*
X91080000Y-108000000D03*
%TD*%
%TO.C,R23*%
X23200000Y-61045000D03*
X23200000Y-58505000D03*
%TD*%
%TO.C,R30*%
X66000000Y-137080000D03*
X66000000Y-126920000D03*
%TD*%
D46*
%TO.C,J2*%
X81225000Y-43875000D03*
D47*
X83765000Y-43875000D03*
X81225000Y-46415000D03*
X83765000Y-46415000D03*
X81225000Y-48955000D03*
X83765000Y-48955000D03*
X81225000Y-51495000D03*
X83765000Y-51495000D03*
X81225000Y-54035000D03*
X83765000Y-54035000D03*
X81225000Y-56575000D03*
X83765000Y-56575000D03*
X81225000Y-59115000D03*
X83765000Y-59115000D03*
X81225000Y-61655000D03*
X83765000Y-61655000D03*
X81225000Y-64195000D03*
X83765000Y-64195000D03*
X81225000Y-66735000D03*
X83765000Y-66735000D03*
X81225000Y-69275000D03*
X83765000Y-69275000D03*
X81225000Y-71815000D03*
X83765000Y-71815000D03*
X81225000Y-74355000D03*
X83765000Y-74355000D03*
X81225000Y-76895000D03*
X83765000Y-76895000D03*
X81225000Y-79435000D03*
X83765000Y-79435000D03*
X81225000Y-81975000D03*
X83765000Y-81975000D03*
X81225000Y-84515000D03*
X83765000Y-84515000D03*
X81225000Y-87055000D03*
X83765000Y-87055000D03*
X81225000Y-89595000D03*
X83765000Y-89595000D03*
X81225000Y-92135000D03*
X83765000Y-92135000D03*
%TD*%
D30*
%TO.C,U8*%
X140225000Y-78190000D03*
X140225000Y-79460000D03*
X140225000Y-80730000D03*
X140225000Y-82000000D03*
D31*
X149375000Y-82000000D03*
D30*
X140225000Y-83270000D03*
X140225000Y-84540000D03*
X140225000Y-85810000D03*
%TD*%
D12*
%TO.C,R39*%
X125920000Y-96000000D03*
X136080000Y-96000000D03*
%TD*%
D10*
%TO.C,C1*%
X108498700Y-116000000D03*
D11*
X113498700Y-116000000D03*
%TD*%
D13*
%TO.C,H6*%
X114500000Y-45500000D03*
%TD*%
D14*
%TO.C,J19*%
X31001200Y-110000000D03*
%TD*%
D50*
%TO.C,J11*%
X173475000Y-39250000D03*
D51*
X173475000Y-36750000D03*
X173475000Y-34250000D03*
X173475000Y-31750000D03*
%TD*%
D12*
%TO.C,R35*%
X109920000Y-134000000D03*
X120080000Y-134000000D03*
%TD*%
D36*
%TO.C,D15*%
X48600000Y-106000000D03*
X55400000Y-106000000D03*
%TD*%
D12*
%TO.C,R3*%
X109920000Y-40500000D03*
X120080000Y-40500000D03*
%TD*%
D10*
%TO.C,J17*%
X165160000Y-115775000D03*
D11*
X170240000Y-115775000D03*
%TD*%
D29*
%TO.C,C17*%
X57298700Y-135300000D03*
D12*
X57298700Y-133300000D03*
%TD*%
%TO.C,R34*%
X109920000Y-130000000D03*
X120080000Y-130000000D03*
%TD*%
D17*
%TO.C,LED1*%
X98725000Y-35000000D03*
D18*
X101265000Y-35000000D03*
%TD*%
D12*
%TO.C,R40*%
X140920000Y-94000000D03*
X151080000Y-94000000D03*
%TD*%
D19*
%TO.C,D8*%
X125062500Y-105050000D03*
X125062500Y-106950000D03*
X126937500Y-106000000D03*
%TD*%
D46*
%TO.C,J12*%
X87110000Y-128000000D03*
D47*
X89650000Y-128000000D03*
X92190000Y-128000000D03*
X94730000Y-128000000D03*
X97270000Y-128000000D03*
X99810000Y-128000000D03*
X102350000Y-128000000D03*
X104890000Y-128000000D03*
%TD*%
D46*
%TO.C,J1*%
X119370000Y-46770000D03*
D47*
X119370000Y-44230000D03*
X121910000Y-46770000D03*
X121910000Y-44230000D03*
X124450000Y-46770000D03*
X124450000Y-44230000D03*
X126990000Y-46770000D03*
X126990000Y-44230000D03*
X129530000Y-46770000D03*
X129530000Y-44230000D03*
X132070000Y-46770000D03*
X132070000Y-44230000D03*
X134610000Y-46770000D03*
X134610000Y-44230000D03*
X137150000Y-46770000D03*
X137150000Y-44230000D03*
X139690000Y-46770000D03*
X139690000Y-44230000D03*
X142230000Y-46770000D03*
X142230000Y-44230000D03*
X144770000Y-46770000D03*
X144770000Y-44230000D03*
X147310000Y-46770000D03*
X147310000Y-44230000D03*
X149850000Y-46770000D03*
X149850000Y-44230000D03*
X152390000Y-46770000D03*
X152390000Y-44230000D03*
X154930000Y-46770000D03*
X154930000Y-44230000D03*
X157470000Y-46770000D03*
X157470000Y-44230000D03*
X160010000Y-46770000D03*
X160010000Y-44230000D03*
X162550000Y-46770000D03*
X162550000Y-44230000D03*
X165090000Y-46770000D03*
X165090000Y-44230000D03*
X167630000Y-46770000D03*
X167630000Y-44230000D03*
%TD*%
M02*
