M48
; DRILL file KiCad 10.0.3 date 2026-07-02T09:17:44
; FORMAT={-:-/ absolute / metric / decimal}
; #@! TF.CreationDate,2026-07-02T09:17:44+02:00
; #@! TF.GenerationSoftware,Kicad,Pcbnew,10.0.3
; #@! TF.FileFunction,MixedPlating,1,2
FMAT,2
METRIC
; #@! TA.AperFunction,Plated,PTH,ViaDrill
T1C0.400
; #@! TA.AperFunction,Plated,PTH,ViaDrill
T2C0.500
; #@! TA.AperFunction,Plated,PTH,ViaDrill
T3C0.600
; #@! TA.AperFunction,Plated,PTH,ViaDrill
T4C0.800
; #@! TA.AperFunction,Plated,PTH,ComponentDrill
T5C0.800
; #@! TA.AperFunction,Plated,PTH,ComponentDrill
T6C0.900
; #@! TA.AperFunction,Plated,PTH,ComponentDrill
T7C0.950
; #@! TA.AperFunction,Plated,PTH,ComponentDrill
T8C1.000
; #@! TA.AperFunction,Plated,PTH,ComponentDrill
T9C1.010
; #@! TA.AperFunction,Plated,PTH,ComponentDrill
T10C1.100
; #@! TA.AperFunction,Plated,PTH,ComponentDrill
T11C1.200
; #@! TA.AperFunction,Plated,PTH,ComponentDrill
T12C1.600
; #@! TA.AperFunction,Plated,PTH,ComponentDrill
T13C1.780
; #@! TA.AperFunction,NonPlated,NPTH,ComponentDrill
T14C3.200
%
G90
G05
T1
X24.0Y-38.0
X24.0Y-45.0
X24.0Y-52.0
X24.0Y-59.0
X24.0Y-66.0
X24.0Y-73.0
X24.0Y-108.0
X31.0Y-31.0
X31.0Y-38.0
X36.13Y-62.853
X37.81Y-70.392
X38.0Y-24.0
X45.0Y-24.0
X45.0Y-38.0
X46.369Y-72.063
X47.488Y-71.033
X48.189Y-72.245
X48.371Y-36.123
X50.038Y-45.958
X50.305Y-72.105
X50.939Y-53.046
X52.0Y-24.0
X53.691Y-79.635
X54.072Y-57.301
X56.031Y-96.923
X56.261Y-83.723
X57.08Y-91.557
X57.151Y-92.538
X57.219Y-34.27
X57.44Y-83.601
X58.293Y-29.009
X59.0Y-24.0
X59.0Y-80.0
X59.956Y-47.234
X62.162Y-82.0
X66.124Y-45.954
X68.201Y-78.199
X70.224Y-44.759
X71.709Y-72.025
X73.0Y-24.0
X73.0Y-101.0
X74.937Y-75.903
X77.107Y-57.231
X77.559Y-44.759
X78.462Y-51.662
X79.581Y-52.239
X80.0Y-24.0
X81.97Y-112.134
X84.488Y-33.4
X85.25Y-110.571
X86.941Y-50.633
X87.0Y-24.0
X87.0Y-87.0
X88.555Y-85.536
X93.345Y-60.581
X94.0Y-24.0
X94.0Y-73.0
X94.0Y-101.0
X95.262Y-56.612
X95.287Y-55.151
X99.093Y-63.813
X99.464Y-53.383
X99.807Y-59.46
X100.511Y-35.987
X101.0Y-24.0
X101.0Y-101.0
X102.33Y-93.283
X108.0Y-24.0
X111.672Y-61.722
X114.275Y-73.725
X115.0Y-24.0
X115.0Y-45.0
X118.52Y-58.644
X122.0Y-24.0
X122.0Y-38.0
X122.0Y-45.0
X122.0Y-80.0
X122.0Y-87.0
X129.0Y-24.0
X129.0Y-38.0
X129.0Y-45.0
X129.0Y-66.0
X129.0Y-73.0
X129.0Y-80.0
X129.0Y-101.0
X136.0Y-24.0
X136.0Y-31.0
X136.0Y-38.0
X136.0Y-59.0
X136.0Y-73.0
X136.0Y-80.0
X136.0Y-87.0
X136.0Y-108.0
X143.0Y-31.0
X143.0Y-38.0
X143.0Y-45.0
X143.0Y-52.0
X143.0Y-59.0
X143.0Y-66.0
X143.0Y-73.0
X143.0Y-80.0
X143.0Y-87.0
X143.0Y-94.0
X143.0Y-101.0
X143.0Y-108.0
T2
X41.0Y-62.5
T3
X81.055Y-56.738
T4
X78.212Y-67.319
X100.287Y-77.597
T5
X22.92Y-30.0
X22.92Y-35.0
X22.92Y-88.0
X24.92Y-102.5
X24.92Y-105.5
X30.0Y-42.92
X30.0Y-53.08
X33.08Y-30.0
X33.08Y-35.0
X33.08Y-88.0
X33.999Y-94.75
X33.999Y-97.25
X34.0Y-42.92
X34.0Y-53.08
X35.08Y-102.5
X35.08Y-105.5
X37.92Y-86.0
X38.92Y-101.0
X38.92Y-105.5
X39.0Y-45.5
X39.0Y-50.5
X39.5Y-93.0
X44.5Y-93.0
X48.08Y-86.0
X48.92Y-45.0
X48.92Y-50.0
X48.92Y-55.0
X49.08Y-101.0
X49.08Y-105.5
X52.92Y-30.0
X52.92Y-35.0
X59.08Y-45.0
X59.08Y-50.0
X59.08Y-55.0
X61.92Y-42.0
X61.92Y-48.0
X63.08Y-30.0
X63.08Y-35.0
X72.08Y-42.0
X72.08Y-48.0
X78.92Y-73.0
X89.08Y-73.0
X96.92Y-73.0
X107.08Y-73.0
X114.251Y-60.0
X116.0Y-66.5
X116.0Y-71.5
X117.751Y-60.0
X122.92Y-60.0
X122.92Y-65.0
X133.08Y-60.0
X133.08Y-65.0
X137.0Y-62.5
X137.0Y-67.5
T6
X23.725Y-82.0
X26.265Y-82.0
X31.225Y-82.0
X33.765Y-82.0
T7
X80.25Y-107.475
X82.75Y-107.475
X85.25Y-107.475
X87.75Y-107.475
X94.25Y-107.475
X96.75Y-107.475
X99.25Y-107.475
X101.75Y-107.475
X108.25Y-107.475
X110.75Y-107.475
X113.25Y-107.475
X115.75Y-107.475
X122.25Y-107.475
X124.75Y-107.475
X127.25Y-107.475
X129.75Y-107.475
T8
X30.11Y-111.0
X32.65Y-111.0
X34.0Y-73.5
X34.0Y-76.04
X34.765Y-63.735
X34.765Y-66.275
X35.19Y-111.0
X36.54Y-73.5
X36.54Y-76.04
X37.305Y-63.735
X37.305Y-66.275
X37.73Y-111.0
X39.08Y-73.5
X39.08Y-76.04
X39.845Y-63.735
X39.845Y-66.275
X40.27Y-111.0
X41.11Y-69.4
X41.62Y-73.5
X41.62Y-76.04
X42.385Y-63.735
X42.385Y-66.275
X42.81Y-111.0
X43.65Y-69.4
X44.16Y-73.5
X44.16Y-76.04
X44.925Y-63.735
X44.925Y-66.275
X45.35Y-111.0
X46.19Y-69.4
X46.7Y-73.5
X46.7Y-76.04
X47.465Y-63.735
X47.465Y-66.275
X47.89Y-111.0
X48.73Y-69.4
X49.24Y-73.5
X49.24Y-76.04
X50.005Y-63.735
X50.005Y-66.275
X51.27Y-69.4
X51.78Y-73.5
X51.78Y-76.04
X52.545Y-63.735
X52.545Y-66.275
X53.81Y-69.4
X54.32Y-73.5
X54.32Y-76.04
X55.085Y-63.735
X55.085Y-66.275
X56.35Y-69.4
X56.86Y-73.5
X56.86Y-76.04
X57.625Y-63.735
X57.625Y-66.275
X58.89Y-69.4
X59.4Y-73.5
X59.4Y-76.04
X60.165Y-63.735
X60.165Y-66.275
X61.94Y-73.5
X61.94Y-76.04
X62.705Y-63.735
X62.705Y-66.275
X64.48Y-73.5
X64.48Y-76.04
X65.245Y-63.735
X65.245Y-66.275
X80.74Y-32.0
X80.74Y-49.78
X80.97Y-38.35
X80.97Y-40.89
X80.97Y-43.43
X83.28Y-32.0
X83.28Y-49.78
X85.82Y-32.0
X85.82Y-49.78
X88.36Y-32.0
X88.36Y-49.78
X90.9Y-32.0
X90.9Y-49.78
X93.44Y-32.0
X93.44Y-49.78
X95.98Y-32.0
X95.98Y-49.78
X98.52Y-32.0
X98.52Y-49.78
X101.06Y-32.0
X101.06Y-49.78
X103.6Y-32.0
X103.6Y-49.78
X106.14Y-32.0
X106.14Y-49.78
X108.68Y-32.0
X108.68Y-49.78
X111.22Y-32.0
X111.22Y-49.78
X113.76Y-32.0
X113.76Y-49.78
X116.3Y-32.0
X116.3Y-49.78
X118.84Y-32.0
X118.84Y-49.78
X121.38Y-32.0
X121.38Y-49.78
X123.92Y-32.0
X123.92Y-49.78
X126.46Y-32.0
X126.46Y-49.78
X129.0Y-32.0
X129.0Y-49.78
X130.19Y-94.0
X132.73Y-94.0
X135.27Y-94.0
X135.725Y-47.0
X136.475Y-32.75
X136.475Y-35.25
X137.81Y-94.0
X138.265Y-47.0
T9
X134.45Y-52.4
X139.55Y-53.6
T10
X28.95Y-92.46
X28.95Y-95.0
X28.95Y-97.54
X54.0Y-91.42
X54.0Y-101.58
T11
X61.499Y-94.0
X66.499Y-94.0
X75.499Y-94.0
X80.499Y-94.0
T12
X55.16Y-108.775
X60.24Y-108.775
X68.16Y-108.775
X73.24Y-108.775
T13
X65.04Y-80.3
X65.04Y-83.7
X74.96Y-80.3
X74.96Y-83.7
T14
X24.0Y-24.0
X24.0Y-111.0
X32.0Y-25.0
X67.0Y-25.0
X90.0Y-90.0
X124.0Y-90.0
X141.0Y-24.0
X141.0Y-111.0
M30
