%TF.GenerationSoftware,KiCad,Pcbnew,10.0.3*%
%TF.CreationDate,2026-07-02T07:02:40+02:00*%
%TF.ProjectId,vanchor-helm,76616e63-686f-4722-9d68-656c6d2e6b69,rev?*%
%TF.SameCoordinates,Original*%
%TF.FileFunction,Paste,Top*%
%TF.FilePolarity,Positive*%
%FSLAX46Y46*%
G04 Gerber Fmt 4.6, Leading zero omitted, Abs format (unit mm)*
G04 Created by KiCad (PCBNEW 10.0.3) date 2026-07-02 07:02:40*
%MOMM*%
%LPD*%
G01*
G04 APERTURE LIST*
G04 Aperture macros list*
%AMRoundRect*
0 Rectangle with rounded corners*
0 $1 Rounding radius*
0 $2 $3 $4 $5 $6 $7 $8 $9 X,Y pos of 4 corners*
0 Add a 4 corners polygon primitive as box body*
4,1,4,$2,$3,$4,$5,$6,$7,$8,$9,$2,$3,0*
0 Add four circle primitives for the rounded corners*
1,1,$1+$1,$2,$3*
1,1,$1+$1,$4,$5*
1,1,$1+$1,$6,$7*
1,1,$1+$1,$8,$9*
0 Add four rect primitives between the rounded corners*
20,1,$1+$1,$2,$3,$4,$5,0*
20,1,$1+$1,$4,$5,$6,$7,0*
20,1,$1+$1,$6,$7,$8,$9,0*
20,1,$1+$1,$8,$9,$2,$3,0*%
G04 Aperture macros list end*
%ADD10RoundRect,0.150000X-0.587500X-0.150000X0.587500X-0.150000X0.587500X0.150000X-0.587500X0.150000X0*%
%ADD11RoundRect,0.250000X1.000000X-1.400000X1.000000X1.400000X-1.000000X1.400000X-1.000000X-1.400000X0*%
%ADD12RoundRect,0.250000X-2.025000X-2.375000X2.025000X-2.375000X2.025000X2.375000X-2.025000X2.375000X0*%
%ADD13RoundRect,0.200000X-2.100000X-0.200000X2.100000X-0.200000X2.100000X0.200000X-2.100000X0.200000X0*%
G04 APERTURE END LIST*
D10*
%TO.C,D10*%
X205062500Y-47050000D03*
X205062500Y-48950000D03*
X206937500Y-48000000D03*
%TD*%
D11*
%TO.C,D15*%
X56400000Y-110000000D03*
X63200000Y-110000000D03*
%TD*%
D10*
%TO.C,D11*%
X205062500Y-51050000D03*
X205062500Y-52950000D03*
X206937500Y-52000000D03*
%TD*%
D12*
%TO.C,U8*%
X122950000Y-129225000D03*
X122950000Y-134775000D03*
X127800000Y-129225000D03*
X127800000Y-134775000D03*
D13*
X116225000Y-128190000D03*
X116225000Y-129460000D03*
X116225000Y-130730000D03*
X116225000Y-132000000D03*
X116225000Y-133270000D03*
X116225000Y-134540000D03*
X116225000Y-135810000D03*
%TD*%
D10*
%TO.C,D8*%
X141062500Y-151050000D03*
X141062500Y-152950000D03*
X142937500Y-152000000D03*
%TD*%
D12*
%TO.C,U7*%
X104950000Y-129225000D03*
X104950000Y-134775000D03*
X109800000Y-129225000D03*
X109800000Y-134775000D03*
D13*
X98225000Y-128190000D03*
X98225000Y-129460000D03*
X98225000Y-130730000D03*
X98225000Y-132000000D03*
X98225000Y-133270000D03*
X98225000Y-134540000D03*
X98225000Y-135810000D03*
%TD*%
D11*
%TO.C,D5*%
X109600000Y-110000000D03*
X116400000Y-110000000D03*
%TD*%
D10*
%TO.C,D14*%
X130562500Y-63050000D03*
X130562500Y-64950000D03*
X132437500Y-64000000D03*
%TD*%
%TO.C,D6*%
X134562500Y-105050000D03*
X134562500Y-106950000D03*
X136437500Y-106000000D03*
%TD*%
M02*
