%TF.GenerationSoftware,KiCad,Pcbnew,10.0.3*%
%TF.CreationDate,2026-07-02T07:02:40+02:00*%
%TF.ProjectId,vanchor-helm,76616e63-686f-4722-9d68-656c6d2e6b69,rev?*%
%TF.SameCoordinates,Original*%
%TF.FileFunction,Soldermask,Bot*%
%TF.FilePolarity,Negative*%
%FSLAX46Y46*%
G04 Gerber Fmt 4.6, Leading zero omitted, Abs format (unit mm)*
G04 Created by KiCad (PCBNEW 10.0.3) date 2026-07-02 07:02:40*
%MOMM*%
%LPD*%
G01*
G04 APERTURE LIST*
G04 Aperture macros list*
%AMRoundRect*
0 Rectangle with rounded corners*
0 $1 Rounding radius*
0 $2 $3 $4 $5 $6 $7 $8 $9 X,Y pos of 4 corners*
0 Add a 4 corners polygon primitive as box body*
4,1,4,$2,$3,$4,$5,$6,$7,$8,$9,$2,$3,0*
0 Add four circle primitives for the rounded corners*
1,1,$1+$1,$2,$3*
1,1,$1+$1,$4,$5*
1,1,$1+$1,$6,$7*
1,1,$1+$1,$8,$9*
0 Add four rect primitives between the rounded corners*
20,1,$1+$1,$2,$3,$4,$5,0*
20,1,$1+$1,$4,$5,$6,$7,0*
20,1,$1+$1,$6,$7,$8,$9,0*
20,1,$1+$1,$8,$9,$2,$3,0*%
%AMHorizOval*
0 Thick line with rounded ends*
0 $1 width*
0 $2 $3 position (X,Y) of the first rounded end (center of the circle)*
0 $4 $5 position (X,Y) of the second rounded end (center of the circle)*
0 Add line between two ends*
20,1,$1,$2,$3,$4,$5,0*
0 Add two circle primitives to create the rounded ends*
1,1,$1,$2,$3*
1,1,$1,$4,$5*%
%AMFreePoly0*
4,1,37,0.603843,0.796157,0.639018,0.796157,0.711114,0.766294,0.766294,0.711114,0.796157,0.639018,0.796157,0.603843,0.800000,0.600000,0.800000,-0.600000,0.796157,-0.603843,0.796157,-0.639018,0.766294,-0.711114,0.711114,-0.766294,0.639018,-0.796157,0.603843,-0.796157,0.600000,-0.800000,0.000000,-0.800000,0.000000,-0.796148,-0.078414,-0.796148,-0.232228,-0.765552,-0.377117,-0.705537,
-0.507515,-0.618408,-0.618408,-0.507515,-0.705537,-0.377117,-0.765552,-0.232228,-0.796148,-0.078414,-0.796148,0.078414,-0.765552,0.232228,-0.705537,0.377117,-0.618408,0.507515,-0.507515,0.618408,-0.377117,0.705537,-0.232228,0.765552,-0.078414,0.796148,0.000000,0.796148,0.000000,0.800000,0.600000,0.800000,0.603843,0.796157,0.603843,0.796157,$1*%
%AMFreePoly1*
4,1,37,0.000000,0.796148,0.078414,0.796148,0.232228,0.765552,0.377117,0.705537,0.507515,0.618408,0.618408,0.507515,0.705537,0.377117,0.765552,0.232228,0.796148,0.078414,0.796148,-0.078414,0.765552,-0.232228,0.705537,-0.377117,0.618408,-0.507515,0.507515,-0.618408,0.377117,-0.705537,0.232228,-0.765552,0.078414,-0.796148,0.000000,-0.796148,0.000000,-0.800000,-0.600000,-0.800000,
-0.603843,-0.796157,-0.639018,-0.796157,-0.711114,-0.766294,-0.766294,-0.711114,-0.796157,-0.639018,-0.796157,-0.603843,-0.800000,-0.600000,-0.800000,0.600000,-0.796157,0.603843,-0.796157,0.639018,-0.766294,0.711114,-0.711114,0.766294,-0.639018,0.796157,-0.603843,0.796157,-0.600000,0.800000,0.000000,0.800000,0.000000,0.796148,0.000000,0.796148,$1*%
G04 Aperture macros list end*
%ADD10R,2.000000X1.905000*%
%ADD11O,2.000000X1.905000*%
%ADD12C,1.600000*%
%ADD13R,1.800000X1.800000*%
%ADD14C,1.800000*%
%ADD15C,2.700000*%
%ADD16RoundRect,0.250000X-0.600000X-0.725000X0.600000X-0.725000X0.600000X0.725000X-0.600000X0.725000X0*%
%ADD17O,1.700000X1.950000*%
%ADD18RoundRect,0.250000X-0.550000X0.550000X-0.550000X-0.550000X0.550000X-0.550000X0.550000X0.550000X0*%
%ADD19RoundRect,0.249999X0.850001X-0.850001X0.850001X0.850001X-0.850001X0.850001X-0.850001X-0.850001X0*%
%ADD20C,2.200000*%
%ADD21RoundRect,0.250001X-0.949999X-0.949999X0.949999X-0.949999X0.949999X0.949999X-0.949999X0.949999X0*%
%ADD22C,2.400000*%
%ADD23C,3.200000*%
%ADD24C,14.000000*%
%ADD25C,2.300000*%
%ADD26R,1.700000X1.700000*%
%ADD27C,1.700000*%
%ADD28RoundRect,0.250000X-0.550000X-0.550000X0.550000X-0.550000X0.550000X0.550000X-0.550000X0.550000X0*%
%ADD29R,1.905000X2.000000*%
%ADD30O,1.905000X2.000000*%
%ADD31RoundRect,0.250000X0.550000X-0.550000X0.550000X0.550000X-0.550000X0.550000X-0.550000X-0.550000X0*%
%ADD32RoundRect,0.200000X-0.600000X0.600000X-0.600000X-0.600000X0.600000X-0.600000X0.600000X0.600000X0*%
%ADD33FreePoly0,270.000000*%
%ADD34FreePoly1,270.000000*%
%ADD35C,1.500000*%
%ADD36RoundRect,0.250000X0.750000X-0.600000X0.750000X0.600000X-0.750000X0.600000X-0.750000X-0.600000X0*%
%ADD37O,2.000000X1.700000*%
%ADD38C,2.780000*%
%ADD39C,2.010000*%
%ADD40R,1.500000X1.500000*%
%ADD41HorizOval,0.800000X0.000000X0.000000X0.000000X0.000000X0*%
%ADD42HorizOval,0.800000X0.000000X0.000000X0.000000X0.000000X0*%
%ADD43C,0.800000*%
%ADD44O,9.000000X6.000000*%
%ADD45RoundRect,0.249999X-0.850001X-0.850001X0.850001X-0.850001X0.850001X0.850001X-0.850001X0.850001X0*%
%ADD46RoundRect,0.250000X0.725000X-0.600000X0.725000X0.600000X-0.725000X0.600000X-0.725000X-0.600000X0*%
%ADD47O,1.950000X1.700000*%
G04 APERTURE END LIST*
D10*
%TO.C,Q9*%
X80950000Y-88540000D03*
D11*
X80950000Y-86000000D03*
X80950000Y-83460000D03*
%TD*%
D12*
%TO.C,R12*%
X133300000Y-99080000D03*
X133300000Y-88920000D03*
%TD*%
%TO.C,R34*%
X95500000Y-165080000D03*
X95500000Y-154920000D03*
%TD*%
D13*
%TO.C,LED3*%
X158725000Y-37000000D03*
D14*
X161265000Y-37000000D03*
%TD*%
D15*
%TO.C,H8*%
X196500000Y-48500000D03*
%TD*%
D12*
%TO.C,C15*%
X83500000Y-164000000D03*
X88500000Y-164000000D03*
%TD*%
D16*
%TO.C,J8*%
X197250000Y-27475000D03*
D17*
X199750000Y-27475000D03*
X202250000Y-27475000D03*
X204750000Y-27475000D03*
%TD*%
D18*
%TO.C,U9*%
X73890000Y-140190000D03*
D12*
X71350000Y-140190000D03*
X68810000Y-140190000D03*
X66270000Y-140190000D03*
X63730000Y-140190000D03*
X61190000Y-140190000D03*
X58650000Y-140190000D03*
X56110000Y-140190000D03*
X56110000Y-147810000D03*
X58650000Y-147810000D03*
X61190000Y-147810000D03*
X63730000Y-147810000D03*
X66270000Y-147810000D03*
X68810000Y-147810000D03*
X71350000Y-147810000D03*
X73890000Y-147810000D03*
%TD*%
%TO.C,C21*%
X131000000Y-86500000D03*
X131000000Y-81500000D03*
%TD*%
D19*
%TO.C,D12*%
X49500000Y-149080000D03*
D20*
X49500000Y-138920000D03*
%TD*%
D21*
%TO.C,J16*%
X139160000Y-160775000D03*
D22*
X144240000Y-160775000D03*
%TD*%
D12*
%TO.C,C16*%
X58500000Y-155000000D03*
X63500000Y-155000000D03*
%TD*%
D23*
%TO.C,H4*%
X215000000Y-165000000D03*
%TD*%
D19*
%TO.C,D13*%
X85000000Y-153080000D03*
D20*
X85000000Y-142920000D03*
%TD*%
D24*
%TO.C,J18*%
X33001200Y-33000000D03*
%TD*%
D12*
%TO.C,R2*%
X128920000Y-42000000D03*
X139080000Y-42000000D03*
%TD*%
%TO.C,R30*%
X53000000Y-160080000D03*
X53000000Y-149920000D03*
%TD*%
%TO.C,R18*%
X136920000Y-144000000D03*
X147080000Y-144000000D03*
%TD*%
D25*
%TO.C,U6*%
X103500000Y-92500000D03*
X124500000Y-71500000D03*
X124500000Y-92500000D03*
D14*
X112730000Y-90890000D03*
X112730000Y-93430000D03*
X115270000Y-90890000D03*
X115270000Y-93430000D03*
X117810000Y-90890000D03*
X117810000Y-93430000D03*
X120350000Y-90890000D03*
X120350000Y-93430000D03*
D13*
X107650000Y-93430000D03*
D14*
X107650000Y-90890000D03*
X110190000Y-90890000D03*
X110190000Y-93430000D03*
%TD*%
D12*
%TO.C,R11*%
X130000000Y-99080000D03*
X130000000Y-88920000D03*
%TD*%
D23*
%TO.C,H2*%
X215000000Y-25000000D03*
%TD*%
D26*
%TO.C,J12*%
X166110000Y-166000000D03*
D27*
X168650000Y-166000000D03*
X171190000Y-166000000D03*
X173730000Y-166000000D03*
X176270000Y-166000000D03*
X178810000Y-166000000D03*
X181350000Y-166000000D03*
X183890000Y-166000000D03*
%TD*%
D12*
%TO.C,R38*%
X134000000Y-77080000D03*
X134000000Y-66920000D03*
%TD*%
D13*
%TO.C,LED2*%
X145725000Y-37000000D03*
D14*
X148265000Y-37000000D03*
%TD*%
D26*
%TO.C,J9*%
X210000000Y-154725000D03*
D27*
X210000000Y-157265000D03*
%TD*%
D23*
%TO.C,H6*%
X120000000Y-165000000D03*
%TD*%
D12*
%TO.C,R24*%
X24000000Y-84545000D03*
X24000000Y-82005000D03*
%TD*%
D28*
%TO.C,C17*%
X68998700Y-157500000D03*
D12*
X70998700Y-157500000D03*
%TD*%
D10*
%TO.C,Q7*%
X80950000Y-52540000D03*
D11*
X80950000Y-50000000D03*
X80950000Y-47460000D03*
%TD*%
D29*
%TO.C,Q1*%
X97460000Y-104950000D03*
D30*
X100000000Y-104950000D03*
X102540000Y-104950000D03*
%TD*%
D24*
%TO.C,J21*%
X30001200Y-152000000D03*
%TD*%
D12*
%TO.C,R4*%
X154920000Y-42000000D03*
X165080000Y-42000000D03*
%TD*%
D21*
%TO.C,J22*%
X107160000Y-159775000D03*
D22*
X112240000Y-159775000D03*
%TD*%
D21*
%TO.C,J17*%
X155160000Y-160775000D03*
D22*
X160240000Y-160775000D03*
%TD*%
D12*
%TO.C,C23*%
X137000000Y-136500000D03*
X137000000Y-131500000D03*
%TD*%
D23*
%TO.C,H3*%
X25000000Y-165000000D03*
%TD*%
D16*
%TO.C,J3*%
X127250000Y-27475000D03*
D17*
X129750000Y-27475000D03*
X132250000Y-27475000D03*
X134750000Y-27475000D03*
%TD*%
D12*
%TO.C,R29*%
X86000000Y-103545000D03*
X86000000Y-101005000D03*
%TD*%
%TO.C,R13*%
X180920000Y-42000000D03*
X191080000Y-42000000D03*
%TD*%
D10*
%TO.C,Q10*%
X80950000Y-102540000D03*
D11*
X80950000Y-100000000D03*
X80950000Y-97460000D03*
%TD*%
D31*
%TO.C,C3*%
X195998800Y-157250000D03*
D12*
X195998800Y-154750000D03*
%TD*%
D10*
%TO.C,Q6*%
X29050000Y-97460000D03*
D11*
X29050000Y-100000000D03*
X29050000Y-102540000D03*
%TD*%
D15*
%TO.C,H7*%
X138500000Y-48500000D03*
%TD*%
D12*
%TO.C,R21*%
X202000000Y-42580000D03*
X202000000Y-32420000D03*
%TD*%
D32*
%TO.C,U1*%
X188000000Y-62000000D03*
D12*
X185460000Y-62000000D03*
D33*
X182920000Y-62000000D03*
D12*
X180380000Y-62000000D03*
X177840000Y-62000000D03*
X175300000Y-62000000D03*
X172760000Y-62000000D03*
D33*
X170220000Y-62000000D03*
D12*
X167680000Y-62000000D03*
X165140000Y-62000000D03*
X162600000Y-62000000D03*
X160060000Y-62000000D03*
D33*
X157520000Y-62000000D03*
D12*
X154980000Y-62000000D03*
X152440000Y-62000000D03*
X149900000Y-62000000D03*
X147360000Y-62000000D03*
D33*
X144820000Y-62000000D03*
D12*
X142280000Y-62000000D03*
X139740000Y-62000000D03*
X139740000Y-79780000D03*
X142280000Y-79780000D03*
D34*
X144820000Y-79780000D03*
D12*
X147360000Y-79780000D03*
X149900000Y-79780000D03*
X152440000Y-79780000D03*
X154980000Y-79780000D03*
D34*
X157520000Y-79780000D03*
D12*
X160060000Y-79780000D03*
X162600000Y-79780000D03*
X165140000Y-79780000D03*
X167680000Y-79780000D03*
D34*
X170220000Y-79780000D03*
D12*
X172760000Y-79780000D03*
X175300000Y-79780000D03*
X177840000Y-79780000D03*
X180380000Y-79780000D03*
D34*
X182920000Y-79780000D03*
D12*
X185460000Y-79780000D03*
X188000000Y-79780000D03*
D35*
X139970000Y-68350000D03*
X139970000Y-70890000D03*
X139970000Y-73430000D03*
%TD*%
D28*
%TO.C,C22*%
X135251200Y-126000000D03*
D12*
X138751200Y-126000000D03*
%TD*%
%TO.C,R32*%
X94000000Y-149080000D03*
X94000000Y-138920000D03*
%TD*%
%TO.C,R39*%
X98920000Y-144000000D03*
X109080000Y-144000000D03*
%TD*%
%TO.C,R40*%
X116920000Y-144000000D03*
X127080000Y-144000000D03*
%TD*%
%TO.C,R3*%
X141920000Y-42000000D03*
X152080000Y-42000000D03*
%TD*%
D36*
%TO.C,J10*%
X215475000Y-81250000D03*
D37*
X215475000Y-78750000D03*
%TD*%
D12*
%TO.C,R22*%
X24000000Y-48545000D03*
X24000000Y-46005000D03*
%TD*%
D26*
%TO.C,J2*%
X92725000Y-43875000D03*
D27*
X95265000Y-43875000D03*
X92725000Y-46415000D03*
X95265000Y-46415000D03*
X92725000Y-48955000D03*
X95265000Y-48955000D03*
X92725000Y-51495000D03*
X95265000Y-51495000D03*
X92725000Y-54035000D03*
X95265000Y-54035000D03*
X92725000Y-56575000D03*
X95265000Y-56575000D03*
X92725000Y-59115000D03*
X95265000Y-59115000D03*
X92725000Y-61655000D03*
X95265000Y-61655000D03*
X92725000Y-64195000D03*
X95265000Y-64195000D03*
X92725000Y-66735000D03*
X95265000Y-66735000D03*
X92725000Y-69275000D03*
X95265000Y-69275000D03*
X92725000Y-71815000D03*
X95265000Y-71815000D03*
X92725000Y-74355000D03*
X95265000Y-74355000D03*
X92725000Y-76895000D03*
X95265000Y-76895000D03*
X92725000Y-79435000D03*
X95265000Y-79435000D03*
X92725000Y-81975000D03*
X95265000Y-81975000D03*
X92725000Y-84515000D03*
X95265000Y-84515000D03*
X92725000Y-87055000D03*
X95265000Y-87055000D03*
X92725000Y-89595000D03*
X95265000Y-89595000D03*
X92725000Y-92135000D03*
X95265000Y-92135000D03*
%TD*%
D21*
%TO.C,C19*%
X56048800Y-96000000D03*
D22*
X63548800Y-96000000D03*
%TD*%
D12*
%TO.C,R19*%
X136920000Y-148000000D03*
X147080000Y-148000000D03*
%TD*%
D25*
%TO.C,U5*%
X103500000Y-60500000D03*
X124500000Y-39500000D03*
X124500000Y-60500000D03*
D14*
X112730000Y-58890000D03*
X112730000Y-61430000D03*
X115270000Y-58890000D03*
X115270000Y-61430000D03*
X117810000Y-58890000D03*
X117810000Y-61430000D03*
X120350000Y-58890000D03*
X120350000Y-61430000D03*
D13*
X107650000Y-61430000D03*
D14*
X107650000Y-58890000D03*
X110190000Y-58890000D03*
X110190000Y-61430000D03*
%TD*%
D16*
%TO.C,J4*%
X141250000Y-27475000D03*
D17*
X143750000Y-27475000D03*
X146250000Y-27475000D03*
X148750000Y-27475000D03*
%TD*%
D23*
%TO.C,H1*%
X25000000Y-25000000D03*
%TD*%
D38*
%TO.C,F1*%
X126300000Y-165960000D03*
X129700000Y-165960000D03*
X126300000Y-156040000D03*
X129700000Y-156040000D03*
%TD*%
D12*
%TO.C,R36*%
X102500000Y-165080000D03*
X102500000Y-154920000D03*
%TD*%
%TO.C,R8*%
X118920000Y-115000000D03*
X129080000Y-115000000D03*
%TD*%
%TO.C,R5*%
X100920000Y-30000000D03*
X111080000Y-30000000D03*
%TD*%
%TO.C,R9*%
X118920000Y-119000000D03*
X129080000Y-119000000D03*
%TD*%
D10*
%TO.C,Q4*%
X29050000Y-61460000D03*
D11*
X29050000Y-64000000D03*
X29050000Y-66540000D03*
%TD*%
D12*
%TO.C,R28*%
X86000000Y-89545000D03*
X86000000Y-87005000D03*
%TD*%
D16*
%TO.C,J7*%
X183250000Y-27475000D03*
D17*
X185750000Y-27475000D03*
X188250000Y-27475000D03*
X190750000Y-27475000D03*
%TD*%
D21*
%TO.C,C2*%
X183498700Y-156000000D03*
D22*
X188498700Y-156000000D03*
%TD*%
D13*
%TO.C,LED1*%
X132725000Y-37000000D03*
D14*
X135265000Y-37000000D03*
%TD*%
D39*
%TO.C,F2*%
X193450000Y-146400000D03*
X198550000Y-147600000D03*
%TD*%
D12*
%TO.C,R23*%
X24000000Y-62545000D03*
X24000000Y-60005000D03*
%TD*%
D40*
%TO.C,U10*%
X56900000Y-24175000D03*
D35*
X54990000Y-24175000D03*
X53080000Y-24175000D03*
D41*
X53940000Y-46205000D03*
D42*
X53940000Y-44945000D03*
D43*
X53190000Y-47235000D03*
X53190000Y-43915000D03*
X51990000Y-47625000D03*
X51990000Y-43525000D03*
X50660000Y-47625000D03*
X50660000Y-43525000D03*
D44*
X49990000Y-45575000D03*
D43*
X49320000Y-47625000D03*
X49320000Y-43525000D03*
X47990000Y-47625000D03*
X47990000Y-43525000D03*
X46790000Y-47235000D03*
X46790000Y-43915000D03*
X46040000Y-46205000D03*
X46040000Y-44945000D03*
X63940000Y-46205000D03*
X63940000Y-44945000D03*
X63190000Y-47235000D03*
X63190000Y-43915000D03*
X61990000Y-47625000D03*
X61990000Y-43525000D03*
X60660000Y-47625000D03*
X60660000Y-43525000D03*
D44*
X59990000Y-45575000D03*
D43*
X59320000Y-47625000D03*
X59320000Y-43525000D03*
X57990000Y-47625000D03*
X57990000Y-43525000D03*
X56790000Y-47235000D03*
X56790000Y-43915000D03*
D42*
X56040000Y-46205000D03*
D41*
X56040000Y-44945000D03*
%TD*%
D12*
%TO.C,R25*%
X24000000Y-98545000D03*
X24000000Y-96005000D03*
%TD*%
D15*
%TO.C,H10*%
X196500000Y-97500000D03*
%TD*%
D16*
%TO.C,J5*%
X155250000Y-27475000D03*
D17*
X157750000Y-27475000D03*
X160250000Y-27475000D03*
X162750000Y-27475000D03*
%TD*%
D10*
%TO.C,Q3*%
X29050000Y-47460000D03*
D11*
X29050000Y-50000000D03*
X29050000Y-52540000D03*
%TD*%
D12*
%TO.C,C14*%
X44500000Y-161000000D03*
X49500000Y-161000000D03*
%TD*%
D45*
%TO.C,D4*%
X107920000Y-104000000D03*
D20*
X118080000Y-104000000D03*
%TD*%
D24*
%TO.C,J20*%
X73001200Y-124000000D03*
%TD*%
D12*
%TO.C,R1*%
X94920000Y-110000000D03*
X105080000Y-110000000D03*
%TD*%
%TO.C,R20*%
X198000000Y-42580000D03*
X198000000Y-32420000D03*
%TD*%
D21*
%TO.C,C1*%
X169498700Y-156000000D03*
D22*
X174498700Y-156000000D03*
%TD*%
D46*
%TO.C,J11*%
X208475000Y-42750000D03*
D47*
X208475000Y-40250000D03*
X208475000Y-37750000D03*
X208475000Y-35250000D03*
%TD*%
D10*
%TO.C,Q8*%
X80950000Y-66540000D03*
D11*
X80950000Y-64000000D03*
X80950000Y-61460000D03*
%TD*%
D31*
%TO.C,C4*%
X202998800Y-157250000D03*
D12*
X202998800Y-154750000D03*
%TD*%
%TO.C,R27*%
X86000000Y-67545000D03*
X86000000Y-65005000D03*
%TD*%
D24*
%TO.C,J19*%
X37001200Y-124000000D03*
%TD*%
D12*
%TO.C,C12*%
X151000000Y-150500000D03*
X151000000Y-145500000D03*
%TD*%
D13*
%TO.C,LED5*%
X184725000Y-37000000D03*
D14*
X187265000Y-37000000D03*
%TD*%
D10*
%TO.C,Q5*%
X29050000Y-83460000D03*
D11*
X29050000Y-86000000D03*
X29050000Y-88540000D03*
%TD*%
D23*
%TO.C,H5*%
X120000000Y-25000000D03*
%TD*%
D12*
%TO.C,R7*%
X167920000Y-42000000D03*
X178080000Y-42000000D03*
%TD*%
%TO.C,R10*%
X118920000Y-123000000D03*
X129080000Y-123000000D03*
%TD*%
%TO.C,C20*%
X57000000Y-117000000D03*
X62000000Y-117000000D03*
%TD*%
D21*
%TO.C,C18*%
X56048800Y-77000000D03*
D22*
X63548800Y-77000000D03*
%TD*%
D12*
%TO.C,R37*%
X131000000Y-77080000D03*
X131000000Y-66920000D03*
%TD*%
%TO.C,C5*%
X131000000Y-108500000D03*
X131000000Y-103500000D03*
%TD*%
%TO.C,R26*%
X86000000Y-53545000D03*
X86000000Y-51005000D03*
%TD*%
D15*
%TO.C,H9*%
X138500000Y-97500000D03*
%TD*%
D16*
%TO.C,J6*%
X169250000Y-27475000D03*
D17*
X171750000Y-27475000D03*
X174250000Y-27475000D03*
X176750000Y-27475000D03*
%TD*%
D12*
%TO.C,R35*%
X99000000Y-165080000D03*
X99000000Y-154920000D03*
%TD*%
%TO.C,R6*%
X100920000Y-34000000D03*
X111080000Y-34000000D03*
%TD*%
D13*
%TO.C,LED4*%
X171725000Y-37000000D03*
D14*
X174265000Y-37000000D03*
%TD*%
D12*
%TO.C,R33*%
X92000000Y-165080000D03*
X92000000Y-154920000D03*
%TD*%
D26*
%TO.C,J1*%
X143370000Y-49770000D03*
D27*
X143370000Y-47230000D03*
X145910000Y-49770000D03*
X145910000Y-47230000D03*
X148450000Y-49770000D03*
X148450000Y-47230000D03*
X150990000Y-49770000D03*
X150990000Y-47230000D03*
X153530000Y-49770000D03*
X153530000Y-47230000D03*
X156070000Y-49770000D03*
X156070000Y-47230000D03*
X158610000Y-49770000D03*
X158610000Y-47230000D03*
X161150000Y-49770000D03*
X161150000Y-47230000D03*
X163690000Y-49770000D03*
X163690000Y-47230000D03*
X166230000Y-49770000D03*
X166230000Y-47230000D03*
X168770000Y-49770000D03*
X168770000Y-47230000D03*
X171310000Y-49770000D03*
X171310000Y-47230000D03*
X173850000Y-49770000D03*
X173850000Y-47230000D03*
X176390000Y-49770000D03*
X176390000Y-47230000D03*
X178930000Y-49770000D03*
X178930000Y-47230000D03*
X181470000Y-49770000D03*
X181470000Y-47230000D03*
X184010000Y-49770000D03*
X184010000Y-47230000D03*
X186550000Y-49770000D03*
X186550000Y-47230000D03*
X189090000Y-49770000D03*
X189090000Y-47230000D03*
X191630000Y-49770000D03*
X191630000Y-47230000D03*
%TD*%
M02*
