%TF.GenerationSoftware,KiCad,Pcbnew,10.0.3*%
%TF.CreationDate,2026-07-02T14:11:33+02:00*%
%TF.ProjectId,vanchor-helm,76616e63-686f-4722-9d68-656c6d2e6b69,rev?*%
%TF.SameCoordinates,Original*%
%TF.FileFunction,Soldermask,Top*%
%TF.FilePolarity,Negative*%
%FSLAX46Y46*%
G04 Gerber Fmt 4.6, Leading zero omitted, Abs format (unit mm)*
G04 Created by KiCad (PCBNEW 10.0.3) date 2026-07-02 14:11:33*
%MOMM*%
%LPD*%
G01*
G04 APERTURE LIST*
G04 Aperture macros list*
%AMRoundRect*
0 Rectangle with rounded corners*
0 $1 Rounding radius*
0 $2 $3 $4 $5 $6 $7 $8 $9 X,Y pos of 4 corners*
0 Add a 4 corners polygon primitive as box body*
4,1,4,$2,$3,$4,$5,$6,$7,$8,$9,$2,$3,0*
0 Add four circle primitives for the rounded corners*
1,1,$1+$1,$2,$3*
1,1,$1+$1,$4,$5*
1,1,$1+$1,$6,$7*
1,1,$1+$1,$8,$9*
0 Add four rect primitives between the rounded corners*
20,1,$1+$1,$2,$3,$4,$5,0*
20,1,$1+$1,$4,$5,$6,$7,0*
20,1,$1+$1,$6,$7,$8,$9,0*
20,1,$1+$1,$8,$9,$2,$3,0*%
%AMFreePoly0*
4,1,37,0.603843,0.796157,0.639018,0.796157,0.711114,0.766294,0.766294,0.711114,0.796157,0.639018,0.796157,0.603843,0.800000,0.600000,0.800000,-0.600000,0.796157,-0.603843,0.796157,-0.639018,0.766294,-0.711114,0.711114,-0.766294,0.639018,-0.796157,0.603843,-0.796157,0.600000,-0.800000,0.000000,-0.800000,0.000000,-0.796148,-0.078414,-0.796148,-0.232228,-0.765552,-0.377117,-0.705537,
-0.507515,-0.618408,-0.618408,-0.507515,-0.705537,-0.377117,-0.765552,-0.232228,-0.796148,-0.078414,-0.796148,0.078414,-0.765552,0.232228,-0.705537,0.377117,-0.618408,0.507515,-0.507515,0.618408,-0.377117,0.705537,-0.232228,0.765552,-0.078414,0.796148,0.000000,0.796148,0.000000,0.800000,0.600000,0.800000,0.603843,0.796157,0.603843,0.796157,$1*%
%AMFreePoly1*
4,1,37,0.000000,0.796148,0.078414,0.796148,0.232228,0.765552,0.377117,0.705537,0.507515,0.618408,0.618408,0.507515,0.705537,0.377117,0.765552,0.232228,0.796148,0.078414,0.796148,-0.078414,0.765552,-0.232228,0.705537,-0.377117,0.618408,-0.507515,0.507515,-0.618408,0.377117,-0.705537,0.232228,-0.765552,0.078414,-0.796148,0.000000,-0.796148,0.000000,-0.800000,-0.600000,-0.800000,
-0.603843,-0.796157,-0.639018,-0.796157,-0.711114,-0.766294,-0.766294,-0.711114,-0.796157,-0.639018,-0.796157,-0.603843,-0.800000,-0.600000,-0.800000,0.600000,-0.796157,0.603843,-0.796157,0.639018,-0.766294,0.711114,-0.711114,0.766294,-0.639018,0.796157,-0.603843,0.796157,-0.600000,0.800000,0.000000,0.800000,0.000000,0.796148,0.000000,0.796148,$1*%
G04 Aperture macros list end*
%ADD10C,1.600000*%
%ADD11RoundRect,0.250000X0.550000X-0.550000X0.550000X0.550000X-0.550000X0.550000X-0.550000X-0.550000X0*%
%ADD12R,1.700000X1.700000*%
%ADD13C,1.700000*%
%ADD14C,3.200000*%
%ADD15RoundRect,0.250001X-0.949999X-0.949999X0.949999X-0.949999X0.949999X0.949999X-0.949999X0.949999X0*%
%ADD16C,2.400000*%
%ADD17R,1.800000X1.800000*%
%ADD18C,1.800000*%
%ADD19RoundRect,0.250000X1.000000X-1.400000X1.000000X1.400000X-1.000000X1.400000X-1.000000X-1.400000X0*%
%ADD20RoundRect,0.200000X-0.600000X0.600000X-0.600000X-0.600000X0.600000X-0.600000X0.600000X0.600000X0*%
%ADD21FreePoly0,270.000000*%
%ADD22FreePoly1,270.000000*%
%ADD23C,1.500000*%
%ADD24RoundRect,0.200000X-2.100000X-0.200000X2.100000X-0.200000X2.100000X0.200000X-2.100000X0.200000X0*%
%ADD25RoundRect,0.250002X-4.449998X-5.149998X4.449998X-5.149998X4.449998X5.149998X-4.449998X5.149998X0*%
%ADD26RoundRect,0.150000X-0.587500X-0.150000X0.587500X-0.150000X0.587500X0.150000X-0.587500X0.150000X0*%
%ADD27RoundRect,0.250000X0.750000X-0.600000X0.750000X0.600000X-0.750000X0.600000X-0.750000X-0.600000X0*%
%ADD28O,2.000000X1.700000*%
%ADD29RoundRect,0.249999X0.850001X-0.850001X0.850001X0.850001X-0.850001X0.850001X-0.850001X-0.850001X0*%
%ADD30C,2.200000*%
%ADD31RoundRect,0.250000X-0.600000X-0.725000X0.600000X-0.725000X0.600000X0.725000X-0.600000X0.725000X0*%
%ADD32O,1.700000X1.950000*%
%ADD33R,2.000000X1.905000*%
%ADD34O,2.000000X1.905000*%
%ADD35C,2.780000*%
%ADD36RoundRect,0.250000X-0.550000X-0.550000X0.550000X-0.550000X0.550000X0.550000X-0.550000X0.550000X0*%
%ADD37C,2.010000*%
G04 APERTURE END LIST*
D10*
%TO.C,R32*%
X38920000Y-105500000D03*
X49080000Y-105500000D03*
%TD*%
%TO.C,R20*%
X22920000Y-30000000D03*
X33080000Y-30000000D03*
%TD*%
D11*
%TO.C,C3*%
X33998800Y-97250000D03*
D10*
X33998800Y-94750000D03*
%TD*%
D12*
%TO.C,J2*%
X34765000Y-65875000D03*
D13*
X34765000Y-63335000D03*
X37305000Y-65875000D03*
X37305000Y-63335000D03*
X39845000Y-65875000D03*
X39845000Y-63335000D03*
X42385000Y-65875000D03*
X42385000Y-63335000D03*
X44925000Y-65875000D03*
X44925000Y-63335000D03*
X47465000Y-65875000D03*
X47465000Y-63335000D03*
X50005000Y-65875000D03*
X50005000Y-63335000D03*
X52545000Y-65875000D03*
X52545000Y-63335000D03*
X55085000Y-65875000D03*
X55085000Y-63335000D03*
X57625000Y-65875000D03*
X57625000Y-63335000D03*
X60165000Y-65875000D03*
X60165000Y-63335000D03*
X62705000Y-65875000D03*
X62705000Y-63335000D03*
X65245000Y-65875000D03*
X65245000Y-63335000D03*
%TD*%
D14*
%TO.C,H5*%
X32000000Y-25000000D03*
%TD*%
D15*
%TO.C,J22*%
X68160000Y-108775000D03*
D16*
X73240000Y-108775000D03*
%TD*%
D10*
%TO.C,R21*%
X22920000Y-35000000D03*
X33080000Y-35000000D03*
%TD*%
%TO.C,R8*%
X48920000Y-45000000D03*
X59080000Y-45000000D03*
%TD*%
%TO.C,R13*%
X61920000Y-42000000D03*
X72080000Y-42000000D03*
%TD*%
%TO.C,R1*%
X37920000Y-86000000D03*
X48080000Y-86000000D03*
%TD*%
%TO.C,R12*%
X34000000Y-53080000D03*
X34000000Y-42920000D03*
%TD*%
D17*
%TO.C,LED5*%
X31225000Y-82000000D03*
D18*
X33765000Y-82000000D03*
%TD*%
D10*
%TO.C,R15*%
X24920000Y-102500000D03*
X35080000Y-102500000D03*
%TD*%
D12*
%TO.C,J13*%
X30110000Y-111000000D03*
D13*
X32650000Y-111000000D03*
X35190000Y-111000000D03*
X37730000Y-111000000D03*
X40270000Y-111000000D03*
X42810000Y-111000000D03*
X45350000Y-111000000D03*
X47890000Y-111000000D03*
%TD*%
D19*
%TO.C,D5*%
X37100000Y-33000000D03*
X43900000Y-33000000D03*
%TD*%
D15*
%TO.C,J16*%
X55160000Y-108775000D03*
D16*
X60240000Y-108775000D03*
%TD*%
D10*
%TO.C,R11*%
X30000000Y-53080000D03*
X30000000Y-42920000D03*
%TD*%
%TO.C,R40*%
X96920000Y-73000000D03*
X107080000Y-73000000D03*
%TD*%
D20*
%TO.C,U1*%
X129000000Y-32000000D03*
D10*
X126460000Y-32000000D03*
D21*
X123920000Y-32000000D03*
D10*
X121380000Y-32000000D03*
X118840000Y-32000000D03*
X116300000Y-32000000D03*
X113760000Y-32000000D03*
D21*
X111220000Y-32000000D03*
D10*
X108680000Y-32000000D03*
X106140000Y-32000000D03*
X103600000Y-32000000D03*
X101060000Y-32000000D03*
D21*
X98520000Y-32000000D03*
D10*
X95980000Y-32000000D03*
X93440000Y-32000000D03*
X90900000Y-32000000D03*
X88360000Y-32000000D03*
D21*
X85820000Y-32000000D03*
D10*
X83280000Y-32000000D03*
X80740000Y-32000000D03*
X80740000Y-49780000D03*
X83280000Y-49780000D03*
D22*
X85820000Y-49780000D03*
D10*
X88360000Y-49780000D03*
X90900000Y-49780000D03*
X93440000Y-49780000D03*
X95980000Y-49780000D03*
D22*
X98520000Y-49780000D03*
D10*
X101060000Y-49780000D03*
X103600000Y-49780000D03*
X106140000Y-49780000D03*
X108680000Y-49780000D03*
D22*
X111220000Y-49780000D03*
D10*
X113760000Y-49780000D03*
X116300000Y-49780000D03*
X118840000Y-49780000D03*
X121380000Y-49780000D03*
D22*
X123920000Y-49780000D03*
D10*
X126460000Y-49780000D03*
X129000000Y-49780000D03*
D23*
X80970000Y-38350000D03*
X80970000Y-40890000D03*
X80970000Y-43430000D03*
%TD*%
D24*
%TO.C,U7*%
X78225000Y-58190000D03*
X78225000Y-59460000D03*
X78225000Y-60730000D03*
X78225000Y-62000000D03*
D25*
X87375000Y-62000000D03*
D24*
X78225000Y-63270000D03*
X78225000Y-64540000D03*
X78225000Y-65810000D03*
%TD*%
D10*
%TO.C,R5*%
X52920000Y-30000000D03*
X63080000Y-30000000D03*
%TD*%
D26*
%TO.C,D11*%
X47062500Y-36050000D03*
X47062500Y-37950000D03*
X48937500Y-37000000D03*
%TD*%
D14*
%TO.C,H7*%
X90000000Y-90000000D03*
%TD*%
D27*
%TO.C,J10*%
X136475000Y-35250000D03*
D28*
X136475000Y-32750000D03*
%TD*%
D15*
%TO.C,C2*%
X75498700Y-94000000D03*
D16*
X80498700Y-94000000D03*
%TD*%
D14*
%TO.C,H6*%
X67000000Y-25000000D03*
%TD*%
D26*
%TO.C,D6*%
X43562500Y-47050000D03*
X43562500Y-48950000D03*
X45437500Y-48000000D03*
%TD*%
D29*
%TO.C,D4*%
X54000000Y-101580000D03*
D30*
X54000000Y-91420000D03*
%TD*%
D10*
%TO.C,R19*%
X122920000Y-65000000D03*
X133080000Y-65000000D03*
%TD*%
D26*
%TO.C,D14*%
X52062500Y-87050000D03*
X52062500Y-88950000D03*
X53937500Y-88000000D03*
%TD*%
D12*
%TO.C,J12*%
X41110000Y-69900000D03*
D13*
X43650000Y-69900000D03*
X46190000Y-69900000D03*
X48730000Y-69900000D03*
X51270000Y-69900000D03*
X53810000Y-69900000D03*
X56350000Y-69900000D03*
X58890000Y-69900000D03*
%TD*%
D31*
%TO.C,J8*%
X108250000Y-107475000D03*
D32*
X110750000Y-107475000D03*
X113250000Y-107475000D03*
X115750000Y-107475000D03*
%TD*%
D12*
%TO.C,J14*%
X130190000Y-94000000D03*
D13*
X132730000Y-94000000D03*
X135270000Y-94000000D03*
X137810000Y-94000000D03*
%TD*%
D14*
%TO.C,H4*%
X141000000Y-111000000D03*
%TD*%
D10*
%TO.C,C5*%
X39000000Y-50500000D03*
X39000000Y-45500000D03*
%TD*%
D31*
%TO.C,J4*%
X94250000Y-107475000D03*
D32*
X96750000Y-107475000D03*
X99250000Y-107475000D03*
X101750000Y-107475000D03*
%TD*%
D31*
%TO.C,J11*%
X122250000Y-107475000D03*
D32*
X124750000Y-107475000D03*
X127250000Y-107475000D03*
X129750000Y-107475000D03*
%TD*%
D10*
%TO.C,R39*%
X78920000Y-73000000D03*
X89080000Y-73000000D03*
%TD*%
%TO.C,R9*%
X48920000Y-50000000D03*
X59080000Y-50000000D03*
%TD*%
D26*
%TO.C,D10*%
X47062500Y-31550000D03*
X47062500Y-33450000D03*
X48937500Y-32500000D03*
%TD*%
D10*
%TO.C,R6*%
X52920000Y-35000000D03*
X63080000Y-35000000D03*
%TD*%
%TO.C,R16*%
X38920000Y-101000000D03*
X49080000Y-101000000D03*
%TD*%
D33*
%TO.C,Q1*%
X28950000Y-97540000D03*
D34*
X28950000Y-95000000D03*
X28950000Y-92460000D03*
%TD*%
D31*
%TO.C,J3*%
X80250000Y-107475000D03*
D32*
X82750000Y-107475000D03*
X85250000Y-107475000D03*
X87750000Y-107475000D03*
%TD*%
D35*
%TO.C,F1*%
X65040000Y-80300000D03*
X65040000Y-83700000D03*
X74960000Y-80300000D03*
X74960000Y-83700000D03*
%TD*%
D24*
%TO.C,U8*%
X96225000Y-58190000D03*
X96225000Y-59460000D03*
X96225000Y-60730000D03*
X96225000Y-62000000D03*
D25*
X105375000Y-62000000D03*
D24*
X96225000Y-63270000D03*
X96225000Y-64540000D03*
X96225000Y-65810000D03*
%TD*%
D14*
%TO.C,H1*%
X24000000Y-24000000D03*
%TD*%
D10*
%TO.C,C12*%
X137000000Y-67500000D03*
X137000000Y-62500000D03*
%TD*%
%TO.C,R30*%
X24920000Y-105500000D03*
X35080000Y-105500000D03*
%TD*%
D36*
%TO.C,C22*%
X114251200Y-60000000D03*
D10*
X117751200Y-60000000D03*
%TD*%
%TO.C,C21*%
X39500000Y-93000000D03*
X44500000Y-93000000D03*
%TD*%
D14*
%TO.C,H8*%
X124000000Y-90000000D03*
%TD*%
D10*
%TO.C,R38*%
X61920000Y-48000000D03*
X72080000Y-48000000D03*
%TD*%
D14*
%TO.C,H3*%
X24000000Y-111000000D03*
%TD*%
D17*
%TO.C,LED1*%
X23725000Y-82000000D03*
D18*
X26265000Y-82000000D03*
%TD*%
D14*
%TO.C,H2*%
X141000000Y-24000000D03*
%TD*%
D12*
%TO.C,J1*%
X34000000Y-76040000D03*
D13*
X34000000Y-73500000D03*
X36540000Y-76040000D03*
X36540000Y-73500000D03*
X39080000Y-76040000D03*
X39080000Y-73500000D03*
X41620000Y-76040000D03*
X41620000Y-73500000D03*
X44160000Y-76040000D03*
X44160000Y-73500000D03*
X46700000Y-76040000D03*
X46700000Y-73500000D03*
X49240000Y-76040000D03*
X49240000Y-73500000D03*
X51780000Y-76040000D03*
X51780000Y-73500000D03*
X54320000Y-76040000D03*
X54320000Y-73500000D03*
X56860000Y-76040000D03*
X56860000Y-73500000D03*
X59400000Y-76040000D03*
X59400000Y-73500000D03*
X61940000Y-76040000D03*
X61940000Y-73500000D03*
X64480000Y-76040000D03*
X64480000Y-73500000D03*
%TD*%
D37*
%TO.C,F2*%
X134450000Y-52400000D03*
X139550000Y-53600000D03*
%TD*%
D15*
%TO.C,C1*%
X61498700Y-94000000D03*
D16*
X66498700Y-94000000D03*
%TD*%
D26*
%TO.C,D8*%
X127062500Y-69050000D03*
X127062500Y-70950000D03*
X128937500Y-70000000D03*
%TD*%
D10*
%TO.C,C23*%
X116000000Y-71500000D03*
X116000000Y-66500000D03*
%TD*%
%TO.C,R10*%
X48920000Y-55000000D03*
X59080000Y-55000000D03*
%TD*%
D12*
%TO.C,J9*%
X135725000Y-47000000D03*
D13*
X138265000Y-47000000D03*
%TD*%
D10*
%TO.C,R18*%
X122920000Y-60000000D03*
X133080000Y-60000000D03*
%TD*%
%TO.C,R2*%
X22920000Y-88000000D03*
X33080000Y-88000000D03*
%TD*%
M02*
