M48
; DRILL file KiCad 10.0.3 date 2026-07-02T08:25:52
; FORMAT={-:-/ absolute / metric / decimal}
; #@! TF.CreationDate,2026-07-02T08:25:52+02:00
; #@! TF.GenerationSoftware,Kicad,Pcbnew,10.0.3
; #@! TF.FileFunction,MixedPlating,1,2
FMAT,2
METRIC
; #@! TA.AperFunction,Plated,PTH,ViaDrill
T1C0.400
; #@! TA.AperFunction,Plated,PTH,ViaDrill
T2C0.800
; #@! TA.AperFunction,Plated,PTH,ComponentDrill
T3C0.800
; #@! TA.AperFunction,Plated,PTH,ComponentDrill
T4C0.900
; #@! TA.AperFunction,Plated,PTH,ComponentDrill
T5C0.950
; #@! TA.AperFunction,Plated,PTH,ComponentDrill
T6C1.000
; #@! TA.AperFunction,Plated,PTH,ComponentDrill
T7C1.010
; #@! TA.AperFunction,Plated,PTH,ComponentDrill
T8C1.100
; #@! TA.AperFunction,Plated,PTH,ComponentDrill
T9C1.200
; #@! TA.AperFunction,Plated,PTH,ComponentDrill
T10C1.600
; #@! TA.AperFunction,Plated,PTH,ComponentDrill
T11C1.780
; #@! TA.AperFunction,NonPlated,NPTH,ComponentDrill
T12C2.700
; #@! TA.AperFunction,NonPlated,NPTH,ComponentDrill
T13C3.200
%
G90
G05
T1
X24.0Y-31.0
X24.0Y-38.0
X24.0Y-129.0
X31.0Y-24.0
X31.0Y-59.0
X31.0Y-66.0
X31.0Y-73.0
X31.0Y-80.0
X31.0Y-87.0
X31.0Y-101.0
X31.0Y-136.0
X38.0Y-24.0
X38.0Y-31.0
X38.0Y-52.0
X38.0Y-59.0
X38.0Y-73.0
X38.0Y-80.0
X38.0Y-94.0
X38.0Y-101.0
X41.463Y-117.082
X45.0Y-24.0
X45.0Y-52.0
X45.0Y-59.0
X45.0Y-66.0
X45.0Y-73.0
X45.0Y-80.0
X45.0Y-94.0
X45.0Y-101.0
X52.0Y-24.0
X52.0Y-31.0
X52.0Y-80.0
X52.0Y-94.0
X52.0Y-115.0
X52.067Y-52.856
X52.67Y-75.625
X59.957Y-91.374
X63.558Y-84.582
X65.283Y-58.491
X66.0Y-31.0
X66.332Y-124.95
X67.092Y-62.316
X68.016Y-121.781
X69.521Y-45.074
X71.912Y-77.889
X72.903Y-84.141
X73.0Y-31.0
X73.0Y-108.0
X73.0Y-129.0
X76.09Y-101.096
X77.863Y-47.277
X80.0Y-31.0
X80.0Y-38.0
X80.0Y-80.0
X80.0Y-129.0
X80.211Y-63.232
X83.8Y-111.332
X84.515Y-66.699
X87.0Y-38.0
X87.0Y-73.0
X87.0Y-87.0
X87.0Y-101.0
X87.0Y-122.0
X94.0Y-24.0
X94.0Y-31.0
X94.0Y-87.0
X94.063Y-73.224
X96.305Y-65.234
X97.364Y-84.745
X99.906Y-84.745
X101.0Y-24.0
X101.0Y-38.0
X101.0Y-108.0
X101.0Y-115.0
X101.008Y-71.932
X102.231Y-67.553
X105.913Y-53.096
X108.0Y-24.0
X108.0Y-38.0
X108.0Y-45.0
X108.0Y-73.0
X108.0Y-108.0
X108.0Y-115.0
X108.834Y-68.984
X111.664Y-66.112
X115.0Y-24.0
X115.0Y-45.0
X115.0Y-73.0
X115.0Y-122.0
X115.0Y-136.0
X121.408Y-56.016
X122.0Y-24.0
X122.0Y-73.0
X122.0Y-136.0
X123.303Y-45.791
X125.58Y-54.372
X127.753Y-75.754
X128.747Y-59.634
X129.0Y-31.0
X129.0Y-122.0
X129.0Y-129.0
X132.535Y-57.401
X136.0Y-59.0
X136.0Y-73.0
X136.0Y-122.0
X136.0Y-136.0
X140.36Y-49.055
X143.0Y-31.0
X143.0Y-45.0
X143.0Y-52.0
X143.0Y-66.0
X143.0Y-73.0
X143.0Y-80.0
X143.0Y-87.0
X143.0Y-94.0
X143.0Y-101.0
X143.0Y-136.0
X150.0Y-24.0
X150.0Y-38.0
X150.0Y-45.0
X150.0Y-59.0
X150.0Y-66.0
X150.0Y-73.0
X150.0Y-80.0
X150.0Y-87.0
X150.0Y-94.0
X150.0Y-101.0
X150.0Y-108.0
X150.0Y-122.0
X150.0Y-136.0
X152.608Y-120.615
X157.0Y-24.0
X157.0Y-31.0
X157.0Y-59.0
X157.0Y-66.0
X157.0Y-73.0
X157.0Y-80.0
X157.0Y-87.0
X157.0Y-136.0
X164.0Y-31.0
X164.0Y-38.0
X164.0Y-45.0
X164.0Y-52.0
X164.0Y-59.0
X164.0Y-66.0
X164.0Y-73.0
X164.0Y-87.0
X164.0Y-94.0
X164.0Y-101.0
X164.0Y-108.0
X164.0Y-115.0
X164.0Y-122.0
X164.0Y-129.0
T2
X31.921Y-115.076
X44.225Y-113.896
T3
X26.92Y-119.0
X26.92Y-124.0
X37.08Y-119.0
X37.08Y-124.0
X44.92Y-119.0
X44.92Y-124.0
X55.08Y-119.0
X55.08Y-124.0
X58.92Y-32.0
X58.92Y-36.5
X64.251Y-106.0
X64.92Y-40.0
X64.92Y-44.0
X64.92Y-60.0
X66.0Y-114.5
X66.0Y-119.5
X67.751Y-106.0
X69.08Y-32.0
X69.08Y-36.5
X72.92Y-115.0
X72.92Y-119.0
X72.92Y-123.0
X74.0Y-105.5
X74.0Y-110.5
X75.08Y-40.0
X75.08Y-44.0
X75.08Y-60.0
X80.0Y-88.92
X80.0Y-99.08
X81.0Y-103.5
X81.0Y-108.5
X83.08Y-115.0
X83.08Y-119.0
X83.08Y-123.0
X83.3Y-88.92
X83.3Y-99.08
X93.92Y-120.0
X93.92Y-124.0
X93.92Y-128.0
X104.08Y-120.0
X104.08Y-124.0
X104.08Y-128.0
X107.92Y-124.0
X107.92Y-128.0
X110.5Y-120.0
X115.5Y-120.0
X118.08Y-124.0
X118.08Y-128.0
X148.0Y-32.42
X148.0Y-42.58
X150.999Y-113.75
X150.999Y-116.25
X152.0Y-32.42
X152.0Y-42.58
T4
X54.725Y-26.0
X57.265Y-26.0
X62.725Y-26.0
X65.265Y-26.0
T5
X77.25Y-27.475
X79.75Y-27.475
X82.25Y-27.475
X84.75Y-27.475
X91.25Y-27.475
X93.75Y-27.475
X96.25Y-27.475
X98.75Y-27.475
X105.25Y-27.475
X107.75Y-27.475
X110.25Y-27.475
X112.75Y-27.475
X119.25Y-27.475
X121.75Y-27.475
X124.25Y-27.475
X126.75Y-27.475
X133.25Y-27.475
X135.75Y-27.475
X138.25Y-27.475
X140.75Y-27.475
X147.25Y-27.475
X149.75Y-27.475
X152.25Y-27.475
X154.75Y-27.475
X158.475Y-35.25
X158.475Y-37.75
X158.475Y-40.25
X158.475Y-42.75
T6
X24.19Y-50.0
X26.73Y-50.0
X29.27Y-50.0
X31.81Y-50.0
X58.725Y-43.875
X58.725Y-46.415
X58.725Y-48.955
X58.725Y-51.495
X58.725Y-54.035
X58.725Y-56.575
X58.725Y-59.115
X58.725Y-61.655
X58.725Y-64.195
X58.725Y-66.735
X58.725Y-69.275
X58.725Y-71.815
X58.725Y-74.355
X58.725Y-76.895
X58.725Y-79.435
X58.725Y-81.975
X58.725Y-84.515
X58.725Y-87.055
X58.725Y-89.595
X58.725Y-92.135
X61.265Y-43.875
X61.265Y-46.415
X61.265Y-48.955
X61.265Y-51.495
X61.265Y-54.035
X61.265Y-56.575
X61.265Y-59.115
X61.265Y-61.655
X61.265Y-64.195
X61.265Y-66.735
X61.265Y-69.275
X61.265Y-71.815
X61.265Y-74.355
X61.265Y-76.895
X61.265Y-79.435
X61.265Y-81.975
X61.265Y-84.515
X61.265Y-87.055
X61.265Y-89.595
X61.265Y-92.135
X89.74Y-62.0
X89.74Y-79.78
X89.97Y-68.35
X89.97Y-70.89
X89.97Y-73.43
X92.28Y-62.0
X92.28Y-79.78
X93.37Y-47.23
X93.37Y-49.77
X94.82Y-62.0
X94.82Y-79.78
X95.91Y-47.23
X95.91Y-49.77
X97.36Y-62.0
X97.36Y-79.78
X98.45Y-47.23
X98.45Y-49.77
X99.11Y-132.0
X99.9Y-62.0
X99.9Y-79.78
X100.99Y-47.23
X100.99Y-49.77
X101.65Y-132.0
X102.44Y-62.0
X102.44Y-79.78
X103.53Y-47.23
X103.53Y-49.77
X104.19Y-132.0
X104.98Y-62.0
X104.98Y-79.78
X106.07Y-47.23
X106.07Y-49.77
X106.73Y-132.0
X107.52Y-62.0
X107.52Y-79.78
X108.61Y-47.23
X108.61Y-49.77
X109.27Y-132.0
X110.06Y-62.0
X110.06Y-79.78
X111.15Y-47.23
X111.15Y-49.77
X111.81Y-132.0
X112.6Y-62.0
X112.6Y-79.78
X113.69Y-47.23
X113.69Y-49.77
X114.35Y-132.0
X115.14Y-62.0
X115.14Y-79.78
X116.23Y-47.23
X116.23Y-49.77
X116.89Y-132.0
X117.68Y-62.0
X117.68Y-79.78
X118.77Y-47.23
X118.77Y-49.77
X120.22Y-62.0
X120.22Y-79.78
X121.31Y-47.23
X121.31Y-49.77
X122.76Y-62.0
X122.76Y-79.78
X123.85Y-47.23
X123.85Y-49.77
X125.3Y-62.0
X125.3Y-79.78
X126.39Y-47.23
X126.39Y-49.77
X127.84Y-62.0
X127.84Y-79.78
X128.0Y-131.725
X128.0Y-134.265
X128.93Y-47.23
X128.93Y-49.77
X130.38Y-62.0
X130.38Y-79.78
X131.47Y-47.23
X131.47Y-49.77
X132.92Y-62.0
X132.92Y-79.78
X134.01Y-47.23
X134.01Y-49.77
X135.46Y-62.0
X135.46Y-79.78
X136.55Y-47.23
X136.55Y-49.77
X138.0Y-62.0
X138.0Y-79.78
X139.09Y-47.23
X139.09Y-49.77
X141.11Y-132.0
X141.63Y-47.23
X141.63Y-49.77
X143.65Y-132.0
X146.19Y-132.0
X148.73Y-132.0
X151.27Y-132.0
X153.81Y-132.0
X156.35Y-132.0
X158.89Y-132.0
X165.475Y-78.75
X165.475Y-81.25
T7
X137.45Y-125.4
X142.55Y-126.6
T8
X64.92Y-66.0
X67.46Y-52.95
X70.0Y-52.95
X72.54Y-52.95
X75.08Y-66.0
T9
X122.499Y-115.0
X127.499Y-115.0
X136.499Y-115.0
X141.499Y-115.0
T10
X51.16Y-132.775
X56.24Y-132.775
X67.16Y-132.775
X72.24Y-132.775
T11
X33.04Y-29.3
X33.04Y-32.7
X42.96Y-29.3
X42.96Y-32.7
T12
X88.5Y-48.5
X88.5Y-97.5
X146.5Y-48.5
X146.5Y-97.5
T13
X25.0Y-25.0
X25.0Y-135.0
X36.0Y-65.0
X36.0Y-86.0
X165.0Y-25.0
X165.0Y-135.0
M30
