M48
; DRILL file KiCad 10.0.3 date 2026-07-02T07:02:41
; FORMAT={-:-/ absolute / metric / decimal}
; #@! TF.CreationDate,2026-07-02T07:02:41+02:00
; #@! TF.GenerationSoftware,Kicad,Pcbnew,10.0.3
; #@! TF.FileFunction,MixedPlating,1,2
FMAT,2
METRIC
; #@! TA.AperFunction,Plated,PTH,ViaDrill
T1C0.400
; #@! TA.AperFunction,Plated,PTH,ComponentDrill
T2C0.500
; #@! TA.AperFunction,Plated,PTH,ViaDrill
T3C0.600
; #@! TA.AperFunction,Plated,PTH,ViaDrill
T4C0.800
; #@! TA.AperFunction,Plated,PTH,ComponentDrill
T5C0.800
; #@! TA.AperFunction,Plated,PTH,ComponentDrill
T6C0.900
; #@! TA.AperFunction,Plated,PTH,ComponentDrill
T7C0.950
; #@! TA.AperFunction,Plated,PTH,ComponentDrill
T8C1.000
; #@! TA.AperFunction,Plated,PTH,ComponentDrill
T9C1.010
; #@! TA.AperFunction,Plated,PTH,ComponentDrill
T10C1.100
; #@! TA.AperFunction,Plated,PTH,ComponentDrill
T11C1.200
; #@! TA.AperFunction,Plated,PTH,ComponentDrill
T12C1.600
; #@! TA.AperFunction,Plated,PTH,ComponentDrill
T13C1.780
; #@! TA.AperFunction,Plated,PTH,ComponentDrill
T14C2.000
; #@! TA.AperFunction,Plated,PTH,ComponentDrill
T15C5.300
; #@! TA.AperFunction,NonPlated,NPTH,ComponentDrill
T16C2.300
; #@! TA.AperFunction,NonPlated,NPTH,ComponentDrill
T17C2.700
; #@! TA.AperFunction,NonPlated,NPTH,ComponentDrill
T18C3.200
%
G90
G05
T1
X24.0Y-52.0
X24.0Y-73.0
X24.0Y-80.0
X24.0Y-122.0
X24.0Y-129.0
X24.0Y-136.0
X31.0Y-45.0
X31.0Y-73.0
X31.0Y-80.0
X31.0Y-94.0
X31.0Y-108.0
X49.5Y-152.116
X59.0Y-38.0
X61.233Y-141.945
X66.0Y-24.0
X66.0Y-38.0
X66.0Y-136.0
X67.198Y-145.223
X69.327Y-151.372
X70.63Y-145.724
X73.0Y-24.0
X73.0Y-31.0
X75.534Y-156.171
X78.147Y-151.964
X79.495Y-138.55
X80.0Y-24.0
X80.0Y-31.0
X80.0Y-38.0
X80.0Y-73.0
X80.0Y-80.0
X80.0Y-94.0
X80.0Y-108.0
X81.512Y-140.735
X81.759Y-128.597
X81.947Y-139.407
X82.273Y-153.123
X82.273Y-162.857
X86.0Y-108.404
X87.0Y-24.0
X87.0Y-31.0
X87.0Y-38.0
X87.0Y-45.0
X87.0Y-73.0
X87.0Y-80.0
X87.0Y-115.0
X87.0Y-122.0
X87.0Y-136.0
X89.388Y-37.115
X89.388Y-52.881
X89.63Y-100.928
X89.827Y-128.597
X91.113Y-38.826
X92.725Y-40.378
X92.883Y-147.016
X93.367Y-116.443
X94.0Y-24.0
X94.0Y-101.0
X94.0Y-136.0
X99.748Y-62.129
X101.0Y-24.0
X101.0Y-115.0
X101.0Y-122.0
X101.107Y-133.27
X102.062Y-132.0
X106.769Y-75.146
X107.874Y-77.308
X108.0Y-24.0
X109.054Y-76.158
X109.718Y-76.847
X110.833Y-77.08
X111.191Y-75.263
X111.201Y-86.207
X111.532Y-156.267
X112.681Y-132.0
X115.0Y-24.0
X117.203Y-141.396
X118.534Y-149.736
X119.231Y-134.54
X119.815Y-45.775
X119.829Y-136.181
X120.073Y-129.46
X120.073Y-130.73
X121.566Y-142.842
X121.679Y-65.731
X122.592Y-147.011
X128.334Y-106.807
X129.0Y-24.0
X129.0Y-94.0
X129.299Y-104.097
X129.319Y-67.47
X129.562Y-79.442
X130.332Y-68.175
X130.873Y-44.726
X131.668Y-30.0
X134.267Y-31.692
X136.0Y-24.0
X141.002Y-153.837
X143.0Y-31.0
X143.0Y-115.0
X143.0Y-122.0
X143.0Y-129.0
X143.0Y-136.0
X143.513Y-64.984
X145.543Y-77.056
X148.383Y-66.966
X150.0Y-108.0
X150.0Y-115.0
X150.0Y-122.0
X150.0Y-129.0
X150.0Y-136.0
X150.315Y-89.256
X150.535Y-63.755
X152.978Y-66.174
X153.394Y-45.8
X157.0Y-101.0
X157.0Y-108.0
X157.0Y-115.0
X157.0Y-122.0
X157.0Y-129.0
X160.25Y-24.457
X164.0Y-38.0
X165.591Y-81.456
X171.2Y-63.308
X171.208Y-65.376
X172.323Y-89.256
X173.437Y-69.949
X173.616Y-68.724
X178.911Y-60.074
X179.868Y-57.088
X180.498Y-51.901
X180.637Y-56.034
X180.99Y-58.214
X184.912Y-64.042
X187.82Y-44.032
T2
X46.04Y-44.945
X46.04Y-46.205
X46.79Y-43.915
X46.79Y-47.235
X47.99Y-43.525
X47.99Y-47.625
X49.32Y-43.525
X49.32Y-47.625
X50.66Y-43.525
X50.66Y-47.625
X51.99Y-43.525
X51.99Y-47.625
X53.19Y-43.915
X53.19Y-47.235
X53.94Y-44.945
X53.94Y-46.205
X56.04Y-44.945
X56.04Y-46.205
X56.79Y-43.915
X56.79Y-47.235
X57.99Y-43.525
X57.99Y-47.625
X59.32Y-43.525
X59.32Y-47.625
X60.66Y-43.525
X60.66Y-47.625
X61.99Y-43.525
X61.99Y-47.625
X63.19Y-43.915
X63.19Y-47.235
X63.94Y-44.945
X63.94Y-46.205
T3
X99.218Y-44.856
X120.146Y-86.027
X145.725Y-43.98
X186.734Y-93.022
T4
X125.491Y-55.074
X132.825Y-41.613
T5
X24.0Y-46.005
X24.0Y-48.545
X24.0Y-60.005
X24.0Y-62.545
X24.0Y-82.005
X24.0Y-84.545
X24.0Y-96.005
X24.0Y-98.545
X44.5Y-161.0
X49.5Y-161.0
X53.0Y-149.92
X53.0Y-160.08
X53.08Y-24.175
X54.99Y-24.175
X56.11Y-140.19
X56.11Y-147.81
X56.9Y-24.175
X57.0Y-117.0
X58.5Y-155.0
X58.65Y-140.19
X58.65Y-147.81
X61.19Y-140.19
X61.19Y-147.81
X62.0Y-117.0
X63.5Y-155.0
X63.73Y-140.19
X63.73Y-147.81
X66.27Y-140.19
X66.27Y-147.81
X68.81Y-140.19
X68.81Y-147.81
X68.999Y-157.5
X70.999Y-157.5
X71.35Y-140.19
X71.35Y-147.81
X73.89Y-140.19
X73.89Y-147.81
X83.5Y-164.0
X86.0Y-51.005
X86.0Y-53.545
X86.0Y-65.005
X86.0Y-67.545
X86.0Y-87.005
X86.0Y-89.545
X86.0Y-101.005
X86.0Y-103.545
X88.5Y-164.0
X92.0Y-154.92
X92.0Y-165.08
X94.0Y-138.92
X94.0Y-149.08
X94.92Y-110.0
X95.5Y-154.92
X95.5Y-165.08
X98.92Y-144.0
X99.0Y-154.92
X99.0Y-165.08
X100.92Y-30.0
X100.92Y-34.0
X102.5Y-154.92
X102.5Y-165.08
X105.08Y-110.0
X109.08Y-144.0
X111.08Y-30.0
X111.08Y-34.0
X116.92Y-144.0
X118.92Y-115.0
X118.92Y-119.0
X118.92Y-123.0
X127.08Y-144.0
X128.92Y-42.0
X129.08Y-115.0
X129.08Y-119.0
X129.08Y-123.0
X130.0Y-88.92
X130.0Y-99.08
X131.0Y-66.92
X131.0Y-77.08
X131.0Y-81.5
X131.0Y-86.5
X131.0Y-103.5
X131.0Y-108.5
X133.3Y-88.92
X133.3Y-99.08
X134.0Y-66.92
X134.0Y-77.08
X135.251Y-126.0
X136.92Y-144.0
X136.92Y-148.0
X137.0Y-131.5
X137.0Y-136.5
X138.751Y-126.0
X139.08Y-42.0
X141.92Y-42.0
X147.08Y-144.0
X147.08Y-148.0
X151.0Y-145.5
X151.0Y-150.5
X152.08Y-42.0
X154.92Y-42.0
X165.08Y-42.0
X167.92Y-42.0
X178.08Y-42.0
X180.92Y-42.0
X191.08Y-42.0
X195.999Y-154.75
X195.999Y-157.25
X198.0Y-32.42
X198.0Y-42.58
X202.0Y-32.42
X202.0Y-42.58
X202.999Y-154.75
X202.999Y-157.25
T6
X132.725Y-37.0
X135.265Y-37.0
X145.725Y-37.0
X148.265Y-37.0
X158.725Y-37.0
X161.265Y-37.0
X171.725Y-37.0
X174.265Y-37.0
X184.725Y-37.0
X187.265Y-37.0
T7
X127.25Y-27.475
X129.75Y-27.475
X132.25Y-27.475
X134.75Y-27.475
X141.25Y-27.475
X143.75Y-27.475
X146.25Y-27.475
X148.75Y-27.475
X155.25Y-27.475
X157.75Y-27.475
X160.25Y-27.475
X162.75Y-27.475
X169.25Y-27.475
X171.75Y-27.475
X174.25Y-27.475
X176.75Y-27.475
X183.25Y-27.475
X185.75Y-27.475
X188.25Y-27.475
X190.75Y-27.475
X197.25Y-27.475
X199.75Y-27.475
X202.25Y-27.475
X204.75Y-27.475
X208.475Y-35.25
X208.475Y-37.75
X208.475Y-40.25
X208.475Y-42.75
T8
X92.725Y-43.875
X92.725Y-46.415
X92.725Y-48.955
X92.725Y-51.495
X92.725Y-54.035
X92.725Y-56.575
X92.725Y-59.115
X92.725Y-61.655
X92.725Y-64.195
X92.725Y-66.735
X92.725Y-69.275
X92.725Y-71.815
X92.725Y-74.355
X92.725Y-76.895
X92.725Y-79.435
X92.725Y-81.975
X92.725Y-84.515
X92.725Y-87.055
X92.725Y-89.595
X92.725Y-92.135
X95.265Y-43.875
X95.265Y-46.415
X95.265Y-48.955
X95.265Y-51.495
X95.265Y-54.035
X95.265Y-56.575
X95.265Y-59.115
X95.265Y-61.655
X95.265Y-64.195
X95.265Y-66.735
X95.265Y-69.275
X95.265Y-71.815
X95.265Y-74.355
X95.265Y-76.895
X95.265Y-79.435
X95.265Y-81.975
X95.265Y-84.515
X95.265Y-87.055
X95.265Y-89.595
X95.265Y-92.135
X139.74Y-62.0
X139.74Y-79.78
X139.97Y-68.35
X139.97Y-70.89
X139.97Y-73.43
X142.28Y-62.0
X142.28Y-79.78
X143.37Y-47.23
X143.37Y-49.77
X144.82Y-62.0
X144.82Y-79.78
X145.91Y-47.23
X145.91Y-49.77
X147.36Y-62.0
X147.36Y-79.78
X148.45Y-47.23
X148.45Y-49.77
X149.9Y-62.0
X149.9Y-79.78
X150.99Y-47.23
X150.99Y-49.77
X152.44Y-62.0
X152.44Y-79.78
X153.53Y-47.23
X153.53Y-49.77
X154.98Y-62.0
X154.98Y-79.78
X156.07Y-47.23
X156.07Y-49.77
X157.52Y-62.0
X157.52Y-79.78
X158.61Y-47.23
X158.61Y-49.77
X160.06Y-62.0
X160.06Y-79.78
X161.15Y-47.23
X161.15Y-49.77
X162.6Y-62.0
X162.6Y-79.78
X163.69Y-47.23
X163.69Y-49.77
X165.14Y-62.0
X165.14Y-79.78
X166.11Y-166.0
X166.23Y-47.23
X166.23Y-49.77
X167.68Y-62.0
X167.68Y-79.78
X168.65Y-166.0
X168.77Y-47.23
X168.77Y-49.77
X170.22Y-62.0
X170.22Y-79.78
X171.19Y-166.0
X171.31Y-47.23
X171.31Y-49.77
X172.76Y-62.0
X172.76Y-79.78
X173.73Y-166.0
X173.85Y-47.23
X173.85Y-49.77
X175.3Y-62.0
X175.3Y-79.78
X176.27Y-166.0
X176.39Y-47.23
X176.39Y-49.77
X177.84Y-62.0
X177.84Y-79.78
X178.81Y-166.0
X178.93Y-47.23
X178.93Y-49.77
X180.38Y-62.0
X180.38Y-79.78
X181.35Y-166.0
X181.47Y-47.23
X181.47Y-49.77
X182.92Y-62.0
X182.92Y-79.78
X183.89Y-166.0
X184.01Y-47.23
X184.01Y-49.77
X185.46Y-62.0
X185.46Y-79.78
X186.55Y-47.23
X186.55Y-49.77
X188.0Y-62.0
X188.0Y-79.78
X189.09Y-47.23
X189.09Y-49.77
X191.63Y-47.23
X191.63Y-49.77
X210.0Y-154.725
X210.0Y-157.265
X215.475Y-78.75
X215.475Y-81.25
T9
X193.45Y-146.4
X198.55Y-147.6
T10
X29.05Y-47.46
X29.05Y-50.0
X29.05Y-52.54
X29.05Y-61.46
X29.05Y-64.0
X29.05Y-66.54
X29.05Y-83.46
X29.05Y-86.0
X29.05Y-88.54
X29.05Y-97.46
X29.05Y-100.0
X29.05Y-102.54
X49.5Y-138.92
X49.5Y-149.08
X80.95Y-47.46
X80.95Y-50.0
X80.95Y-52.54
X80.95Y-61.46
X80.95Y-64.0
X80.95Y-66.54
X80.95Y-83.46
X80.95Y-86.0
X80.95Y-88.54
X80.95Y-97.46
X80.95Y-100.0
X80.95Y-102.54
X85.0Y-142.92
X85.0Y-153.08
X97.46Y-104.95
X100.0Y-104.95
X102.54Y-104.95
X107.65Y-58.89
X107.65Y-61.43
X107.65Y-90.89
X107.65Y-93.43
X107.92Y-104.0
X110.19Y-58.89
X110.19Y-61.43
X110.19Y-90.89
X110.19Y-93.43
X112.73Y-58.89
X112.73Y-61.43
X112.73Y-90.89
X112.73Y-93.43
X115.27Y-58.89
X115.27Y-61.43
X115.27Y-90.89
X115.27Y-93.43
X117.81Y-58.89
X117.81Y-61.43
X117.81Y-90.89
X117.81Y-93.43
X118.08Y-104.0
X120.35Y-58.89
X120.35Y-61.43
X120.35Y-90.89
X120.35Y-93.43
T11
X56.049Y-77.0
X56.049Y-96.0
X63.549Y-77.0
X63.549Y-96.0
X169.499Y-156.0
X174.499Y-156.0
X183.499Y-156.0
X188.499Y-156.0
T12
X107.16Y-159.775
X112.24Y-159.775
X139.16Y-160.775
X144.24Y-160.775
X155.16Y-160.775
X160.24Y-160.775
T13
X126.3Y-156.04
X126.3Y-165.96
X129.7Y-156.04
X129.7Y-165.96
T15
X30.001Y-152.0
X33.001Y-33.0
X37.001Y-124.0
X73.001Y-124.0
T16
X103.5Y-60.5
X103.5Y-92.5
X124.5Y-39.5
X124.5Y-60.5
X124.5Y-71.5
X124.5Y-92.5
T17
X138.5Y-48.5
X138.5Y-97.5
X196.5Y-48.5
X196.5Y-97.5
T18
X25.0Y-25.0
X25.0Y-165.0
X120.0Y-25.0
X120.0Y-165.0
X215.0Y-25.0
X215.0Y-165.0
T14
X51.99Y-45.575G85X47.99Y-45.575
G05
X61.99Y-45.575G85X57.99Y-45.575
G05
M30
