%TF.GenerationSoftware,KiCad,Pcbnew,10.0.3*%
%TF.CreationDate,2026-07-02T07:39:27+02:00*%
%TF.ProjectId,vanchor-helm,76616e63-686f-4722-9d68-656c6d2e6b69,rev?*%
%TF.SameCoordinates,Original*%
%TF.FileFunction,Legend,Top*%
%TF.FilePolarity,Positive*%
%FSLAX46Y46*%
G04 Gerber Fmt 4.6, Leading zero omitted, Abs format (unit mm)*
G04 Created by KiCad (PCBNEW 10.0.3) date 2026-07-02 07:39:27*
%MOMM*%
%LPD*%
G01*
G04 APERTURE LIST*
%ADD10C,0.150000*%
%ADD11C,0.120000*%
G04 APERTURE END LIST*
D10*
X146084819Y-38142857D02*
X145608628Y-38476190D01*
X146084819Y-38714285D02*
X145084819Y-38714285D01*
X145084819Y-38714285D02*
X145084819Y-38333333D01*
X145084819Y-38333333D02*
X145132438Y-38238095D01*
X145132438Y-38238095D02*
X145180057Y-38190476D01*
X145180057Y-38190476D02*
X145275295Y-38142857D01*
X145275295Y-38142857D02*
X145418152Y-38142857D01*
X145418152Y-38142857D02*
X145513390Y-38190476D01*
X145513390Y-38190476D02*
X145561009Y-38238095D01*
X145561009Y-38238095D02*
X145608628Y-38333333D01*
X145608628Y-38333333D02*
X145608628Y-38714285D01*
X145180057Y-37761904D02*
X145132438Y-37714285D01*
X145132438Y-37714285D02*
X145084819Y-37619047D01*
X145084819Y-37619047D02*
X145084819Y-37380952D01*
X145084819Y-37380952D02*
X145132438Y-37285714D01*
X145132438Y-37285714D02*
X145180057Y-37238095D01*
X145180057Y-37238095D02*
X145275295Y-37190476D01*
X145275295Y-37190476D02*
X145370533Y-37190476D01*
X145370533Y-37190476D02*
X145513390Y-37238095D01*
X145513390Y-37238095D02*
X146084819Y-37809523D01*
X146084819Y-37809523D02*
X146084819Y-37190476D01*
X145084819Y-36571428D02*
X145084819Y-36476190D01*
X145084819Y-36476190D02*
X145132438Y-36380952D01*
X145132438Y-36380952D02*
X145180057Y-36333333D01*
X145180057Y-36333333D02*
X145275295Y-36285714D01*
X145275295Y-36285714D02*
X145465771Y-36238095D01*
X145465771Y-36238095D02*
X145703866Y-36238095D01*
X145703866Y-36238095D02*
X145894342Y-36285714D01*
X145894342Y-36285714D02*
X145989580Y-36333333D01*
X145989580Y-36333333D02*
X146037200Y-36380952D01*
X146037200Y-36380952D02*
X146084819Y-36476190D01*
X146084819Y-36476190D02*
X146084819Y-36571428D01*
X146084819Y-36571428D02*
X146037200Y-36666666D01*
X146037200Y-36666666D02*
X145989580Y-36714285D01*
X145989580Y-36714285D02*
X145894342Y-36761904D01*
X145894342Y-36761904D02*
X145703866Y-36809523D01*
X145703866Y-36809523D02*
X145465771Y-36809523D01*
X145465771Y-36809523D02*
X145275295Y-36761904D01*
X145275295Y-36761904D02*
X145180057Y-36714285D01*
X145180057Y-36714285D02*
X145132438Y-36666666D01*
X145132438Y-36666666D02*
X145084819Y-36571428D01*
X78084819Y-94642857D02*
X77608628Y-94976190D01*
X78084819Y-95214285D02*
X77084819Y-95214285D01*
X77084819Y-95214285D02*
X77084819Y-94833333D01*
X77084819Y-94833333D02*
X77132438Y-94738095D01*
X77132438Y-94738095D02*
X77180057Y-94690476D01*
X77180057Y-94690476D02*
X77275295Y-94642857D01*
X77275295Y-94642857D02*
X77418152Y-94642857D01*
X77418152Y-94642857D02*
X77513390Y-94690476D01*
X77513390Y-94690476D02*
X77561009Y-94738095D01*
X77561009Y-94738095D02*
X77608628Y-94833333D01*
X77608628Y-94833333D02*
X77608628Y-95214285D01*
X78084819Y-93690476D02*
X78084819Y-94261904D01*
X78084819Y-93976190D02*
X77084819Y-93976190D01*
X77084819Y-93976190D02*
X77227676Y-94071428D01*
X77227676Y-94071428D02*
X77322914Y-94166666D01*
X77322914Y-94166666D02*
X77370533Y-94261904D01*
X78084819Y-92738095D02*
X78084819Y-93309523D01*
X78084819Y-93023809D02*
X77084819Y-93023809D01*
X77084819Y-93023809D02*
X77227676Y-93119047D01*
X77227676Y-93119047D02*
X77322914Y-93214285D01*
X77322914Y-93214285D02*
X77370533Y-93309523D01*
X150084819Y-38142857D02*
X149608628Y-38476190D01*
X150084819Y-38714285D02*
X149084819Y-38714285D01*
X149084819Y-38714285D02*
X149084819Y-38333333D01*
X149084819Y-38333333D02*
X149132438Y-38238095D01*
X149132438Y-38238095D02*
X149180057Y-38190476D01*
X149180057Y-38190476D02*
X149275295Y-38142857D01*
X149275295Y-38142857D02*
X149418152Y-38142857D01*
X149418152Y-38142857D02*
X149513390Y-38190476D01*
X149513390Y-38190476D02*
X149561009Y-38238095D01*
X149561009Y-38238095D02*
X149608628Y-38333333D01*
X149608628Y-38333333D02*
X149608628Y-38714285D01*
X149180057Y-37761904D02*
X149132438Y-37714285D01*
X149132438Y-37714285D02*
X149084819Y-37619047D01*
X149084819Y-37619047D02*
X149084819Y-37380952D01*
X149084819Y-37380952D02*
X149132438Y-37285714D01*
X149132438Y-37285714D02*
X149180057Y-37238095D01*
X149180057Y-37238095D02*
X149275295Y-37190476D01*
X149275295Y-37190476D02*
X149370533Y-37190476D01*
X149370533Y-37190476D02*
X149513390Y-37238095D01*
X149513390Y-37238095D02*
X150084819Y-37809523D01*
X150084819Y-37809523D02*
X150084819Y-37190476D01*
X150084819Y-36238095D02*
X150084819Y-36809523D01*
X150084819Y-36523809D02*
X149084819Y-36523809D01*
X149084819Y-36523809D02*
X149227676Y-36619047D01*
X149227676Y-36619047D02*
X149322914Y-36714285D01*
X149322914Y-36714285D02*
X149370533Y-36809523D01*
X98357142Y-122084819D02*
X98023809Y-121608628D01*
X97785714Y-122084819D02*
X97785714Y-121084819D01*
X97785714Y-121084819D02*
X98166666Y-121084819D01*
X98166666Y-121084819D02*
X98261904Y-121132438D01*
X98261904Y-121132438D02*
X98309523Y-121180057D01*
X98309523Y-121180057D02*
X98357142Y-121275295D01*
X98357142Y-121275295D02*
X98357142Y-121418152D01*
X98357142Y-121418152D02*
X98309523Y-121513390D01*
X98309523Y-121513390D02*
X98261904Y-121561009D01*
X98261904Y-121561009D02*
X98166666Y-121608628D01*
X98166666Y-121608628D02*
X97785714Y-121608628D01*
X99309523Y-122084819D02*
X98738095Y-122084819D01*
X99023809Y-122084819D02*
X99023809Y-121084819D01*
X99023809Y-121084819D02*
X98928571Y-121227676D01*
X98928571Y-121227676D02*
X98833333Y-121322914D01*
X98833333Y-121322914D02*
X98738095Y-121370533D01*
X100214285Y-121084819D02*
X99738095Y-121084819D01*
X99738095Y-121084819D02*
X99690476Y-121561009D01*
X99690476Y-121561009D02*
X99738095Y-121513390D01*
X99738095Y-121513390D02*
X99833333Y-121465771D01*
X99833333Y-121465771D02*
X100071428Y-121465771D01*
X100071428Y-121465771D02*
X100166666Y-121513390D01*
X100166666Y-121513390D02*
X100214285Y-121561009D01*
X100214285Y-121561009D02*
X100261904Y-121656247D01*
X100261904Y-121656247D02*
X100261904Y-121894342D01*
X100261904Y-121894342D02*
X100214285Y-121989580D01*
X100214285Y-121989580D02*
X100166666Y-122037200D01*
X100166666Y-122037200D02*
X100071428Y-122084819D01*
X100071428Y-122084819D02*
X99833333Y-122084819D01*
X99833333Y-122084819D02*
X99738095Y-122037200D01*
X99738095Y-122037200D02*
X99690476Y-121989580D01*
X122666666Y-23379819D02*
X122666666Y-24094104D01*
X122666666Y-24094104D02*
X122619047Y-24236961D01*
X122619047Y-24236961D02*
X122523809Y-24332200D01*
X122523809Y-24332200D02*
X122380952Y-24379819D01*
X122380952Y-24379819D02*
X122285714Y-24379819D01*
X123571428Y-23379819D02*
X123380952Y-23379819D01*
X123380952Y-23379819D02*
X123285714Y-23427438D01*
X123285714Y-23427438D02*
X123238095Y-23475057D01*
X123238095Y-23475057D02*
X123142857Y-23617914D01*
X123142857Y-23617914D02*
X123095238Y-23808390D01*
X123095238Y-23808390D02*
X123095238Y-24189342D01*
X123095238Y-24189342D02*
X123142857Y-24284580D01*
X123142857Y-24284580D02*
X123190476Y-24332200D01*
X123190476Y-24332200D02*
X123285714Y-24379819D01*
X123285714Y-24379819D02*
X123476190Y-24379819D01*
X123476190Y-24379819D02*
X123571428Y-24332200D01*
X123571428Y-24332200D02*
X123619047Y-24284580D01*
X123619047Y-24284580D02*
X123666666Y-24189342D01*
X123666666Y-24189342D02*
X123666666Y-23951247D01*
X123666666Y-23951247D02*
X123619047Y-23856009D01*
X123619047Y-23856009D02*
X123571428Y-23808390D01*
X123571428Y-23808390D02*
X123476190Y-23760771D01*
X123476190Y-23760771D02*
X123285714Y-23760771D01*
X123285714Y-23760771D02*
X123190476Y-23808390D01*
X123190476Y-23808390D02*
X123142857Y-23856009D01*
X123142857Y-23856009D02*
X123095238Y-23951247D01*
X69833333Y-58084819D02*
X69500000Y-57608628D01*
X69261905Y-58084819D02*
X69261905Y-57084819D01*
X69261905Y-57084819D02*
X69642857Y-57084819D01*
X69642857Y-57084819D02*
X69738095Y-57132438D01*
X69738095Y-57132438D02*
X69785714Y-57180057D01*
X69785714Y-57180057D02*
X69833333Y-57275295D01*
X69833333Y-57275295D02*
X69833333Y-57418152D01*
X69833333Y-57418152D02*
X69785714Y-57513390D01*
X69785714Y-57513390D02*
X69738095Y-57561009D01*
X69738095Y-57561009D02*
X69642857Y-57608628D01*
X69642857Y-57608628D02*
X69261905Y-57608628D01*
X70785714Y-58084819D02*
X70214286Y-58084819D01*
X70500000Y-58084819D02*
X70500000Y-57084819D01*
X70500000Y-57084819D02*
X70404762Y-57227676D01*
X70404762Y-57227676D02*
X70309524Y-57322914D01*
X70309524Y-57322914D02*
X70214286Y-57370533D01*
X136666666Y-23379819D02*
X136666666Y-24094104D01*
X136666666Y-24094104D02*
X136619047Y-24236961D01*
X136619047Y-24236961D02*
X136523809Y-24332200D01*
X136523809Y-24332200D02*
X136380952Y-24379819D01*
X136380952Y-24379819D02*
X136285714Y-24379819D01*
X137047619Y-23379819D02*
X137714285Y-23379819D01*
X137714285Y-23379819D02*
X137285714Y-24379819D01*
X145738095Y-94304819D02*
X145738095Y-93304819D01*
X145738095Y-93781009D02*
X146309523Y-93781009D01*
X146309523Y-94304819D02*
X146309523Y-93304819D01*
X146928571Y-93733390D02*
X146833333Y-93685771D01*
X146833333Y-93685771D02*
X146785714Y-93638152D01*
X146785714Y-93638152D02*
X146738095Y-93542914D01*
X146738095Y-93542914D02*
X146738095Y-93495295D01*
X146738095Y-93495295D02*
X146785714Y-93400057D01*
X146785714Y-93400057D02*
X146833333Y-93352438D01*
X146833333Y-93352438D02*
X146928571Y-93304819D01*
X146928571Y-93304819D02*
X147119047Y-93304819D01*
X147119047Y-93304819D02*
X147214285Y-93352438D01*
X147214285Y-93352438D02*
X147261904Y-93400057D01*
X147261904Y-93400057D02*
X147309523Y-93495295D01*
X147309523Y-93495295D02*
X147309523Y-93542914D01*
X147309523Y-93542914D02*
X147261904Y-93638152D01*
X147261904Y-93638152D02*
X147214285Y-93685771D01*
X147214285Y-93685771D02*
X147119047Y-93733390D01*
X147119047Y-93733390D02*
X146928571Y-93733390D01*
X146928571Y-93733390D02*
X146833333Y-93781009D01*
X146833333Y-93781009D02*
X146785714Y-93828628D01*
X146785714Y-93828628D02*
X146738095Y-93923866D01*
X146738095Y-93923866D02*
X146738095Y-94114342D01*
X146738095Y-94114342D02*
X146785714Y-94209580D01*
X146785714Y-94209580D02*
X146833333Y-94257200D01*
X146833333Y-94257200D02*
X146928571Y-94304819D01*
X146928571Y-94304819D02*
X147119047Y-94304819D01*
X147119047Y-94304819D02*
X147214285Y-94257200D01*
X147214285Y-94257200D02*
X147261904Y-94209580D01*
X147261904Y-94209580D02*
X147309523Y-94114342D01*
X147309523Y-94114342D02*
X147309523Y-93923866D01*
X147309523Y-93923866D02*
X147261904Y-93828628D01*
X147261904Y-93828628D02*
X147214285Y-93781009D01*
X147214285Y-93781009D02*
X147119047Y-93733390D01*
X154785714Y-46054819D02*
X154785714Y-45054819D01*
X154785714Y-45054819D02*
X155023809Y-45054819D01*
X155023809Y-45054819D02*
X155166666Y-45102438D01*
X155166666Y-45102438D02*
X155261904Y-45197676D01*
X155261904Y-45197676D02*
X155309523Y-45292914D01*
X155309523Y-45292914D02*
X155357142Y-45483390D01*
X155357142Y-45483390D02*
X155357142Y-45626247D01*
X155357142Y-45626247D02*
X155309523Y-45816723D01*
X155309523Y-45816723D02*
X155261904Y-45911961D01*
X155261904Y-45911961D02*
X155166666Y-46007200D01*
X155166666Y-46007200D02*
X155023809Y-46054819D01*
X155023809Y-46054819D02*
X154785714Y-46054819D01*
X156309523Y-46054819D02*
X155738095Y-46054819D01*
X156023809Y-46054819D02*
X156023809Y-45054819D01*
X156023809Y-45054819D02*
X155928571Y-45197676D01*
X155928571Y-45197676D02*
X155833333Y-45292914D01*
X155833333Y-45292914D02*
X155738095Y-45340533D01*
X156928571Y-45054819D02*
X157023809Y-45054819D01*
X157023809Y-45054819D02*
X157119047Y-45102438D01*
X157119047Y-45102438D02*
X157166666Y-45150057D01*
X157166666Y-45150057D02*
X157214285Y-45245295D01*
X157214285Y-45245295D02*
X157261904Y-45435771D01*
X157261904Y-45435771D02*
X157261904Y-45673866D01*
X157261904Y-45673866D02*
X157214285Y-45864342D01*
X157214285Y-45864342D02*
X157166666Y-45959580D01*
X157166666Y-45959580D02*
X157119047Y-46007200D01*
X157119047Y-46007200D02*
X157023809Y-46054819D01*
X157023809Y-46054819D02*
X156928571Y-46054819D01*
X156928571Y-46054819D02*
X156833333Y-46007200D01*
X156833333Y-46007200D02*
X156785714Y-45959580D01*
X156785714Y-45959580D02*
X156738095Y-45864342D01*
X156738095Y-45864342D02*
X156690476Y-45673866D01*
X156690476Y-45673866D02*
X156690476Y-45435771D01*
X156690476Y-45435771D02*
X156738095Y-45245295D01*
X156738095Y-45245295D02*
X156785714Y-45150057D01*
X156785714Y-45150057D02*
X156833333Y-45102438D01*
X156833333Y-45102438D02*
X156928571Y-45054819D01*
X77833333Y-113084819D02*
X77500000Y-112608628D01*
X77261905Y-113084819D02*
X77261905Y-112084819D01*
X77261905Y-112084819D02*
X77642857Y-112084819D01*
X77642857Y-112084819D02*
X77738095Y-112132438D01*
X77738095Y-112132438D02*
X77785714Y-112180057D01*
X77785714Y-112180057D02*
X77833333Y-112275295D01*
X77833333Y-112275295D02*
X77833333Y-112418152D01*
X77833333Y-112418152D02*
X77785714Y-112513390D01*
X77785714Y-112513390D02*
X77738095Y-112561009D01*
X77738095Y-112561009D02*
X77642857Y-112608628D01*
X77642857Y-112608628D02*
X77261905Y-112608628D01*
X78404762Y-112513390D02*
X78309524Y-112465771D01*
X78309524Y-112465771D02*
X78261905Y-112418152D01*
X78261905Y-112418152D02*
X78214286Y-112322914D01*
X78214286Y-112322914D02*
X78214286Y-112275295D01*
X78214286Y-112275295D02*
X78261905Y-112180057D01*
X78261905Y-112180057D02*
X78309524Y-112132438D01*
X78309524Y-112132438D02*
X78404762Y-112084819D01*
X78404762Y-112084819D02*
X78595238Y-112084819D01*
X78595238Y-112084819D02*
X78690476Y-112132438D01*
X78690476Y-112132438D02*
X78738095Y-112180057D01*
X78738095Y-112180057D02*
X78785714Y-112275295D01*
X78785714Y-112275295D02*
X78785714Y-112322914D01*
X78785714Y-112322914D02*
X78738095Y-112418152D01*
X78738095Y-112418152D02*
X78690476Y-112465771D01*
X78690476Y-112465771D02*
X78595238Y-112513390D01*
X78595238Y-112513390D02*
X78404762Y-112513390D01*
X78404762Y-112513390D02*
X78309524Y-112561009D01*
X78309524Y-112561009D02*
X78261905Y-112608628D01*
X78261905Y-112608628D02*
X78214286Y-112703866D01*
X78214286Y-112703866D02*
X78214286Y-112894342D01*
X78214286Y-112894342D02*
X78261905Y-112989580D01*
X78261905Y-112989580D02*
X78309524Y-113037200D01*
X78309524Y-113037200D02*
X78404762Y-113084819D01*
X78404762Y-113084819D02*
X78595238Y-113084819D01*
X78595238Y-113084819D02*
X78690476Y-113037200D01*
X78690476Y-113037200D02*
X78738095Y-112989580D01*
X78738095Y-112989580D02*
X78785714Y-112894342D01*
X78785714Y-112894342D02*
X78785714Y-112703866D01*
X78785714Y-112703866D02*
X78738095Y-112608628D01*
X78738095Y-112608628D02*
X78690476Y-112561009D01*
X78690476Y-112561009D02*
X78595238Y-112513390D01*
X112357142Y-126084819D02*
X112023809Y-125608628D01*
X111785714Y-126084819D02*
X111785714Y-125084819D01*
X111785714Y-125084819D02*
X112166666Y-125084819D01*
X112166666Y-125084819D02*
X112261904Y-125132438D01*
X112261904Y-125132438D02*
X112309523Y-125180057D01*
X112309523Y-125180057D02*
X112357142Y-125275295D01*
X112357142Y-125275295D02*
X112357142Y-125418152D01*
X112357142Y-125418152D02*
X112309523Y-125513390D01*
X112309523Y-125513390D02*
X112261904Y-125561009D01*
X112261904Y-125561009D02*
X112166666Y-125608628D01*
X112166666Y-125608628D02*
X111785714Y-125608628D01*
X112690476Y-125084819D02*
X113309523Y-125084819D01*
X113309523Y-125084819D02*
X112976190Y-125465771D01*
X112976190Y-125465771D02*
X113119047Y-125465771D01*
X113119047Y-125465771D02*
X113214285Y-125513390D01*
X113214285Y-125513390D02*
X113261904Y-125561009D01*
X113261904Y-125561009D02*
X113309523Y-125656247D01*
X113309523Y-125656247D02*
X113309523Y-125894342D01*
X113309523Y-125894342D02*
X113261904Y-125989580D01*
X113261904Y-125989580D02*
X113214285Y-126037200D01*
X113214285Y-126037200D02*
X113119047Y-126084819D01*
X113119047Y-126084819D02*
X112833333Y-126084819D01*
X112833333Y-126084819D02*
X112738095Y-126037200D01*
X112738095Y-126037200D02*
X112690476Y-125989580D01*
X113690476Y-125180057D02*
X113738095Y-125132438D01*
X113738095Y-125132438D02*
X113833333Y-125084819D01*
X113833333Y-125084819D02*
X114071428Y-125084819D01*
X114071428Y-125084819D02*
X114166666Y-125132438D01*
X114166666Y-125132438D02*
X114214285Y-125180057D01*
X114214285Y-125180057D02*
X114261904Y-125275295D01*
X114261904Y-125275295D02*
X114261904Y-125370533D01*
X114261904Y-125370533D02*
X114214285Y-125513390D01*
X114214285Y-125513390D02*
X113642857Y-126084819D01*
X113642857Y-126084819D02*
X114261904Y-126084819D01*
X31357142Y-117084819D02*
X31023809Y-116608628D01*
X30785714Y-117084819D02*
X30785714Y-116084819D01*
X30785714Y-116084819D02*
X31166666Y-116084819D01*
X31166666Y-116084819D02*
X31261904Y-116132438D01*
X31261904Y-116132438D02*
X31309523Y-116180057D01*
X31309523Y-116180057D02*
X31357142Y-116275295D01*
X31357142Y-116275295D02*
X31357142Y-116418152D01*
X31357142Y-116418152D02*
X31309523Y-116513390D01*
X31309523Y-116513390D02*
X31261904Y-116561009D01*
X31261904Y-116561009D02*
X31166666Y-116608628D01*
X31166666Y-116608628D02*
X30785714Y-116608628D01*
X31690476Y-116084819D02*
X32309523Y-116084819D01*
X32309523Y-116084819D02*
X31976190Y-116465771D01*
X31976190Y-116465771D02*
X32119047Y-116465771D01*
X32119047Y-116465771D02*
X32214285Y-116513390D01*
X32214285Y-116513390D02*
X32261904Y-116561009D01*
X32261904Y-116561009D02*
X32309523Y-116656247D01*
X32309523Y-116656247D02*
X32309523Y-116894342D01*
X32309523Y-116894342D02*
X32261904Y-116989580D01*
X32261904Y-116989580D02*
X32214285Y-117037200D01*
X32214285Y-117037200D02*
X32119047Y-117084819D01*
X32119047Y-117084819D02*
X31833333Y-117084819D01*
X31833333Y-117084819D02*
X31738095Y-117037200D01*
X31738095Y-117037200D02*
X31690476Y-116989580D01*
X32785714Y-117084819D02*
X32976190Y-117084819D01*
X32976190Y-117084819D02*
X33071428Y-117037200D01*
X33071428Y-117037200D02*
X33119047Y-116989580D01*
X33119047Y-116989580D02*
X33214285Y-116846723D01*
X33214285Y-116846723D02*
X33261904Y-116656247D01*
X33261904Y-116656247D02*
X33261904Y-116275295D01*
X33261904Y-116275295D02*
X33214285Y-116180057D01*
X33214285Y-116180057D02*
X33166666Y-116132438D01*
X33166666Y-116132438D02*
X33071428Y-116084819D01*
X33071428Y-116084819D02*
X32880952Y-116084819D01*
X32880952Y-116084819D02*
X32785714Y-116132438D01*
X32785714Y-116132438D02*
X32738095Y-116180057D01*
X32738095Y-116180057D02*
X32690476Y-116275295D01*
X32690476Y-116275295D02*
X32690476Y-116513390D01*
X32690476Y-116513390D02*
X32738095Y-116608628D01*
X32738095Y-116608628D02*
X32785714Y-116656247D01*
X32785714Y-116656247D02*
X32880952Y-116703866D01*
X32880952Y-116703866D02*
X33071428Y-116703866D01*
X33071428Y-116703866D02*
X33166666Y-116656247D01*
X33166666Y-116656247D02*
X33214285Y-116608628D01*
X33214285Y-116608628D02*
X33261904Y-116513390D01*
X77357142Y-121084819D02*
X77023809Y-120608628D01*
X76785714Y-121084819D02*
X76785714Y-120084819D01*
X76785714Y-120084819D02*
X77166666Y-120084819D01*
X77166666Y-120084819D02*
X77261904Y-120132438D01*
X77261904Y-120132438D02*
X77309523Y-120180057D01*
X77309523Y-120180057D02*
X77357142Y-120275295D01*
X77357142Y-120275295D02*
X77357142Y-120418152D01*
X77357142Y-120418152D02*
X77309523Y-120513390D01*
X77309523Y-120513390D02*
X77261904Y-120561009D01*
X77261904Y-120561009D02*
X77166666Y-120608628D01*
X77166666Y-120608628D02*
X76785714Y-120608628D01*
X78309523Y-121084819D02*
X77738095Y-121084819D01*
X78023809Y-121084819D02*
X78023809Y-120084819D01*
X78023809Y-120084819D02*
X77928571Y-120227676D01*
X77928571Y-120227676D02*
X77833333Y-120322914D01*
X77833333Y-120322914D02*
X77738095Y-120370533D01*
X78928571Y-120084819D02*
X79023809Y-120084819D01*
X79023809Y-120084819D02*
X79119047Y-120132438D01*
X79119047Y-120132438D02*
X79166666Y-120180057D01*
X79166666Y-120180057D02*
X79214285Y-120275295D01*
X79214285Y-120275295D02*
X79261904Y-120465771D01*
X79261904Y-120465771D02*
X79261904Y-120703866D01*
X79261904Y-120703866D02*
X79214285Y-120894342D01*
X79214285Y-120894342D02*
X79166666Y-120989580D01*
X79166666Y-120989580D02*
X79119047Y-121037200D01*
X79119047Y-121037200D02*
X79023809Y-121084819D01*
X79023809Y-121084819D02*
X78928571Y-121084819D01*
X78928571Y-121084819D02*
X78833333Y-121037200D01*
X78833333Y-121037200D02*
X78785714Y-120989580D01*
X78785714Y-120989580D02*
X78738095Y-120894342D01*
X78738095Y-120894342D02*
X78690476Y-120703866D01*
X78690476Y-120703866D02*
X78690476Y-120465771D01*
X78690476Y-120465771D02*
X78738095Y-120275295D01*
X78738095Y-120275295D02*
X78785714Y-120180057D01*
X78785714Y-120180057D02*
X78833333Y-120132438D01*
X78833333Y-120132438D02*
X78928571Y-120084819D01*
X59661666Y-40949819D02*
X59661666Y-41664104D01*
X59661666Y-41664104D02*
X59614047Y-41806961D01*
X59614047Y-41806961D02*
X59518809Y-41902200D01*
X59518809Y-41902200D02*
X59375952Y-41949819D01*
X59375952Y-41949819D02*
X59280714Y-41949819D01*
X60090238Y-41045057D02*
X60137857Y-40997438D01*
X60137857Y-40997438D02*
X60233095Y-40949819D01*
X60233095Y-40949819D02*
X60471190Y-40949819D01*
X60471190Y-40949819D02*
X60566428Y-40997438D01*
X60566428Y-40997438D02*
X60614047Y-41045057D01*
X60614047Y-41045057D02*
X60661666Y-41140295D01*
X60661666Y-41140295D02*
X60661666Y-41235533D01*
X60661666Y-41235533D02*
X60614047Y-41378390D01*
X60614047Y-41378390D02*
X60042619Y-41949819D01*
X60042619Y-41949819D02*
X60661666Y-41949819D01*
X81384819Y-94642857D02*
X80908628Y-94976190D01*
X81384819Y-95214285D02*
X80384819Y-95214285D01*
X80384819Y-95214285D02*
X80384819Y-94833333D01*
X80384819Y-94833333D02*
X80432438Y-94738095D01*
X80432438Y-94738095D02*
X80480057Y-94690476D01*
X80480057Y-94690476D02*
X80575295Y-94642857D01*
X80575295Y-94642857D02*
X80718152Y-94642857D01*
X80718152Y-94642857D02*
X80813390Y-94690476D01*
X80813390Y-94690476D02*
X80861009Y-94738095D01*
X80861009Y-94738095D02*
X80908628Y-94833333D01*
X80908628Y-94833333D02*
X80908628Y-95214285D01*
X81384819Y-93690476D02*
X81384819Y-94261904D01*
X81384819Y-93976190D02*
X80384819Y-93976190D01*
X80384819Y-93976190D02*
X80527676Y-94071428D01*
X80527676Y-94071428D02*
X80622914Y-94166666D01*
X80622914Y-94166666D02*
X80670533Y-94261904D01*
X80480057Y-93309523D02*
X80432438Y-93261904D01*
X80432438Y-93261904D02*
X80384819Y-93166666D01*
X80384819Y-93166666D02*
X80384819Y-92928571D01*
X80384819Y-92928571D02*
X80432438Y-92833333D01*
X80432438Y-92833333D02*
X80480057Y-92785714D01*
X80480057Y-92785714D02*
X80575295Y-92738095D01*
X80575295Y-92738095D02*
X80670533Y-92738095D01*
X80670533Y-92738095D02*
X80813390Y-92785714D01*
X80813390Y-92785714D02*
X81384819Y-93357142D01*
X81384819Y-93357142D02*
X81384819Y-92738095D01*
X51113095Y-100804819D02*
X51113095Y-101614342D01*
X51113095Y-101614342D02*
X51160714Y-101709580D01*
X51160714Y-101709580D02*
X51208333Y-101757200D01*
X51208333Y-101757200D02*
X51303571Y-101804819D01*
X51303571Y-101804819D02*
X51494047Y-101804819D01*
X51494047Y-101804819D02*
X51589285Y-101757200D01*
X51589285Y-101757200D02*
X51636904Y-101709580D01*
X51636904Y-101709580D02*
X51684523Y-101614342D01*
X51684523Y-101614342D02*
X51684523Y-100804819D01*
X52303571Y-101233390D02*
X52208333Y-101185771D01*
X52208333Y-101185771D02*
X52160714Y-101138152D01*
X52160714Y-101138152D02*
X52113095Y-101042914D01*
X52113095Y-101042914D02*
X52113095Y-100995295D01*
X52113095Y-100995295D02*
X52160714Y-100900057D01*
X52160714Y-100900057D02*
X52208333Y-100852438D01*
X52208333Y-100852438D02*
X52303571Y-100804819D01*
X52303571Y-100804819D02*
X52494047Y-100804819D01*
X52494047Y-100804819D02*
X52589285Y-100852438D01*
X52589285Y-100852438D02*
X52636904Y-100900057D01*
X52636904Y-100900057D02*
X52684523Y-100995295D01*
X52684523Y-100995295D02*
X52684523Y-101042914D01*
X52684523Y-101042914D02*
X52636904Y-101138152D01*
X52636904Y-101138152D02*
X52589285Y-101185771D01*
X52589285Y-101185771D02*
X52494047Y-101233390D01*
X52494047Y-101233390D02*
X52303571Y-101233390D01*
X52303571Y-101233390D02*
X52208333Y-101281009D01*
X52208333Y-101281009D02*
X52160714Y-101328628D01*
X52160714Y-101328628D02*
X52113095Y-101423866D01*
X52113095Y-101423866D02*
X52113095Y-101614342D01*
X52113095Y-101614342D02*
X52160714Y-101709580D01*
X52160714Y-101709580D02*
X52208333Y-101757200D01*
X52208333Y-101757200D02*
X52303571Y-101804819D01*
X52303571Y-101804819D02*
X52494047Y-101804819D01*
X52494047Y-101804819D02*
X52589285Y-101757200D01*
X52589285Y-101757200D02*
X52636904Y-101709580D01*
X52636904Y-101709580D02*
X52684523Y-101614342D01*
X52684523Y-101614342D02*
X52684523Y-101423866D01*
X52684523Y-101423866D02*
X52636904Y-101328628D01*
X52636904Y-101328628D02*
X52589285Y-101281009D01*
X52589285Y-101281009D02*
X52494047Y-101233390D01*
X127666666Y-128799819D02*
X127666666Y-129514104D01*
X127666666Y-129514104D02*
X127619047Y-129656961D01*
X127619047Y-129656961D02*
X127523809Y-129752200D01*
X127523809Y-129752200D02*
X127380952Y-129799819D01*
X127380952Y-129799819D02*
X127285714Y-129799819D01*
X128190476Y-129799819D02*
X128380952Y-129799819D01*
X128380952Y-129799819D02*
X128476190Y-129752200D01*
X128476190Y-129752200D02*
X128523809Y-129704580D01*
X128523809Y-129704580D02*
X128619047Y-129561723D01*
X128619047Y-129561723D02*
X128666666Y-129371247D01*
X128666666Y-129371247D02*
X128666666Y-128990295D01*
X128666666Y-128990295D02*
X128619047Y-128895057D01*
X128619047Y-128895057D02*
X128571428Y-128847438D01*
X128571428Y-128847438D02*
X128476190Y-128799819D01*
X128476190Y-128799819D02*
X128285714Y-128799819D01*
X128285714Y-128799819D02*
X128190476Y-128847438D01*
X128190476Y-128847438D02*
X128142857Y-128895057D01*
X128142857Y-128895057D02*
X128095238Y-128990295D01*
X128095238Y-128990295D02*
X128095238Y-129228390D01*
X128095238Y-129228390D02*
X128142857Y-129323628D01*
X128142857Y-129323628D02*
X128190476Y-129371247D01*
X128190476Y-129371247D02*
X128285714Y-129418866D01*
X128285714Y-129418866D02*
X128476190Y-129418866D01*
X128476190Y-129418866D02*
X128571428Y-129371247D01*
X128571428Y-129371247D02*
X128619047Y-129323628D01*
X128619047Y-129323628D02*
X128666666Y-129228390D01*
X138832033Y-107859580D02*
X138784414Y-107907200D01*
X138784414Y-107907200D02*
X138641557Y-107954819D01*
X138641557Y-107954819D02*
X138546319Y-107954819D01*
X138546319Y-107954819D02*
X138403462Y-107907200D01*
X138403462Y-107907200D02*
X138308224Y-107811961D01*
X138308224Y-107811961D02*
X138260605Y-107716723D01*
X138260605Y-107716723D02*
X138212986Y-107526247D01*
X138212986Y-107526247D02*
X138212986Y-107383390D01*
X138212986Y-107383390D02*
X138260605Y-107192914D01*
X138260605Y-107192914D02*
X138308224Y-107097676D01*
X138308224Y-107097676D02*
X138403462Y-107002438D01*
X138403462Y-107002438D02*
X138546319Y-106954819D01*
X138546319Y-106954819D02*
X138641557Y-106954819D01*
X138641557Y-106954819D02*
X138784414Y-107002438D01*
X138784414Y-107002438D02*
X138832033Y-107050057D01*
X139212986Y-107050057D02*
X139260605Y-107002438D01*
X139260605Y-107002438D02*
X139355843Y-106954819D01*
X139355843Y-106954819D02*
X139593938Y-106954819D01*
X139593938Y-106954819D02*
X139689176Y-107002438D01*
X139689176Y-107002438D02*
X139736795Y-107050057D01*
X139736795Y-107050057D02*
X139784414Y-107145295D01*
X139784414Y-107145295D02*
X139784414Y-107240533D01*
X139784414Y-107240533D02*
X139736795Y-107383390D01*
X139736795Y-107383390D02*
X139165367Y-107954819D01*
X139165367Y-107954819D02*
X139784414Y-107954819D01*
X83761905Y-104054819D02*
X83761905Y-103054819D01*
X83761905Y-103054819D02*
X84000000Y-103054819D01*
X84000000Y-103054819D02*
X84142857Y-103102438D01*
X84142857Y-103102438D02*
X84238095Y-103197676D01*
X84238095Y-103197676D02*
X84285714Y-103292914D01*
X84285714Y-103292914D02*
X84333333Y-103483390D01*
X84333333Y-103483390D02*
X84333333Y-103626247D01*
X84333333Y-103626247D02*
X84285714Y-103816723D01*
X84285714Y-103816723D02*
X84238095Y-103911961D01*
X84238095Y-103911961D02*
X84142857Y-104007200D01*
X84142857Y-104007200D02*
X84000000Y-104054819D01*
X84000000Y-104054819D02*
X83761905Y-104054819D01*
X85190476Y-103054819D02*
X85000000Y-103054819D01*
X85000000Y-103054819D02*
X84904762Y-103102438D01*
X84904762Y-103102438D02*
X84857143Y-103150057D01*
X84857143Y-103150057D02*
X84761905Y-103292914D01*
X84761905Y-103292914D02*
X84714286Y-103483390D01*
X84714286Y-103483390D02*
X84714286Y-103864342D01*
X84714286Y-103864342D02*
X84761905Y-103959580D01*
X84761905Y-103959580D02*
X84809524Y-104007200D01*
X84809524Y-104007200D02*
X84904762Y-104054819D01*
X84904762Y-104054819D02*
X85095238Y-104054819D01*
X85095238Y-104054819D02*
X85190476Y-104007200D01*
X85190476Y-104007200D02*
X85238095Y-103959580D01*
X85238095Y-103959580D02*
X85285714Y-103864342D01*
X85285714Y-103864342D02*
X85285714Y-103626247D01*
X85285714Y-103626247D02*
X85238095Y-103531009D01*
X85238095Y-103531009D02*
X85190476Y-103483390D01*
X85190476Y-103483390D02*
X85095238Y-103435771D01*
X85095238Y-103435771D02*
X84904762Y-103435771D01*
X84904762Y-103435771D02*
X84809524Y-103483390D01*
X84809524Y-103483390D02*
X84761905Y-103531009D01*
X84761905Y-103531009D02*
X84714286Y-103626247D01*
X65358342Y-101109580D02*
X65310723Y-101157200D01*
X65310723Y-101157200D02*
X65167866Y-101204819D01*
X65167866Y-101204819D02*
X65072628Y-101204819D01*
X65072628Y-101204819D02*
X64929771Y-101157200D01*
X64929771Y-101157200D02*
X64834533Y-101061961D01*
X64834533Y-101061961D02*
X64786914Y-100966723D01*
X64786914Y-100966723D02*
X64739295Y-100776247D01*
X64739295Y-100776247D02*
X64739295Y-100633390D01*
X64739295Y-100633390D02*
X64786914Y-100442914D01*
X64786914Y-100442914D02*
X64834533Y-100347676D01*
X64834533Y-100347676D02*
X64929771Y-100252438D01*
X64929771Y-100252438D02*
X65072628Y-100204819D01*
X65072628Y-100204819D02*
X65167866Y-100204819D01*
X65167866Y-100204819D02*
X65310723Y-100252438D01*
X65310723Y-100252438D02*
X65358342Y-100300057D01*
X65739295Y-100300057D02*
X65786914Y-100252438D01*
X65786914Y-100252438D02*
X65882152Y-100204819D01*
X65882152Y-100204819D02*
X66120247Y-100204819D01*
X66120247Y-100204819D02*
X66215485Y-100252438D01*
X66215485Y-100252438D02*
X66263104Y-100300057D01*
X66263104Y-100300057D02*
X66310723Y-100395295D01*
X66310723Y-100395295D02*
X66310723Y-100490533D01*
X66310723Y-100490533D02*
X66263104Y-100633390D01*
X66263104Y-100633390D02*
X65691676Y-101204819D01*
X65691676Y-101204819D02*
X66310723Y-101204819D01*
X66691676Y-100300057D02*
X66739295Y-100252438D01*
X66739295Y-100252438D02*
X66834533Y-100204819D01*
X66834533Y-100204819D02*
X67072628Y-100204819D01*
X67072628Y-100204819D02*
X67167866Y-100252438D01*
X67167866Y-100252438D02*
X67215485Y-100300057D01*
X67215485Y-100300057D02*
X67263104Y-100395295D01*
X67263104Y-100395295D02*
X67263104Y-100490533D01*
X67263104Y-100490533D02*
X67215485Y-100633390D01*
X67215485Y-100633390D02*
X66644057Y-101204819D01*
X66644057Y-101204819D02*
X67263104Y-101204819D01*
X139666666Y-123431009D02*
X139333333Y-123431009D01*
X139333333Y-123954819D02*
X139333333Y-122954819D01*
X139333333Y-122954819D02*
X139809523Y-122954819D01*
X140142857Y-123050057D02*
X140190476Y-123002438D01*
X140190476Y-123002438D02*
X140285714Y-122954819D01*
X140285714Y-122954819D02*
X140523809Y-122954819D01*
X140523809Y-122954819D02*
X140619047Y-123002438D01*
X140619047Y-123002438D02*
X140666666Y-123050057D01*
X140666666Y-123050057D02*
X140714285Y-123145295D01*
X140714285Y-123145295D02*
X140714285Y-123240533D01*
X140714285Y-123240533D02*
X140666666Y-123383390D01*
X140666666Y-123383390D02*
X140095238Y-123954819D01*
X140095238Y-123954819D02*
X140714285Y-123954819D01*
X34238095Y-66954819D02*
X34238095Y-67764342D01*
X34238095Y-67764342D02*
X34285714Y-67859580D01*
X34285714Y-67859580D02*
X34333333Y-67907200D01*
X34333333Y-67907200D02*
X34428571Y-67954819D01*
X34428571Y-67954819D02*
X34619047Y-67954819D01*
X34619047Y-67954819D02*
X34714285Y-67907200D01*
X34714285Y-67907200D02*
X34761904Y-67859580D01*
X34761904Y-67859580D02*
X34809523Y-67764342D01*
X34809523Y-67764342D02*
X34809523Y-66954819D01*
X35714285Y-66954819D02*
X35523809Y-66954819D01*
X35523809Y-66954819D02*
X35428571Y-67002438D01*
X35428571Y-67002438D02*
X35380952Y-67050057D01*
X35380952Y-67050057D02*
X35285714Y-67192914D01*
X35285714Y-67192914D02*
X35238095Y-67383390D01*
X35238095Y-67383390D02*
X35238095Y-67764342D01*
X35238095Y-67764342D02*
X35285714Y-67859580D01*
X35285714Y-67859580D02*
X35333333Y-67907200D01*
X35333333Y-67907200D02*
X35428571Y-67954819D01*
X35428571Y-67954819D02*
X35619047Y-67954819D01*
X35619047Y-67954819D02*
X35714285Y-67907200D01*
X35714285Y-67907200D02*
X35761904Y-67859580D01*
X35761904Y-67859580D02*
X35809523Y-67764342D01*
X35809523Y-67764342D02*
X35809523Y-67526247D01*
X35809523Y-67526247D02*
X35761904Y-67431009D01*
X35761904Y-67431009D02*
X35714285Y-67383390D01*
X35714285Y-67383390D02*
X35619047Y-67335771D01*
X35619047Y-67335771D02*
X35428571Y-67335771D01*
X35428571Y-67335771D02*
X35333333Y-67383390D01*
X35333333Y-67383390D02*
X35285714Y-67431009D01*
X35285714Y-67431009D02*
X35238095Y-67526247D01*
X96184819Y-132809523D02*
X96899104Y-132809523D01*
X96899104Y-132809523D02*
X97041961Y-132857142D01*
X97041961Y-132857142D02*
X97137200Y-132952380D01*
X97137200Y-132952380D02*
X97184819Y-133095237D01*
X97184819Y-133095237D02*
X97184819Y-133190475D01*
X97184819Y-131809523D02*
X97184819Y-132380951D01*
X97184819Y-132095237D02*
X96184819Y-132095237D01*
X96184819Y-132095237D02*
X96327676Y-132190475D01*
X96327676Y-132190475D02*
X96422914Y-132285713D01*
X96422914Y-132285713D02*
X96470533Y-132380951D01*
X96184819Y-131476189D02*
X96184819Y-130857142D01*
X96184819Y-130857142D02*
X96565771Y-131190475D01*
X96565771Y-131190475D02*
X96565771Y-131047618D01*
X96565771Y-131047618D02*
X96613390Y-130952380D01*
X96613390Y-130952380D02*
X96661009Y-130904761D01*
X96661009Y-130904761D02*
X96756247Y-130857142D01*
X96756247Y-130857142D02*
X96994342Y-130857142D01*
X96994342Y-130857142D02*
X97089580Y-130904761D01*
X97089580Y-130904761D02*
X97137200Y-130952380D01*
X97137200Y-130952380D02*
X97184819Y-131047618D01*
X97184819Y-131047618D02*
X97184819Y-131333332D01*
X97184819Y-131333332D02*
X97137200Y-131428570D01*
X97137200Y-131428570D02*
X97089580Y-131476189D01*
X63833333Y-30084819D02*
X63500000Y-29608628D01*
X63261905Y-30084819D02*
X63261905Y-29084819D01*
X63261905Y-29084819D02*
X63642857Y-29084819D01*
X63642857Y-29084819D02*
X63738095Y-29132438D01*
X63738095Y-29132438D02*
X63785714Y-29180057D01*
X63785714Y-29180057D02*
X63833333Y-29275295D01*
X63833333Y-29275295D02*
X63833333Y-29418152D01*
X63833333Y-29418152D02*
X63785714Y-29513390D01*
X63785714Y-29513390D02*
X63738095Y-29561009D01*
X63738095Y-29561009D02*
X63642857Y-29608628D01*
X63642857Y-29608628D02*
X63261905Y-29608628D01*
X64214286Y-29180057D02*
X64261905Y-29132438D01*
X64261905Y-29132438D02*
X64357143Y-29084819D01*
X64357143Y-29084819D02*
X64595238Y-29084819D01*
X64595238Y-29084819D02*
X64690476Y-29132438D01*
X64690476Y-29132438D02*
X64738095Y-29180057D01*
X64738095Y-29180057D02*
X64785714Y-29275295D01*
X64785714Y-29275295D02*
X64785714Y-29370533D01*
X64785714Y-29370533D02*
X64738095Y-29513390D01*
X64738095Y-29513390D02*
X64166667Y-30084819D01*
X64166667Y-30084819D02*
X64785714Y-30084819D01*
X69261905Y-63984819D02*
X69261905Y-62984819D01*
X69261905Y-62984819D02*
X69500000Y-62984819D01*
X69500000Y-62984819D02*
X69642857Y-63032438D01*
X69642857Y-63032438D02*
X69738095Y-63127676D01*
X69738095Y-63127676D02*
X69785714Y-63222914D01*
X69785714Y-63222914D02*
X69833333Y-63413390D01*
X69833333Y-63413390D02*
X69833333Y-63556247D01*
X69833333Y-63556247D02*
X69785714Y-63746723D01*
X69785714Y-63746723D02*
X69738095Y-63841961D01*
X69738095Y-63841961D02*
X69642857Y-63937200D01*
X69642857Y-63937200D02*
X69500000Y-63984819D01*
X69500000Y-63984819D02*
X69261905Y-63984819D01*
X70690476Y-63318152D02*
X70690476Y-63984819D01*
X70452381Y-62937200D02*
X70214286Y-63651485D01*
X70214286Y-63651485D02*
X70833333Y-63651485D01*
X64658095Y-64354819D02*
X64658095Y-63354819D01*
X65229523Y-64354819D02*
X64800952Y-63783390D01*
X65229523Y-63354819D02*
X64658095Y-63926247D01*
X150666666Y-23379819D02*
X150666666Y-24094104D01*
X150666666Y-24094104D02*
X150619047Y-24236961D01*
X150619047Y-24236961D02*
X150523809Y-24332200D01*
X150523809Y-24332200D02*
X150380952Y-24379819D01*
X150380952Y-24379819D02*
X150285714Y-24379819D01*
X151285714Y-23808390D02*
X151190476Y-23760771D01*
X151190476Y-23760771D02*
X151142857Y-23713152D01*
X151142857Y-23713152D02*
X151095238Y-23617914D01*
X151095238Y-23617914D02*
X151095238Y-23570295D01*
X151095238Y-23570295D02*
X151142857Y-23475057D01*
X151142857Y-23475057D02*
X151190476Y-23427438D01*
X151190476Y-23427438D02*
X151285714Y-23379819D01*
X151285714Y-23379819D02*
X151476190Y-23379819D01*
X151476190Y-23379819D02*
X151571428Y-23427438D01*
X151571428Y-23427438D02*
X151619047Y-23475057D01*
X151619047Y-23475057D02*
X151666666Y-23570295D01*
X151666666Y-23570295D02*
X151666666Y-23617914D01*
X151666666Y-23617914D02*
X151619047Y-23713152D01*
X151619047Y-23713152D02*
X151571428Y-23760771D01*
X151571428Y-23760771D02*
X151476190Y-23808390D01*
X151476190Y-23808390D02*
X151285714Y-23808390D01*
X151285714Y-23808390D02*
X151190476Y-23856009D01*
X151190476Y-23856009D02*
X151142857Y-23903628D01*
X151142857Y-23903628D02*
X151095238Y-23998866D01*
X151095238Y-23998866D02*
X151095238Y-24189342D01*
X151095238Y-24189342D02*
X151142857Y-24284580D01*
X151142857Y-24284580D02*
X151190476Y-24332200D01*
X151190476Y-24332200D02*
X151285714Y-24379819D01*
X151285714Y-24379819D02*
X151476190Y-24379819D01*
X151476190Y-24379819D02*
X151571428Y-24332200D01*
X151571428Y-24332200D02*
X151619047Y-24284580D01*
X151619047Y-24284580D02*
X151666666Y-24189342D01*
X151666666Y-24189342D02*
X151666666Y-23998866D01*
X151666666Y-23998866D02*
X151619047Y-23903628D01*
X151619047Y-23903628D02*
X151571428Y-23856009D01*
X151571428Y-23856009D02*
X151476190Y-23808390D01*
X24238095Y-21304819D02*
X24238095Y-20304819D01*
X24238095Y-20781009D02*
X24809523Y-20781009D01*
X24809523Y-21304819D02*
X24809523Y-20304819D01*
X25809523Y-21304819D02*
X25238095Y-21304819D01*
X25523809Y-21304819D02*
X25523809Y-20304819D01*
X25523809Y-20304819D02*
X25428571Y-20447676D01*
X25428571Y-20447676D02*
X25333333Y-20542914D01*
X25333333Y-20542914D02*
X25238095Y-20590533D01*
X154958380Y-115166666D02*
X155006000Y-115214285D01*
X155006000Y-115214285D02*
X155053619Y-115357142D01*
X155053619Y-115357142D02*
X155053619Y-115452380D01*
X155053619Y-115452380D02*
X155006000Y-115595237D01*
X155006000Y-115595237D02*
X154910761Y-115690475D01*
X154910761Y-115690475D02*
X154815523Y-115738094D01*
X154815523Y-115738094D02*
X154625047Y-115785713D01*
X154625047Y-115785713D02*
X154482190Y-115785713D01*
X154482190Y-115785713D02*
X154291714Y-115738094D01*
X154291714Y-115738094D02*
X154196476Y-115690475D01*
X154196476Y-115690475D02*
X154101238Y-115595237D01*
X154101238Y-115595237D02*
X154053619Y-115452380D01*
X154053619Y-115452380D02*
X154053619Y-115357142D01*
X154053619Y-115357142D02*
X154101238Y-115214285D01*
X154101238Y-115214285D02*
X154148857Y-115166666D01*
X154386952Y-114309523D02*
X155053619Y-114309523D01*
X154006000Y-114547618D02*
X154720285Y-114785713D01*
X154720285Y-114785713D02*
X154720285Y-114166666D01*
X63357142Y-34584819D02*
X63023809Y-34108628D01*
X62785714Y-34584819D02*
X62785714Y-33584819D01*
X62785714Y-33584819D02*
X63166666Y-33584819D01*
X63166666Y-33584819D02*
X63261904Y-33632438D01*
X63261904Y-33632438D02*
X63309523Y-33680057D01*
X63309523Y-33680057D02*
X63357142Y-33775295D01*
X63357142Y-33775295D02*
X63357142Y-33918152D01*
X63357142Y-33918152D02*
X63309523Y-34013390D01*
X63309523Y-34013390D02*
X63261904Y-34061009D01*
X63261904Y-34061009D02*
X63166666Y-34108628D01*
X63166666Y-34108628D02*
X62785714Y-34108628D01*
X64309523Y-34584819D02*
X63738095Y-34584819D01*
X64023809Y-34584819D02*
X64023809Y-33584819D01*
X64023809Y-33584819D02*
X63928571Y-33727676D01*
X63928571Y-33727676D02*
X63833333Y-33822914D01*
X63833333Y-33822914D02*
X63738095Y-33870533D01*
X64642857Y-33584819D02*
X65261904Y-33584819D01*
X65261904Y-33584819D02*
X64928571Y-33965771D01*
X64928571Y-33965771D02*
X65071428Y-33965771D01*
X65071428Y-33965771D02*
X65166666Y-34013390D01*
X65166666Y-34013390D02*
X65214285Y-34061009D01*
X65214285Y-34061009D02*
X65261904Y-34156247D01*
X65261904Y-34156247D02*
X65261904Y-34394342D01*
X65261904Y-34394342D02*
X65214285Y-34489580D01*
X65214285Y-34489580D02*
X65166666Y-34537200D01*
X65166666Y-34537200D02*
X65071428Y-34584819D01*
X65071428Y-34584819D02*
X64785714Y-34584819D01*
X64785714Y-34584819D02*
X64690476Y-34537200D01*
X64690476Y-34537200D02*
X64642857Y-34489580D01*
X63859580Y-117642857D02*
X63907200Y-117690476D01*
X63907200Y-117690476D02*
X63954819Y-117833333D01*
X63954819Y-117833333D02*
X63954819Y-117928571D01*
X63954819Y-117928571D02*
X63907200Y-118071428D01*
X63907200Y-118071428D02*
X63811961Y-118166666D01*
X63811961Y-118166666D02*
X63716723Y-118214285D01*
X63716723Y-118214285D02*
X63526247Y-118261904D01*
X63526247Y-118261904D02*
X63383390Y-118261904D01*
X63383390Y-118261904D02*
X63192914Y-118214285D01*
X63192914Y-118214285D02*
X63097676Y-118166666D01*
X63097676Y-118166666D02*
X63002438Y-118071428D01*
X63002438Y-118071428D02*
X62954819Y-117928571D01*
X62954819Y-117928571D02*
X62954819Y-117833333D01*
X62954819Y-117833333D02*
X63002438Y-117690476D01*
X63002438Y-117690476D02*
X63050057Y-117642857D01*
X63050057Y-117261904D02*
X63002438Y-117214285D01*
X63002438Y-117214285D02*
X62954819Y-117119047D01*
X62954819Y-117119047D02*
X62954819Y-116880952D01*
X62954819Y-116880952D02*
X63002438Y-116785714D01*
X63002438Y-116785714D02*
X63050057Y-116738095D01*
X63050057Y-116738095D02*
X63145295Y-116690476D01*
X63145295Y-116690476D02*
X63240533Y-116690476D01*
X63240533Y-116690476D02*
X63383390Y-116738095D01*
X63383390Y-116738095D02*
X63954819Y-117309523D01*
X63954819Y-117309523D02*
X63954819Y-116690476D01*
X62954819Y-116357142D02*
X62954819Y-115738095D01*
X62954819Y-115738095D02*
X63335771Y-116071428D01*
X63335771Y-116071428D02*
X63335771Y-115928571D01*
X63335771Y-115928571D02*
X63383390Y-115833333D01*
X63383390Y-115833333D02*
X63431009Y-115785714D01*
X63431009Y-115785714D02*
X63526247Y-115738095D01*
X63526247Y-115738095D02*
X63764342Y-115738095D01*
X63764342Y-115738095D02*
X63859580Y-115785714D01*
X63859580Y-115785714D02*
X63907200Y-115833333D01*
X63907200Y-115833333D02*
X63954819Y-115928571D01*
X63954819Y-115928571D02*
X63954819Y-116214285D01*
X63954819Y-116214285D02*
X63907200Y-116309523D01*
X63907200Y-116309523D02*
X63859580Y-116357142D01*
X89650180Y-82974279D02*
X88840657Y-82974279D01*
X88840657Y-82974279D02*
X88745419Y-83021898D01*
X88745419Y-83021898D02*
X88697800Y-83069517D01*
X88697800Y-83069517D02*
X88650180Y-83164755D01*
X88650180Y-83164755D02*
X88650180Y-83355231D01*
X88650180Y-83355231D02*
X88697800Y-83450469D01*
X88697800Y-83450469D02*
X88745419Y-83498088D01*
X88745419Y-83498088D02*
X88840657Y-83545707D01*
X88840657Y-83545707D02*
X89650180Y-83545707D01*
X88650180Y-84545707D02*
X88650180Y-83974279D01*
X88650180Y-84259993D02*
X89650180Y-84259993D01*
X89650180Y-84259993D02*
X89507323Y-84164755D01*
X89507323Y-84164755D02*
X89412085Y-84069517D01*
X89412085Y-84069517D02*
X89364466Y-83974279D01*
X78859580Y-106166666D02*
X78907200Y-106214285D01*
X78907200Y-106214285D02*
X78954819Y-106357142D01*
X78954819Y-106357142D02*
X78954819Y-106452380D01*
X78954819Y-106452380D02*
X78907200Y-106595237D01*
X78907200Y-106595237D02*
X78811961Y-106690475D01*
X78811961Y-106690475D02*
X78716723Y-106738094D01*
X78716723Y-106738094D02*
X78526247Y-106785713D01*
X78526247Y-106785713D02*
X78383390Y-106785713D01*
X78383390Y-106785713D02*
X78192914Y-106738094D01*
X78192914Y-106738094D02*
X78097676Y-106690475D01*
X78097676Y-106690475D02*
X78002438Y-106595237D01*
X78002438Y-106595237D02*
X77954819Y-106452380D01*
X77954819Y-106452380D02*
X77954819Y-106357142D01*
X77954819Y-106357142D02*
X78002438Y-106214285D01*
X78002438Y-106214285D02*
X78050057Y-106166666D01*
X77954819Y-105261904D02*
X77954819Y-105738094D01*
X77954819Y-105738094D02*
X78431009Y-105785713D01*
X78431009Y-105785713D02*
X78383390Y-105738094D01*
X78383390Y-105738094D02*
X78335771Y-105642856D01*
X78335771Y-105642856D02*
X78335771Y-105404761D01*
X78335771Y-105404761D02*
X78383390Y-105309523D01*
X78383390Y-105309523D02*
X78431009Y-105261904D01*
X78431009Y-105261904D02*
X78526247Y-105214285D01*
X78526247Y-105214285D02*
X78764342Y-105214285D01*
X78764342Y-105214285D02*
X78859580Y-105261904D01*
X78859580Y-105261904D02*
X78907200Y-105309523D01*
X78907200Y-105309523D02*
X78954819Y-105404761D01*
X78954819Y-105404761D02*
X78954819Y-105642856D01*
X78954819Y-105642856D02*
X78907200Y-105738094D01*
X78907200Y-105738094D02*
X78859580Y-105785713D01*
X154785714Y-50054819D02*
X154785714Y-49054819D01*
X154785714Y-49054819D02*
X155023809Y-49054819D01*
X155023809Y-49054819D02*
X155166666Y-49102438D01*
X155166666Y-49102438D02*
X155261904Y-49197676D01*
X155261904Y-49197676D02*
X155309523Y-49292914D01*
X155309523Y-49292914D02*
X155357142Y-49483390D01*
X155357142Y-49483390D02*
X155357142Y-49626247D01*
X155357142Y-49626247D02*
X155309523Y-49816723D01*
X155309523Y-49816723D02*
X155261904Y-49911961D01*
X155261904Y-49911961D02*
X155166666Y-50007200D01*
X155166666Y-50007200D02*
X155023809Y-50054819D01*
X155023809Y-50054819D02*
X154785714Y-50054819D01*
X156309523Y-50054819D02*
X155738095Y-50054819D01*
X156023809Y-50054819D02*
X156023809Y-49054819D01*
X156023809Y-49054819D02*
X155928571Y-49197676D01*
X155928571Y-49197676D02*
X155833333Y-49292914D01*
X155833333Y-49292914D02*
X155738095Y-49340533D01*
X157261904Y-50054819D02*
X156690476Y-50054819D01*
X156976190Y-50054819D02*
X156976190Y-49054819D01*
X156976190Y-49054819D02*
X156880952Y-49197676D01*
X156880952Y-49197676D02*
X156785714Y-49292914D01*
X156785714Y-49292914D02*
X156690476Y-49340533D01*
X108666666Y-23379819D02*
X108666666Y-24094104D01*
X108666666Y-24094104D02*
X108619047Y-24236961D01*
X108619047Y-24236961D02*
X108523809Y-24332200D01*
X108523809Y-24332200D02*
X108380952Y-24379819D01*
X108380952Y-24379819D02*
X108285714Y-24379819D01*
X109619047Y-23379819D02*
X109142857Y-23379819D01*
X109142857Y-23379819D02*
X109095238Y-23856009D01*
X109095238Y-23856009D02*
X109142857Y-23808390D01*
X109142857Y-23808390D02*
X109238095Y-23760771D01*
X109238095Y-23760771D02*
X109476190Y-23760771D01*
X109476190Y-23760771D02*
X109571428Y-23808390D01*
X109571428Y-23808390D02*
X109619047Y-23856009D01*
X109619047Y-23856009D02*
X109666666Y-23951247D01*
X109666666Y-23951247D02*
X109666666Y-24189342D01*
X109666666Y-24189342D02*
X109619047Y-24284580D01*
X109619047Y-24284580D02*
X109571428Y-24332200D01*
X109571428Y-24332200D02*
X109476190Y-24379819D01*
X109476190Y-24379819D02*
X109238095Y-24379819D01*
X109238095Y-24379819D02*
X109142857Y-24332200D01*
X109142857Y-24332200D02*
X109095238Y-24284580D01*
X37666666Y-26561009D02*
X37333333Y-26561009D01*
X37333333Y-27084819D02*
X37333333Y-26084819D01*
X37333333Y-26084819D02*
X37809523Y-26084819D01*
X38714285Y-27084819D02*
X38142857Y-27084819D01*
X38428571Y-27084819D02*
X38428571Y-26084819D01*
X38428571Y-26084819D02*
X38333333Y-26227676D01*
X38333333Y-26227676D02*
X38238095Y-26322914D01*
X38238095Y-26322914D02*
X38142857Y-26370533D01*
X146958380Y-115166666D02*
X147006000Y-115214285D01*
X147006000Y-115214285D02*
X147053619Y-115357142D01*
X147053619Y-115357142D02*
X147053619Y-115452380D01*
X147053619Y-115452380D02*
X147006000Y-115595237D01*
X147006000Y-115595237D02*
X146910761Y-115690475D01*
X146910761Y-115690475D02*
X146815523Y-115738094D01*
X146815523Y-115738094D02*
X146625047Y-115785713D01*
X146625047Y-115785713D02*
X146482190Y-115785713D01*
X146482190Y-115785713D02*
X146291714Y-115738094D01*
X146291714Y-115738094D02*
X146196476Y-115690475D01*
X146196476Y-115690475D02*
X146101238Y-115595237D01*
X146101238Y-115595237D02*
X146053619Y-115452380D01*
X146053619Y-115452380D02*
X146053619Y-115357142D01*
X146053619Y-115357142D02*
X146101238Y-115214285D01*
X146101238Y-115214285D02*
X146148857Y-115166666D01*
X146053619Y-114833332D02*
X146053619Y-114214285D01*
X146053619Y-114214285D02*
X146434571Y-114547618D01*
X146434571Y-114547618D02*
X146434571Y-114404761D01*
X146434571Y-114404761D02*
X146482190Y-114309523D01*
X146482190Y-114309523D02*
X146529809Y-114261904D01*
X146529809Y-114261904D02*
X146625047Y-114214285D01*
X146625047Y-114214285D02*
X146863142Y-114214285D01*
X146863142Y-114214285D02*
X146958380Y-114261904D01*
X146958380Y-114261904D02*
X147006000Y-114309523D01*
X147006000Y-114309523D02*
X147053619Y-114404761D01*
X147053619Y-114404761D02*
X147053619Y-114690475D01*
X147053619Y-114690475D02*
X147006000Y-114785713D01*
X147006000Y-114785713D02*
X146958380Y-114833332D01*
X71859580Y-108642857D02*
X71907200Y-108690476D01*
X71907200Y-108690476D02*
X71954819Y-108833333D01*
X71954819Y-108833333D02*
X71954819Y-108928571D01*
X71954819Y-108928571D02*
X71907200Y-109071428D01*
X71907200Y-109071428D02*
X71811961Y-109166666D01*
X71811961Y-109166666D02*
X71716723Y-109214285D01*
X71716723Y-109214285D02*
X71526247Y-109261904D01*
X71526247Y-109261904D02*
X71383390Y-109261904D01*
X71383390Y-109261904D02*
X71192914Y-109214285D01*
X71192914Y-109214285D02*
X71097676Y-109166666D01*
X71097676Y-109166666D02*
X71002438Y-109071428D01*
X71002438Y-109071428D02*
X70954819Y-108928571D01*
X70954819Y-108928571D02*
X70954819Y-108833333D01*
X70954819Y-108833333D02*
X71002438Y-108690476D01*
X71002438Y-108690476D02*
X71050057Y-108642857D01*
X71954819Y-107690476D02*
X71954819Y-108261904D01*
X71954819Y-107976190D02*
X70954819Y-107976190D01*
X70954819Y-107976190D02*
X71097676Y-108071428D01*
X71097676Y-108071428D02*
X71192914Y-108166666D01*
X71192914Y-108166666D02*
X71240533Y-108261904D01*
X71050057Y-107309523D02*
X71002438Y-107261904D01*
X71002438Y-107261904D02*
X70954819Y-107166666D01*
X70954819Y-107166666D02*
X70954819Y-106928571D01*
X70954819Y-106928571D02*
X71002438Y-106833333D01*
X71002438Y-106833333D02*
X71050057Y-106785714D01*
X71050057Y-106785714D02*
X71145295Y-106738095D01*
X71145295Y-106738095D02*
X71240533Y-106738095D01*
X71240533Y-106738095D02*
X71383390Y-106785714D01*
X71383390Y-106785714D02*
X71954819Y-107357142D01*
X71954819Y-107357142D02*
X71954819Y-106738095D01*
X98357142Y-118084819D02*
X98023809Y-117608628D01*
X97785714Y-118084819D02*
X97785714Y-117084819D01*
X97785714Y-117084819D02*
X98166666Y-117084819D01*
X98166666Y-117084819D02*
X98261904Y-117132438D01*
X98261904Y-117132438D02*
X98309523Y-117180057D01*
X98309523Y-117180057D02*
X98357142Y-117275295D01*
X98357142Y-117275295D02*
X98357142Y-117418152D01*
X98357142Y-117418152D02*
X98309523Y-117513390D01*
X98309523Y-117513390D02*
X98261904Y-117561009D01*
X98261904Y-117561009D02*
X98166666Y-117608628D01*
X98166666Y-117608628D02*
X97785714Y-117608628D01*
X98690476Y-117084819D02*
X99309523Y-117084819D01*
X99309523Y-117084819D02*
X98976190Y-117465771D01*
X98976190Y-117465771D02*
X99119047Y-117465771D01*
X99119047Y-117465771D02*
X99214285Y-117513390D01*
X99214285Y-117513390D02*
X99261904Y-117561009D01*
X99261904Y-117561009D02*
X99309523Y-117656247D01*
X99309523Y-117656247D02*
X99309523Y-117894342D01*
X99309523Y-117894342D02*
X99261904Y-117989580D01*
X99261904Y-117989580D02*
X99214285Y-118037200D01*
X99214285Y-118037200D02*
X99119047Y-118084819D01*
X99119047Y-118084819D02*
X98833333Y-118084819D01*
X98833333Y-118084819D02*
X98738095Y-118037200D01*
X98738095Y-118037200D02*
X98690476Y-117989580D01*
X99880952Y-117513390D02*
X99785714Y-117465771D01*
X99785714Y-117465771D02*
X99738095Y-117418152D01*
X99738095Y-117418152D02*
X99690476Y-117322914D01*
X99690476Y-117322914D02*
X99690476Y-117275295D01*
X99690476Y-117275295D02*
X99738095Y-117180057D01*
X99738095Y-117180057D02*
X99785714Y-117132438D01*
X99785714Y-117132438D02*
X99880952Y-117084819D01*
X99880952Y-117084819D02*
X100071428Y-117084819D01*
X100071428Y-117084819D02*
X100166666Y-117132438D01*
X100166666Y-117132438D02*
X100214285Y-117180057D01*
X100214285Y-117180057D02*
X100261904Y-117275295D01*
X100261904Y-117275295D02*
X100261904Y-117322914D01*
X100261904Y-117322914D02*
X100214285Y-117418152D01*
X100214285Y-117418152D02*
X100166666Y-117465771D01*
X100166666Y-117465771D02*
X100071428Y-117513390D01*
X100071428Y-117513390D02*
X99880952Y-117513390D01*
X99880952Y-117513390D02*
X99785714Y-117561009D01*
X99785714Y-117561009D02*
X99738095Y-117608628D01*
X99738095Y-117608628D02*
X99690476Y-117703866D01*
X99690476Y-117703866D02*
X99690476Y-117894342D01*
X99690476Y-117894342D02*
X99738095Y-117989580D01*
X99738095Y-117989580D02*
X99785714Y-118037200D01*
X99785714Y-118037200D02*
X99880952Y-118084819D01*
X99880952Y-118084819D02*
X100071428Y-118084819D01*
X100071428Y-118084819D02*
X100166666Y-118037200D01*
X100166666Y-118037200D02*
X100214285Y-117989580D01*
X100214285Y-117989580D02*
X100261904Y-117894342D01*
X100261904Y-117894342D02*
X100261904Y-117703866D01*
X100261904Y-117703866D02*
X100214285Y-117608628D01*
X100214285Y-117608628D02*
X100166666Y-117561009D01*
X100166666Y-117561009D02*
X100071428Y-117513390D01*
X87738095Y-45304819D02*
X87738095Y-44304819D01*
X87738095Y-44781009D02*
X88309523Y-44781009D01*
X88309523Y-45304819D02*
X88309523Y-44304819D01*
X89261904Y-44304819D02*
X88785714Y-44304819D01*
X88785714Y-44304819D02*
X88738095Y-44781009D01*
X88738095Y-44781009D02*
X88785714Y-44733390D01*
X88785714Y-44733390D02*
X88880952Y-44685771D01*
X88880952Y-44685771D02*
X89119047Y-44685771D01*
X89119047Y-44685771D02*
X89214285Y-44733390D01*
X89214285Y-44733390D02*
X89261904Y-44781009D01*
X89261904Y-44781009D02*
X89309523Y-44876247D01*
X89309523Y-44876247D02*
X89309523Y-45114342D01*
X89309523Y-45114342D02*
X89261904Y-45209580D01*
X89261904Y-45209580D02*
X89214285Y-45257200D01*
X89214285Y-45257200D02*
X89119047Y-45304819D01*
X89119047Y-45304819D02*
X88880952Y-45304819D01*
X88880952Y-45304819D02*
X88785714Y-45257200D01*
X88785714Y-45257200D02*
X88738095Y-45209580D01*
X164238095Y-131304819D02*
X164238095Y-130304819D01*
X164238095Y-130781009D02*
X164809523Y-130781009D01*
X164809523Y-131304819D02*
X164809523Y-130304819D01*
X165714285Y-130638152D02*
X165714285Y-131304819D01*
X165476190Y-130257200D02*
X165238095Y-130971485D01*
X165238095Y-130971485D02*
X165857142Y-130971485D01*
X63261905Y-122054819D02*
X63261905Y-121054819D01*
X63261905Y-121054819D02*
X63500000Y-121054819D01*
X63500000Y-121054819D02*
X63642857Y-121102438D01*
X63642857Y-121102438D02*
X63738095Y-121197676D01*
X63738095Y-121197676D02*
X63785714Y-121292914D01*
X63785714Y-121292914D02*
X63833333Y-121483390D01*
X63833333Y-121483390D02*
X63833333Y-121626247D01*
X63833333Y-121626247D02*
X63785714Y-121816723D01*
X63785714Y-121816723D02*
X63738095Y-121911961D01*
X63738095Y-121911961D02*
X63642857Y-122007200D01*
X63642857Y-122007200D02*
X63500000Y-122054819D01*
X63500000Y-122054819D02*
X63261905Y-122054819D01*
X64404762Y-121483390D02*
X64309524Y-121435771D01*
X64309524Y-121435771D02*
X64261905Y-121388152D01*
X64261905Y-121388152D02*
X64214286Y-121292914D01*
X64214286Y-121292914D02*
X64214286Y-121245295D01*
X64214286Y-121245295D02*
X64261905Y-121150057D01*
X64261905Y-121150057D02*
X64309524Y-121102438D01*
X64309524Y-121102438D02*
X64404762Y-121054819D01*
X64404762Y-121054819D02*
X64595238Y-121054819D01*
X64595238Y-121054819D02*
X64690476Y-121102438D01*
X64690476Y-121102438D02*
X64738095Y-121150057D01*
X64738095Y-121150057D02*
X64785714Y-121245295D01*
X64785714Y-121245295D02*
X64785714Y-121292914D01*
X64785714Y-121292914D02*
X64738095Y-121388152D01*
X64738095Y-121388152D02*
X64690476Y-121435771D01*
X64690476Y-121435771D02*
X64595238Y-121483390D01*
X64595238Y-121483390D02*
X64404762Y-121483390D01*
X64404762Y-121483390D02*
X64309524Y-121531009D01*
X64309524Y-121531009D02*
X64261905Y-121578628D01*
X64261905Y-121578628D02*
X64214286Y-121673866D01*
X64214286Y-121673866D02*
X64214286Y-121864342D01*
X64214286Y-121864342D02*
X64261905Y-121959580D01*
X64261905Y-121959580D02*
X64309524Y-122007200D01*
X64309524Y-122007200D02*
X64404762Y-122054819D01*
X64404762Y-122054819D02*
X64595238Y-122054819D01*
X64595238Y-122054819D02*
X64690476Y-122007200D01*
X64690476Y-122007200D02*
X64738095Y-121959580D01*
X64738095Y-121959580D02*
X64785714Y-121864342D01*
X64785714Y-121864342D02*
X64785714Y-121673866D01*
X64785714Y-121673866D02*
X64738095Y-121578628D01*
X64738095Y-121578628D02*
X64690476Y-121531009D01*
X64690476Y-121531009D02*
X64595238Y-121483390D01*
X154379819Y-39809523D02*
X155094104Y-39809523D01*
X155094104Y-39809523D02*
X155236961Y-39857142D01*
X155236961Y-39857142D02*
X155332200Y-39952380D01*
X155332200Y-39952380D02*
X155379819Y-40095237D01*
X155379819Y-40095237D02*
X155379819Y-40190475D01*
X155379819Y-38809523D02*
X155379819Y-39380951D01*
X155379819Y-39095237D02*
X154379819Y-39095237D01*
X154379819Y-39095237D02*
X154522676Y-39190475D01*
X154522676Y-39190475D02*
X154617914Y-39285713D01*
X154617914Y-39285713D02*
X154665533Y-39380951D01*
X155379819Y-37857142D02*
X155379819Y-38428570D01*
X155379819Y-38142856D02*
X154379819Y-38142856D01*
X154379819Y-38142856D02*
X154522676Y-38238094D01*
X154522676Y-38238094D02*
X154617914Y-38333332D01*
X154617914Y-38333332D02*
X154665533Y-38428570D01*
X69833333Y-42084819D02*
X69500000Y-41608628D01*
X69261905Y-42084819D02*
X69261905Y-41084819D01*
X69261905Y-41084819D02*
X69642857Y-41084819D01*
X69642857Y-41084819D02*
X69738095Y-41132438D01*
X69738095Y-41132438D02*
X69785714Y-41180057D01*
X69785714Y-41180057D02*
X69833333Y-41275295D01*
X69833333Y-41275295D02*
X69833333Y-41418152D01*
X69833333Y-41418152D02*
X69785714Y-41513390D01*
X69785714Y-41513390D02*
X69738095Y-41561009D01*
X69738095Y-41561009D02*
X69642857Y-41608628D01*
X69642857Y-41608628D02*
X69261905Y-41608628D01*
X70690476Y-41084819D02*
X70500000Y-41084819D01*
X70500000Y-41084819D02*
X70404762Y-41132438D01*
X70404762Y-41132438D02*
X70357143Y-41180057D01*
X70357143Y-41180057D02*
X70261905Y-41322914D01*
X70261905Y-41322914D02*
X70214286Y-41513390D01*
X70214286Y-41513390D02*
X70214286Y-41894342D01*
X70214286Y-41894342D02*
X70261905Y-41989580D01*
X70261905Y-41989580D02*
X70309524Y-42037200D01*
X70309524Y-42037200D02*
X70404762Y-42084819D01*
X70404762Y-42084819D02*
X70595238Y-42084819D01*
X70595238Y-42084819D02*
X70690476Y-42037200D01*
X70690476Y-42037200D02*
X70738095Y-41989580D01*
X70738095Y-41989580D02*
X70785714Y-41894342D01*
X70785714Y-41894342D02*
X70785714Y-41656247D01*
X70785714Y-41656247D02*
X70738095Y-41561009D01*
X70738095Y-41561009D02*
X70690476Y-41513390D01*
X70690476Y-41513390D02*
X70595238Y-41465771D01*
X70595238Y-41465771D02*
X70404762Y-41465771D01*
X70404762Y-41465771D02*
X70309524Y-41513390D01*
X70309524Y-41513390D02*
X70261905Y-41561009D01*
X70261905Y-41561009D02*
X70214286Y-41656247D01*
X122785714Y-122054819D02*
X122785714Y-121054819D01*
X122785714Y-121054819D02*
X123023809Y-121054819D01*
X123023809Y-121054819D02*
X123166666Y-121102438D01*
X123166666Y-121102438D02*
X123261904Y-121197676D01*
X123261904Y-121197676D02*
X123309523Y-121292914D01*
X123309523Y-121292914D02*
X123357142Y-121483390D01*
X123357142Y-121483390D02*
X123357142Y-121626247D01*
X123357142Y-121626247D02*
X123309523Y-121816723D01*
X123309523Y-121816723D02*
X123261904Y-121911961D01*
X123261904Y-121911961D02*
X123166666Y-122007200D01*
X123166666Y-122007200D02*
X123023809Y-122054819D01*
X123023809Y-122054819D02*
X122785714Y-122054819D01*
X124309523Y-122054819D02*
X123738095Y-122054819D01*
X124023809Y-122054819D02*
X124023809Y-121054819D01*
X124023809Y-121054819D02*
X123928571Y-121197676D01*
X123928571Y-121197676D02*
X123833333Y-121292914D01*
X123833333Y-121292914D02*
X123738095Y-121340533D01*
X125166666Y-121388152D02*
X125166666Y-122054819D01*
X124928571Y-121007200D02*
X124690476Y-121721485D01*
X124690476Y-121721485D02*
X125309523Y-121721485D01*
X69833333Y-38084819D02*
X69500000Y-37608628D01*
X69261905Y-38084819D02*
X69261905Y-37084819D01*
X69261905Y-37084819D02*
X69642857Y-37084819D01*
X69642857Y-37084819D02*
X69738095Y-37132438D01*
X69738095Y-37132438D02*
X69785714Y-37180057D01*
X69785714Y-37180057D02*
X69833333Y-37275295D01*
X69833333Y-37275295D02*
X69833333Y-37418152D01*
X69833333Y-37418152D02*
X69785714Y-37513390D01*
X69785714Y-37513390D02*
X69738095Y-37561009D01*
X69738095Y-37561009D02*
X69642857Y-37608628D01*
X69642857Y-37608628D02*
X69261905Y-37608628D01*
X70738095Y-37084819D02*
X70261905Y-37084819D01*
X70261905Y-37084819D02*
X70214286Y-37561009D01*
X70214286Y-37561009D02*
X70261905Y-37513390D01*
X70261905Y-37513390D02*
X70357143Y-37465771D01*
X70357143Y-37465771D02*
X70595238Y-37465771D01*
X70595238Y-37465771D02*
X70690476Y-37513390D01*
X70690476Y-37513390D02*
X70738095Y-37561009D01*
X70738095Y-37561009D02*
X70785714Y-37656247D01*
X70785714Y-37656247D02*
X70785714Y-37894342D01*
X70785714Y-37894342D02*
X70738095Y-37989580D01*
X70738095Y-37989580D02*
X70690476Y-38037200D01*
X70690476Y-38037200D02*
X70595238Y-38084819D01*
X70595238Y-38084819D02*
X70357143Y-38084819D01*
X70357143Y-38084819D02*
X70261905Y-38037200D01*
X70261905Y-38037200D02*
X70214286Y-37989580D01*
X87738095Y-94304819D02*
X87738095Y-93304819D01*
X87738095Y-93781009D02*
X88309523Y-93781009D01*
X88309523Y-94304819D02*
X88309523Y-93304819D01*
X88690476Y-93304819D02*
X89357142Y-93304819D01*
X89357142Y-93304819D02*
X88928571Y-94304819D01*
X161379819Y-80809523D02*
X162094104Y-80809523D01*
X162094104Y-80809523D02*
X162236961Y-80857142D01*
X162236961Y-80857142D02*
X162332200Y-80952380D01*
X162332200Y-80952380D02*
X162379819Y-81095237D01*
X162379819Y-81095237D02*
X162379819Y-81190475D01*
X162379819Y-79809523D02*
X162379819Y-80380951D01*
X162379819Y-80095237D02*
X161379819Y-80095237D01*
X161379819Y-80095237D02*
X161522676Y-80190475D01*
X161522676Y-80190475D02*
X161617914Y-80285713D01*
X161617914Y-80285713D02*
X161665533Y-80380951D01*
X161379819Y-79190475D02*
X161379819Y-79095237D01*
X161379819Y-79095237D02*
X161427438Y-78999999D01*
X161427438Y-78999999D02*
X161475057Y-78952380D01*
X161475057Y-78952380D02*
X161570295Y-78904761D01*
X161570295Y-78904761D02*
X161760771Y-78857142D01*
X161760771Y-78857142D02*
X161998866Y-78857142D01*
X161998866Y-78857142D02*
X162189342Y-78904761D01*
X162189342Y-78904761D02*
X162284580Y-78952380D01*
X162284580Y-78952380D02*
X162332200Y-78999999D01*
X162332200Y-78999999D02*
X162379819Y-79095237D01*
X162379819Y-79095237D02*
X162379819Y-79190475D01*
X162379819Y-79190475D02*
X162332200Y-79285713D01*
X162332200Y-79285713D02*
X162284580Y-79333332D01*
X162284580Y-79333332D02*
X162189342Y-79380951D01*
X162189342Y-79380951D02*
X161998866Y-79428570D01*
X161998866Y-79428570D02*
X161760771Y-79428570D01*
X161760771Y-79428570D02*
X161570295Y-79380951D01*
X161570295Y-79380951D02*
X161475057Y-79333332D01*
X161475057Y-79333332D02*
X161427438Y-79285713D01*
X161427438Y-79285713D02*
X161379819Y-79190475D01*
X69190476Y-126209819D02*
X69190476Y-126924104D01*
X69190476Y-126924104D02*
X69142857Y-127066961D01*
X69142857Y-127066961D02*
X69047619Y-127162200D01*
X69047619Y-127162200D02*
X68904762Y-127209819D01*
X68904762Y-127209819D02*
X68809524Y-127209819D01*
X70190476Y-127209819D02*
X69619048Y-127209819D01*
X69904762Y-127209819D02*
X69904762Y-126209819D01*
X69904762Y-126209819D02*
X69809524Y-126352676D01*
X69809524Y-126352676D02*
X69714286Y-126447914D01*
X69714286Y-126447914D02*
X69619048Y-126495533D01*
X70523810Y-126209819D02*
X71190476Y-126209819D01*
X71190476Y-126209819D02*
X70761905Y-127209819D01*
X112357142Y-117859580D02*
X112309523Y-117907200D01*
X112309523Y-117907200D02*
X112166666Y-117954819D01*
X112166666Y-117954819D02*
X112071428Y-117954819D01*
X112071428Y-117954819D02*
X111928571Y-117907200D01*
X111928571Y-117907200D02*
X111833333Y-117811961D01*
X111833333Y-117811961D02*
X111785714Y-117716723D01*
X111785714Y-117716723D02*
X111738095Y-117526247D01*
X111738095Y-117526247D02*
X111738095Y-117383390D01*
X111738095Y-117383390D02*
X111785714Y-117192914D01*
X111785714Y-117192914D02*
X111833333Y-117097676D01*
X111833333Y-117097676D02*
X111928571Y-117002438D01*
X111928571Y-117002438D02*
X112071428Y-116954819D01*
X112071428Y-116954819D02*
X112166666Y-116954819D01*
X112166666Y-116954819D02*
X112309523Y-117002438D01*
X112309523Y-117002438D02*
X112357142Y-117050057D01*
X112738095Y-117050057D02*
X112785714Y-117002438D01*
X112785714Y-117002438D02*
X112880952Y-116954819D01*
X112880952Y-116954819D02*
X113119047Y-116954819D01*
X113119047Y-116954819D02*
X113214285Y-117002438D01*
X113214285Y-117002438D02*
X113261904Y-117050057D01*
X113261904Y-117050057D02*
X113309523Y-117145295D01*
X113309523Y-117145295D02*
X113309523Y-117240533D01*
X113309523Y-117240533D02*
X113261904Y-117383390D01*
X113261904Y-117383390D02*
X112690476Y-117954819D01*
X112690476Y-117954819D02*
X113309523Y-117954819D01*
X114261904Y-117954819D02*
X113690476Y-117954819D01*
X113976190Y-117954819D02*
X113976190Y-116954819D01*
X113976190Y-116954819D02*
X113880952Y-117097676D01*
X113880952Y-117097676D02*
X113785714Y-117192914D01*
X113785714Y-117192914D02*
X113690476Y-117240533D01*
X31357142Y-122084819D02*
X31023809Y-121608628D01*
X30785714Y-122084819D02*
X30785714Y-121084819D01*
X30785714Y-121084819D02*
X31166666Y-121084819D01*
X31166666Y-121084819D02*
X31261904Y-121132438D01*
X31261904Y-121132438D02*
X31309523Y-121180057D01*
X31309523Y-121180057D02*
X31357142Y-121275295D01*
X31357142Y-121275295D02*
X31357142Y-121418152D01*
X31357142Y-121418152D02*
X31309523Y-121513390D01*
X31309523Y-121513390D02*
X31261904Y-121561009D01*
X31261904Y-121561009D02*
X31166666Y-121608628D01*
X31166666Y-121608628D02*
X30785714Y-121608628D01*
X32309523Y-122084819D02*
X31738095Y-122084819D01*
X32023809Y-122084819D02*
X32023809Y-121084819D01*
X32023809Y-121084819D02*
X31928571Y-121227676D01*
X31928571Y-121227676D02*
X31833333Y-121322914D01*
X31833333Y-121322914D02*
X31738095Y-121370533D01*
X32880952Y-121513390D02*
X32785714Y-121465771D01*
X32785714Y-121465771D02*
X32738095Y-121418152D01*
X32738095Y-121418152D02*
X32690476Y-121322914D01*
X32690476Y-121322914D02*
X32690476Y-121275295D01*
X32690476Y-121275295D02*
X32738095Y-121180057D01*
X32738095Y-121180057D02*
X32785714Y-121132438D01*
X32785714Y-121132438D02*
X32880952Y-121084819D01*
X32880952Y-121084819D02*
X33071428Y-121084819D01*
X33071428Y-121084819D02*
X33166666Y-121132438D01*
X33166666Y-121132438D02*
X33214285Y-121180057D01*
X33214285Y-121180057D02*
X33261904Y-121275295D01*
X33261904Y-121275295D02*
X33261904Y-121322914D01*
X33261904Y-121322914D02*
X33214285Y-121418152D01*
X33214285Y-121418152D02*
X33166666Y-121465771D01*
X33166666Y-121465771D02*
X33071428Y-121513390D01*
X33071428Y-121513390D02*
X32880952Y-121513390D01*
X32880952Y-121513390D02*
X32785714Y-121561009D01*
X32785714Y-121561009D02*
X32738095Y-121608628D01*
X32738095Y-121608628D02*
X32690476Y-121703866D01*
X32690476Y-121703866D02*
X32690476Y-121894342D01*
X32690476Y-121894342D02*
X32738095Y-121989580D01*
X32738095Y-121989580D02*
X32785714Y-122037200D01*
X32785714Y-122037200D02*
X32880952Y-122084819D01*
X32880952Y-122084819D02*
X33071428Y-122084819D01*
X33071428Y-122084819D02*
X33166666Y-122037200D01*
X33166666Y-122037200D02*
X33214285Y-121989580D01*
X33214285Y-121989580D02*
X33261904Y-121894342D01*
X33261904Y-121894342D02*
X33261904Y-121703866D01*
X33261904Y-121703866D02*
X33214285Y-121608628D01*
X33214285Y-121608628D02*
X33166666Y-121561009D01*
X33166666Y-121561009D02*
X33071428Y-121513390D01*
X69904761Y-49400057D02*
X69809523Y-49352438D01*
X69809523Y-49352438D02*
X69714285Y-49257200D01*
X69714285Y-49257200D02*
X69571428Y-49114342D01*
X69571428Y-49114342D02*
X69476190Y-49066723D01*
X69476190Y-49066723D02*
X69380952Y-49066723D01*
X69428571Y-49304819D02*
X69333333Y-49257200D01*
X69333333Y-49257200D02*
X69238095Y-49161961D01*
X69238095Y-49161961D02*
X69190476Y-48971485D01*
X69190476Y-48971485D02*
X69190476Y-48638152D01*
X69190476Y-48638152D02*
X69238095Y-48447676D01*
X69238095Y-48447676D02*
X69333333Y-48352438D01*
X69333333Y-48352438D02*
X69428571Y-48304819D01*
X69428571Y-48304819D02*
X69619047Y-48304819D01*
X69619047Y-48304819D02*
X69714285Y-48352438D01*
X69714285Y-48352438D02*
X69809523Y-48447676D01*
X69809523Y-48447676D02*
X69857142Y-48638152D01*
X69857142Y-48638152D02*
X69857142Y-48971485D01*
X69857142Y-48971485D02*
X69809523Y-49161961D01*
X69809523Y-49161961D02*
X69714285Y-49257200D01*
X69714285Y-49257200D02*
X69619047Y-49304819D01*
X69619047Y-49304819D02*
X69428571Y-49304819D01*
X70809523Y-49304819D02*
X70238095Y-49304819D01*
X70523809Y-49304819D02*
X70523809Y-48304819D01*
X70523809Y-48304819D02*
X70428571Y-48447676D01*
X70428571Y-48447676D02*
X70333333Y-48542914D01*
X70333333Y-48542914D02*
X70238095Y-48590533D01*
X69261905Y-69354819D02*
X69261905Y-68354819D01*
X69261905Y-68354819D02*
X69500000Y-68354819D01*
X69500000Y-68354819D02*
X69642857Y-68402438D01*
X69642857Y-68402438D02*
X69738095Y-68497676D01*
X69738095Y-68497676D02*
X69785714Y-68592914D01*
X69785714Y-68592914D02*
X69833333Y-68783390D01*
X69833333Y-68783390D02*
X69833333Y-68926247D01*
X69833333Y-68926247D02*
X69785714Y-69116723D01*
X69785714Y-69116723D02*
X69738095Y-69211961D01*
X69738095Y-69211961D02*
X69642857Y-69307200D01*
X69642857Y-69307200D02*
X69500000Y-69354819D01*
X69500000Y-69354819D02*
X69261905Y-69354819D01*
X70738095Y-68354819D02*
X70261905Y-68354819D01*
X70261905Y-68354819D02*
X70214286Y-68831009D01*
X70214286Y-68831009D02*
X70261905Y-68783390D01*
X70261905Y-68783390D02*
X70357143Y-68735771D01*
X70357143Y-68735771D02*
X70595238Y-68735771D01*
X70595238Y-68735771D02*
X70690476Y-68783390D01*
X70690476Y-68783390D02*
X70738095Y-68831009D01*
X70738095Y-68831009D02*
X70785714Y-68926247D01*
X70785714Y-68926247D02*
X70785714Y-69164342D01*
X70785714Y-69164342D02*
X70738095Y-69259580D01*
X70738095Y-69259580D02*
X70690476Y-69307200D01*
X70690476Y-69307200D02*
X70595238Y-69354819D01*
X70595238Y-69354819D02*
X70357143Y-69354819D01*
X70357143Y-69354819D02*
X70261905Y-69307200D01*
X70261905Y-69307200D02*
X70214286Y-69259580D01*
X62875952Y-22494819D02*
X62399762Y-22494819D01*
X62399762Y-22494819D02*
X62399762Y-21494819D01*
X63209286Y-21971009D02*
X63542619Y-21971009D01*
X63685476Y-22494819D02*
X63209286Y-22494819D01*
X63209286Y-22494819D02*
X63209286Y-21494819D01*
X63209286Y-21494819D02*
X63685476Y-21494819D01*
X64114048Y-22494819D02*
X64114048Y-21494819D01*
X64114048Y-21494819D02*
X64352143Y-21494819D01*
X64352143Y-21494819D02*
X64495000Y-21542438D01*
X64495000Y-21542438D02*
X64590238Y-21637676D01*
X64590238Y-21637676D02*
X64637857Y-21732914D01*
X64637857Y-21732914D02*
X64685476Y-21923390D01*
X64685476Y-21923390D02*
X64685476Y-22066247D01*
X64685476Y-22066247D02*
X64637857Y-22256723D01*
X64637857Y-22256723D02*
X64590238Y-22351961D01*
X64590238Y-22351961D02*
X64495000Y-22447200D01*
X64495000Y-22447200D02*
X64352143Y-22494819D01*
X64352143Y-22494819D02*
X64114048Y-22494819D01*
X65637857Y-22494819D02*
X65066429Y-22494819D01*
X65352143Y-22494819D02*
X65352143Y-21494819D01*
X65352143Y-21494819D02*
X65256905Y-21637676D01*
X65256905Y-21637676D02*
X65161667Y-21732914D01*
X65161667Y-21732914D02*
X65066429Y-21780533D01*
X145738095Y-45304819D02*
X145738095Y-44304819D01*
X145738095Y-44781009D02*
X146309523Y-44781009D01*
X146309523Y-45304819D02*
X146309523Y-44304819D01*
X147214285Y-44304819D02*
X147023809Y-44304819D01*
X147023809Y-44304819D02*
X146928571Y-44352438D01*
X146928571Y-44352438D02*
X146880952Y-44400057D01*
X146880952Y-44400057D02*
X146785714Y-44542914D01*
X146785714Y-44542914D02*
X146738095Y-44733390D01*
X146738095Y-44733390D02*
X146738095Y-45114342D01*
X146738095Y-45114342D02*
X146785714Y-45209580D01*
X146785714Y-45209580D02*
X146833333Y-45257200D01*
X146833333Y-45257200D02*
X146928571Y-45304819D01*
X146928571Y-45304819D02*
X147119047Y-45304819D01*
X147119047Y-45304819D02*
X147214285Y-45257200D01*
X147214285Y-45257200D02*
X147261904Y-45209580D01*
X147261904Y-45209580D02*
X147309523Y-45114342D01*
X147309523Y-45114342D02*
X147309523Y-44876247D01*
X147309523Y-44876247D02*
X147261904Y-44781009D01*
X147261904Y-44781009D02*
X147214285Y-44733390D01*
X147214285Y-44733390D02*
X147119047Y-44685771D01*
X147119047Y-44685771D02*
X146928571Y-44685771D01*
X146928571Y-44685771D02*
X146833333Y-44733390D01*
X146833333Y-44733390D02*
X146785714Y-44781009D01*
X146785714Y-44781009D02*
X146738095Y-44876247D01*
X98357142Y-126084819D02*
X98023809Y-125608628D01*
X97785714Y-126084819D02*
X97785714Y-125084819D01*
X97785714Y-125084819D02*
X98166666Y-125084819D01*
X98166666Y-125084819D02*
X98261904Y-125132438D01*
X98261904Y-125132438D02*
X98309523Y-125180057D01*
X98309523Y-125180057D02*
X98357142Y-125275295D01*
X98357142Y-125275295D02*
X98357142Y-125418152D01*
X98357142Y-125418152D02*
X98309523Y-125513390D01*
X98309523Y-125513390D02*
X98261904Y-125561009D01*
X98261904Y-125561009D02*
X98166666Y-125608628D01*
X98166666Y-125608628D02*
X97785714Y-125608628D01*
X98690476Y-125084819D02*
X99309523Y-125084819D01*
X99309523Y-125084819D02*
X98976190Y-125465771D01*
X98976190Y-125465771D02*
X99119047Y-125465771D01*
X99119047Y-125465771D02*
X99214285Y-125513390D01*
X99214285Y-125513390D02*
X99261904Y-125561009D01*
X99261904Y-125561009D02*
X99309523Y-125656247D01*
X99309523Y-125656247D02*
X99309523Y-125894342D01*
X99309523Y-125894342D02*
X99261904Y-125989580D01*
X99261904Y-125989580D02*
X99214285Y-126037200D01*
X99214285Y-126037200D02*
X99119047Y-126084819D01*
X99119047Y-126084819D02*
X98833333Y-126084819D01*
X98833333Y-126084819D02*
X98738095Y-126037200D01*
X98738095Y-126037200D02*
X98690476Y-125989580D01*
X99928571Y-125084819D02*
X100023809Y-125084819D01*
X100023809Y-125084819D02*
X100119047Y-125132438D01*
X100119047Y-125132438D02*
X100166666Y-125180057D01*
X100166666Y-125180057D02*
X100214285Y-125275295D01*
X100214285Y-125275295D02*
X100261904Y-125465771D01*
X100261904Y-125465771D02*
X100261904Y-125703866D01*
X100261904Y-125703866D02*
X100214285Y-125894342D01*
X100214285Y-125894342D02*
X100166666Y-125989580D01*
X100166666Y-125989580D02*
X100119047Y-126037200D01*
X100119047Y-126037200D02*
X100023809Y-126084819D01*
X100023809Y-126084819D02*
X99928571Y-126084819D01*
X99928571Y-126084819D02*
X99833333Y-126037200D01*
X99833333Y-126037200D02*
X99785714Y-125989580D01*
X99785714Y-125989580D02*
X99738095Y-125894342D01*
X99738095Y-125894342D02*
X99690476Y-125703866D01*
X99690476Y-125703866D02*
X99690476Y-125465771D01*
X99690476Y-125465771D02*
X99738095Y-125275295D01*
X99738095Y-125275295D02*
X99785714Y-125180057D01*
X99785714Y-125180057D02*
X99833333Y-125132438D01*
X99833333Y-125132438D02*
X99928571Y-125084819D01*
X24238095Y-131304819D02*
X24238095Y-130304819D01*
X24238095Y-130781009D02*
X24809523Y-130781009D01*
X24809523Y-131304819D02*
X24809523Y-130304819D01*
X25190476Y-130304819D02*
X25809523Y-130304819D01*
X25809523Y-130304819D02*
X25476190Y-130685771D01*
X25476190Y-130685771D02*
X25619047Y-130685771D01*
X25619047Y-130685771D02*
X25714285Y-130733390D01*
X25714285Y-130733390D02*
X25761904Y-130781009D01*
X25761904Y-130781009D02*
X25809523Y-130876247D01*
X25809523Y-130876247D02*
X25809523Y-131114342D01*
X25809523Y-131114342D02*
X25761904Y-131209580D01*
X25761904Y-131209580D02*
X25714285Y-131257200D01*
X25714285Y-131257200D02*
X25619047Y-131304819D01*
X25619047Y-131304819D02*
X25333333Y-131304819D01*
X25333333Y-131304819D02*
X25238095Y-131257200D01*
X25238095Y-131257200D02*
X25190476Y-131209580D01*
X94666666Y-23379819D02*
X94666666Y-24094104D01*
X94666666Y-24094104D02*
X94619047Y-24236961D01*
X94619047Y-24236961D02*
X94523809Y-24332200D01*
X94523809Y-24332200D02*
X94380952Y-24379819D01*
X94380952Y-24379819D02*
X94285714Y-24379819D01*
X95571428Y-23713152D02*
X95571428Y-24379819D01*
X95333333Y-23332200D02*
X95095238Y-24046485D01*
X95095238Y-24046485D02*
X95714285Y-24046485D01*
X49357142Y-117084819D02*
X49023809Y-116608628D01*
X48785714Y-117084819D02*
X48785714Y-116084819D01*
X48785714Y-116084819D02*
X49166666Y-116084819D01*
X49166666Y-116084819D02*
X49261904Y-116132438D01*
X49261904Y-116132438D02*
X49309523Y-116180057D01*
X49309523Y-116180057D02*
X49357142Y-116275295D01*
X49357142Y-116275295D02*
X49357142Y-116418152D01*
X49357142Y-116418152D02*
X49309523Y-116513390D01*
X49309523Y-116513390D02*
X49261904Y-116561009D01*
X49261904Y-116561009D02*
X49166666Y-116608628D01*
X49166666Y-116608628D02*
X48785714Y-116608628D01*
X50214285Y-116418152D02*
X50214285Y-117084819D01*
X49976190Y-116037200D02*
X49738095Y-116751485D01*
X49738095Y-116751485D02*
X50357142Y-116751485D01*
X50928571Y-116084819D02*
X51023809Y-116084819D01*
X51023809Y-116084819D02*
X51119047Y-116132438D01*
X51119047Y-116132438D02*
X51166666Y-116180057D01*
X51166666Y-116180057D02*
X51214285Y-116275295D01*
X51214285Y-116275295D02*
X51261904Y-116465771D01*
X51261904Y-116465771D02*
X51261904Y-116703866D01*
X51261904Y-116703866D02*
X51214285Y-116894342D01*
X51214285Y-116894342D02*
X51166666Y-116989580D01*
X51166666Y-116989580D02*
X51119047Y-117037200D01*
X51119047Y-117037200D02*
X51023809Y-117084819D01*
X51023809Y-117084819D02*
X50928571Y-117084819D01*
X50928571Y-117084819D02*
X50833333Y-117037200D01*
X50833333Y-117037200D02*
X50785714Y-116989580D01*
X50785714Y-116989580D02*
X50738095Y-116894342D01*
X50738095Y-116894342D02*
X50690476Y-116703866D01*
X50690476Y-116703866D02*
X50690476Y-116465771D01*
X50690476Y-116465771D02*
X50738095Y-116275295D01*
X50738095Y-116275295D02*
X50785714Y-116180057D01*
X50785714Y-116180057D02*
X50833333Y-116132438D01*
X50833333Y-116132438D02*
X50928571Y-116084819D01*
X124832033Y-107859580D02*
X124784414Y-107907200D01*
X124784414Y-107907200D02*
X124641557Y-107954819D01*
X124641557Y-107954819D02*
X124546319Y-107954819D01*
X124546319Y-107954819D02*
X124403462Y-107907200D01*
X124403462Y-107907200D02*
X124308224Y-107811961D01*
X124308224Y-107811961D02*
X124260605Y-107716723D01*
X124260605Y-107716723D02*
X124212986Y-107526247D01*
X124212986Y-107526247D02*
X124212986Y-107383390D01*
X124212986Y-107383390D02*
X124260605Y-107192914D01*
X124260605Y-107192914D02*
X124308224Y-107097676D01*
X124308224Y-107097676D02*
X124403462Y-107002438D01*
X124403462Y-107002438D02*
X124546319Y-106954819D01*
X124546319Y-106954819D02*
X124641557Y-106954819D01*
X124641557Y-106954819D02*
X124784414Y-107002438D01*
X124784414Y-107002438D02*
X124832033Y-107050057D01*
X125784414Y-107954819D02*
X125212986Y-107954819D01*
X125498700Y-107954819D02*
X125498700Y-106954819D01*
X125498700Y-106954819D02*
X125403462Y-107097676D01*
X125403462Y-107097676D02*
X125308224Y-107192914D01*
X125308224Y-107192914D02*
X125212986Y-107240533D01*
X49357142Y-122084819D02*
X49023809Y-121608628D01*
X48785714Y-122084819D02*
X48785714Y-121084819D01*
X48785714Y-121084819D02*
X49166666Y-121084819D01*
X49166666Y-121084819D02*
X49261904Y-121132438D01*
X49261904Y-121132438D02*
X49309523Y-121180057D01*
X49309523Y-121180057D02*
X49357142Y-121275295D01*
X49357142Y-121275295D02*
X49357142Y-121418152D01*
X49357142Y-121418152D02*
X49309523Y-121513390D01*
X49309523Y-121513390D02*
X49261904Y-121561009D01*
X49261904Y-121561009D02*
X49166666Y-121608628D01*
X49166666Y-121608628D02*
X48785714Y-121608628D01*
X50309523Y-122084819D02*
X49738095Y-122084819D01*
X50023809Y-122084819D02*
X50023809Y-121084819D01*
X50023809Y-121084819D02*
X49928571Y-121227676D01*
X49928571Y-121227676D02*
X49833333Y-121322914D01*
X49833333Y-121322914D02*
X49738095Y-121370533D01*
X50785714Y-122084819D02*
X50976190Y-122084819D01*
X50976190Y-122084819D02*
X51071428Y-122037200D01*
X51071428Y-122037200D02*
X51119047Y-121989580D01*
X51119047Y-121989580D02*
X51214285Y-121846723D01*
X51214285Y-121846723D02*
X51261904Y-121656247D01*
X51261904Y-121656247D02*
X51261904Y-121275295D01*
X51261904Y-121275295D02*
X51214285Y-121180057D01*
X51214285Y-121180057D02*
X51166666Y-121132438D01*
X51166666Y-121132438D02*
X51071428Y-121084819D01*
X51071428Y-121084819D02*
X50880952Y-121084819D01*
X50880952Y-121084819D02*
X50785714Y-121132438D01*
X50785714Y-121132438D02*
X50738095Y-121180057D01*
X50738095Y-121180057D02*
X50690476Y-121275295D01*
X50690476Y-121275295D02*
X50690476Y-121513390D01*
X50690476Y-121513390D02*
X50738095Y-121608628D01*
X50738095Y-121608628D02*
X50785714Y-121656247D01*
X50785714Y-121656247D02*
X50880952Y-121703866D01*
X50880952Y-121703866D02*
X51071428Y-121703866D01*
X51071428Y-121703866D02*
X51166666Y-121656247D01*
X51166666Y-121656247D02*
X51214285Y-121608628D01*
X51214285Y-121608628D02*
X51261904Y-121513390D01*
X53190476Y-126209819D02*
X53190476Y-126924104D01*
X53190476Y-126924104D02*
X53142857Y-127066961D01*
X53142857Y-127066961D02*
X53047619Y-127162200D01*
X53047619Y-127162200D02*
X52904762Y-127209819D01*
X52904762Y-127209819D02*
X52809524Y-127209819D01*
X54190476Y-127209819D02*
X53619048Y-127209819D01*
X53904762Y-127209819D02*
X53904762Y-126209819D01*
X53904762Y-126209819D02*
X53809524Y-126352676D01*
X53809524Y-126352676D02*
X53714286Y-126447914D01*
X53714286Y-126447914D02*
X53619048Y-126495533D01*
X55047619Y-126209819D02*
X54857143Y-126209819D01*
X54857143Y-126209819D02*
X54761905Y-126257438D01*
X54761905Y-126257438D02*
X54714286Y-126305057D01*
X54714286Y-126305057D02*
X54619048Y-126447914D01*
X54619048Y-126447914D02*
X54571429Y-126638390D01*
X54571429Y-126638390D02*
X54571429Y-127019342D01*
X54571429Y-127019342D02*
X54619048Y-127114580D01*
X54619048Y-127114580D02*
X54666667Y-127162200D01*
X54666667Y-127162200D02*
X54761905Y-127209819D01*
X54761905Y-127209819D02*
X54952381Y-127209819D01*
X54952381Y-127209819D02*
X55047619Y-127162200D01*
X55047619Y-127162200D02*
X55095238Y-127114580D01*
X55095238Y-127114580D02*
X55142857Y-127019342D01*
X55142857Y-127019342D02*
X55142857Y-126781247D01*
X55142857Y-126781247D02*
X55095238Y-126686009D01*
X55095238Y-126686009D02*
X55047619Y-126638390D01*
X55047619Y-126638390D02*
X54952381Y-126590771D01*
X54952381Y-126590771D02*
X54761905Y-126590771D01*
X54761905Y-126590771D02*
X54666667Y-126638390D01*
X54666667Y-126638390D02*
X54619048Y-126686009D01*
X54619048Y-126686009D02*
X54571429Y-126781247D01*
X138184819Y-132809523D02*
X138899104Y-132809523D01*
X138899104Y-132809523D02*
X139041961Y-132857142D01*
X139041961Y-132857142D02*
X139137200Y-132952380D01*
X139137200Y-132952380D02*
X139184819Y-133095237D01*
X139184819Y-133095237D02*
X139184819Y-133190475D01*
X139184819Y-131809523D02*
X139184819Y-132380951D01*
X139184819Y-132095237D02*
X138184819Y-132095237D01*
X138184819Y-132095237D02*
X138327676Y-132190475D01*
X138327676Y-132190475D02*
X138422914Y-132285713D01*
X138422914Y-132285713D02*
X138470533Y-132380951D01*
X138280057Y-131428570D02*
X138232438Y-131380951D01*
X138232438Y-131380951D02*
X138184819Y-131285713D01*
X138184819Y-131285713D02*
X138184819Y-131047618D01*
X138184819Y-131047618D02*
X138232438Y-130952380D01*
X138232438Y-130952380D02*
X138280057Y-130904761D01*
X138280057Y-130904761D02*
X138375295Y-130857142D01*
X138375295Y-130857142D02*
X138470533Y-130857142D01*
X138470533Y-130857142D02*
X138613390Y-130904761D01*
X138613390Y-130904761D02*
X139184819Y-131476189D01*
X139184819Y-131476189D02*
X139184819Y-130857142D01*
X85190476Y-126209819D02*
X85190476Y-126924104D01*
X85190476Y-126924104D02*
X85142857Y-127066961D01*
X85142857Y-127066961D02*
X85047619Y-127162200D01*
X85047619Y-127162200D02*
X84904762Y-127209819D01*
X84904762Y-127209819D02*
X84809524Y-127209819D01*
X85619048Y-126305057D02*
X85666667Y-126257438D01*
X85666667Y-126257438D02*
X85761905Y-126209819D01*
X85761905Y-126209819D02*
X86000000Y-126209819D01*
X86000000Y-126209819D02*
X86095238Y-126257438D01*
X86095238Y-126257438D02*
X86142857Y-126305057D01*
X86142857Y-126305057D02*
X86190476Y-126400295D01*
X86190476Y-126400295D02*
X86190476Y-126495533D01*
X86190476Y-126495533D02*
X86142857Y-126638390D01*
X86142857Y-126638390D02*
X85571429Y-127209819D01*
X85571429Y-127209819D02*
X86190476Y-127209819D01*
X86571429Y-126305057D02*
X86619048Y-126257438D01*
X86619048Y-126257438D02*
X86714286Y-126209819D01*
X86714286Y-126209819D02*
X86952381Y-126209819D01*
X86952381Y-126209819D02*
X87047619Y-126257438D01*
X87047619Y-126257438D02*
X87095238Y-126305057D01*
X87095238Y-126305057D02*
X87142857Y-126400295D01*
X87142857Y-126400295D02*
X87142857Y-126495533D01*
X87142857Y-126495533D02*
X87095238Y-126638390D01*
X87095238Y-126638390D02*
X86523810Y-127209819D01*
X86523810Y-127209819D02*
X87142857Y-127209819D01*
X112357142Y-122084819D02*
X112023809Y-121608628D01*
X111785714Y-122084819D02*
X111785714Y-121084819D01*
X111785714Y-121084819D02*
X112166666Y-121084819D01*
X112166666Y-121084819D02*
X112261904Y-121132438D01*
X112261904Y-121132438D02*
X112309523Y-121180057D01*
X112309523Y-121180057D02*
X112357142Y-121275295D01*
X112357142Y-121275295D02*
X112357142Y-121418152D01*
X112357142Y-121418152D02*
X112309523Y-121513390D01*
X112309523Y-121513390D02*
X112261904Y-121561009D01*
X112261904Y-121561009D02*
X112166666Y-121608628D01*
X112166666Y-121608628D02*
X111785714Y-121608628D01*
X113309523Y-122084819D02*
X112738095Y-122084819D01*
X113023809Y-122084819D02*
X113023809Y-121084819D01*
X113023809Y-121084819D02*
X112928571Y-121227676D01*
X112928571Y-121227676D02*
X112833333Y-121322914D01*
X112833333Y-121322914D02*
X112738095Y-121370533D01*
X114166666Y-121084819D02*
X113976190Y-121084819D01*
X113976190Y-121084819D02*
X113880952Y-121132438D01*
X113880952Y-121132438D02*
X113833333Y-121180057D01*
X113833333Y-121180057D02*
X113738095Y-121322914D01*
X113738095Y-121322914D02*
X113690476Y-121513390D01*
X113690476Y-121513390D02*
X113690476Y-121894342D01*
X113690476Y-121894342D02*
X113738095Y-121989580D01*
X113738095Y-121989580D02*
X113785714Y-122037200D01*
X113785714Y-122037200D02*
X113880952Y-122084819D01*
X113880952Y-122084819D02*
X114071428Y-122084819D01*
X114071428Y-122084819D02*
X114166666Y-122037200D01*
X114166666Y-122037200D02*
X114214285Y-121989580D01*
X114214285Y-121989580D02*
X114261904Y-121894342D01*
X114261904Y-121894342D02*
X114261904Y-121656247D01*
X114261904Y-121656247D02*
X114214285Y-121561009D01*
X114214285Y-121561009D02*
X114166666Y-121513390D01*
X114166666Y-121513390D02*
X114071428Y-121465771D01*
X114071428Y-121465771D02*
X113880952Y-121465771D01*
X113880952Y-121465771D02*
X113785714Y-121513390D01*
X113785714Y-121513390D02*
X113738095Y-121561009D01*
X113738095Y-121561009D02*
X113690476Y-121656247D01*
X33113095Y-100804819D02*
X33113095Y-101614342D01*
X33113095Y-101614342D02*
X33160714Y-101709580D01*
X33160714Y-101709580D02*
X33208333Y-101757200D01*
X33208333Y-101757200D02*
X33303571Y-101804819D01*
X33303571Y-101804819D02*
X33494047Y-101804819D01*
X33494047Y-101804819D02*
X33589285Y-101757200D01*
X33589285Y-101757200D02*
X33636904Y-101709580D01*
X33636904Y-101709580D02*
X33684523Y-101614342D01*
X33684523Y-101614342D02*
X33684523Y-100804819D01*
X34065476Y-100804819D02*
X34732142Y-100804819D01*
X34732142Y-100804819D02*
X34303571Y-101804819D01*
X164238095Y-21304819D02*
X164238095Y-20304819D01*
X164238095Y-20781009D02*
X164809523Y-20781009D01*
X164809523Y-21304819D02*
X164809523Y-20304819D01*
X165238095Y-20400057D02*
X165285714Y-20352438D01*
X165285714Y-20352438D02*
X165380952Y-20304819D01*
X165380952Y-20304819D02*
X165619047Y-20304819D01*
X165619047Y-20304819D02*
X165714285Y-20352438D01*
X165714285Y-20352438D02*
X165761904Y-20400057D01*
X165761904Y-20400057D02*
X165809523Y-20495295D01*
X165809523Y-20495295D02*
X165809523Y-20590533D01*
X165809523Y-20590533D02*
X165761904Y-20733390D01*
X165761904Y-20733390D02*
X165190476Y-21304819D01*
X165190476Y-21304819D02*
X165809523Y-21304819D01*
X34238095Y-34954819D02*
X34238095Y-35764342D01*
X34238095Y-35764342D02*
X34285714Y-35859580D01*
X34285714Y-35859580D02*
X34333333Y-35907200D01*
X34333333Y-35907200D02*
X34428571Y-35954819D01*
X34428571Y-35954819D02*
X34619047Y-35954819D01*
X34619047Y-35954819D02*
X34714285Y-35907200D01*
X34714285Y-35907200D02*
X34761904Y-35859580D01*
X34761904Y-35859580D02*
X34809523Y-35764342D01*
X34809523Y-35764342D02*
X34809523Y-34954819D01*
X35761904Y-34954819D02*
X35285714Y-34954819D01*
X35285714Y-34954819D02*
X35238095Y-35431009D01*
X35238095Y-35431009D02*
X35285714Y-35383390D01*
X35285714Y-35383390D02*
X35380952Y-35335771D01*
X35380952Y-35335771D02*
X35619047Y-35335771D01*
X35619047Y-35335771D02*
X35714285Y-35383390D01*
X35714285Y-35383390D02*
X35761904Y-35431009D01*
X35761904Y-35431009D02*
X35809523Y-35526247D01*
X35809523Y-35526247D02*
X35809523Y-35764342D01*
X35809523Y-35764342D02*
X35761904Y-35859580D01*
X35761904Y-35859580D02*
X35714285Y-35907200D01*
X35714285Y-35907200D02*
X35619047Y-35954819D01*
X35619047Y-35954819D02*
X35380952Y-35954819D01*
X35380952Y-35954819D02*
X35285714Y-35907200D01*
X35285714Y-35907200D02*
X35238095Y-35859580D01*
X77833333Y-117084819D02*
X77500000Y-116608628D01*
X77261905Y-117084819D02*
X77261905Y-116084819D01*
X77261905Y-116084819D02*
X77642857Y-116084819D01*
X77642857Y-116084819D02*
X77738095Y-116132438D01*
X77738095Y-116132438D02*
X77785714Y-116180057D01*
X77785714Y-116180057D02*
X77833333Y-116275295D01*
X77833333Y-116275295D02*
X77833333Y-116418152D01*
X77833333Y-116418152D02*
X77785714Y-116513390D01*
X77785714Y-116513390D02*
X77738095Y-116561009D01*
X77738095Y-116561009D02*
X77642857Y-116608628D01*
X77642857Y-116608628D02*
X77261905Y-116608628D01*
X78309524Y-117084819D02*
X78500000Y-117084819D01*
X78500000Y-117084819D02*
X78595238Y-117037200D01*
X78595238Y-117037200D02*
X78642857Y-116989580D01*
X78642857Y-116989580D02*
X78738095Y-116846723D01*
X78738095Y-116846723D02*
X78785714Y-116656247D01*
X78785714Y-116656247D02*
X78785714Y-116275295D01*
X78785714Y-116275295D02*
X78738095Y-116180057D01*
X78738095Y-116180057D02*
X78690476Y-116132438D01*
X78690476Y-116132438D02*
X78595238Y-116084819D01*
X78595238Y-116084819D02*
X78404762Y-116084819D01*
X78404762Y-116084819D02*
X78309524Y-116132438D01*
X78309524Y-116132438D02*
X78261905Y-116180057D01*
X78261905Y-116180057D02*
X78214286Y-116275295D01*
X78214286Y-116275295D02*
X78214286Y-116513390D01*
X78214286Y-116513390D02*
X78261905Y-116608628D01*
X78261905Y-116608628D02*
X78309524Y-116656247D01*
X78309524Y-116656247D02*
X78404762Y-116703866D01*
X78404762Y-116703866D02*
X78595238Y-116703866D01*
X78595238Y-116703866D02*
X78690476Y-116656247D01*
X78690476Y-116656247D02*
X78738095Y-116608628D01*
X78738095Y-116608628D02*
X78785714Y-116513390D01*
X54875952Y-22494819D02*
X54399762Y-22494819D01*
X54399762Y-22494819D02*
X54399762Y-21494819D01*
X55209286Y-21971009D02*
X55542619Y-21971009D01*
X55685476Y-22494819D02*
X55209286Y-22494819D01*
X55209286Y-22494819D02*
X55209286Y-21494819D01*
X55209286Y-21494819D02*
X55685476Y-21494819D01*
X56114048Y-22494819D02*
X56114048Y-21494819D01*
X56114048Y-21494819D02*
X56352143Y-21494819D01*
X56352143Y-21494819D02*
X56495000Y-21542438D01*
X56495000Y-21542438D02*
X56590238Y-21637676D01*
X56590238Y-21637676D02*
X56637857Y-21732914D01*
X56637857Y-21732914D02*
X56685476Y-21923390D01*
X56685476Y-21923390D02*
X56685476Y-22066247D01*
X56685476Y-22066247D02*
X56637857Y-22256723D01*
X56637857Y-22256723D02*
X56590238Y-22351961D01*
X56590238Y-22351961D02*
X56495000Y-22447200D01*
X56495000Y-22447200D02*
X56352143Y-22494819D01*
X56352143Y-22494819D02*
X56114048Y-22494819D01*
X57590238Y-21494819D02*
X57114048Y-21494819D01*
X57114048Y-21494819D02*
X57066429Y-21971009D01*
X57066429Y-21971009D02*
X57114048Y-21923390D01*
X57114048Y-21923390D02*
X57209286Y-21875771D01*
X57209286Y-21875771D02*
X57447381Y-21875771D01*
X57447381Y-21875771D02*
X57542619Y-21923390D01*
X57542619Y-21923390D02*
X57590238Y-21971009D01*
X57590238Y-21971009D02*
X57637857Y-22066247D01*
X57637857Y-22066247D02*
X57637857Y-22304342D01*
X57637857Y-22304342D02*
X57590238Y-22399580D01*
X57590238Y-22399580D02*
X57542619Y-22447200D01*
X57542619Y-22447200D02*
X57447381Y-22494819D01*
X57447381Y-22494819D02*
X57209286Y-22494819D01*
X57209286Y-22494819D02*
X57114048Y-22447200D01*
X57114048Y-22447200D02*
X57066429Y-22399580D01*
X80666666Y-23379819D02*
X80666666Y-24094104D01*
X80666666Y-24094104D02*
X80619047Y-24236961D01*
X80619047Y-24236961D02*
X80523809Y-24332200D01*
X80523809Y-24332200D02*
X80380952Y-24379819D01*
X80380952Y-24379819D02*
X80285714Y-24379819D01*
X81047619Y-23379819D02*
X81666666Y-23379819D01*
X81666666Y-23379819D02*
X81333333Y-23760771D01*
X81333333Y-23760771D02*
X81476190Y-23760771D01*
X81476190Y-23760771D02*
X81571428Y-23808390D01*
X81571428Y-23808390D02*
X81619047Y-23856009D01*
X81619047Y-23856009D02*
X81666666Y-23951247D01*
X81666666Y-23951247D02*
X81666666Y-24189342D01*
X81666666Y-24189342D02*
X81619047Y-24284580D01*
X81619047Y-24284580D02*
X81571428Y-24332200D01*
X81571428Y-24332200D02*
X81476190Y-24379819D01*
X81476190Y-24379819D02*
X81190476Y-24379819D01*
X81190476Y-24379819D02*
X81095238Y-24332200D01*
X81095238Y-24332200D02*
X81047619Y-24284580D01*
%TO.C,R20*%
D11*
X148000000Y-33460000D02*
X148000000Y-34230000D01*
X148000000Y-41540000D02*
X148000000Y-40770000D01*
X146630000Y-34230000D02*
X149370000Y-34230000D01*
X149370000Y-40770000D01*
X146630000Y-40770000D01*
X146630000Y-34230000D01*
%TO.C,R11*%
X80000000Y-89960000D02*
X80000000Y-90730000D01*
X80000000Y-98040000D02*
X80000000Y-97270000D01*
X78630000Y-90730000D02*
X81370000Y-90730000D01*
X81370000Y-97270000D01*
X78630000Y-97270000D01*
X78630000Y-90730000D01*
%TO.C,R21*%
X152000000Y-33460000D02*
X152000000Y-34230000D01*
X152000000Y-41540000D02*
X152000000Y-40770000D01*
X150630000Y-34230000D02*
X153370000Y-34230000D01*
X153370000Y-40770000D01*
X150630000Y-40770000D01*
X150630000Y-34230000D01*
%TO.C,R15*%
X94960000Y-124000000D02*
X95730000Y-124000000D01*
X103040000Y-124000000D02*
X102270000Y-124000000D01*
X95730000Y-122630000D02*
X102270000Y-122630000D01*
X102270000Y-125370000D01*
X95730000Y-125370000D01*
X95730000Y-122630000D01*
%TO.C,J6*%
X116400000Y-24725000D02*
X116400000Y-25975000D01*
X116700000Y-27275000D02*
X117450000Y-27275000D01*
X117450000Y-27275000D02*
X117450000Y-30225000D01*
X117450000Y-30225000D02*
X123000000Y-30225000D01*
X117650000Y-24725000D02*
X116400000Y-24725000D01*
X128550000Y-27275000D02*
X128550000Y-30225000D01*
X128550000Y-30225000D02*
X123000000Y-30225000D01*
X129300000Y-27275000D02*
X128550000Y-27275000D01*
X116690000Y-25015000D02*
X129310000Y-25015000D01*
X129310000Y-30985000D01*
X116690000Y-30985000D01*
X116690000Y-25015000D01*
X116700000Y-25025000D02*
X118500000Y-25025000D01*
X118500000Y-25775000D01*
X116700000Y-25775000D01*
X116700000Y-25025000D01*
X120000000Y-25025000D02*
X126000000Y-25025000D01*
X126000000Y-25775000D01*
X120000000Y-25775000D01*
X120000000Y-25025000D01*
X127500000Y-25025000D02*
X129300000Y-25025000D01*
X129300000Y-25775000D01*
X127500000Y-25775000D01*
X127500000Y-25025000D01*
%TO.C,R1*%
X65960000Y-60000000D02*
X66730000Y-60000000D01*
X74040000Y-60000000D02*
X73270000Y-60000000D01*
X66730000Y-58630000D02*
X73270000Y-58630000D01*
X73270000Y-61370000D01*
X66730000Y-61370000D01*
X66730000Y-58630000D01*
%TO.C,J7*%
X130400000Y-24725000D02*
X130400000Y-25975000D01*
X130700000Y-27275000D02*
X131450000Y-27275000D01*
X131450000Y-27275000D02*
X131450000Y-30225000D01*
X131450000Y-30225000D02*
X137000000Y-30225000D01*
X131650000Y-24725000D02*
X130400000Y-24725000D01*
X142550000Y-27275000D02*
X142550000Y-30225000D01*
X142550000Y-30225000D02*
X137000000Y-30225000D01*
X143300000Y-27275000D02*
X142550000Y-27275000D01*
X130690000Y-25015000D02*
X143310000Y-25015000D01*
X143310000Y-30985000D01*
X130690000Y-30985000D01*
X130690000Y-25015000D01*
X130700000Y-25025000D02*
X132500000Y-25025000D01*
X132500000Y-25775000D01*
X130700000Y-25775000D01*
X130700000Y-25025000D01*
X134000000Y-25025000D02*
X140000000Y-25025000D01*
X140000000Y-25775000D01*
X134000000Y-25775000D01*
X134000000Y-25025000D01*
X141500000Y-25025000D02*
X143300000Y-25025000D01*
X143300000Y-25775000D01*
X141500000Y-25775000D01*
X141500000Y-25025000D01*
%TO.C,D10*%
X155240000Y-46440000D02*
X156760000Y-46440000D01*
X155240000Y-46490000D02*
X155240000Y-46440000D01*
X155240000Y-48390000D02*
X155240000Y-47610000D01*
X155240000Y-49560000D02*
X155240000Y-49510000D01*
X156760000Y-46440000D02*
X156760000Y-47440000D01*
X156760000Y-48560000D02*
X156760000Y-49560000D01*
X156760000Y-49560000D02*
X155240000Y-49560000D01*
X154700000Y-47620000D02*
X154940000Y-47950000D01*
X154460000Y-47950000D01*
X154700000Y-47620000D01*
G36*
X154940000Y-47950000D02*
G01*
X154460000Y-47950000D01*
X154700000Y-47620000D01*
X154940000Y-47950000D01*
G37*
%TO.C,R8*%
X73960000Y-115000000D02*
X74730000Y-115000000D01*
X82040000Y-115000000D02*
X81270000Y-115000000D01*
X74730000Y-113630000D02*
X81270000Y-113630000D01*
X81270000Y-116370000D01*
X74730000Y-116370000D01*
X74730000Y-113630000D01*
%TO.C,R32*%
X108960000Y-128000000D02*
X109730000Y-128000000D01*
X117040000Y-128000000D02*
X116270000Y-128000000D01*
X109730000Y-126630000D02*
X116270000Y-126630000D01*
X116270000Y-129370000D01*
X109730000Y-129370000D01*
X109730000Y-126630000D01*
%TO.C,R39*%
X27960000Y-119000000D02*
X28730000Y-119000000D01*
X36040000Y-119000000D02*
X35270000Y-119000000D01*
X28730000Y-117630000D02*
X35270000Y-117630000D01*
X35270000Y-120370000D01*
X28730000Y-120370000D01*
X28730000Y-117630000D01*
%TO.C,R10*%
X73960000Y-123000000D02*
X74730000Y-123000000D01*
X82040000Y-123000000D02*
X81270000Y-123000000D01*
X74730000Y-121630000D02*
X81270000Y-121630000D01*
X81270000Y-124370000D01*
X74730000Y-124370000D01*
X74730000Y-121630000D01*
%TO.C,J2*%
X57345000Y-42495000D02*
X58725000Y-42495000D01*
X57345000Y-43875000D02*
X57345000Y-42495000D01*
X57345000Y-45145000D02*
X57345000Y-93515000D01*
X57345000Y-45145000D02*
X59995000Y-45145000D01*
X57345000Y-93515000D02*
X62645000Y-93515000D01*
X59995000Y-42495000D02*
X62645000Y-42495000D01*
X59995000Y-45145000D02*
X59995000Y-42495000D01*
X62645000Y-42495000D02*
X62645000Y-93515000D01*
%TO.C,R12*%
X83300000Y-89960000D02*
X83300000Y-90730000D01*
X83300000Y-98040000D02*
X83300000Y-97270000D01*
X81930000Y-90730000D02*
X84670000Y-90730000D01*
X84670000Y-97270000D01*
X81930000Y-97270000D01*
X81930000Y-90730000D01*
%TO.C,U8*%
X47050000Y-102800000D02*
X47050000Y-103490000D01*
X47050000Y-113200000D02*
X47050000Y-112510000D01*
X48415000Y-102800000D02*
X47050000Y-102800000D01*
X48415000Y-113200000D02*
X47050000Y-113200000D01*
X44225000Y-103530000D02*
X43885000Y-103060000D01*
X44565000Y-103060000D01*
X44225000Y-103530000D01*
G36*
X44225000Y-103530000D02*
G01*
X43885000Y-103060000D01*
X44565000Y-103060000D01*
X44225000Y-103530000D01*
G37*
%TO.C,J9*%
X126620000Y-130345000D02*
X128000000Y-130345000D01*
X126620000Y-131725000D02*
X126620000Y-130345000D01*
X126620000Y-132995000D02*
X126620000Y-135645000D01*
X126620000Y-132995000D02*
X129380000Y-132995000D01*
X126620000Y-135645000D02*
X129380000Y-135645000D01*
X129380000Y-132995000D02*
X129380000Y-135645000D01*
%TO.C,C2*%
X132181618Y-111425000D02*
X133431618Y-111425000D01*
X132806618Y-110800000D02*
X132806618Y-112050000D01*
X138998700Y-108670000D02*
X138998700Y-121330000D01*
X139038700Y-108670000D02*
X139038700Y-121330000D01*
X139078700Y-108671000D02*
X139078700Y-121329000D01*
X139118700Y-108671000D02*
X139118700Y-121329000D01*
X139158700Y-108672000D02*
X139158700Y-121328000D01*
X139198700Y-108673000D02*
X139198700Y-121327000D01*
X139238700Y-108675000D02*
X139238700Y-121325000D01*
X139278700Y-108676000D02*
X139278700Y-121324000D01*
X139318700Y-108678000D02*
X139318700Y-121322000D01*
X139358700Y-108680000D02*
X139358700Y-121320000D01*
X139398700Y-108683000D02*
X139398700Y-121317000D01*
X139438700Y-108685000D02*
X139438700Y-121315000D01*
X139478700Y-108688000D02*
X139478700Y-121312000D01*
X139518700Y-108691000D02*
X139518700Y-121309000D01*
X139558700Y-108695000D02*
X139558700Y-121305000D01*
X139598700Y-108698000D02*
X139598700Y-121302000D01*
X139638700Y-108702000D02*
X139638700Y-121298000D01*
X139678700Y-108706000D02*
X139678700Y-121294000D01*
X139718700Y-108711000D02*
X139718700Y-121289000D01*
X139758700Y-108716000D02*
X139758700Y-121284000D01*
X139798700Y-108720000D02*
X139798700Y-121280000D01*
X139838700Y-108726000D02*
X139838700Y-121274000D01*
X139878700Y-108731000D02*
X139878700Y-121269000D01*
X139918700Y-108737000D02*
X139918700Y-121263000D01*
X139958700Y-108743000D02*
X139958700Y-121257000D01*
X139998700Y-108749000D02*
X139998700Y-121251000D01*
X140038700Y-108755000D02*
X140038700Y-121245000D01*
X140078700Y-108762000D02*
X140078700Y-113560000D01*
X140078700Y-116440000D02*
X140078700Y-121238000D01*
X140118700Y-108769000D02*
X140118700Y-113560000D01*
X140118700Y-116440000D02*
X140118700Y-121231000D01*
X140158700Y-108777000D02*
X140158700Y-113560000D01*
X140158700Y-116440000D02*
X140158700Y-121223000D01*
X140198700Y-108784000D02*
X140198700Y-113560000D01*
X140198700Y-116440000D02*
X140198700Y-121216000D01*
X140238700Y-108792000D02*
X140238700Y-113560000D01*
X140238700Y-116440000D02*
X140238700Y-121208000D01*
X140278700Y-108800000D02*
X140278700Y-113560000D01*
X140278700Y-116440000D02*
X140278700Y-121200000D01*
X140318700Y-108808000D02*
X140318700Y-113560000D01*
X140318700Y-116440000D02*
X140318700Y-121192000D01*
X140358700Y-108817000D02*
X140358700Y-113560000D01*
X140358700Y-116440000D02*
X140358700Y-121183000D01*
X140398700Y-108826000D02*
X140398700Y-113560000D01*
X140398700Y-116440000D02*
X140398700Y-121174000D01*
X140438700Y-108835000D02*
X140438700Y-113560000D01*
X140438700Y-116440000D02*
X140438700Y-121165000D01*
X140478700Y-108844000D02*
X140478700Y-113560000D01*
X140478700Y-116440000D02*
X140478700Y-121156000D01*
X140518700Y-108854000D02*
X140518700Y-113560000D01*
X140518700Y-116440000D02*
X140518700Y-121146000D01*
X140558700Y-108864000D02*
X140558700Y-113560000D01*
X140558700Y-116440000D02*
X140558700Y-121136000D01*
X140598700Y-108874000D02*
X140598700Y-113560000D01*
X140598700Y-116440000D02*
X140598700Y-121126000D01*
X140638700Y-108885000D02*
X140638700Y-113560000D01*
X140638700Y-116440000D02*
X140638700Y-121115000D01*
X140678700Y-108896000D02*
X140678700Y-113560000D01*
X140678700Y-116440000D02*
X140678700Y-121104000D01*
X140718700Y-108907000D02*
X140718700Y-113560000D01*
X140718700Y-116440000D02*
X140718700Y-121093000D01*
X140758700Y-108918000D02*
X140758700Y-113560000D01*
X140758700Y-116440000D02*
X140758700Y-121082000D01*
X140798700Y-108930000D02*
X140798700Y-113560000D01*
X140798700Y-116440000D02*
X140798700Y-121070000D01*
X140838700Y-108942000D02*
X140838700Y-113560000D01*
X140838700Y-116440000D02*
X140838700Y-121058000D01*
X140878700Y-108954000D02*
X140878700Y-113560000D01*
X140878700Y-116440000D02*
X140878700Y-121046000D01*
X140918700Y-108966000D02*
X140918700Y-113560000D01*
X140918700Y-116440000D02*
X140918700Y-121034000D01*
X140958700Y-108979000D02*
X140958700Y-113560000D01*
X140958700Y-116440000D02*
X140958700Y-121021000D01*
X140998700Y-108992000D02*
X140998700Y-113560000D01*
X140998700Y-116440000D02*
X140998700Y-121008000D01*
X141038700Y-109005000D02*
X141038700Y-113560000D01*
X141038700Y-116440000D02*
X141038700Y-120995000D01*
X141078700Y-109019000D02*
X141078700Y-113560000D01*
X141078700Y-116440000D02*
X141078700Y-120981000D01*
X141118700Y-109033000D02*
X141118700Y-113560000D01*
X141118700Y-116440000D02*
X141118700Y-120967000D01*
X141158700Y-109047000D02*
X141158700Y-113560000D01*
X141158700Y-116440000D02*
X141158700Y-120953000D01*
X141198700Y-109062000D02*
X141198700Y-113560000D01*
X141198700Y-116440000D02*
X141198700Y-120938000D01*
X141238700Y-109077000D02*
X141238700Y-113560000D01*
X141238700Y-116440000D02*
X141238700Y-120923000D01*
X141278700Y-109092000D02*
X141278700Y-113560000D01*
X141278700Y-116440000D02*
X141278700Y-120908000D01*
X141318700Y-109108000D02*
X141318700Y-113560000D01*
X141318700Y-116440000D02*
X141318700Y-120892000D01*
X141358700Y-109123000D02*
X141358700Y-113560000D01*
X141358700Y-116440000D02*
X141358700Y-120877000D01*
X141398700Y-109139000D02*
X141398700Y-113560000D01*
X141398700Y-116440000D02*
X141398700Y-120861000D01*
X141438700Y-109156000D02*
X141438700Y-113560000D01*
X141438700Y-116440000D02*
X141438700Y-120844000D01*
X141478700Y-109173000D02*
X141478700Y-113560000D01*
X141478700Y-116440000D02*
X141478700Y-120827000D01*
X141518700Y-109190000D02*
X141518700Y-113560000D01*
X141518700Y-116440000D02*
X141518700Y-120810000D01*
X141558700Y-109207000D02*
X141558700Y-113560000D01*
X141558700Y-116440000D02*
X141558700Y-120793000D01*
X141598700Y-109225000D02*
X141598700Y-113560000D01*
X141598700Y-116440000D02*
X141598700Y-120775000D01*
X141638700Y-109243000D02*
X141638700Y-113560000D01*
X141638700Y-116440000D02*
X141638700Y-120757000D01*
X141678700Y-109261000D02*
X141678700Y-113560000D01*
X141678700Y-116440000D02*
X141678700Y-120739000D01*
X141718700Y-109280000D02*
X141718700Y-113560000D01*
X141718700Y-116440000D02*
X141718700Y-120720000D01*
X141758700Y-109299000D02*
X141758700Y-113560000D01*
X141758700Y-116440000D02*
X141758700Y-120701000D01*
X141798700Y-109318000D02*
X141798700Y-113560000D01*
X141798700Y-116440000D02*
X141798700Y-120682000D01*
X141838700Y-109338000D02*
X141838700Y-113560000D01*
X141838700Y-116440000D02*
X141838700Y-120662000D01*
X141878700Y-109358000D02*
X141878700Y-113560000D01*
X141878700Y-116440000D02*
X141878700Y-120642000D01*
X141918700Y-109379000D02*
X141918700Y-113560000D01*
X141918700Y-116440000D02*
X141918700Y-120621000D01*
X141958700Y-109399000D02*
X141958700Y-113560000D01*
X141958700Y-116440000D02*
X141958700Y-120601000D01*
X141998700Y-109421000D02*
X141998700Y-113560000D01*
X141998700Y-116440000D02*
X141998700Y-120579000D01*
X142038700Y-109442000D02*
X142038700Y-113560000D01*
X142038700Y-116440000D02*
X142038700Y-120558000D01*
X142078700Y-109464000D02*
X142078700Y-113560000D01*
X142078700Y-116440000D02*
X142078700Y-120536000D01*
X142118700Y-109486000D02*
X142118700Y-113560000D01*
X142118700Y-116440000D02*
X142118700Y-120514000D01*
X142158700Y-109509000D02*
X142158700Y-113560000D01*
X142158700Y-116440000D02*
X142158700Y-120491000D01*
X142198700Y-109532000D02*
X142198700Y-113560000D01*
X142198700Y-116440000D02*
X142198700Y-120468000D01*
X142238700Y-109556000D02*
X142238700Y-113560000D01*
X142238700Y-116440000D02*
X142238700Y-120444000D01*
X142278700Y-109579000D02*
X142278700Y-113560000D01*
X142278700Y-116440000D02*
X142278700Y-120421000D01*
X142318700Y-109604000D02*
X142318700Y-113560000D01*
X142318700Y-116440000D02*
X142318700Y-120396000D01*
X142358700Y-109628000D02*
X142358700Y-113560000D01*
X142358700Y-116440000D02*
X142358700Y-120372000D01*
X142398700Y-109653000D02*
X142398700Y-113560000D01*
X142398700Y-116440000D02*
X142398700Y-120347000D01*
X142438700Y-109679000D02*
X142438700Y-113560000D01*
X142438700Y-116440000D02*
X142438700Y-120321000D01*
X142478700Y-109705000D02*
X142478700Y-113560000D01*
X142478700Y-116440000D02*
X142478700Y-120295000D01*
X142518700Y-109731000D02*
X142518700Y-113560000D01*
X142518700Y-116440000D02*
X142518700Y-120269000D01*
X142558700Y-109758000D02*
X142558700Y-113560000D01*
X142558700Y-116440000D02*
X142558700Y-120242000D01*
X142598700Y-109785000D02*
X142598700Y-113560000D01*
X142598700Y-116440000D02*
X142598700Y-120215000D01*
X142638700Y-109812000D02*
X142638700Y-113560000D01*
X142638700Y-116440000D02*
X142638700Y-120188000D01*
X142678700Y-109841000D02*
X142678700Y-113560000D01*
X142678700Y-116440000D02*
X142678700Y-120159000D01*
X142718700Y-109869000D02*
X142718700Y-113560000D01*
X142718700Y-116440000D02*
X142718700Y-120131000D01*
X142758700Y-109898000D02*
X142758700Y-113560000D01*
X142758700Y-116440000D02*
X142758700Y-120102000D01*
X142798700Y-109928000D02*
X142798700Y-113560000D01*
X142798700Y-116440000D02*
X142798700Y-120072000D01*
X142838700Y-109958000D02*
X142838700Y-113560000D01*
X142838700Y-116440000D02*
X142838700Y-120042000D01*
X142878700Y-109988000D02*
X142878700Y-113560000D01*
X142878700Y-116440000D02*
X142878700Y-120012000D01*
X142918700Y-110019000D02*
X142918700Y-113560000D01*
X142918700Y-116440000D02*
X142918700Y-119981000D01*
X142958700Y-110050000D02*
X142958700Y-119950000D01*
X142998700Y-110082000D02*
X142998700Y-119918000D01*
X143038700Y-110115000D02*
X143038700Y-119885000D01*
X143078700Y-110148000D02*
X143078700Y-119852000D01*
X143118700Y-110182000D02*
X143118700Y-119818000D01*
X143158700Y-110216000D02*
X143158700Y-119784000D01*
X143198700Y-110251000D02*
X143198700Y-119749000D01*
X143238700Y-110286000D02*
X143238700Y-119714000D01*
X143278700Y-110322000D02*
X143278700Y-119678000D01*
X143318700Y-110359000D02*
X143318700Y-119641000D01*
X143358700Y-110396000D02*
X143358700Y-119604000D01*
X143398700Y-110434000D02*
X143398700Y-119566000D01*
X143438700Y-110472000D02*
X143438700Y-119528000D01*
X143478700Y-110512000D02*
X143478700Y-119488000D01*
X143518700Y-110552000D02*
X143518700Y-119448000D01*
X143558700Y-110592000D02*
X143558700Y-119408000D01*
X143598700Y-110634000D02*
X143598700Y-119366000D01*
X143638700Y-110676000D02*
X143638700Y-119324000D01*
X143678700Y-110719000D02*
X143678700Y-119281000D01*
X143718700Y-110762000D02*
X143718700Y-119238000D01*
X143758700Y-110807000D02*
X143758700Y-119193000D01*
X143798700Y-110852000D02*
X143798700Y-119148000D01*
X143838700Y-110899000D02*
X143838700Y-119101000D01*
X143878700Y-110946000D02*
X143878700Y-119054000D01*
X143918700Y-110994000D02*
X143918700Y-119006000D01*
X143958700Y-111043000D02*
X143958700Y-118957000D01*
X143998700Y-111093000D02*
X143998700Y-118907000D01*
X144038700Y-111144000D02*
X144038700Y-118856000D01*
X144078700Y-111197000D02*
X144078700Y-118803000D01*
X144118700Y-111250000D02*
X144118700Y-118750000D01*
X144158700Y-111305000D02*
X144158700Y-118695000D01*
X144198700Y-111361000D02*
X144198700Y-118639000D01*
X144238700Y-111418000D02*
X144238700Y-118582000D01*
X144278700Y-111477000D02*
X144278700Y-118523000D01*
X144318700Y-111537000D02*
X144318700Y-118463000D01*
X144358700Y-111598000D02*
X144358700Y-118402000D01*
X144398700Y-111661000D02*
X144398700Y-118339000D01*
X144438700Y-111726000D02*
X144438700Y-118274000D01*
X144478700Y-111792000D02*
X144478700Y-118208000D01*
X144518700Y-111861000D02*
X144518700Y-118139000D01*
X144558700Y-111931000D02*
X144558700Y-118069000D01*
X144598700Y-112004000D02*
X144598700Y-117996000D01*
X144638700Y-112079000D02*
X144638700Y-117921000D01*
X144678700Y-112157000D02*
X144678700Y-117843000D01*
X144718700Y-112237000D02*
X144718700Y-117763000D01*
X144758700Y-112320000D02*
X144758700Y-117680000D01*
X144798700Y-112406000D02*
X144798700Y-117594000D01*
X144838700Y-112496000D02*
X144838700Y-117504000D01*
X144878700Y-112590000D02*
X144878700Y-117410000D01*
X144918700Y-112688000D02*
X144918700Y-117312000D01*
X144958700Y-112792000D02*
X144958700Y-117208000D01*
X144998700Y-112901000D02*
X144998700Y-117099000D01*
X145038700Y-113016000D02*
X145038700Y-116984000D01*
X145078700Y-113140000D02*
X145078700Y-116860000D01*
X145118700Y-113273000D02*
X145118700Y-116727000D01*
X145158700Y-113418000D02*
X145158700Y-116582000D01*
X145198700Y-113578000D02*
X145198700Y-116422000D01*
X145238700Y-113760000D02*
X145238700Y-116240000D01*
X145278700Y-113973000D02*
X145278700Y-116027000D01*
X145318700Y-114243000D02*
X145318700Y-115757000D01*
X145358700Y-114683000D02*
X145358700Y-115317000D01*
X145368700Y-115000000D02*
G75*
G02*
X132628700Y-115000000I-6370000J0D01*
G01*
X132628700Y-115000000D02*
G75*
G02*
X145368700Y-115000000I6370000J0D01*
G01*
%TO.C,D6*%
X83740000Y-104440000D02*
X85260000Y-104440000D01*
X83740000Y-104490000D02*
X83740000Y-104440000D01*
X83740000Y-106390000D02*
X83740000Y-105610000D01*
X83740000Y-107560000D02*
X83740000Y-107510000D01*
X85260000Y-104440000D02*
X85260000Y-105440000D01*
X85260000Y-106560000D02*
X85260000Y-107560000D01*
X85260000Y-107560000D02*
X83740000Y-107560000D01*
X83200000Y-105620000D02*
X83440000Y-105950000D01*
X82960000Y-105950000D01*
X83200000Y-105620000D01*
G36*
X83440000Y-105950000D02*
G01*
X82960000Y-105950000D01*
X83200000Y-105620000D01*
X83440000Y-105950000D01*
G37*
%TO.C,C22*%
X61591502Y-103685000D02*
X62391502Y-103685000D01*
X61991502Y-103285000D02*
X61991502Y-104085000D01*
X66001200Y-101920000D02*
X66001200Y-110080000D01*
X66041200Y-101920000D02*
X66041200Y-110080000D01*
X66081200Y-101921000D02*
X66081200Y-110079000D01*
X66121200Y-101922000D02*
X66121200Y-110078000D01*
X66161200Y-101923000D02*
X66161200Y-110077000D01*
X66201200Y-101925000D02*
X66201200Y-110075000D01*
X66241200Y-101927000D02*
X66241200Y-110073000D01*
X66281200Y-101930000D02*
X66281200Y-110070000D01*
X66321200Y-101932000D02*
X66321200Y-110068000D01*
X66361200Y-101936000D02*
X66361200Y-110064000D01*
X66401200Y-101939000D02*
X66401200Y-110061000D01*
X66441200Y-101944000D02*
X66441200Y-110056000D01*
X66481200Y-101948000D02*
X66481200Y-110052000D01*
X66521200Y-101953000D02*
X66521200Y-110047000D01*
X66561200Y-101958000D02*
X66561200Y-110042000D01*
X66601200Y-101964000D02*
X66601200Y-110036000D01*
X66641200Y-101970000D02*
X66641200Y-110030000D01*
X66681200Y-101977000D02*
X66681200Y-110023000D01*
X66721200Y-101983000D02*
X66721200Y-104960000D01*
X66721200Y-107040000D02*
X66721200Y-110017000D01*
X66761200Y-101991000D02*
X66761200Y-104960000D01*
X66761200Y-107040000D02*
X66761200Y-110009000D01*
X66801200Y-101998000D02*
X66801200Y-104960000D01*
X66801200Y-107040000D02*
X66801200Y-110002000D01*
X66841200Y-102007000D02*
X66841200Y-104960000D01*
X66841200Y-107040000D02*
X66841200Y-109993000D01*
X66881200Y-102015000D02*
X66881200Y-104960000D01*
X66881200Y-107040000D02*
X66881200Y-109985000D01*
X66921200Y-102024000D02*
X66921200Y-104960000D01*
X66921200Y-107040000D02*
X66921200Y-109976000D01*
X66961200Y-102033000D02*
X66961200Y-104960000D01*
X66961200Y-107040000D02*
X66961200Y-109967000D01*
X67001200Y-102043000D02*
X67001200Y-104960000D01*
X67001200Y-107040000D02*
X67001200Y-109957000D01*
X67041200Y-102053000D02*
X67041200Y-104960000D01*
X67041200Y-107040000D02*
X67041200Y-109947000D01*
X67081200Y-102064000D02*
X67081200Y-104960000D01*
X67081200Y-107040000D02*
X67081200Y-109936000D01*
X67121200Y-102075000D02*
X67121200Y-104960000D01*
X67121200Y-107040000D02*
X67121200Y-109925000D01*
X67161200Y-102087000D02*
X67161200Y-104960000D01*
X67161200Y-107040000D02*
X67161200Y-109913000D01*
X67201200Y-102099000D02*
X67201200Y-104960000D01*
X67201200Y-107040000D02*
X67201200Y-109901000D01*
X67241200Y-102111000D02*
X67241200Y-104960000D01*
X67241200Y-107040000D02*
X67241200Y-109889000D01*
X67281200Y-102124000D02*
X67281200Y-104960000D01*
X67281200Y-107040000D02*
X67281200Y-109876000D01*
X67321200Y-102137000D02*
X67321200Y-104960000D01*
X67321200Y-107040000D02*
X67321200Y-109863000D01*
X67361200Y-102151000D02*
X67361200Y-104960000D01*
X67361200Y-107040000D02*
X67361200Y-109849000D01*
X67401200Y-102165000D02*
X67401200Y-104960000D01*
X67401200Y-107040000D02*
X67401200Y-109835000D01*
X67441200Y-102180000D02*
X67441200Y-104960000D01*
X67441200Y-107040000D02*
X67441200Y-109820000D01*
X67481200Y-102195000D02*
X67481200Y-104960000D01*
X67481200Y-107040000D02*
X67481200Y-109805000D01*
X67521200Y-102211000D02*
X67521200Y-104960000D01*
X67521200Y-107040000D02*
X67521200Y-109789000D01*
X67561200Y-102227000D02*
X67561200Y-104960000D01*
X67561200Y-107040000D02*
X67561200Y-109773000D01*
X67601200Y-102243000D02*
X67601200Y-104960000D01*
X67601200Y-107040000D02*
X67601200Y-109757000D01*
X67641200Y-102260000D02*
X67641200Y-104960000D01*
X67641200Y-107040000D02*
X67641200Y-109740000D01*
X67681200Y-102278000D02*
X67681200Y-104960000D01*
X67681200Y-107040000D02*
X67681200Y-109722000D01*
X67721200Y-102296000D02*
X67721200Y-104960000D01*
X67721200Y-107040000D02*
X67721200Y-109704000D01*
X67761200Y-102315000D02*
X67761200Y-104960000D01*
X67761200Y-107040000D02*
X67761200Y-109685000D01*
X67801200Y-102334000D02*
X67801200Y-104960000D01*
X67801200Y-107040000D02*
X67801200Y-109666000D01*
X67841200Y-102354000D02*
X67841200Y-104960000D01*
X67841200Y-107040000D02*
X67841200Y-109646000D01*
X67881200Y-102374000D02*
X67881200Y-104960000D01*
X67881200Y-107040000D02*
X67881200Y-109626000D01*
X67921200Y-102395000D02*
X67921200Y-104960000D01*
X67921200Y-107040000D02*
X67921200Y-109605000D01*
X67961200Y-102416000D02*
X67961200Y-104960000D01*
X67961200Y-107040000D02*
X67961200Y-109584000D01*
X68001200Y-102438000D02*
X68001200Y-104960000D01*
X68001200Y-107040000D02*
X68001200Y-109562000D01*
X68041200Y-102461000D02*
X68041200Y-104960000D01*
X68041200Y-107040000D02*
X68041200Y-109539000D01*
X68081200Y-102484000D02*
X68081200Y-104960000D01*
X68081200Y-107040000D02*
X68081200Y-109516000D01*
X68121200Y-102507000D02*
X68121200Y-104960000D01*
X68121200Y-107040000D02*
X68121200Y-109493000D01*
X68161200Y-102532000D02*
X68161200Y-104960000D01*
X68161200Y-107040000D02*
X68161200Y-109468000D01*
X68201200Y-102557000D02*
X68201200Y-104960000D01*
X68201200Y-107040000D02*
X68201200Y-109443000D01*
X68241200Y-102582000D02*
X68241200Y-104960000D01*
X68241200Y-107040000D02*
X68241200Y-109418000D01*
X68281200Y-102608000D02*
X68281200Y-104960000D01*
X68281200Y-107040000D02*
X68281200Y-109392000D01*
X68321200Y-102635000D02*
X68321200Y-104960000D01*
X68321200Y-107040000D02*
X68321200Y-109365000D01*
X68361200Y-102663000D02*
X68361200Y-104960000D01*
X68361200Y-107040000D02*
X68361200Y-109337000D01*
X68401200Y-102691000D02*
X68401200Y-104960000D01*
X68401200Y-107040000D02*
X68401200Y-109309000D01*
X68441200Y-102720000D02*
X68441200Y-104960000D01*
X68441200Y-107040000D02*
X68441200Y-109280000D01*
X68481200Y-102750000D02*
X68481200Y-104960000D01*
X68481200Y-107040000D02*
X68481200Y-109250000D01*
X68521200Y-102781000D02*
X68521200Y-104960000D01*
X68521200Y-107040000D02*
X68521200Y-109219000D01*
X68561200Y-102812000D02*
X68561200Y-104960000D01*
X68561200Y-107040000D02*
X68561200Y-109188000D01*
X68601200Y-102844000D02*
X68601200Y-104960000D01*
X68601200Y-107040000D02*
X68601200Y-109156000D01*
X68641200Y-102877000D02*
X68641200Y-104960000D01*
X68641200Y-107040000D02*
X68641200Y-109123000D01*
X68681200Y-102911000D02*
X68681200Y-104960000D01*
X68681200Y-107040000D02*
X68681200Y-109089000D01*
X68721200Y-102945000D02*
X68721200Y-104960000D01*
X68721200Y-107040000D02*
X68721200Y-109055000D01*
X68761200Y-102981000D02*
X68761200Y-104960000D01*
X68761200Y-107040000D02*
X68761200Y-109019000D01*
X68801200Y-103018000D02*
X68801200Y-108982000D01*
X68841200Y-103055000D02*
X68841200Y-108945000D01*
X68881200Y-103094000D02*
X68881200Y-108906000D01*
X68921200Y-103133000D02*
X68921200Y-108867000D01*
X68961200Y-103174000D02*
X68961200Y-108826000D01*
X69001200Y-103216000D02*
X69001200Y-108784000D01*
X69041200Y-103259000D02*
X69041200Y-108741000D01*
X69081200Y-103304000D02*
X69081200Y-108696000D01*
X69121200Y-103349000D02*
X69121200Y-108651000D01*
X69161200Y-103396000D02*
X69161200Y-108604000D01*
X69201200Y-103445000D02*
X69201200Y-108555000D01*
X69241200Y-103495000D02*
X69241200Y-108505000D01*
X69281200Y-103547000D02*
X69281200Y-108453000D01*
X69321200Y-103600000D02*
X69321200Y-108400000D01*
X69361200Y-103656000D02*
X69361200Y-108344000D01*
X69401200Y-103713000D02*
X69401200Y-108287000D01*
X69441200Y-103773000D02*
X69441200Y-108227000D01*
X69481200Y-103835000D02*
X69481200Y-108165000D01*
X69521200Y-103899000D02*
X69521200Y-108101000D01*
X69561200Y-103966000D02*
X69561200Y-108034000D01*
X69601200Y-104036000D02*
X69601200Y-107964000D01*
X69641200Y-104110000D02*
X69641200Y-107890000D01*
X69681200Y-104187000D02*
X69681200Y-107813000D01*
X69721200Y-104269000D02*
X69721200Y-107731000D01*
X69761200Y-104356000D02*
X69761200Y-107644000D01*
X69801200Y-104448000D02*
X69801200Y-107552000D01*
X69841200Y-104547000D02*
X69841200Y-107453000D01*
X69881200Y-104654000D02*
X69881200Y-107346000D01*
X69921200Y-104772000D02*
X69921200Y-107228000D01*
X69961200Y-104903000D02*
X69961200Y-107097000D01*
X70001200Y-105053000D02*
X70001200Y-106947000D01*
X70041200Y-105232000D02*
X70041200Y-106768000D01*
X70081200Y-105467000D02*
X70081200Y-106533000D01*
X70121200Y-106000000D02*
G75*
G02*
X61881200Y-106000000I-4120000J0D01*
G01*
X61881200Y-106000000D02*
G75*
G02*
X70121200Y-106000000I4120000J0D01*
G01*
%TO.C,F2*%
X134950000Y-124400000D02*
X136612000Y-124400000D01*
X134950000Y-127600000D02*
X134950000Y-124400000D01*
X138288000Y-124400000D02*
X145050000Y-124400000D01*
X141712000Y-127600000D02*
X134950000Y-127600000D01*
X145050000Y-124400000D02*
X145050000Y-127600000D01*
X145050000Y-127600000D02*
X143388000Y-127600000D01*
%TO.C,U6*%
X22300000Y-69300000D02*
X47700000Y-69300000D01*
X47700000Y-94700000D01*
X22300000Y-94700000D01*
X22300000Y-69300000D01*
%TO.C,J13*%
X97730000Y-133380000D02*
X97730000Y-132000000D01*
X99110000Y-133380000D02*
X97730000Y-133380000D01*
X100380000Y-130620000D02*
X118270000Y-130620000D01*
X100380000Y-133380000D02*
X100380000Y-130620000D01*
X100380000Y-133380000D02*
X118270000Y-133380000D01*
X118270000Y-133380000D02*
X118270000Y-130620000D01*
%TO.C,R2*%
X59960000Y-32000000D02*
X60730000Y-32000000D01*
X68040000Y-32000000D02*
X67270000Y-32000000D01*
X60730000Y-30630000D02*
X67270000Y-30630000D01*
X67270000Y-33370000D01*
X60730000Y-33370000D01*
X60730000Y-30630000D01*
%TO.C,D4*%
X66260000Y-66000000D02*
X67280000Y-66000000D01*
X68060000Y-64530000D02*
X68060000Y-67470000D01*
X68180000Y-64530000D02*
X68180000Y-67470000D01*
X68300000Y-64530000D02*
X68300000Y-67470000D01*
X73740000Y-66000000D02*
X72720000Y-66000000D01*
X67280000Y-64530000D02*
X72720000Y-64530000D01*
X72720000Y-67470000D01*
X67280000Y-67470000D01*
X67280000Y-64530000D01*
%TO.C,J8*%
X144400000Y-24725000D02*
X144400000Y-25975000D01*
X144700000Y-27275000D02*
X145450000Y-27275000D01*
X145450000Y-27275000D02*
X145450000Y-30225000D01*
X145450000Y-30225000D02*
X151000000Y-30225000D01*
X145650000Y-24725000D02*
X144400000Y-24725000D01*
X156550000Y-27275000D02*
X156550000Y-30225000D01*
X156550000Y-30225000D02*
X151000000Y-30225000D01*
X157300000Y-27275000D02*
X156550000Y-27275000D01*
X144690000Y-25015000D02*
X157310000Y-25015000D01*
X157310000Y-30985000D01*
X144690000Y-30985000D01*
X144690000Y-25015000D01*
X144700000Y-25025000D02*
X146500000Y-25025000D01*
X146500000Y-25775000D01*
X144700000Y-25775000D01*
X144700000Y-25025000D01*
X148000000Y-25025000D02*
X154000000Y-25025000D01*
X154000000Y-25775000D01*
X148000000Y-25775000D01*
X148000000Y-25025000D01*
X155500000Y-25025000D02*
X157300000Y-25025000D01*
X157300000Y-25775000D01*
X155500000Y-25775000D01*
X155500000Y-25025000D01*
%TO.C,C4*%
X155768800Y-114960000D02*
X162228800Y-114960000D01*
X155768800Y-115000000D02*
X162228800Y-115000000D01*
X155769800Y-114920000D02*
X162227800Y-114920000D01*
X155770800Y-114880000D02*
X162226800Y-114880000D01*
X155772800Y-114840000D02*
X162224800Y-114840000D01*
X155774800Y-114800000D02*
X162222800Y-114800000D01*
X155777800Y-114760000D02*
X157958800Y-114760000D01*
X155780800Y-114720000D02*
X157958800Y-114720000D01*
X155784800Y-114680000D02*
X157958800Y-114680000D01*
X155788800Y-114640000D02*
X157958800Y-114640000D01*
X155793800Y-114600000D02*
X157958800Y-114600000D01*
X155798800Y-114560000D02*
X157958800Y-114560000D01*
X155803800Y-114520000D02*
X157958800Y-114520000D01*
X155810800Y-114480000D02*
X157958800Y-114480000D01*
X155816800Y-114440000D02*
X157958800Y-114440000D01*
X155824800Y-114400000D02*
X157958800Y-114400000D01*
X155831800Y-114360000D02*
X157958800Y-114360000D01*
X155839800Y-114320000D02*
X157958800Y-114320000D01*
X155848800Y-114280000D02*
X157958800Y-114280000D01*
X155858800Y-114240000D02*
X157958800Y-114240000D01*
X155867800Y-114200000D02*
X157958800Y-114200000D01*
X155878800Y-114160000D02*
X157958800Y-114160000D01*
X155889800Y-114120000D02*
X157958800Y-114120000D01*
X155900800Y-114080000D02*
X157958800Y-114080000D01*
X155912800Y-114040000D02*
X157958800Y-114040000D01*
X155925800Y-114000000D02*
X157958800Y-114000000D01*
X155938800Y-113960000D02*
X157958800Y-113960000D01*
X155951800Y-113920000D02*
X157958800Y-113920000D01*
X155966800Y-113880000D02*
X157958800Y-113880000D01*
X155981800Y-113840000D02*
X157958800Y-113840000D01*
X155996800Y-113800000D02*
X157958800Y-113800000D01*
X156012800Y-113760000D02*
X157958800Y-113760000D01*
X156029800Y-113720000D02*
X157958800Y-113720000D01*
X156046800Y-113680000D02*
X157958800Y-113680000D01*
X156064800Y-113640000D02*
X157958800Y-113640000D01*
X156083800Y-113600000D02*
X157958800Y-113600000D01*
X156102800Y-113560000D02*
X157958800Y-113560000D01*
X156122800Y-113520000D02*
X157958800Y-113520000D01*
X156143800Y-113480000D02*
X157958800Y-113480000D01*
X156164800Y-113440000D02*
X157958800Y-113440000D01*
X156186800Y-113400000D02*
X157958800Y-113400000D01*
X156209800Y-113360000D02*
X157958800Y-113360000D01*
X156233800Y-113320000D02*
X157958800Y-113320000D01*
X156257800Y-113280000D02*
X157958800Y-113280000D01*
X156282800Y-113240000D02*
X157958800Y-113240000D01*
X156308800Y-113200000D02*
X157958800Y-113200000D01*
X156335800Y-113160000D02*
X157958800Y-113160000D01*
X156362800Y-113120000D02*
X157958800Y-113120000D01*
X156391800Y-113080000D02*
X157958800Y-113080000D01*
X156421800Y-113040000D02*
X157958800Y-113040000D01*
X156451800Y-113000000D02*
X157958800Y-113000000D01*
X156482800Y-112960000D02*
X157958800Y-112960000D01*
X156515800Y-112920000D02*
X157958800Y-112920000D01*
X156548800Y-112880000D02*
X157958800Y-112880000D01*
X156583800Y-112840000D02*
X157958800Y-112840000D01*
X156619800Y-112800000D02*
X157958800Y-112800000D01*
X156656800Y-112760000D02*
X157958800Y-112760000D01*
X156694800Y-112720000D02*
X157958800Y-112720000D01*
X156734800Y-112680000D02*
X161262800Y-112680000D01*
X156775800Y-112640000D02*
X161221800Y-112640000D01*
X156817800Y-112600000D02*
X161179800Y-112600000D01*
X156844800Y-118185241D02*
X157474800Y-118185241D01*
X156861800Y-112560000D02*
X161135800Y-112560000D01*
X156907800Y-112520000D02*
X161089800Y-112520000D01*
X156954800Y-112480000D02*
X161042800Y-112480000D01*
X157003800Y-112440000D02*
X160993800Y-112440000D01*
X157055800Y-112400000D02*
X160941800Y-112400000D01*
X157108800Y-112360000D02*
X160888800Y-112360000D01*
X157159800Y-118500241D02*
X157159800Y-117870241D01*
X157164800Y-112320000D02*
X160832800Y-112320000D01*
X157223800Y-112280000D02*
X160773800Y-112280000D01*
X157284800Y-112240000D02*
X160712800Y-112240000D01*
X157349800Y-112200000D02*
X160647800Y-112200000D01*
X157417800Y-112160000D02*
X160579800Y-112160000D01*
X157489800Y-112120000D02*
X160507800Y-112120000D01*
X157566800Y-112080000D02*
X160430800Y-112080000D01*
X157648800Y-112040000D02*
X160348800Y-112040000D01*
X157737800Y-112000000D02*
X160259800Y-112000000D01*
X157833800Y-111960000D02*
X160163800Y-111960000D01*
X157940800Y-111920000D02*
X160056800Y-111920000D01*
X158059800Y-111880000D02*
X159937800Y-111880000D01*
X158197800Y-111840000D02*
X159799800Y-111840000D01*
X158365800Y-111800000D02*
X159631800Y-111800000D01*
X158596800Y-111760000D02*
X159400800Y-111760000D01*
X160038800Y-112720000D02*
X161302800Y-112720000D01*
X160038800Y-112760000D02*
X161340800Y-112760000D01*
X160038800Y-112800000D02*
X161377800Y-112800000D01*
X160038800Y-112840000D02*
X161413800Y-112840000D01*
X160038800Y-112880000D02*
X161448800Y-112880000D01*
X160038800Y-112920000D02*
X161481800Y-112920000D01*
X160038800Y-112960000D02*
X161514800Y-112960000D01*
X160038800Y-113000000D02*
X161545800Y-113000000D01*
X160038800Y-113040000D02*
X161575800Y-113040000D01*
X160038800Y-113080000D02*
X161605800Y-113080000D01*
X160038800Y-113120000D02*
X161634800Y-113120000D01*
X160038800Y-113160000D02*
X161661800Y-113160000D01*
X160038800Y-113200000D02*
X161688800Y-113200000D01*
X160038800Y-113240000D02*
X161714800Y-113240000D01*
X160038800Y-113280000D02*
X161739800Y-113280000D01*
X160038800Y-113320000D02*
X161763800Y-113320000D01*
X160038800Y-113360000D02*
X161787800Y-113360000D01*
X160038800Y-113400000D02*
X161810800Y-113400000D01*
X160038800Y-113440000D02*
X161832800Y-113440000D01*
X160038800Y-113480000D02*
X161853800Y-113480000D01*
X160038800Y-113520000D02*
X161874800Y-113520000D01*
X160038800Y-113560000D02*
X161894800Y-113560000D01*
X160038800Y-113600000D02*
X161913800Y-113600000D01*
X160038800Y-113640000D02*
X161932800Y-113640000D01*
X160038800Y-113680000D02*
X161950800Y-113680000D01*
X160038800Y-113720000D02*
X161967800Y-113720000D01*
X160038800Y-113760000D02*
X161984800Y-113760000D01*
X160038800Y-113800000D02*
X162000800Y-113800000D01*
X160038800Y-113840000D02*
X162015800Y-113840000D01*
X160038800Y-113880000D02*
X162030800Y-113880000D01*
X160038800Y-113920000D02*
X162045800Y-113920000D01*
X160038800Y-113960000D02*
X162058800Y-113960000D01*
X160038800Y-114000000D02*
X162071800Y-114000000D01*
X160038800Y-114040000D02*
X162084800Y-114040000D01*
X160038800Y-114080000D02*
X162096800Y-114080000D01*
X160038800Y-114120000D02*
X162107800Y-114120000D01*
X160038800Y-114160000D02*
X162118800Y-114160000D01*
X160038800Y-114200000D02*
X162129800Y-114200000D01*
X160038800Y-114240000D02*
X162138800Y-114240000D01*
X160038800Y-114280000D02*
X162148800Y-114280000D01*
X160038800Y-114320000D02*
X162157800Y-114320000D01*
X160038800Y-114360000D02*
X162165800Y-114360000D01*
X160038800Y-114400000D02*
X162172800Y-114400000D01*
X160038800Y-114440000D02*
X162180800Y-114440000D01*
X160038800Y-114480000D02*
X162186800Y-114480000D01*
X160038800Y-114520000D02*
X162193800Y-114520000D01*
X160038800Y-114560000D02*
X162198800Y-114560000D01*
X160038800Y-114600000D02*
X162203800Y-114600000D01*
X160038800Y-114640000D02*
X162208800Y-114640000D01*
X160038800Y-114680000D02*
X162212800Y-114680000D01*
X160038800Y-114720000D02*
X162216800Y-114720000D01*
X160038800Y-114760000D02*
X162219800Y-114760000D01*
X162268800Y-115000000D02*
G75*
G02*
X155728800Y-115000000I-3270000J0D01*
G01*
X155728800Y-115000000D02*
G75*
G02*
X162268800Y-115000000I3270000J0D01*
G01*
%TO.C,R13*%
X59960000Y-36500000D02*
X60730000Y-36500000D01*
X68040000Y-36500000D02*
X67270000Y-36500000D01*
X60730000Y-35130000D02*
X67270000Y-35130000D01*
X67270000Y-37870000D01*
X60730000Y-37870000D01*
X60730000Y-35130000D01*
%TO.C,C23*%
X64630000Y-114380000D02*
X64967000Y-114380000D01*
X64630000Y-119620000D02*
X64630000Y-114380000D01*
X64967000Y-119620000D02*
X64630000Y-119620000D01*
X67033000Y-114380000D02*
X67370000Y-114380000D01*
X67370000Y-114380000D02*
X67370000Y-119620000D01*
X67370000Y-119620000D02*
X67033000Y-119620000D01*
%TO.C,U1*%
X88260000Y-60890000D02*
X88260000Y-64727939D01*
X88260000Y-67290000D02*
X88260000Y-65652061D01*
X88260000Y-74490000D02*
X88260000Y-67290000D01*
X88260000Y-76127939D02*
X88260000Y-74490000D01*
X88260000Y-77052061D02*
X88260000Y-80890000D01*
X88323000Y-81160000D02*
X139417000Y-81160000D01*
X89173520Y-63380000D02*
X88260000Y-63380000D01*
X89173520Y-78400000D02*
X88260000Y-78400000D01*
X134960000Y-74790000D02*
X134960000Y-66990000D01*
X136173520Y-63380000D02*
X91566480Y-63380000D01*
X136173520Y-78400000D02*
X91566480Y-78400000D01*
X136176000Y-66990000D02*
X134960000Y-66990000D01*
X136176000Y-74790000D02*
X134960000Y-74790000D01*
X137200000Y-59960000D02*
X138800000Y-59960000D01*
X138870000Y-60280000D02*
X88870000Y-60280000D01*
X138870000Y-81500000D02*
X88870000Y-81500000D01*
X139417000Y-60620000D02*
X88323000Y-60620000D01*
X139480000Y-60890000D02*
X139480000Y-63380000D01*
X139480000Y-63380000D02*
X138566480Y-63380000D01*
X139480000Y-63380000D02*
X139480000Y-64727940D01*
X139480000Y-65652061D02*
X139480000Y-66655000D01*
X139480000Y-66655000D02*
X139480000Y-75125000D01*
X139480000Y-75125000D02*
X139480000Y-76127939D01*
X139480000Y-77052061D02*
X139480000Y-78400000D01*
X139480000Y-78400000D02*
X138566480Y-78400000D01*
X139480000Y-80890000D02*
X139480000Y-78400000D01*
X139960000Y-66780000D02*
X139960000Y-66990000D01*
X139960000Y-66990000D02*
X138564000Y-66990000D01*
X139960000Y-74790000D02*
X138564000Y-74790000D01*
X139960000Y-75000000D02*
X139960000Y-74790000D01*
X140780000Y-66780000D02*
X139960000Y-66780000D01*
X140780000Y-66780000D02*
X140780000Y-75000000D01*
X140780000Y-75000000D02*
X139960000Y-75000000D01*
X88260000Y-60890000D02*
G75*
G02*
X88870000Y-60280000I609901J99D01*
G01*
X88870000Y-81500000D02*
G75*
G02*
X88260000Y-80890000I0J610000D01*
G01*
X138870000Y-60280000D02*
G75*
G02*
X139480000Y-60890000I0J-610000D01*
G01*
X139480000Y-80890000D02*
G75*
G02*
X138870000Y-81500000I-610000J0D01*
G01*
%TO.C,C5*%
X79630000Y-103380000D02*
X79967000Y-103380000D01*
X79630000Y-108620000D02*
X79630000Y-103380000D01*
X79967000Y-108620000D02*
X79630000Y-108620000D01*
X82033000Y-103380000D02*
X82370000Y-103380000D01*
X82370000Y-103380000D02*
X82370000Y-108620000D01*
X82370000Y-108620000D02*
X82033000Y-108620000D01*
%TO.C,D11*%
X155240000Y-50440000D02*
X156760000Y-50440000D01*
X155240000Y-50490000D02*
X155240000Y-50440000D01*
X155240000Y-52390000D02*
X155240000Y-51610000D01*
X155240000Y-53560000D02*
X155240000Y-53510000D01*
X156760000Y-50440000D02*
X156760000Y-51440000D01*
X156760000Y-52560000D02*
X156760000Y-53560000D01*
X156760000Y-53560000D02*
X155240000Y-53560000D01*
X154700000Y-51620000D02*
X154940000Y-51950000D01*
X154460000Y-51950000D01*
X154700000Y-51620000D01*
G36*
X154940000Y-51950000D02*
G01*
X154460000Y-51950000D01*
X154700000Y-51620000D01*
X154940000Y-51950000D01*
G37*
%TO.C,J5*%
X102400000Y-24725000D02*
X102400000Y-25975000D01*
X102700000Y-27275000D02*
X103450000Y-27275000D01*
X103450000Y-27275000D02*
X103450000Y-30225000D01*
X103450000Y-30225000D02*
X109000000Y-30225000D01*
X103650000Y-24725000D02*
X102400000Y-24725000D01*
X114550000Y-27275000D02*
X114550000Y-30225000D01*
X114550000Y-30225000D02*
X109000000Y-30225000D01*
X115300000Y-27275000D02*
X114550000Y-27275000D01*
X102690000Y-25015000D02*
X115310000Y-25015000D01*
X115310000Y-30985000D01*
X102690000Y-30985000D01*
X102690000Y-25015000D01*
X102700000Y-25025000D02*
X104500000Y-25025000D01*
X104500000Y-25775000D01*
X102700000Y-25775000D01*
X102700000Y-25025000D01*
X106000000Y-25025000D02*
X112000000Y-25025000D01*
X112000000Y-25775000D01*
X106000000Y-25775000D01*
X106000000Y-25025000D01*
X113500000Y-25025000D02*
X115300000Y-25025000D01*
X115300000Y-25775000D01*
X113500000Y-25775000D01*
X113500000Y-25025000D01*
%TO.C,F1*%
X29900000Y-27530000D02*
X29900000Y-34470000D01*
X29900000Y-34470000D02*
X46100000Y-34470000D01*
X36400000Y-29000000D02*
X39600000Y-29000000D01*
X37250000Y-31000000D02*
X38750000Y-31000000D01*
X39600000Y-33000000D02*
X36400000Y-33000000D01*
X46100000Y-27530000D02*
X29900000Y-27530000D01*
X46100000Y-34470000D02*
X46100000Y-27530000D01*
%TO.C,C3*%
X147768800Y-114960000D02*
X154228800Y-114960000D01*
X147768800Y-115000000D02*
X154228800Y-115000000D01*
X147769800Y-114920000D02*
X154227800Y-114920000D01*
X147770800Y-114880000D02*
X154226800Y-114880000D01*
X147772800Y-114840000D02*
X154224800Y-114840000D01*
X147774800Y-114800000D02*
X154222800Y-114800000D01*
X147777800Y-114760000D02*
X149958800Y-114760000D01*
X147780800Y-114720000D02*
X149958800Y-114720000D01*
X147784800Y-114680000D02*
X149958800Y-114680000D01*
X147788800Y-114640000D02*
X149958800Y-114640000D01*
X147793800Y-114600000D02*
X149958800Y-114600000D01*
X147798800Y-114560000D02*
X149958800Y-114560000D01*
X147803800Y-114520000D02*
X149958800Y-114520000D01*
X147810800Y-114480000D02*
X149958800Y-114480000D01*
X147816800Y-114440000D02*
X149958800Y-114440000D01*
X147824800Y-114400000D02*
X149958800Y-114400000D01*
X147831800Y-114360000D02*
X149958800Y-114360000D01*
X147839800Y-114320000D02*
X149958800Y-114320000D01*
X147848800Y-114280000D02*
X149958800Y-114280000D01*
X147858800Y-114240000D02*
X149958800Y-114240000D01*
X147867800Y-114200000D02*
X149958800Y-114200000D01*
X147878800Y-114160000D02*
X149958800Y-114160000D01*
X147889800Y-114120000D02*
X149958800Y-114120000D01*
X147900800Y-114080000D02*
X149958800Y-114080000D01*
X147912800Y-114040000D02*
X149958800Y-114040000D01*
X147925800Y-114000000D02*
X149958800Y-114000000D01*
X147938800Y-113960000D02*
X149958800Y-113960000D01*
X147951800Y-113920000D02*
X149958800Y-113920000D01*
X147966800Y-113880000D02*
X149958800Y-113880000D01*
X147981800Y-113840000D02*
X149958800Y-113840000D01*
X147996800Y-113800000D02*
X149958800Y-113800000D01*
X148012800Y-113760000D02*
X149958800Y-113760000D01*
X148029800Y-113720000D02*
X149958800Y-113720000D01*
X148046800Y-113680000D02*
X149958800Y-113680000D01*
X148064800Y-113640000D02*
X149958800Y-113640000D01*
X148083800Y-113600000D02*
X149958800Y-113600000D01*
X148102800Y-113560000D02*
X149958800Y-113560000D01*
X148122800Y-113520000D02*
X149958800Y-113520000D01*
X148143800Y-113480000D02*
X149958800Y-113480000D01*
X148164800Y-113440000D02*
X149958800Y-113440000D01*
X148186800Y-113400000D02*
X149958800Y-113400000D01*
X148209800Y-113360000D02*
X149958800Y-113360000D01*
X148233800Y-113320000D02*
X149958800Y-113320000D01*
X148257800Y-113280000D02*
X149958800Y-113280000D01*
X148282800Y-113240000D02*
X149958800Y-113240000D01*
X148308800Y-113200000D02*
X149958800Y-113200000D01*
X148335800Y-113160000D02*
X149958800Y-113160000D01*
X148362800Y-113120000D02*
X149958800Y-113120000D01*
X148391800Y-113080000D02*
X149958800Y-113080000D01*
X148421800Y-113040000D02*
X149958800Y-113040000D01*
X148451800Y-113000000D02*
X149958800Y-113000000D01*
X148482800Y-112960000D02*
X149958800Y-112960000D01*
X148515800Y-112920000D02*
X149958800Y-112920000D01*
X148548800Y-112880000D02*
X149958800Y-112880000D01*
X148583800Y-112840000D02*
X149958800Y-112840000D01*
X148619800Y-112800000D02*
X149958800Y-112800000D01*
X148656800Y-112760000D02*
X149958800Y-112760000D01*
X148694800Y-112720000D02*
X149958800Y-112720000D01*
X148734800Y-112680000D02*
X153262800Y-112680000D01*
X148775800Y-112640000D02*
X153221800Y-112640000D01*
X148817800Y-112600000D02*
X153179800Y-112600000D01*
X148844800Y-118185241D02*
X149474800Y-118185241D01*
X148861800Y-112560000D02*
X153135800Y-112560000D01*
X148907800Y-112520000D02*
X153089800Y-112520000D01*
X148954800Y-112480000D02*
X153042800Y-112480000D01*
X149003800Y-112440000D02*
X152993800Y-112440000D01*
X149055800Y-112400000D02*
X152941800Y-112400000D01*
X149108800Y-112360000D02*
X152888800Y-112360000D01*
X149159800Y-118500241D02*
X149159800Y-117870241D01*
X149164800Y-112320000D02*
X152832800Y-112320000D01*
X149223800Y-112280000D02*
X152773800Y-112280000D01*
X149284800Y-112240000D02*
X152712800Y-112240000D01*
X149349800Y-112200000D02*
X152647800Y-112200000D01*
X149417800Y-112160000D02*
X152579800Y-112160000D01*
X149489800Y-112120000D02*
X152507800Y-112120000D01*
X149566800Y-112080000D02*
X152430800Y-112080000D01*
X149648800Y-112040000D02*
X152348800Y-112040000D01*
X149737800Y-112000000D02*
X152259800Y-112000000D01*
X149833800Y-111960000D02*
X152163800Y-111960000D01*
X149940800Y-111920000D02*
X152056800Y-111920000D01*
X150059800Y-111880000D02*
X151937800Y-111880000D01*
X150197800Y-111840000D02*
X151799800Y-111840000D01*
X150365800Y-111800000D02*
X151631800Y-111800000D01*
X150596800Y-111760000D02*
X151400800Y-111760000D01*
X152038800Y-112720000D02*
X153302800Y-112720000D01*
X152038800Y-112760000D02*
X153340800Y-112760000D01*
X152038800Y-112800000D02*
X153377800Y-112800000D01*
X152038800Y-112840000D02*
X153413800Y-112840000D01*
X152038800Y-112880000D02*
X153448800Y-112880000D01*
X152038800Y-112920000D02*
X153481800Y-112920000D01*
X152038800Y-112960000D02*
X153514800Y-112960000D01*
X152038800Y-113000000D02*
X153545800Y-113000000D01*
X152038800Y-113040000D02*
X153575800Y-113040000D01*
X152038800Y-113080000D02*
X153605800Y-113080000D01*
X152038800Y-113120000D02*
X153634800Y-113120000D01*
X152038800Y-113160000D02*
X153661800Y-113160000D01*
X152038800Y-113200000D02*
X153688800Y-113200000D01*
X152038800Y-113240000D02*
X153714800Y-113240000D01*
X152038800Y-113280000D02*
X153739800Y-113280000D01*
X152038800Y-113320000D02*
X153763800Y-113320000D01*
X152038800Y-113360000D02*
X153787800Y-113360000D01*
X152038800Y-113400000D02*
X153810800Y-113400000D01*
X152038800Y-113440000D02*
X153832800Y-113440000D01*
X152038800Y-113480000D02*
X153853800Y-113480000D01*
X152038800Y-113520000D02*
X153874800Y-113520000D01*
X152038800Y-113560000D02*
X153894800Y-113560000D01*
X152038800Y-113600000D02*
X153913800Y-113600000D01*
X152038800Y-113640000D02*
X153932800Y-113640000D01*
X152038800Y-113680000D02*
X153950800Y-113680000D01*
X152038800Y-113720000D02*
X153967800Y-113720000D01*
X152038800Y-113760000D02*
X153984800Y-113760000D01*
X152038800Y-113800000D02*
X154000800Y-113800000D01*
X152038800Y-113840000D02*
X154015800Y-113840000D01*
X152038800Y-113880000D02*
X154030800Y-113880000D01*
X152038800Y-113920000D02*
X154045800Y-113920000D01*
X152038800Y-113960000D02*
X154058800Y-113960000D01*
X152038800Y-114000000D02*
X154071800Y-114000000D01*
X152038800Y-114040000D02*
X154084800Y-114040000D01*
X152038800Y-114080000D02*
X154096800Y-114080000D01*
X152038800Y-114120000D02*
X154107800Y-114120000D01*
X152038800Y-114160000D02*
X154118800Y-114160000D01*
X152038800Y-114200000D02*
X154129800Y-114200000D01*
X152038800Y-114240000D02*
X154138800Y-114240000D01*
X152038800Y-114280000D02*
X154148800Y-114280000D01*
X152038800Y-114320000D02*
X154157800Y-114320000D01*
X152038800Y-114360000D02*
X154165800Y-114360000D01*
X152038800Y-114400000D02*
X154172800Y-114400000D01*
X152038800Y-114440000D02*
X154180800Y-114440000D01*
X152038800Y-114480000D02*
X154186800Y-114480000D01*
X152038800Y-114520000D02*
X154193800Y-114520000D01*
X152038800Y-114560000D02*
X154198800Y-114560000D01*
X152038800Y-114600000D02*
X154203800Y-114600000D01*
X152038800Y-114640000D02*
X154208800Y-114640000D01*
X152038800Y-114680000D02*
X154212800Y-114680000D01*
X152038800Y-114720000D02*
X154216800Y-114720000D01*
X152038800Y-114760000D02*
X154219800Y-114760000D01*
X154268800Y-115000000D02*
G75*
G02*
X147728800Y-115000000I-3270000J0D01*
G01*
X147728800Y-115000000D02*
G75*
G02*
X154268800Y-115000000I3270000J0D01*
G01*
%TO.C,C12*%
X72630000Y-105380000D02*
X72967000Y-105380000D01*
X72630000Y-110620000D02*
X72630000Y-105380000D01*
X72967000Y-110620000D02*
X72630000Y-110620000D01*
X75033000Y-105380000D02*
X75370000Y-105380000D01*
X75370000Y-105380000D02*
X75370000Y-110620000D01*
X75370000Y-110620000D02*
X75033000Y-110620000D01*
%TO.C,R38*%
X94960000Y-120000000D02*
X95730000Y-120000000D01*
X103040000Y-120000000D02*
X102270000Y-120000000D01*
X95730000Y-118630000D02*
X102270000Y-118630000D01*
X102270000Y-121370000D01*
X95730000Y-121370000D01*
X95730000Y-118630000D01*
%TO.C,D8*%
X63240000Y-122440000D02*
X64760000Y-122440000D01*
X63240000Y-122490000D02*
X63240000Y-122440000D01*
X63240000Y-124390000D02*
X63240000Y-123610000D01*
X63240000Y-125560000D02*
X63240000Y-125510000D01*
X64760000Y-122440000D02*
X64760000Y-123440000D01*
X64760000Y-124560000D02*
X64760000Y-125560000D01*
X64760000Y-125560000D02*
X63240000Y-125560000D01*
X62700000Y-123620000D02*
X62940000Y-123950000D01*
X62460000Y-123950000D01*
X62700000Y-123620000D01*
G36*
X62940000Y-123950000D02*
G01*
X62460000Y-123950000D01*
X62700000Y-123620000D01*
X62940000Y-123950000D01*
G37*
%TO.C,J11*%
X155725000Y-44350000D02*
X155725000Y-45600000D01*
X155725000Y-45600000D02*
X156975000Y-45600000D01*
X158275000Y-32700000D02*
X158275000Y-33450000D01*
X158275000Y-33450000D02*
X161225000Y-33450000D01*
X158275000Y-44550000D02*
X161225000Y-44550000D01*
X158275000Y-45300000D02*
X158275000Y-44550000D01*
X161225000Y-33450000D02*
X161225000Y-39000000D01*
X161225000Y-44550000D02*
X161225000Y-39000000D01*
X156015000Y-32690000D02*
X161985000Y-32690000D01*
X161985000Y-45310000D01*
X156015000Y-45310000D01*
X156015000Y-32690000D01*
X156025000Y-32700000D02*
X156775000Y-32700000D01*
X156775000Y-34500000D01*
X156025000Y-34500000D01*
X156025000Y-32700000D01*
X156025000Y-36000000D02*
X156775000Y-36000000D01*
X156775000Y-42000000D01*
X156025000Y-42000000D01*
X156025000Y-36000000D01*
X156025000Y-43500000D02*
X156775000Y-43500000D01*
X156775000Y-45300000D01*
X156025000Y-45300000D01*
X156025000Y-43500000D01*
%TO.C,R6*%
X65960000Y-44000000D02*
X66730000Y-44000000D01*
X74040000Y-44000000D02*
X73270000Y-44000000D01*
X66730000Y-42630000D02*
X73270000Y-42630000D01*
X73270000Y-45370000D01*
X66730000Y-45370000D01*
X66730000Y-42630000D01*
%TO.C,D14*%
X123240000Y-122440000D02*
X124760000Y-122440000D01*
X123240000Y-122490000D02*
X123240000Y-122440000D01*
X123240000Y-124390000D02*
X123240000Y-123610000D01*
X123240000Y-125560000D02*
X123240000Y-125510000D01*
X124760000Y-122440000D02*
X124760000Y-123440000D01*
X124760000Y-124560000D02*
X124760000Y-125560000D01*
X124760000Y-125560000D02*
X123240000Y-125560000D01*
X122700000Y-123620000D02*
X122940000Y-123950000D01*
X122460000Y-123950000D01*
X122700000Y-123620000D01*
G36*
X122940000Y-123950000D02*
G01*
X122460000Y-123950000D01*
X122700000Y-123620000D01*
X122940000Y-123950000D01*
G37*
%TO.C,R5*%
X65960000Y-40000000D02*
X66730000Y-40000000D01*
X74040000Y-40000000D02*
X73270000Y-40000000D01*
X66730000Y-38630000D02*
X73270000Y-38630000D01*
X73270000Y-41370000D01*
X66730000Y-41370000D01*
X66730000Y-38630000D01*
%TO.C,J10*%
X162725000Y-82850000D02*
X162725000Y-84100000D01*
X162725000Y-84100000D02*
X163975000Y-84100000D01*
X165275000Y-76200000D02*
X165275000Y-76950000D01*
X165275000Y-76950000D02*
X168225000Y-76950000D01*
X165275000Y-83050000D02*
X168225000Y-83050000D01*
X165275000Y-83800000D02*
X165275000Y-83050000D01*
X168225000Y-76950000D02*
X168225000Y-80000000D01*
X168225000Y-83050000D02*
X168225000Y-80000000D01*
X163015000Y-76190000D02*
X168985000Y-76190000D01*
X168985000Y-83810000D01*
X163015000Y-83810000D01*
X163015000Y-76190000D01*
X163025000Y-76200000D02*
X163775000Y-76200000D01*
X163775000Y-78000000D01*
X163025000Y-78000000D01*
X163025000Y-76200000D01*
X163025000Y-79500000D02*
X163775000Y-79500000D01*
X163775000Y-80500000D01*
X163025000Y-80500000D01*
X163025000Y-79500000D01*
X163025000Y-82000000D02*
X163775000Y-82000000D01*
X163775000Y-83800000D01*
X163025000Y-83800000D01*
X163025000Y-82000000D01*
%TO.C,J17*%
X64500000Y-127755000D02*
X75500000Y-127755000D01*
X64500000Y-129375000D02*
X75500000Y-129375000D01*
X64500000Y-137125000D02*
X75500000Y-137125000D01*
X64500000Y-138245000D02*
X64500000Y-127755000D01*
X66860000Y-138245000D02*
X64500000Y-138245000D01*
X75500000Y-127755000D02*
X75500000Y-138245000D01*
X75500000Y-138245000D02*
X67460000Y-138245000D01*
X67160000Y-138245000D02*
X67600000Y-138855000D01*
X66720000Y-138855000D01*
X67160000Y-138245000D01*
G36*
X67600000Y-138855000D02*
G01*
X66720000Y-138855000D01*
X67160000Y-138245000D01*
X67600000Y-138855000D01*
G37*
%TO.C,C21*%
X110380000Y-118630000D02*
X115620000Y-118630000D01*
X110380000Y-118967000D02*
X110380000Y-118630000D01*
X110380000Y-121370000D02*
X110380000Y-121033000D01*
X115620000Y-118630000D02*
X115620000Y-118967000D01*
X115620000Y-121033000D02*
X115620000Y-121370000D01*
X115620000Y-121370000D02*
X110380000Y-121370000D01*
%TO.C,R18*%
X27960000Y-124000000D02*
X28730000Y-124000000D01*
X36040000Y-124000000D02*
X35270000Y-124000000D01*
X28730000Y-122630000D02*
X35270000Y-122630000D01*
X35270000Y-125370000D01*
X28730000Y-125370000D01*
X28730000Y-122630000D01*
%TO.C,Q1*%
X64890000Y-49690000D02*
X75110000Y-49690000D01*
X64890000Y-51070000D02*
X75110000Y-51070000D01*
X64890000Y-54310000D02*
X64890000Y-49690000D01*
X68150000Y-49690000D02*
X68150000Y-51070000D01*
X71850000Y-49690000D02*
X71850000Y-51070000D01*
X75110000Y-49690000D02*
X75110000Y-54310000D01*
X75110000Y-54310000D02*
X64890000Y-54310000D01*
%TO.C,D5*%
X65090000Y-69750000D02*
X73600000Y-69750000D01*
X65090000Y-76250000D02*
X65090000Y-69750000D01*
X65090000Y-76250000D02*
X73600000Y-76250000D01*
%TO.C,LED1*%
X61435000Y-24455000D02*
X61435000Y-27545000D01*
X61435000Y-24455170D02*
G75*
G02*
X66985000Y-26000000I2560000J-1544830D01*
G01*
X66985000Y-26000000D02*
G75*
G02*
X61435000Y-27544830I-2990000J0D01*
G01*
X66495000Y-26000000D02*
G75*
G02*
X61495000Y-26000000I-2500000J0D01*
G01*
X61495000Y-26000000D02*
G75*
G02*
X66495000Y-26000000I2500000J0D01*
G01*
%TO.C,R30*%
X94960000Y-128000000D02*
X95730000Y-128000000D01*
X103040000Y-128000000D02*
X102270000Y-128000000D01*
X95730000Y-126630000D02*
X102270000Y-126630000D01*
X102270000Y-129370000D01*
X95730000Y-129370000D01*
X95730000Y-126630000D01*
%TO.C,J4*%
X88400000Y-24725000D02*
X88400000Y-25975000D01*
X88700000Y-27275000D02*
X89450000Y-27275000D01*
X89450000Y-27275000D02*
X89450000Y-30225000D01*
X89450000Y-30225000D02*
X95000000Y-30225000D01*
X89650000Y-24725000D02*
X88400000Y-24725000D01*
X100550000Y-27275000D02*
X100550000Y-30225000D01*
X100550000Y-30225000D02*
X95000000Y-30225000D01*
X101300000Y-27275000D02*
X100550000Y-27275000D01*
X88690000Y-25015000D02*
X101310000Y-25015000D01*
X101310000Y-30985000D01*
X88690000Y-30985000D01*
X88690000Y-25015000D01*
X88700000Y-25025000D02*
X90500000Y-25025000D01*
X90500000Y-25775000D01*
X88700000Y-25775000D01*
X88700000Y-25025000D01*
X92000000Y-25025000D02*
X98000000Y-25025000D01*
X98000000Y-25775000D01*
X92000000Y-25775000D01*
X92000000Y-25025000D01*
X99500000Y-25025000D02*
X101300000Y-25025000D01*
X101300000Y-25775000D01*
X99500000Y-25775000D01*
X99500000Y-25025000D01*
%TO.C,R40*%
X45960000Y-119000000D02*
X46730000Y-119000000D01*
X54040000Y-119000000D02*
X53270000Y-119000000D01*
X46730000Y-117630000D02*
X53270000Y-117630000D01*
X53270000Y-120370000D01*
X46730000Y-120370000D01*
X46730000Y-117630000D01*
%TO.C,C1*%
X118181618Y-111425000D02*
X119431618Y-111425000D01*
X118806618Y-110800000D02*
X118806618Y-112050000D01*
X124998700Y-108670000D02*
X124998700Y-121330000D01*
X125038700Y-108670000D02*
X125038700Y-121330000D01*
X125078700Y-108671000D02*
X125078700Y-121329000D01*
X125118700Y-108671000D02*
X125118700Y-121329000D01*
X125158700Y-108672000D02*
X125158700Y-121328000D01*
X125198700Y-108673000D02*
X125198700Y-121327000D01*
X125238700Y-108675000D02*
X125238700Y-121325000D01*
X125278700Y-108676000D02*
X125278700Y-121324000D01*
X125318700Y-108678000D02*
X125318700Y-121322000D01*
X125358700Y-108680000D02*
X125358700Y-121320000D01*
X125398700Y-108683000D02*
X125398700Y-121317000D01*
X125438700Y-108685000D02*
X125438700Y-121315000D01*
X125478700Y-108688000D02*
X125478700Y-121312000D01*
X125518700Y-108691000D02*
X125518700Y-121309000D01*
X125558700Y-108695000D02*
X125558700Y-121305000D01*
X125598700Y-108698000D02*
X125598700Y-121302000D01*
X125638700Y-108702000D02*
X125638700Y-121298000D01*
X125678700Y-108706000D02*
X125678700Y-121294000D01*
X125718700Y-108711000D02*
X125718700Y-121289000D01*
X125758700Y-108716000D02*
X125758700Y-121284000D01*
X125798700Y-108720000D02*
X125798700Y-121280000D01*
X125838700Y-108726000D02*
X125838700Y-121274000D01*
X125878700Y-108731000D02*
X125878700Y-121269000D01*
X125918700Y-108737000D02*
X125918700Y-121263000D01*
X125958700Y-108743000D02*
X125958700Y-121257000D01*
X125998700Y-108749000D02*
X125998700Y-121251000D01*
X126038700Y-108755000D02*
X126038700Y-121245000D01*
X126078700Y-108762000D02*
X126078700Y-113560000D01*
X126078700Y-116440000D02*
X126078700Y-121238000D01*
X126118700Y-108769000D02*
X126118700Y-113560000D01*
X126118700Y-116440000D02*
X126118700Y-121231000D01*
X126158700Y-108777000D02*
X126158700Y-113560000D01*
X126158700Y-116440000D02*
X126158700Y-121223000D01*
X126198700Y-108784000D02*
X126198700Y-113560000D01*
X126198700Y-116440000D02*
X126198700Y-121216000D01*
X126238700Y-108792000D02*
X126238700Y-113560000D01*
X126238700Y-116440000D02*
X126238700Y-121208000D01*
X126278700Y-108800000D02*
X126278700Y-113560000D01*
X126278700Y-116440000D02*
X126278700Y-121200000D01*
X126318700Y-108808000D02*
X126318700Y-113560000D01*
X126318700Y-116440000D02*
X126318700Y-121192000D01*
X126358700Y-108817000D02*
X126358700Y-113560000D01*
X126358700Y-116440000D02*
X126358700Y-121183000D01*
X126398700Y-108826000D02*
X126398700Y-113560000D01*
X126398700Y-116440000D02*
X126398700Y-121174000D01*
X126438700Y-108835000D02*
X126438700Y-113560000D01*
X126438700Y-116440000D02*
X126438700Y-121165000D01*
X126478700Y-108844000D02*
X126478700Y-113560000D01*
X126478700Y-116440000D02*
X126478700Y-121156000D01*
X126518700Y-108854000D02*
X126518700Y-113560000D01*
X126518700Y-116440000D02*
X126518700Y-121146000D01*
X126558700Y-108864000D02*
X126558700Y-113560000D01*
X126558700Y-116440000D02*
X126558700Y-121136000D01*
X126598700Y-108874000D02*
X126598700Y-113560000D01*
X126598700Y-116440000D02*
X126598700Y-121126000D01*
X126638700Y-108885000D02*
X126638700Y-113560000D01*
X126638700Y-116440000D02*
X126638700Y-121115000D01*
X126678700Y-108896000D02*
X126678700Y-113560000D01*
X126678700Y-116440000D02*
X126678700Y-121104000D01*
X126718700Y-108907000D02*
X126718700Y-113560000D01*
X126718700Y-116440000D02*
X126718700Y-121093000D01*
X126758700Y-108918000D02*
X126758700Y-113560000D01*
X126758700Y-116440000D02*
X126758700Y-121082000D01*
X126798700Y-108930000D02*
X126798700Y-113560000D01*
X126798700Y-116440000D02*
X126798700Y-121070000D01*
X126838700Y-108942000D02*
X126838700Y-113560000D01*
X126838700Y-116440000D02*
X126838700Y-121058000D01*
X126878700Y-108954000D02*
X126878700Y-113560000D01*
X126878700Y-116440000D02*
X126878700Y-121046000D01*
X126918700Y-108966000D02*
X126918700Y-113560000D01*
X126918700Y-116440000D02*
X126918700Y-121034000D01*
X126958700Y-108979000D02*
X126958700Y-113560000D01*
X126958700Y-116440000D02*
X126958700Y-121021000D01*
X126998700Y-108992000D02*
X126998700Y-113560000D01*
X126998700Y-116440000D02*
X126998700Y-121008000D01*
X127038700Y-109005000D02*
X127038700Y-113560000D01*
X127038700Y-116440000D02*
X127038700Y-120995000D01*
X127078700Y-109019000D02*
X127078700Y-113560000D01*
X127078700Y-116440000D02*
X127078700Y-120981000D01*
X127118700Y-109033000D02*
X127118700Y-113560000D01*
X127118700Y-116440000D02*
X127118700Y-120967000D01*
X127158700Y-109047000D02*
X127158700Y-113560000D01*
X127158700Y-116440000D02*
X127158700Y-120953000D01*
X127198700Y-109062000D02*
X127198700Y-113560000D01*
X127198700Y-116440000D02*
X127198700Y-120938000D01*
X127238700Y-109077000D02*
X127238700Y-113560000D01*
X127238700Y-116440000D02*
X127238700Y-120923000D01*
X127278700Y-109092000D02*
X127278700Y-113560000D01*
X127278700Y-116440000D02*
X127278700Y-120908000D01*
X127318700Y-109108000D02*
X127318700Y-113560000D01*
X127318700Y-116440000D02*
X127318700Y-120892000D01*
X127358700Y-109123000D02*
X127358700Y-113560000D01*
X127358700Y-116440000D02*
X127358700Y-120877000D01*
X127398700Y-109139000D02*
X127398700Y-113560000D01*
X127398700Y-116440000D02*
X127398700Y-120861000D01*
X127438700Y-109156000D02*
X127438700Y-113560000D01*
X127438700Y-116440000D02*
X127438700Y-120844000D01*
X127478700Y-109173000D02*
X127478700Y-113560000D01*
X127478700Y-116440000D02*
X127478700Y-120827000D01*
X127518700Y-109190000D02*
X127518700Y-113560000D01*
X127518700Y-116440000D02*
X127518700Y-120810000D01*
X127558700Y-109207000D02*
X127558700Y-113560000D01*
X127558700Y-116440000D02*
X127558700Y-120793000D01*
X127598700Y-109225000D02*
X127598700Y-113560000D01*
X127598700Y-116440000D02*
X127598700Y-120775000D01*
X127638700Y-109243000D02*
X127638700Y-113560000D01*
X127638700Y-116440000D02*
X127638700Y-120757000D01*
X127678700Y-109261000D02*
X127678700Y-113560000D01*
X127678700Y-116440000D02*
X127678700Y-120739000D01*
X127718700Y-109280000D02*
X127718700Y-113560000D01*
X127718700Y-116440000D02*
X127718700Y-120720000D01*
X127758700Y-109299000D02*
X127758700Y-113560000D01*
X127758700Y-116440000D02*
X127758700Y-120701000D01*
X127798700Y-109318000D02*
X127798700Y-113560000D01*
X127798700Y-116440000D02*
X127798700Y-120682000D01*
X127838700Y-109338000D02*
X127838700Y-113560000D01*
X127838700Y-116440000D02*
X127838700Y-120662000D01*
X127878700Y-109358000D02*
X127878700Y-113560000D01*
X127878700Y-116440000D02*
X127878700Y-120642000D01*
X127918700Y-109379000D02*
X127918700Y-113560000D01*
X127918700Y-116440000D02*
X127918700Y-120621000D01*
X127958700Y-109399000D02*
X127958700Y-113560000D01*
X127958700Y-116440000D02*
X127958700Y-120601000D01*
X127998700Y-109421000D02*
X127998700Y-113560000D01*
X127998700Y-116440000D02*
X127998700Y-120579000D01*
X128038700Y-109442000D02*
X128038700Y-113560000D01*
X128038700Y-116440000D02*
X128038700Y-120558000D01*
X128078700Y-109464000D02*
X128078700Y-113560000D01*
X128078700Y-116440000D02*
X128078700Y-120536000D01*
X128118700Y-109486000D02*
X128118700Y-113560000D01*
X128118700Y-116440000D02*
X128118700Y-120514000D01*
X128158700Y-109509000D02*
X128158700Y-113560000D01*
X128158700Y-116440000D02*
X128158700Y-120491000D01*
X128198700Y-109532000D02*
X128198700Y-113560000D01*
X128198700Y-116440000D02*
X128198700Y-120468000D01*
X128238700Y-109556000D02*
X128238700Y-113560000D01*
X128238700Y-116440000D02*
X128238700Y-120444000D01*
X128278700Y-109579000D02*
X128278700Y-113560000D01*
X128278700Y-116440000D02*
X128278700Y-120421000D01*
X128318700Y-109604000D02*
X128318700Y-113560000D01*
X128318700Y-116440000D02*
X128318700Y-120396000D01*
X128358700Y-109628000D02*
X128358700Y-113560000D01*
X128358700Y-116440000D02*
X128358700Y-120372000D01*
X128398700Y-109653000D02*
X128398700Y-113560000D01*
X128398700Y-116440000D02*
X128398700Y-120347000D01*
X128438700Y-109679000D02*
X128438700Y-113560000D01*
X128438700Y-116440000D02*
X128438700Y-120321000D01*
X128478700Y-109705000D02*
X128478700Y-113560000D01*
X128478700Y-116440000D02*
X128478700Y-120295000D01*
X128518700Y-109731000D02*
X128518700Y-113560000D01*
X128518700Y-116440000D02*
X128518700Y-120269000D01*
X128558700Y-109758000D02*
X128558700Y-113560000D01*
X128558700Y-116440000D02*
X128558700Y-120242000D01*
X128598700Y-109785000D02*
X128598700Y-113560000D01*
X128598700Y-116440000D02*
X128598700Y-120215000D01*
X128638700Y-109812000D02*
X128638700Y-113560000D01*
X128638700Y-116440000D02*
X128638700Y-120188000D01*
X128678700Y-109841000D02*
X128678700Y-113560000D01*
X128678700Y-116440000D02*
X128678700Y-120159000D01*
X128718700Y-109869000D02*
X128718700Y-113560000D01*
X128718700Y-116440000D02*
X128718700Y-120131000D01*
X128758700Y-109898000D02*
X128758700Y-113560000D01*
X128758700Y-116440000D02*
X128758700Y-120102000D01*
X128798700Y-109928000D02*
X128798700Y-113560000D01*
X128798700Y-116440000D02*
X128798700Y-120072000D01*
X128838700Y-109958000D02*
X128838700Y-113560000D01*
X128838700Y-116440000D02*
X128838700Y-120042000D01*
X128878700Y-109988000D02*
X128878700Y-113560000D01*
X128878700Y-116440000D02*
X128878700Y-120012000D01*
X128918700Y-110019000D02*
X128918700Y-113560000D01*
X128918700Y-116440000D02*
X128918700Y-119981000D01*
X128958700Y-110050000D02*
X128958700Y-119950000D01*
X128998700Y-110082000D02*
X128998700Y-119918000D01*
X129038700Y-110115000D02*
X129038700Y-119885000D01*
X129078700Y-110148000D02*
X129078700Y-119852000D01*
X129118700Y-110182000D02*
X129118700Y-119818000D01*
X129158700Y-110216000D02*
X129158700Y-119784000D01*
X129198700Y-110251000D02*
X129198700Y-119749000D01*
X129238700Y-110286000D02*
X129238700Y-119714000D01*
X129278700Y-110322000D02*
X129278700Y-119678000D01*
X129318700Y-110359000D02*
X129318700Y-119641000D01*
X129358700Y-110396000D02*
X129358700Y-119604000D01*
X129398700Y-110434000D02*
X129398700Y-119566000D01*
X129438700Y-110472000D02*
X129438700Y-119528000D01*
X129478700Y-110512000D02*
X129478700Y-119488000D01*
X129518700Y-110552000D02*
X129518700Y-119448000D01*
X129558700Y-110592000D02*
X129558700Y-119408000D01*
X129598700Y-110634000D02*
X129598700Y-119366000D01*
X129638700Y-110676000D02*
X129638700Y-119324000D01*
X129678700Y-110719000D02*
X129678700Y-119281000D01*
X129718700Y-110762000D02*
X129718700Y-119238000D01*
X129758700Y-110807000D02*
X129758700Y-119193000D01*
X129798700Y-110852000D02*
X129798700Y-119148000D01*
X129838700Y-110899000D02*
X129838700Y-119101000D01*
X129878700Y-110946000D02*
X129878700Y-119054000D01*
X129918700Y-110994000D02*
X129918700Y-119006000D01*
X129958700Y-111043000D02*
X129958700Y-118957000D01*
X129998700Y-111093000D02*
X129998700Y-118907000D01*
X130038700Y-111144000D02*
X130038700Y-118856000D01*
X130078700Y-111197000D02*
X130078700Y-118803000D01*
X130118700Y-111250000D02*
X130118700Y-118750000D01*
X130158700Y-111305000D02*
X130158700Y-118695000D01*
X130198700Y-111361000D02*
X130198700Y-118639000D01*
X130238700Y-111418000D02*
X130238700Y-118582000D01*
X130278700Y-111477000D02*
X130278700Y-118523000D01*
X130318700Y-111537000D02*
X130318700Y-118463000D01*
X130358700Y-111598000D02*
X130358700Y-118402000D01*
X130398700Y-111661000D02*
X130398700Y-118339000D01*
X130438700Y-111726000D02*
X130438700Y-118274000D01*
X130478700Y-111792000D02*
X130478700Y-118208000D01*
X130518700Y-111861000D02*
X130518700Y-118139000D01*
X130558700Y-111931000D02*
X130558700Y-118069000D01*
X130598700Y-112004000D02*
X130598700Y-117996000D01*
X130638700Y-112079000D02*
X130638700Y-117921000D01*
X130678700Y-112157000D02*
X130678700Y-117843000D01*
X130718700Y-112237000D02*
X130718700Y-117763000D01*
X130758700Y-112320000D02*
X130758700Y-117680000D01*
X130798700Y-112406000D02*
X130798700Y-117594000D01*
X130838700Y-112496000D02*
X130838700Y-117504000D01*
X130878700Y-112590000D02*
X130878700Y-117410000D01*
X130918700Y-112688000D02*
X130918700Y-117312000D01*
X130958700Y-112792000D02*
X130958700Y-117208000D01*
X130998700Y-112901000D02*
X130998700Y-117099000D01*
X131038700Y-113016000D02*
X131038700Y-116984000D01*
X131078700Y-113140000D02*
X131078700Y-116860000D01*
X131118700Y-113273000D02*
X131118700Y-116727000D01*
X131158700Y-113418000D02*
X131158700Y-116582000D01*
X131198700Y-113578000D02*
X131198700Y-116422000D01*
X131238700Y-113760000D02*
X131238700Y-116240000D01*
X131278700Y-113973000D02*
X131278700Y-116027000D01*
X131318700Y-114243000D02*
X131318700Y-115757000D01*
X131358700Y-114683000D02*
X131358700Y-115317000D01*
X131368700Y-115000000D02*
G75*
G02*
X118628700Y-115000000I-6370000J0D01*
G01*
X118628700Y-115000000D02*
G75*
G02*
X131368700Y-115000000I6370000J0D01*
G01*
%TO.C,R19*%
X45960000Y-124000000D02*
X46730000Y-124000000D01*
X54040000Y-124000000D02*
X53270000Y-124000000D01*
X46730000Y-122630000D02*
X53270000Y-122630000D01*
X53270000Y-125370000D01*
X46730000Y-125370000D01*
X46730000Y-122630000D01*
%TO.C,J16*%
X48500000Y-127755000D02*
X59500000Y-127755000D01*
X48500000Y-129375000D02*
X59500000Y-129375000D01*
X48500000Y-137125000D02*
X59500000Y-137125000D01*
X48500000Y-138245000D02*
X48500000Y-127755000D01*
X50860000Y-138245000D02*
X48500000Y-138245000D01*
X59500000Y-127755000D02*
X59500000Y-138245000D01*
X59500000Y-138245000D02*
X51460000Y-138245000D01*
X51160000Y-138245000D02*
X51600000Y-138855000D01*
X50720000Y-138855000D01*
X51160000Y-138245000D01*
G36*
X51600000Y-138855000D02*
G01*
X50720000Y-138855000D01*
X51160000Y-138245000D01*
X51600000Y-138855000D01*
G37*
%TO.C,J12*%
X139730000Y-133380000D02*
X139730000Y-132000000D01*
X141110000Y-133380000D02*
X139730000Y-133380000D01*
X142380000Y-130620000D02*
X160270000Y-130620000D01*
X142380000Y-133380000D02*
X142380000Y-130620000D01*
X142380000Y-133380000D02*
X160270000Y-133380000D01*
X160270000Y-133380000D02*
X160270000Y-130620000D01*
%TO.C,J22*%
X80500000Y-127755000D02*
X91500000Y-127755000D01*
X80500000Y-129375000D02*
X91500000Y-129375000D01*
X80500000Y-137125000D02*
X91500000Y-137125000D01*
X80500000Y-138245000D02*
X80500000Y-127755000D01*
X82860000Y-138245000D02*
X80500000Y-138245000D01*
X91500000Y-127755000D02*
X91500000Y-138245000D01*
X91500000Y-138245000D02*
X83460000Y-138245000D01*
X83160000Y-138245000D02*
X83600000Y-138855000D01*
X82720000Y-138855000D01*
X83160000Y-138245000D01*
G36*
X83600000Y-138855000D02*
G01*
X82720000Y-138855000D01*
X83160000Y-138245000D01*
X83600000Y-138855000D01*
G37*
%TO.C,R16*%
X108960000Y-124000000D02*
X109730000Y-124000000D01*
X117040000Y-124000000D02*
X116270000Y-124000000D01*
X109730000Y-122630000D02*
X116270000Y-122630000D01*
X116270000Y-125370000D01*
X109730000Y-125370000D01*
X109730000Y-122630000D01*
%TO.C,U7*%
X29050000Y-102800000D02*
X29050000Y-103490000D01*
X29050000Y-113200000D02*
X29050000Y-112510000D01*
X30415000Y-102800000D02*
X29050000Y-102800000D01*
X30415000Y-113200000D02*
X29050000Y-113200000D01*
X26225000Y-103530000D02*
X25885000Y-103060000D01*
X26565000Y-103060000D01*
X26225000Y-103530000D01*
G36*
X26225000Y-103530000D02*
G01*
X25885000Y-103060000D01*
X26565000Y-103060000D01*
X26225000Y-103530000D01*
G37*
%TO.C,U5*%
X22300000Y-37300000D02*
X47700000Y-37300000D01*
X47700000Y-62700000D01*
X22300000Y-62700000D01*
X22300000Y-37300000D01*
%TO.C,R9*%
X73960000Y-119000000D02*
X74730000Y-119000000D01*
X82040000Y-119000000D02*
X81270000Y-119000000D01*
X74730000Y-117630000D02*
X81270000Y-117630000D01*
X81270000Y-120370000D01*
X74730000Y-120370000D01*
X74730000Y-117630000D01*
%TO.C,LED5*%
X53435000Y-24455000D02*
X53435000Y-27545000D01*
X53435000Y-24455170D02*
G75*
G02*
X58985000Y-26000000I2560000J-1544830D01*
G01*
X58985000Y-26000000D02*
G75*
G02*
X53435000Y-27544830I-2990000J0D01*
G01*
X58495000Y-26000000D02*
G75*
G02*
X53495000Y-26000000I-2500000J0D01*
G01*
X53495000Y-26000000D02*
G75*
G02*
X58495000Y-26000000I2500000J0D01*
G01*
%TO.C,J3*%
X74400000Y-24725000D02*
X74400000Y-25975000D01*
X74700000Y-27275000D02*
X75450000Y-27275000D01*
X75450000Y-27275000D02*
X75450000Y-30225000D01*
X75450000Y-30225000D02*
X81000000Y-30225000D01*
X75650000Y-24725000D02*
X74400000Y-24725000D01*
X86550000Y-27275000D02*
X86550000Y-30225000D01*
X86550000Y-30225000D02*
X81000000Y-30225000D01*
X87300000Y-27275000D02*
X86550000Y-27275000D01*
X74690000Y-25015000D02*
X87310000Y-25015000D01*
X87310000Y-30985000D01*
X74690000Y-30985000D01*
X74690000Y-25015000D01*
X74700000Y-25025000D02*
X76500000Y-25025000D01*
X76500000Y-25775000D01*
X74700000Y-25775000D01*
X74700000Y-25025000D01*
X78000000Y-25025000D02*
X84000000Y-25025000D01*
X84000000Y-25775000D01*
X78000000Y-25775000D01*
X78000000Y-25025000D01*
X85500000Y-25025000D02*
X87300000Y-25025000D01*
X87300000Y-25775000D01*
X85500000Y-25775000D01*
X85500000Y-25025000D01*
%TD*%
M02*
