M48
; DRILL file KiCad 10.0.3 date 2026-07-02T07:39:28
; FORMAT={-:-/ absolute / metric / decimal}
; #@! TF.CreationDate,2026-07-02T07:39:28+02:00
; #@! TF.GenerationSoftware,Kicad,Pcbnew,10.0.3
; #@! TF.FileFunction,MixedPlating,1,2
FMAT,2
METRIC
; #@! TA.AperFunction,Plated,PTH,ViaDrill
T1C0.400
; #@! TA.AperFunction,Plated,PTH,ViaDrill
T2C0.600
; #@! TA.AperFunction,Plated,PTH,ViaDrill
T3C0.800
; #@! TA.AperFunction,Plated,PTH,ComponentDrill
T4C0.800
; #@! TA.AperFunction,Plated,PTH,ComponentDrill
T5C0.900
; #@! TA.AperFunction,Plated,PTH,ComponentDrill
T6C0.950
; #@! TA.AperFunction,Plated,PTH,ComponentDrill
T7C1.000
; #@! TA.AperFunction,Plated,PTH,ComponentDrill
T8C1.010
; #@! TA.AperFunction,Plated,PTH,ComponentDrill
T9C1.100
; #@! TA.AperFunction,Plated,PTH,ComponentDrill
T10C1.200
; #@! TA.AperFunction,Plated,PTH,ComponentDrill
T11C1.600
; #@! TA.AperFunction,Plated,PTH,ComponentDrill
T12C1.780
; #@! TA.AperFunction,NonPlated,NPTH,ComponentDrill
T13C2.300
; #@! TA.AperFunction,NonPlated,NPTH,ComponentDrill
T14C2.700
; #@! TA.AperFunction,NonPlated,NPTH,ComponentDrill
T15C3.200
%
G90
G05
T1
X24.0Y-31.0
X24.0Y-38.0
X24.0Y-45.0
X24.0Y-52.0
X24.0Y-66.0
X24.0Y-73.0
X24.0Y-80.0
X24.0Y-87.0
X24.0Y-122.0
X24.0Y-129.0
X31.0Y-24.0
X31.0Y-38.0
X31.0Y-45.0
X31.0Y-52.0
X31.0Y-66.0
X31.0Y-73.0
X31.0Y-80.0
X31.0Y-87.0
X31.0Y-101.0
X31.0Y-129.0
X31.0Y-136.0
X38.0Y-24.0
X38.0Y-31.0
X38.0Y-45.0
X38.0Y-66.0
X38.0Y-73.0
X38.0Y-80.0
X38.0Y-87.0
X38.0Y-101.0
X38.0Y-129.0
X38.0Y-136.0
X43.11Y-115.264
X45.0Y-24.0
X45.0Y-66.0
X45.0Y-80.0
X45.0Y-87.0
X45.0Y-101.0
X45.0Y-136.0
X52.0Y-24.0
X52.0Y-31.0
X52.48Y-127.509
X56.444Y-96.717
X56.951Y-53.955
X57.566Y-97.52
X58.022Y-119.481
X59.0Y-24.0
X59.146Y-94.567
X60.113Y-93.866
X60.135Y-111.892
X60.135Y-124.95
X63.076Y-87.751
X64.065Y-121.731
X64.363Y-71.815
X64.419Y-54.035
X64.613Y-73.085
X64.932Y-69.302
X66.0Y-31.0
X66.0Y-101.0
X67.429Y-58.236
X69.885Y-44.668
X70.124Y-47.59
X70.844Y-73.739
X72.803Y-60.719
X73.0Y-24.0
X73.136Y-70.426
X74.298Y-77.831
X77.214Y-49.774
X80.0Y-24.0
X80.087Y-63.203
X81.068Y-69.172
X82.537Y-58.897
X84.757Y-71.573
X84.764Y-63.131
X84.917Y-67.992
X85.03Y-66.886
X86.184Y-69.288
X87.0Y-24.0
X87.0Y-101.0
X87.0Y-115.0
X92.75Y-59.962
X92.9Y-71.725
X93.702Y-60.414
X94.0Y-24.0
X96.551Y-67.734
X99.5Y-78.363
X100.586Y-29.877
X100.61Y-109.758
X101.0Y-24.0
X101.0Y-115.0
X101.0Y-122.0
X101.24Y-67.107
X101.318Y-107.937
X102.007Y-52.991
X102.037Y-103.264
X102.44Y-67.699
X102.764Y-99.386
X103.787Y-70.02
X104.98Y-68.164
X107.385Y-44.411
X108.0Y-24.0
X108.844Y-67.674
X108.894Y-63.773
X110.155Y-66.405
X110.25Y-35.634
X111.906Y-56.177
X115.0Y-24.0
X115.0Y-73.0
X115.0Y-94.0
X115.0Y-101.0
X115.0Y-115.0
X117.68Y-56.992
X119.377Y-54.411
X121.524Y-69.318
X122.0Y-24.0
X122.0Y-73.0
X122.0Y-87.0
X122.0Y-94.0
X122.0Y-101.0
X122.0Y-108.0
X124.03Y-60.235
X127.297Y-60.239
X128.543Y-83.143
X129.0Y-24.0
X129.0Y-38.0
X129.0Y-108.0
X129.0Y-129.0
X133.948Y-60.973
X136.0Y-24.0
X136.0Y-66.0
X136.0Y-73.0
X136.0Y-122.0
X143.0Y-24.0
X143.0Y-80.0
X143.0Y-87.0
X143.0Y-94.0
X143.0Y-101.0
X143.258Y-68.794
X144.17Y-60.239
X150.0Y-24.0
X150.0Y-38.0
X150.0Y-45.0
X150.0Y-52.0
X150.0Y-59.0
X150.0Y-66.0
X150.0Y-73.0
X150.0Y-80.0
X150.0Y-87.0
X150.0Y-94.0
X150.0Y-101.0
X150.0Y-108.0
X157.0Y-24.0
X157.0Y-31.0
X157.0Y-59.0
X157.0Y-66.0
X157.0Y-73.0
X157.0Y-80.0
X157.0Y-129.0
X157.157Y-122.651
X164.0Y-31.0
X164.0Y-38.0
X164.0Y-45.0
X164.0Y-52.0
X164.0Y-59.0
X164.0Y-66.0
X164.0Y-73.0
X164.0Y-87.0
X164.0Y-94.0
X164.0Y-101.0
X164.0Y-108.0
X164.0Y-115.0
X164.0Y-122.0
X164.0Y-129.0
T2
X28.402Y-102.877
X87.993Y-64.366
T3
X26.225Y-113.811
X44.032Y-113.408
X49.289Y-115.118
X60.135Y-108.361
X62.441Y-98.386
X65.36Y-138.2
X77.261Y-121.796
X77.761Y-104.804
X92.141Y-95.509
T4
X26.92Y-119.0
X26.92Y-124.0
X37.08Y-119.0
X37.08Y-124.0
X44.92Y-119.0
X44.92Y-124.0
X55.08Y-119.0
X55.08Y-124.0
X58.92Y-32.0
X58.92Y-36.5
X64.251Y-106.0
X64.92Y-40.0
X64.92Y-44.0
X64.92Y-60.0
X66.0Y-114.5
X66.0Y-119.5
X67.751Y-106.0
X69.08Y-32.0
X69.08Y-36.5
X72.92Y-115.0
X72.92Y-119.0
X72.92Y-123.0
X74.0Y-105.5
X74.0Y-110.5
X75.08Y-40.0
X75.08Y-44.0
X75.08Y-60.0
X80.0Y-88.92
X80.0Y-99.08
X81.0Y-103.5
X81.0Y-108.5
X83.08Y-115.0
X83.08Y-119.0
X83.08Y-123.0
X83.3Y-88.92
X83.3Y-99.08
X93.92Y-120.0
X93.92Y-124.0
X93.92Y-128.0
X104.08Y-120.0
X104.08Y-124.0
X104.08Y-128.0
X107.92Y-124.0
X107.92Y-128.0
X110.5Y-120.0
X115.5Y-120.0
X118.08Y-124.0
X118.08Y-128.0
X148.0Y-32.42
X148.0Y-42.58
X150.999Y-113.75
X150.999Y-116.25
X152.0Y-32.42
X152.0Y-42.58
X158.999Y-113.75
X158.999Y-116.25
T5
X54.725Y-26.0
X57.265Y-26.0
X62.725Y-26.0
X65.265Y-26.0
T6
X77.25Y-27.475
X79.75Y-27.475
X82.25Y-27.475
X84.75Y-27.475
X91.25Y-27.475
X93.75Y-27.475
X96.25Y-27.475
X98.75Y-27.475
X105.25Y-27.475
X107.75Y-27.475
X110.25Y-27.475
X112.75Y-27.475
X119.25Y-27.475
X121.75Y-27.475
X124.25Y-27.475
X126.75Y-27.475
X133.25Y-27.475
X135.75Y-27.475
X138.25Y-27.475
X140.75Y-27.475
X147.25Y-27.475
X149.75Y-27.475
X152.25Y-27.475
X154.75Y-27.475
X158.475Y-35.25
X158.475Y-37.75
X158.475Y-40.25
X158.475Y-42.75
T7
X58.725Y-43.875
X58.725Y-46.415
X58.725Y-48.955
X58.725Y-51.495
X58.725Y-54.035
X58.725Y-56.575
X58.725Y-59.115
X58.725Y-61.655
X58.725Y-64.195
X58.725Y-66.735
X58.725Y-69.275
X58.725Y-71.815
X58.725Y-74.355
X58.725Y-76.895
X58.725Y-79.435
X58.725Y-81.975
X58.725Y-84.515
X58.725Y-87.055
X58.725Y-89.595
X58.725Y-92.135
X61.265Y-43.875
X61.265Y-46.415
X61.265Y-48.955
X61.265Y-51.495
X61.265Y-54.035
X61.265Y-56.575
X61.265Y-59.115
X61.265Y-61.655
X61.265Y-64.195
X61.265Y-66.735
X61.265Y-69.275
X61.265Y-71.815
X61.265Y-74.355
X61.265Y-76.895
X61.265Y-79.435
X61.265Y-81.975
X61.265Y-84.515
X61.265Y-87.055
X61.265Y-89.595
X61.265Y-92.135
X89.74Y-62.0
X89.74Y-79.78
X89.97Y-68.35
X89.97Y-70.89
X89.97Y-73.43
X92.28Y-62.0
X92.28Y-79.78
X93.37Y-47.23
X93.37Y-49.77
X94.82Y-62.0
X94.82Y-79.78
X95.91Y-47.23
X95.91Y-49.77
X97.36Y-62.0
X97.36Y-79.78
X98.45Y-47.23
X98.45Y-49.77
X99.11Y-132.0
X99.9Y-62.0
X99.9Y-79.78
X100.99Y-47.23
X100.99Y-49.77
X101.65Y-132.0
X102.44Y-62.0
X102.44Y-79.78
X103.53Y-47.23
X103.53Y-49.77
X104.19Y-132.0
X104.98Y-62.0
X104.98Y-79.78
X106.07Y-47.23
X106.07Y-49.77
X106.73Y-132.0
X107.52Y-62.0
X107.52Y-79.78
X108.61Y-47.23
X108.61Y-49.77
X109.27Y-132.0
X110.06Y-62.0
X110.06Y-79.78
X111.15Y-47.23
X111.15Y-49.77
X111.81Y-132.0
X112.6Y-62.0
X112.6Y-79.78
X113.69Y-47.23
X113.69Y-49.77
X114.35Y-132.0
X115.14Y-62.0
X115.14Y-79.78
X116.23Y-47.23
X116.23Y-49.77
X116.89Y-132.0
X117.68Y-62.0
X117.68Y-79.78
X118.77Y-47.23
X118.77Y-49.77
X120.22Y-62.0
X120.22Y-79.78
X121.31Y-47.23
X121.31Y-49.77
X122.76Y-62.0
X122.76Y-79.78
X123.85Y-47.23
X123.85Y-49.77
X125.3Y-62.0
X125.3Y-79.78
X126.39Y-47.23
X126.39Y-49.77
X127.84Y-62.0
X127.84Y-79.78
X128.0Y-131.725
X128.0Y-134.265
X128.93Y-47.23
X128.93Y-49.77
X130.38Y-62.0
X130.38Y-79.78
X131.47Y-47.23
X131.47Y-49.77
X132.92Y-62.0
X132.92Y-79.78
X134.01Y-47.23
X134.01Y-49.77
X135.46Y-62.0
X135.46Y-79.78
X136.55Y-47.23
X136.55Y-49.77
X138.0Y-62.0
X138.0Y-79.78
X139.09Y-47.23
X139.09Y-49.77
X141.11Y-132.0
X141.63Y-47.23
X141.63Y-49.77
X143.65Y-132.0
X146.19Y-132.0
X148.73Y-132.0
X151.27Y-132.0
X153.81Y-132.0
X156.35Y-132.0
X158.89Y-132.0
X165.475Y-78.75
X165.475Y-81.25
T8
X137.45Y-125.4
X142.55Y-126.6
T9
X28.65Y-58.89
X28.65Y-61.43
X28.65Y-90.89
X28.65Y-93.43
X31.19Y-58.89
X31.19Y-61.43
X31.19Y-90.89
X31.19Y-93.43
X33.73Y-58.89
X33.73Y-61.43
X33.73Y-90.89
X33.73Y-93.43
X36.27Y-58.89
X36.27Y-61.43
X36.27Y-90.89
X36.27Y-93.43
X38.81Y-58.89
X38.81Y-61.43
X38.81Y-90.89
X38.81Y-93.43
X41.35Y-58.89
X41.35Y-61.43
X41.35Y-90.89
X41.35Y-93.43
X64.92Y-66.0
X67.46Y-52.95
X70.0Y-52.95
X72.54Y-52.95
X75.08Y-66.0
T10
X122.499Y-115.0
X127.499Y-115.0
X136.499Y-115.0
X141.499Y-115.0
T11
X51.16Y-132.775
X56.24Y-132.775
X67.16Y-132.775
X72.24Y-132.775
X83.16Y-132.775
X88.24Y-132.775
T12
X33.04Y-29.3
X33.04Y-32.7
X42.96Y-29.3
X42.96Y-32.7
T13
X24.5Y-60.5
X24.5Y-92.5
X45.5Y-39.5
X45.5Y-60.5
X45.5Y-71.5
X45.5Y-92.5
T14
X88.5Y-48.5
X88.5Y-97.5
X146.5Y-48.5
X146.5Y-97.5
T15
X25.0Y-25.0
X25.0Y-135.0
X165.0Y-25.0
X165.0Y-135.0
M30
