%TF.GenerationSoftware,KiCad,Pcbnew,10.0.3*%
%TF.CreationDate,2026-07-02T08:25:51+02:00*%
%TF.ProjectId,vanchor-helm,76616e63-686f-4722-9d68-656c6d2e6b69,rev?*%
%TF.SameCoordinates,Original*%
%TF.FileFunction,Soldermask,Top*%
%TF.FilePolarity,Negative*%
%FSLAX46Y46*%
G04 Gerber Fmt 4.6, Leading zero omitted, Abs format (unit mm)*
G04 Created by KiCad (PCBNEW 10.0.3) date 2026-07-02 08:25:51*
%MOMM*%
%LPD*%
G01*
G04 APERTURE LIST*
G04 Aperture macros list*
%AMRoundRect*
0 Rectangle with rounded corners*
0 $1 Rounding radius*
0 $2 $3 $4 $5 $6 $7 $8 $9 X,Y pos of 4 corners*
0 Add a 4 corners polygon primitive as box body*
4,1,4,$2,$3,$4,$5,$6,$7,$8,$9,$2,$3,0*
0 Add four circle primitives for the rounded corners*
1,1,$1+$1,$2,$3*
1,1,$1+$1,$4,$5*
1,1,$1+$1,$6,$7*
1,1,$1+$1,$8,$9*
0 Add four rect primitives between the rounded corners*
20,1,$1+$1,$2,$3,$4,$5,0*
20,1,$1+$1,$4,$5,$6,$7,0*
20,1,$1+$1,$6,$7,$8,$9,0*
20,1,$1+$1,$8,$9,$2,$3,0*%
%AMFreePoly0*
4,1,37,0.603843,0.796157,0.639018,0.796157,0.711114,0.766294,0.766294,0.711114,0.796157,0.639018,0.796157,0.603843,0.800000,0.600000,0.800000,-0.600000,0.796157,-0.603843,0.796157,-0.639018,0.766294,-0.711114,0.711114,-0.766294,0.639018,-0.796157,0.603843,-0.796157,0.600000,-0.800000,0.000000,-0.800000,0.000000,-0.796148,-0.078414,-0.796148,-0.232228,-0.765552,-0.377117,-0.705537,
-0.507515,-0.618408,-0.618408,-0.507515,-0.705537,-0.377117,-0.765552,-0.232228,-0.796148,-0.078414,-0.796148,0.078414,-0.765552,0.232228,-0.705537,0.377117,-0.618408,0.507515,-0.507515,0.618408,-0.377117,0.705537,-0.232228,0.765552,-0.078414,0.796148,0.000000,0.796148,0.000000,0.800000,0.600000,0.800000,0.603843,0.796157,0.603843,0.796157,$1*%
%AMFreePoly1*
4,1,37,0.000000,0.796148,0.078414,0.796148,0.232228,0.765552,0.377117,0.705537,0.507515,0.618408,0.618408,0.507515,0.705537,0.377117,0.765552,0.232228,0.796148,0.078414,0.796148,-0.078414,0.765552,-0.232228,0.705537,-0.377117,0.618408,-0.507515,0.507515,-0.618408,0.377117,-0.705537,0.232228,-0.765552,0.078414,-0.796148,0.000000,-0.796148,0.000000,-0.800000,-0.600000,-0.800000,
-0.603843,-0.796157,-0.639018,-0.796157,-0.711114,-0.766294,-0.766294,-0.711114,-0.796157,-0.639018,-0.796157,-0.603843,-0.800000,-0.600000,-0.800000,0.600000,-0.796157,0.603843,-0.796157,0.639018,-0.766294,0.711114,-0.711114,0.766294,-0.639018,0.796157,-0.603843,0.796157,-0.600000,0.800000,0.000000,0.800000,0.000000,0.796148,0.000000,0.796148,$1*%
G04 Aperture macros list end*
%ADD10C,1.600000*%
%ADD11RoundRect,0.250001X-0.949999X-0.949999X0.949999X-0.949999X0.949999X0.949999X-0.949999X0.949999X0*%
%ADD12C,2.400000*%
%ADD13C,2.700000*%
%ADD14RoundRect,0.250000X1.000000X-1.400000X1.000000X1.400000X-1.000000X1.400000X-1.000000X-1.400000X0*%
%ADD15C,2.010000*%
%ADD16RoundRect,0.250000X0.750000X-0.600000X0.750000X0.600000X-0.750000X0.600000X-0.750000X-0.600000X0*%
%ADD17O,2.000000X1.700000*%
%ADD18R,1.700000X1.700000*%
%ADD19C,1.700000*%
%ADD20C,3.200000*%
%ADD21RoundRect,0.150000X-0.587500X-0.150000X0.587500X-0.150000X0.587500X0.150000X-0.587500X0.150000X0*%
%ADD22RoundRect,0.250000X-0.600000X-0.725000X0.600000X-0.725000X0.600000X0.725000X-0.600000X0.725000X0*%
%ADD23O,1.700000X1.950000*%
%ADD24RoundRect,0.250000X0.550000X-0.550000X0.550000X0.550000X-0.550000X0.550000X-0.550000X-0.550000X0*%
%ADD25C,2.780000*%
%ADD26RoundRect,0.249999X-0.850001X-0.850001X0.850001X-0.850001X0.850001X0.850001X-0.850001X0.850001X0*%
%ADD27C,2.200000*%
%ADD28RoundRect,0.250000X0.725000X-0.600000X0.725000X0.600000X-0.725000X0.600000X-0.725000X-0.600000X0*%
%ADD29O,1.950000X1.700000*%
%ADD30RoundRect,0.200000X-2.100000X-0.200000X2.100000X-0.200000X2.100000X0.200000X-2.100000X0.200000X0*%
%ADD31RoundRect,0.250002X-4.449998X-5.149998X4.449998X-5.149998X4.449998X5.149998X-4.449998X5.149998X0*%
%ADD32R,1.905000X2.000000*%
%ADD33O,1.905000X2.000000*%
%ADD34RoundRect,0.200000X-0.600000X0.600000X-0.600000X-0.600000X0.600000X-0.600000X0.600000X0.600000X0*%
%ADD35FreePoly0,270.000000*%
%ADD36FreePoly1,270.000000*%
%ADD37C,1.500000*%
%ADD38R,1.800000X1.800000*%
%ADD39C,1.800000*%
%ADD40RoundRect,0.250000X-0.550000X-0.550000X0.550000X-0.550000X0.550000X0.550000X-0.550000X0.550000X0*%
G04 APERTURE END LIST*
D10*
%TO.C,R16*%
X107920000Y-124000000D03*
X118080000Y-124000000D03*
%TD*%
D11*
%TO.C,J16*%
X51160000Y-132775000D03*
D12*
X56240000Y-132775000D03*
%TD*%
D10*
%TO.C,R10*%
X72920000Y-123000000D03*
X83080000Y-123000000D03*
%TD*%
D13*
%TO.C,H7*%
X88500000Y-48500000D03*
%TD*%
D14*
%TO.C,D5*%
X66600000Y-73000000D03*
X73400000Y-73000000D03*
%TD*%
D15*
%TO.C,F2*%
X137450000Y-125400000D03*
X142550000Y-126600000D03*
%TD*%
D16*
%TO.C,J10*%
X165475000Y-81250000D03*
D17*
X165475000Y-78750000D03*
%TD*%
D10*
%TO.C,R11*%
X80000000Y-99080000D03*
X80000000Y-88920000D03*
%TD*%
D13*
%TO.C,H9*%
X88500000Y-97500000D03*
%TD*%
D18*
%TO.C,J14*%
X24190000Y-50000000D03*
D19*
X26730000Y-50000000D03*
X29270000Y-50000000D03*
X31810000Y-50000000D03*
%TD*%
D20*
%TO.C,H2*%
X165000000Y-25000000D03*
%TD*%
D10*
%TO.C,R19*%
X44920000Y-124000000D03*
X55080000Y-124000000D03*
%TD*%
%TO.C,R32*%
X107920000Y-128000000D03*
X118080000Y-128000000D03*
%TD*%
%TO.C,R15*%
X93920000Y-124000000D03*
X104080000Y-124000000D03*
%TD*%
D20*
%TO.C,H4*%
X36000000Y-86000000D03*
%TD*%
D21*
%TO.C,D14*%
X123062500Y-123050000D03*
X123062500Y-124950000D03*
X124937500Y-124000000D03*
%TD*%
D10*
%TO.C,C21*%
X110500000Y-120000000D03*
X115500000Y-120000000D03*
%TD*%
%TO.C,R13*%
X58920000Y-36500000D03*
X69080000Y-36500000D03*
%TD*%
D22*
%TO.C,J8*%
X147250000Y-27475000D03*
D23*
X149750000Y-27475000D03*
X152250000Y-27475000D03*
X154750000Y-27475000D03*
%TD*%
D10*
%TO.C,C12*%
X74000000Y-110500000D03*
X74000000Y-105500000D03*
%TD*%
%TO.C,R2*%
X58920000Y-32000000D03*
X69080000Y-32000000D03*
%TD*%
D21*
%TO.C,D10*%
X155062500Y-47050000D03*
X155062500Y-48950000D03*
X156937500Y-48000000D03*
%TD*%
D18*
%TO.C,J12*%
X141110000Y-132000000D03*
D19*
X143650000Y-132000000D03*
X146190000Y-132000000D03*
X148730000Y-132000000D03*
X151270000Y-132000000D03*
X153810000Y-132000000D03*
X156350000Y-132000000D03*
X158890000Y-132000000D03*
%TD*%
D10*
%TO.C,R30*%
X93920000Y-128000000D03*
X104080000Y-128000000D03*
%TD*%
D20*
%TO.C,H5*%
X25000000Y-135000000D03*
%TD*%
D10*
%TO.C,R6*%
X64920000Y-44000000D03*
X75080000Y-44000000D03*
%TD*%
D24*
%TO.C,C3*%
X150998800Y-116250000D03*
D10*
X150998800Y-113750000D03*
%TD*%
D18*
%TO.C,J13*%
X99110000Y-132000000D03*
D19*
X101650000Y-132000000D03*
X104190000Y-132000000D03*
X106730000Y-132000000D03*
X109270000Y-132000000D03*
X111810000Y-132000000D03*
X114350000Y-132000000D03*
X116890000Y-132000000D03*
%TD*%
D25*
%TO.C,F1*%
X33040000Y-29300000D03*
X33040000Y-32700000D03*
X42960000Y-29300000D03*
X42960000Y-32700000D03*
%TD*%
D18*
%TO.C,J2*%
X58725000Y-43875000D03*
D19*
X61265000Y-43875000D03*
X58725000Y-46415000D03*
X61265000Y-46415000D03*
X58725000Y-48955000D03*
X61265000Y-48955000D03*
X58725000Y-51495000D03*
X61265000Y-51495000D03*
X58725000Y-54035000D03*
X61265000Y-54035000D03*
X58725000Y-56575000D03*
X61265000Y-56575000D03*
X58725000Y-59115000D03*
X61265000Y-59115000D03*
X58725000Y-61655000D03*
X61265000Y-61655000D03*
X58725000Y-64195000D03*
X61265000Y-64195000D03*
X58725000Y-66735000D03*
X61265000Y-66735000D03*
X58725000Y-69275000D03*
X61265000Y-69275000D03*
X58725000Y-71815000D03*
X61265000Y-71815000D03*
X58725000Y-74355000D03*
X61265000Y-74355000D03*
X58725000Y-76895000D03*
X61265000Y-76895000D03*
X58725000Y-79435000D03*
X61265000Y-79435000D03*
X58725000Y-81975000D03*
X61265000Y-81975000D03*
X58725000Y-84515000D03*
X61265000Y-84515000D03*
X58725000Y-87055000D03*
X61265000Y-87055000D03*
X58725000Y-89595000D03*
X61265000Y-89595000D03*
X58725000Y-92135000D03*
X61265000Y-92135000D03*
%TD*%
D26*
%TO.C,D4*%
X64920000Y-66000000D03*
D27*
X75080000Y-66000000D03*
%TD*%
D28*
%TO.C,J11*%
X158475000Y-42750000D03*
D29*
X158475000Y-40250000D03*
X158475000Y-37750000D03*
X158475000Y-35250000D03*
%TD*%
D21*
%TO.C,D6*%
X83562500Y-105050000D03*
X83562500Y-106950000D03*
X85437500Y-106000000D03*
%TD*%
D10*
%TO.C,R18*%
X26920000Y-124000000D03*
X37080000Y-124000000D03*
%TD*%
D30*
%TO.C,U8*%
X44225000Y-104190000D03*
X44225000Y-105460000D03*
X44225000Y-106730000D03*
X44225000Y-108000000D03*
D31*
X53375000Y-108000000D03*
D30*
X44225000Y-109270000D03*
X44225000Y-110540000D03*
X44225000Y-111810000D03*
%TD*%
D20*
%TO.C,H3*%
X36000000Y-65000000D03*
%TD*%
D32*
%TO.C,Q1*%
X67460000Y-52950000D03*
D33*
X70000000Y-52950000D03*
X72540000Y-52950000D03*
%TD*%
D34*
%TO.C,U1*%
X138000000Y-62000000D03*
D10*
X135460000Y-62000000D03*
D35*
X132920000Y-62000000D03*
D10*
X130380000Y-62000000D03*
X127840000Y-62000000D03*
X125300000Y-62000000D03*
X122760000Y-62000000D03*
D35*
X120220000Y-62000000D03*
D10*
X117680000Y-62000000D03*
X115140000Y-62000000D03*
X112600000Y-62000000D03*
X110060000Y-62000000D03*
D35*
X107520000Y-62000000D03*
D10*
X104980000Y-62000000D03*
X102440000Y-62000000D03*
X99900000Y-62000000D03*
X97360000Y-62000000D03*
D35*
X94820000Y-62000000D03*
D10*
X92280000Y-62000000D03*
X89740000Y-62000000D03*
X89740000Y-79780000D03*
X92280000Y-79780000D03*
D36*
X94820000Y-79780000D03*
D10*
X97360000Y-79780000D03*
X99900000Y-79780000D03*
X102440000Y-79780000D03*
X104980000Y-79780000D03*
D36*
X107520000Y-79780000D03*
D10*
X110060000Y-79780000D03*
X112600000Y-79780000D03*
X115140000Y-79780000D03*
X117680000Y-79780000D03*
D36*
X120220000Y-79780000D03*
D10*
X122760000Y-79780000D03*
X125300000Y-79780000D03*
X127840000Y-79780000D03*
X130380000Y-79780000D03*
D36*
X132920000Y-79780000D03*
D10*
X135460000Y-79780000D03*
X138000000Y-79780000D03*
D37*
X89970000Y-68350000D03*
X89970000Y-70890000D03*
X89970000Y-73430000D03*
%TD*%
D38*
%TO.C,LED1*%
X62725000Y-26000000D03*
D39*
X65265000Y-26000000D03*
%TD*%
D10*
%TO.C,R1*%
X64920000Y-60000000D03*
X75080000Y-60000000D03*
%TD*%
D13*
%TO.C,H10*%
X146500000Y-97500000D03*
%TD*%
D10*
%TO.C,C5*%
X81000000Y-108500000D03*
X81000000Y-103500000D03*
%TD*%
%TO.C,R39*%
X26920000Y-119000000D03*
X37080000Y-119000000D03*
%TD*%
%TO.C,R20*%
X148000000Y-42580000D03*
X148000000Y-32420000D03*
%TD*%
D11*
%TO.C,C2*%
X136498700Y-115000000D03*
D12*
X141498700Y-115000000D03*
%TD*%
D18*
%TO.C,J9*%
X128000000Y-131725000D03*
D19*
X128000000Y-134265000D03*
%TD*%
D40*
%TO.C,C22*%
X64251200Y-106000000D03*
D10*
X67751200Y-106000000D03*
%TD*%
D22*
%TO.C,J6*%
X119250000Y-27475000D03*
D23*
X121750000Y-27475000D03*
X124250000Y-27475000D03*
X126750000Y-27475000D03*
%TD*%
D20*
%TO.C,H1*%
X25000000Y-25000000D03*
%TD*%
D21*
%TO.C,D8*%
X63062500Y-123050000D03*
X63062500Y-124950000D03*
X64937500Y-124000000D03*
%TD*%
D10*
%TO.C,R40*%
X44920000Y-119000000D03*
X55080000Y-119000000D03*
%TD*%
D21*
%TO.C,D11*%
X155062500Y-51050000D03*
X155062500Y-52950000D03*
X156937500Y-52000000D03*
%TD*%
D10*
%TO.C,R38*%
X93920000Y-120000000D03*
X104080000Y-120000000D03*
%TD*%
D11*
%TO.C,C1*%
X122498700Y-115000000D03*
D12*
X127498700Y-115000000D03*
%TD*%
D22*
%TO.C,J4*%
X91250000Y-27475000D03*
D23*
X93750000Y-27475000D03*
X96250000Y-27475000D03*
X98750000Y-27475000D03*
%TD*%
D22*
%TO.C,J7*%
X133250000Y-27475000D03*
D23*
X135750000Y-27475000D03*
X138250000Y-27475000D03*
X140750000Y-27475000D03*
%TD*%
D11*
%TO.C,J22*%
X67160000Y-132775000D03*
D12*
X72240000Y-132775000D03*
%TD*%
D10*
%TO.C,R12*%
X83300000Y-99080000D03*
X83300000Y-88920000D03*
%TD*%
D30*
%TO.C,U7*%
X26225000Y-104190000D03*
X26225000Y-105460000D03*
X26225000Y-106730000D03*
X26225000Y-108000000D03*
D31*
X35375000Y-108000000D03*
D30*
X26225000Y-109270000D03*
X26225000Y-110540000D03*
X26225000Y-111810000D03*
%TD*%
D38*
%TO.C,LED5*%
X54725000Y-26000000D03*
D39*
X57265000Y-26000000D03*
%TD*%
D10*
%TO.C,R21*%
X152000000Y-42580000D03*
X152000000Y-32420000D03*
%TD*%
%TO.C,R9*%
X72920000Y-119000000D03*
X83080000Y-119000000D03*
%TD*%
D20*
%TO.C,H6*%
X165000000Y-135000000D03*
%TD*%
D22*
%TO.C,J5*%
X105250000Y-27475000D03*
D23*
X107750000Y-27475000D03*
X110250000Y-27475000D03*
X112750000Y-27475000D03*
%TD*%
D10*
%TO.C,R8*%
X72920000Y-115000000D03*
X83080000Y-115000000D03*
%TD*%
%TO.C,R5*%
X64920000Y-40000000D03*
X75080000Y-40000000D03*
%TD*%
D13*
%TO.C,H8*%
X146500000Y-48500000D03*
%TD*%
D10*
%TO.C,C23*%
X66000000Y-119500000D03*
X66000000Y-114500000D03*
%TD*%
D22*
%TO.C,J3*%
X77250000Y-27475000D03*
D23*
X79750000Y-27475000D03*
X82250000Y-27475000D03*
X84750000Y-27475000D03*
%TD*%
D18*
%TO.C,J1*%
X93370000Y-49770000D03*
D19*
X93370000Y-47230000D03*
X95910000Y-49770000D03*
X95910000Y-47230000D03*
X98450000Y-49770000D03*
X98450000Y-47230000D03*
X100990000Y-49770000D03*
X100990000Y-47230000D03*
X103530000Y-49770000D03*
X103530000Y-47230000D03*
X106070000Y-49770000D03*
X106070000Y-47230000D03*
X108610000Y-49770000D03*
X108610000Y-47230000D03*
X111150000Y-49770000D03*
X111150000Y-47230000D03*
X113690000Y-49770000D03*
X113690000Y-47230000D03*
X116230000Y-49770000D03*
X116230000Y-47230000D03*
X118770000Y-49770000D03*
X118770000Y-47230000D03*
X121310000Y-49770000D03*
X121310000Y-47230000D03*
X123850000Y-49770000D03*
X123850000Y-47230000D03*
X126390000Y-49770000D03*
X126390000Y-47230000D03*
X128930000Y-49770000D03*
X128930000Y-47230000D03*
X131470000Y-49770000D03*
X131470000Y-47230000D03*
X134010000Y-49770000D03*
X134010000Y-47230000D03*
X136550000Y-49770000D03*
X136550000Y-47230000D03*
X139090000Y-49770000D03*
X139090000Y-47230000D03*
X141630000Y-49770000D03*
X141630000Y-47230000D03*
%TD*%
M02*
